<svg width="109" height="141" viewBox="0 0 109 141" fill="none" xmlns="http://www.w3.org/2000/svg">
<ellipse cx="50" cy="99" rx="50" ry="42" fill="#81306E"/>
<path d="M47.8931 127.074C23.2843 122.613 14.3774 106.29 13 98.6864C50.4641 90.17 77.2767 103.925 86 111.866C83.5514 118.794 72.5019 131.535 47.8931 127.074Z" fill="#D9D9D9"/>
<ellipse cx="45.6581" cy="106.965" rx="9.04913" ry="18.5" transform="rotate(11.86 45.6581 106.965)" fill="#899137"/>
<path d="M85.565 112C65.9298 99.1002 29.007 97.866 13 98.8614C17.98 86.519 34.2359 63.5065 59.4203 70.1952C84.6046 76.884 87.3436 100.852 85.565 112Z" fill="#541F4A"/>
<path d="M65 -0.5C71.4 31.1 60.3333 54 54 61.5L82.5 75C80.5 52.2 99.3333 15.1667 109 -0.5H65Z" fill="#81306E"/>
</svg>
