<svg width="542" height="329" viewBox="0 0 542 329" fill="none" xmlns="http://www.w3.org/2000/svg">
<path d="M249.5 111C67.1 45.4 7.16667 228.667 0 328.5H209.5C196.7 219.7 287.833 220.167 335 234C395 255.333 519.3 272 536.5 168C553.7 64 498.667 12.6667 469 0C471.833 64.3333 431.9 176.6 249.5 111Z" fill="#899137"/>
<ellipse cx="55" cy="232" rx="13" ry="12" fill="#993A80"/>
<ellipse cx="333" cy="158" rx="13" ry="12" fill="#993A80"/>
<ellipse cx="35.5" cy="266.5" rx="10.5" ry="8.5" fill="#993A80"/>
<ellipse cx="361.5" cy="173.5" rx="10.5" ry="8.5" fill="#993A80"/>
<ellipse cx="46" cy="302" rx="20" ry="13" fill="#993A80"/>
<ellipse cx="237" cy="155" rx="20" ry="13" fill="#993A80"/>
<ellipse cx="80.5" cy="195" rx="12.5" ry="18" fill="#993A80"/>
<ellipse cx="297.5" cy="168" rx="12.5" ry="18" fill="#993A80"/>
<ellipse cx="429.5" cy="146" rx="12.5" ry="18" fill="#993A80"/>
<ellipse cx="111" cy="170" rx="13" ry="12" fill="#993A80"/>
<ellipse cx="120.5" cy="142" rx="9.5" ry="8" fill="#993A80"/>
<ellipse cx="276.5" cy="146" rx="9.5" ry="8" fill="#993A80"/>
<ellipse cx="469.5" cy="99" rx="9.5" ry="8" fill="#993A80"/>
<ellipse cx="170.5" cy="146" rx="13.5" ry="12" fill="#993A80"/>
<ellipse cx="465.5" cy="128" rx="13.5" ry="12" fill="#993A80"/>
<ellipse cx="202.5" cy="131.5" rx="8.5" ry="10.5" fill="#993A80"/>
<ellipse cx="380.5" cy="156.5" rx="8.5" ry="10.5" fill="#993A80"/>
<path d="M336 235C218 202.2 202.5 283.667 209.5 328.5H138.5C149.3 264.1 200.667 225 225 213.5C248.5 205 302.1 192.1 328.5 208.5C354.9 224.9 408.833 220.667 432.5 216.5C458.167 211.333 508.5 183.4 504.5 113C500.5 42.6 479.833 9 470 1C529 32 542 104 541.5 127.5C541 151 545.5 192.5 498 232C460 263.6 374.167 247.167 336 235Z" fill="#747B30"/>
</svg>
