<svg width="281" height="350" viewBox="0 0 281 350" fill="none" xmlns="http://www.w3.org/2000/svg">
<rect width="281" height="349.631" rx="20" fill="#202020" fill-opacity="0.5"/>
<g filter="url(#filter0_d_337_37)">
<path d="M92.1918 106.417C127.768 75.5078 169.68 93.5379 186.189 106.417C190.743 109.658 194.402 111.48 197.524 111.48C199.962 111.48 201.444 112.337 201.747 112.769C203.389 114.498 206.077 118.785 203.692 122.104C201.306 125.423 202.775 128.734 202.963 129.859C203.338 131.172 203.106 131.773 210.84 132.672C218.733 133.59 223.053 136.409 224.306 138.181C224.998 138.959 226.407 141.63 226.51 146.09C226.614 150.55 223.183 152.356 221.454 152.702C218.602 153.177 212.067 155.969 208.748 163.333C205.429 170.698 213.243 179.799 217.564 183.429C218.861 184.337 221.324 186.904 220.806 189.912C220.287 192.92 217.997 192.98 216.916 192.635C216.052 192.375 214.116 190.845 213.286 186.8C212.456 182.755 209.396 180.274 207.97 179.54C205.464 178.2 200.606 177.465 201.228 185.244C201.851 193.023 198.549 195.487 196.82 195.746C196.734 202.445 196.95 217.891 198.506 226.085C200.061 234.278 195.264 235.895 192.671 235.679C190.856 235.592 187.9 232.826 190.597 222.454C193.294 212.082 192.066 200.327 191.116 195.746C189.733 195.876 186.967 194.89 186.967 189.912C186.967 184.933 185.152 183.775 184.244 183.818C183.553 183.559 181.444 183.403 178.539 184.855C174.909 186.671 175.428 204.044 175.557 211.564C175.661 217.579 173.267 216.923 172.057 215.842C171.668 215.54 171.046 213.068 171.668 205.6C172.29 198.132 169.766 196.178 168.427 196.135C166.828 195.789 163.707 196.472 164.018 201.969C164.33 207.467 162.592 208.409 161.685 208.193C160.648 208.322 158.729 207.493 159.351 203.136C159.973 198.78 158.141 197.259 157.147 197.043C156.455 196.697 154.658 196.706 152.998 199.506C151.339 202.307 151.615 216.404 151.961 223.103C152.047 225.177 152.557 230.985 153.906 237.623C155.254 244.262 152.307 245.489 150.664 245.273C148.417 245.057 144.286 243.561 145.738 239.309C147.19 235.056 147.553 230.363 147.553 228.548C147.596 223.621 147.657 212.808 147.553 208.971C147.449 205.133 145.435 204.087 144.441 204.044C142.669 203.612 139.307 204.148 140.033 209.748C140.759 215.349 137.915 217.7 136.403 218.176C136.403 229.758 136.455 253.934 136.662 257.979C136.87 262.024 138.65 269.863 139.514 273.278C139.903 275.136 139.592 279.319 135.236 281.186C130.88 283.053 129.272 279.112 129.013 276.908C128.753 274.617 128.65 269.336 130.309 266.536C131.969 263.735 132.211 258.8 132.124 256.682V218.176C130.525 216.75 127.509 212.134 128.235 205.081C128.961 198.028 125.944 194.968 124.345 194.32C121.752 193.283 116.955 192.868 118.511 199.506C120.067 206.144 119.159 215.496 118.511 219.343C118.079 221.287 117.603 226.499 119.159 231.789C120.715 237.079 119.375 238.661 118.511 238.79C117.776 239.05 115.97 239.335 114.621 238.401C113.273 237.468 113.541 232.74 113.843 230.493C114.449 226.171 115.373 213.923 114.232 199.506C113.092 185.089 108.398 185.461 106.194 187.449C105.027 188.501 103.766 190.417 103.082 191.597C101.656 194.061 100.23 198.21 98.6743 200.673C96.9111 203.888 97.9396 208.582 98.6743 210.526C102.927 220.587 101.397 224.918 100.1 225.825C98.5015 227.338 94.6551 229.715 92.0621 227.122C89.4691 224.529 90.9817 217.225 92.0621 213.897C93.2722 209.316 95.0441 199.895 92.4511 198.858C89.8581 197.821 88.8641 191.252 88.6912 188.097C86.2019 170.879 80.48 173.317 77.9302 176.687C76.0718 178.935 73.159 185.322 76.3743 192.894C79.5897 200.465 76.3311 203.828 74.2999 204.562C73.3491 204.951 70.7734 205.133 68.0767 202.747C65.3799 200.362 66.5209 195.184 67.4284 192.894C72.7182 173.602 68.7681 165.667 66.1319 164.111C63.7118 162.296 58.2751 159.755 55.8895 164.111C53.5039 168.468 50.6602 169.038 49.5366 168.779C47.8944 168.174 45.9323 166.108 51.2221 162.685C56.5118 159.262 57.3157 153.393 57.0564 150.887C56.8403 147.602 57.6269 140.748 62.5017 139.607C67.3766 138.466 69.2868 133.341 69.6325 130.921C69.9783 128.76 69.814 123.297 66.3912 118.733C62.9685 114.17 62.9771 109.053 63.4093 107.065C64.2736 104.688 67.8174 101.516 75.0779 107.843C82.3383 114.17 89.5123 109.528 92.1918 106.417Z" fill="#C12026"/>
<path d="M82.2095 93.7108C82.1057 90.8067 84.2407 90.167 85.3211 90.2103C87.6548 90.2103 89.2106 90.9882 89.2106 93.9701C89.2106 96.3557 87.3091 96.9521 86.3583 96.9521C85.0186 97.0818 82.3132 96.615 82.2095 93.7108Z" fill="#C12026"/>
<path d="M54.7235 123.271C58.1463 123.997 60.9035 130.575 61.8543 133.773C59.5724 132.01 55.4582 131.828 53.6863 131.958C52.5194 131.958 49.8486 131.439 48.5002 129.365C47.1518 127.29 47.7655 125.994 48.2409 125.605C48.9756 124.525 51.3007 122.545 54.7235 123.271Z" fill="#C12026"/>
<path d="M48.7596 180.058C48.241 176.739 51.5687 175.564 53.2974 175.391C55.5015 175.391 57.8351 176.298 57.8351 180.058C57.8351 183.066 54.8099 183.991 53.2974 184.078C52.0008 184.121 49.2782 183.377 48.7596 180.058Z" fill="#C12026"/>
<path d="M218.473 168.26C218.058 166.289 219.856 165.365 220.806 165.148C221.844 165.148 223.659 165.148 224.048 167.482C224.359 169.349 222.708 170.162 221.844 170.335C220.893 170.464 218.888 170.231 218.473 168.26Z" fill="#C12026"/>
<path d="M214.194 124.308C213.779 120.574 216.787 119.209 218.342 118.993C220.028 118.993 223.529 119.382 223.399 123.401C223.295 126.616 220.849 127.679 219.639 127.809C217.997 128.198 214.609 128.042 214.194 124.308Z" fill="#C12026"/>
<path d="M200.451 96.8225C198.584 99.623 197.944 104.818 197.858 107.065C200.321 104.861 203.044 104.472 204.729 104.342C206.078 104.239 207.711 103.089 208.36 102.527C208.576 102.441 209.086 101.749 209.397 99.6748C209.708 97.6004 208.144 96.2175 207.322 95.7853C205.81 94.9642 202.318 94.022 200.451 96.8225Z" fill="#C12026"/>
<rect x="37.5532" y="134.584" width="7.20041" height="23.8513" rx="3.6002" fill="#202020"/>
<rect x="63.8794" y="139.31" width="7.20041" height="19.1261" transform="rotate(90 63.8794 139.31)" fill="#202020"/>
<rect x="63.8794" y="146.51" width="7.20041" height="19.1261" transform="rotate(90 63.8794 146.51)" fill="#202020"/>
<rect x="63.8794" y="129.859" width="7.20041" height="33.3019" rx="3.6002" fill="#202020"/>
<path d="M209.8 134.631L71.0796 139.477V146.634H244.742L209.8 134.631Z" fill="#202020"/>
<path d="M209.8 158.261L71.0796 153.415V146.258H244.742L209.8 158.261Z" fill="#202020"/>
<g filter="url(#filter1_d_337_37)">
<path d="M79.2623 142.726C79.179 142.643 79.1373 142.528 79.1373 142.383C79.1373 142.278 79.1373 142.195 79.1373 142.133C79.1582 142.049 79.179 141.955 79.1998 141.851C79.304 141.372 79.3561 140.893 79.3561 140.414C79.3561 139.914 79.3769 139.424 79.4186 138.945C79.4394 138.653 79.4498 138.362 79.4498 138.07C79.4707 137.778 79.4811 137.487 79.4811 137.195C79.4811 135.466 79.429 133.747 79.3248 132.039C79.2207 130.31 79.1686 128.57 79.1686 126.82C79.1686 125.612 79.1894 124.403 79.2311 123.195C79.2728 121.966 79.304 120.737 79.3248 119.508C79.5123 119.403 79.7415 119.362 80.0123 119.383C80.2832 119.403 80.5019 119.31 80.6686 119.101C80.7728 119.08 80.8769 119.08 80.9811 119.101C81.0853 119.101 81.1894 119.101 81.2936 119.101C81.5228 119.101 81.7415 119.028 81.9498 118.883C82.1582 118.737 82.3873 118.612 82.6373 118.508C82.7623 118.549 82.8457 118.57 82.8873 118.57C82.9498 118.549 83.0123 118.539 83.0748 118.539C83.1373 118.539 83.2728 118.612 83.4811 118.758C83.6894 118.903 83.9186 119.07 84.1686 119.258C84.4186 119.445 84.6478 119.622 84.8561 119.789C85.0853 119.955 85.2311 120.06 85.2936 120.101C85.8144 120.497 86.2728 120.935 86.6686 121.414C87.0853 121.872 87.4915 122.341 87.8873 122.82C88.2623 123.299 88.6686 123.789 89.1061 124.289C89.5436 124.768 89.9707 125.216 90.3873 125.633C90.5332 125.799 90.679 125.945 90.8248 126.07C90.9915 126.195 91.1478 126.341 91.2936 126.508C91.3561 126.591 91.4082 126.685 91.4498 126.789C91.5123 126.872 91.5748 126.966 91.6373 127.07C91.7623 127.216 91.9082 127.341 92.0748 127.445C92.2415 127.549 92.3978 127.674 92.5436 127.82C92.6478 127.903 92.804 128.07 93.0123 128.32C93.2207 128.57 93.3248 128.758 93.3248 128.883C93.3248 128.966 93.304 129.039 93.2623 129.101C93.2207 129.164 93.179 129.237 93.1373 129.32C93.1165 129.383 93.1061 129.476 93.1061 129.601C93.1061 129.726 93.0957 129.81 93.0748 129.851C92.8665 130.018 92.7519 130.122 92.7311 130.164C92.7103 130.205 92.679 130.247 92.6373 130.289C92.5748 130.372 92.4915 130.445 92.3873 130.508C92.304 130.549 92.2415 130.622 92.1998 130.726C92.1582 130.789 92.1373 130.851 92.1373 130.914C92.1582 130.976 92.1478 131.049 92.1061 131.133C92.0019 131.362 91.8353 131.58 91.6061 131.789C91.3769 131.997 91.179 132.226 91.0123 132.476C90.7832 132.851 90.554 133.226 90.3248 133.601C90.0957 133.976 89.8353 134.341 89.5436 134.695C89.4186 134.862 89.2832 135.028 89.1373 135.195C89.0123 135.341 88.8873 135.497 88.7623 135.664C88.6582 135.789 88.5644 135.924 88.4811 136.07C88.3978 136.195 88.304 136.341 88.1998 136.508C87.9707 136.799 87.7519 137.091 87.5436 137.383C87.3353 137.653 87.1165 137.935 86.8873 138.226C86.6373 138.58 86.3665 138.935 86.0748 139.289C85.7832 139.622 85.5228 139.966 85.2936 140.32C85.0644 140.695 84.8248 141.039 84.5748 141.351C84.3248 141.664 84.054 141.966 83.7623 142.258C83.679 142.32 83.5748 142.414 83.4498 142.539C83.3248 142.664 83.1998 142.726 83.0748 142.726C82.9915 142.726 82.9186 142.695 82.8561 142.633C82.8144 142.57 82.7415 142.539 82.6373 142.539C82.6165 142.539 82.554 142.549 82.4498 142.57C82.3457 142.591 82.2207 142.612 82.0748 142.633L81.5123 142.695C81.179 142.862 80.9394 142.935 80.7936 142.914C80.6478 142.914 80.5019 142.924 80.3561 142.945C80.2728 142.966 80.1998 142.997 80.1373 143.039C80.0957 143.08 80.0436 143.101 79.9811 143.101C79.8353 143.101 79.7207 143.028 79.6373 142.883C79.554 142.758 79.429 142.705 79.2623 142.726ZM88.6373 129.226C88.6373 129.122 88.5332 128.976 88.3248 128.789C88.1373 128.601 87.9915 128.466 87.8873 128.383C87.7415 128.258 87.5644 128.143 87.3561 128.039C87.1686 127.914 87.0123 127.778 86.8873 127.633C86.7832 127.508 86.679 127.383 86.5748 127.258C86.4915 127.112 86.3978 126.976 86.2936 126.851C85.9186 126.435 85.5332 126.018 85.1373 125.601C84.7623 125.185 84.429 124.726 84.1373 124.226C83.9498 124.101 83.7728 123.955 83.6061 123.789C83.4394 123.622 83.2415 123.487 83.0123 123.383C82.9707 123.508 82.9498 123.643 82.9498 123.789C82.9707 123.914 82.9811 124.039 82.9811 124.164C82.9811 124.643 82.9603 125.112 82.9186 125.57C82.8769 126.028 82.8561 126.487 82.8561 126.945C82.8561 128.07 82.8769 129.185 82.9186 130.289C82.9811 131.372 83.0123 132.466 83.0123 133.57C83.0123 133.987 83.0123 134.403 83.0123 134.82C83.0332 135.237 83.0748 135.653 83.1373 136.07C83.0957 136.195 83.0748 136.31 83.0748 136.414C83.0748 136.518 83.0957 136.653 83.1373 136.82C83.304 136.716 83.4394 136.591 83.5436 136.445C83.6686 136.278 83.7832 136.122 83.8873 135.976C84.2415 135.518 84.5853 135.06 84.9186 134.601C85.2728 134.122 85.6269 133.643 85.9811 133.164C86.2103 132.851 86.4394 132.549 86.6686 132.258C86.9186 131.945 87.1582 131.622 87.3873 131.289C87.4498 131.205 87.5436 131.06 87.6686 130.851C87.8144 130.643 87.9498 130.435 88.0748 130.226C88.2207 129.997 88.3457 129.789 88.4498 129.601C88.5748 129.414 88.6373 129.289 88.6373 129.226ZM99.6686 134.164C99.7103 134.268 99.8561 134.487 100.106 134.82C100.377 135.153 100.679 135.518 101.012 135.914C101.346 136.31 101.658 136.695 101.95 137.07C102.262 137.424 102.481 137.685 102.606 137.851C102.835 138.143 103.054 138.435 103.262 138.726C103.492 138.997 103.7 139.289 103.887 139.601L104.45 140.539C104.617 140.747 104.762 140.924 104.887 141.07C105.033 141.216 105.148 141.414 105.231 141.664C105.273 141.83 105.294 141.945 105.294 142.008C105.294 142.153 105.242 142.258 105.137 142.32C104.971 142.32 104.877 142.341 104.856 142.383C104.856 142.445 104.814 142.497 104.731 142.539C104.648 142.58 104.512 142.601 104.325 142.601C104.158 142.622 104.023 142.633 103.919 142.633C103.731 142.633 103.492 142.622 103.2 142.601C102.929 142.601 102.71 142.633 102.544 142.695C102.502 142.716 102.439 142.747 102.356 142.789C102.273 142.83 102.21 142.851 102.169 142.851C102.002 142.851 101.877 142.82 101.794 142.758C101.731 142.716 101.637 142.685 101.512 142.664C101.346 142.476 101.2 142.289 101.075 142.101C100.971 141.893 100.846 141.685 100.7 141.476C100.554 141.33 100.408 141.205 100.262 141.101C100.117 140.976 99.9915 140.841 99.8873 140.695C99.5748 140.237 99.2519 139.789 98.9186 139.351C98.5853 138.914 98.2415 138.487 97.8873 138.07C97.7207 137.841 97.5436 137.633 97.3561 137.445C97.1686 137.258 96.9915 137.049 96.8248 136.82C96.6582 136.612 96.5019 136.393 96.3561 136.164C96.2103 135.914 96.0644 135.674 95.9186 135.445C95.7936 135.258 95.6269 135.018 95.4186 134.726C95.2103 134.414 94.9811 134.112 94.7311 133.82C94.4811 133.508 94.2311 133.216 93.9811 132.945C93.7311 132.674 93.5228 132.466 93.3561 132.32C93.3353 132.195 93.2832 132.101 93.1998 132.039C93.1165 131.955 93.0228 131.883 92.9186 131.82C92.8769 131.716 92.8353 131.622 92.7936 131.539C92.7311 131.435 92.6998 131.33 92.6998 131.226C92.6998 131.08 92.7311 130.945 92.7936 130.82C92.8353 130.737 92.8665 130.664 92.8873 130.601C92.8873 130.518 92.9082 130.435 92.9498 130.351C93.054 130.122 93.1894 129.903 93.3561 129.695C93.5436 129.466 93.6894 129.226 93.7936 128.976C93.8353 128.914 93.8561 128.851 93.8561 128.789C93.8561 128.705 93.8769 128.633 93.9186 128.57C93.9603 128.403 94.0436 128.268 94.1686 128.164C94.3144 128.039 94.429 127.903 94.5123 127.758C94.6165 127.591 94.7103 127.424 94.7936 127.258C94.8978 127.07 95.0019 126.872 95.1061 126.664C95.4186 126.143 95.7415 125.643 96.0748 125.164C96.429 124.664 96.7832 124.164 97.1373 123.664C97.4082 123.247 97.6686 122.851 97.9186 122.476C98.1894 122.08 98.4603 121.685 98.7311 121.289C98.8769 121.101 99.0332 120.883 99.1998 120.633C99.3665 120.383 99.5436 120.133 99.7311 119.883C99.9394 119.633 100.148 119.403 100.356 119.195C100.564 118.987 100.773 118.82 100.981 118.695C101.294 118.674 101.502 118.747 101.606 118.914C101.71 119.06 101.867 119.133 102.075 119.133C102.346 119.195 102.523 119.278 102.606 119.383C102.689 119.487 102.783 119.591 102.887 119.695C103.179 119.695 103.408 119.747 103.575 119.851C103.762 119.955 103.939 120.112 104.106 120.32C104.044 120.549 103.95 120.758 103.825 120.945C103.7 121.112 103.585 121.289 103.481 121.476C103.314 121.56 103.189 121.674 103.106 121.82C103.044 121.966 102.939 122.08 102.794 122.164C102.585 122.518 102.367 122.862 102.137 123.195C101.908 123.508 101.679 123.82 101.45 124.133C101.325 124.32 101.189 124.487 101.044 124.633C100.919 124.778 100.804 124.935 100.7 125.101C100.658 125.164 100.617 125.237 100.575 125.32C100.554 125.383 100.523 125.445 100.481 125.508C100.231 125.903 99.9603 126.278 99.6686 126.633C99.3769 126.966 99.1061 127.341 98.8561 127.758C98.7728 127.903 98.6998 128.06 98.6373 128.226C98.5957 128.372 98.5332 128.518 98.4498 128.664C98.3665 128.789 98.2415 128.955 98.0748 129.164C97.929 129.372 97.7832 129.601 97.6373 129.851C97.4915 130.08 97.3561 130.31 97.2311 130.539C97.1269 130.747 97.0748 130.924 97.0748 131.07C97.0957 131.174 97.2207 131.383 97.4498 131.695C97.6998 131.987 97.9707 132.31 98.2623 132.664C98.5748 132.997 98.8665 133.32 99.1373 133.633C99.4082 133.924 99.5853 134.101 99.6686 134.164ZM101.731 128.476C101.877 128.789 102.033 129.06 102.2 129.289C102.262 129.372 102.335 129.445 102.419 129.508C102.502 129.57 102.564 129.653 102.606 129.758C102.648 129.799 102.689 129.893 102.731 130.039C102.773 130.164 102.814 130.258 102.856 130.32C102.919 130.487 103.044 130.674 103.231 130.883C103.419 131.091 103.512 131.278 103.512 131.445C103.512 131.549 103.492 131.664 103.45 131.789C103.408 131.914 103.377 132.028 103.356 132.133C103.335 132.258 103.325 132.393 103.325 132.539C103.325 132.664 103.283 132.778 103.2 132.883C103.096 132.987 102.981 133.049 102.856 133.07C102.731 133.091 102.617 133.143 102.512 133.226C102.471 133.268 102.408 133.341 102.325 133.445C102.242 133.549 102.158 133.664 102.075 133.789C101.992 133.914 101.908 134.039 101.825 134.164C101.762 134.268 101.731 134.351 101.731 134.414C101.481 134.435 101.314 134.445 101.231 134.445C101.169 134.424 101.096 134.424 101.012 134.445C100.908 134.341 100.794 134.258 100.669 134.195C100.564 134.112 100.429 134.039 100.262 133.976C100.221 133.81 100.127 133.622 99.9811 133.414C99.8353 133.185 99.7103 132.997 99.6061 132.851L99.3873 132.57C99.0748 132.133 98.7832 131.716 98.5123 131.32C98.2623 130.903 98.0748 130.445 97.9498 129.945C98.3457 129.653 98.6478 129.435 98.8561 129.289C99.0853 129.143 99.3248 129.008 99.5748 128.883C99.8248 128.758 100.064 128.643 100.294 128.539C100.544 128.414 100.773 128.268 100.981 128.101C101.148 128.101 101.262 128.112 101.325 128.133C101.387 128.153 101.429 128.174 101.45 128.195C101.471 128.216 101.492 128.258 101.512 128.32C101.554 128.362 101.627 128.414 101.731 128.476ZM113.512 118.695C113.617 119.07 113.721 119.445 113.825 119.82C113.929 120.174 114.054 120.528 114.2 120.883C114.512 120.924 114.7 120.955 114.762 120.976C114.846 120.997 114.939 121.028 115.044 121.07C115.273 121.612 115.408 122.195 115.45 122.82C115.512 123.424 115.596 124.018 115.7 124.601C116.096 125.122 116.377 125.685 116.544 126.289C116.731 126.872 116.939 127.466 117.169 128.07C117.231 128.278 117.273 128.414 117.294 128.476C117.314 128.518 117.325 128.56 117.325 128.601C117.45 128.955 117.575 129.32 117.7 129.695C117.825 130.07 117.96 130.435 118.106 130.789C118.169 130.976 118.231 131.164 118.294 131.351C118.377 131.518 118.45 131.685 118.512 131.851C118.575 132.06 118.627 132.278 118.669 132.508C118.731 132.716 118.794 132.924 118.856 133.133C119.002 133.549 119.158 133.966 119.325 134.383C119.492 134.799 119.658 135.216 119.825 135.633C119.887 135.778 120.002 136.101 120.169 136.601C120.356 137.101 120.544 137.633 120.731 138.195C120.919 138.737 121.085 139.247 121.231 139.726C121.398 140.185 121.481 140.466 121.481 140.57C121.481 140.737 121.492 140.914 121.512 141.101C121.554 141.268 121.585 141.445 121.606 141.633C121.523 141.841 121.419 141.955 121.294 141.976C121.169 141.997 121.054 141.987 120.95 141.945C120.846 141.987 120.742 142.028 120.637 142.07C120.554 142.112 120.471 142.153 120.387 142.195C120.325 142.216 120.273 142.247 120.231 142.289C120.189 142.33 120.137 142.351 120.075 142.351C119.825 142.351 119.658 142.372 119.575 142.414C119.512 142.476 119.408 142.508 119.262 142.508C119.075 142.445 118.95 142.435 118.887 142.476C118.846 142.539 118.804 142.58 118.762 142.601C118.679 142.643 118.585 142.664 118.481 142.664C118.377 142.664 118.273 142.674 118.169 142.695C118.127 142.612 118.085 142.528 118.044 142.445C118.023 142.362 117.981 142.268 117.919 142.164C117.689 141.83 117.523 141.508 117.419 141.195C117.335 140.883 117.262 140.633 117.2 140.445C117.096 140.216 117.002 139.987 116.919 139.758C116.856 139.528 116.773 139.299 116.669 139.07C116.544 139.112 116.429 139.164 116.325 139.226C116.221 139.268 116.137 139.33 116.075 139.414C115.825 139.414 115.7 139.445 115.7 139.508C115.7 139.57 115.679 139.633 115.637 139.695C115.512 139.737 115.408 139.778 115.325 139.82C115.262 139.862 115.148 139.872 114.981 139.851C114.877 139.955 114.773 140.049 114.669 140.133C114.564 140.195 114.429 140.237 114.262 140.258C114.096 140.424 113.919 140.57 113.731 140.695C113.564 140.799 113.367 140.82 113.137 140.758C112.846 140.82 112.554 140.883 112.262 140.945C111.971 140.987 111.679 141.008 111.387 141.008C111.054 140.903 110.846 140.81 110.762 140.726C110.679 140.643 110.554 140.601 110.387 140.601C110.408 140.31 110.346 140.112 110.2 140.008C110.2 139.945 110.2 139.851 110.2 139.726C110.221 139.58 110.252 139.487 110.294 139.445C110.564 139.32 110.721 139.185 110.762 139.039C110.804 138.893 110.919 138.799 111.106 138.758C111.148 138.674 111.189 138.601 111.231 138.539C111.294 138.455 111.346 138.372 111.387 138.289C111.492 138.247 111.575 138.216 111.637 138.195C111.721 138.174 111.783 138.112 111.825 138.008C111.929 138.008 112.085 137.945 112.294 137.82C112.502 137.674 112.637 137.56 112.7 137.476C112.867 137.414 112.971 137.362 113.012 137.32C113.054 137.258 113.106 137.205 113.169 137.164C113.377 137.185 113.512 137.164 113.575 137.101C113.742 137.185 113.929 137.226 114.137 137.226C114.221 137.226 114.294 137.226 114.356 137.226C114.419 137.205 114.492 137.195 114.575 137.195C114.742 137.028 114.95 136.924 115.2 136.883C115.471 136.82 115.689 136.705 115.856 136.539C115.794 136.372 115.742 136.174 115.7 135.945C115.658 135.695 115.585 135.497 115.481 135.351C115.439 135.08 115.367 134.82 115.262 134.57C115.179 134.32 115.106 134.08 115.044 133.851C114.814 132.976 114.544 132.122 114.231 131.289C113.919 130.455 113.658 129.601 113.45 128.726C113.408 128.622 113.356 128.518 113.294 128.414C113.252 128.289 113.21 128.174 113.169 128.07C113.064 128.32 113.012 128.466 113.012 128.508C113.012 128.528 112.992 128.56 112.95 128.601C112.929 128.705 112.908 128.799 112.887 128.883C112.867 128.945 112.835 129.028 112.794 129.133C112.731 129.299 112.669 129.487 112.606 129.695C112.564 129.883 112.523 130.06 112.481 130.226C112.377 130.58 112.283 130.955 112.2 131.351C112.117 131.726 112.023 132.101 111.919 132.476C111.71 133.122 111.492 133.768 111.262 134.414C111.054 135.039 110.846 135.674 110.637 136.32C110.596 136.612 110.544 136.841 110.481 137.008C110.439 137.153 110.387 137.31 110.325 137.476C110.283 137.622 110.242 137.768 110.2 137.914C110.179 138.06 110.169 138.174 110.169 138.258C109.877 138.924 109.627 139.601 109.419 140.289C109.231 140.976 108.992 141.643 108.7 142.289C108.617 142.33 108.544 142.383 108.481 142.445C108.419 142.508 108.346 142.539 108.262 142.539C108.096 142.539 108.002 142.497 107.981 142.414C107.981 142.33 107.939 142.289 107.856 142.289C107.773 142.289 107.7 142.31 107.637 142.351C107.575 142.372 107.512 142.403 107.45 142.445C107.346 142.403 107.221 142.372 107.075 142.351C106.95 142.351 106.856 142.31 106.794 142.226C106.648 142.33 106.502 142.383 106.356 142.383C106.189 142.383 106.023 142.33 105.856 142.226C105.731 142.268 105.606 142.289 105.481 142.289C105.419 142.289 105.346 142.278 105.262 142.258C105.179 142.237 105.117 142.205 105.075 142.164C105.054 142.08 105.044 141.997 105.044 141.914C105.044 141.83 105.044 141.737 105.044 141.633C105.044 141.424 105.023 141.268 104.981 141.164C105.356 140.101 105.721 139.028 106.075 137.945C106.429 136.841 106.783 135.726 107.137 134.601C107.325 134.08 107.502 133.57 107.669 133.07C107.856 132.57 108.033 132.06 108.2 131.539C108.283 131.247 108.356 130.976 108.419 130.726C108.481 130.455 108.564 130.195 108.669 129.945C108.835 129.403 109.002 128.862 109.169 128.32C109.356 127.758 109.523 127.205 109.669 126.664C109.752 126.601 109.804 126.528 109.825 126.445C109.846 126.362 109.877 126.268 109.919 126.164L109.887 125.758C110.033 125.549 110.127 125.372 110.169 125.226C110.231 125.06 110.273 124.893 110.294 124.726C110.398 124.476 110.492 124.205 110.575 123.914C110.658 123.622 110.721 123.351 110.762 123.101C110.804 122.768 110.825 122.393 110.825 121.976C110.846 121.539 110.908 121.174 111.012 120.883C111.054 120.799 111.085 120.747 111.106 120.726C111.148 120.685 111.169 120.612 111.169 120.508C111.21 120.466 111.252 120.424 111.294 120.383C111.356 120.32 111.398 120.258 111.419 120.195C111.523 120.028 111.554 119.883 111.512 119.758C111.492 119.633 111.481 119.497 111.481 119.351C111.669 119.247 111.752 119.153 111.731 119.07C111.71 118.987 111.7 118.903 111.7 118.82C111.7 118.716 111.762 118.622 111.887 118.539C112.033 118.435 112.127 118.33 112.169 118.226C112.294 118.247 112.419 118.268 112.544 118.289C112.669 118.289 112.794 118.278 112.919 118.258C113.064 118.528 113.242 118.664 113.45 118.664L113.512 118.695ZM136.106 120.008C136.064 120.091 136.044 120.174 136.044 120.258C136.064 120.341 136.075 120.435 136.075 120.539C136.033 120.789 136.033 120.914 136.075 120.914C136.117 120.914 136.137 120.935 136.137 120.976L135.919 121.289C135.919 121.414 135.887 121.528 135.825 121.633C135.783 121.737 135.773 121.862 135.794 122.008C135.731 122.112 135.669 122.216 135.606 122.32C135.564 122.424 135.492 122.528 135.387 122.633H134.981C134.752 122.633 134.502 122.653 134.231 122.695C133.981 122.716 133.731 122.726 133.481 122.726C133.439 122.726 133.387 122.726 133.325 122.726C133.262 122.705 133.2 122.695 133.137 122.695C133.096 122.695 133.044 122.705 132.981 122.726C132.919 122.726 132.846 122.726 132.762 122.726C132.45 122.726 132.137 122.716 131.825 122.695C131.533 122.653 131.221 122.633 130.887 122.633C130.804 122.633 130.721 122.633 130.637 122.633C130.554 122.633 130.46 122.643 130.356 122.664C130.335 123.018 130.314 123.383 130.294 123.758C130.294 124.112 130.294 124.476 130.294 124.851C130.294 124.955 130.283 125.07 130.262 125.195C130.242 125.299 130.231 125.403 130.231 125.508C130.21 125.778 130.189 126.039 130.169 126.289C130.169 126.539 130.169 126.799 130.169 127.07C130.169 127.653 130.169 128.237 130.169 128.82C130.189 129.403 130.21 129.997 130.231 130.601C130.252 130.914 130.273 131.216 130.294 131.508C130.314 131.799 130.325 132.101 130.325 132.414C130.325 133.122 130.314 133.83 130.294 134.539C130.273 135.226 130.262 135.924 130.262 136.633C130.262 136.862 130.252 137.08 130.231 137.289C130.21 137.476 130.2 137.685 130.2 137.914C130.2 138.393 130.21 138.872 130.231 139.351C130.252 139.83 130.262 140.31 130.262 140.789C130.262 141.018 130.252 141.247 130.231 141.476C130.231 141.705 130.231 141.935 130.231 142.164C130.127 142.33 130.054 142.476 130.012 142.601C129.971 142.726 129.846 142.789 129.637 142.789C129.492 142.747 129.419 142.695 129.419 142.633C129.439 142.591 129.429 142.549 129.387 142.508C129.2 142.487 129.054 142.497 128.95 142.539C128.867 142.601 128.762 142.653 128.637 142.695C128.575 142.674 128.502 142.664 128.419 142.664C128.356 142.664 128.294 142.664 128.231 142.664C128.189 142.664 128.148 142.674 128.106 142.695C128.064 142.737 127.971 142.758 127.825 142.758C127.7 142.778 127.627 142.758 127.606 142.695C127.585 142.633 127.523 142.601 127.419 142.601C127.314 142.664 127.189 142.705 127.044 142.726C126.919 142.768 126.794 142.789 126.669 142.789C126.544 142.705 126.481 142.622 126.481 142.539C126.502 142.476 126.492 142.403 126.45 142.32C126.429 142.278 126.387 142.226 126.325 142.164C126.283 142.08 126.242 142.018 126.2 141.976C126.242 141.685 126.273 141.424 126.294 141.195C126.314 140.966 126.325 140.716 126.325 140.445C126.325 139.903 126.304 139.372 126.262 138.851C126.221 138.33 126.2 137.799 126.2 137.258C126.2 137.091 126.221 136.914 126.262 136.726C126.304 136.539 126.325 136.341 126.325 136.133C126.283 135.966 126.273 135.872 126.294 135.851C126.314 135.81 126.325 135.768 126.325 135.726C126.325 135.601 126.314 135.476 126.294 135.351C126.294 135.226 126.294 135.101 126.294 134.976C126.294 134.726 126.294 134.476 126.294 134.226C126.314 133.976 126.325 133.726 126.325 133.476C126.325 133.372 126.314 133.268 126.294 133.164C126.294 133.039 126.294 132.924 126.294 132.82C126.273 132.633 126.262 132.435 126.262 132.226C126.283 132.018 126.294 131.81 126.294 131.601C126.294 130.601 126.273 129.612 126.231 128.633C126.21 127.653 126.2 126.664 126.2 125.664C126.2 125.164 126.221 124.674 126.262 124.195C126.325 123.695 126.356 123.195 126.356 122.695C126.356 122.633 126.335 122.549 126.294 122.445C126.252 122.341 126.21 122.268 126.169 122.226C126.064 122.226 125.96 122.226 125.856 122.226C125.773 122.205 125.679 122.195 125.575 122.195C125.346 122.195 125.127 122.226 124.919 122.289C124.523 122.31 124.137 122.341 123.762 122.383C123.408 122.403 123.044 122.424 122.669 122.445C122.419 122.424 122.262 122.424 122.2 122.445C122.158 122.445 122.106 122.445 122.044 122.445C121.877 122.445 121.752 122.403 121.669 122.32V121.914C121.544 121.664 121.492 121.528 121.512 121.508C121.533 121.487 121.544 121.455 121.544 121.414C121.544 121.351 121.492 121.289 121.387 121.226C121.262 121.143 121.2 121.018 121.2 120.851C121.179 120.685 121.137 120.56 121.075 120.476C121.012 120.393 120.981 120.31 120.981 120.226C120.981 120.08 121.012 119.914 121.075 119.726C121.262 119.622 121.439 119.549 121.606 119.508C121.794 119.466 122.002 119.414 122.231 119.351C122.356 119.31 122.471 119.268 122.575 119.226C122.679 119.185 122.794 119.153 122.919 119.133C123.064 119.112 123.21 119.101 123.356 119.101C123.502 119.101 123.648 119.091 123.794 119.07C124.106 119.008 124.429 118.955 124.762 118.914C125.117 118.872 125.45 118.851 125.762 118.851C126.054 118.851 126.346 118.893 126.637 118.976C126.929 119.039 127.189 119.07 127.419 119.07C127.752 119.07 128.064 119.091 128.356 119.133C128.669 119.174 128.992 119.195 129.325 119.195C129.367 119.195 129.429 119.216 129.512 119.258C129.617 119.278 129.731 119.289 129.856 119.289H132.887C133.054 119.33 133.169 119.341 133.231 119.32C133.314 119.299 133.387 119.289 133.45 119.289C133.617 119.289 133.773 119.299 133.919 119.32C134.064 119.341 134.221 119.351 134.387 119.351C134.533 119.351 134.648 119.341 134.731 119.32C134.898 119.341 135.054 119.393 135.2 119.476C135.346 119.539 135.512 119.57 135.7 119.57C135.783 119.633 135.846 119.716 135.887 119.82C135.929 119.903 136.002 119.966 136.106 120.008ZM151.075 119.226C151.325 119.164 151.502 119.143 151.606 119.164C151.71 119.164 151.814 119.174 151.919 119.195C152.044 119.278 152.148 119.383 152.231 119.508C152.231 119.945 152.221 120.383 152.2 120.82C152.2 121.237 152.2 121.664 152.2 122.101C152.2 122.893 152.21 123.685 152.231 124.476C152.252 125.268 152.252 126.06 152.231 126.851C152.273 127.039 152.283 127.143 152.262 127.164C152.242 127.185 152.231 127.216 152.231 127.258C152.231 128.049 152.252 128.83 152.294 129.601C152.335 130.372 152.356 131.153 152.356 131.945V136.101C152.356 136.997 152.377 137.883 152.419 138.758C152.481 139.633 152.512 140.508 152.512 141.383C152.512 141.466 152.46 141.58 152.356 141.726C152.314 141.893 152.252 142.028 152.169 142.133C151.981 142.153 151.804 142.122 151.637 142.039C151.554 142.039 151.492 142.07 151.45 142.133C151.429 142.174 151.387 142.216 151.325 142.258C151.158 142.258 151.023 142.299 150.919 142.383C150.814 142.466 150.689 142.508 150.544 142.508C150.419 142.508 150.294 142.487 150.169 142.445C150.064 142.424 149.939 142.414 149.794 142.414C149.752 142.414 149.689 142.445 149.606 142.508C149.523 142.591 149.46 142.643 149.419 142.664C149.314 142.664 149.221 142.674 149.137 142.695C149.054 142.737 148.96 142.758 148.856 142.758C148.752 142.674 148.7 142.549 148.7 142.383C148.721 142.216 148.658 142.112 148.512 142.07C148.512 141.966 148.512 141.851 148.512 141.726C148.533 141.601 148.544 141.476 148.544 141.351C148.544 140.539 148.523 139.726 148.481 138.914C148.439 138.08 148.408 137.258 148.387 136.445C148.367 136.091 148.356 135.747 148.356 135.414C148.377 135.06 148.387 134.705 148.387 134.351C148.387 134.164 148.387 133.976 148.387 133.789C148.387 133.601 148.367 133.424 148.325 133.258C148.2 133.237 148.085 133.258 147.981 133.32C147.898 133.362 147.804 133.383 147.7 133.383C147.262 133.528 146.971 133.674 146.825 133.82C146.7 133.82 146.596 133.841 146.512 133.883C146.429 133.924 146.335 133.966 146.231 134.008C146.064 134.049 145.898 134.091 145.731 134.133C145.585 134.153 145.429 134.195 145.262 134.258C145.158 134.299 145.054 134.341 144.95 134.383C144.846 134.424 144.742 134.466 144.637 134.508C144.408 134.591 144.179 134.674 143.95 134.758C143.721 134.82 143.492 134.893 143.262 134.976C143.033 135.018 142.835 135.08 142.669 135.164C142.502 135.247 142.335 135.33 142.169 135.414C142.023 136.393 141.939 137.33 141.919 138.226C141.919 139.101 141.95 139.976 142.012 140.851C141.971 140.976 141.95 141.122 141.95 141.289C141.95 141.435 141.919 141.56 141.856 141.664C141.627 141.726 141.471 141.737 141.387 141.695C141.325 141.633 141.252 141.58 141.169 141.539C141.085 141.56 141.012 141.601 140.95 141.664C140.908 141.726 140.867 141.778 140.825 141.82C140.658 141.82 140.523 141.862 140.419 141.945C140.335 142.008 140.252 142.06 140.169 142.101C140.106 142.122 140.044 142.122 139.981 142.101C139.919 142.08 139.846 142.091 139.762 142.133C139.554 142.133 139.45 142.112 139.45 142.07C139.471 142.008 139.45 141.976 139.387 141.976C139.304 141.976 139.242 142.018 139.2 142.101C139.179 142.164 139.127 142.216 139.044 142.258C138.96 142.299 138.867 142.33 138.762 142.351C138.658 142.351 138.554 142.372 138.45 142.414C138.346 142.31 138.294 142.195 138.294 142.07C138.294 141.945 138.242 141.83 138.137 141.726C138.096 141.435 138.064 141.153 138.044 140.883C138.044 140.591 138.012 140.299 137.95 140.008C137.992 139.424 138.002 138.955 137.981 138.601C137.981 138.247 137.981 137.883 137.981 137.508C137.981 137.174 137.971 136.841 137.95 136.508C137.929 136.174 137.908 135.841 137.887 135.508C137.846 134.903 137.804 134.289 137.762 133.664C137.742 133.039 137.731 132.414 137.731 131.789C137.731 131.268 137.752 130.758 137.794 130.258C137.856 129.758 137.887 129.247 137.887 128.726C137.887 128.372 137.887 128.028 137.887 127.695C137.908 127.341 137.919 126.987 137.919 126.633C137.919 126.341 137.908 126.06 137.887 125.789C137.887 125.497 137.887 125.216 137.887 124.945C137.887 124.633 137.908 124.33 137.95 124.039C137.992 123.726 138.012 123.424 138.012 123.133C138.012 122.778 137.992 122.435 137.95 122.101C137.908 121.747 137.887 121.393 137.887 121.039C137.887 120.935 137.898 120.841 137.919 120.758C137.939 120.653 137.95 120.549 137.95 120.445C137.929 120.216 137.939 120.08 137.981 120.039C138.023 119.976 138.064 119.903 138.106 119.82C138.21 119.799 138.325 119.768 138.45 119.726C138.575 119.685 138.689 119.685 138.794 119.726C138.919 119.601 139.085 119.539 139.294 119.539C139.523 119.539 139.689 119.466 139.794 119.32C139.939 119.341 140.033 119.351 140.075 119.351C140.137 119.33 140.189 119.32 140.231 119.32C140.419 119.362 140.512 119.362 140.512 119.32C140.533 119.258 140.575 119.226 140.637 119.226C140.742 119.226 140.898 119.237 141.106 119.258C141.335 119.258 141.492 119.299 141.575 119.383C141.783 120.487 141.898 121.612 141.919 122.758C141.939 123.903 141.95 125.039 141.95 126.164C141.95 126.455 141.96 126.758 141.981 127.07C142.002 127.362 141.992 127.653 141.95 127.945C141.95 128.07 141.939 128.195 141.919 128.32C141.898 128.424 141.887 128.539 141.887 128.664C141.887 129.018 141.867 129.393 141.825 129.789C141.783 130.164 141.762 130.528 141.762 130.883C142.012 131.028 142.221 131.08 142.387 131.039C142.575 130.976 142.752 130.914 142.919 130.851C143.127 130.789 143.314 130.726 143.481 130.664C143.669 130.58 143.856 130.508 144.044 130.445C144.21 130.362 144.387 130.299 144.575 130.258C144.783 130.195 144.971 130.143 145.137 130.101C145.679 129.914 146.21 129.685 146.731 129.414C147.252 129.143 147.783 128.924 148.325 128.758C148.283 127.612 148.262 126.476 148.262 125.351C148.262 124.205 148.262 123.07 148.262 121.945C148.262 121.633 148.262 121.31 148.262 120.976C148.262 120.643 148.283 120.32 148.325 120.008C148.346 119.924 148.367 119.862 148.387 119.82C148.429 119.758 148.45 119.674 148.45 119.57C148.512 119.466 148.585 119.393 148.669 119.351C148.752 119.31 148.814 119.247 148.856 119.164C148.898 119.205 148.939 119.247 148.981 119.289C149.044 119.31 149.106 119.33 149.169 119.351C149.335 119.31 149.429 119.278 149.45 119.258C149.492 119.237 149.533 119.216 149.575 119.195C149.679 119.153 149.814 119.133 149.981 119.133C150.148 119.133 150.283 119.133 150.387 119.133H150.762L151.075 119.226ZM180.262 120.008C180.221 120.091 180.2 120.174 180.2 120.258C180.221 120.341 180.231 120.435 180.231 120.539C180.189 120.789 180.189 120.914 180.231 120.914C180.273 120.914 180.294 120.935 180.294 120.976L180.075 121.289C180.075 121.414 180.044 121.528 179.981 121.633C179.939 121.737 179.929 121.862 179.95 122.008C179.887 122.112 179.825 122.216 179.762 122.32C179.721 122.424 179.648 122.528 179.544 122.633H179.137C178.908 122.633 178.658 122.653 178.387 122.695C178.137 122.716 177.887 122.726 177.637 122.726C177.596 122.726 177.544 122.726 177.481 122.726C177.419 122.705 177.356 122.695 177.294 122.695C177.252 122.695 177.2 122.705 177.137 122.726C177.075 122.726 177.002 122.726 176.919 122.726C176.606 122.726 176.294 122.716 175.981 122.695C175.689 122.653 175.377 122.633 175.044 122.633C174.96 122.633 174.877 122.633 174.794 122.633C174.71 122.633 174.617 122.643 174.512 122.664C174.492 123.018 174.471 123.383 174.45 123.758C174.45 124.112 174.45 124.476 174.45 124.851C174.45 124.955 174.439 125.07 174.419 125.195C174.398 125.299 174.387 125.403 174.387 125.508C174.367 125.778 174.346 126.039 174.325 126.289C174.325 126.539 174.325 126.799 174.325 127.07C174.325 127.653 174.325 128.237 174.325 128.82C174.346 129.403 174.367 129.997 174.387 130.601C174.408 130.914 174.429 131.216 174.45 131.508C174.471 131.799 174.481 132.101 174.481 132.414C174.481 133.122 174.471 133.83 174.45 134.539C174.429 135.226 174.419 135.924 174.419 136.633C174.419 136.862 174.408 137.08 174.387 137.289C174.367 137.476 174.356 137.685 174.356 137.914C174.356 138.393 174.367 138.872 174.387 139.351C174.408 139.83 174.419 140.31 174.419 140.789C174.419 141.018 174.408 141.247 174.387 141.476C174.387 141.705 174.387 141.935 174.387 142.164C174.283 142.33 174.21 142.476 174.169 142.601C174.127 142.726 174.002 142.789 173.794 142.789C173.648 142.747 173.575 142.695 173.575 142.633C173.596 142.591 173.585 142.549 173.544 142.508C173.356 142.487 173.21 142.497 173.106 142.539C173.023 142.601 172.919 142.653 172.794 142.695C172.731 142.674 172.658 142.664 172.575 142.664C172.512 142.664 172.45 142.664 172.387 142.664C172.346 142.664 172.304 142.674 172.262 142.695C172.221 142.737 172.127 142.758 171.981 142.758C171.856 142.778 171.783 142.758 171.762 142.695C171.742 142.633 171.679 142.601 171.575 142.601C171.471 142.664 171.346 142.705 171.2 142.726C171.075 142.768 170.95 142.789 170.825 142.789C170.7 142.705 170.637 142.622 170.637 142.539C170.658 142.476 170.648 142.403 170.606 142.32C170.585 142.278 170.544 142.226 170.481 142.164C170.439 142.08 170.398 142.018 170.356 141.976C170.398 141.685 170.429 141.424 170.45 141.195C170.471 140.966 170.481 140.716 170.481 140.445C170.481 139.903 170.46 139.372 170.419 138.851C170.377 138.33 170.356 137.799 170.356 137.258C170.356 137.091 170.377 136.914 170.419 136.726C170.46 136.539 170.481 136.341 170.481 136.133C170.439 135.966 170.429 135.872 170.45 135.851C170.471 135.81 170.481 135.768 170.481 135.726C170.481 135.601 170.471 135.476 170.45 135.351C170.45 135.226 170.45 135.101 170.45 134.976C170.45 134.726 170.45 134.476 170.45 134.226C170.471 133.976 170.481 133.726 170.481 133.476C170.481 133.372 170.471 133.268 170.45 133.164C170.45 133.039 170.45 132.924 170.45 132.82C170.429 132.633 170.419 132.435 170.419 132.226C170.439 132.018 170.45 131.81 170.45 131.601C170.45 130.601 170.429 129.612 170.387 128.633C170.367 127.653 170.356 126.664 170.356 125.664C170.356 125.164 170.377 124.674 170.419 124.195C170.481 123.695 170.512 123.195 170.512 122.695C170.512 122.633 170.492 122.549 170.45 122.445C170.408 122.341 170.367 122.268 170.325 122.226C170.221 122.226 170.117 122.226 170.012 122.226C169.929 122.205 169.835 122.195 169.731 122.195C169.502 122.195 169.283 122.226 169.075 122.289C168.679 122.31 168.294 122.341 167.919 122.383C167.564 122.403 167.2 122.424 166.825 122.445C166.575 122.424 166.419 122.424 166.356 122.445C166.314 122.445 166.262 122.445 166.2 122.445C166.033 122.445 165.908 122.403 165.825 122.32V121.914C165.7 121.664 165.648 121.528 165.669 121.508C165.689 121.487 165.7 121.455 165.7 121.414C165.7 121.351 165.648 121.289 165.544 121.226C165.419 121.143 165.356 121.018 165.356 120.851C165.335 120.685 165.294 120.56 165.231 120.476C165.169 120.393 165.137 120.31 165.137 120.226C165.137 120.08 165.169 119.914 165.231 119.726C165.419 119.622 165.596 119.549 165.762 119.508C165.95 119.466 166.158 119.414 166.387 119.351C166.512 119.31 166.627 119.268 166.731 119.226C166.835 119.185 166.95 119.153 167.075 119.133C167.221 119.112 167.367 119.101 167.512 119.101C167.658 119.101 167.804 119.091 167.95 119.07C168.262 119.008 168.585 118.955 168.919 118.914C169.273 118.872 169.606 118.851 169.919 118.851C170.21 118.851 170.502 118.893 170.794 118.976C171.085 119.039 171.346 119.07 171.575 119.07C171.908 119.07 172.221 119.091 172.512 119.133C172.825 119.174 173.148 119.195 173.481 119.195C173.523 119.195 173.585 119.216 173.669 119.258C173.773 119.278 173.887 119.289 174.012 119.289H177.044C177.21 119.33 177.325 119.341 177.387 119.32C177.471 119.299 177.544 119.289 177.606 119.289C177.773 119.289 177.929 119.299 178.075 119.32C178.221 119.341 178.377 119.351 178.544 119.351C178.689 119.351 178.804 119.341 178.887 119.32C179.054 119.341 179.21 119.393 179.356 119.476C179.502 119.539 179.669 119.57 179.856 119.57C179.939 119.633 180.002 119.716 180.044 119.82C180.085 119.903 180.158 119.966 180.262 120.008ZM196.919 129.945C196.877 130.028 196.835 130.112 196.794 130.195C196.752 130.258 196.721 130.33 196.7 130.414C196.783 130.497 196.856 130.591 196.919 130.695C197.002 130.778 197.044 130.872 197.044 130.976C197.044 131.06 197.023 131.143 196.981 131.226C196.96 131.289 196.96 131.351 196.981 131.414C196.898 131.56 196.804 131.695 196.7 131.82C196.617 131.945 196.554 132.08 196.512 132.226C196.429 132.31 196.356 132.393 196.294 132.476C196.252 132.56 196.21 132.643 196.169 132.726C196.064 132.768 195.992 132.841 195.95 132.945C195.929 133.028 195.877 133.101 195.794 133.164C195.773 133.247 195.669 133.445 195.481 133.758C195.294 134.07 195.085 134.403 194.856 134.758C194.627 135.112 194.408 135.455 194.2 135.789C193.992 136.122 193.846 136.341 193.762 136.445C193.721 136.549 193.669 136.633 193.606 136.695C193.564 136.758 193.512 136.83 193.45 136.914C193.408 136.976 193.377 137.049 193.356 137.133C193.335 137.195 193.304 137.247 193.262 137.289C193.221 137.372 193.169 137.445 193.106 137.508C193.064 137.57 193.023 137.653 192.981 137.758C192.773 138.028 192.564 138.351 192.356 138.726C192.148 139.101 191.95 139.435 191.762 139.726C191.658 139.893 191.554 140.06 191.45 140.226C191.367 140.393 191.273 140.56 191.169 140.726C191.064 140.893 190.96 141.049 190.856 141.195C190.752 141.341 190.648 141.497 190.544 141.664C190.377 141.789 190.231 141.945 190.106 142.133C189.981 142.299 189.835 142.445 189.669 142.57C189.398 142.57 189.231 142.445 189.169 142.195C188.898 142.133 188.762 142.133 188.762 142.195C188.762 142.258 188.762 142.31 188.762 142.351C188.679 142.393 188.617 142.455 188.575 142.539C188.554 142.622 188.502 142.685 188.419 142.726C188.252 142.685 188.106 142.612 187.981 142.508C187.877 142.424 187.721 142.393 187.512 142.414C187.429 142.289 187.335 142.185 187.231 142.101C187.127 141.997 187.033 141.893 186.95 141.789C186.908 141.664 186.846 141.56 186.762 141.476C186.7 141.393 186.637 141.31 186.575 141.226C186.512 141.122 186.45 141.028 186.387 140.945C186.325 140.862 186.262 140.778 186.2 140.695C186.054 140.508 185.908 140.33 185.762 140.164C185.637 139.976 185.523 139.789 185.419 139.601C185.252 139.351 185.085 139.101 184.919 138.851C184.773 138.58 184.617 138.32 184.45 138.07C184.367 137.945 184.283 137.82 184.2 137.695C184.117 137.57 184.044 137.445 183.981 137.32C183.939 137.216 183.877 137.091 183.794 136.945C183.731 136.799 183.648 136.705 183.544 136.664C183.502 136.497 183.429 136.372 183.325 136.289C183.221 136.205 183.117 136.101 183.012 135.976C182.867 135.81 182.731 135.633 182.606 135.445C182.481 135.237 182.356 135.028 182.231 134.82C181.814 134.237 181.419 133.664 181.044 133.101C180.689 132.539 180.335 131.955 179.981 131.351C180.085 131.018 180.137 130.768 180.137 130.601C180.137 130.435 180.189 130.299 180.294 130.195C180.294 130.112 180.314 129.987 180.356 129.82C180.627 129.362 180.887 128.945 181.137 128.57C181.367 128.216 181.523 127.924 181.606 127.695C181.71 127.466 181.814 127.226 181.919 126.976C182.023 126.914 182.106 126.841 182.169 126.758C182.231 126.653 182.314 126.56 182.419 126.476C182.46 126.247 182.554 126.06 182.7 125.914C182.846 125.747 182.939 125.549 182.981 125.32C183.169 125.174 183.273 125.008 183.294 124.82C183.564 124.633 183.731 124.383 183.794 124.07C183.96 123.903 184.096 123.716 184.2 123.508C184.325 123.299 184.439 123.08 184.544 122.851C184.794 122.643 184.992 122.372 185.137 122.039C185.262 121.955 185.356 121.841 185.419 121.695C185.481 121.549 185.564 121.424 185.669 121.32C185.835 121.049 185.96 120.83 186.044 120.664C186.148 120.476 186.252 120.289 186.356 120.101C186.502 120.101 186.596 120.049 186.637 119.945C186.679 119.841 186.762 119.799 186.887 119.82C186.887 119.633 186.939 119.466 187.044 119.32C187.085 119.299 187.148 119.278 187.231 119.258C187.314 119.216 187.356 119.174 187.356 119.133C187.314 118.883 187.325 118.737 187.387 118.695C187.45 118.653 187.502 118.612 187.544 118.57C187.773 118.612 187.929 118.643 188.012 118.664C188.096 118.685 188.231 118.758 188.419 118.883C188.627 118.883 188.773 118.924 188.856 119.008C188.939 119.091 189.033 119.153 189.137 119.195C189.221 119.278 189.283 119.362 189.325 119.445C189.387 119.528 189.471 119.591 189.575 119.633C189.742 119.862 189.919 120.112 190.106 120.383C190.294 120.653 190.471 120.903 190.637 121.133C190.867 121.445 191.096 121.747 191.325 122.039C191.575 122.31 191.804 122.612 192.012 122.945C192.075 123.049 192.189 123.237 192.356 123.508C192.523 123.758 192.71 124.028 192.919 124.32C193.127 124.612 193.314 124.883 193.481 125.133C193.648 125.362 193.762 125.497 193.825 125.539C193.887 125.643 194.023 125.841 194.231 126.133C194.439 126.424 194.658 126.737 194.887 127.07C195.137 127.383 195.377 127.685 195.606 127.976C195.835 128.268 195.992 128.455 196.075 128.539C196.304 128.851 196.471 129.112 196.575 129.32C196.7 129.508 196.814 129.716 196.919 129.945ZM189.762 135.82C189.992 135.508 190.169 135.226 190.294 134.976C190.419 134.726 190.544 134.476 190.669 134.226C190.877 133.976 191.002 133.799 191.044 133.695C191.085 133.591 191.137 133.487 191.2 133.383C191.367 133.133 191.533 132.883 191.7 132.633C191.887 132.383 192.033 132.112 192.137 131.82C192.262 131.737 192.356 131.633 192.419 131.508C192.481 131.383 192.575 131.268 192.7 131.164C192.575 130.726 192.429 130.393 192.262 130.164C192.096 129.914 191.929 129.674 191.762 129.445C191.7 129.341 191.637 129.237 191.575 129.133C191.512 129.028 191.45 128.924 191.387 128.82C191.304 128.758 191.231 128.695 191.169 128.633C191.127 128.57 191.075 128.508 191.012 128.445C190.971 128.341 190.908 128.205 190.825 128.039C190.742 127.935 190.658 127.841 190.575 127.758C190.492 127.674 190.419 127.57 190.356 127.445C190.273 127.362 190.169 127.247 190.044 127.101C189.919 126.955 189.783 126.799 189.637 126.633C189.512 126.445 189.398 126.278 189.294 126.133C189.189 125.966 189.106 125.83 189.044 125.726C189.002 125.622 188.96 125.539 188.919 125.476C188.898 125.393 188.867 125.31 188.825 125.226C188.721 125.08 188.617 124.955 188.512 124.851C188.408 124.726 188.304 124.591 188.2 124.445C188.137 124.487 188.075 124.518 188.012 124.539C187.971 124.539 187.929 124.56 187.887 124.601C187.742 124.872 187.575 125.122 187.387 125.351C187.221 125.58 187.054 125.83 186.887 126.101C186.742 126.351 186.596 126.612 186.45 126.883C186.304 127.133 186.158 127.383 186.012 127.633C185.908 127.778 185.804 127.924 185.7 128.07C185.617 128.195 185.523 128.341 185.419 128.508C185.314 128.653 185.221 128.81 185.137 128.976C185.075 129.122 184.992 129.268 184.887 129.414C184.721 129.622 184.585 129.81 184.481 129.976C184.377 130.143 184.273 130.341 184.169 130.57C184.231 130.695 184.325 130.872 184.45 131.101C184.596 131.31 184.742 131.528 184.887 131.758C185.033 131.966 185.158 132.164 185.262 132.351C185.387 132.539 185.46 132.664 185.481 132.726C185.648 132.872 185.783 133.039 185.887 133.226C185.992 133.393 186.127 133.56 186.294 133.726C186.377 133.893 186.471 134.039 186.575 134.164C186.679 134.289 186.783 134.424 186.887 134.57C186.992 134.716 187.127 134.935 187.294 135.226C187.46 135.497 187.627 135.778 187.794 136.07C187.96 136.362 188.127 136.633 188.294 136.883C188.46 137.133 188.596 137.289 188.7 137.351C188.908 137.122 189.075 136.872 189.2 136.601C189.346 136.31 189.533 136.049 189.762 135.82ZM82.5436 177.726C82.4603 177.643 82.4186 177.528 82.4186 177.383C82.4186 177.278 82.4186 177.195 82.4186 177.133C82.4394 177.049 82.4603 176.955 82.4811 176.851C82.5853 176.372 82.6373 175.893 82.6373 175.414C82.6373 174.914 82.6582 174.424 82.6998 173.945C82.7207 173.653 82.7311 173.362 82.7311 173.07C82.7519 172.778 82.7623 172.487 82.7623 172.195C82.7623 170.466 82.7103 168.747 82.6061 167.039C82.5019 165.31 82.4498 163.57 82.4498 161.82C82.4498 160.612 82.4707 159.403 82.5123 158.195C82.554 156.966 82.5853 155.737 82.6061 154.508C82.7936 154.403 83.0228 154.362 83.2936 154.383C83.5644 154.403 83.7832 154.31 83.9498 154.101C84.054 154.08 84.1582 154.08 84.2623 154.101C84.3665 154.101 84.4707 154.101 84.5748 154.101C84.804 154.101 85.0228 154.028 85.2311 153.883C85.4394 153.737 85.6686 153.612 85.9186 153.508C86.0436 153.549 86.1269 153.57 86.1686 153.57C86.2311 153.549 86.2936 153.539 86.3561 153.539C86.4186 153.539 86.554 153.612 86.7623 153.758C86.9707 153.903 87.1998 154.07 87.4498 154.258C87.6998 154.445 87.929 154.622 88.1373 154.789C88.3665 154.955 88.5123 155.06 88.5748 155.101C89.0957 155.497 89.554 155.935 89.9498 156.414C90.3665 156.872 90.7728 157.341 91.1686 157.82C91.5436 158.299 91.9498 158.789 92.3873 159.289C92.8248 159.768 93.2519 160.216 93.6686 160.633C93.8144 160.799 93.9603 160.945 94.1061 161.07C94.2728 161.195 94.429 161.341 94.5748 161.508C94.6373 161.591 94.6894 161.685 94.7311 161.789C94.7936 161.872 94.8561 161.966 94.9186 162.07C95.0436 162.216 95.1894 162.341 95.3561 162.445C95.5228 162.549 95.679 162.674 95.8248 162.82C95.929 162.903 96.0853 163.07 96.2936 163.32C96.5019 163.57 96.6061 163.758 96.6061 163.883C96.6061 163.966 96.5853 164.039 96.5436 164.101C96.5019 164.164 96.4603 164.237 96.4186 164.32C96.3978 164.383 96.3873 164.476 96.3873 164.601C96.3873 164.726 96.3769 164.81 96.3561 164.851C96.1478 165.018 96.0332 165.122 96.0123 165.164C95.9915 165.205 95.9603 165.247 95.9186 165.289C95.8561 165.372 95.7728 165.445 95.6686 165.508C95.5853 165.549 95.5228 165.622 95.4811 165.726C95.4394 165.789 95.4186 165.851 95.4186 165.914C95.4394 165.976 95.429 166.049 95.3873 166.133C95.2832 166.362 95.1165 166.58 94.8873 166.789C94.6582 166.997 94.4603 167.226 94.2936 167.476C94.0644 167.851 93.8353 168.226 93.6061 168.601C93.3769 168.976 93.1165 169.341 92.8248 169.695C92.6998 169.862 92.5644 170.028 92.4186 170.195C92.2936 170.341 92.1686 170.497 92.0436 170.664C91.9394 170.789 91.8457 170.924 91.7623 171.07C91.679 171.195 91.5853 171.341 91.4811 171.508C91.2519 171.799 91.0332 172.091 90.8248 172.383C90.6165 172.653 90.3978 172.935 90.1686 173.226C89.9186 173.58 89.6478 173.935 89.3561 174.289C89.0644 174.622 88.804 174.966 88.5748 175.32C88.3457 175.695 88.1061 176.039 87.8561 176.351C87.6061 176.664 87.3353 176.966 87.0436 177.258C86.9603 177.32 86.8561 177.414 86.7311 177.539C86.6061 177.664 86.4811 177.726 86.3561 177.726C86.2728 177.726 86.1998 177.695 86.1373 177.633C86.0957 177.57 86.0228 177.539 85.9186 177.539C85.8978 177.539 85.8353 177.549 85.7311 177.57C85.6269 177.591 85.5019 177.612 85.3561 177.633L84.7936 177.695C84.4603 177.862 84.2207 177.935 84.0748 177.914C83.929 177.914 83.7832 177.924 83.6373 177.945C83.554 177.966 83.4811 177.997 83.4186 178.039C83.3769 178.08 83.3248 178.101 83.2623 178.101C83.1165 178.101 83.0019 178.028 82.9186 177.883C82.8353 177.758 82.7103 177.705 82.5436 177.726ZM91.9186 164.226C91.9186 164.122 91.8144 163.976 91.6061 163.789C91.4186 163.601 91.2728 163.466 91.1686 163.383C91.0228 163.258 90.8457 163.143 90.6373 163.039C90.4498 162.914 90.2936 162.778 90.1686 162.633C90.0644 162.508 89.9603 162.383 89.8561 162.258C89.7728 162.112 89.679 161.976 89.5748 161.851C89.1998 161.435 88.8144 161.018 88.4186 160.601C88.0436 160.185 87.7103 159.726 87.4186 159.226C87.2311 159.101 87.054 158.955 86.8873 158.789C86.7207 158.622 86.5228 158.487 86.2936 158.383C86.2519 158.508 86.2311 158.643 86.2311 158.789C86.2519 158.914 86.2623 159.039 86.2623 159.164C86.2623 159.643 86.2415 160.112 86.1998 160.57C86.1582 161.028 86.1373 161.487 86.1373 161.945C86.1373 163.07 86.1582 164.185 86.1998 165.289C86.2623 166.372 86.2936 167.466 86.2936 168.57C86.2936 168.987 86.2936 169.403 86.2936 169.82C86.3144 170.237 86.3561 170.653 86.4186 171.07C86.3769 171.195 86.3561 171.31 86.3561 171.414C86.3561 171.518 86.3769 171.653 86.4186 171.82C86.5853 171.716 86.7207 171.591 86.8248 171.445C86.9498 171.278 87.0644 171.122 87.1686 170.976C87.5228 170.518 87.8665 170.06 88.1998 169.601C88.554 169.122 88.9082 168.643 89.2623 168.164C89.4915 167.851 89.7207 167.549 89.9498 167.258C90.1998 166.945 90.4394 166.622 90.6686 166.289C90.7311 166.205 90.8248 166.06 90.9498 165.851C91.0957 165.643 91.2311 165.435 91.3561 165.226C91.5019 164.997 91.6269 164.789 91.7311 164.601C91.8561 164.414 91.9186 164.289 91.9186 164.226ZM112.262 174.351C112.242 174.664 112.304 174.903 112.45 175.07C112.617 175.216 112.752 175.403 112.856 175.633C112.814 175.924 112.846 176.153 112.95 176.32C112.887 176.445 112.825 176.591 112.762 176.758C112.7 176.903 112.606 177.028 112.481 177.133C112.148 177.278 111.95 177.403 111.887 177.508C111.825 177.612 111.7 177.664 111.512 177.664C111.408 177.768 111.294 177.872 111.169 177.976C111.044 178.101 110.929 178.216 110.825 178.32C110.721 178.278 110.648 178.226 110.606 178.164C110.564 178.101 110.502 178.018 110.419 177.914C110.21 177.851 110.023 177.737 109.856 177.57C109.689 177.424 109.544 177.258 109.419 177.07C109.294 176.862 109.169 176.653 109.044 176.445C108.939 176.216 108.846 176.008 108.762 175.82C108.471 175.278 108.169 174.737 107.856 174.195C107.564 173.633 107.262 173.08 106.95 172.539C106.783 172.268 106.617 171.997 106.45 171.726C106.304 171.435 106.148 171.143 105.981 170.851C105.939 170.81 105.898 170.768 105.856 170.726C105.814 170.664 105.773 170.601 105.731 170.539C105.585 170.33 105.471 170.101 105.387 169.851C105.325 169.58 105.179 169.362 104.95 169.195C104.554 169.153 104.189 169.216 103.856 169.383C103.544 169.528 103.262 169.726 103.012 169.976C103.033 170.122 103.044 170.258 103.044 170.383C103.044 170.508 103.044 170.633 103.044 170.758C103.044 171.237 103.023 171.695 102.981 172.133C102.939 172.57 102.919 173.028 102.919 173.508C102.919 173.716 102.929 173.935 102.95 174.164C102.971 174.372 103.002 174.58 103.044 174.789C102.981 175.018 102.95 175.268 102.95 175.539C102.95 175.685 102.96 175.82 102.981 175.945C103.023 176.07 103.044 176.205 103.044 176.351C103.044 176.56 102.971 176.705 102.825 176.789C102.7 176.851 102.658 176.976 102.7 177.164C102.45 177.268 102.21 177.372 101.981 177.476C101.752 177.58 101.512 177.653 101.262 177.695C101.158 177.716 101.054 177.716 100.95 177.695C100.846 177.695 100.752 177.716 100.669 177.758C100.564 177.799 100.481 177.872 100.419 177.976C100.356 178.101 100.273 178.164 100.169 178.164C100.044 178.164 99.9707 178.112 99.9498 178.008C99.929 177.924 99.8873 177.851 99.8248 177.789C99.7207 177.747 99.6373 177.726 99.5748 177.726C99.5123 177.726 99.4498 177.695 99.3873 177.633C99.4082 177.445 99.3665 177.31 99.2623 177.226C99.1582 177.122 99.1061 176.924 99.1061 176.633C99.1061 176.403 99.1165 176.185 99.1373 175.976C99.179 175.768 99.1998 175.549 99.1998 175.32C99.1998 175.133 99.1686 174.966 99.1061 174.82C99.0644 174.653 99.0228 174.476 98.9811 174.289C98.9603 174.205 98.9603 174.122 98.9811 174.039C99.0019 173.955 99.0123 173.872 99.0123 173.789C99.0123 173.414 98.9915 173.039 98.9498 172.664C98.929 172.268 98.9186 171.883 98.9186 171.508C98.9186 171.362 98.9186 171.226 98.9186 171.101C98.9186 170.976 98.929 170.851 98.9498 170.726C98.9915 170.601 99.0228 170.497 99.0436 170.414C99.0853 170.33 99.1061 170.226 99.1061 170.101C99.1061 169.705 99.0644 169.32 98.9811 168.945C98.8978 168.549 98.8561 168.164 98.8561 167.789C98.8561 167.58 98.8561 167.372 98.8561 167.164C98.8769 166.935 98.8873 166.716 98.8873 166.508C98.8873 165.903 98.8769 165.31 98.8561 164.726C98.8353 164.143 98.8248 163.56 98.8248 162.976C98.8248 162.56 98.8353 162.153 98.8561 161.758C98.8769 161.341 98.8873 160.924 98.8873 160.508C98.8873 159.987 98.8665 159.476 98.8248 158.976C98.7832 158.455 98.7623 157.924 98.7623 157.383C98.7623 157.195 98.7519 157.07 98.7311 157.008C98.7103 156.945 98.679 156.914 98.6373 156.914C98.5957 156.893 98.5436 156.883 98.4811 156.883C98.4394 156.862 98.3978 156.82 98.3561 156.758C98.3561 156.633 98.4082 156.549 98.5123 156.508C98.6165 156.445 98.6686 156.268 98.6686 155.976C98.6686 155.81 98.6478 155.643 98.6061 155.476C98.5853 155.31 98.5748 155.143 98.5748 154.976C98.5748 154.726 98.6269 154.476 98.7311 154.226C98.8353 153.976 98.929 153.737 99.0123 153.508C99.2623 153.487 99.429 153.487 99.5123 153.508C99.6165 153.528 99.7207 153.518 99.8248 153.476C99.8873 153.705 100.023 153.83 100.231 153.851C100.439 153.851 100.627 153.872 100.794 153.914C100.981 153.935 101.158 153.987 101.325 154.07C101.512 154.133 101.689 154.164 101.856 154.164C101.898 154.289 101.981 154.383 102.106 154.445C102.252 154.487 102.398 154.528 102.544 154.57C102.71 154.549 102.835 154.476 102.919 154.351C103.023 154.226 103.158 154.164 103.325 154.164C103.45 154.164 103.596 154.258 103.762 154.445C103.929 154.612 104.054 154.747 104.137 154.851C104.221 154.914 104.377 155.049 104.606 155.258C104.835 155.466 105.085 155.685 105.356 155.914C105.627 156.122 105.877 156.33 106.106 156.539C106.335 156.726 106.481 156.83 106.544 156.851C107.398 157.705 108.189 158.487 108.919 159.195C109.669 159.883 110.481 160.508 111.356 161.07C111.377 161.133 111.398 161.185 111.419 161.226C111.46 161.268 111.502 161.32 111.544 161.383C111.544 161.549 111.512 161.674 111.45 161.758C111.387 161.841 111.356 161.945 111.356 162.07C111.356 162.133 111.367 162.195 111.387 162.258C111.429 162.32 111.45 162.383 111.45 162.445C111.471 162.528 111.471 162.612 111.45 162.695C111.45 162.758 111.45 162.83 111.45 162.914C111.45 163.122 111.512 163.31 111.637 163.476C111.783 163.643 111.856 163.83 111.856 164.039C111.814 164.226 111.731 164.341 111.606 164.383C111.481 164.424 111.377 164.476 111.294 164.539C111.252 164.58 111.21 164.633 111.169 164.695C111.148 164.758 111.117 164.81 111.075 164.851C110.617 165.06 110.283 165.258 110.075 165.445C109.867 165.612 109.648 165.778 109.419 165.945C109.356 165.987 109.252 166.06 109.106 166.164C108.96 166.247 108.814 166.341 108.669 166.445C108.523 166.528 108.387 166.622 108.262 166.726C108.158 166.83 108.106 166.914 108.106 166.976C108.106 167.122 108.189 167.33 108.356 167.601C108.544 167.851 108.679 168.049 108.762 168.195C108.992 168.57 109.2 168.945 109.387 169.32C109.575 169.674 109.783 170.028 110.012 170.383C110.429 171.028 110.814 171.685 111.169 172.351C111.544 173.018 111.908 173.685 112.262 174.351ZM107.169 162.726C106.689 162.122 106.169 161.58 105.606 161.101C105.064 160.601 104.544 160.08 104.044 159.539L103.7 159.476C103.575 159.268 103.429 159.091 103.262 158.945C103.117 158.778 102.96 158.612 102.794 158.445C102.814 158.674 102.825 158.893 102.825 159.101C102.825 159.31 102.825 159.528 102.825 159.758C102.825 160.424 102.804 161.08 102.762 161.726C102.742 162.351 102.731 162.987 102.731 163.633C102.731 164.278 102.762 164.893 102.825 165.476C103.262 165.476 103.658 165.351 104.012 165.101C104.158 164.997 104.294 164.893 104.419 164.789C104.544 164.664 104.679 164.549 104.825 164.445C104.992 164.341 105.179 164.216 105.387 164.07C105.617 163.924 105.835 163.778 106.044 163.633C106.273 163.487 106.481 163.341 106.669 163.195C106.877 163.028 107.044 162.872 107.169 162.726ZM121.012 153.695C121.117 154.07 121.221 154.445 121.325 154.82C121.429 155.174 121.554 155.528 121.7 155.883C122.012 155.924 122.2 155.955 122.262 155.976C122.346 155.997 122.439 156.028 122.544 156.07C122.773 156.612 122.908 157.195 122.95 157.82C123.012 158.424 123.096 159.018 123.2 159.601C123.596 160.122 123.877 160.685 124.044 161.289C124.231 161.872 124.439 162.466 124.669 163.07C124.731 163.278 124.773 163.414 124.794 163.476C124.814 163.518 124.825 163.56 124.825 163.601C124.95 163.955 125.075 164.32 125.2 164.695C125.325 165.07 125.46 165.435 125.606 165.789C125.669 165.976 125.731 166.164 125.794 166.351C125.877 166.518 125.95 166.685 126.012 166.851C126.075 167.06 126.127 167.278 126.169 167.508C126.231 167.716 126.294 167.924 126.356 168.133C126.502 168.549 126.658 168.966 126.825 169.383C126.992 169.799 127.158 170.216 127.325 170.633C127.387 170.778 127.502 171.101 127.669 171.601C127.856 172.101 128.044 172.633 128.231 173.195C128.419 173.737 128.585 174.247 128.731 174.726C128.898 175.185 128.981 175.466 128.981 175.57C128.981 175.737 128.992 175.914 129.012 176.101C129.054 176.268 129.085 176.445 129.106 176.633C129.023 176.841 128.919 176.955 128.794 176.976C128.669 176.997 128.554 176.987 128.45 176.945C128.346 176.987 128.242 177.028 128.137 177.07C128.054 177.112 127.971 177.153 127.887 177.195C127.825 177.216 127.773 177.247 127.731 177.289C127.689 177.33 127.637 177.351 127.575 177.351C127.325 177.351 127.158 177.372 127.075 177.414C127.012 177.476 126.908 177.508 126.762 177.508C126.575 177.445 126.45 177.435 126.387 177.476C126.346 177.539 126.304 177.58 126.262 177.601C126.179 177.643 126.085 177.664 125.981 177.664C125.877 177.664 125.773 177.674 125.669 177.695C125.627 177.612 125.585 177.528 125.544 177.445C125.523 177.362 125.481 177.268 125.419 177.164C125.189 176.83 125.023 176.508 124.919 176.195C124.835 175.883 124.762 175.633 124.7 175.445C124.596 175.216 124.502 174.987 124.419 174.758C124.356 174.528 124.273 174.299 124.169 174.07C124.044 174.112 123.929 174.164 123.825 174.226C123.721 174.268 123.637 174.33 123.575 174.414C123.325 174.414 123.2 174.445 123.2 174.508C123.2 174.57 123.179 174.633 123.137 174.695C123.012 174.737 122.908 174.778 122.825 174.82C122.762 174.862 122.648 174.872 122.481 174.851C122.377 174.955 122.273 175.049 122.169 175.133C122.064 175.195 121.929 175.237 121.762 175.258C121.596 175.424 121.419 175.57 121.231 175.695C121.064 175.799 120.867 175.82 120.637 175.758C120.346 175.82 120.054 175.883 119.762 175.945C119.471 175.987 119.179 176.008 118.887 176.008C118.554 175.903 118.346 175.81 118.262 175.726C118.179 175.643 118.054 175.601 117.887 175.601C117.908 175.31 117.846 175.112 117.7 175.008C117.7 174.945 117.7 174.851 117.7 174.726C117.721 174.58 117.752 174.487 117.794 174.445C118.064 174.32 118.221 174.185 118.262 174.039C118.304 173.893 118.419 173.799 118.606 173.758C118.648 173.674 118.689 173.601 118.731 173.539C118.794 173.455 118.846 173.372 118.887 173.289C118.992 173.247 119.075 173.216 119.137 173.195C119.221 173.174 119.283 173.112 119.325 173.008C119.429 173.008 119.585 172.945 119.794 172.82C120.002 172.674 120.137 172.56 120.2 172.476C120.367 172.414 120.471 172.362 120.512 172.32C120.554 172.258 120.606 172.205 120.669 172.164C120.877 172.185 121.012 172.164 121.075 172.101C121.242 172.185 121.429 172.226 121.637 172.226C121.721 172.226 121.794 172.226 121.856 172.226C121.919 172.205 121.992 172.195 122.075 172.195C122.242 172.028 122.45 171.924 122.7 171.883C122.971 171.82 123.189 171.705 123.356 171.539C123.294 171.372 123.242 171.174 123.2 170.945C123.158 170.695 123.085 170.497 122.981 170.351C122.939 170.08 122.867 169.82 122.762 169.57C122.679 169.32 122.606 169.08 122.544 168.851C122.314 167.976 122.044 167.122 121.731 166.289C121.419 165.455 121.158 164.601 120.95 163.726C120.908 163.622 120.856 163.518 120.794 163.414C120.752 163.289 120.71 163.174 120.669 163.07C120.564 163.32 120.512 163.466 120.512 163.508C120.512 163.528 120.492 163.56 120.45 163.601C120.429 163.705 120.408 163.799 120.387 163.883C120.367 163.945 120.335 164.028 120.294 164.133C120.231 164.299 120.169 164.487 120.106 164.695C120.064 164.883 120.023 165.06 119.981 165.226C119.877 165.58 119.783 165.955 119.7 166.351C119.617 166.726 119.523 167.101 119.419 167.476C119.21 168.122 118.992 168.768 118.762 169.414C118.554 170.039 118.346 170.674 118.137 171.32C118.096 171.612 118.044 171.841 117.981 172.008C117.939 172.153 117.887 172.31 117.825 172.476C117.783 172.622 117.742 172.768 117.7 172.914C117.679 173.06 117.669 173.174 117.669 173.258C117.377 173.924 117.127 174.601 116.919 175.289C116.731 175.976 116.492 176.643 116.2 177.289C116.117 177.33 116.044 177.383 115.981 177.445C115.919 177.508 115.846 177.539 115.762 177.539C115.596 177.539 115.502 177.497 115.481 177.414C115.481 177.33 115.439 177.289 115.356 177.289C115.273 177.289 115.2 177.31 115.137 177.351C115.075 177.372 115.012 177.403 114.95 177.445C114.846 177.403 114.721 177.372 114.575 177.351C114.45 177.351 114.356 177.31 114.294 177.226C114.148 177.33 114.002 177.383 113.856 177.383C113.689 177.383 113.523 177.33 113.356 177.226C113.231 177.268 113.106 177.289 112.981 177.289C112.919 177.289 112.846 177.278 112.762 177.258C112.679 177.237 112.617 177.205 112.575 177.164C112.554 177.08 112.544 176.997 112.544 176.914C112.544 176.83 112.544 176.737 112.544 176.633C112.544 176.424 112.523 176.268 112.481 176.164C112.856 175.101 113.221 174.028 113.575 172.945C113.929 171.841 114.283 170.726 114.637 169.601C114.825 169.08 115.002 168.57 115.169 168.07C115.356 167.57 115.533 167.06 115.7 166.539C115.783 166.247 115.856 165.976 115.919 165.726C115.981 165.455 116.064 165.195 116.169 164.945C116.335 164.403 116.502 163.862 116.669 163.32C116.856 162.758 117.023 162.205 117.169 161.664C117.252 161.601 117.304 161.528 117.325 161.445C117.346 161.362 117.377 161.268 117.419 161.164L117.387 160.758C117.533 160.549 117.627 160.372 117.669 160.226C117.731 160.06 117.773 159.893 117.794 159.726C117.898 159.476 117.992 159.205 118.075 158.914C118.158 158.622 118.221 158.351 118.262 158.101C118.304 157.768 118.325 157.393 118.325 156.976C118.346 156.539 118.408 156.174 118.512 155.883C118.554 155.799 118.585 155.747 118.606 155.726C118.648 155.685 118.669 155.612 118.669 155.508C118.71 155.466 118.752 155.424 118.794 155.383C118.856 155.32 118.898 155.258 118.919 155.195C119.023 155.028 119.054 154.883 119.012 154.758C118.992 154.633 118.981 154.497 118.981 154.351C119.169 154.247 119.252 154.153 119.231 154.07C119.21 153.987 119.2 153.903 119.2 153.82C119.2 153.716 119.262 153.622 119.387 153.539C119.533 153.435 119.627 153.33 119.669 153.226C119.794 153.247 119.919 153.268 120.044 153.289C120.169 153.289 120.294 153.278 120.419 153.258C120.564 153.528 120.742 153.664 120.95 153.664L121.012 153.695ZM147.106 165.383C147.148 165.528 147.231 165.685 147.356 165.851C147.481 166.018 147.544 166.143 147.544 166.226C147.377 166.622 147.252 166.935 147.169 167.164C147.085 167.372 146.95 167.56 146.762 167.726C146.762 167.789 146.7 167.924 146.575 168.133C146.45 168.341 146.304 168.57 146.137 168.82C145.992 169.049 145.835 169.278 145.669 169.508C145.523 169.716 145.429 169.862 145.387 169.945C145.283 170.112 145.2 170.278 145.137 170.445C145.075 170.591 145.002 170.737 144.919 170.883C144.731 171.216 144.533 171.528 144.325 171.82C144.137 172.112 143.96 172.435 143.794 172.789C143.689 172.893 143.596 173.008 143.512 173.133C143.429 173.258 143.335 173.372 143.231 173.476C142.981 173.935 142.689 174.362 142.356 174.758C142.044 175.153 141.752 175.591 141.481 176.07C141.71 176.299 141.825 176.591 141.825 176.945C141.825 177.133 141.773 177.237 141.669 177.258C141.564 177.258 141.471 177.278 141.387 177.32C141.179 177.466 140.992 177.549 140.825 177.57C140.658 177.591 140.523 177.601 140.419 177.601C140.189 177.601 139.939 177.591 139.669 177.57C139.398 177.57 139.169 177.591 138.981 177.633C138.919 177.653 138.846 177.685 138.762 177.726C138.679 177.789 138.617 177.82 138.575 177.82C138.408 177.82 138.283 177.789 138.2 177.726C138.137 177.685 138.044 177.643 137.919 177.601C137.752 177.414 137.596 177.216 137.45 177.008C137.325 176.799 137.189 176.591 137.044 176.383C136.919 176.237 136.783 176.112 136.637 176.008C136.492 175.883 136.356 175.737 136.231 175.57C135.898 175.091 135.554 174.633 135.2 174.195C134.867 173.758 134.523 173.32 134.169 172.883C134.002 172.653 133.814 172.435 133.606 172.226C133.419 172.018 133.242 171.81 133.075 171.601C132.908 171.372 132.752 171.133 132.606 170.883C132.46 170.633 132.304 170.393 132.137 170.164C132.012 169.955 131.835 169.705 131.606 169.414C131.377 169.101 131.137 168.789 130.887 168.476C130.637 168.164 130.377 167.872 130.106 167.601C129.856 167.31 129.637 167.091 129.45 166.945C129.45 166.799 129.408 166.695 129.325 166.633C129.242 166.57 129.148 166.497 129.044 166.414C129.002 166.31 128.95 166.216 128.887 166.133C128.825 166.028 128.794 165.914 128.794 165.789C128.794 165.643 128.825 165.508 128.887 165.383C128.929 165.299 128.95 165.226 128.95 165.164C128.971 165.08 129.002 164.997 129.044 164.914C129.148 164.643 129.294 164.403 129.481 164.195C129.689 163.987 129.846 163.747 129.95 163.476C129.971 163.393 129.981 163.32 129.981 163.258C129.981 163.174 130.002 163.091 130.044 163.008C130.106 162.862 130.2 162.737 130.325 162.633C130.45 162.508 130.564 162.372 130.669 162.226C130.773 162.039 130.877 161.851 130.981 161.664C131.085 161.476 131.189 161.289 131.294 161.101C131.585 160.622 131.908 160.164 132.262 159.726C132.617 159.268 132.95 158.82 133.262 158.383C133.554 157.966 133.825 157.56 134.075 157.164C134.325 156.747 134.596 156.33 134.887 155.914C135.033 155.705 135.2 155.476 135.387 155.226C135.575 154.955 135.762 154.695 135.95 154.445C136.158 154.195 136.367 153.966 136.575 153.758C136.783 153.528 136.992 153.362 137.2 153.258C137.554 153.216 137.783 153.278 137.887 153.445C137.992 153.591 138.137 153.664 138.325 153.664C138.617 153.726 138.814 153.82 138.919 153.945C139.023 154.07 139.127 154.185 139.231 154.289C139.502 154.289 139.731 154.341 139.919 154.445C140.106 154.549 140.294 154.705 140.481 154.914C140.398 155.143 140.283 155.351 140.137 155.539C140.012 155.726 139.898 155.924 139.794 156.133C139.627 156.195 139.502 156.299 139.419 156.445C139.356 156.591 139.252 156.716 139.106 156.82C138.877 157.174 138.648 157.528 138.419 157.883C138.189 158.216 137.96 158.539 137.731 158.851C137.627 158.976 137.512 159.08 137.387 159.164C137.262 159.226 137.148 159.33 137.044 159.476C137.002 159.539 136.971 159.612 136.95 159.695C136.929 159.758 136.898 159.82 136.856 159.883C136.606 160.278 136.325 160.664 136.012 161.039C135.7 161.414 135.429 161.81 135.2 162.226C135.096 162.372 135.012 162.528 134.95 162.695C134.887 162.841 134.814 162.987 134.731 163.133C134.648 163.278 134.523 163.466 134.356 163.695C134.21 163.903 134.054 164.122 133.887 164.351C133.742 164.58 133.606 164.81 133.481 165.039C133.377 165.268 133.325 165.455 133.325 165.601C133.346 165.705 133.481 165.914 133.731 166.226C133.981 166.539 134.262 166.872 134.575 167.226C134.887 167.58 135.179 167.924 135.45 168.258C135.742 168.57 135.919 168.758 135.981 168.82C136.023 168.924 136.179 169.153 136.45 169.508C136.721 169.841 137.023 170.216 137.356 170.633C137.71 171.028 138.054 171.414 138.387 171.789C138.721 172.164 138.95 172.435 139.075 172.601L139.325 173.008C139.367 172.987 139.471 172.841 139.637 172.57C139.825 172.299 140.012 171.997 140.2 171.664C140.387 171.33 140.554 171.018 140.7 170.726C140.867 170.435 140.971 170.247 141.012 170.164C141.075 170.101 141.179 169.935 141.325 169.664C141.471 169.393 141.627 169.101 141.794 168.789C141.981 168.476 142.137 168.185 142.262 167.914C142.408 167.643 142.492 167.466 142.512 167.383H142.137C141.804 167.383 141.471 167.403 141.137 167.445C140.825 167.466 140.502 167.528 140.169 167.633C140.023 167.612 139.898 167.57 139.794 167.508C139.689 167.445 139.564 167.383 139.419 167.32C139.356 167.112 139.325 166.966 139.325 166.883C139.346 166.799 139.346 166.737 139.325 166.695C139.304 166.612 139.273 166.549 139.231 166.508C139.21 166.466 139.2 166.403 139.2 166.32C139.2 166.174 139.179 166.06 139.137 165.976C139.096 165.872 139.054 165.758 139.012 165.633C139.012 165.549 139.012 165.466 139.012 165.383C139.033 165.299 139.023 165.226 138.981 165.164C139.023 164.789 138.992 164.518 138.887 164.351C138.887 164.06 138.929 163.872 139.012 163.789C139.096 163.705 139.158 163.58 139.2 163.414C139.387 163.476 139.544 163.466 139.669 163.383C139.814 163.278 139.96 163.226 140.106 163.226C140.439 163.226 140.71 163.174 140.919 163.07C141.106 163.049 141.294 163.039 141.481 163.039C141.689 163.039 141.887 163.018 142.075 162.976C142.179 162.955 142.262 162.935 142.325 162.914C142.408 162.893 142.502 162.872 142.606 162.851C142.731 162.83 142.867 162.82 143.012 162.82C143.158 162.82 143.294 162.82 143.419 162.82C143.752 162.778 144.085 162.758 144.419 162.758C144.752 162.737 145.085 162.716 145.419 162.695C145.523 162.737 145.617 162.768 145.7 162.789C145.804 162.81 145.898 162.841 145.981 162.883C146.044 162.924 146.096 162.976 146.137 163.039C146.179 163.08 146.252 163.112 146.356 163.133C146.46 163.237 146.533 163.341 146.575 163.445C146.533 163.633 146.544 163.768 146.606 163.851C146.502 163.955 146.439 164.101 146.419 164.289C146.419 164.455 146.408 164.612 146.387 164.758C146.533 164.799 146.658 164.914 146.762 165.101C146.867 165.289 146.939 165.383 146.981 165.383H147.106ZM164.637 164.945C164.596 165.028 164.554 165.112 164.512 165.195C164.471 165.258 164.439 165.33 164.419 165.414C164.502 165.497 164.575 165.591 164.637 165.695C164.721 165.778 164.762 165.872 164.762 165.976C164.762 166.06 164.742 166.143 164.7 166.226C164.679 166.289 164.679 166.351 164.7 166.414C164.617 166.56 164.523 166.695 164.419 166.82C164.335 166.945 164.273 167.08 164.231 167.226C164.148 167.31 164.075 167.393 164.012 167.476C163.971 167.56 163.929 167.643 163.887 167.726C163.783 167.768 163.71 167.841 163.669 167.945C163.648 168.028 163.596 168.101 163.512 168.164C163.492 168.247 163.387 168.445 163.2 168.758C163.012 169.07 162.804 169.403 162.575 169.758C162.346 170.112 162.127 170.455 161.919 170.789C161.71 171.122 161.564 171.341 161.481 171.445C161.439 171.549 161.387 171.633 161.325 171.695C161.283 171.758 161.231 171.83 161.169 171.914C161.127 171.976 161.096 172.049 161.075 172.133C161.054 172.195 161.023 172.247 160.981 172.289C160.939 172.372 160.887 172.445 160.825 172.508C160.783 172.57 160.742 172.653 160.7 172.758C160.492 173.028 160.283 173.351 160.075 173.726C159.867 174.101 159.669 174.435 159.481 174.726C159.377 174.893 159.273 175.06 159.169 175.226C159.085 175.393 158.992 175.56 158.887 175.726C158.783 175.893 158.679 176.049 158.575 176.195C158.471 176.341 158.367 176.497 158.262 176.664C158.096 176.789 157.95 176.945 157.825 177.133C157.7 177.299 157.554 177.445 157.387 177.57C157.117 177.57 156.95 177.445 156.887 177.195C156.617 177.133 156.481 177.133 156.481 177.195C156.481 177.258 156.481 177.31 156.481 177.351C156.398 177.393 156.335 177.455 156.294 177.539C156.273 177.622 156.221 177.685 156.137 177.726C155.971 177.685 155.825 177.612 155.7 177.508C155.596 177.424 155.439 177.393 155.231 177.414C155.148 177.289 155.054 177.185 154.95 177.101C154.846 176.997 154.752 176.893 154.669 176.789C154.627 176.664 154.564 176.56 154.481 176.476C154.419 176.393 154.356 176.31 154.294 176.226C154.231 176.122 154.169 176.028 154.106 175.945C154.044 175.862 153.981 175.778 153.919 175.695C153.773 175.508 153.627 175.33 153.481 175.164C153.356 174.976 153.242 174.789 153.137 174.601C152.971 174.351 152.804 174.101 152.637 173.851C152.492 173.58 152.335 173.32 152.169 173.07C152.085 172.945 152.002 172.82 151.919 172.695C151.835 172.57 151.762 172.445 151.7 172.32C151.658 172.216 151.596 172.091 151.512 171.945C151.45 171.799 151.367 171.705 151.262 171.664C151.221 171.497 151.148 171.372 151.044 171.289C150.939 171.205 150.835 171.101 150.731 170.976C150.585 170.81 150.45 170.633 150.325 170.445C150.2 170.237 150.075 170.028 149.95 169.82C149.533 169.237 149.137 168.664 148.762 168.101C148.408 167.539 148.054 166.955 147.7 166.351C147.804 166.018 147.856 165.768 147.856 165.601C147.856 165.435 147.908 165.299 148.012 165.195C148.012 165.112 148.033 164.987 148.075 164.82C148.346 164.362 148.606 163.945 148.856 163.57C149.085 163.216 149.242 162.924 149.325 162.695C149.429 162.466 149.533 162.226 149.637 161.976C149.742 161.914 149.825 161.841 149.887 161.758C149.95 161.653 150.033 161.56 150.137 161.476C150.179 161.247 150.273 161.06 150.419 160.914C150.564 160.747 150.658 160.549 150.7 160.32C150.887 160.174 150.992 160.008 151.012 159.82C151.283 159.633 151.45 159.383 151.512 159.07C151.679 158.903 151.814 158.716 151.919 158.508C152.044 158.299 152.158 158.08 152.262 157.851C152.512 157.643 152.71 157.372 152.856 157.039C152.981 156.955 153.075 156.841 153.137 156.695C153.2 156.549 153.283 156.424 153.387 156.32C153.554 156.049 153.679 155.83 153.762 155.664C153.867 155.476 153.971 155.289 154.075 155.101C154.221 155.101 154.314 155.049 154.356 154.945C154.398 154.841 154.481 154.799 154.606 154.82C154.606 154.633 154.658 154.466 154.762 154.32C154.804 154.299 154.867 154.278 154.95 154.258C155.033 154.216 155.075 154.174 155.075 154.133C155.033 153.883 155.044 153.737 155.106 153.695C155.169 153.653 155.221 153.612 155.262 153.57C155.492 153.612 155.648 153.643 155.731 153.664C155.814 153.685 155.95 153.758 156.137 153.883C156.346 153.883 156.492 153.924 156.575 154.008C156.658 154.091 156.752 154.153 156.856 154.195C156.939 154.278 157.002 154.362 157.044 154.445C157.106 154.528 157.189 154.591 157.294 154.633C157.46 154.862 157.637 155.112 157.825 155.383C158.012 155.653 158.189 155.903 158.356 156.133C158.585 156.445 158.814 156.747 159.044 157.039C159.294 157.31 159.523 157.612 159.731 157.945C159.794 158.049 159.908 158.237 160.075 158.508C160.242 158.758 160.429 159.028 160.637 159.32C160.846 159.612 161.033 159.883 161.2 160.133C161.367 160.362 161.481 160.497 161.544 160.539C161.606 160.643 161.742 160.841 161.95 161.133C162.158 161.424 162.377 161.737 162.606 162.07C162.856 162.383 163.096 162.685 163.325 162.976C163.554 163.268 163.71 163.455 163.794 163.539C164.023 163.851 164.189 164.112 164.294 164.32C164.419 164.508 164.533 164.716 164.637 164.945ZM157.481 170.82C157.71 170.508 157.887 170.226 158.012 169.976C158.137 169.726 158.262 169.476 158.387 169.226C158.596 168.976 158.721 168.799 158.762 168.695C158.804 168.591 158.856 168.487 158.919 168.383C159.085 168.133 159.252 167.883 159.419 167.633C159.606 167.383 159.752 167.112 159.856 166.82C159.981 166.737 160.075 166.633 160.137 166.508C160.2 166.383 160.294 166.268 160.419 166.164C160.294 165.726 160.148 165.393 159.981 165.164C159.814 164.914 159.648 164.674 159.481 164.445C159.419 164.341 159.356 164.237 159.294 164.133C159.231 164.028 159.169 163.924 159.106 163.82C159.023 163.758 158.95 163.695 158.887 163.633C158.846 163.57 158.794 163.508 158.731 163.445C158.689 163.341 158.627 163.205 158.544 163.039C158.46 162.935 158.377 162.841 158.294 162.758C158.21 162.674 158.137 162.57 158.075 162.445C157.992 162.362 157.887 162.247 157.762 162.101C157.637 161.955 157.502 161.799 157.356 161.633C157.231 161.445 157.117 161.278 157.012 161.133C156.908 160.966 156.825 160.83 156.762 160.726C156.721 160.622 156.679 160.539 156.637 160.476C156.617 160.393 156.585 160.31 156.544 160.226C156.439 160.08 156.335 159.955 156.231 159.851C156.127 159.726 156.023 159.591 155.919 159.445C155.856 159.487 155.794 159.518 155.731 159.539C155.689 159.539 155.648 159.56 155.606 159.601C155.46 159.872 155.294 160.122 155.106 160.351C154.939 160.58 154.773 160.83 154.606 161.101C154.46 161.351 154.314 161.612 154.169 161.883C154.023 162.133 153.877 162.383 153.731 162.633C153.627 162.778 153.523 162.924 153.419 163.07C153.335 163.195 153.242 163.341 153.137 163.508C153.033 163.653 152.939 163.81 152.856 163.976C152.794 164.122 152.71 164.268 152.606 164.414C152.439 164.622 152.304 164.81 152.2 164.976C152.096 165.143 151.992 165.341 151.887 165.57C151.95 165.695 152.044 165.872 152.169 166.101C152.314 166.31 152.46 166.528 152.606 166.758C152.752 166.966 152.877 167.164 152.981 167.351C153.106 167.539 153.179 167.664 153.2 167.726C153.367 167.872 153.502 168.039 153.606 168.226C153.71 168.393 153.846 168.56 154.012 168.726C154.096 168.893 154.189 169.039 154.294 169.164C154.398 169.289 154.502 169.424 154.606 169.57C154.71 169.716 154.846 169.935 155.012 170.226C155.179 170.497 155.346 170.778 155.512 171.07C155.679 171.362 155.846 171.633 156.012 171.883C156.179 172.133 156.314 172.289 156.419 172.351C156.627 172.122 156.794 171.872 156.919 171.601C157.064 171.31 157.252 171.049 157.481 170.82ZM176.919 154.039C177.252 153.997 177.502 154.028 177.669 154.133C177.856 154.216 178.044 154.268 178.231 154.289C178.335 154.31 178.439 154.32 178.544 154.32C178.669 154.299 178.794 154.289 178.919 154.289C179.189 154.289 179.398 154.32 179.544 154.383C179.71 154.445 179.877 154.58 180.044 154.789C180.085 154.83 180.137 154.893 180.2 154.976C180.283 155.039 180.325 155.101 180.325 155.164C180.325 155.33 180.283 155.476 180.2 155.601C180.117 155.726 180.075 155.903 180.075 156.133C180.075 156.487 180.117 156.841 180.2 157.195C180.283 157.528 180.335 157.872 180.356 158.226C180.46 159.518 180.512 160.82 180.512 162.133C180.533 163.424 180.544 164.705 180.544 165.976C180.544 166.143 180.533 166.299 180.512 166.445C180.512 166.57 180.471 166.685 180.387 166.789V167.195C180.367 167.737 180.377 168.289 180.419 168.851C180.46 169.393 180.481 169.935 180.481 170.476C180.481 170.955 180.45 171.435 180.387 171.914C180.346 172.393 180.325 172.883 180.325 173.383C180.325 173.841 180.356 174.289 180.419 174.726C180.481 175.164 180.512 175.612 180.512 176.07C180.408 176.258 180.346 176.403 180.325 176.508C180.304 176.612 180.262 176.705 180.2 176.789C180.137 176.83 180.064 176.841 179.981 176.82C179.919 176.799 179.867 176.82 179.825 176.883C179.721 177.008 179.648 177.153 179.606 177.32C179.564 177.487 179.46 177.622 179.294 177.726C179.252 178.018 179.137 178.237 178.95 178.383C178.783 178.549 178.658 178.758 178.575 179.008C178.325 179.028 178.148 179.018 178.044 178.976C177.96 178.935 177.867 178.893 177.762 178.851C177.742 178.497 177.742 178.237 177.762 178.07C177.804 177.924 177.825 177.768 177.825 177.601C177.825 177.393 177.773 177.237 177.669 177.133C177.564 177.028 177.492 176.893 177.45 176.726C177.221 176.58 177.064 176.487 176.981 176.445C176.898 176.383 176.825 176.31 176.762 176.226C176.637 176.06 176.533 175.883 176.45 175.695C176.367 175.508 176.273 175.33 176.169 175.164C175.877 174.685 175.575 174.195 175.262 173.695C174.971 173.195 174.648 172.705 174.294 172.226C174.231 172.122 174.158 172.028 174.075 171.945C173.992 171.862 173.919 171.768 173.856 171.664C173.502 171.101 173.169 170.528 172.856 169.945C172.544 169.362 172.179 168.81 171.762 168.289C171.596 168.08 171.471 167.851 171.387 167.601C171.304 167.33 171.179 167.101 171.012 166.914C170.992 167.018 170.981 167.133 170.981 167.258C170.981 167.383 170.981 167.497 170.981 167.601C170.981 168.31 170.992 169.018 171.012 169.726C171.054 170.414 171.075 171.112 171.075 171.82C171.075 171.966 171.054 172.101 171.012 172.226C170.992 172.33 170.981 172.455 170.981 172.601C170.981 172.81 170.992 173.008 171.012 173.195C171.033 173.383 171.044 173.57 171.044 173.758C171.044 173.987 171.033 174.205 171.012 174.414C171.012 174.622 171.002 174.83 170.981 175.039C170.939 175.31 170.887 175.57 170.825 175.82C170.762 176.049 170.731 176.289 170.731 176.539C170.731 176.685 170.742 176.82 170.762 176.945C170.804 177.07 170.825 177.185 170.825 177.289C170.679 177.518 170.492 177.633 170.262 177.633C170.054 177.633 169.877 177.716 169.731 177.883C169.606 177.862 169.502 177.872 169.419 177.914C169.356 177.955 169.294 177.976 169.231 177.976C169.148 177.976 169.075 177.966 169.012 177.945C168.971 177.924 168.919 177.914 168.856 177.914C168.752 177.914 168.648 177.966 168.544 178.07C168.439 178.174 168.335 178.226 168.231 178.226C168.169 178.226 168.054 178.185 167.887 178.101C167.742 178.018 167.575 177.914 167.387 177.789C167.221 177.685 167.064 177.57 166.919 177.445C166.773 177.341 166.7 177.258 166.7 177.195C166.679 177.091 166.669 176.945 166.669 176.758C166.669 176.508 166.679 176.268 166.7 176.039C166.742 175.789 166.783 175.539 166.825 175.289C166.887 174.58 166.919 173.883 166.919 173.195C166.919 172.487 166.919 171.778 166.919 171.07C166.919 170.778 166.919 170.487 166.919 170.195C166.939 169.903 166.95 169.612 166.95 169.32C166.95 168.633 166.919 167.945 166.856 167.258C166.814 166.549 166.794 165.851 166.794 165.164C166.794 164.685 166.814 164.216 166.856 163.758C166.898 163.278 166.919 162.81 166.919 162.351C166.919 161.997 166.908 161.653 166.887 161.32C166.867 160.987 166.856 160.643 166.856 160.289C166.835 160.06 166.835 159.82 166.856 159.57C166.877 159.299 166.887 159.049 166.887 158.82C166.887 158.549 166.846 158.299 166.762 158.07C166.7 157.82 166.669 157.591 166.669 157.383C166.669 157.258 166.689 157.143 166.731 157.039C166.794 156.914 166.825 156.789 166.825 156.664C166.825 156.497 166.794 156.33 166.731 156.164C166.689 155.997 166.669 155.83 166.669 155.664C166.669 155.497 166.689 155.341 166.731 155.195C166.773 155.049 166.794 154.893 166.794 154.726C167.085 154.58 167.346 154.508 167.575 154.508C167.804 154.508 167.971 154.591 168.075 154.758C168.075 155.133 168.096 155.424 168.137 155.633C168.179 155.82 168.21 156.018 168.231 156.226C168.231 156.351 168.221 156.497 168.2 156.664C168.2 156.83 168.21 156.997 168.231 157.164C168.252 157.31 168.294 157.435 168.356 157.539C168.439 157.643 168.575 157.695 168.762 157.695C168.804 157.799 168.856 157.893 168.919 157.976C168.981 158.06 169.023 158.164 169.044 158.289C169.169 158.205 169.242 158.091 169.262 157.945C169.283 157.799 169.283 157.664 169.262 157.539C169.367 157.58 169.46 157.601 169.544 157.601C169.627 157.58 169.71 157.591 169.794 157.633C169.835 157.924 169.887 158.185 169.95 158.414C170.012 158.622 170.033 158.872 170.012 159.164C170.429 159.476 170.783 159.924 171.075 160.508C171.387 161.07 171.679 161.58 171.95 162.039C172.096 162.268 172.262 162.487 172.45 162.695C172.658 162.883 172.814 163.112 172.919 163.383C173.085 163.487 173.221 163.622 173.325 163.789C173.429 163.955 173.523 164.122 173.606 164.289C174.023 165.018 174.481 165.726 174.981 166.414C175.481 167.101 176.002 167.778 176.544 168.445C176.564 168.299 176.575 168.164 176.575 168.039C176.575 167.893 176.575 167.747 176.575 167.601L176.544 164.789C176.544 164.622 176.533 164.466 176.512 164.32C176.512 164.174 176.502 164.018 176.481 163.851C176.439 163.31 176.429 162.778 176.45 162.258C176.471 161.737 176.471 161.205 176.45 160.664C176.408 160.101 176.377 159.528 176.356 158.945C176.356 158.362 176.335 157.778 176.294 157.195C176.273 156.841 176.252 156.487 176.231 156.133C176.21 155.778 176.2 155.424 176.2 155.07C176.2 154.633 176.242 154.237 176.325 153.883C176.367 153.841 176.408 153.81 176.45 153.789C176.512 153.747 176.585 153.726 176.669 153.726C176.794 153.726 176.877 153.83 176.919 154.039ZM190.294 154.32C190.335 154.403 190.377 154.466 190.419 154.508C190.481 154.528 190.523 154.591 190.544 154.695C190.689 154.799 190.804 154.883 190.887 154.945C190.971 154.987 191.023 155.07 191.044 155.195C191.231 155.341 191.335 155.435 191.356 155.476C191.398 155.518 191.429 155.57 191.45 155.633C191.554 155.716 191.648 155.789 191.731 155.851C191.835 155.914 191.908 156.008 191.95 156.133C192.117 156.278 192.221 156.393 192.262 156.476C192.304 156.56 192.335 156.653 192.356 156.758C192.273 156.903 192.106 157.101 191.856 157.351C191.606 157.601 191.325 157.872 191.012 158.164C190.7 158.435 190.398 158.705 190.106 158.976C189.814 159.226 189.585 159.424 189.419 159.57C189.377 159.653 189.325 159.726 189.262 159.789C189.2 159.851 189.148 159.924 189.106 160.008C188.981 160.112 188.867 160.226 188.762 160.351C188.658 160.455 188.533 160.539 188.387 160.601C188.179 160.893 187.887 161.185 187.512 161.476C187.137 161.747 186.887 162.018 186.762 162.289C186.783 162.351 186.825 162.414 186.887 162.476C186.971 162.539 187.033 162.591 187.075 162.633C187.242 162.799 187.439 162.955 187.669 163.101C187.898 163.226 188.096 163.372 188.262 163.539C188.429 163.685 188.596 163.83 188.762 163.976C188.929 164.101 189.096 164.237 189.262 164.383C189.346 164.466 189.45 164.591 189.575 164.758C189.783 164.924 189.981 165.08 190.169 165.226C190.377 165.351 190.575 165.497 190.762 165.664C191.158 165.997 191.544 166.341 191.919 166.695C192.294 167.028 192.689 167.362 193.106 167.695L193.356 167.976C193.356 168.143 193.398 168.341 193.481 168.57C193.585 168.778 193.679 168.955 193.762 169.101C193.721 169.31 193.721 169.445 193.762 169.508C193.825 169.549 193.877 169.591 193.919 169.633C193.898 170.028 193.908 170.289 193.95 170.414C193.596 170.726 193.262 171.018 192.95 171.289C192.658 171.539 192.398 171.789 192.169 172.039C191.981 172.268 191.783 172.476 191.575 172.664C191.387 172.83 191.179 173.018 190.95 173.226C190.825 173.393 190.721 173.508 190.637 173.57C190.492 173.716 190.346 173.83 190.2 173.914C189.95 174.143 189.7 174.362 189.45 174.57C189.221 174.778 188.992 174.987 188.762 175.195C188.596 175.341 188.439 175.487 188.294 175.633C188.148 175.758 188.002 175.903 187.856 176.07C187.731 176.195 187.585 176.341 187.419 176.508C187.273 176.674 187.117 176.81 186.95 176.914C186.887 177.039 186.804 177.153 186.7 177.258C186.596 177.341 186.502 177.435 186.419 177.539C186.273 177.622 186.137 177.705 186.012 177.789C185.887 177.872 185.742 177.955 185.575 178.039C185.408 177.914 185.242 177.799 185.075 177.695C184.929 177.591 184.762 177.518 184.575 177.476C184.45 177.372 184.356 177.268 184.294 177.164C184.231 177.06 184.117 176.987 183.95 176.945C183.908 176.883 183.856 176.82 183.794 176.758C183.752 176.674 183.71 176.591 183.669 176.508C183.419 176.487 183.221 176.33 183.075 176.039C183.117 175.914 183.169 175.82 183.231 175.758C183.314 175.695 183.335 175.58 183.294 175.414C183.419 175.205 183.564 175.028 183.731 174.883C183.919 174.716 184.096 174.549 184.262 174.383C184.45 174.216 184.617 174.049 184.762 173.883C184.929 173.695 185.106 173.518 185.294 173.351C185.398 173.247 185.502 173.153 185.606 173.07C185.71 172.966 185.825 172.862 185.95 172.758C186.179 172.528 186.408 172.32 186.637 172.133C186.887 171.924 187.137 171.705 187.387 171.476C187.721 171.143 188.064 170.83 188.419 170.539C188.773 170.226 189.096 169.883 189.387 169.508C189.367 169.424 189.335 169.372 189.294 169.351C189.252 169.31 189.221 169.258 189.2 169.195C188.867 168.883 188.533 168.58 188.2 168.289C187.887 167.976 187.544 167.705 187.169 167.476C187.044 167.351 186.96 167.247 186.919 167.164C186.544 166.893 186.179 166.591 185.825 166.258C185.492 165.924 185.117 165.643 184.7 165.414C184.617 165.31 184.512 165.226 184.387 165.164C184.283 165.08 184.179 165.008 184.075 164.945C184.012 164.841 183.939 164.758 183.856 164.695C183.794 164.612 183.71 164.549 183.606 164.508C183.439 164.362 183.325 164.247 183.262 164.164C183.221 164.06 183.137 163.997 183.012 163.976C182.971 163.872 182.898 163.789 182.794 163.726C182.71 163.664 182.617 163.591 182.512 163.508C182.471 163.383 182.408 163.278 182.325 163.195C182.304 163.028 182.314 162.914 182.356 162.851C182.398 162.768 182.429 162.705 182.45 162.664C182.429 162.539 182.377 162.445 182.294 162.383C182.189 162.32 182.137 162.216 182.137 162.07C182.137 161.987 182.169 161.935 182.231 161.914C182.273 161.872 182.304 161.82 182.325 161.758L182.419 161.289C182.585 161.164 182.721 161.018 182.825 160.851C182.95 160.664 183.106 160.518 183.294 160.414C183.502 160.101 183.762 159.841 184.075 159.633C184.179 159.466 184.304 159.33 184.45 159.226C184.617 159.122 184.752 158.987 184.856 158.82C185.023 158.716 185.158 158.601 185.262 158.476C185.387 158.351 185.533 158.237 185.7 158.133C185.742 158.049 185.783 157.987 185.825 157.945C185.887 157.883 185.929 157.82 185.95 157.758C186.512 157.216 187.002 156.747 187.419 156.351C187.856 155.955 188.304 155.56 188.762 155.164C188.887 155.06 189.012 154.945 189.137 154.82C189.262 154.695 189.398 154.58 189.544 154.476C189.585 154.435 189.637 154.414 189.7 154.414C189.762 154.414 189.825 154.393 189.887 154.351C190.137 154.351 190.273 154.341 190.294 154.32Z" fill="#F5F5F5"/>
</g>
</g>
<defs>
<filter id="filter0_d_337_37" x="37.5532" y="89.3502" width="215.188" height="200.324" filterUnits="userSpaceOnUse" color-interpolation-filters="sRGB">
<feFlood flood-opacity="0" result="BackgroundImageFix"/>
<feColorMatrix in="SourceAlpha" type="matrix" values="0 0 0 0 0 0 0 0 0 0 0 0 0 0 0 0 0 0 127 0" result="hardAlpha"/>
<feOffset dx="4" dy="4"/>
<feGaussianBlur stdDeviation="2"/>
<feComposite in2="hardAlpha" operator="out"/>
<feColorMatrix type="matrix" values="0 0 0 0 0 0 0 0 0 0 0 0 0 0 0 0 0 0 0.25 0"/>
<feBlend mode="normal" in2="BackgroundImageFix" result="effect1_dropShadow_337_37"/>
<feBlend mode="normal" in="SourceGraphic" in2="effect1_dropShadow_337_37" result="shape"/>
</filter>
<filter id="filter1_d_337_37" x="79.1375" y="118.226" width="125.906" height="68.8125" filterUnits="userSpaceOnUse" color-interpolation-filters="sRGB">
<feFlood flood-opacity="0" result="BackgroundImageFix"/>
<feColorMatrix in="SourceAlpha" type="matrix" values="0 0 0 0 0 0 0 0 0 0 0 0 0 0 0 0 0 0 127 0" result="hardAlpha"/>
<feOffset dx="4" dy="4"/>
<feGaussianBlur stdDeviation="2"/>
<feComposite in2="hardAlpha" operator="out"/>
<feColorMatrix type="matrix" values="0 0 0 0 0 0 0 0 0 0 0 0 0 0 0 0 0 0 0.5 0"/>
<feBlend mode="normal" in2="BackgroundImageFix" result="effect1_dropShadow_337_37"/>
<feBlend mode="normal" in="SourceGraphic" in2="effect1_dropShadow_337_37" result="shape"/>
</filter>
</defs>
</svg>
