<svg width="561" height="521" viewBox="0 0 561 521" fill="none" xmlns="http://www.w3.org/2000/svg">
<g filter="url(#filter0_d_259_801)">
<path d="M145.674 45.5005C240.523 -36.9053 352.264 11.1648 396.279 45.5005C408.422 54.142 418.175 59 426.5 59C433 59 436.952 61.2858 437.758 62.438C442.136 67.0468 449.303 78.4767 442.943 87.3256C436.583 96.1746 440.5 105 441 108C442 111.5 441.383 113.102 462 115.5C483.046 117.947 494.562 125.464 497.903 130.188C499.747 132.262 503.503 139.382 503.78 151.273C504.056 163.164 494.908 167.98 490.299 168.902C482.694 170.169 465.273 177.613 456.424 197.246C447.575 216.88 468.407 241.145 479.929 250.824C483.385 253.243 489.953 260.087 488.57 268.107C487.188 276.126 481.081 276.287 478.201 275.366C475.896 274.674 470.734 270.596 468.522 259.811C466.31 249.026 458.152 242.413 454.35 240.454C447.667 236.882 434.716 234.923 436.375 255.663C438.035 276.403 429.232 282.97 424.623 283.662C424.392 301.521 424.969 342.701 429.117 364.547C433.264 386.392 420.475 390.702 413.562 390.125C408.722 389.895 400.841 382.521 408.031 354.868C415.221 327.215 411.949 295.875 409.414 283.662C405.727 284.007 398.353 281.38 398.353 268.107C398.353 254.833 393.513 251.745 391.094 251.861C389.25 251.169 383.627 250.755 375.885 254.626C366.206 259.465 367.589 305.784 367.934 325.832C368.211 341.871 361.828 340.12 358.602 337.239C357.565 336.433 355.905 329.842 357.565 309.932C359.224 290.022 352.495 284.814 348.923 284.699C344.66 283.777 336.341 285.597 337.17 300.253C338 314.909 333.368 317.421 330.949 316.845C328.183 317.191 323.067 314.979 324.727 303.364C326.386 291.75 321.5 287.694 318.85 287.118C317.007 286.196 312.214 286.22 307.789 293.686C303.365 301.152 304.102 338.737 305.024 356.596C305.254 362.127 306.614 377.613 310.209 395.31C313.804 413.008 305.946 416.281 301.567 415.704C295.576 415.128 284.561 411.142 288.432 399.804C292.304 388.466 293.271 375.953 293.271 371.114C293.387 357.979 293.548 329.151 293.271 318.919C292.995 308.688 287.626 305.899 284.975 305.784C280.251 304.632 271.287 306.061 273.223 320.993C275.159 335.926 267.577 342.194 263.544 343.461C263.544 374.34 263.683 438.795 264.236 449.579C264.789 460.364 269.536 481.265 271.84 490.367C272.877 495.322 272.048 506.475 260.434 511.453C248.819 516.43 244.533 505.922 243.842 500.046C243.15 493.939 242.874 479.859 247.298 472.393C251.723 464.927 252.368 451.769 252.138 446.123V343.461C247.874 339.659 239.832 327.353 241.768 308.549C243.703 289.745 235.661 281.588 231.398 279.859C224.485 277.094 211.695 275.988 215.843 293.686C219.991 311.384 217.571 336.317 215.843 346.572C214.691 351.757 213.424 365.653 217.571 379.756C221.719 393.859 218.148 398.076 215.843 398.421C213.884 399.113 209.068 399.873 205.473 397.384C201.878 394.896 202.593 382.29 203.399 376.299C205.012 364.777 207.478 332.123 204.436 293.686C201.394 255.248 188.882 256.239 183.005 261.539C179.894 264.345 176.532 269.453 174.709 272.6C170.907 279.168 167.105 290.229 162.957 296.797C158.256 305.369 160.998 317.882 162.957 323.067C174.295 349.89 170.216 361.436 166.759 363.855C162.496 367.888 152.241 374.225 145.328 367.312C138.415 360.399 142.448 340.926 145.328 332.054C148.554 319.841 153.278 294.723 146.365 291.957C139.452 289.192 136.802 271.679 136.341 263.268C129.704 217.364 114.449 223.862 107.651 232.849C102.696 238.841 94.9306 255.87 103.503 276.057C112.075 296.244 103.388 305.208 97.9724 307.167C95.4376 308.204 88.5704 308.688 81.3807 302.327C74.1909 295.967 77.2327 282.164 79.6523 276.057C93.7553 224.623 83.2242 203.468 76.1957 199.32C69.7434 194.481 55.2486 187.706 48.8884 199.32C42.5283 210.934 34.9468 212.455 31.9511 211.764C27.5727 210.151 22.3417 204.643 36.4447 195.518C50.5477 186.392 52.6908 170.745 51.9995 164.063C51.4234 155.306 53.5205 137.032 66.5173 133.99C79.5142 130.948 84.607 117.283 85.5287 110.831C86.4505 105.07 86.0126 90.5057 76.8871 78.3384C67.7617 66.1711 67.7847 52.529 68.9369 47.2288C71.2413 40.8917 80.6894 32.4345 100.046 49.3028C119.404 66.1711 138.53 53.7964 145.674 45.5005Z" fill="#C12026"/>
<path d="M119.058 11.6258C118.782 3.88294 124.473 2.17767 127.354 2.29289C133.576 2.29289 137.724 4.36684 137.724 12.3171C137.724 18.6772 132.654 20.2673 130.119 20.2673C126.547 20.613 119.335 19.3686 119.058 11.6258Z" fill="#C12026"/>
<path d="M45.7774 90.4366C54.9029 92.3723 62.254 109.909 64.7888 118.435C58.7051 113.734 47.7362 113.25 43.0122 113.596C39.9012 113.596 32.7805 112.213 29.1856 106.683C25.5908 101.152 27.2269 97.6955 28.4943 96.6585C30.4531 93.778 36.6519 88.5009 45.7774 90.4366Z" fill="#C12026"/>
<path d="M29.877 241.836C28.4944 232.987 37.3664 229.853 41.9752 229.393C47.8516 229.393 54.0732 231.812 54.0732 241.836C54.0732 249.856 46.0079 252.321 41.9752 252.552C38.5186 252.667 31.2597 250.685 29.877 241.836Z" fill="#C12026"/>
<path d="M482.349 210.381C481.242 205.127 486.036 202.661 488.57 202.085C491.336 202.085 496.175 202.085 497.212 208.307C498.042 213.285 493.64 215.451 491.336 215.912C488.801 216.258 483.455 215.635 482.349 210.381Z" fill="#C12026"/>
<path d="M470.942 93.2019C469.835 83.2468 477.855 79.6058 482.003 79.0297C486.496 79.0297 495.829 80.0667 495.484 90.7822C495.207 99.3546 488.686 102.189 485.459 102.535C481.081 103.572 472.048 103.157 470.942 93.2019Z" fill="#C12026"/>
<path d="M434.301 19.9217C429.324 27.388 427.619 41.2375 427.388 47.229C433.956 41.3527 441.215 40.3157 445.708 39.9701C449.303 39.6935 453.658 36.6287 455.387 35.1308C455.963 34.9004 457.323 33.0568 458.152 27.5262C458.982 21.9957 454.811 18.3086 452.622 17.1564C448.589 14.9672 439.279 12.4554 434.301 19.9217Z" fill="#C12026"/>
<rect y="120.598" width="19.197" height="63.5899" rx="9.59848" fill="#202020"/>
<rect x="70.189" y="133.196" width="19.197" height="50.9919" transform="rotate(90 70.189 133.196)" fill="#202020"/>
<rect x="70.189" y="152.393" width="19.197" height="50.9919" transform="rotate(90 70.189 152.393)" fill="#202020"/>
<rect x="70.189" y="108" width="19.197" height="88.7859" rx="9.59848" fill="#202020"/>
<path d="M459.226 120.723L89.3853 133.643V152.723H552.385L459.226 120.723Z" fill="#202020"/>
<path d="M459.226 183.723L89.3853 170.802V151.723H552.385L459.226 183.723Z" fill="#202020"/>
<g filter="url(#filter1_d_259_801)">
<path d="M102.727 145.055C102.492 144.82 102.375 144.498 102.375 144.088C102.375 143.795 102.375 143.561 102.375 143.385C102.434 143.15 102.492 142.887 102.551 142.594C102.844 141.246 102.99 139.898 102.99 138.551C102.99 137.145 103.049 135.768 103.166 134.42C103.225 133.6 103.254 132.779 103.254 131.959C103.312 131.139 103.342 130.318 103.342 129.498C103.342 124.635 103.195 119.801 102.902 114.996C102.609 110.133 102.463 105.24 102.463 100.318C102.463 96.9199 102.521 93.5215 102.639 90.123C102.756 86.666 102.844 83.209 102.902 79.752C103.43 79.459 104.074 79.3418 104.836 79.4004C105.598 79.459 106.213 79.1953 106.682 78.6094C106.975 78.5508 107.268 78.5508 107.561 78.6094C107.854 78.6094 108.146 78.6094 108.439 78.6094C109.084 78.6094 109.699 78.4043 110.285 77.9941C110.871 77.584 111.516 77.2324 112.219 76.9395C112.57 77.0566 112.805 77.1152 112.922 77.1152C113.098 77.0566 113.273 77.0273 113.449 77.0273C113.625 77.0273 114.006 77.2324 114.592 77.6426C115.178 78.0527 115.822 78.5215 116.525 79.0488C117.229 79.5762 117.873 80.0742 118.459 80.543C119.104 81.0117 119.514 81.3047 119.689 81.4219C121.154 82.5352 122.443 83.7656 123.557 85.1133C124.729 86.4023 125.871 87.7207 126.984 89.0684C128.039 90.416 129.182 91.793 130.412 93.1992C131.643 94.5469 132.844 95.8066 134.016 96.9785C134.426 97.4473 134.836 97.8574 135.246 98.209C135.715 98.5605 136.154 98.9707 136.564 99.4395C136.74 99.6738 136.887 99.9375 137.004 100.23C137.18 100.465 137.355 100.729 137.531 101.021C137.883 101.432 138.293 101.783 138.762 102.076C139.23 102.369 139.67 102.721 140.08 103.131C140.373 103.365 140.812 103.834 141.398 104.537C141.984 105.24 142.277 105.768 142.277 106.119C142.277 106.354 142.219 106.559 142.102 106.734C141.984 106.91 141.867 107.115 141.75 107.35C141.691 107.525 141.662 107.789 141.662 108.141C141.662 108.492 141.633 108.727 141.574 108.844C140.988 109.312 140.666 109.605 140.607 109.723C140.549 109.84 140.461 109.957 140.344 110.074C140.168 110.309 139.934 110.514 139.641 110.689C139.406 110.807 139.23 111.012 139.113 111.305C138.996 111.48 138.938 111.656 138.938 111.832C138.996 112.008 138.967 112.213 138.85 112.447C138.557 113.092 138.088 113.707 137.443 114.293C136.799 114.879 136.242 115.523 135.773 116.227C135.129 117.281 134.484 118.336 133.84 119.391C133.195 120.445 132.463 121.471 131.643 122.467C131.291 122.936 130.91 123.404 130.5 123.873C130.148 124.283 129.797 124.723 129.445 125.191C129.152 125.543 128.889 125.924 128.654 126.334C128.42 126.686 128.156 127.096 127.863 127.564C127.219 128.385 126.604 129.205 126.018 130.025C125.432 130.787 124.816 131.578 124.172 132.398C123.469 133.395 122.707 134.391 121.887 135.387C121.066 136.324 120.334 137.291 119.689 138.287C119.045 139.342 118.371 140.309 117.668 141.188C116.965 142.066 116.203 142.916 115.383 143.736C115.148 143.912 114.855 144.176 114.504 144.527C114.152 144.879 113.801 145.055 113.449 145.055C113.215 145.055 113.01 144.967 112.834 144.791C112.717 144.615 112.512 144.527 112.219 144.527C112.16 144.527 111.984 144.557 111.691 144.615C111.398 144.674 111.047 144.732 110.637 144.791L109.055 144.967C108.117 145.436 107.443 145.641 107.033 145.582C106.623 145.582 106.213 145.611 105.803 145.67C105.568 145.729 105.363 145.816 105.188 145.934C105.07 146.051 104.924 146.109 104.748 146.109C104.338 146.109 104.016 145.904 103.781 145.494C103.547 145.143 103.195 144.996 102.727 145.055ZM129.094 107.086C129.094 106.793 128.801 106.383 128.215 105.855C127.688 105.328 127.277 104.947 126.984 104.713C126.574 104.361 126.076 104.039 125.49 103.746C124.963 103.395 124.523 103.014 124.172 102.604C123.879 102.252 123.586 101.9 123.293 101.549C123.059 101.139 122.795 100.758 122.502 100.406C121.447 99.2344 120.363 98.0625 119.25 96.8906C118.195 95.7188 117.258 94.4297 116.438 93.0234C115.91 92.6719 115.412 92.2617 114.943 91.793C114.475 91.3242 113.918 90.9434 113.273 90.6504C113.156 91.002 113.098 91.3828 113.098 91.793C113.156 92.1445 113.186 92.4961 113.186 92.8477C113.186 94.1953 113.127 95.5137 113.01 96.8027C112.893 98.0918 112.834 99.3809 112.834 100.67C112.834 103.834 112.893 106.969 113.01 110.074C113.186 113.121 113.273 116.197 113.273 119.303C113.273 120.475 113.273 121.646 113.273 122.818C113.332 123.99 113.449 125.162 113.625 126.334C113.508 126.686 113.449 127.008 113.449 127.301C113.449 127.594 113.508 127.975 113.625 128.443C114.094 128.15 114.475 127.799 114.768 127.389C115.119 126.92 115.441 126.48 115.734 126.07C116.73 124.781 117.697 123.492 118.635 122.203C119.631 120.855 120.627 119.508 121.623 118.16C122.268 117.281 122.912 116.432 123.557 115.611C124.26 114.732 124.934 113.824 125.578 112.887C125.754 112.652 126.018 112.242 126.369 111.656C126.779 111.07 127.16 110.484 127.512 109.898C127.922 109.254 128.273 108.668 128.566 108.141C128.918 107.613 129.094 107.262 129.094 107.086ZM160.119 120.973C160.236 121.266 160.646 121.881 161.35 122.818C162.111 123.756 162.961 124.781 163.898 125.895C164.836 127.008 165.715 128.092 166.535 129.146C167.414 130.143 168.029 130.875 168.381 131.344C169.025 132.164 169.641 132.984 170.227 133.805C170.871 134.566 171.457 135.387 171.984 136.266L173.566 138.902C174.035 139.488 174.445 139.986 174.797 140.396C175.207 140.807 175.529 141.363 175.764 142.066C175.881 142.535 175.939 142.857 175.939 143.033C175.939 143.443 175.793 143.736 175.5 143.912C175.031 143.912 174.768 143.971 174.709 144.088C174.709 144.264 174.592 144.41 174.357 144.527C174.123 144.645 173.742 144.703 173.215 144.703C172.746 144.762 172.365 144.791 172.072 144.791C171.545 144.791 170.871 144.762 170.051 144.703C169.289 144.703 168.674 144.791 168.205 144.967C168.088 145.025 167.912 145.113 167.678 145.23C167.443 145.348 167.268 145.406 167.15 145.406C166.682 145.406 166.33 145.318 166.096 145.143C165.92 145.025 165.656 144.938 165.305 144.879C164.836 144.352 164.426 143.824 164.074 143.297C163.781 142.711 163.43 142.125 163.02 141.539C162.609 141.129 162.199 140.777 161.789 140.484C161.379 140.133 161.027 139.752 160.734 139.342C159.855 138.053 158.947 136.793 158.01 135.562C157.072 134.332 156.105 133.131 155.109 131.959C154.641 131.314 154.143 130.729 153.615 130.201C153.088 129.674 152.59 129.088 152.121 128.443C151.652 127.857 151.213 127.242 150.803 126.598C150.393 125.895 149.982 125.221 149.572 124.576C149.221 124.049 148.752 123.375 148.166 122.555C147.58 121.676 146.936 120.826 146.232 120.006C145.529 119.127 144.826 118.307 144.123 117.545C143.42 116.783 142.834 116.197 142.365 115.787C142.307 115.436 142.16 115.172 141.926 114.996C141.691 114.762 141.428 114.557 141.135 114.381C141.018 114.088 140.9 113.824 140.783 113.59C140.607 113.297 140.52 113.004 140.52 112.711C140.52 112.301 140.607 111.92 140.783 111.568C140.9 111.334 140.988 111.129 141.047 110.953C141.047 110.719 141.105 110.484 141.223 110.25C141.516 109.605 141.896 108.99 142.365 108.404C142.893 107.76 143.303 107.086 143.596 106.383C143.713 106.207 143.771 106.031 143.771 105.855C143.771 105.621 143.83 105.416 143.947 105.24C144.064 104.771 144.299 104.391 144.65 104.098C145.061 103.746 145.383 103.365 145.617 102.955C145.91 102.486 146.174 102.018 146.408 101.549C146.701 101.021 146.994 100.465 147.287 99.8789C148.166 98.4141 149.074 97.0078 150.012 95.6602C151.008 94.2539 152.004 92.8477 153 91.4414C153.762 90.2695 154.494 89.1562 155.197 88.1016C155.959 86.9883 156.721 85.875 157.482 84.7617C157.893 84.2344 158.332 83.6191 158.801 82.916C159.27 82.2129 159.768 81.5098 160.295 80.8066C160.881 80.1035 161.467 79.459 162.053 78.873C162.639 78.2871 163.225 77.8184 163.811 77.4668C164.689 77.4082 165.275 77.6133 165.568 78.082C165.861 78.4922 166.301 78.6973 166.887 78.6973C167.648 78.873 168.146 79.1074 168.381 79.4004C168.615 79.6934 168.879 79.9863 169.172 80.2793C169.992 80.2793 170.637 80.4258 171.105 80.7188C171.633 81.0117 172.131 81.4512 172.6 82.0371C172.424 82.6816 172.16 83.2676 171.809 83.7949C171.457 84.2637 171.135 84.7617 170.842 85.2891C170.373 85.5234 170.021 85.8457 169.787 86.2559C169.611 86.666 169.318 86.9883 168.908 87.2227C168.322 88.2188 167.707 89.1855 167.062 90.123C166.418 91.002 165.773 91.8809 165.129 92.7598C164.777 93.2871 164.396 93.7559 163.986 94.166C163.635 94.5762 163.312 95.0156 163.02 95.4844C162.902 95.6602 162.785 95.8652 162.668 96.0996C162.609 96.2754 162.521 96.4512 162.404 96.627C161.701 97.7402 160.939 98.7949 160.119 99.791C159.299 100.729 158.537 101.783 157.834 102.955C157.6 103.365 157.395 103.805 157.219 104.273C157.102 104.684 156.926 105.094 156.691 105.504C156.457 105.855 156.105 106.324 155.637 106.91C155.227 107.496 154.816 108.141 154.406 108.844C153.996 109.488 153.615 110.133 153.264 110.777C152.971 111.363 152.824 111.861 152.824 112.271C152.883 112.564 153.234 113.15 153.879 114.029C154.582 114.85 155.344 115.758 156.164 116.754C157.043 117.691 157.863 118.6 158.625 119.479C159.387 120.299 159.885 120.797 160.119 120.973ZM165.92 104.977C166.33 105.855 166.77 106.617 167.238 107.262C167.414 107.496 167.619 107.701 167.854 107.877C168.088 108.053 168.264 108.287 168.381 108.58C168.498 108.697 168.615 108.961 168.732 109.371C168.85 109.723 168.967 109.986 169.084 110.162C169.26 110.631 169.611 111.158 170.139 111.744C170.666 112.33 170.93 112.857 170.93 113.326C170.93 113.619 170.871 113.941 170.754 114.293C170.637 114.645 170.549 114.967 170.49 115.26C170.432 115.611 170.402 115.992 170.402 116.402C170.402 116.754 170.285 117.076 170.051 117.369C169.758 117.662 169.436 117.838 169.084 117.896C168.732 117.955 168.41 118.102 168.117 118.336C168 118.453 167.824 118.658 167.59 118.951C167.355 119.244 167.121 119.566 166.887 119.918C166.652 120.27 166.418 120.621 166.184 120.973C166.008 121.266 165.92 121.5 165.92 121.676C165.217 121.734 164.748 121.764 164.514 121.764C164.338 121.705 164.133 121.705 163.898 121.764C163.605 121.471 163.283 121.236 162.932 121.061C162.639 120.826 162.258 120.621 161.789 120.445C161.672 119.977 161.408 119.449 160.998 118.863C160.588 118.219 160.236 117.691 159.943 117.281L159.328 116.49C158.449 115.26 157.629 114.088 156.867 112.975C156.164 111.803 155.637 110.514 155.285 109.107C156.398 108.287 157.248 107.672 157.834 107.262C158.479 106.852 159.152 106.471 159.855 106.119C160.559 105.768 161.232 105.445 161.877 105.152C162.58 104.801 163.225 104.391 163.811 103.922C164.279 103.922 164.602 103.951 164.777 104.01C164.953 104.068 165.07 104.127 165.129 104.186C165.188 104.244 165.246 104.361 165.305 104.537C165.422 104.654 165.627 104.801 165.92 104.977ZM199.055 77.4668C199.348 78.5215 199.641 79.5762 199.934 80.6309C200.227 81.627 200.578 82.623 200.988 83.6191C201.867 83.7363 202.395 83.8242 202.57 83.8828C202.805 83.9414 203.068 84.0293 203.361 84.1465C204.006 85.6699 204.387 87.3105 204.504 89.0684C204.68 90.7676 204.914 92.4375 205.207 94.0781C206.32 95.543 207.111 97.125 207.58 98.8242C208.107 100.465 208.693 102.135 209.338 103.834C209.514 104.42 209.631 104.801 209.689 104.977C209.748 105.094 209.777 105.211 209.777 105.328C210.129 106.324 210.48 107.35 210.832 108.404C211.184 109.459 211.564 110.484 211.975 111.48C212.15 112.008 212.326 112.535 212.502 113.062C212.736 113.531 212.941 114 213.117 114.469C213.293 115.055 213.439 115.67 213.557 116.314C213.732 116.9 213.908 117.486 214.084 118.072C214.494 119.244 214.934 120.416 215.402 121.588C215.871 122.76 216.34 123.932 216.809 125.104C216.984 125.514 217.307 126.422 217.775 127.828C218.303 129.234 218.83 130.729 219.357 132.311C219.885 133.834 220.354 135.27 220.764 136.617C221.232 137.906 221.467 138.697 221.467 138.99C221.467 139.459 221.496 139.957 221.555 140.484C221.672 140.953 221.76 141.451 221.818 141.979C221.584 142.564 221.291 142.887 220.939 142.945C220.588 143.004 220.266 142.975 219.973 142.857C219.68 142.975 219.387 143.092 219.094 143.209C218.859 143.326 218.625 143.443 218.391 143.561C218.215 143.619 218.068 143.707 217.951 143.824C217.834 143.941 217.688 144 217.512 144C216.809 144 216.34 144.059 216.105 144.176C215.93 144.352 215.637 144.439 215.227 144.439C214.699 144.264 214.348 144.234 214.172 144.352C214.055 144.527 213.938 144.645 213.82 144.703C213.586 144.82 213.322 144.879 213.029 144.879C212.736 144.879 212.443 144.908 212.15 144.967C212.033 144.732 211.916 144.498 211.799 144.264C211.74 144.029 211.623 143.766 211.447 143.473C210.803 142.535 210.334 141.627 210.041 140.748C209.807 139.869 209.602 139.166 209.426 138.639C209.133 137.994 208.869 137.35 208.635 136.705C208.459 136.061 208.225 135.416 207.932 134.771C207.58 134.889 207.258 135.035 206.965 135.211C206.672 135.328 206.438 135.504 206.262 135.738C205.559 135.738 205.207 135.826 205.207 136.002C205.207 136.178 205.148 136.354 205.031 136.529C204.68 136.646 204.387 136.764 204.152 136.881C203.977 136.998 203.654 137.027 203.186 136.969C202.893 137.262 202.6 137.525 202.307 137.76C202.014 137.936 201.633 138.053 201.164 138.111C200.695 138.58 200.197 138.99 199.67 139.342C199.201 139.635 198.645 139.693 198 139.518C197.18 139.693 196.359 139.869 195.539 140.045C194.719 140.162 193.898 140.221 193.078 140.221C192.141 139.928 191.555 139.664 191.32 139.43C191.086 139.195 190.734 139.078 190.266 139.078C190.324 138.258 190.148 137.701 189.738 137.408C189.738 137.232 189.738 136.969 189.738 136.617C189.797 136.207 189.885 135.943 190.002 135.826C190.764 135.475 191.203 135.094 191.32 134.684C191.438 134.273 191.76 134.01 192.287 133.893C192.404 133.658 192.521 133.453 192.639 133.277C192.814 133.043 192.961 132.809 193.078 132.574C193.371 132.457 193.605 132.369 193.781 132.311C194.016 132.252 194.191 132.076 194.309 131.783C194.602 131.783 195.041 131.607 195.627 131.256C196.213 130.846 196.594 130.523 196.77 130.289C197.238 130.113 197.531 129.967 197.648 129.85C197.766 129.674 197.912 129.527 198.088 129.41C198.674 129.469 199.055 129.41 199.23 129.234C199.699 129.469 200.227 129.586 200.812 129.586C201.047 129.586 201.252 129.586 201.428 129.586C201.604 129.527 201.809 129.498 202.043 129.498C202.512 129.029 203.098 128.736 203.801 128.619C204.562 128.443 205.178 128.121 205.646 127.652C205.471 127.184 205.324 126.627 205.207 125.982C205.09 125.279 204.885 124.723 204.592 124.312C204.475 123.551 204.27 122.818 203.977 122.115C203.742 121.412 203.537 120.738 203.361 120.094C202.717 117.633 201.955 115.23 201.076 112.887C200.197 110.543 199.465 108.141 198.879 105.68C198.762 105.387 198.615 105.094 198.439 104.801C198.322 104.449 198.205 104.127 198.088 103.834C197.795 104.537 197.648 104.947 197.648 105.064C197.648 105.123 197.59 105.211 197.473 105.328C197.414 105.621 197.355 105.885 197.297 106.119C197.238 106.295 197.15 106.529 197.033 106.822C196.857 107.291 196.682 107.818 196.506 108.404C196.389 108.932 196.271 109.43 196.154 109.898C195.861 110.895 195.598 111.949 195.363 113.062C195.129 114.117 194.865 115.172 194.572 116.227C193.986 118.043 193.371 119.859 192.727 121.676C192.141 123.434 191.555 125.221 190.969 127.037C190.852 127.857 190.705 128.502 190.529 128.971C190.412 129.381 190.266 129.82 190.09 130.289C189.973 130.699 189.855 131.109 189.738 131.52C189.68 131.93 189.65 132.252 189.65 132.486C188.83 134.361 188.127 136.266 187.541 138.199C187.014 140.133 186.34 142.008 185.52 143.824C185.285 143.941 185.08 144.088 184.904 144.264C184.729 144.439 184.523 144.527 184.289 144.527C183.82 144.527 183.557 144.41 183.498 144.176C183.498 143.941 183.381 143.824 183.146 143.824C182.912 143.824 182.707 143.883 182.531 144C182.355 144.059 182.18 144.146 182.004 144.264C181.711 144.146 181.359 144.059 180.949 144C180.598 144 180.334 143.883 180.158 143.648C179.748 143.941 179.338 144.088 178.928 144.088C178.459 144.088 177.99 143.941 177.521 143.648C177.17 143.766 176.818 143.824 176.467 143.824C176.291 143.824 176.086 143.795 175.852 143.736C175.617 143.678 175.441 143.59 175.324 143.473C175.266 143.238 175.236 143.004 175.236 142.77C175.236 142.535 175.236 142.271 175.236 141.979C175.236 141.393 175.178 140.953 175.061 140.66C176.115 137.672 177.141 134.654 178.137 131.607C179.133 128.502 180.129 125.367 181.125 122.203C181.652 120.738 182.15 119.303 182.619 117.896C183.146 116.49 183.645 115.055 184.113 113.59C184.348 112.77 184.553 112.008 184.729 111.305C184.904 110.543 185.139 109.811 185.432 109.107C185.9 107.584 186.369 106.061 186.838 104.537C187.365 102.955 187.834 101.402 188.244 99.8789C188.479 99.7031 188.625 99.498 188.684 99.2637C188.742 99.0293 188.83 98.7656 188.947 98.4727L188.859 97.3301C189.27 96.7441 189.533 96.2461 189.65 95.8359C189.826 95.3672 189.943 94.8984 190.002 94.4297C190.295 93.7266 190.559 92.9648 190.793 92.1445C191.027 91.3242 191.203 90.5625 191.32 89.8594C191.438 88.9219 191.496 87.8672 191.496 86.6953C191.555 85.4648 191.73 84.4395 192.023 83.6191C192.141 83.3848 192.229 83.2383 192.287 83.1797C192.404 83.0625 192.463 82.8574 192.463 82.5645C192.58 82.4473 192.697 82.3301 192.814 82.2129C192.99 82.0371 193.107 81.8613 193.166 81.6855C193.459 81.2168 193.547 80.8066 193.43 80.4551C193.371 80.1035 193.342 79.7227 193.342 79.3125C193.869 79.0195 194.104 78.7559 194.045 78.5215C193.986 78.2871 193.957 78.0527 193.957 77.8184C193.957 77.5254 194.133 77.2617 194.484 77.0273C194.895 76.7344 195.158 76.4414 195.275 76.1484C195.627 76.207 195.979 76.2656 196.33 76.3242C196.682 76.3242 197.033 76.2949 197.385 76.2363C197.795 76.998 198.293 77.3789 198.879 77.3789L199.055 77.4668ZM262.6 81.1582C262.482 81.3926 262.424 81.627 262.424 81.8613C262.482 82.0957 262.512 82.3594 262.512 82.6523C262.395 83.3555 262.395 83.707 262.512 83.707C262.629 83.707 262.688 83.7656 262.688 83.8828L262.072 84.7617C262.072 85.1133 261.984 85.4355 261.809 85.7285C261.691 86.0215 261.662 86.373 261.721 86.7832C261.545 87.0762 261.369 87.3691 261.193 87.6621C261.076 87.9551 260.871 88.248 260.578 88.541H259.436C258.791 88.541 258.088 88.5996 257.326 88.7168C256.623 88.7754 255.92 88.8047 255.217 88.8047C255.1 88.8047 254.953 88.8047 254.777 88.8047C254.602 88.7461 254.426 88.7168 254.25 88.7168C254.133 88.7168 253.986 88.7461 253.811 88.8047C253.635 88.8047 253.43 88.8047 253.195 88.8047C252.316 88.8047 251.438 88.7754 250.559 88.7168C249.738 88.5996 248.859 88.541 247.922 88.541C247.688 88.541 247.453 88.541 247.219 88.541C246.984 88.541 246.721 88.5703 246.428 88.6289C246.369 89.625 246.311 90.6504 246.252 91.7051C246.252 92.7012 246.252 93.7266 246.252 94.7812C246.252 95.0742 246.223 95.3965 246.164 95.748C246.105 96.041 246.076 96.334 246.076 96.627C246.018 97.3887 245.959 98.1211 245.9 98.8242C245.9 99.5273 245.9 100.26 245.9 101.021C245.9 102.662 245.9 104.303 245.9 105.943C245.959 107.584 246.018 109.254 246.076 110.953C246.135 111.832 246.193 112.682 246.252 113.502C246.311 114.322 246.34 115.172 246.34 116.051C246.34 118.043 246.311 120.035 246.252 122.027C246.193 123.961 246.164 125.924 246.164 127.916C246.164 128.561 246.135 129.176 246.076 129.762C246.018 130.289 245.988 130.875 245.988 131.52C245.988 132.867 246.018 134.215 246.076 135.562C246.135 136.91 246.164 138.258 246.164 139.605C246.164 140.25 246.135 140.895 246.076 141.539C246.076 142.184 246.076 142.828 246.076 143.473C245.783 143.941 245.578 144.352 245.461 144.703C245.344 145.055 244.992 145.23 244.406 145.23C243.996 145.113 243.791 144.967 243.791 144.791C243.85 144.674 243.82 144.557 243.703 144.439C243.176 144.381 242.766 144.41 242.473 144.527C242.238 144.703 241.945 144.85 241.594 144.967C241.418 144.908 241.213 144.879 240.979 144.879C240.803 144.879 240.627 144.879 240.451 144.879C240.334 144.879 240.217 144.908 240.1 144.967C239.982 145.084 239.719 145.143 239.309 145.143C238.957 145.201 238.752 145.143 238.693 144.967C238.635 144.791 238.459 144.703 238.166 144.703C237.873 144.879 237.521 144.996 237.111 145.055C236.76 145.172 236.408 145.23 236.057 145.23C235.705 144.996 235.529 144.762 235.529 144.527C235.588 144.352 235.559 144.146 235.441 143.912C235.383 143.795 235.266 143.648 235.09 143.473C234.973 143.238 234.855 143.062 234.738 142.945C234.855 142.125 234.943 141.393 235.002 140.748C235.061 140.104 235.09 139.4 235.09 138.639C235.09 137.115 235.031 135.621 234.914 134.156C234.797 132.691 234.738 131.197 234.738 129.674C234.738 129.205 234.797 128.707 234.914 128.18C235.031 127.652 235.09 127.096 235.09 126.51C234.973 126.041 234.943 125.777 235.002 125.719C235.061 125.602 235.09 125.484 235.09 125.367C235.09 125.016 235.061 124.664 235.002 124.312C235.002 123.961 235.002 123.609 235.002 123.258C235.002 122.555 235.002 121.852 235.002 121.148C235.061 120.445 235.09 119.742 235.09 119.039C235.09 118.746 235.061 118.453 235.002 118.16C235.002 117.809 235.002 117.486 235.002 117.193C234.943 116.666 234.914 116.109 234.914 115.523C234.973 114.938 235.002 114.352 235.002 113.766C235.002 110.953 234.943 108.17 234.826 105.416C234.768 102.662 234.738 99.8789 234.738 97.0664C234.738 95.6602 234.797 94.2832 234.914 92.9355C235.09 91.5293 235.178 90.123 235.178 88.7168C235.178 88.541 235.119 88.3066 235.002 88.0137C234.885 87.7207 234.768 87.5156 234.65 87.3984C234.357 87.3984 234.064 87.3984 233.771 87.3984C233.537 87.3398 233.273 87.3105 232.98 87.3105C232.336 87.3105 231.721 87.3984 231.135 87.5742C230.021 87.6328 228.938 87.7207 227.883 87.8379C226.887 87.8965 225.861 87.9551 224.807 88.0137C224.104 87.9551 223.664 87.9551 223.488 88.0137C223.371 88.0137 223.225 88.0137 223.049 88.0137C222.58 88.0137 222.229 87.8965 221.994 87.6621V86.5195C221.643 85.8164 221.496 85.4355 221.555 85.377C221.613 85.3184 221.643 85.2305 221.643 85.1133C221.643 84.9375 221.496 84.7617 221.203 84.5859C220.852 84.3516 220.676 84 220.676 83.5312C220.617 83.0625 220.5 82.7109 220.324 82.4766C220.148 82.2422 220.061 82.0078 220.061 81.7734C220.061 81.3633 220.148 80.8945 220.324 80.3672C220.852 80.0742 221.35 79.8691 221.818 79.752C222.346 79.6348 222.932 79.4883 223.576 79.3125C223.928 79.1953 224.25 79.0781 224.543 78.9609C224.836 78.8438 225.158 78.7559 225.51 78.6973C225.92 78.6387 226.33 78.6094 226.74 78.6094C227.15 78.6094 227.561 78.5801 227.971 78.5215C228.85 78.3457 229.758 78.1992 230.695 78.082C231.691 77.9648 232.629 77.9062 233.508 77.9062C234.328 77.9062 235.148 78.0234 235.969 78.2578C236.789 78.4336 237.521 78.5215 238.166 78.5215C239.104 78.5215 239.982 78.5801 240.803 78.6973C241.682 78.8145 242.59 78.873 243.527 78.873C243.645 78.873 243.82 78.9316 244.055 79.0488C244.348 79.1074 244.67 79.1367 245.021 79.1367H253.547C254.016 79.2539 254.338 79.2832 254.514 79.2246C254.748 79.166 254.953 79.1367 255.129 79.1367C255.598 79.1367 256.037 79.166 256.447 79.2246C256.857 79.2832 257.297 79.3125 257.766 79.3125C258.176 79.3125 258.498 79.2832 258.732 79.2246C259.201 79.2832 259.641 79.4297 260.051 79.6641C260.461 79.8398 260.93 79.9277 261.457 79.9277C261.691 80.1035 261.867 80.3379 261.984 80.6309C262.102 80.8652 262.307 81.041 262.6 81.1582ZM304.699 78.9609C305.402 78.7852 305.9 78.7266 306.193 78.7852C306.486 78.7852 306.779 78.8145 307.072 78.873C307.424 79.1074 307.717 79.4004 307.951 79.752C307.951 80.9824 307.922 82.2129 307.863 83.4434C307.863 84.6152 307.863 85.8164 307.863 87.0469C307.863 89.2734 307.893 91.5 307.951 93.7266C308.01 95.9531 308.01 98.1797 307.951 100.406C308.068 100.934 308.098 101.227 308.039 101.285C307.98 101.344 307.951 101.432 307.951 101.549C307.951 103.775 308.01 105.973 308.127 108.141C308.244 110.309 308.303 112.506 308.303 114.732V126.422C308.303 128.941 308.361 131.432 308.479 133.893C308.654 136.354 308.742 138.814 308.742 141.275C308.742 141.51 308.596 141.832 308.303 142.242C308.186 142.711 308.01 143.092 307.775 143.385C307.248 143.443 306.75 143.355 306.281 143.121C306.047 143.121 305.871 143.209 305.754 143.385C305.695 143.502 305.578 143.619 305.402 143.736C304.934 143.736 304.553 143.854 304.26 144.088C303.967 144.322 303.615 144.439 303.205 144.439C302.854 144.439 302.502 144.381 302.15 144.264C301.857 144.205 301.506 144.176 301.096 144.176C300.979 144.176 300.803 144.264 300.568 144.439C300.334 144.674 300.158 144.82 300.041 144.879C299.748 144.879 299.484 144.908 299.25 144.967C299.016 145.084 298.752 145.143 298.459 145.143C298.166 144.908 298.02 144.557 298.02 144.088C298.078 143.619 297.902 143.326 297.492 143.209C297.492 142.916 297.492 142.594 297.492 142.242C297.551 141.891 297.58 141.539 297.58 141.188C297.58 138.902 297.521 136.617 297.404 134.332C297.287 131.988 297.199 129.674 297.141 127.389C297.082 126.393 297.053 125.426 297.053 124.488C297.111 123.492 297.141 122.496 297.141 121.5C297.141 120.973 297.141 120.445 297.141 119.918C297.141 119.391 297.082 118.893 296.965 118.424C296.613 118.365 296.291 118.424 295.998 118.6C295.764 118.717 295.5 118.775 295.207 118.775C293.977 119.186 293.156 119.596 292.746 120.006C292.395 120.006 292.102 120.064 291.867 120.182C291.633 120.299 291.369 120.416 291.076 120.533C290.607 120.65 290.139 120.768 289.67 120.885C289.26 120.943 288.82 121.061 288.352 121.236C288.059 121.354 287.766 121.471 287.473 121.588C287.18 121.705 286.887 121.822 286.594 121.939C285.949 122.174 285.305 122.408 284.66 122.643C284.016 122.818 283.371 123.023 282.727 123.258C282.082 123.375 281.525 123.551 281.057 123.785C280.588 124.02 280.119 124.254 279.65 124.488C279.24 127.242 279.006 129.879 278.947 132.398C278.947 134.859 279.035 137.32 279.211 139.781C279.094 140.133 279.035 140.543 279.035 141.012C279.035 141.422 278.947 141.773 278.771 142.066C278.127 142.242 277.688 142.271 277.453 142.154C277.277 141.979 277.072 141.832 276.838 141.715C276.604 141.773 276.398 141.891 276.223 142.066C276.105 142.242 275.988 142.389 275.871 142.506C275.402 142.506 275.021 142.623 274.729 142.857C274.494 143.033 274.26 143.18 274.025 143.297C273.85 143.355 273.674 143.355 273.498 143.297C273.322 143.238 273.117 143.268 272.883 143.385C272.297 143.385 272.004 143.326 272.004 143.209C272.062 143.033 272.004 142.945 271.828 142.945C271.594 142.945 271.418 143.062 271.301 143.297C271.242 143.473 271.096 143.619 270.861 143.736C270.627 143.854 270.363 143.941 270.07 144C269.777 144 269.484 144.059 269.191 144.176C268.898 143.883 268.752 143.561 268.752 143.209C268.752 142.857 268.605 142.535 268.312 142.242C268.195 141.422 268.107 140.631 268.049 139.869C268.049 139.049 267.961 138.229 267.785 137.408C267.902 135.768 267.932 134.449 267.873 133.453C267.873 132.457 267.873 131.432 267.873 130.377C267.873 129.439 267.844 128.502 267.785 127.564C267.727 126.627 267.668 125.689 267.609 124.752C267.492 123.053 267.375 121.324 267.258 119.566C267.199 117.809 267.17 116.051 267.17 114.293C267.17 112.828 267.229 111.393 267.346 109.986C267.521 108.58 267.609 107.145 267.609 105.68C267.609 104.684 267.609 103.717 267.609 102.779C267.668 101.783 267.697 100.787 267.697 99.791C267.697 98.9707 267.668 98.1797 267.609 97.418C267.609 96.5977 267.609 95.8066 267.609 95.0449C267.609 94.166 267.668 93.3164 267.785 92.4961C267.902 91.6172 267.961 90.7676 267.961 89.9473C267.961 88.9512 267.902 87.9844 267.785 87.0469C267.668 86.0508 267.609 85.0547 267.609 84.0586C267.609 83.7656 267.639 83.502 267.697 83.2676C267.756 82.9746 267.785 82.6816 267.785 82.3887C267.727 81.7441 267.756 81.3633 267.873 81.2461C267.99 81.0703 268.107 80.8652 268.225 80.6309C268.518 80.5723 268.84 80.4844 269.191 80.3672C269.543 80.25 269.865 80.25 270.158 80.3672C270.51 80.0156 270.979 79.8398 271.564 79.8398C272.209 79.8398 272.678 79.6348 272.971 79.2246C273.381 79.2832 273.645 79.3125 273.762 79.3125C273.938 79.2539 274.084 79.2246 274.201 79.2246C274.729 79.3418 274.992 79.3418 274.992 79.2246C275.051 79.0488 275.168 78.9609 275.344 78.9609C275.637 78.9609 276.076 78.9902 276.662 79.0488C277.307 79.0488 277.746 79.166 277.98 79.4004C278.566 82.5059 278.889 85.6699 278.947 88.8926C279.006 92.1152 279.035 95.3086 279.035 98.4727C279.035 99.293 279.064 100.143 279.123 101.021C279.182 101.842 279.152 102.662 279.035 103.482C279.035 103.834 279.006 104.186 278.947 104.537C278.889 104.83 278.859 105.152 278.859 105.504C278.859 106.5 278.801 107.555 278.684 108.668C278.566 109.723 278.508 110.748 278.508 111.744C279.211 112.154 279.797 112.301 280.266 112.184C280.793 112.008 281.291 111.832 281.76 111.656C282.346 111.48 282.873 111.305 283.342 111.129C283.869 110.895 284.396 110.689 284.924 110.514C285.393 110.279 285.891 110.104 286.418 109.986C287.004 109.811 287.531 109.664 288 109.547C289.523 109.02 291.018 108.375 292.482 107.613C293.947 106.852 295.441 106.236 296.965 105.768C296.848 102.545 296.789 99.3516 296.789 96.1875C296.789 92.9648 296.789 89.7715 296.789 86.6074C296.789 85.7285 296.789 84.8203 296.789 83.8828C296.789 82.9453 296.848 82.0371 296.965 81.1582C297.023 80.9238 297.082 80.748 297.141 80.6309C297.258 80.4551 297.316 80.2207 297.316 79.9277C297.492 79.6348 297.697 79.4297 297.932 79.3125C298.166 79.1953 298.342 79.0195 298.459 78.7852C298.576 78.9023 298.693 79.0195 298.811 79.1367C298.986 79.1953 299.162 79.2539 299.338 79.3125C299.807 79.1953 300.07 79.1074 300.129 79.0488C300.246 78.9902 300.363 78.9316 300.48 78.873C300.773 78.7559 301.154 78.6973 301.623 78.6973C302.092 78.6973 302.473 78.6973 302.766 78.6973H303.82L304.699 78.9609ZM386.789 81.1582C386.672 81.3926 386.613 81.627 386.613 81.8613C386.672 82.0957 386.701 82.3594 386.701 82.6523C386.584 83.3555 386.584 83.707 386.701 83.707C386.818 83.707 386.877 83.7656 386.877 83.8828L386.262 84.7617C386.262 85.1133 386.174 85.4355 385.998 85.7285C385.881 86.0215 385.852 86.373 385.91 86.7832C385.734 87.0762 385.559 87.3691 385.383 87.6621C385.266 87.9551 385.061 88.248 384.768 88.541H383.625C382.98 88.541 382.277 88.5996 381.516 88.7168C380.812 88.7754 380.109 88.8047 379.406 88.8047C379.289 88.8047 379.143 88.8047 378.967 88.8047C378.791 88.7461 378.615 88.7168 378.439 88.7168C378.322 88.7168 378.176 88.7461 378 88.8047C377.824 88.8047 377.619 88.8047 377.385 88.8047C376.506 88.8047 375.627 88.7754 374.748 88.7168C373.928 88.5996 373.049 88.541 372.111 88.541C371.877 88.541 371.643 88.541 371.408 88.541C371.174 88.541 370.91 88.5703 370.617 88.6289C370.559 89.625 370.5 90.6504 370.441 91.7051C370.441 92.7012 370.441 93.7266 370.441 94.7812C370.441 95.0742 370.412 95.3965 370.354 95.748C370.295 96.041 370.266 96.334 370.266 96.627C370.207 97.3887 370.148 98.1211 370.09 98.8242C370.09 99.5273 370.09 100.26 370.09 101.021C370.09 102.662 370.09 104.303 370.09 105.943C370.148 107.584 370.207 109.254 370.266 110.953C370.324 111.832 370.383 112.682 370.441 113.502C370.5 114.322 370.529 115.172 370.529 116.051C370.529 118.043 370.5 120.035 370.441 122.027C370.383 123.961 370.354 125.924 370.354 127.916C370.354 128.561 370.324 129.176 370.266 129.762C370.207 130.289 370.178 130.875 370.178 131.52C370.178 132.867 370.207 134.215 370.266 135.562C370.324 136.91 370.354 138.258 370.354 139.605C370.354 140.25 370.324 140.895 370.266 141.539C370.266 142.184 370.266 142.828 370.266 143.473C369.973 143.941 369.768 144.352 369.65 144.703C369.533 145.055 369.182 145.23 368.596 145.23C368.186 145.113 367.98 144.967 367.98 144.791C368.039 144.674 368.01 144.557 367.893 144.439C367.365 144.381 366.955 144.41 366.662 144.527C366.428 144.703 366.135 144.85 365.783 144.967C365.607 144.908 365.402 144.879 365.168 144.879C364.992 144.879 364.816 144.879 364.641 144.879C364.523 144.879 364.406 144.908 364.289 144.967C364.172 145.084 363.908 145.143 363.498 145.143C363.146 145.201 362.941 145.143 362.883 144.967C362.824 144.791 362.648 144.703 362.355 144.703C362.062 144.879 361.711 144.996 361.301 145.055C360.949 145.172 360.598 145.23 360.246 145.23C359.895 144.996 359.719 144.762 359.719 144.527C359.777 144.352 359.748 144.146 359.631 143.912C359.572 143.795 359.455 143.648 359.279 143.473C359.162 143.238 359.045 143.062 358.928 142.945C359.045 142.125 359.133 141.393 359.191 140.748C359.25 140.104 359.279 139.4 359.279 138.639C359.279 137.115 359.221 135.621 359.104 134.156C358.986 132.691 358.928 131.197 358.928 129.674C358.928 129.205 358.986 128.707 359.104 128.18C359.221 127.652 359.279 127.096 359.279 126.51C359.162 126.041 359.133 125.777 359.191 125.719C359.25 125.602 359.279 125.484 359.279 125.367C359.279 125.016 359.25 124.664 359.191 124.312C359.191 123.961 359.191 123.609 359.191 123.258C359.191 122.555 359.191 121.852 359.191 121.148C359.25 120.445 359.279 119.742 359.279 119.039C359.279 118.746 359.25 118.453 359.191 118.16C359.191 117.809 359.191 117.486 359.191 117.193C359.133 116.666 359.104 116.109 359.104 115.523C359.162 114.938 359.191 114.352 359.191 113.766C359.191 110.953 359.133 108.17 359.016 105.416C358.957 102.662 358.928 99.8789 358.928 97.0664C358.928 95.6602 358.986 94.2832 359.104 92.9355C359.279 91.5293 359.367 90.123 359.367 88.7168C359.367 88.541 359.309 88.3066 359.191 88.0137C359.074 87.7207 358.957 87.5156 358.84 87.3984C358.547 87.3984 358.254 87.3984 357.961 87.3984C357.727 87.3398 357.463 87.3105 357.17 87.3105C356.525 87.3105 355.91 87.3984 355.324 87.5742C354.211 87.6328 353.127 87.7207 352.072 87.8379C351.076 87.8965 350.051 87.9551 348.996 88.0137C348.293 87.9551 347.854 87.9551 347.678 88.0137C347.561 88.0137 347.414 88.0137 347.238 88.0137C346.77 88.0137 346.418 87.8965 346.184 87.6621V86.5195C345.832 85.8164 345.686 85.4355 345.744 85.377C345.803 85.3184 345.832 85.2305 345.832 85.1133C345.832 84.9375 345.686 84.7617 345.393 84.5859C345.041 84.3516 344.865 84 344.865 83.5312C344.807 83.0625 344.689 82.7109 344.514 82.4766C344.338 82.2422 344.25 82.0078 344.25 81.7734C344.25 81.3633 344.338 80.8945 344.514 80.3672C345.041 80.0742 345.539 79.8691 346.008 79.752C346.535 79.6348 347.121 79.4883 347.766 79.3125C348.117 79.1953 348.439 79.0781 348.732 78.9609C349.025 78.8438 349.348 78.7559 349.699 78.6973C350.109 78.6387 350.52 78.6094 350.93 78.6094C351.34 78.6094 351.75 78.5801 352.16 78.5215C353.039 78.3457 353.947 78.1992 354.885 78.082C355.881 77.9648 356.818 77.9062 357.697 77.9062C358.518 77.9062 359.338 78.0234 360.158 78.2578C360.979 78.4336 361.711 78.5215 362.355 78.5215C363.293 78.5215 364.172 78.5801 364.992 78.6973C365.871 78.8145 366.779 78.873 367.717 78.873C367.834 78.873 368.01 78.9316 368.244 79.0488C368.537 79.1074 368.859 79.1367 369.211 79.1367H377.736C378.205 79.2539 378.527 79.2832 378.703 79.2246C378.938 79.166 379.143 79.1367 379.318 79.1367C379.787 79.1367 380.227 79.166 380.637 79.2246C381.047 79.2832 381.486 79.3125 381.955 79.3125C382.365 79.3125 382.688 79.2832 382.922 79.2246C383.391 79.2832 383.83 79.4297 384.24 79.6641C384.65 79.8398 385.119 79.9277 385.646 79.9277C385.881 80.1035 386.057 80.3379 386.174 80.6309C386.291 80.8652 386.496 81.041 386.789 81.1582ZM433.635 109.107C433.518 109.342 433.4 109.576 433.283 109.811C433.166 109.986 433.078 110.191 433.02 110.426C433.254 110.66 433.459 110.924 433.635 111.217C433.869 111.451 433.986 111.715 433.986 112.008C433.986 112.242 433.928 112.477 433.811 112.711C433.752 112.887 433.752 113.062 433.811 113.238C433.576 113.648 433.312 114.029 433.02 114.381C432.785 114.732 432.609 115.113 432.492 115.523C432.258 115.758 432.053 115.992 431.877 116.227C431.76 116.461 431.643 116.695 431.525 116.93C431.232 117.047 431.027 117.252 430.91 117.545C430.852 117.779 430.705 117.984 430.471 118.16C430.412 118.395 430.119 118.951 429.592 119.83C429.064 120.709 428.479 121.646 427.834 122.643C427.189 123.639 426.574 124.605 425.988 125.543C425.402 126.48 424.992 127.096 424.758 127.389C424.641 127.682 424.494 127.916 424.318 128.092C424.201 128.268 424.055 128.473 423.879 128.707C423.762 128.883 423.674 129.088 423.615 129.322C423.557 129.498 423.469 129.645 423.352 129.762C423.234 129.996 423.088 130.201 422.912 130.377C422.795 130.553 422.678 130.787 422.561 131.08C421.975 131.842 421.389 132.75 420.803 133.805C420.217 134.859 419.66 135.797 419.133 136.617C418.84 137.086 418.547 137.555 418.254 138.023C418.02 138.492 417.756 138.961 417.463 139.43C417.17 139.898 416.877 140.338 416.584 140.748C416.291 141.158 415.998 141.598 415.705 142.066C415.236 142.418 414.826 142.857 414.475 143.385C414.123 143.854 413.713 144.264 413.244 144.615C412.482 144.615 412.014 144.264 411.838 143.561C411.076 143.385 410.695 143.385 410.695 143.561C410.695 143.736 410.695 143.883 410.695 144C410.461 144.117 410.285 144.293 410.168 144.527C410.109 144.762 409.963 144.938 409.729 145.055C409.26 144.938 408.85 144.732 408.498 144.439C408.205 144.205 407.766 144.117 407.18 144.176C406.945 143.824 406.682 143.531 406.389 143.297C406.096 143.004 405.832 142.711 405.598 142.418C405.48 142.066 405.305 141.773 405.07 141.539C404.895 141.305 404.719 141.07 404.543 140.836C404.367 140.543 404.191 140.279 404.016 140.045C403.84 139.811 403.664 139.576 403.488 139.342C403.078 138.814 402.668 138.316 402.258 137.848C401.906 137.32 401.584 136.793 401.291 136.266C400.822 135.562 400.354 134.859 399.885 134.156C399.475 133.395 399.035 132.662 398.566 131.959C398.332 131.607 398.098 131.256 397.863 130.904C397.629 130.553 397.424 130.201 397.248 129.85C397.131 129.557 396.955 129.205 396.721 128.795C396.545 128.385 396.311 128.121 396.018 128.004C395.9 127.535 395.695 127.184 395.402 126.949C395.109 126.715 394.816 126.422 394.523 126.07C394.113 125.602 393.732 125.104 393.381 124.576C393.029 123.99 392.678 123.404 392.326 122.818C391.154 121.178 390.041 119.566 388.986 117.984C387.99 116.402 386.994 114.762 385.998 113.062C386.291 112.125 386.438 111.422 386.438 110.953C386.438 110.484 386.584 110.104 386.877 109.811C386.877 109.576 386.936 109.225 387.053 108.756C387.814 107.467 388.547 106.295 389.25 105.24C389.895 104.244 390.334 103.424 390.568 102.779C390.861 102.135 391.154 101.461 391.447 100.758C391.74 100.582 391.975 100.377 392.15 100.143C392.326 99.8496 392.561 99.5859 392.854 99.3516C392.971 98.707 393.234 98.1797 393.645 97.7695C394.055 97.3008 394.318 96.7441 394.436 96.0996C394.963 95.6895 395.256 95.2207 395.314 94.6934C396.076 94.166 396.545 93.4629 396.721 92.584C397.189 92.1152 397.57 91.5879 397.863 91.002C398.215 90.416 398.537 89.8008 398.83 89.1562C399.533 88.5703 400.09 87.8086 400.5 86.8711C400.852 86.6367 401.115 86.3145 401.291 85.9043C401.467 85.4941 401.701 85.1426 401.994 84.8496C402.463 84.0879 402.814 83.4727 403.049 83.0039C403.342 82.4766 403.635 81.9492 403.928 81.4219C404.338 81.4219 404.602 81.2754 404.719 80.9824C404.836 80.6895 405.07 80.5723 405.422 80.6309C405.422 80.1035 405.568 79.6348 405.861 79.2246C405.979 79.166 406.154 79.1074 406.389 79.0488C406.623 78.9316 406.74 78.8145 406.74 78.6973C406.623 77.9941 406.652 77.584 406.828 77.4668C407.004 77.3496 407.15 77.2324 407.268 77.1152C407.912 77.2324 408.352 77.3203 408.586 77.3789C408.82 77.4375 409.201 77.6426 409.729 77.9941C410.314 77.9941 410.725 78.1113 410.959 78.3457C411.193 78.5801 411.457 78.7559 411.75 78.873C411.984 79.1074 412.16 79.3418 412.277 79.5762C412.453 79.8105 412.688 79.9863 412.98 80.1035C413.449 80.748 413.947 81.4512 414.475 82.2129C415.002 82.9746 415.5 83.6777 415.969 84.3223C416.613 85.2012 417.258 86.0508 417.902 86.8711C418.605 87.6328 419.25 88.4824 419.836 89.4199C420.012 89.7129 420.334 90.2402 420.803 91.002C421.271 91.7051 421.799 92.4668 422.385 93.2871C422.971 94.1074 423.498 94.8691 423.967 95.5723C424.436 96.2168 424.758 96.5977 424.934 96.7148C425.109 97.0078 425.49 97.5645 426.076 98.3848C426.662 99.2051 427.277 100.084 427.922 101.021C428.625 101.9 429.299 102.75 429.943 103.57C430.588 104.391 431.027 104.918 431.262 105.152C431.906 106.031 432.375 106.764 432.668 107.35C433.02 107.877 433.342 108.463 433.635 109.107ZM413.508 125.631C414.152 124.752 414.65 123.961 415.002 123.258C415.354 122.555 415.705 121.852 416.057 121.148C416.643 120.445 416.994 119.947 417.111 119.654C417.229 119.361 417.375 119.068 417.551 118.775C418.02 118.072 418.488 117.369 418.957 116.666C419.484 115.963 419.895 115.201 420.188 114.381C420.539 114.146 420.803 113.854 420.979 113.502C421.154 113.15 421.418 112.828 421.77 112.535C421.418 111.305 421.008 110.367 420.539 109.723C420.07 109.02 419.602 108.346 419.133 107.701C418.957 107.408 418.781 107.115 418.605 106.822C418.43 106.529 418.254 106.236 418.078 105.943C417.844 105.768 417.639 105.592 417.463 105.416C417.346 105.24 417.199 105.064 417.023 104.889C416.906 104.596 416.73 104.215 416.496 103.746C416.262 103.453 416.027 103.189 415.793 102.955C415.559 102.721 415.354 102.428 415.178 102.076C414.943 101.842 414.65 101.52 414.299 101.109C413.947 100.699 413.566 100.26 413.156 99.791C412.805 99.2637 412.482 98.7949 412.189 98.3848C411.896 97.916 411.662 97.5352 411.486 97.2422C411.369 96.9492 411.252 96.7148 411.135 96.5391C411.076 96.3047 410.988 96.0703 410.871 95.8359C410.578 95.4258 410.285 95.0742 409.992 94.7812C409.699 94.4297 409.406 94.0488 409.113 93.6387C408.938 93.7559 408.762 93.8438 408.586 93.9023C408.469 93.9023 408.352 93.9609 408.234 94.0781C407.824 94.8398 407.355 95.543 406.828 96.1875C406.359 96.832 405.891 97.5352 405.422 98.2969C405.012 99 404.602 99.7324 404.191 100.494C403.781 101.197 403.371 101.9 402.961 102.604C402.668 103.014 402.375 103.424 402.082 103.834C401.848 104.186 401.584 104.596 401.291 105.064C400.998 105.475 400.734 105.914 400.5 106.383C400.324 106.793 400.09 107.203 399.797 107.613C399.328 108.199 398.947 108.727 398.654 109.195C398.361 109.664 398.068 110.221 397.775 110.865C397.951 111.217 398.215 111.715 398.566 112.359C398.977 112.945 399.387 113.561 399.797 114.205C400.207 114.791 400.559 115.348 400.852 115.875C401.203 116.402 401.408 116.754 401.467 116.93C401.936 117.34 402.316 117.809 402.609 118.336C402.902 118.805 403.283 119.273 403.752 119.742C403.986 120.211 404.25 120.621 404.543 120.973C404.836 121.324 405.129 121.705 405.422 122.115C405.715 122.525 406.096 123.141 406.564 123.961C407.033 124.723 407.502 125.514 407.971 126.334C408.439 127.154 408.908 127.916 409.377 128.619C409.846 129.322 410.227 129.762 410.52 129.938C411.105 129.293 411.574 128.59 411.926 127.828C412.336 127.008 412.863 126.275 413.508 125.631ZM111.955 235.055C111.721 234.82 111.604 234.498 111.604 234.088C111.604 233.795 111.604 233.561 111.604 233.385C111.662 233.15 111.721 232.887 111.779 232.594C112.072 231.246 112.219 229.898 112.219 228.551C112.219 227.145 112.277 225.768 112.395 224.42C112.453 223.6 112.482 222.779 112.482 221.959C112.541 221.139 112.57 220.318 112.57 219.498C112.57 214.635 112.424 209.801 112.131 204.996C111.838 200.133 111.691 195.24 111.691 190.318C111.691 186.92 111.75 183.521 111.867 180.123C111.984 176.666 112.072 173.209 112.131 169.752C112.658 169.459 113.303 169.342 114.064 169.4C114.826 169.459 115.441 169.195 115.91 168.609C116.203 168.551 116.496 168.551 116.789 168.609C117.082 168.609 117.375 168.609 117.668 168.609C118.312 168.609 118.928 168.404 119.514 167.994C120.1 167.584 120.744 167.232 121.447 166.939C121.799 167.057 122.033 167.115 122.15 167.115C122.326 167.057 122.502 167.027 122.678 167.027C122.854 167.027 123.234 167.232 123.82 167.643C124.406 168.053 125.051 168.521 125.754 169.049C126.457 169.576 127.102 170.074 127.688 170.543C128.332 171.012 128.742 171.305 128.918 171.422C130.383 172.535 131.672 173.766 132.785 175.113C133.957 176.402 135.1 177.721 136.213 179.068C137.268 180.416 138.41 181.793 139.641 183.199C140.871 184.547 142.072 185.807 143.244 186.979C143.654 187.447 144.064 187.857 144.475 188.209C144.943 188.561 145.383 188.971 145.793 189.439C145.969 189.674 146.115 189.938 146.232 190.23C146.408 190.465 146.584 190.729 146.76 191.021C147.111 191.432 147.521 191.783 147.99 192.076C148.459 192.369 148.898 192.721 149.309 193.131C149.602 193.365 150.041 193.834 150.627 194.537C151.213 195.24 151.506 195.768 151.506 196.119C151.506 196.354 151.447 196.559 151.33 196.734C151.213 196.91 151.096 197.115 150.979 197.35C150.92 197.525 150.891 197.789 150.891 198.141C150.891 198.492 150.861 198.727 150.803 198.844C150.217 199.312 149.895 199.605 149.836 199.723C149.777 199.84 149.689 199.957 149.572 200.074C149.396 200.309 149.162 200.514 148.869 200.689C148.635 200.807 148.459 201.012 148.342 201.305C148.225 201.48 148.166 201.656 148.166 201.832C148.225 202.008 148.195 202.213 148.078 202.447C147.785 203.092 147.316 203.707 146.672 204.293C146.027 204.879 145.471 205.523 145.002 206.227C144.357 207.281 143.713 208.336 143.068 209.391C142.424 210.445 141.691 211.471 140.871 212.467C140.52 212.936 140.139 213.404 139.729 213.873C139.377 214.283 139.025 214.723 138.674 215.191C138.381 215.543 138.117 215.924 137.883 216.334C137.648 216.686 137.385 217.096 137.092 217.564C136.447 218.385 135.832 219.205 135.246 220.025C134.66 220.787 134.045 221.578 133.4 222.398C132.697 223.395 131.936 224.391 131.115 225.387C130.295 226.324 129.562 227.291 128.918 228.287C128.273 229.342 127.6 230.309 126.896 231.188C126.193 232.066 125.432 232.916 124.611 233.736C124.377 233.912 124.084 234.176 123.732 234.527C123.381 234.879 123.029 235.055 122.678 235.055C122.443 235.055 122.238 234.967 122.062 234.791C121.945 234.615 121.74 234.527 121.447 234.527C121.389 234.527 121.213 234.557 120.92 234.615C120.627 234.674 120.275 234.732 119.865 234.791L118.283 234.967C117.346 235.436 116.672 235.641 116.262 235.582C115.852 235.582 115.441 235.611 115.031 235.67C114.797 235.729 114.592 235.816 114.416 235.934C114.299 236.051 114.152 236.109 113.977 236.109C113.566 236.109 113.244 235.904 113.01 235.494C112.775 235.143 112.424 234.996 111.955 235.055ZM138.322 197.086C138.322 196.793 138.029 196.383 137.443 195.855C136.916 195.328 136.506 194.947 136.213 194.713C135.803 194.361 135.305 194.039 134.719 193.746C134.191 193.395 133.752 193.014 133.4 192.604C133.107 192.252 132.814 191.9 132.521 191.549C132.287 191.139 132.023 190.758 131.73 190.406C130.676 189.234 129.592 188.062 128.479 186.891C127.424 185.719 126.486 184.43 125.666 183.023C125.139 182.672 124.641 182.262 124.172 181.793C123.703 181.324 123.146 180.943 122.502 180.65C122.385 181.002 122.326 181.383 122.326 181.793C122.385 182.145 122.414 182.496 122.414 182.848C122.414 184.195 122.355 185.514 122.238 186.803C122.121 188.092 122.062 189.381 122.062 190.67C122.062 193.834 122.121 196.969 122.238 200.074C122.414 203.121 122.502 206.197 122.502 209.303C122.502 210.475 122.502 211.646 122.502 212.818C122.561 213.99 122.678 215.162 122.854 216.334C122.736 216.686 122.678 217.008 122.678 217.301C122.678 217.594 122.736 217.975 122.854 218.443C123.322 218.15 123.703 217.799 123.996 217.389C124.348 216.92 124.67 216.48 124.963 216.07C125.959 214.781 126.926 213.492 127.863 212.203C128.859 210.855 129.855 209.508 130.852 208.16C131.496 207.281 132.141 206.432 132.785 205.611C133.488 204.732 134.162 203.824 134.807 202.887C134.982 202.652 135.246 202.242 135.598 201.656C136.008 201.07 136.389 200.484 136.74 199.898C137.15 199.254 137.502 198.668 137.795 198.141C138.146 197.613 138.322 197.262 138.322 197.086ZM195.539 225.562C195.48 226.441 195.656 227.115 196.066 227.584C196.535 227.994 196.916 228.521 197.209 229.166C197.092 229.986 197.18 230.631 197.473 231.1C197.297 231.451 197.121 231.861 196.945 232.33C196.77 232.74 196.506 233.092 196.154 233.385C195.217 233.795 194.66 234.146 194.484 234.439C194.309 234.732 193.957 234.879 193.43 234.879C193.137 235.172 192.814 235.465 192.463 235.758C192.111 236.109 191.789 236.432 191.496 236.725C191.203 236.607 190.998 236.461 190.881 236.285C190.764 236.109 190.588 235.875 190.354 235.582C189.768 235.406 189.24 235.084 188.771 234.615C188.303 234.205 187.893 233.736 187.541 233.209C187.189 232.623 186.838 232.037 186.486 231.451C186.193 230.807 185.93 230.221 185.695 229.693C184.875 228.17 184.025 226.646 183.146 225.123C182.326 223.541 181.477 221.988 180.598 220.465C180.129 219.703 179.66 218.941 179.191 218.18C178.781 217.359 178.342 216.539 177.873 215.719C177.756 215.602 177.639 215.484 177.521 215.367C177.404 215.191 177.287 215.016 177.17 214.84C176.76 214.254 176.438 213.609 176.203 212.906C176.027 212.145 175.617 211.529 174.973 211.061C173.859 210.943 172.834 211.119 171.896 211.588C171.018 211.998 170.227 212.555 169.523 213.258C169.582 213.668 169.611 214.049 169.611 214.4C169.611 214.752 169.611 215.104 169.611 215.455C169.611 216.803 169.553 218.092 169.436 219.322C169.318 220.553 169.26 221.842 169.26 223.189C169.26 223.775 169.289 224.391 169.348 225.035C169.406 225.621 169.494 226.207 169.611 226.793C169.436 227.438 169.348 228.141 169.348 228.902C169.348 229.312 169.377 229.693 169.436 230.045C169.553 230.396 169.611 230.777 169.611 231.188C169.611 231.773 169.406 232.184 168.996 232.418C168.645 232.594 168.527 232.945 168.645 233.473C167.941 233.766 167.268 234.059 166.623 234.352C165.979 234.645 165.305 234.85 164.602 234.967C164.309 235.025 164.016 235.025 163.723 234.967C163.43 234.967 163.166 235.025 162.932 235.143C162.639 235.26 162.404 235.465 162.229 235.758C162.053 236.109 161.818 236.285 161.525 236.285C161.174 236.285 160.969 236.139 160.91 235.846C160.852 235.611 160.734 235.406 160.559 235.23C160.266 235.113 160.031 235.055 159.855 235.055C159.68 235.055 159.504 234.967 159.328 234.791C159.387 234.264 159.27 233.883 158.977 233.648C158.684 233.355 158.537 232.799 158.537 231.979C158.537 231.334 158.566 230.719 158.625 230.133C158.742 229.547 158.801 228.932 158.801 228.287C158.801 227.76 158.713 227.291 158.537 226.881C158.42 226.412 158.303 225.914 158.186 225.387C158.127 225.152 158.127 224.918 158.186 224.684C158.244 224.449 158.273 224.215 158.273 223.98C158.273 222.926 158.215 221.871 158.098 220.816C158.039 219.703 158.01 218.619 158.01 217.564C158.01 217.154 158.01 216.773 158.01 216.422C158.01 216.07 158.039 215.719 158.098 215.367C158.215 215.016 158.303 214.723 158.361 214.488C158.479 214.254 158.537 213.961 158.537 213.609C158.537 212.496 158.42 211.412 158.186 210.357C157.951 209.244 157.834 208.16 157.834 207.105C157.834 206.52 157.834 205.934 157.834 205.348C157.893 204.703 157.922 204.088 157.922 203.502C157.922 201.803 157.893 200.133 157.834 198.492C157.775 196.852 157.746 195.211 157.746 193.57C157.746 192.398 157.775 191.256 157.834 190.143C157.893 188.971 157.922 187.799 157.922 186.627C157.922 185.162 157.863 183.727 157.746 182.32C157.629 180.855 157.57 179.361 157.57 177.838C157.57 177.311 157.541 176.959 157.482 176.783C157.424 176.607 157.336 176.52 157.219 176.52C157.102 176.461 156.955 176.432 156.779 176.432C156.662 176.373 156.545 176.256 156.428 176.08C156.428 175.729 156.574 175.494 156.867 175.377C157.16 175.201 157.307 174.703 157.307 173.883C157.307 173.414 157.248 172.945 157.131 172.477C157.072 172.008 157.043 171.539 157.043 171.07C157.043 170.367 157.189 169.664 157.482 168.961C157.775 168.258 158.039 167.584 158.273 166.939C158.977 166.881 159.445 166.881 159.68 166.939C159.973 166.998 160.266 166.969 160.559 166.852C160.734 167.496 161.115 167.848 161.701 167.906C162.287 167.906 162.814 167.965 163.283 168.082C163.811 168.141 164.309 168.287 164.777 168.521C165.305 168.697 165.803 168.785 166.271 168.785C166.389 169.137 166.623 169.4 166.975 169.576C167.385 169.693 167.795 169.811 168.205 169.928C168.674 169.869 169.025 169.664 169.26 169.312C169.553 168.961 169.934 168.785 170.402 168.785C170.754 168.785 171.164 169.049 171.633 169.576C172.102 170.045 172.453 170.426 172.688 170.719C172.922 170.895 173.361 171.275 174.006 171.861C174.65 172.447 175.354 173.062 176.115 173.707C176.877 174.293 177.58 174.879 178.225 175.465C178.869 175.992 179.279 176.285 179.455 176.344C181.857 178.746 184.084 180.943 186.135 182.936C188.244 184.869 190.529 186.627 192.99 188.209C193.049 188.385 193.107 188.531 193.166 188.648C193.283 188.766 193.4 188.912 193.518 189.088C193.518 189.557 193.43 189.908 193.254 190.143C193.078 190.377 192.99 190.67 192.99 191.021C192.99 191.197 193.02 191.373 193.078 191.549C193.195 191.725 193.254 191.9 193.254 192.076C193.312 192.311 193.312 192.545 193.254 192.779C193.254 192.955 193.254 193.16 193.254 193.395C193.254 193.98 193.43 194.508 193.781 194.977C194.191 195.445 194.396 195.973 194.396 196.559C194.279 197.086 194.045 197.408 193.693 197.525C193.342 197.643 193.049 197.789 192.814 197.965C192.697 198.082 192.58 198.229 192.463 198.404C192.404 198.58 192.316 198.727 192.199 198.844C190.91 199.43 189.973 199.986 189.387 200.514C188.801 200.982 188.186 201.451 187.541 201.92C187.365 202.037 187.072 202.242 186.662 202.535C186.252 202.77 185.842 203.033 185.432 203.326C185.021 203.561 184.641 203.824 184.289 204.117C183.996 204.41 183.85 204.645 183.85 204.82C183.85 205.23 184.084 205.816 184.553 206.578C185.08 207.281 185.461 207.838 185.695 208.248C186.34 209.303 186.926 210.357 187.453 211.412C187.98 212.408 188.566 213.404 189.211 214.4C190.383 216.217 191.467 218.062 192.463 219.938C193.518 221.812 194.543 223.688 195.539 225.562ZM181.213 192.867C179.865 191.168 178.4 189.645 176.818 188.297C175.295 186.891 173.83 185.426 172.424 183.902L171.457 183.727C171.105 183.141 170.695 182.643 170.227 182.232C169.816 181.764 169.377 181.295 168.908 180.826C168.967 181.471 168.996 182.086 168.996 182.672C168.996 183.258 168.996 183.873 168.996 184.518C168.996 186.393 168.938 188.238 168.82 190.055C168.762 191.812 168.732 193.6 168.732 195.416C168.732 197.232 168.82 198.961 168.996 200.602C170.227 200.602 171.34 200.25 172.336 199.547C172.746 199.254 173.127 198.961 173.479 198.668C173.83 198.316 174.211 197.994 174.621 197.701C175.09 197.408 175.617 197.057 176.203 196.646C176.848 196.236 177.463 195.826 178.049 195.416C178.693 195.006 179.279 194.596 179.807 194.186C180.393 193.717 180.861 193.277 181.213 192.867ZM220.148 167.467C220.441 168.521 220.734 169.576 221.027 170.631C221.32 171.627 221.672 172.623 222.082 173.619C222.961 173.736 223.488 173.824 223.664 173.883C223.898 173.941 224.162 174.029 224.455 174.146C225.1 175.67 225.48 177.311 225.598 179.068C225.773 180.768 226.008 182.438 226.301 184.078C227.414 185.543 228.205 187.125 228.674 188.824C229.201 190.465 229.787 192.135 230.432 193.834C230.607 194.42 230.725 194.801 230.783 194.977C230.842 195.094 230.871 195.211 230.871 195.328C231.223 196.324 231.574 197.35 231.926 198.404C232.277 199.459 232.658 200.484 233.068 201.48C233.244 202.008 233.42 202.535 233.596 203.062C233.83 203.531 234.035 204 234.211 204.469C234.387 205.055 234.533 205.67 234.65 206.314C234.826 206.9 235.002 207.486 235.178 208.072C235.588 209.244 236.027 210.416 236.496 211.588C236.965 212.76 237.434 213.932 237.902 215.104C238.078 215.514 238.4 216.422 238.869 217.828C239.396 219.234 239.924 220.729 240.451 222.311C240.979 223.834 241.447 225.27 241.857 226.617C242.326 227.906 242.561 228.697 242.561 228.99C242.561 229.459 242.59 229.957 242.648 230.484C242.766 230.953 242.854 231.451 242.912 231.979C242.678 232.564 242.385 232.887 242.033 232.945C241.682 233.004 241.359 232.975 241.066 232.857C240.773 232.975 240.48 233.092 240.188 233.209C239.953 233.326 239.719 233.443 239.484 233.561C239.309 233.619 239.162 233.707 239.045 233.824C238.928 233.941 238.781 234 238.605 234C237.902 234 237.434 234.059 237.199 234.176C237.023 234.352 236.73 234.439 236.32 234.439C235.793 234.264 235.441 234.234 235.266 234.352C235.148 234.527 235.031 234.645 234.914 234.703C234.68 234.82 234.416 234.879 234.123 234.879C233.83 234.879 233.537 234.908 233.244 234.967C233.127 234.732 233.01 234.498 232.893 234.264C232.834 234.029 232.717 233.766 232.541 233.473C231.896 232.535 231.428 231.627 231.135 230.748C230.9 229.869 230.695 229.166 230.52 228.639C230.227 227.994 229.963 227.35 229.729 226.705C229.553 226.061 229.318 225.416 229.025 224.771C228.674 224.889 228.352 225.035 228.059 225.211C227.766 225.328 227.531 225.504 227.355 225.738C226.652 225.738 226.301 225.826 226.301 226.002C226.301 226.178 226.242 226.354 226.125 226.529C225.773 226.646 225.48 226.764 225.246 226.881C225.07 226.998 224.748 227.027 224.279 226.969C223.986 227.262 223.693 227.525 223.4 227.76C223.107 227.936 222.727 228.053 222.258 228.111C221.789 228.58 221.291 228.99 220.764 229.342C220.295 229.635 219.738 229.693 219.094 229.518C218.273 229.693 217.453 229.869 216.633 230.045C215.812 230.162 214.992 230.221 214.172 230.221C213.234 229.928 212.648 229.664 212.414 229.43C212.18 229.195 211.828 229.078 211.359 229.078C211.418 228.258 211.242 227.701 210.832 227.408C210.832 227.232 210.832 226.969 210.832 226.617C210.891 226.207 210.979 225.943 211.096 225.826C211.857 225.475 212.297 225.094 212.414 224.684C212.531 224.273 212.854 224.01 213.381 223.893C213.498 223.658 213.615 223.453 213.732 223.277C213.908 223.043 214.055 222.809 214.172 222.574C214.465 222.457 214.699 222.369 214.875 222.311C215.109 222.252 215.285 222.076 215.402 221.783C215.695 221.783 216.135 221.607 216.721 221.256C217.307 220.846 217.688 220.523 217.863 220.289C218.332 220.113 218.625 219.967 218.742 219.85C218.859 219.674 219.006 219.527 219.182 219.41C219.768 219.469 220.148 219.41 220.324 219.234C220.793 219.469 221.32 219.586 221.906 219.586C222.141 219.586 222.346 219.586 222.521 219.586C222.697 219.527 222.902 219.498 223.137 219.498C223.605 219.029 224.191 218.736 224.895 218.619C225.656 218.443 226.271 218.121 226.74 217.652C226.564 217.184 226.418 216.627 226.301 215.982C226.184 215.279 225.979 214.723 225.686 214.312C225.568 213.551 225.363 212.818 225.07 212.115C224.836 211.412 224.631 210.738 224.455 210.094C223.811 207.633 223.049 205.23 222.17 202.887C221.291 200.543 220.559 198.141 219.973 195.68C219.855 195.387 219.709 195.094 219.533 194.801C219.416 194.449 219.299 194.127 219.182 193.834C218.889 194.537 218.742 194.947 218.742 195.064C218.742 195.123 218.684 195.211 218.566 195.328C218.508 195.621 218.449 195.885 218.391 196.119C218.332 196.295 218.244 196.529 218.127 196.822C217.951 197.291 217.775 197.818 217.6 198.404C217.482 198.932 217.365 199.43 217.248 199.898C216.955 200.895 216.691 201.949 216.457 203.062C216.223 204.117 215.959 205.172 215.666 206.227C215.08 208.043 214.465 209.859 213.82 211.676C213.234 213.434 212.648 215.221 212.062 217.037C211.945 217.857 211.799 218.502 211.623 218.971C211.506 219.381 211.359 219.82 211.184 220.289C211.066 220.699 210.949 221.109 210.832 221.52C210.773 221.93 210.744 222.252 210.744 222.486C209.924 224.361 209.221 226.266 208.635 228.199C208.107 230.133 207.434 232.008 206.613 233.824C206.379 233.941 206.174 234.088 205.998 234.264C205.822 234.439 205.617 234.527 205.383 234.527C204.914 234.527 204.65 234.41 204.592 234.176C204.592 233.941 204.475 233.824 204.24 233.824C204.006 233.824 203.801 233.883 203.625 234C203.449 234.059 203.273 234.146 203.098 234.264C202.805 234.146 202.453 234.059 202.043 234C201.691 234 201.428 233.883 201.252 233.648C200.842 233.941 200.432 234.088 200.021 234.088C199.553 234.088 199.084 233.941 198.615 233.648C198.264 233.766 197.912 233.824 197.561 233.824C197.385 233.824 197.18 233.795 196.945 233.736C196.711 233.678 196.535 233.59 196.418 233.473C196.359 233.238 196.33 233.004 196.33 232.77C196.33 232.535 196.33 232.271 196.33 231.979C196.33 231.393 196.271 230.953 196.154 230.66C197.209 227.672 198.234 224.654 199.23 221.607C200.227 218.502 201.223 215.367 202.219 212.203C202.746 210.738 203.244 209.303 203.713 207.896C204.24 206.49 204.738 205.055 205.207 203.59C205.441 202.77 205.646 202.008 205.822 201.305C205.998 200.543 206.232 199.811 206.525 199.107C206.994 197.584 207.463 196.061 207.932 194.537C208.459 192.955 208.928 191.402 209.338 189.879C209.572 189.703 209.719 189.498 209.777 189.264C209.836 189.029 209.924 188.766 210.041 188.473L209.953 187.33C210.363 186.744 210.627 186.246 210.744 185.836C210.92 185.367 211.037 184.898 211.096 184.43C211.389 183.727 211.652 182.965 211.887 182.145C212.121 181.324 212.297 180.562 212.414 179.859C212.531 178.922 212.59 177.867 212.59 176.695C212.648 175.465 212.824 174.439 213.117 173.619C213.234 173.385 213.322 173.238 213.381 173.18C213.498 173.062 213.557 172.857 213.557 172.564C213.674 172.447 213.791 172.33 213.908 172.213C214.084 172.037 214.201 171.861 214.26 171.686C214.553 171.217 214.641 170.807 214.523 170.455C214.465 170.104 214.436 169.723 214.436 169.312C214.963 169.02 215.197 168.756 215.139 168.521C215.08 168.287 215.051 168.053 215.051 167.818C215.051 167.525 215.227 167.262 215.578 167.027C215.988 166.734 216.252 166.441 216.369 166.148C216.721 166.207 217.072 166.266 217.424 166.324C217.775 166.324 218.127 166.295 218.479 166.236C218.889 166.998 219.387 167.379 219.973 167.379L220.148 167.467ZM293.537 200.338C293.654 200.748 293.889 201.188 294.24 201.656C294.592 202.125 294.768 202.477 294.768 202.711C294.299 203.824 293.947 204.703 293.713 205.348C293.479 205.934 293.098 206.461 292.57 206.93C292.57 207.105 292.395 207.486 292.043 208.072C291.691 208.658 291.281 209.303 290.812 210.006C290.402 210.65 289.963 211.295 289.494 211.939C289.084 212.525 288.82 212.936 288.703 213.17C288.41 213.639 288.176 214.107 288 214.576C287.824 214.986 287.619 215.396 287.385 215.807C286.857 216.744 286.301 217.623 285.715 218.443C285.188 219.264 284.689 220.172 284.221 221.168C283.928 221.461 283.664 221.783 283.43 222.135C283.195 222.486 282.932 222.809 282.639 223.102C281.936 224.391 281.115 225.592 280.178 226.705C279.299 227.818 278.479 229.049 277.717 230.396C278.361 231.041 278.684 231.861 278.684 232.857C278.684 233.385 278.537 233.678 278.244 233.736C277.951 233.736 277.688 233.795 277.453 233.912C276.867 234.322 276.34 234.557 275.871 234.615C275.402 234.674 275.021 234.703 274.729 234.703C274.084 234.703 273.381 234.674 272.619 234.615C271.857 234.615 271.213 234.674 270.686 234.791C270.51 234.85 270.305 234.938 270.07 235.055C269.836 235.23 269.66 235.318 269.543 235.318C269.074 235.318 268.723 235.23 268.488 235.055C268.312 234.938 268.049 234.82 267.697 234.703C267.229 234.176 266.789 233.619 266.379 233.033C266.027 232.447 265.646 231.861 265.236 231.275C264.885 230.865 264.504 230.514 264.094 230.221C263.684 229.869 263.303 229.459 262.951 228.99C262.014 227.643 261.047 226.354 260.051 225.123C259.113 223.893 258.146 222.662 257.15 221.432C256.682 220.787 256.154 220.172 255.568 219.586C255.041 219 254.543 218.414 254.074 217.828C253.605 217.184 253.166 216.51 252.756 215.807C252.346 215.104 251.906 214.43 251.438 213.785C251.086 213.199 250.588 212.496 249.943 211.676C249.299 210.797 248.625 209.918 247.922 209.039C247.219 208.16 246.486 207.34 245.725 206.578C245.021 205.758 244.406 205.143 243.879 204.732C243.879 204.322 243.762 204.029 243.527 203.854C243.293 203.678 243.029 203.473 242.736 203.238C242.619 202.945 242.473 202.682 242.297 202.447C242.121 202.154 242.033 201.832 242.033 201.48C242.033 201.07 242.121 200.689 242.297 200.338C242.414 200.104 242.473 199.898 242.473 199.723C242.531 199.488 242.619 199.254 242.736 199.02C243.029 198.258 243.439 197.584 243.967 196.998C244.553 196.412 244.992 195.738 245.285 194.977C245.344 194.742 245.373 194.537 245.373 194.361C245.373 194.127 245.432 193.893 245.549 193.658C245.725 193.248 245.988 192.896 246.34 192.604C246.691 192.252 247.014 191.871 247.307 191.461C247.6 190.934 247.893 190.406 248.186 189.879C248.479 189.352 248.771 188.824 249.064 188.297C249.885 186.949 250.793 185.66 251.789 184.43C252.785 183.141 253.723 181.881 254.602 180.65C255.422 179.479 256.184 178.336 256.887 177.223C257.59 176.051 258.352 174.879 259.172 173.707C259.582 173.121 260.051 172.477 260.578 171.773C261.105 171.012 261.633 170.279 262.16 169.576C262.746 168.873 263.332 168.229 263.918 167.643C264.504 166.998 265.09 166.529 265.676 166.236C266.672 166.119 267.316 166.295 267.609 166.764C267.902 167.174 268.312 167.379 268.84 167.379C269.66 167.555 270.217 167.818 270.51 168.17C270.803 168.521 271.096 168.844 271.389 169.137C272.15 169.137 272.795 169.283 273.322 169.576C273.85 169.869 274.377 170.309 274.904 170.895C274.67 171.539 274.348 172.125 273.938 172.652C273.586 173.18 273.264 173.736 272.971 174.322C272.502 174.498 272.15 174.791 271.916 175.201C271.74 175.611 271.447 175.963 271.037 176.256C270.393 177.252 269.748 178.248 269.104 179.244C268.459 180.182 267.814 181.09 267.17 181.969C266.877 182.32 266.555 182.613 266.203 182.848C265.852 183.023 265.529 183.316 265.236 183.727C265.119 183.902 265.031 184.107 264.973 184.342C264.914 184.518 264.826 184.693 264.709 184.869C264.006 185.982 263.215 187.066 262.336 188.121C261.457 189.176 260.695 190.289 260.051 191.461C259.758 191.871 259.523 192.311 259.348 192.779C259.172 193.189 258.967 193.6 258.732 194.01C258.498 194.42 258.146 194.947 257.678 195.592C257.268 196.178 256.828 196.793 256.359 197.438C255.949 198.082 255.568 198.727 255.217 199.371C254.924 200.016 254.777 200.543 254.777 200.953C254.836 201.246 255.217 201.832 255.92 202.711C256.623 203.59 257.414 204.527 258.293 205.523C259.172 206.52 259.992 207.486 260.754 208.424C261.574 209.303 262.072 209.83 262.248 210.006C262.365 210.299 262.805 210.943 263.566 211.939C264.328 212.877 265.178 213.932 266.115 215.104C267.111 216.217 268.078 217.301 269.016 218.355C269.953 219.41 270.598 220.172 270.949 220.641L271.652 221.783C271.77 221.725 272.062 221.314 272.531 220.553C273.059 219.791 273.586 218.941 274.113 218.004C274.641 217.066 275.109 216.188 275.52 215.367C275.988 214.547 276.281 214.02 276.398 213.785C276.574 213.609 276.867 213.141 277.277 212.379C277.688 211.617 278.127 210.797 278.596 209.918C279.123 209.039 279.562 208.219 279.914 207.457C280.324 206.695 280.559 206.197 280.617 205.963H279.562C278.625 205.963 277.688 206.021 276.75 206.139C275.871 206.197 274.963 206.373 274.025 206.666C273.615 206.607 273.264 206.49 272.971 206.314C272.678 206.139 272.326 205.963 271.916 205.787C271.74 205.201 271.652 204.791 271.652 204.557C271.711 204.322 271.711 204.146 271.652 204.029C271.594 203.795 271.506 203.619 271.389 203.502C271.33 203.385 271.301 203.209 271.301 202.975C271.301 202.564 271.242 202.242 271.125 202.008C271.008 201.715 270.891 201.393 270.773 201.041C270.773 200.807 270.773 200.572 270.773 200.338C270.832 200.104 270.803 199.898 270.686 199.723C270.803 198.668 270.715 197.906 270.422 197.438C270.422 196.617 270.539 196.09 270.773 195.855C271.008 195.621 271.184 195.27 271.301 194.801C271.828 194.977 272.268 194.947 272.619 194.713C273.029 194.42 273.439 194.273 273.85 194.273C274.787 194.273 275.549 194.127 276.135 193.834C276.662 193.775 277.189 193.746 277.717 193.746C278.303 193.746 278.859 193.688 279.387 193.57C279.68 193.512 279.914 193.453 280.09 193.395C280.324 193.336 280.588 193.277 280.881 193.219C281.232 193.16 281.613 193.131 282.023 193.131C282.434 193.131 282.814 193.131 283.166 193.131C284.104 193.014 285.041 192.955 285.979 192.955C286.916 192.896 287.854 192.838 288.791 192.779C289.084 192.896 289.348 192.984 289.582 193.043C289.875 193.102 290.139 193.189 290.373 193.307C290.549 193.424 290.695 193.57 290.812 193.746C290.93 193.863 291.135 193.951 291.428 194.01C291.721 194.303 291.926 194.596 292.043 194.889C291.926 195.416 291.955 195.797 292.131 196.031C291.838 196.324 291.662 196.734 291.604 197.262C291.604 197.73 291.574 198.17 291.516 198.58C291.926 198.697 292.277 199.02 292.57 199.547C292.863 200.074 293.068 200.338 293.186 200.338H293.537ZM342.844 199.107C342.727 199.342 342.609 199.576 342.492 199.811C342.375 199.986 342.287 200.191 342.229 200.426C342.463 200.66 342.668 200.924 342.844 201.217C343.078 201.451 343.195 201.715 343.195 202.008C343.195 202.242 343.137 202.477 343.02 202.711C342.961 202.887 342.961 203.062 343.02 203.238C342.785 203.648 342.521 204.029 342.229 204.381C341.994 204.732 341.818 205.113 341.701 205.523C341.467 205.758 341.262 205.992 341.086 206.227C340.969 206.461 340.852 206.695 340.734 206.93C340.441 207.047 340.236 207.252 340.119 207.545C340.061 207.779 339.914 207.984 339.68 208.16C339.621 208.395 339.328 208.951 338.801 209.83C338.273 210.709 337.688 211.646 337.043 212.643C336.398 213.639 335.783 214.605 335.197 215.543C334.611 216.48 334.201 217.096 333.967 217.389C333.85 217.682 333.703 217.916 333.527 218.092C333.41 218.268 333.264 218.473 333.088 218.707C332.971 218.883 332.883 219.088 332.824 219.322C332.766 219.498 332.678 219.645 332.561 219.762C332.443 219.996 332.297 220.201 332.121 220.377C332.004 220.553 331.887 220.787 331.77 221.08C331.184 221.842 330.598 222.75 330.012 223.805C329.426 224.859 328.869 225.797 328.342 226.617C328.049 227.086 327.756 227.555 327.463 228.023C327.229 228.492 326.965 228.961 326.672 229.43C326.379 229.898 326.086 230.338 325.793 230.748C325.5 231.158 325.207 231.598 324.914 232.066C324.445 232.418 324.035 232.857 323.684 233.385C323.332 233.854 322.922 234.264 322.453 234.615C321.691 234.615 321.223 234.264 321.047 233.561C320.285 233.385 319.904 233.385 319.904 233.561C319.904 233.736 319.904 233.883 319.904 234C319.67 234.117 319.494 234.293 319.377 234.527C319.318 234.762 319.172 234.938 318.938 235.055C318.469 234.938 318.059 234.732 317.707 234.439C317.414 234.205 316.975 234.117 316.389 234.176C316.154 233.824 315.891 233.531 315.598 233.297C315.305 233.004 315.041 232.711 314.807 232.418C314.689 232.066 314.514 231.773 314.279 231.539C314.104 231.305 313.928 231.07 313.752 230.836C313.576 230.543 313.4 230.279 313.225 230.045C313.049 229.811 312.873 229.576 312.697 229.342C312.287 228.814 311.877 228.316 311.467 227.848C311.115 227.32 310.793 226.793 310.5 226.266C310.031 225.562 309.562 224.859 309.094 224.156C308.684 223.395 308.244 222.662 307.775 221.959C307.541 221.607 307.307 221.256 307.072 220.904C306.838 220.553 306.633 220.201 306.457 219.85C306.34 219.557 306.164 219.205 305.93 218.795C305.754 218.385 305.52 218.121 305.227 218.004C305.109 217.535 304.904 217.184 304.611 216.949C304.318 216.715 304.025 216.422 303.732 216.07C303.322 215.602 302.941 215.104 302.59 214.576C302.238 213.99 301.887 213.404 301.535 212.818C300.363 211.178 299.25 209.566 298.195 207.984C297.199 206.402 296.203 204.762 295.207 203.062C295.5 202.125 295.646 201.422 295.646 200.953C295.646 200.484 295.793 200.104 296.086 199.811C296.086 199.576 296.145 199.225 296.262 198.756C297.023 197.467 297.756 196.295 298.459 195.24C299.104 194.244 299.543 193.424 299.777 192.779C300.07 192.135 300.363 191.461 300.656 190.758C300.949 190.582 301.184 190.377 301.359 190.143C301.535 189.85 301.77 189.586 302.062 189.352C302.18 188.707 302.443 188.18 302.854 187.77C303.264 187.301 303.527 186.744 303.645 186.1C304.172 185.689 304.465 185.221 304.523 184.693C305.285 184.166 305.754 183.463 305.93 182.584C306.398 182.115 306.779 181.588 307.072 181.002C307.424 180.416 307.746 179.801 308.039 179.156C308.742 178.57 309.299 177.809 309.709 176.871C310.061 176.637 310.324 176.314 310.5 175.904C310.676 175.494 310.91 175.143 311.203 174.85C311.672 174.088 312.023 173.473 312.258 173.004C312.551 172.477 312.844 171.949 313.137 171.422C313.547 171.422 313.811 171.275 313.928 170.982C314.045 170.689 314.279 170.572 314.631 170.631C314.631 170.104 314.777 169.635 315.07 169.225C315.188 169.166 315.363 169.107 315.598 169.049C315.832 168.932 315.949 168.814 315.949 168.697C315.832 167.994 315.861 167.584 316.037 167.467C316.213 167.35 316.359 167.232 316.477 167.115C317.121 167.232 317.561 167.32 317.795 167.379C318.029 167.438 318.41 167.643 318.938 167.994C319.523 167.994 319.934 168.111 320.168 168.346C320.402 168.58 320.666 168.756 320.959 168.873C321.193 169.107 321.369 169.342 321.486 169.576C321.662 169.811 321.896 169.986 322.189 170.104C322.658 170.748 323.156 171.451 323.684 172.213C324.211 172.975 324.709 173.678 325.178 174.322C325.822 175.201 326.467 176.051 327.111 176.871C327.814 177.633 328.459 178.482 329.045 179.42C329.221 179.713 329.543 180.24 330.012 181.002C330.48 181.705 331.008 182.467 331.594 183.287C332.18 184.107 332.707 184.869 333.176 185.572C333.645 186.217 333.967 186.598 334.143 186.715C334.318 187.008 334.699 187.564 335.285 188.385C335.871 189.205 336.486 190.084 337.131 191.021C337.834 191.9 338.508 192.75 339.152 193.57C339.797 194.391 340.236 194.918 340.471 195.152C341.115 196.031 341.584 196.764 341.877 197.35C342.229 197.877 342.551 198.463 342.844 199.107ZM322.717 215.631C323.361 214.752 323.859 213.961 324.211 213.258C324.562 212.555 324.914 211.852 325.266 211.148C325.852 210.445 326.203 209.947 326.32 209.654C326.438 209.361 326.584 209.068 326.76 208.775C327.229 208.072 327.697 207.369 328.166 206.666C328.693 205.963 329.104 205.201 329.396 204.381C329.748 204.146 330.012 203.854 330.188 203.502C330.363 203.15 330.627 202.828 330.979 202.535C330.627 201.305 330.217 200.367 329.748 199.723C329.279 199.02 328.811 198.346 328.342 197.701C328.166 197.408 327.99 197.115 327.814 196.822C327.639 196.529 327.463 196.236 327.287 195.943C327.053 195.768 326.848 195.592 326.672 195.416C326.555 195.24 326.408 195.064 326.232 194.889C326.115 194.596 325.939 194.215 325.705 193.746C325.471 193.453 325.236 193.189 325.002 192.955C324.768 192.721 324.562 192.428 324.387 192.076C324.152 191.842 323.859 191.52 323.508 191.109C323.156 190.699 322.775 190.26 322.365 189.791C322.014 189.264 321.691 188.795 321.398 188.385C321.105 187.916 320.871 187.535 320.695 187.242C320.578 186.949 320.461 186.715 320.344 186.539C320.285 186.305 320.197 186.07 320.08 185.836C319.787 185.426 319.494 185.074 319.201 184.781C318.908 184.43 318.615 184.049 318.322 183.639C318.146 183.756 317.971 183.844 317.795 183.902C317.678 183.902 317.561 183.961 317.443 184.078C317.033 184.84 316.564 185.543 316.037 186.188C315.568 186.832 315.1 187.535 314.631 188.297C314.221 189 313.811 189.732 313.4 190.494C312.99 191.197 312.58 191.9 312.17 192.604C311.877 193.014 311.584 193.424 311.291 193.834C311.057 194.186 310.793 194.596 310.5 195.064C310.207 195.475 309.943 195.914 309.709 196.383C309.533 196.793 309.299 197.203 309.006 197.613C308.537 198.199 308.156 198.727 307.863 199.195C307.57 199.664 307.277 200.221 306.984 200.865C307.16 201.217 307.424 201.715 307.775 202.359C308.186 202.945 308.596 203.561 309.006 204.205C309.416 204.791 309.768 205.348 310.061 205.875C310.412 206.402 310.617 206.754 310.676 206.93C311.145 207.34 311.525 207.809 311.818 208.336C312.111 208.805 312.492 209.273 312.961 209.742C313.195 210.211 313.459 210.621 313.752 210.973C314.045 211.324 314.338 211.705 314.631 212.115C314.924 212.525 315.305 213.141 315.773 213.961C316.242 214.723 316.711 215.514 317.18 216.334C317.648 217.154 318.117 217.916 318.586 218.619C319.055 219.322 319.436 219.762 319.729 219.938C320.314 219.293 320.783 218.59 321.135 217.828C321.545 217.008 322.072 216.275 322.717 215.631ZM377.385 168.434C378.322 168.316 379.025 168.404 379.494 168.697C380.021 168.932 380.549 169.078 381.076 169.137C381.369 169.195 381.662 169.225 381.955 169.225C382.307 169.166 382.658 169.137 383.01 169.137C383.771 169.137 384.357 169.225 384.768 169.4C385.236 169.576 385.705 169.957 386.174 170.543C386.291 170.66 386.438 170.836 386.613 171.07C386.848 171.246 386.965 171.422 386.965 171.598C386.965 172.066 386.848 172.477 386.613 172.828C386.379 173.18 386.262 173.678 386.262 174.322C386.262 175.318 386.379 176.314 386.613 177.311C386.848 178.248 386.994 179.215 387.053 180.211C387.346 183.844 387.492 187.506 387.492 191.197C387.551 194.83 387.58 198.434 387.58 202.008C387.58 202.477 387.551 202.916 387.492 203.326C387.492 203.678 387.375 204 387.141 204.293V205.436C387.082 206.959 387.111 208.512 387.229 210.094C387.346 211.617 387.404 213.141 387.404 214.664C387.404 216.012 387.316 217.359 387.141 218.707C387.023 220.055 386.965 221.432 386.965 222.838C386.965 224.127 387.053 225.387 387.229 226.617C387.404 227.848 387.492 229.107 387.492 230.396C387.199 230.924 387.023 231.334 386.965 231.627C386.906 231.92 386.789 232.184 386.613 232.418C386.438 232.535 386.232 232.564 385.998 232.506C385.822 232.447 385.676 232.506 385.559 232.682C385.266 233.033 385.061 233.443 384.943 233.912C384.826 234.381 384.533 234.762 384.064 235.055C383.947 235.875 383.625 236.49 383.098 236.9C382.629 237.369 382.277 237.955 382.043 238.658C381.34 238.717 380.842 238.688 380.549 238.57C380.314 238.453 380.051 238.336 379.758 238.219C379.699 237.223 379.699 236.49 379.758 236.021C379.875 235.611 379.934 235.172 379.934 234.703C379.934 234.117 379.787 233.678 379.494 233.385C379.201 233.092 378.996 232.711 378.879 232.242C378.234 231.832 377.795 231.568 377.561 231.451C377.326 231.275 377.121 231.07 376.945 230.836C376.594 230.367 376.301 229.869 376.066 229.342C375.832 228.814 375.568 228.316 375.275 227.848C374.455 226.5 373.605 225.123 372.727 223.717C371.906 222.311 370.998 220.934 370.002 219.586C369.826 219.293 369.621 219.029 369.387 218.795C369.152 218.561 368.947 218.297 368.771 218.004C367.775 216.422 366.838 214.811 365.959 213.17C365.08 211.529 364.055 209.977 362.883 208.512C362.414 207.926 362.062 207.281 361.828 206.578C361.594 205.816 361.242 205.172 360.773 204.645C360.715 204.938 360.686 205.26 360.686 205.611C360.686 205.963 360.686 206.285 360.686 206.578C360.686 208.57 360.715 210.562 360.773 212.555C360.891 214.488 360.949 216.451 360.949 218.443C360.949 218.854 360.891 219.234 360.773 219.586C360.715 219.879 360.686 220.23 360.686 220.641C360.686 221.227 360.715 221.783 360.773 222.311C360.832 222.838 360.861 223.365 360.861 223.893C360.861 224.537 360.832 225.152 360.773 225.738C360.773 226.324 360.744 226.91 360.686 227.496C360.568 228.258 360.422 228.99 360.246 229.693C360.07 230.338 359.982 231.012 359.982 231.715C359.982 232.125 360.012 232.506 360.07 232.857C360.188 233.209 360.246 233.531 360.246 233.824C359.836 234.469 359.309 234.791 358.664 234.791C358.078 234.791 357.58 235.025 357.17 235.494C356.818 235.436 356.525 235.465 356.291 235.582C356.115 235.699 355.939 235.758 355.764 235.758C355.529 235.758 355.324 235.729 355.148 235.67C355.031 235.611 354.885 235.582 354.709 235.582C354.416 235.582 354.123 235.729 353.83 236.021C353.537 236.314 353.244 236.461 352.951 236.461C352.775 236.461 352.453 236.344 351.984 236.109C351.574 235.875 351.105 235.582 350.578 235.23C350.109 234.938 349.67 234.615 349.26 234.264C348.85 233.971 348.645 233.736 348.645 233.561C348.586 233.268 348.557 232.857 348.557 232.33C348.557 231.627 348.586 230.953 348.645 230.309C348.762 229.605 348.879 228.902 348.996 228.199C349.172 226.207 349.26 224.244 349.26 222.311C349.26 220.318 349.26 218.326 349.26 216.334C349.26 215.514 349.26 214.693 349.26 213.873C349.318 213.053 349.348 212.232 349.348 211.412C349.348 209.479 349.26 207.545 349.084 205.611C348.967 203.619 348.908 201.656 348.908 199.723C348.908 198.375 348.967 197.057 349.084 195.768C349.201 194.42 349.26 193.102 349.26 191.812C349.26 190.816 349.23 189.85 349.172 188.912C349.113 187.975 349.084 187.008 349.084 186.012C349.025 185.367 349.025 184.693 349.084 183.99C349.143 183.229 349.172 182.525 349.172 181.881C349.172 181.119 349.055 180.416 348.82 179.771C348.645 179.068 348.557 178.424 348.557 177.838C348.557 177.486 348.615 177.164 348.732 176.871C348.908 176.52 348.996 176.168 348.996 175.816C348.996 175.348 348.908 174.879 348.732 174.41C348.615 173.941 348.557 173.473 348.557 173.004C348.557 172.535 348.615 172.096 348.732 171.686C348.85 171.275 348.908 170.836 348.908 170.367C349.729 169.957 350.461 169.752 351.105 169.752C351.75 169.752 352.219 169.986 352.512 170.455C352.512 171.51 352.57 172.33 352.688 172.916C352.805 173.443 352.893 174 352.951 174.586C352.951 174.938 352.922 175.348 352.863 175.816C352.863 176.285 352.893 176.754 352.951 177.223C353.01 177.633 353.127 177.984 353.303 178.277C353.537 178.57 353.918 178.717 354.445 178.717C354.562 179.01 354.709 179.273 354.885 179.508C355.061 179.742 355.178 180.035 355.236 180.387C355.588 180.152 355.793 179.83 355.852 179.42C355.91 179.01 355.91 178.629 355.852 178.277C356.145 178.395 356.408 178.453 356.643 178.453C356.877 178.395 357.111 178.424 357.346 178.541C357.463 179.361 357.609 180.094 357.785 180.738C357.961 181.324 358.02 182.027 357.961 182.848C359.133 183.727 360.129 184.986 360.949 186.627C361.828 188.209 362.648 189.645 363.41 190.934C363.82 191.578 364.289 192.193 364.816 192.779C365.402 193.307 365.842 193.951 366.135 194.713C366.604 195.006 366.984 195.387 367.277 195.855C367.57 196.324 367.834 196.793 368.068 197.262C369.24 199.312 370.529 201.305 371.936 203.238C373.342 205.172 374.807 207.076 376.33 208.951C376.389 208.541 376.418 208.16 376.418 207.809C376.418 207.398 376.418 206.988 376.418 206.578L376.33 198.668C376.33 198.199 376.301 197.76 376.242 197.35C376.242 196.939 376.213 196.5 376.154 196.031C376.037 194.508 376.008 193.014 376.066 191.549C376.125 190.084 376.125 188.59 376.066 187.066C375.949 185.484 375.861 183.873 375.803 182.232C375.803 180.592 375.744 178.951 375.627 177.311C375.568 176.314 375.51 175.318 375.451 174.322C375.393 173.326 375.363 172.33 375.363 171.334C375.363 170.104 375.48 168.99 375.715 167.994C375.832 167.877 375.949 167.789 376.066 167.73C376.242 167.613 376.447 167.555 376.682 167.555C377.033 167.555 377.268 167.848 377.385 168.434ZM415.002 169.225C415.119 169.459 415.236 169.635 415.354 169.752C415.529 169.811 415.646 169.986 415.705 170.279C416.115 170.572 416.438 170.807 416.672 170.982C416.906 171.1 417.053 171.334 417.111 171.686C417.639 172.096 417.932 172.359 417.99 172.477C418.107 172.594 418.195 172.74 418.254 172.916C418.547 173.15 418.811 173.355 419.045 173.531C419.338 173.707 419.543 173.971 419.66 174.322C420.129 174.732 420.422 175.055 420.539 175.289C420.656 175.523 420.744 175.787 420.803 176.08C420.568 176.49 420.1 177.047 419.396 177.75C418.693 178.453 417.902 179.215 417.023 180.035C416.145 180.797 415.295 181.559 414.475 182.32C413.654 183.023 413.01 183.58 412.541 183.99C412.424 184.225 412.277 184.43 412.102 184.605C411.926 184.781 411.779 184.986 411.662 185.221C411.311 185.514 410.988 185.836 410.695 186.188C410.402 186.48 410.051 186.715 409.641 186.891C409.055 187.711 408.234 188.531 407.18 189.352C406.125 190.113 405.422 190.875 405.07 191.637C405.129 191.812 405.246 191.988 405.422 192.164C405.656 192.34 405.832 192.486 405.949 192.604C406.418 193.072 406.975 193.512 407.619 193.922C408.264 194.273 408.82 194.684 409.289 195.152C409.758 195.562 410.227 195.973 410.695 196.383C411.164 196.734 411.633 197.115 412.102 197.525C412.336 197.76 412.629 198.111 412.98 198.58C413.566 199.049 414.123 199.488 414.65 199.898C415.236 200.25 415.793 200.66 416.32 201.129C417.434 202.066 418.518 203.033 419.572 204.029C420.627 204.967 421.74 205.904 422.912 206.842L423.615 207.633C423.615 208.102 423.732 208.658 423.967 209.303C424.26 209.889 424.523 210.387 424.758 210.797C424.641 211.383 424.641 211.764 424.758 211.939C424.934 212.057 425.08 212.174 425.197 212.291C425.139 213.404 425.168 214.137 425.285 214.488C424.289 215.367 423.352 216.188 422.473 216.949C421.652 217.652 420.92 218.355 420.275 219.059C419.748 219.703 419.191 220.289 418.605 220.816C418.078 221.285 417.492 221.812 416.848 222.398C416.496 222.867 416.203 223.189 415.969 223.365C415.559 223.775 415.148 224.098 414.738 224.332C414.035 224.977 413.332 225.592 412.629 226.178C411.984 226.764 411.34 227.35 410.695 227.936C410.227 228.346 409.787 228.756 409.377 229.166C408.967 229.518 408.557 229.928 408.146 230.396C407.795 230.748 407.385 231.158 406.916 231.627C406.506 232.096 406.066 232.477 405.598 232.77C405.422 233.121 405.188 233.443 404.895 233.736C404.602 233.971 404.338 234.234 404.104 234.527C403.693 234.762 403.312 234.996 402.961 235.23C402.609 235.465 402.199 235.699 401.73 235.934C401.262 235.582 400.793 235.26 400.324 234.967C399.914 234.674 399.445 234.469 398.918 234.352C398.566 234.059 398.303 233.766 398.127 233.473C397.951 233.18 397.629 232.975 397.16 232.857C397.043 232.682 396.896 232.506 396.721 232.33C396.604 232.096 396.486 231.861 396.369 231.627C395.666 231.568 395.109 231.129 394.699 230.309C394.816 229.957 394.963 229.693 395.139 229.518C395.373 229.342 395.432 229.02 395.314 228.551C395.666 227.965 396.076 227.467 396.545 227.057C397.072 226.588 397.57 226.119 398.039 225.65C398.566 225.182 399.035 224.713 399.445 224.244C399.914 223.717 400.412 223.219 400.939 222.75C401.232 222.457 401.525 222.193 401.818 221.959C402.111 221.666 402.434 221.373 402.785 221.08C403.43 220.436 404.074 219.85 404.719 219.322C405.422 218.736 406.125 218.121 406.828 217.477C407.766 216.539 408.732 215.66 409.729 214.84C410.725 213.961 411.633 212.994 412.453 211.939C412.395 211.705 412.307 211.559 412.189 211.5C412.072 211.383 411.984 211.236 411.926 211.061C410.988 210.182 410.051 209.332 409.113 208.512C408.234 207.633 407.268 206.871 406.213 206.227C405.861 205.875 405.627 205.582 405.51 205.348C404.455 204.586 403.43 203.736 402.434 202.799C401.496 201.861 400.441 201.07 399.27 200.426C399.035 200.133 398.742 199.898 398.391 199.723C398.098 199.488 397.805 199.283 397.512 199.107C397.336 198.814 397.131 198.58 396.896 198.404C396.721 198.17 396.486 197.994 396.193 197.877C395.725 197.467 395.402 197.145 395.227 196.91C395.109 196.617 394.875 196.441 394.523 196.383C394.406 196.09 394.201 195.855 393.908 195.68C393.674 195.504 393.41 195.299 393.117 195.064C393 194.713 392.824 194.42 392.59 194.186C392.531 193.717 392.561 193.395 392.678 193.219C392.795 192.984 392.883 192.809 392.941 192.691C392.883 192.34 392.736 192.076 392.502 191.9C392.209 191.725 392.062 191.432 392.062 191.021C392.062 190.787 392.15 190.641 392.326 190.582C392.443 190.465 392.531 190.318 392.59 190.143L392.854 188.824C393.322 188.473 393.703 188.062 393.996 187.594C394.348 187.066 394.787 186.656 395.314 186.363C395.9 185.484 396.633 184.752 397.512 184.166C397.805 183.697 398.156 183.316 398.566 183.023C399.035 182.73 399.416 182.35 399.709 181.881C400.178 181.588 400.559 181.266 400.852 180.914C401.203 180.562 401.613 180.24 402.082 179.947C402.199 179.713 402.316 179.537 402.434 179.42C402.609 179.244 402.727 179.068 402.785 178.893C404.367 177.369 405.744 176.051 406.916 174.938C408.146 173.824 409.406 172.711 410.695 171.598C411.047 171.305 411.398 170.982 411.75 170.631C412.102 170.279 412.482 169.957 412.893 169.664C413.01 169.547 413.156 169.488 413.332 169.488C413.508 169.488 413.684 169.43 413.859 169.312C414.562 169.312 414.943 169.283 415.002 169.225Z" fill="#F5F5F5"/>
</g>
</g>
<defs>
<filter id="filter0_d_259_801" x="0" y="0" width="560.385" height="520.753" filterUnits="userSpaceOnUse" color-interpolation-filters="sRGB">
<feFlood flood-opacity="0" result="BackgroundImageFix"/>
<feColorMatrix in="SourceAlpha" type="matrix" values="0 0 0 0 0 0 0 0 0 0 0 0 0 0 0 0 0 0 127 0" result="hardAlpha"/>
<feOffset dx="4" dy="4"/>
<feGaussianBlur stdDeviation="2"/>
<feComposite in2="hardAlpha" operator="out"/>
<feColorMatrix type="matrix" values="0 0 0 0 0 0 0 0 0 0 0 0 0 0 0 0 0 0 0.25 0"/>
<feBlend mode="normal" in2="BackgroundImageFix" result="effect1_dropShadow_259_801"/>
<feBlend mode="normal" in="SourceGraphic" in2="effect1_dropShadow_259_801" result="shape"/>
</filter>
<filter id="filter1_d_259_801" x="102.375" y="76.1484" width="339.611" height="170.598" filterUnits="userSpaceOnUse" color-interpolation-filters="sRGB">
<feFlood flood-opacity="0" result="BackgroundImageFix"/>
<feColorMatrix in="SourceAlpha" type="matrix" values="0 0 0 0 0 0 0 0 0 0 0 0 0 0 0 0 0 0 127 0" result="hardAlpha"/>
<feOffset dx="4" dy="4"/>
<feGaussianBlur stdDeviation="2"/>
<feComposite in2="hardAlpha" operator="out"/>
<feColorMatrix type="matrix" values="0 0 0 0 0 0 0 0 0 0 0 0 0 0 0 0 0 0 0.5 0"/>
<feBlend mode="normal" in2="BackgroundImageFix" result="effect1_dropShadow_259_801"/>
<feBlend mode="normal" in="SourceGraphic" in2="effect1_dropShadow_259_801" result="shape"/>
</filter>
</defs>
</svg>
