<svg width="707" height="722" viewBox="0 0 707 722" fill="none" xmlns="http://www.w3.org/2000/svg">
<path d="M703.41 110.615C714.169 68.8192 690.306 39.7482 677.029 30.4373C458.048 233.555 21.5356 648.583 27.3291 683.758C33.1226 718.933 64.9179 720.485 80.0913 716.864C154.165 699.897 298.555 693.586 361.49 692.552L369.249 676.516L374.939 693.586C509.431 690.483 654.269 719.45 668.235 721.002C682.202 722.554 707.031 699.276 704.445 640.307C702.375 593.131 681.167 586.165 670.821 588.579C663.062 584.441 647.13 573.475 645.475 562.715C643.82 551.956 641.337 501.332 640.302 477.364L624.267 467.019L640.302 457.708C646.509 417.153 642.889 324.94 640.302 283.903L624.784 273.04L640.302 264.246C640.302 226.175 645.475 181.137 648.061 163.377C678.581 171.654 689.961 162.86 703.41 110.615Z" fill="#202020" fill-opacity="0.5"/>
<path d="M69.2286 227.52C67.9872 217.174 64.918 157.342 63.5386 128.72L197.513 99.7522L359.938 93.5449L532.191 102.339C562.538 102.339 623.232 107.925 623.232 130.272C623.232 152.618 620.818 209.587 619.611 235.279L592.713 246.659L619.094 259.591C621.991 292.283 620.301 384.944 619.094 427.189L592.713 441.672L619.094 453.052C618.266 462.984 623.232 533.403 625.819 567.371L469.601 592.2H271.484C203.548 590.993 67.1595 582.992 65.0904 560.646C63.0213 538.3 65.9525 467.536 67.6768 434.948L94.0579 423.05L67.6768 412.187C66.0215 381.151 66.9871 293.041 67.6768 252.866L94.5752 238.9L69.2286 227.52Z" fill="#F5E5CA" stroke="black" stroke-width="5"/>
<path d="M605.524 167.602C345.922 105.91 137.489 149.488 65.722 178.988L63.6519 145.347L220.986 119.47L350.373 110.154L472.515 117.4L623.121 146.9L620.533 202.278C617.635 186.958 609.32 172.777 605.524 167.602Z" fill="#E3CBAA"/>
<path d="M322.694 563.232C126.129 564.888 68.711 536.679 64.5728 522.368V558.577L85.2638 569.44L329.936 595.821L626.335 572.026L622.715 529.092C604.61 539.783 519.259 561.577 322.694 563.232Z" fill="#E3CBAA"/>
<path d="M355.029 122.058C227.092 117.917 108.159 142.76 64.6851 155.698V125.681L343.126 79.1014L623.119 124.646V155.698C537.413 127.13 414.202 121.368 363.31 122.058L358.652 113.777L355.029 122.058Z" fill="#B89873"/>
<path d="M69.2286 227.52C67.9872 217.174 64.918 157.342 63.5386 128.72L197.513 99.7522L359.938 93.5449L532.191 102.339C562.538 102.339 623.232 107.925 623.232 130.272C623.232 152.618 620.818 209.587 619.611 235.279L592.713 246.659L619.094 259.591C621.991 292.283 620.301 384.944 619.094 427.189L592.713 441.672L619.094 453.052C618.266 462.984 623.232 533.403 625.819 567.371L469.601 592.2H271.484C203.548 590.993 67.1595 582.992 65.0904 560.646C63.0213 538.3 65.9525 467.536 67.6768 434.948L94.0579 423.05L67.6768 412.187C66.0215 381.151 66.9871 293.041 67.6768 252.866L94.5752 238.9L69.2286 227.52Z" stroke="black" stroke-width="5"/>
<path d="M647.446 4.05682C376.665 44.6326 131.624 19.9283 42.9507 3.02173V133.444C118.306 113.156 273.087 106.531 341.058 104.979L348.558 90.4414L355.032 104.979C464.752 105.393 595.692 124.99 647.446 134.996V4.05682Z" fill="#F5E5CA" stroke="black" stroke-width="5"/>
<path d="M647.446 557.543C376.665 598.119 131.624 573.414 42.9507 556.508V686.93C118.306 666.642 273.087 660.017 341.058 658.465L348.558 643.928L355.032 658.465C464.752 658.879 595.692 678.477 647.446 688.483V557.543Z" fill="#F5E5CA" stroke="black" stroke-width="5"/>
<path d="M133.002 85.8307C96.9802 85.8307 78.6591 74.7897 74.0011 69.2692L51.7466 128.787C106.4 113.882 267.046 105.325 340.538 102.91L348.819 85.3131L356.065 102.91C452.535 102.91 587.753 122.577 643.304 132.41L623.119 102.91L611.733 75.4797C594.654 88.4184 549.11 87.3833 517.022 84.7956C491.352 82.7254 394.191 81.5178 348.819 81.1728C291.889 82.7254 169.023 85.8307 133.002 85.8307Z" fill="#E1CBAC"/>
<path d="M133.002 639.317C96.9802 639.317 78.6591 628.276 74.0011 622.755L51.7466 682.273C106.4 667.368 267.046 658.811 340.538 656.396L348.819 638.799L356.065 656.396C452.535 656.396 587.753 676.063 643.304 685.896L623.119 656.396L611.733 628.966C594.654 641.905 549.11 640.87 517.022 638.282C491.352 636.212 394.191 635.004 348.819 634.659C291.889 636.212 169.023 639.317 133.002 639.317Z" fill="#E1CBAC"/>
<path d="M69.3447 119.988C74.3132 110.465 78.6606 97.7331 80.2132 92.5576C77.6255 117.917 114.371 106.402 134.038 103.944C150.6 101.873 216.156 98.9407 247.381 97.2155C145.114 105.496 86.0788 115.847 69.3447 119.988Z" fill="#B49979"/>
<path d="M69.3447 673.474C74.3132 663.951 78.6606 651.219 80.2132 646.044C77.6255 671.404 114.371 659.888 134.038 657.43C150.6 655.36 216.156 652.427 247.381 650.702C145.114 658.983 86.0788 669.333 69.3447 673.474Z" fill="#B49979"/>
<path d="M2.58013 66.6802C0.923974 20.7219 25.3525 2.50427 37.7734 2.50427C52.2645 2.50427 72.9669 18.0307 73.4844 66.6802C74.0019 115.33 51.2298 134.479 37.7734 134.479C29.9927 134.479 4.65032 124.128 2.58013 66.6802Z" fill="#E4C9AC" stroke="black" stroke-width="5"/>
<path d="M2.58013 620.167C0.923974 574.208 25.3525 555.991 37.7734 555.991C52.2645 555.991 72.9669 571.517 73.4844 620.167C74.0019 668.816 51.2298 687.965 37.7734 687.965C29.9927 687.965 4.65032 677.614 2.58013 620.167Z" fill="#E4C9AC" stroke="black" stroke-width="5"/>
<path d="M16.5552 40.8027C22.3517 7.26563 43.1226 5.78199 52.7835 9.23231L63.652 19.0657L71.9328 44.9431L74.003 71.3381L66.7573 109.637L54.8537 124.128C44.0887 131.167 35.1869 128.096 32.0816 125.681C37.7746 123.61 47.608 118.435 41.3975 114.295C35.1869 110.154 33.9793 97.5605 34.1518 93.0751C43.2606 96.8014 60.2017 93.5926 67.2749 92.5575H53.3011C59.0976 86.347 61.2368 77.8937 61.5818 74.4434C61.9269 70.1305 62.0994 61.0906 60.0292 59.4345C57.959 57.7783 57.0964 53.2239 56.9239 51.1537L43.4677 47.5309C36.015 13.1657 22.4207 28.2091 16.5552 40.8027Z" fill="#B89975"/>
<path d="M16.5552 594.289C22.3517 560.752 43.1226 559.268 52.7835 562.719L63.652 572.552L71.9328 598.429L74.003 624.824L66.7573 663.123L54.8537 677.614C44.0887 684.653 35.1869 681.582 32.0816 679.167C37.7746 677.097 47.608 671.921 41.3975 667.781C35.1869 663.64 33.9793 651.047 34.1518 646.561C43.2606 650.288 60.2017 647.079 67.2749 646.044H53.3011C59.0976 639.833 61.2368 631.38 61.5818 627.93C61.9269 623.617 62.0994 614.577 60.0292 612.921C57.959 611.265 57.0964 606.71 56.9239 604.64L43.4677 601.017C36.015 566.652 22.4207 581.695 16.5552 594.289Z" fill="#B89975"/>
<path d="M90.0479 21.6536C90.0479 18.3413 97.2935 19.9683 100.916 20.6185C121.101 24.2413 152.154 25.794 178.549 28.8993C199.664 31.3836 277.745 36.145 314.146 38.2152C320.529 38.7327 333.295 40.0784 333.295 41.3205C333.295 42.5626 324.669 42.8731 320.357 42.8731C208.152 44.9433 129.381 34.4198 104.022 28.8993C99.3637 27.8642 90.0479 24.9659 90.0479 21.6536Z" fill="#F9F7E8"/>
<path d="M90.0479 575.14C90.0479 571.828 97.2935 573.454 100.916 574.105C121.101 577.728 152.154 579.28 178.549 582.386C199.664 584.87 277.745 589.631 314.146 591.701C320.529 592.219 333.295 593.565 333.295 594.807C333.295 596.049 324.669 596.359 320.357 596.359C208.152 598.43 129.381 587.906 104.022 582.386C99.3637 581.35 90.0479 578.452 90.0479 575.14Z" fill="#F9F7E8"/>
<path d="M2.58013 66.6802C0.923974 20.7219 25.3525 2.50427 37.7734 2.50427C52.2645 2.50427 72.9669 18.0307 73.4844 66.6802C74.0019 115.33 51.2298 134.479 37.7734 134.479C29.9927 134.479 4.65032 124.128 2.58013 66.6802Z" stroke="black" stroke-width="5"/>
<path d="M2.58013 620.167C0.923974 574.208 25.3525 555.991 37.7734 555.991C52.2645 555.991 72.9669 571.517 73.4844 620.167C74.0019 668.816 51.2298 687.965 37.7734 687.965C29.9927 687.965 4.65032 677.614 2.58013 620.167Z" stroke="black" stroke-width="5"/>
<path d="M615.874 120.505C610.906 110.982 605.523 93.0753 603.97 87.8998C606.558 113.26 591.549 106.531 551.181 102.332C534.58 100.606 488.212 98.4233 456.987 96.6981C559.254 104.979 599.14 116.365 615.874 120.505Z" fill="#B49979"/>
<path d="M615.874 673.992C610.906 664.469 605.523 646.562 603.97 641.386C606.558 666.746 591.549 660.018 551.181 655.819C534.58 654.092 488.212 651.91 456.987 650.184C559.254 658.465 599.14 669.851 615.874 673.992Z" fill="#B49979"/>
<path d="M615.874 673.029C610.906 663.507 605.523 645.599 603.97 640.424C606.558 665.784 591.549 659.056 551.181 654.857C534.58 653.13 488.212 650.947 456.987 649.222C559.254 657.503 599.14 668.889 615.874 673.029Z" fill="#B49979"/>
<path d="M604.489 21.6959C604.489 19.0694 599.741 20.3595 597.366 20.8751C584.139 23.7477 563.79 24.979 546.493 27.4413C532.655 29.4111 481.487 33.1867 457.633 34.8282C453.45 35.2386 445.084 36.3056 445.084 37.2905C445.084 38.2754 450.737 38.5217 453.563 38.5217C527.093 40.1632 578.713 31.8187 595.331 27.4413C598.384 26.6205 604.489 24.3223 604.489 21.6959Z" fill="#F9F7E8"/>
<path d="M604.489 575.182C604.489 572.556 599.741 573.846 597.366 574.361C584.139 577.234 563.79 578.465 546.493 580.928C532.655 582.897 481.487 586.673 457.633 588.315C453.45 588.725 445.084 589.792 445.084 590.777C445.084 591.762 450.737 592.008 453.563 592.008C527.093 593.65 578.713 585.305 595.331 580.928C598.384 580.107 604.489 577.809 604.489 575.182Z" fill="#F9F7E8"/>
<path d="M604.489 574.22C604.489 571.594 599.741 572.884 597.366 573.4C584.139 576.272 563.79 577.503 546.493 579.966C532.655 581.936 481.487 585.711 457.633 587.353C453.45 587.763 445.084 588.83 445.084 589.815C445.084 590.8 450.737 591.046 453.563 591.046C527.093 592.688 578.713 584.343 595.331 579.966C598.384 579.145 604.489 576.847 604.489 574.22Z" fill="#F9F7E8"/>
<path d="M683.157 67.7152C684.813 21.757 660.384 3.53931 647.963 3.53931C633.472 3.53931 612.77 19.0657 612.252 67.7152C611.735 116.365 634.507 135.514 647.963 135.514C655.744 135.514 681.086 125.163 683.157 67.7152Z" stroke="black" stroke-width="5"/>
<path d="M683.157 621.202C684.813 575.243 660.384 557.026 647.963 557.026C633.472 557.026 612.77 572.552 612.252 621.202C611.735 669.851 634.507 689 647.963 689C655.744 689 681.086 678.649 683.157 621.202Z" stroke="black" stroke-width="5"/>
<path d="M28.4575 72.3731C28.4575 53.7414 35.3582 49.0835 38.8085 49.0835C42.9489 49.0835 49.677 54.259 50.1945 72.3731C50.6086 86.8645 42.9489 93.5926 38.8085 93.5926C35.1856 93.5926 28.4575 91.0049 28.4575 72.3731Z" fill="#DACBB5"/>
<path d="M71.9315 49.0835H38.8085M38.8085 49.0835C35.3582 49.0835 28.4575 53.7414 28.4575 72.3731C28.4575 91.0049 35.1856 93.5926 38.8085 93.5926C42.9489 93.5926 50.6086 86.8645 50.1945 72.3731C49.677 54.259 42.9489 49.0835 38.8085 49.0835Z" stroke="black" stroke-width="5"/>
<path d="M28.4575 625.859C28.4575 607.228 35.3582 602.57 38.8085 602.57C42.9489 602.57 49.677 607.745 50.1945 625.859C50.6086 640.351 42.9489 647.079 38.8085 647.079C35.1856 647.079 28.4575 644.491 28.4575 625.859Z" fill="#DACBB5"/>
<path d="M71.9315 602.57H38.8085M38.8085 602.57C35.3582 602.57 28.4575 607.228 28.4575 625.859C28.4575 644.491 35.1856 647.079 38.8085 647.079C42.9489 647.079 50.6086 640.351 50.1945 625.859C49.677 607.745 42.9489 602.57 38.8085 602.57Z" stroke="black" stroke-width="5"/>
<path d="M38.8091 93.5927H70.897" stroke="black" stroke-width="5"/>
<path d="M38.8091 647.079H70.897" stroke="black" stroke-width="5"/>
<path d="M34.1504 71.3382C34.1504 61.4013 38.2908 57.3644 42.4312 57.3644C49.1593 57.3644 50.1944 62.0223 50.7119 71.3382C51.2295 80.654 47.0891 86.8646 42.4312 86.8646C37.7732 86.8646 34.1504 83.7593 34.1504 71.3382Z" fill="#B59B78" stroke="black" stroke-width="5"/>
<path d="M34.1504 624.824C34.1504 614.887 38.2908 610.85 42.4312 610.85C49.1593 610.85 50.1944 615.508 50.7119 624.824C51.2295 634.14 47.0891 640.351 42.4312 640.351C37.7732 640.351 34.1504 637.245 34.1504 624.824Z" fill="#B59B78" stroke="black" stroke-width="5"/>
<path d="M683.157 67.7152C684.813 21.757 660.384 3.53931 647.963 3.53931C633.472 3.53931 612.77 19.0657 612.252 67.7152C611.735 116.365 634.507 135.514 647.963 135.514C655.744 135.514 681.086 125.163 683.157 67.7152Z" fill="#E4C9AC" stroke="black" stroke-width="5"/>
<path d="M683.157 621.202C684.813 575.243 660.384 557.026 647.963 557.026C633.472 557.026 612.77 572.552 612.252 621.202C611.735 669.851 634.507 689 647.963 689C655.744 689 681.086 678.649 683.157 621.202Z" fill="#E4C9AC" stroke="black" stroke-width="5"/>
<path d="M669.182 41.8378C663.386 8.30066 642.615 6.81703 632.954 10.2673L622.085 20.1008L613.805 45.9782L611.734 72.3731L618.98 110.672L630.884 125.163C641.649 132.202 650.55 129.131 653.656 126.716C647.963 124.645 638.129 119.47 644.34 115.33C650.55 111.189 651.758 98.5955 651.586 94.1101C642.477 97.8365 625.536 94.6277 618.462 93.5926H632.436C626.64 87.382 624.501 78.9287 624.155 75.4784C623.81 71.1655 623.638 62.1257 625.708 60.4695C627.778 58.8134 628.641 54.2589 628.813 52.1887L642.27 48.5659C649.722 14.2007 663.317 29.2441 669.182 41.8378Z" fill="#B89975"/>
<path d="M669.182 595.324C663.386 561.787 642.615 560.303 632.954 563.754L622.085 573.587L613.805 599.464L611.734 625.859L618.98 664.158L630.884 678.649C641.649 685.688 650.55 682.617 653.656 680.202C647.963 678.132 638.129 672.956 644.34 668.816C650.55 664.675 651.758 652.082 651.586 647.596C642.477 651.323 625.536 648.114 618.462 647.079H632.436C626.64 640.868 624.501 632.415 624.155 628.965C623.81 624.652 623.638 615.612 625.708 613.956C627.778 612.3 628.641 607.745 628.813 605.675L642.27 602.052C649.722 567.687 663.317 582.73 669.182 595.324Z" fill="#B89975"/>
<path d="M683.157 67.7152C684.813 21.757 660.384 3.53931 647.963 3.53931C633.472 3.53931 612.77 19.0657 612.252 67.7152C611.735 116.365 634.507 135.514 647.963 135.514C655.744 135.514 681.086 125.163 683.157 67.7152Z" stroke="black" stroke-width="5"/>
<path d="M683.157 621.202C684.813 575.243 660.384 557.026 647.963 557.026C633.472 557.026 612.77 572.552 612.252 621.202C611.735 669.851 634.507 689 647.963 689C655.744 689 681.086 678.649 683.157 621.202Z" stroke="black" stroke-width="5"/>
<path d="M657.279 73.4082C657.279 54.7765 650.378 50.1185 646.928 50.1185C642.787 50.1185 636.059 55.294 635.542 73.4082C635.128 87.8995 642.787 94.6276 646.928 94.6276C650.551 94.6276 657.279 92.0399 657.279 73.4082Z" fill="#DACBB5"/>
<path d="M613.805 50.1185H646.928M646.928 50.1185C650.378 50.1185 657.279 54.7765 657.279 73.4082C657.279 92.0399 650.551 94.6276 646.928 94.6276C642.787 94.6276 635.128 87.8995 635.542 73.4082C636.059 55.294 642.787 50.1185 646.928 50.1185Z" stroke="black" stroke-width="5"/>
<path d="M657.279 626.894C657.279 608.263 650.378 603.605 646.928 603.605C642.787 603.605 636.059 608.78 635.542 626.894C635.128 641.386 642.787 648.114 646.928 648.114C650.551 648.114 657.279 645.526 657.279 626.894Z" fill="#DACBB5"/>
<path d="M613.805 603.605H646.928M646.928 603.605C650.378 603.605 657.279 608.263 657.279 626.894C657.279 645.526 650.551 648.114 646.928 648.114C642.787 648.114 635.128 641.386 635.542 626.894C636.059 608.78 642.787 603.605 646.928 603.605Z" stroke="black" stroke-width="5"/>
<path d="M646.928 94.6279H614.84" stroke="black" stroke-width="5"/>
<path d="M646.928 648.114H614.84" stroke="black" stroke-width="5"/>
<path d="M651.586 72.3733C651.586 62.4364 647.446 58.3995 643.306 58.3995C636.578 58.3995 635.542 63.0575 635.025 72.3733C634.507 81.6892 638.648 87.8998 643.306 87.8998C647.964 87.8998 651.586 84.7945 651.586 72.3733Z" fill="#B59B78" stroke="black" stroke-width="5"/>
<path d="M651.586 625.859C651.586 615.922 647.446 611.886 643.306 611.886C636.578 611.886 635.542 616.544 635.025 625.859C634.507 635.175 638.648 641.386 643.306 641.386C647.964 641.386 651.586 638.281 651.586 625.859Z" fill="#B59B78" stroke="black" stroke-width="5"/>
</svg>
