<svg width="395" height="491" viewBox="0 0 395 491" fill="none" xmlns="http://www.w3.org/2000/svg">
<rect width="394.099" height="490.871" rx="20" fill="#202020" fill-opacity="0.5"/>
<path d="M51.52 49.36C54.7733 49.36 57.2267 50.3333 58.88 52.28C60.56 54.2267 61.4 57.0133 61.4 60.64C61.4 64.24 60.48 67.4933 58.64 70.4C56.8267 73.28 54.2933 75.3467 51.04 76.6C47.92 76.6 45.4133 75.5733 43.52 73.52C41.6267 71.44 40.68 68.7333 40.68 65.4C40.68 59.96 42.6533 55.4533 46.6 51.88L47.08 52.2C45.1867 54.9467 44.24 58.36 44.24 62.44C44.24 65.3467 44.9067 67.96 46.24 70.28C47.6 72.5733 49.48 73.72 51.88 73.72C53.4533 73.72 54.7733 73.2533 55.84 72.32C57.1733 69.8667 57.84 66.96 57.84 63.6C57.84 59.2 57 55.9733 55.32 53.92C54.4133 52.8 53.28 52.24 51.92 52.24C51.2267 52.24 50.5867 52.44 50 52.84C49.4133 53.24 49 53.76 48.76 54.4C48.76 54.9333 48.88 55.56 49.12 56.28C49.36 56.9733 49.6667 57.4133 50.04 57.6L50.12 57.88C49.5333 58.6 49.0933 59.36 48.8 60.16C48.7467 60.1867 48.64 60.2 48.48 60.2C47.52 60.2 47.04 59.3467 47.04 57.64C47.04 54.76 48.5333 52 51.52 49.36ZM75.1425 73.76C75.1425 72.1067 74.7292 69.64 73.9025 66.36C73.0758 63.0533 72.1558 59.8533 71.1425 56.76L70.9825 56.8L69.9825 64.24C69.5558 67.3067 69.3425 70.0667 69.3425 72.52C69.3425 74.0133 69.8092 75.0133 70.7425 75.52L70.5825 76.2C69.7825 76.0667 68.7292 76 67.4225 76C66.1425 76 64.7292 76.1067 63.1825 76.32L63.0225 75.28C63.9292 74.9867 64.7825 74.7733 65.5825 74.64L69.3025 56.4C67.9158 56.16 66.8892 55.9467 66.2225 55.76L66.3425 54.72C68.2625 55.0133 70.0358 55.16 71.6625 55.16C73.3158 55.16 74.5958 55.0667 75.5025 54.88L75.5825 55.56C74.8625 55.7467 74.5025 56.0533 74.5025 56.48C74.5025 57.0667 75.3292 60.4533 76.9825 66.64L77.8625 69.64L78.1425 69.56C78.1425 68.8667 79.3558 64.52 81.7825 56.52C81.7825 56.0667 81.4225 55.7467 80.7025 55.56L80.7825 54.88C81.6892 55.0667 82.9692 55.16 84.6225 55.16C86.3025 55.16 88.0892 55.0133 89.9825 54.72L90.1025 55.76C89.3825 55.9467 88.4625 56.1467 87.3425 56.36C87.2625 57 87.2225 57.9467 87.2225 59.2C87.2225 60.4267 87.3958 62.96 87.7425 66.8C88.0892 70.64 88.4092 73.28 88.7025 74.72C89.6892 74.8533 90.7025 75.04 91.7425 75.28L91.6225 76.28C90.2358 76.0933 88.6892 76 86.9825 76C85.3025 76 83.7825 76.1067 82.4225 76.32L82.2625 75.28C83.1425 75.0133 84.0892 74.8133 85.1025 74.68C85.0225 68.3867 84.5958 62.4533 83.8225 56.88H83.7025C80.9558 64.9867 79.4892 70.24 79.3025 72.64C78.7425 72.8267 78.0892 73.1733 77.3425 73.68C76.5958 74.16 76.0225 74.64 75.6225 75.12L75.1425 74.8V73.76ZM100.008 56.48C99.7945 57.92 99.6878 60.8667 99.6878 65.32C99.6878 69.7733 99.8078 72.8933 100.048 74.68C101.248 74.8133 102.354 75.0133 103.368 75.28L103.248 76.28C101.861 76.0933 100.301 76 98.5678 76C96.8611 76 95.3278 76.1067 93.9678 76.32L93.8078 75.28C94.5545 75.04 95.3945 74.84 96.3278 74.68C96.5678 72.76 96.6878 70.04 96.6878 66.52V64.64C96.6878 61.12 96.5545 58.4 96.2878 56.48C95.3545 56.32 94.5145 56.12 93.7678 55.88L93.9278 54.84C95.2878 55.0533 96.8211 55.16 98.5278 55.16C100.261 55.16 101.821 55.0667 103.208 54.88L103.328 55.88C102.314 56.1467 101.208 56.3467 100.008 56.48ZM115.712 76.28C114.325 76.0933 112.765 76 111.032 76C109.325 76 107.792 76.1067 106.432 76.32L106.272 75.28C107.125 75.0133 107.925 74.8133 108.672 74.68C108.912 72.6 109.032 69.88 109.032 66.52V64.64C109.032 61.0667 108.898 58.32 108.632 56.4C107.912 56.32 107.045 56.1067 106.032 55.76L106.152 54.72C107.672 55.0133 109.258 55.16 110.912 55.16C112.592 55.16 113.792 55.0667 114.512 54.88L114.592 55.56C113.872 55.7467 113.512 56.0533 113.512 56.48C113.512 56.8 113.818 57.48 114.432 58.52C115.072 59.5333 115.685 60.52 116.272 61.48C118.032 64.28 120.112 67.72 122.512 71.8L122.632 71.72V66.84C122.632 63.2667 122.445 60.5867 122.072 58.8C121.698 56.9867 121.058 55.9333 120.152 55.64L120.232 54.96C120.925 55.0933 121.965 55.16 123.352 55.16C124.738 55.16 126.165 55.0133 127.632 54.72L127.752 55.76C126.658 56.1067 125.738 56.32 124.992 56.4C124.725 58.5333 124.592 61.28 124.592 64.64V66.52C124.592 70.5733 124.725 73.32 124.992 74.76C126.112 74.9467 127.005 75.16 127.672 75.4L127.552 76.44C126.218 76.1467 124.965 76 123.792 76C122.618 76 121.712 76.0533 121.072 76.16C121.072 75.5733 120.658 74.5867 119.832 73.2C119.032 71.8133 118.298 70.5867 117.632 69.52C115.472 66.0267 113.352 62.48 111.272 58.88L111.112 58.96V64.32C111.112 69.6267 111.512 73.08 112.312 74.68C113.512 74.8133 114.685 75.0133 115.832 75.28L115.712 76.28ZM139.793 76.48C137.153 76.48 135.02 75.6533 133.393 74C131.767 72.32 130.953 70.08 130.953 67.28C130.953 64.48 131.807 61.8533 133.513 59.4C135.22 56.9467 137.447 55.3733 140.193 54.68C142.94 54.68 145.033 55.4667 146.473 57.04C147.913 58.5867 148.633 60.8 148.633 63.68C148.633 66.56 147.847 69.16 146.273 71.48C144.727 73.8 142.567 75.4667 139.793 76.48ZM139.113 57.12C137.913 57.12 136.873 57.4533 135.993 58.12C134.9 59.9867 134.353 62.3333 134.353 65.16C134.353 68.4133 135.26 70.9067 137.073 72.64C138.033 73.5733 139.167 74.04 140.473 74.04C141.78 74.04 142.833 73.6933 143.633 73C144.7 71.1333 145.233 68.8533 145.233 66.16C145.233 63.4667 144.753 61.2933 143.793 59.64C142.833 57.96 141.273 57.12 139.113 57.12ZM168.768 64.64V66.52C168.768 70.1733 168.901 72.9067 169.168 74.72C170.395 74.88 171.408 75.0667 172.208 75.28L172.088 76.28C170.781 76.0933 169.435 76 168.048 76C166.688 76 165.755 76.04 165.248 76.12L165.088 75.6C165.328 75.3333 165.488 74.5733 165.568 73.32C164.181 74.76 162.581 75.8133 160.768 76.48C156.181 76.48 153.888 73.7467 153.888 68.28C153.888 67.08 153.981 65.16 154.168 62.52C154.355 59.88 154.448 58.3333 154.448 57.88C154.448 57.4267 154.368 56.9867 154.208 56.56V56.52C153.088 56.3333 152.195 56.1333 151.528 55.92L151.688 54.84C153.235 55.0533 154.635 55.16 155.888 55.16C157.141 55.16 158.168 55.0933 158.968 54.96L159.128 55.64C158.168 56.1467 157.608 57.0667 157.448 58.4C157.128 60.96 156.968 63.5867 156.968 66.28C156.968 68.9733 157.275 70.8933 157.888 72.04C158.528 73.16 159.701 73.72 161.408 73.72C163.141 73.72 164.541 73.2267 165.608 72.24C165.715 70.1067 165.768 67.5867 165.768 64.68C165.768 61.7733 165.661 59.04 165.448 56.48C164.248 56.3467 163.141 56.1467 162.128 55.88L162.248 54.88C163.635 55.0667 165.181 55.16 166.888 55.16C168.621 55.16 170.168 55.0533 171.528 54.84L171.688 55.88C170.941 56.12 170.101 56.32 169.168 56.48C168.901 58.2667 168.768 60.9867 168.768 64.64ZM177.893 72.96C179.12 73.4667 180.333 73.72 181.533 73.72C182.733 73.72 183.693 73.44 184.413 72.88C185.133 72.32 185.493 71.52 185.493 70.48C185.493 69.4133 183.986 68.0933 180.973 66.52C179.826 65.9333 178.773 65.2267 177.813 64.4C176.88 63.5467 176.413 62.7067 176.413 61.88C176.413 60.4667 177.16 59.04 178.653 57.6C180.146 56.16 181.68 55.1867 183.253 54.68C185.226 54.68 187.013 54.88 188.613 55.28V56C187.493 57.12 186.866 58.6533 186.733 60.6H185.733C185.733 59.8533 185.666 58.92 185.533 57.8C184.6 57.3733 183.6 57.16 182.533 57.16C181.466 57.16 180.573 57.4 179.853 57.88C179.16 58.3333 178.813 59 178.813 59.88C178.813 60.4933 179.28 61.16 180.213 61.88C181.173 62.6 182.213 63.24 183.333 63.8C184.453 64.36 185.48 65.0533 186.413 65.88C187.373 66.7067 187.853 67.5333 187.853 68.36C187.853 69.96 187.146 71.56 185.733 73.16C184.32 74.7333 182.76 75.84 181.053 76.48C179.373 76.48 177.8 76.28 176.333 75.88C175.906 76.0667 175.466 76.3733 175.013 76.8L174.293 76.28C175.786 74.6533 176.613 72.64 176.773 70.24H177.773C177.773 71.1733 177.813 72.08 177.893 72.96ZM224.384 48.92C224.011 50.7867 223.757 52.7067 223.624 54.68C223.491 56.6533 223.424 59.8267 223.424 64.2C223.424 68.5733 223.597 72.04 223.944 74.6C225.357 74.7333 226.824 74.9867 228.344 75.36L228.224 76.32C226.251 76.1067 224.104 76 221.784 76C219.491 76 217.637 76.1067 216.224 76.32L216.064 75.32C217.264 74.9467 218.544 74.6667 219.904 74.48C220.117 72.72 220.264 69.88 220.344 65.96C218.957 65.8 217.424 65.72 215.744 65.72C214.091 65.72 212.691 65.8 211.544 65.96C210.904 68.5733 210.584 70.6667 210.584 72.24C210.584 73.8133 211.157 74.9333 212.304 75.6L212.144 76.16C211.317 76.0533 209.917 76 207.944 76C205.997 76 204.237 76.1067 202.664 76.32L202.504 75.32C203.704 74.9467 204.984 74.6667 206.344 74.48L212.664 52.08C209.517 52.08 207.504 52.5067 206.624 53.36C206.437 53.7333 206.344 54.32 206.344 55.12C206.344 55.92 206.477 56.4667 206.744 56.76L206.704 57.04C206.037 57.44 205.371 58 204.704 58.72C204.384 58.6933 204.131 58.56 203.944 58.32C203.731 58.08 203.624 57.8 203.624 57.48C203.624 56.1733 204.411 54.6133 205.984 52.8C207.557 50.9867 209.024 49.84 210.384 49.36C214.411 49.8133 218.491 50.2 222.624 50.52C222.997 50.04 223.304 49.4267 223.544 48.68L224.384 48.92ZM211.984 63.96C213.184 64.1467 214.597 64.24 216.224 64.24C217.877 64.24 219.251 64.1467 220.344 63.96C220.344 59.24 220.277 55.3867 220.144 52.4L220.024 52.28C218.637 52.1467 216.917 52.08 214.864 52.08L211.984 63.96ZM240.689 73.76C240.689 72.1067 240.276 69.64 239.449 66.36C238.623 63.0533 237.703 59.8533 236.689 56.76L236.529 56.8L235.529 64.24C235.103 67.3067 234.889 70.0667 234.889 72.52C234.889 74.0133 235.356 75.0133 236.289 75.52L236.129 76.2C235.329 76.0667 234.276 76 232.969 76C231.689 76 230.276 76.1067 228.729 76.32L228.569 75.28C229.476 74.9867 230.329 74.7733 231.129 74.64L234.849 56.4C233.463 56.16 232.436 55.9467 231.769 55.76L231.889 54.72C233.809 55.0133 235.583 55.16 237.209 55.16C238.863 55.16 240.143 55.0667 241.049 54.88L241.129 55.56C240.409 55.7467 240.049 56.0533 240.049 56.48C240.049 57.0667 240.876 60.4533 242.529 66.64L243.409 69.64L243.689 69.56C243.689 68.8667 244.903 64.52 247.329 56.52C247.329 56.0667 246.969 55.7467 246.249 55.56L246.329 54.88C247.236 55.0667 248.516 55.16 250.169 55.16C251.849 55.16 253.636 55.0133 255.529 54.72L255.649 55.76C254.929 55.9467 254.009 56.1467 252.889 56.36C252.809 57 252.769 57.9467 252.769 59.2C252.769 60.4267 252.943 62.96 253.289 66.8C253.636 70.64 253.956 73.28 254.249 74.72C255.236 74.8533 256.249 75.04 257.289 75.28L257.169 76.28C255.783 76.0933 254.236 76 252.529 76C250.849 76 249.329 76.1067 247.969 76.32L247.809 75.28C248.689 75.0133 249.636 74.8133 250.649 74.68C250.569 68.3867 250.143 62.4533 249.369 56.88H249.249C246.503 64.9867 245.036 70.24 244.849 72.64C244.289 72.8267 243.636 73.1733 242.889 73.68C242.143 74.16 241.569 74.64 241.169 75.12L240.689 74.8V73.76ZM275.995 64.64V66.52C275.995 70.1733 276.128 72.9067 276.395 74.72C277.621 74.88 278.635 75.0667 279.435 75.28L279.315 76.28C278.008 76.0933 276.661 76 275.275 76C273.915 76 272.981 76.04 272.475 76.12L272.315 75.6C272.555 75.3333 272.715 74.5733 272.795 73.32C271.408 74.76 269.808 75.8133 267.995 76.48C263.408 76.48 261.115 73.7467 261.115 68.28C261.115 67.08 261.208 65.16 261.395 62.52C261.581 59.88 261.675 58.3333 261.675 57.88C261.675 57.4267 261.595 56.9867 261.435 56.56V56.52C260.315 56.3333 259.421 56.1333 258.755 55.92L258.915 54.84C260.461 55.0533 261.861 55.16 263.115 55.16C264.368 55.16 265.395 55.0933 266.195 54.96L266.355 55.64C265.395 56.1467 264.835 57.0667 264.675 58.4C264.355 60.96 264.195 63.5867 264.195 66.28C264.195 68.9733 264.501 70.8933 265.115 72.04C265.755 73.16 266.928 73.72 268.635 73.72C270.368 73.72 271.768 73.2267 272.835 72.24C272.941 70.1067 272.995 67.5867 272.995 64.68C272.995 61.7733 272.888 59.04 272.675 56.48C271.475 56.3467 270.368 56.1467 269.355 55.88L269.475 54.88C270.861 55.0667 272.408 55.16 274.115 55.16C275.848 55.16 277.395 55.0533 278.755 54.84L278.915 55.88C278.168 56.12 277.328 56.32 276.395 56.48C276.128 58.2667 275.995 60.9867 275.995 64.64ZM297.04 76.44C295.306 76.1467 292.946 76 289.96 76C287 76 284.52 76.1333 282.52 76.4L282.4 75.4C283.146 75.1067 284 74.8667 284.96 74.68C285.226 73.08 285.36 70.36 285.36 66.52V64.64C285.36 61.3333 285.226 58.6133 284.96 56.48C284.08 56.3467 283.24 56.1467 282.44 55.88L282.6 54.84C283.96 55.0533 285.56 55.16 287.4 55.16C289.24 55.16 290.813 55.0533 292.12 54.84L292.24 55.84C291.04 56.1333 289.853 56.3467 288.68 56.48C288.466 57.92 288.36 60.8933 288.36 65.4C288.36 69.88 288.466 72.8667 288.68 74.36C289.32 74.4667 290.226 74.52 291.4 74.52C292.573 74.52 293.626 74.2933 294.56 73.84C294.933 72.9333 295.12 71.8667 295.12 70.64H296.12C296.226 72.6933 296.6 74.36 297.24 75.64L297.04 76.44ZM302.209 66.12C302.289 68.4933 302.729 70.3467 303.529 71.68C304.329 73.0133 305.689 73.68 307.609 73.68C309.529 73.68 311.302 72.8667 312.929 71.24L313.489 71.8C311.702 74.0667 309.555 75.6267 307.049 76.48C304.462 76.48 302.435 75.6667 300.969 74.04C299.502 72.3867 298.769 70.1733 298.769 67.4C298.769 64.6 299.635 61.9733 301.369 59.52C303.102 57.0667 305.315 55.4533 308.009 54.68C309.955 54.68 312.155 54.88 314.609 55.28L314.569 56.16C314.062 56.16 313.582 56.2533 313.129 56.44C312.622 57.64 312.289 59.0667 312.129 60.72H311.129C310.915 59.8133 310.809 58.88 310.809 57.92C309.795 57.4133 308.595 57.16 307.209 57.16C305.822 57.16 304.675 57.5333 303.769 58.28C302.862 59.9333 302.342 61.9067 302.209 64.2C303.329 64.3867 304.529 64.48 305.809 64.48C308.022 64.48 309.355 64.0133 309.809 63.08L310.649 63.2C310.409 64 310.289 64.7867 310.289 65.56C310.289 66.3333 310.382 67.28 310.569 68.4L309.609 68.56C309.315 67.76 309.102 66.9333 308.969 66.08C307.902 65.9733 306.835 65.92 305.769 65.92C304.729 65.92 303.542 65.9867 302.209 66.12ZM329.698 57.32C328.765 56.8667 327.872 56.64 327.018 56.64C326.165 56.64 325.592 56.6933 325.298 56.8C325.085 58.24 324.978 61.0267 324.978 65.16C324.978 69.2933 325.125 72.4667 325.418 74.68C326.618 74.8133 327.725 75.0133 328.738 75.28L328.618 76.28C327.232 76.0933 325.632 76 323.818 76C322.032 76 320.458 76.1067 319.098 76.32L318.938 75.28C319.472 75.12 320.392 74.92 321.698 74.68C321.938 72.76 322.058 70.04 322.058 66.52V64.64C322.058 62.7733 321.912 60.16 321.618 56.8C321.325 56.6933 320.778 56.64 319.978 56.64C319.178 56.64 318.325 56.8267 317.418 57.2C317.152 58.0267 316.965 59.1333 316.858 60.52H315.818C315.818 58.3333 315.458 56.64 314.738 55.44L314.938 54.76C316.992 55.0267 319.872 55.16 323.578 55.16C327.285 55.16 330.272 55.0133 332.538 54.72L332.778 55.48C332.112 56.2267 331.658 56.96 331.418 57.68C331.178 58.3733 331.032 59.32 330.978 60.52H329.978C329.792 59.64 329.698 58.5733 329.698 57.32Z" fill="#FAF9F6"/>
<path d="M40.5415 379.36V376.912H47.4535V379.36H40.5415ZM50.9468 385L50.1548 383.032L55.2908 377.248C55.5628 376.96 55.8428 376.632 56.1308 376.264C56.4348 375.88 56.7228 375.488 56.9948 375.088C57.2668 374.688 57.4828 374.296 57.6428 373.912C57.8188 373.512 57.9068 373.136 57.9068 372.784C57.9068 372.272 57.8028 371.84 57.5948 371.488C57.4028 371.12 57.1148 370.84 56.7308 370.648C56.3628 370.456 55.9148 370.36 55.3868 370.36C54.9228 370.36 54.4668 370.496 54.0188 370.768C53.5708 371.04 53.1628 371.424 52.7948 371.92C52.4268 372.416 52.1388 372.992 51.9308 373.648L49.9388 372.4C50.2108 371.472 50.6188 370.68 51.1628 370.024C51.7228 369.352 52.3868 368.84 53.1548 368.488C53.9388 368.136 54.7868 367.96 55.6988 367.96C56.6428 367.96 57.4828 368.16 58.2188 368.56C58.9548 368.944 59.5308 369.488 59.9468 370.192C60.3628 370.88 60.5708 371.68 60.5708 372.592C60.5708 372.96 60.5308 373.336 60.4508 373.72C60.3708 374.104 60.2428 374.504 60.0668 374.92C59.8908 375.32 59.6668 375.744 59.3948 376.192C59.1228 376.624 58.7948 377.08 58.4108 377.56C58.0428 378.04 57.6188 378.544 57.1388 379.072L53.3228 383.224L52.8428 382.504H61.0988V385H50.9468ZM70.2698 385V372.4H72.7658V375.088L72.3098 375.376C72.4378 374.96 72.6378 374.56 72.9098 374.176C73.1978 373.792 73.5418 373.456 73.9418 373.168C74.3578 372.864 74.7978 372.624 75.2618 372.448C75.7418 372.272 76.2298 372.184 76.7258 372.184C77.4458 372.184 78.0778 372.304 78.6218 372.544C79.1658 372.784 79.6138 373.144 79.9658 373.624C80.3178 374.104 80.5738 374.704 80.7338 375.424L80.3498 375.328L80.5178 374.92C80.6938 374.552 80.9338 374.208 81.2378 373.888C81.5578 373.552 81.9178 373.256 82.3178 373C82.7178 372.744 83.1418 372.544 83.5898 372.4C84.0378 372.256 84.4778 372.184 84.9098 372.184C85.8538 372.184 86.6298 372.376 87.2378 372.76C87.8618 373.144 88.3258 373.728 88.6298 374.512C88.9498 375.296 89.1098 376.272 89.1098 377.44V385H86.6138V377.584C86.6138 376.864 86.5178 376.28 86.3258 375.832C86.1498 375.368 85.8778 375.024 85.5098 374.8C85.1418 374.576 84.6698 374.464 84.0938 374.464C83.6458 374.464 83.2218 374.544 82.8218 374.704C82.4378 374.848 82.1018 375.056 81.8138 375.328C81.5258 375.6 81.3018 375.92 81.1418 376.288C80.9818 376.64 80.9018 377.032 80.9018 377.464V385H78.4058V377.536C78.4058 376.88 78.3098 376.328 78.1178 375.88C77.9258 375.416 77.6458 375.064 77.2778 374.824C76.9098 374.584 76.4618 374.464 75.9338 374.464C75.4858 374.464 75.0698 374.544 74.6858 374.704C74.3018 374.848 73.9658 375.056 73.6778 375.328C73.3898 375.584 73.1658 375.896 73.0058 376.264C72.8458 376.616 72.7658 377 72.7658 377.416V385H70.2698ZM97.2674 385.24C96.2274 385.24 95.2754 384.952 94.4114 384.376C93.5634 383.8 92.8834 383.016 92.3714 382.024C91.8594 381.032 91.6034 379.912 91.6034 378.664C91.6034 377.4 91.8594 376.28 92.3714 375.304C92.8994 374.312 93.6034 373.536 94.4834 372.976C95.3794 372.416 96.3794 372.136 97.4834 372.136C98.1394 372.136 98.7394 372.232 99.2834 372.424C99.8274 372.616 100.299 372.888 100.699 373.24C101.115 373.576 101.451 373.968 101.707 374.416C101.979 374.864 102.147 375.344 102.211 375.856L101.659 375.664V372.4H104.155V385H101.659V382L102.235 381.832C102.139 382.264 101.939 382.688 101.635 383.104C101.347 383.504 100.971 383.864 100.507 384.184C100.059 384.504 99.5554 384.76 98.9954 384.952C98.4514 385.144 97.8754 385.24 97.2674 385.24ZM97.9154 382.96C98.6674 382.96 99.3314 382.776 99.9074 382.408C100.483 382.04 100.931 381.536 101.251 380.896C101.587 380.24 101.755 379.496 101.755 378.664C101.755 377.848 101.587 377.12 101.251 376.48C100.931 375.84 100.483 375.336 99.9074 374.968C99.3314 374.6 98.6674 374.416 97.9154 374.416C97.1794 374.416 96.5234 374.6 95.9474 374.968C95.3874 375.336 94.9394 375.84 94.6034 376.48C94.2834 377.12 94.1234 377.848 94.1234 378.664C94.1234 379.496 94.2834 380.24 94.6034 380.896C94.9394 381.536 95.3874 382.04 95.9474 382.408C96.5234 382.776 97.1794 382.96 97.9154 382.96ZM113.247 390.52C112.351 390.52 111.455 390.376 110.559 390.088C109.679 389.816 108.967 389.456 108.423 389.008L109.335 387.088C109.655 387.328 110.031 387.536 110.463 387.712C110.895 387.904 111.351 388.048 111.831 388.144C112.311 388.256 112.783 388.312 113.247 388.312C114.127 388.312 114.863 388.168 115.455 387.88C116.047 387.592 116.495 387.168 116.799 386.608C117.103 386.048 117.255 385.352 117.255 384.52V382.096L117.519 382.264C117.439 382.76 117.175 383.24 116.727 383.704C116.295 384.152 115.751 384.52 115.095 384.808C114.439 385.096 113.767 385.24 113.079 385.24C111.879 385.24 110.807 384.96 109.863 384.4C108.935 383.824 108.199 383.048 107.655 382.072C107.111 381.08 106.839 379.952 106.839 378.688C106.839 377.424 107.103 376.304 107.631 375.328C108.175 374.336 108.911 373.56 109.839 373C110.783 372.424 111.839 372.136 113.007 372.136C113.487 372.136 113.951 372.2 114.399 372.328C114.847 372.44 115.263 372.608 115.647 372.832C116.031 373.04 116.375 373.272 116.679 373.528C116.983 373.784 117.231 374.056 117.423 374.344C117.615 374.632 117.735 374.904 117.783 375.16L117.255 375.352V372.4H119.727V384.232C119.727 385.24 119.575 386.128 119.271 386.896C118.983 387.68 118.559 388.336 117.999 388.864C117.439 389.408 116.759 389.816 115.959 390.088C115.159 390.376 114.255 390.52 113.247 390.52ZM113.343 382.96C114.127 382.96 114.823 382.776 115.431 382.408C116.039 382.04 116.511 381.536 116.847 380.896C117.183 380.256 117.351 379.52 117.351 378.688C117.351 377.856 117.175 377.12 116.823 376.48C116.487 375.824 116.015 375.312 115.407 374.944C114.815 374.576 114.127 374.392 113.343 374.392C112.575 374.392 111.887 374.584 111.279 374.968C110.687 375.336 110.215 375.848 109.863 376.504C109.527 377.144 109.359 377.872 109.359 378.688C109.359 379.504 109.527 380.24 109.863 380.896C110.215 381.536 110.687 382.04 111.279 382.408C111.887 382.776 112.575 382.96 113.343 382.96ZM123.601 385V372.4H126.073V385H123.601ZM124.801 369.616C124.273 369.616 123.865 369.48 123.577 369.208C123.289 368.936 123.145 368.552 123.145 368.056C123.145 367.592 123.289 367.216 123.577 366.928C123.881 366.64 124.289 366.496 124.801 366.496C125.329 366.496 125.737 366.632 126.025 366.904C126.313 367.176 126.457 367.56 126.457 368.056C126.457 368.52 126.305 368.896 126.001 369.184C125.713 369.472 125.313 369.616 124.801 369.616ZM135.225 385.24C134.057 385.24 133.009 384.952 132.081 384.376C131.169 383.8 130.441 383.016 129.897 382.024C129.369 381.032 129.105 379.92 129.105 378.688C129.105 377.456 129.369 376.344 129.897 375.352C130.441 374.36 131.169 373.576 132.081 373C133.009 372.424 134.057 372.136 135.225 372.136C136.345 372.136 137.361 372.368 138.273 372.832C139.201 373.28 139.905 373.896 140.385 374.68L139.017 376.36C138.761 375.992 138.433 375.656 138.033 375.352C137.633 375.048 137.209 374.808 136.761 374.632C136.313 374.456 135.881 374.368 135.465 374.368C134.697 374.368 134.009 374.56 133.401 374.944C132.809 375.312 132.337 375.824 131.985 376.48C131.633 377.136 131.457 377.872 131.457 378.688C131.457 379.504 131.641 380.24 132.009 380.896C132.377 381.536 132.865 382.048 133.473 382.432C134.081 382.816 134.753 383.008 135.489 383.008C135.921 383.008 136.337 382.936 136.737 382.792C137.153 382.648 137.553 382.432 137.937 382.144C138.321 381.856 138.681 381.504 139.017 381.088L140.385 382.768C139.873 383.488 139.137 384.08 138.177 384.544C137.233 385.008 136.249 385.24 135.225 385.24ZM155.083 390.52C154.187 390.52 153.291 390.376 152.395 390.088C151.515 389.816 150.803 389.456 150.259 389.008L151.171 387.088C151.491 387.328 151.867 387.536 152.299 387.712C152.731 387.904 153.187 388.048 153.667 388.144C154.147 388.256 154.619 388.312 155.083 388.312C155.963 388.312 156.699 388.168 157.291 387.88C157.883 387.592 158.331 387.168 158.635 386.608C158.939 386.048 159.091 385.352 159.091 384.52V382.096L159.355 382.264C159.275 382.76 159.011 383.24 158.563 383.704C158.131 384.152 157.587 384.52 156.931 384.808C156.275 385.096 155.603 385.24 154.915 385.24C153.715 385.24 152.643 384.96 151.699 384.4C150.771 383.824 150.035 383.048 149.491 382.072C148.947 381.08 148.675 379.952 148.675 378.688C148.675 377.424 148.939 376.304 149.467 375.328C150.011 374.336 150.747 373.56 151.675 373C152.619 372.424 153.675 372.136 154.843 372.136C155.323 372.136 155.787 372.2 156.235 372.328C156.683 372.44 157.099 372.608 157.483 372.832C157.867 373.04 158.211 373.272 158.515 373.528C158.819 373.784 159.067 374.056 159.259 374.344C159.451 374.632 159.571 374.904 159.619 375.16L159.091 375.352V372.4H161.563V384.232C161.563 385.24 161.411 386.128 161.107 386.896C160.819 387.68 160.395 388.336 159.835 388.864C159.275 389.408 158.595 389.816 157.795 390.088C156.995 390.376 156.091 390.52 155.083 390.52ZM155.179 382.96C155.963 382.96 156.659 382.776 157.267 382.408C157.875 382.04 158.347 381.536 158.683 380.896C159.019 380.256 159.187 379.52 159.187 378.688C159.187 377.856 159.011 377.12 158.659 376.48C158.323 375.824 157.851 375.312 157.243 374.944C156.651 374.576 155.963 374.392 155.179 374.392C154.411 374.392 153.723 374.584 153.115 374.968C152.523 375.336 152.051 375.848 151.699 376.504C151.363 377.144 151.195 377.872 151.195 378.688C151.195 379.504 151.363 380.24 151.699 380.896C152.051 381.536 152.523 382.04 153.115 382.408C153.723 382.776 154.411 382.96 155.179 382.96ZM170.909 385.24C169.613 385.24 168.461 384.968 167.453 384.424C166.461 383.864 165.677 383.104 165.101 382.144C164.541 381.184 164.261 380.08 164.261 378.832C164.261 377.84 164.421 376.936 164.741 376.12C165.061 375.304 165.501 374.6 166.061 374.008C166.637 373.4 167.317 372.936 168.101 372.616C168.901 372.28 169.765 372.112 170.693 372.112C171.509 372.112 172.269 372.272 172.973 372.592C173.677 372.896 174.285 373.32 174.797 373.864C175.325 374.408 175.725 375.056 175.997 375.808C176.285 376.544 176.421 377.352 176.405 378.232L176.381 379.288H166.085L165.533 377.32H174.245L173.885 377.728V377.152C173.837 376.624 173.661 376.152 173.357 375.736C173.053 375.32 172.669 374.992 172.205 374.752C171.741 374.512 171.237 374.392 170.693 374.392C169.829 374.392 169.101 374.56 168.509 374.896C167.917 375.216 167.469 375.696 167.165 376.336C166.861 376.96 166.709 377.736 166.709 378.664C166.709 379.544 166.893 380.312 167.261 380.968C167.629 381.608 168.149 382.104 168.821 382.456C169.493 382.808 170.269 382.984 171.149 382.984C171.773 382.984 172.349 382.88 172.877 382.672C173.421 382.464 174.005 382.088 174.629 381.544L175.877 383.296C175.493 383.68 175.021 384.016 174.461 384.304C173.917 384.592 173.333 384.824 172.709 385C172.101 385.16 171.501 385.24 170.909 385.24ZM179.043 385V372.4H181.539V375.088L181.083 375.376C181.211 374.96 181.411 374.56 181.683 374.176C181.971 373.792 182.315 373.456 182.715 373.168C183.131 372.864 183.571 372.624 184.035 372.448C184.515 372.272 185.003 372.184 185.499 372.184C186.219 372.184 186.851 372.304 187.395 372.544C187.939 372.784 188.387 373.144 188.739 373.624C189.091 374.104 189.347 374.704 189.507 375.424L189.123 375.328L189.291 374.92C189.467 374.552 189.707 374.208 190.011 373.888C190.331 373.552 190.691 373.256 191.091 373C191.491 372.744 191.915 372.544 192.363 372.4C192.811 372.256 193.251 372.184 193.683 372.184C194.627 372.184 195.403 372.376 196.011 372.76C196.635 373.144 197.099 373.728 197.403 374.512C197.723 375.296 197.883 376.272 197.883 377.44V385H195.387V377.584C195.387 376.864 195.291 376.28 195.099 375.832C194.923 375.368 194.651 375.024 194.283 374.8C193.915 374.576 193.443 374.464 192.867 374.464C192.419 374.464 191.995 374.544 191.595 374.704C191.211 374.848 190.875 375.056 190.587 375.328C190.299 375.6 190.075 375.92 189.915 376.288C189.755 376.64 189.675 377.032 189.675 377.464V385H187.179V377.536C187.179 376.88 187.083 376.328 186.891 375.88C186.699 375.416 186.419 375.064 186.051 374.824C185.683 374.584 185.235 374.464 184.707 374.464C184.259 374.464 183.843 374.544 183.459 374.704C183.075 374.848 182.739 375.056 182.451 375.328C182.163 375.584 181.939 375.896 181.779 376.264C181.619 376.616 181.539 377 181.539 377.416V385H179.043ZM205.393 385.24C204.337 385.24 203.385 385.056 202.537 384.688C201.689 384.32 200.985 383.776 200.425 383.056L202.105 381.616C202.585 382.176 203.105 382.584 203.665 382.84C204.241 383.08 204.889 383.2 205.609 383.2C205.897 383.2 206.161 383.168 206.401 383.104C206.657 383.024 206.873 382.912 207.049 382.768C207.241 382.624 207.385 382.456 207.481 382.264C207.577 382.056 207.625 381.832 207.625 381.592C207.625 381.176 207.473 380.84 207.169 380.584C207.009 380.472 206.753 380.352 206.401 380.224C206.065 380.08 205.625 379.936 205.081 379.792C204.153 379.552 203.393 379.28 202.801 378.976C202.209 378.672 201.753 378.328 201.433 377.944C201.193 377.64 201.017 377.312 200.905 376.96C200.793 376.592 200.737 376.192 200.737 375.76C200.737 375.232 200.849 374.752 201.073 374.32C201.313 373.872 201.633 373.488 202.033 373.168C202.449 372.832 202.929 372.576 203.473 372.4C204.033 372.224 204.625 372.136 205.249 372.136C205.841 372.136 206.425 372.216 207.001 372.376C207.593 372.536 208.137 372.768 208.633 373.072C209.129 373.376 209.545 373.736 209.881 374.152L208.465 375.712C208.161 375.408 207.825 375.144 207.457 374.92C207.105 374.68 206.745 374.496 206.377 374.368C206.009 374.24 205.673 374.176 205.369 374.176C205.033 374.176 204.729 374.208 204.457 374.272C204.185 374.336 203.953 374.432 203.761 374.56C203.585 374.688 203.449 374.848 203.353 375.04C203.257 375.232 203.209 375.448 203.209 375.688C203.225 375.896 203.273 376.096 203.353 376.288C203.449 376.464 203.577 376.616 203.737 376.744C203.913 376.872 204.177 377.008 204.529 377.152C204.881 377.296 205.329 377.432 205.873 377.56C206.673 377.768 207.329 378 207.841 378.256C208.369 378.496 208.785 378.776 209.089 379.096C209.409 379.4 209.633 379.752 209.761 380.152C209.889 380.552 209.953 381 209.953 381.496C209.953 382.216 209.745 382.864 209.329 383.44C208.929 384 208.385 384.44 207.697 384.76C207.009 385.08 206.241 385.24 205.393 385.24Z" fill="#FAF9F6"/>
<ellipse cx="189.997" cy="185.601" rx="9.81861" ry="11.2213" fill="#F5D442"/>
<circle cx="189.997" cy="185.881" r="7.57436" fill="#435FAC"/>
<circle cx="189.997" cy="185.881" r="4.20798" fill="#FDFFFD"/>
<circle cx="190.278" cy="269.76" r="62.2781" fill="#5072B6"/>
<path d="M136.697 260.503C137.37 249.057 147.638 235.909 152.687 230.766C158.522 224.258 165.218 221.696 167.836 221.228C169.519 220.854 173.334 220.443 175.13 221.789C176.925 223.136 175.13 224.969 174.008 225.717C171.202 227.68 163.572 233.291 155.492 240.024C147.413 246.757 141.84 258.726 140.063 263.869C138.661 267.516 136.024 271.948 136.697 260.503Z" fill="#6F91C9"/>
<path d="M221.417 296.972C244.982 272.51 224.129 229.551 210.757 211.129C238.53 217.301 271.913 265.833 239.371 307.352C213.338 340.567 175.971 332.412 160.542 324.183C171.015 325.306 197.853 321.434 221.417 296.972Z" fill="#435FAC"/>
<ellipse cx="190.559" cy="272.846" rx="30.0169" ry="35.6275" fill="#FDFFFD"/>
<ellipse cx="190.278" cy="269.48" rx="21.8815" ry="19.3567" fill="#83A4D2"/>
<ellipse cx="190.559" cy="269.76" rx="9.81861" ry="7.85489" fill="#292D27"/>
<circle cx="189.998" cy="185.881" r="1.96372" fill="#292D27"/>
<ellipse cx="189.998" cy="201.03" rx="5.89117" ry="7.01329" fill="#F5D442"/>
<path d="M192.242 207.202V215.337" stroke="#F5D442" stroke-width="2" stroke-linecap="round"/>
<path d="M190.997 207.763C190.997 207.21 190.549 206.763 189.997 206.763C189.445 206.763 188.997 207.21 188.997 207.763H189.997H190.997ZM189.997 207.763H188.997V215.337H189.997H190.997V207.763H189.997Z" fill="#F5D442"/>
<path d="M188.753 207.202C188.753 206.649 188.305 206.202 187.753 206.202C187.201 206.202 186.753 206.649 186.753 207.202H187.753H188.753ZM187.753 207.202H186.753V215.618H187.753H188.753V207.202H187.753Z" fill="#F5D442"/>
<path d="M189.997 174.66C190.932 172.509 191.063 167.142 184.106 162.878C177.149 158.614 174.661 153.994 174.287 152.217C173.165 149.132 172.155 140.996 177.093 133.141C182.03 125.286 192.428 122.762 197.01 122.481C207.39 121.733 232.021 121.303 247.506 125.567C266.863 130.897 275.279 136.508 279.767 142.679C283.358 147.617 281.825 155.771 280.609 159.231C279.767 161.943 275.728 167.422 266.302 167.647C256.876 167.871 248.348 164.374 245.262 162.597C240.867 159.698 228.542 155.416 214.403 161.475C200.265 167.534 194.486 173.351 193.364 175.502" stroke="#F5D442" stroke-width="2"/>
<ellipse cx="190.698" cy="220.309" rx="8.52041" ry="4.92472" transform="rotate(-4.16693 190.698 220.309)" fill="#292D27"/>
<ellipse cx="190.083" cy="219.675" rx="8.24925" ry="4.64481" transform="rotate(-4.16693 190.083 219.675)" fill="#FDFFFD"/>
</svg>
