<svg width="395" height="491" viewBox="0 0 395 491" fill="none" xmlns="http://www.w3.org/2000/svg">
<rect width="394.099" height="490.871" rx="20" fill="#202020" fill-opacity="0.5"/>
<path d="M41.12 49.64C43.3867 49.8533 45.84 49.96 48.48 49.96C51.1467 49.96 52.8 49.9867 53.44 50.04C54.1067 50.0667 54.8267 50.16 55.6 50.32C56.3733 50.48 56.9733 50.72 57.4 51.04C58.4667 51.76 59 52.8667 59 54.36C59 55.8267 58.48 57.1733 57.44 58.4C56.4 59.6 55.1333 60.5067 53.64 61.12V61.28C55.56 61.28 57.12 61.7333 58.32 62.64C59.52 63.52 60.12 64.8267 60.12 66.56C60.12 68.6933 59.12 70.7467 57.12 72.72C55.12 74.6933 52.96 75.9867 50.64 76.6C48.9867 76.6 47.04 76.0933 44.8 75.08C44.3467 75.7733 44.04 76.3733 43.88 76.88L43.04 76.68C43.68 73.7733 44 69.2133 44 63C44 60.6267 43.8933 56.9867 43.68 52.08C40.72 52.1333 38.8267 52.56 38 53.36C37.8133 53.7333 37.72 54.32 37.72 55.12C37.72 55.92 37.8533 56.4667 38.12 56.76L38.08 57.04C37.4133 57.44 36.7467 58 36.08 58.72C35.76 58.6933 35.5067 58.56 35.32 58.32C35.1067 58.08 35 57.8 35 57.48C35 56.2533 35.7067 54.8 37.12 53.12C38.5067 51.44 39.84 50.28 41.12 49.64ZM49.52 60.72C51.4933 60.72 52.92 60.44 53.8 59.88C54.76 58.8133 55.24 57.4667 55.24 55.84C55.24 54.1867 54.7867 53.1333 53.88 52.68C53 52.2 51.84 51.96 50.4 51.96C48.9867 51.96 47.9867 52 47.4 52.08C47.1867 54.7733 47.08 58.28 47.08 62.6C47.08 66.92 47.1467 70.2533 47.28 72.6C48.6667 73.3467 50.1467 73.72 51.72 73.72C53.32 73.72 54.5867 73.4 55.52 72.76C56.1333 71.4533 56.44 69.9867 56.44 68.36C56.44 64.2533 53.9067 62.2 48.84 62.2L49.04 60.72H49.52ZM72.5669 76.48C69.9269 76.48 67.7935 75.6533 66.1669 74C64.5402 72.32 63.7269 70.08 63.7269 67.28C63.7269 64.48 64.5802 61.8533 66.2869 59.4C67.9935 56.9467 70.2202 55.3733 72.9669 54.68C75.7135 54.68 77.8069 55.4667 79.2469 57.04C80.6869 58.5867 81.4069 60.8 81.4069 63.68C81.4069 66.56 80.6202 69.16 79.0469 71.48C77.5002 73.8 75.3402 75.4667 72.5669 76.48ZM71.8869 57.12C70.6869 57.12 69.6469 57.4533 68.7669 58.12C67.6735 59.9867 67.1269 62.3333 67.1269 65.16C67.1269 68.4133 68.0335 70.9067 69.8469 72.64C70.8069 73.5733 71.9402 74.04 73.2469 74.04C74.5535 74.04 75.6069 73.6933 76.4069 73C77.4735 71.1333 78.0069 68.8533 78.0069 66.16C78.0069 63.4667 77.5269 61.2933 76.5669 59.64C75.6069 57.96 74.0469 57.12 71.8869 57.12ZM95.1816 73.76C95.1816 72.1067 94.7682 69.64 93.9416 66.36C93.1149 63.0533 92.1949 59.8533 91.1816 56.76L91.0216 56.8L90.0216 64.24C89.5949 67.3067 89.3816 70.0667 89.3816 72.52C89.3816 74.0133 89.8482 75.0133 90.7816 75.52L90.6216 76.2C89.8216 76.0667 88.7682 76 87.4616 76C86.1816 76 84.7682 76.1067 83.2216 76.32L83.0616 75.28C83.9682 74.9867 84.8216 74.7733 85.6216 74.64L89.3416 56.4C87.9549 56.16 86.9282 55.9467 86.2616 55.76L86.3816 54.72C88.3016 55.0133 90.0749 55.16 91.7016 55.16C93.3549 55.16 94.6349 55.0667 95.5416 54.88L95.6216 55.56C94.9016 55.7467 94.5416 56.0533 94.5416 56.48C94.5416 57.0667 95.3682 60.4533 97.0216 66.64L97.9016 69.64L98.1816 69.56C98.1816 68.8667 99.3949 64.52 101.822 56.52C101.822 56.0667 101.462 55.7467 100.742 55.56L100.822 54.88C101.728 55.0667 103.008 55.16 104.662 55.16C106.342 55.16 108.128 55.0133 110.022 54.72L110.142 55.76C109.422 55.9467 108.502 56.1467 107.382 56.36C107.302 57 107.262 57.9467 107.262 59.2C107.262 60.4267 107.435 62.96 107.782 66.8C108.128 70.64 108.448 73.28 108.742 74.72C109.728 74.8533 110.742 75.04 111.782 75.28L111.662 76.28C110.275 76.0933 108.728 76 107.022 76C105.342 76 103.822 76.1067 102.462 76.32L102.302 75.28C103.182 75.0133 104.128 74.8133 105.142 74.68C105.062 68.3867 104.635 62.4533 103.862 56.88H103.742C100.995 64.9867 99.5282 70.24 99.3416 72.64C98.7816 72.8267 98.1282 73.1733 97.3816 73.68C96.6349 74.16 96.0616 74.64 95.6616 75.12L95.1816 74.8V73.76ZM113.567 55.24L123.127 54.96C125.74 54.96 127.487 55.28 128.367 55.92C129.22 56.5067 129.647 57.4133 129.647 58.64C129.647 59.84 129.207 60.9333 128.327 61.92C127.474 62.88 126.42 63.6 125.167 64.08V64.24C126.767 64.24 128.06 64.5867 129.047 65.28C130.034 65.9467 130.527 67.0533 130.527 68.6C130.527 70.12 129.674 71.6933 127.967 73.32C126.26 74.92 124.514 75.9733 122.727 76.48C122.087 76.48 121.207 76.3467 120.087 76.08C118.994 75.8133 118.1 75.5467 117.407 75.28C117.114 75.6267 116.847 76.12 116.607 76.76L115.767 76.56C116.274 74.1867 116.527 70.84 116.527 66.52C116.527 62.1733 116.407 58.92 116.167 56.76C115.26 56.4133 114.394 56.24 113.567 56.24V55.24ZM121.447 63.68C123.1 63.68 124.3 63.4533 125.047 63C125.714 62.1733 126.047 61.12 126.047 59.84C126.047 57.52 124.78 56.36 122.247 56.36C121.367 56.36 120.554 56.5067 119.807 56.8C119.62 58.6133 119.527 61.4 119.527 65.16C119.527 68.92 119.58 71.5467 119.687 73.04C120.78 73.6267 121.98 73.92 123.287 73.92C124.62 73.92 125.634 73.6667 126.327 73.16C126.78 72.2533 127.007 71.16 127.007 69.88C127.007 68.12 126.487 66.88 125.447 66.16C124.407 65.44 122.9 65.08 120.927 65.08L121.087 63.68H121.447Z" fill="#FAF9F6"/>
<path d="M40.5415 379.36V376.912H47.4535V379.36H40.5415ZM54.7388 385.24C53.5548 385.24 52.5228 384.968 51.6428 384.424C50.7788 383.88 49.9628 382.968 49.1948 381.688L51.2108 380.416C51.6108 381.008 52.0028 381.496 52.3868 381.88C52.7868 382.248 53.1948 382.52 53.6108 382.696C54.0268 382.872 54.4668 382.96 54.9308 382.96C55.4908 382.96 56.0108 382.824 56.4908 382.552C56.9708 382.264 57.3548 381.872 57.6428 381.376C57.9308 380.88 58.0748 380.32 58.0748 379.696C58.0748 379.072 57.9628 378.544 57.7388 378.112C57.5148 377.664 57.1868 377.328 56.7548 377.104C56.3228 376.864 55.8108 376.744 55.2188 376.744C54.9468 376.744 54.6588 376.776 54.3548 376.84C54.0668 376.888 53.7548 376.968 53.4188 377.08C53.0828 377.176 52.7148 377.304 52.3148 377.464L51.5948 375.568L56.7788 369.856L57.2828 370.6H50.1308V368.2H59.7548L60.2348 369.16L54.7388 375.256L54.1388 374.632C54.2668 374.568 54.4748 374.512 54.7628 374.464C55.0668 374.4 55.3148 374.368 55.5068 374.368C56.2108 374.368 56.8668 374.504 57.4748 374.776C58.0988 375.032 58.6348 375.4 59.0828 375.88C59.5468 376.344 59.9068 376.896 60.1628 377.536C60.4348 378.16 60.5708 378.832 60.5708 379.552C60.5708 380.64 60.3068 381.616 59.7788 382.48C59.2668 383.328 58.5708 384 57.6908 384.496C56.8108 384.992 55.8268 385.24 54.7388 385.24ZM69.8245 385V372.4H72.3205V375.088L71.8645 375.376C71.9925 374.96 72.1925 374.56 72.4645 374.176C72.7525 373.792 73.0965 373.456 73.4965 373.168C73.9125 372.864 74.3525 372.624 74.8165 372.448C75.2965 372.272 75.7845 372.184 76.2805 372.184C77.0005 372.184 77.6325 372.304 78.1765 372.544C78.7205 372.784 79.1685 373.144 79.5205 373.624C79.8725 374.104 80.1285 374.704 80.2885 375.424L79.9045 375.328L80.0725 374.92C80.2485 374.552 80.4885 374.208 80.7925 373.888C81.1125 373.552 81.4725 373.256 81.8725 373C82.2725 372.744 82.6965 372.544 83.1445 372.4C83.5925 372.256 84.0325 372.184 84.4645 372.184C85.4085 372.184 86.1845 372.376 86.7925 372.76C87.4165 373.144 87.8805 373.728 88.1845 374.512C88.5045 375.296 88.6645 376.272 88.6645 377.44V385H86.1685V377.584C86.1685 376.864 86.0725 376.28 85.8805 375.832C85.7045 375.368 85.4325 375.024 85.0645 374.8C84.6965 374.576 84.2245 374.464 83.6485 374.464C83.2005 374.464 82.7765 374.544 82.3765 374.704C81.9925 374.848 81.6565 375.056 81.3685 375.328C81.0805 375.6 80.8565 375.92 80.6965 376.288C80.5365 376.64 80.4565 377.032 80.4565 377.464V385H77.9605V377.536C77.9605 376.88 77.8645 376.328 77.6725 375.88C77.4805 375.416 77.2005 375.064 76.8325 374.824C76.4645 374.584 76.0165 374.464 75.4885 374.464C75.0405 374.464 74.6245 374.544 74.2405 374.704C73.8565 374.848 73.5205 375.056 73.2325 375.328C72.9445 375.584 72.7205 375.896 72.5605 376.264C72.4005 376.616 72.3205 377 72.3205 377.416V385H69.8245ZM96.8221 385.24C95.7821 385.24 94.8301 384.952 93.9661 384.376C93.1181 383.8 92.4381 383.016 91.9261 382.024C91.4141 381.032 91.1581 379.912 91.1581 378.664C91.1581 377.4 91.4141 376.28 91.9261 375.304C92.4541 374.312 93.1581 373.536 94.0381 372.976C94.9341 372.416 95.9341 372.136 97.0381 372.136C97.6941 372.136 98.2941 372.232 98.8381 372.424C99.3821 372.616 99.8541 372.888 100.254 373.24C100.67 373.576 101.006 373.968 101.262 374.416C101.534 374.864 101.702 375.344 101.766 375.856L101.214 375.664V372.4H103.71V385H101.214V382L101.79 381.832C101.694 382.264 101.494 382.688 101.19 383.104C100.902 383.504 100.526 383.864 100.062 384.184C99.6141 384.504 99.1101 384.76 98.5501 384.952C98.0061 385.144 97.4301 385.24 96.8221 385.24ZM97.4701 382.96C98.2221 382.96 98.8861 382.776 99.4621 382.408C100.038 382.04 100.486 381.536 100.806 380.896C101.142 380.24 101.31 379.496 101.31 378.664C101.31 377.848 101.142 377.12 100.806 376.48C100.486 375.84 100.038 375.336 99.4621 374.968C98.8861 374.6 98.2221 374.416 97.4701 374.416C96.7341 374.416 96.0781 374.6 95.5021 374.968C94.9421 375.336 94.4941 375.84 94.1581 376.48C93.8381 377.12 93.6781 377.848 93.6781 378.664C93.6781 379.496 93.8381 380.24 94.1581 380.896C94.4941 381.536 94.9421 382.04 95.5021 382.408C96.0781 382.776 96.7341 382.96 97.4701 382.96ZM112.802 390.52C111.906 390.52 111.01 390.376 110.114 390.088C109.234 389.816 108.522 389.456 107.978 389.008L108.89 387.088C109.21 387.328 109.586 387.536 110.018 387.712C110.45 387.904 110.906 388.048 111.386 388.144C111.866 388.256 112.338 388.312 112.802 388.312C113.682 388.312 114.418 388.168 115.01 387.88C115.602 387.592 116.05 387.168 116.354 386.608C116.658 386.048 116.81 385.352 116.81 384.52V382.096L117.074 382.264C116.994 382.76 116.73 383.24 116.282 383.704C115.85 384.152 115.306 384.52 114.65 384.808C113.994 385.096 113.322 385.24 112.634 385.24C111.434 385.24 110.362 384.96 109.418 384.4C108.49 383.824 107.754 383.048 107.21 382.072C106.666 381.08 106.394 379.952 106.394 378.688C106.394 377.424 106.658 376.304 107.186 375.328C107.73 374.336 108.466 373.56 109.394 373C110.338 372.424 111.394 372.136 112.562 372.136C113.042 372.136 113.506 372.2 113.954 372.328C114.402 372.44 114.818 372.608 115.202 372.832C115.586 373.04 115.93 373.272 116.234 373.528C116.538 373.784 116.786 374.056 116.978 374.344C117.17 374.632 117.29 374.904 117.338 375.16L116.81 375.352V372.4H119.282V384.232C119.282 385.24 119.13 386.128 118.826 386.896C118.538 387.68 118.114 388.336 117.554 388.864C116.994 389.408 116.314 389.816 115.514 390.088C114.714 390.376 113.81 390.52 112.802 390.52ZM112.898 382.96C113.682 382.96 114.378 382.776 114.986 382.408C115.594 382.04 116.066 381.536 116.402 380.896C116.738 380.256 116.906 379.52 116.906 378.688C116.906 377.856 116.73 377.12 116.378 376.48C116.042 375.824 115.57 375.312 114.962 374.944C114.37 374.576 113.682 374.392 112.898 374.392C112.13 374.392 111.442 374.584 110.834 374.968C110.242 375.336 109.77 375.848 109.418 376.504C109.082 377.144 108.914 377.872 108.914 378.688C108.914 379.504 109.082 380.24 109.418 380.896C109.77 381.536 110.242 382.04 110.834 382.408C111.442 382.776 112.13 382.96 112.898 382.96ZM123.156 385V372.4H125.628V385H123.156ZM124.356 369.616C123.828 369.616 123.42 369.48 123.132 369.208C122.844 368.936 122.7 368.552 122.7 368.056C122.7 367.592 122.844 367.216 123.132 366.928C123.436 366.64 123.844 366.496 124.356 366.496C124.884 366.496 125.292 366.632 125.58 366.904C125.868 367.176 126.012 367.56 126.012 368.056C126.012 368.52 125.86 368.896 125.556 369.184C125.268 369.472 124.868 369.616 124.356 369.616ZM134.779 385.24C133.611 385.24 132.563 384.952 131.635 384.376C130.723 383.8 129.995 383.016 129.451 382.024C128.923 381.032 128.659 379.92 128.659 378.688C128.659 377.456 128.923 376.344 129.451 375.352C129.995 374.36 130.723 373.576 131.635 373C132.563 372.424 133.611 372.136 134.779 372.136C135.899 372.136 136.915 372.368 137.827 372.832C138.755 373.28 139.459 373.896 139.939 374.68L138.571 376.36C138.315 375.992 137.987 375.656 137.587 375.352C137.187 375.048 136.763 374.808 136.315 374.632C135.867 374.456 135.435 374.368 135.019 374.368C134.251 374.368 133.563 374.56 132.955 374.944C132.363 375.312 131.891 375.824 131.539 376.48C131.187 377.136 131.011 377.872 131.011 378.688C131.011 379.504 131.195 380.24 131.563 380.896C131.931 381.536 132.419 382.048 133.027 382.432C133.635 382.816 134.307 383.008 135.043 383.008C135.475 383.008 135.891 382.936 136.291 382.792C136.707 382.648 137.107 382.432 137.491 382.144C137.875 381.856 138.235 381.504 138.571 381.088L139.939 382.768C139.427 383.488 138.691 384.08 137.731 384.544C136.787 385.008 135.803 385.24 134.779 385.24ZM154.638 390.52C153.742 390.52 152.846 390.376 151.95 390.088C151.07 389.816 150.358 389.456 149.814 389.008L150.726 387.088C151.046 387.328 151.422 387.536 151.854 387.712C152.286 387.904 152.742 388.048 153.222 388.144C153.702 388.256 154.174 388.312 154.638 388.312C155.518 388.312 156.254 388.168 156.846 387.88C157.438 387.592 157.886 387.168 158.19 386.608C158.494 386.048 158.646 385.352 158.646 384.52V382.096L158.91 382.264C158.83 382.76 158.566 383.24 158.118 383.704C157.686 384.152 157.142 384.52 156.486 384.808C155.83 385.096 155.158 385.24 154.47 385.24C153.27 385.24 152.198 384.96 151.254 384.4C150.326 383.824 149.59 383.048 149.046 382.072C148.502 381.08 148.23 379.952 148.23 378.688C148.23 377.424 148.494 376.304 149.022 375.328C149.566 374.336 150.302 373.56 151.23 373C152.174 372.424 153.23 372.136 154.398 372.136C154.878 372.136 155.342 372.2 155.79 372.328C156.238 372.44 156.654 372.608 157.038 372.832C157.422 373.04 157.766 373.272 158.07 373.528C158.374 373.784 158.622 374.056 158.814 374.344C159.006 374.632 159.126 374.904 159.174 375.16L158.646 375.352V372.4H161.118V384.232C161.118 385.24 160.966 386.128 160.662 386.896C160.374 387.68 159.95 388.336 159.39 388.864C158.83 389.408 158.15 389.816 157.35 390.088C156.55 390.376 155.646 390.52 154.638 390.52ZM154.734 382.96C155.518 382.96 156.214 382.776 156.822 382.408C157.43 382.04 157.902 381.536 158.238 380.896C158.574 380.256 158.742 379.52 158.742 378.688C158.742 377.856 158.566 377.12 158.214 376.48C157.878 375.824 157.406 375.312 156.798 374.944C156.206 374.576 155.518 374.392 154.734 374.392C153.966 374.392 153.278 374.584 152.67 374.968C152.078 375.336 151.606 375.848 151.254 376.504C150.918 377.144 150.75 377.872 150.75 378.688C150.75 379.504 150.918 380.24 151.254 380.896C151.606 381.536 152.078 382.04 152.67 382.408C153.278 382.776 153.966 382.96 154.734 382.96ZM170.463 385.24C169.167 385.24 168.015 384.968 167.007 384.424C166.015 383.864 165.231 383.104 164.655 382.144C164.095 381.184 163.815 380.08 163.815 378.832C163.815 377.84 163.975 376.936 164.295 376.12C164.615 375.304 165.055 374.6 165.615 374.008C166.191 373.4 166.871 372.936 167.655 372.616C168.455 372.28 169.319 372.112 170.247 372.112C171.063 372.112 171.823 372.272 172.527 372.592C173.231 372.896 173.839 373.32 174.351 373.864C174.879 374.408 175.279 375.056 175.551 375.808C175.839 376.544 175.975 377.352 175.959 378.232L175.935 379.288H165.639L165.087 377.32H173.799L173.439 377.728V377.152C173.391 376.624 173.215 376.152 172.911 375.736C172.607 375.32 172.223 374.992 171.759 374.752C171.295 374.512 170.791 374.392 170.247 374.392C169.383 374.392 168.655 374.56 168.063 374.896C167.471 375.216 167.023 375.696 166.719 376.336C166.415 376.96 166.263 377.736 166.263 378.664C166.263 379.544 166.447 380.312 166.815 380.968C167.183 381.608 167.703 382.104 168.375 382.456C169.047 382.808 169.823 382.984 170.703 382.984C171.327 382.984 171.903 382.88 172.431 382.672C172.975 382.464 173.559 382.088 174.183 381.544L175.431 383.296C175.047 383.68 174.575 384.016 174.015 384.304C173.471 384.592 172.887 384.824 172.263 385C171.655 385.16 171.055 385.24 170.463 385.24ZM178.598 385V372.4H181.094V375.088L180.638 375.376C180.766 374.96 180.966 374.56 181.238 374.176C181.526 373.792 181.87 373.456 182.27 373.168C182.686 372.864 183.126 372.624 183.59 372.448C184.07 372.272 184.558 372.184 185.054 372.184C185.774 372.184 186.406 372.304 186.95 372.544C187.494 372.784 187.942 373.144 188.294 373.624C188.646 374.104 188.902 374.704 189.062 375.424L188.678 375.328L188.846 374.92C189.022 374.552 189.262 374.208 189.566 373.888C189.886 373.552 190.246 373.256 190.646 373C191.046 372.744 191.47 372.544 191.918 372.4C192.366 372.256 192.806 372.184 193.238 372.184C194.182 372.184 194.958 372.376 195.566 372.76C196.19 373.144 196.654 373.728 196.958 374.512C197.278 375.296 197.438 376.272 197.438 377.44V385H194.942V377.584C194.942 376.864 194.846 376.28 194.654 375.832C194.478 375.368 194.206 375.024 193.838 374.8C193.47 374.576 192.998 374.464 192.422 374.464C191.974 374.464 191.55 374.544 191.15 374.704C190.766 374.848 190.43 375.056 190.142 375.328C189.854 375.6 189.63 375.92 189.47 376.288C189.31 376.64 189.23 377.032 189.23 377.464V385H186.734V377.536C186.734 376.88 186.638 376.328 186.446 375.88C186.254 375.416 185.974 375.064 185.606 374.824C185.238 374.584 184.79 374.464 184.262 374.464C183.814 374.464 183.398 374.544 183.014 374.704C182.63 374.848 182.294 375.056 182.006 375.328C181.718 375.584 181.494 375.896 181.334 376.264C181.174 376.616 181.094 377 181.094 377.416V385H178.598ZM204.948 385.24C203.892 385.24 202.94 385.056 202.092 384.688C201.244 384.32 200.54 383.776 199.98 383.056L201.66 381.616C202.14 382.176 202.66 382.584 203.22 382.84C203.796 383.08 204.444 383.2 205.164 383.2C205.452 383.2 205.716 383.168 205.956 383.104C206.212 383.024 206.428 382.912 206.604 382.768C206.796 382.624 206.94 382.456 207.036 382.264C207.132 382.056 207.18 381.832 207.18 381.592C207.18 381.176 207.028 380.84 206.724 380.584C206.564 380.472 206.308 380.352 205.956 380.224C205.62 380.08 205.18 379.936 204.636 379.792C203.708 379.552 202.948 379.28 202.356 378.976C201.764 378.672 201.308 378.328 200.988 377.944C200.748 377.64 200.572 377.312 200.46 376.96C200.348 376.592 200.292 376.192 200.292 375.76C200.292 375.232 200.404 374.752 200.628 374.32C200.868 373.872 201.188 373.488 201.588 373.168C202.004 372.832 202.484 372.576 203.028 372.4C203.588 372.224 204.18 372.136 204.804 372.136C205.396 372.136 205.98 372.216 206.556 372.376C207.148 372.536 207.692 372.768 208.188 373.072C208.684 373.376 209.1 373.736 209.436 374.152L208.02 375.712C207.716 375.408 207.38 375.144 207.012 374.92C206.66 374.68 206.3 374.496 205.932 374.368C205.564 374.24 205.228 374.176 204.924 374.176C204.588 374.176 204.284 374.208 204.012 374.272C203.74 374.336 203.508 374.432 203.316 374.56C203.14 374.688 203.004 374.848 202.908 375.04C202.812 375.232 202.764 375.448 202.764 375.688C202.78 375.896 202.828 376.096 202.908 376.288C203.004 376.464 203.132 376.616 203.292 376.744C203.468 376.872 203.732 377.008 204.084 377.152C204.436 377.296 204.884 377.432 205.428 377.56C206.228 377.768 206.884 378 207.396 378.256C207.924 378.496 208.34 378.776 208.644 379.096C208.964 379.4 209.188 379.752 209.316 380.152C209.444 380.552 209.508 381 209.508 381.496C209.508 382.216 209.3 382.864 208.884 383.44C208.484 384 207.94 384.44 207.252 384.76C206.564 385.08 205.796 385.24 204.948 385.24Z" fill="#FAF9F6"/>
<path d="M162.848 126.182L152.102 143.582C152.102 144.861 151.59 148.29 149.543 151.77C146.984 156.12 147.24 164.308 147.24 168.402C147.24 171.677 146.046 170.96 145.449 170.193C144.084 168.231 141.099 163.796 140.076 161.749C139.052 159.702 137.943 159.872 137.517 160.214C136.408 161.067 133.525 163.335 130.864 165.587C128.203 167.839 127.708 167.037 127.794 166.355C128.05 163.796 128.715 158.064 129.329 155.608C129.943 153.151 129.244 152.537 128.817 152.537C127.708 152.452 124.57 152.282 120.885 152.282C117.201 152.282 117.815 151.258 118.582 150.746C119.947 149.637 123.29 147.01 125.747 145.373C128.203 143.735 128.476 142.644 128.306 142.302C127.794 141.364 126.002 138.771 122.932 135.906C119.862 133.04 120.8 132.494 121.653 132.579C123.785 132.835 128.664 133.5 131.12 134.114C133.576 134.729 134.02 133.859 133.935 133.347C133.764 132.409 133.167 129.458 132.144 125.159C131.12 120.86 132.399 121.15 133.167 121.833C134.702 123.368 138.08 126.796 139.308 128.229C140.536 129.662 141.867 129.168 142.378 128.741C145.705 125.329 152.511 118.608 153.125 119.018C153.893 119.53 153.125 123.368 153.125 126.182C153.125 128.997 153.381 128.229 159.266 125.159C163.974 122.702 163.616 124.818 162.848 126.182Z" fill="#FAE16C" stroke="#FAE16C" stroke-width="3" stroke-linecap="round" stroke-linejoin="bevel"/>
<path d="M183.063 152.282L181.271 171.472L218.117 170.96L215.047 149.723C202.765 142.763 188.607 148.529 183.063 152.282Z" fill="#5F686D"/>
<path d="M196.298 171.198L181.271 171.472L183.063 152.537C185.519 149.876 190.909 148.358 193.298 147.932L196.298 171.198Z" fill="#4B565A"/>
<path d="M211.464 170.704L209.673 147.42C211.515 147.829 214.023 149.126 215.046 149.723L218.117 170.96L211.464 170.704Z" fill="#8C959A"/>
<path d="M189.715 128.997C199.336 129.816 203.788 140.938 204.812 146.396C201.127 146.192 197.477 146.652 196.112 146.908C191.762 135.394 185.877 135.65 180.759 136.673C176.666 137.492 171.548 143.496 169.501 146.396C168.136 148.614 163.207 152.896 154.404 152.281C145.602 151.667 142.037 148.784 141.355 147.42C141.099 146.652 140.946 144.656 142.378 142.814C143.811 140.972 145.193 141.194 145.705 141.535C155.94 147.471 166.175 140.255 170.013 135.905C172.572 133.261 180.094 128.178 189.715 128.997Z" fill="#D5C5B3"/>
<path d="M148.008 143.326C148.264 145.714 149.338 149.672 151.59 151.514" stroke="black" stroke-linecap="round" stroke-linejoin="bevel"/>
<path d="M154.66 144.349C155.428 146.823 156.707 150.234 159.266 151.514" stroke="black" stroke-linecap="round" stroke-linejoin="bevel"/>
<path d="M161.569 142.558C162.763 144.435 164.998 148.136 166.431 148.955" stroke="black" stroke-linecap="round" stroke-linejoin="bevel"/>
<path d="M166.687 139.488C167.71 140.852 169.808 143.428 171.036 143.838" stroke="black" stroke-linecap="round" stroke-linejoin="bevel"/>
<path d="M173.851 133.603L176.665 138.209" stroke="black" stroke-linecap="round" stroke-linejoin="bevel"/>
<path d="M182.295 130.021C183.063 131.385 184.342 133.603 184.342 135.65" stroke="black" stroke-linecap="round" stroke-linejoin="bevel"/>
<path d="M192.785 130.276C192.785 131.982 192.478 135.343 191.25 138.208" stroke="black" stroke-linecap="round" stroke-linejoin="bevel"/>
<path d="M199.183 135.138C198.586 136.844 196.982 140 194.321 142.047" stroke="black" stroke-linecap="round" stroke-linejoin="bevel"/>
<path d="M122.676 247.467C121.448 189.127 173.083 169.169 199.438 169.169C222.722 169.169 277.991 180.939 275.944 249.514C274.307 304.373 225.964 318.77 201.997 319.111C176.068 319.538 123.904 305.806 122.676 247.467Z" fill="#5F686D"/>
<path d="M122.629 247.705C121.4 189.365 169.686 169.151 196.041 169.151C170.88 180.751 126.703 216.573 144.308 265.086C161.912 313.6 219.946 312.526 245.96 306.044C239.819 310.308 222.42 318.94 201.95 319.349C176.021 319.776 123.857 306.044 122.629 247.705Z" fill="#4B565A"/>
<path d="M246.775 197.827C233.265 181.246 218.885 172.496 211.209 169.937C239.867 172.496 257.266 188.871 264.942 201.921C272.619 214.971 275.433 225.717 275.945 252.328C276.354 273.617 262.81 291.221 255.987 297.362C257.778 295.059 266.989 271.007 267.501 251.561C268.013 232.114 263.663 218.553 246.775 197.827Z" fill="#8C959A"/>
<path d="M162.593 213.691C167.369 220.173 177.587 235.389 180.248 244.396" stroke="black" stroke-width="2" stroke-linecap="round" stroke-linejoin="bevel"/>
<path d="M185.109 213.179C178.286 217.273 163.053 228.89 156.707 242.605" stroke="black" stroke-width="2" stroke-linecap="round" stroke-linejoin="bevel"/>
<path d="M216.582 206.527C221.444 212.583 232.088 227.969 235.773 241.07" stroke="black" stroke-width="2" stroke-linecap="round" stroke-linejoin="bevel"/>
<path d="M241.914 206.015C233.982 212.924 216.992 228.481 212.488 235.441" stroke="black" stroke-width="2" stroke-linecap="round" stroke-linejoin="bevel"/>
<path d="M146.216 257.958C144.51 259.493 141.15 263.843 141.355 268.96" stroke="black" stroke-width="2" stroke-linecap="round" stroke-linejoin="bevel"/>
<path d="M166.175 278.939C164.333 269.523 167.284 260.857 168.99 257.702C172.674 256.473 180.419 255.484 183.83 255.143C184.769 255.996 186.696 260.516 186.901 271.775C187.106 283.033 182.722 286.701 180.504 287.127C176.495 288.321 168.017 288.355 166.175 278.939Z" fill="#E88E97"/>
<path d="M142.635 263.843C161.569 257.616 211.721 247.364 260.849 256.166" stroke="black" stroke-width="2" stroke-linecap="round" stroke-linejoin="bevel"/>
<path d="M258.545 250.793C259.654 252.414 261.82 256.78 261.615 261.284" stroke="black" stroke-width="2" stroke-linecap="round" stroke-linejoin="bevel"/>
<path d="M176.922 256.166C176.325 258.299 175.182 265.071 175.387 275.101" stroke="black" stroke-width="2" stroke-linecap="round" stroke-linejoin="bevel"/>
</svg>
