<svg width="395" height="491" viewBox="0 0 395 491" fill="none" xmlns="http://www.w3.org/2000/svg">
<rect width="394.099" height="490.871" rx="20" fill="#202020" fill-opacity="0.5"/>
<path d="M41.12 49.64C43.3867 49.8533 45.84 49.96 48.48 49.96C51.1467 49.96 52.8 49.9867 53.44 50.04C54.1067 50.0667 54.8267 50.16 55.6 50.32C56.3733 50.48 56.9733 50.72 57.4 51.04C58.4667 51.76 59 52.8667 59 54.36C59 55.8267 58.48 57.1733 57.44 58.4C56.4 59.6 55.1333 60.5067 53.64 61.12V61.28C55.56 61.28 57.12 61.7333 58.32 62.64C59.52 63.52 60.12 64.8267 60.12 66.56C60.12 68.6933 59.12 70.7467 57.12 72.72C55.12 74.6933 52.96 75.9867 50.64 76.6C48.9867 76.6 47.04 76.0933 44.8 75.08C44.3467 75.7733 44.04 76.3733 43.88 76.88L43.04 76.68C43.68 73.7733 44 69.2133 44 63C44 60.6267 43.8933 56.9867 43.68 52.08C40.72 52.1333 38.8267 52.56 38 53.36C37.8133 53.7333 37.72 54.32 37.72 55.12C37.72 55.92 37.8533 56.4667 38.12 56.76L38.08 57.04C37.4133 57.44 36.7467 58 36.08 58.72C35.76 58.6933 35.5067 58.56 35.32 58.32C35.1067 58.08 35 57.8 35 57.48C35 56.2533 35.7067 54.8 37.12 53.12C38.5067 51.44 39.84 50.28 41.12 49.64ZM49.52 60.72C51.4933 60.72 52.92 60.44 53.8 59.88C54.76 58.8133 55.24 57.4667 55.24 55.84C55.24 54.1867 54.7867 53.1333 53.88 52.68C53 52.2 51.84 51.96 50.4 51.96C48.9867 51.96 47.9867 52 47.4 52.08C47.1867 54.7733 47.08 58.28 47.08 62.6C47.08 66.92 47.1467 70.2533 47.28 72.6C48.6667 73.3467 50.1467 73.72 51.72 73.72C53.32 73.72 54.5867 73.4 55.52 72.76C56.1333 71.4533 56.44 69.9867 56.44 68.36C56.44 64.2533 53.9067 62.2 48.84 62.2L49.04 60.72H49.52ZM63.7669 55.24L72.9669 54.96C75.3669 54.96 77.1669 55.32 78.3669 56.04C79.5669 56.7333 80.1669 58.0133 80.1669 59.88C80.1669 61.16 79.7669 62.2933 78.9669 63.28C78.1935 64.2667 77.1669 65 75.8869 65.48L80.3669 74.64C81.2735 74.8 82.1269 74.9867 82.9269 75.2L82.7669 76.28C81.6469 76.0933 80.3802 76 78.9669 76C77.5802 76 76.4869 76.0667 75.6869 76.2L75.5269 75.56C75.8735 75.2133 76.0469 74.64 76.0469 73.84C76.0469 72.2133 75.1135 69.6 73.2469 66C72.6869 65.8933 72.0335 65.84 71.2869 65.84L71.3669 64.68H71.7669C74.9135 64.68 76.4869 63.24 76.4869 60.36C76.4869 57.6933 75.1402 56.36 72.4469 56.36C71.5402 56.36 70.7269 56.5067 70.0069 56.8C69.8202 58.56 69.7269 61.5733 69.7269 65.84C69.7269 70.1067 69.8469 73.0533 70.0869 74.68C71.2602 74.8133 72.3535 75.0133 73.3669 75.28L73.2469 76.28C71.8602 76.0933 70.3002 76 68.5669 76C66.8602 76 65.3269 76.1067 63.9669 76.32L63.8069 75.28C64.5535 75.04 65.3935 74.84 66.3269 74.68C66.5935 72.68 66.7269 69.5733 66.7269 65.36C66.7269 61.12 66.6069 58.1867 66.3669 56.56C65.3269 56.2133 64.4602 56.04 63.7669 56.04V55.24ZM93.6216 76.48C90.9816 76.48 88.8482 75.6533 87.2216 74C85.5949 72.32 84.7816 70.08 84.7816 67.28C84.7816 64.48 85.6349 61.8533 87.3416 59.4C89.0482 56.9467 91.2749 55.3733 94.0216 54.68C96.7682 54.68 98.8616 55.4667 100.302 57.04C101.742 58.5867 102.462 60.8 102.462 63.68C102.462 66.56 101.675 69.16 100.102 71.48C98.5549 73.8 96.3949 75.4667 93.6216 76.48ZM92.9416 57.12C91.7416 57.12 90.7016 57.4533 89.8216 58.12C88.7282 59.9867 88.1816 62.3333 88.1816 65.16C88.1816 68.4133 89.0882 70.9067 90.9016 72.64C91.8616 73.5733 92.9949 74.04 94.3016 74.04C95.6082 74.04 96.6616 73.6933 97.4616 73C98.5282 71.1333 99.0616 68.8533 99.0616 66.16C99.0616 63.4667 98.5816 61.2933 97.6216 59.64C96.6616 57.96 95.1016 57.12 92.9416 57.12ZM115.516 76.28C114.13 76.0933 112.57 76 110.836 76C109.13 76 107.596 76.1067 106.236 76.32L106.076 75.28C106.93 75.0133 107.73 74.8133 108.476 74.68C108.716 72.6 108.836 69.88 108.836 66.52V64.64C108.836 61.0667 108.703 58.32 108.436 56.4C107.716 56.32 106.85 56.1067 105.836 55.76L105.956 54.72C107.476 55.0133 109.063 55.16 110.716 55.16C112.396 55.16 113.596 55.0667 114.316 54.88L114.396 55.56C113.676 55.7467 113.316 56.0533 113.316 56.48C113.316 56.8 113.623 57.48 114.236 58.52C114.876 59.5333 115.49 60.52 116.076 61.48C117.836 64.28 119.916 67.72 122.316 71.8L122.436 71.72V66.84C122.436 63.2667 122.25 60.5867 121.876 58.8C121.503 56.9867 120.863 55.9333 119.956 55.64L120.036 54.96C120.73 55.0933 121.77 55.16 123.156 55.16C124.543 55.16 125.97 55.0133 127.436 54.72L127.556 55.76C126.463 56.1067 125.543 56.32 124.796 56.4C124.53 58.5333 124.396 61.28 124.396 64.64V66.52C124.396 70.5733 124.53 73.32 124.796 74.76C125.916 74.9467 126.81 75.16 127.476 75.4L127.356 76.44C126.023 76.1467 124.77 76 123.596 76C122.423 76 121.516 76.0533 120.876 76.16C120.876 75.5733 120.463 74.5867 119.636 73.2C118.836 71.8133 118.103 70.5867 117.436 69.52C115.276 66.0267 113.156 62.48 111.076 58.88L110.916 58.96V64.32C110.916 69.6267 111.316 73.08 112.116 74.68C113.316 74.8133 114.49 75.0133 115.636 75.28L115.516 76.28ZM142.438 55.52C143.611 55.52 144.638 55.12 145.518 54.32L146.358 54.96C145.611 55.6267 144.758 56.7867 143.798 58.44L135.118 73.44L135.238 73.52H140.038C141.238 73.52 142.105 73.32 142.638 72.92C142.771 72.04 142.838 71.12 142.838 70.16H143.878C144.038 72.5867 144.865 74.56 146.358 76.08L145.558 76.64C145.451 76.48 145.238 76.2933 144.918 76.08C141.878 75.5733 138.198 75.32 133.878 75.32C132.091 75.32 130.825 75.76 130.078 76.64L129.238 75.96C130.438 74.76 131.425 73.52 132.198 72.24L141.278 57.44L141.198 57.36H136.878C135.571 57.36 134.451 57.56 133.518 57.96C133.358 58.8933 133.091 59.7867 132.718 60.64L131.758 60.52C131.811 59.72 131.838 58.9867 131.838 58.32C131.838 57.6533 131.731 56.9067 131.518 56.08C131.091 55.84 130.638 55.6667 130.158 55.56L130.238 54.68C130.691 54.68 132.385 54.8267 135.318 55.12C138.278 55.3867 140.651 55.52 142.438 55.52ZM151.935 66.12C152.015 68.4933 152.455 70.3467 153.255 71.68C154.055 73.0133 155.415 73.68 157.335 73.68C159.255 73.68 161.029 72.8667 162.655 71.24L163.215 71.8C161.429 74.0667 159.282 75.6267 156.775 76.48C154.189 76.48 152.162 75.6667 150.695 74.04C149.229 72.3867 148.495 70.1733 148.495 67.4C148.495 64.6 149.362 61.9733 151.095 59.52C152.829 57.0667 155.042 55.4533 157.735 54.68C159.682 54.68 161.882 54.88 164.335 55.28L164.295 56.16C163.789 56.16 163.309 56.2533 162.855 56.44C162.349 57.64 162.015 59.0667 161.855 60.72H160.855C160.642 59.8133 160.535 58.88 160.535 57.92C159.522 57.4133 158.322 57.16 156.935 57.16C155.549 57.16 154.402 57.5333 153.495 58.28C152.589 59.9333 152.069 61.9067 151.935 64.2C153.055 64.3867 154.255 64.48 155.535 64.48C157.749 64.48 159.082 64.0133 159.535 63.08L160.375 63.2C160.135 64 160.015 64.7867 160.015 65.56C160.015 66.3333 160.109 67.28 160.295 68.4L159.335 68.56C159.042 67.76 158.829 66.9333 158.695 66.08C157.629 65.9733 156.562 65.92 155.495 65.92C154.455 65.92 153.269 65.9867 151.935 66.12ZM184.333 49.36C187.586 49.36 190.039 50.3333 191.693 52.28C193.373 54.2267 194.213 57.0133 194.213 60.64C194.213 64.24 193.293 67.4933 191.453 70.4C189.639 73.28 187.106 75.3467 183.853 76.6C180.733 76.6 178.226 75.5733 176.333 73.52C174.439 71.44 173.493 68.7333 173.493 65.4C173.493 59.96 175.466 55.4533 179.413 51.88L179.893 52.2C177.999 54.9467 177.053 58.36 177.053 62.44C177.053 65.3467 177.719 67.96 179.053 70.28C180.413 72.5733 182.293 73.72 184.693 73.72C186.266 73.72 187.586 73.2533 188.653 72.32C189.986 69.8667 190.653 66.96 190.653 63.6C190.653 59.2 189.813 55.9733 188.133 53.92C187.226 52.8 186.093 52.24 184.733 52.24C184.039 52.24 183.399 52.44 182.813 52.84C182.226 53.24 181.813 53.76 181.573 54.4C181.573 54.9333 181.693 55.56 181.933 56.28C182.173 56.9733 182.479 57.4133 182.853 57.6L182.933 57.88C182.346 58.6 181.906 59.36 181.613 60.16C181.559 60.1867 181.453 60.2 181.293 60.2C180.333 60.2 179.853 59.3467 179.853 57.64C179.853 54.76 181.346 52 184.333 49.36ZM197.595 55.24L206.795 54.96C209.195 54.96 210.995 55.32 212.195 56.04C213.395 56.7333 213.995 58.0133 213.995 59.88C213.995 61.16 213.595 62.2933 212.795 63.28C212.022 64.2667 210.995 65 209.715 65.48L214.195 74.64C215.102 74.8 215.955 74.9867 216.755 75.2L216.595 76.28C215.475 76.0933 214.208 76 212.795 76C211.408 76 210.315 76.0667 209.515 76.2L209.355 75.56C209.702 75.2133 209.875 74.64 209.875 73.84C209.875 72.2133 208.942 69.6 207.075 66C206.515 65.8933 205.862 65.84 205.115 65.84L205.195 64.68H205.595C208.742 64.68 210.315 63.24 210.315 60.36C210.315 57.6933 208.968 56.36 206.275 56.36C205.368 56.36 204.555 56.5067 203.835 56.8C203.648 58.56 203.555 61.5733 203.555 65.84C203.555 70.1067 203.675 73.0533 203.915 74.68C205.088 74.8133 206.182 75.0133 207.195 75.28L207.075 76.28C205.688 76.0933 204.128 76 202.395 76C200.688 76 199.155 76.1067 197.795 76.32L197.635 75.28C198.382 75.04 199.222 74.84 200.155 74.68C200.422 72.68 200.555 69.5733 200.555 65.36C200.555 61.12 200.435 58.1867 200.195 56.56C199.155 56.2133 198.288 56.04 197.595 56.04V55.24ZM222.17 66.12C222.25 68.4933 222.69 70.3467 223.49 71.68C224.29 73.0133 225.65 73.68 227.57 73.68C229.49 73.68 231.263 72.8667 232.89 71.24L233.45 71.8C231.663 74.0667 229.516 75.6267 227.01 76.48C224.423 76.48 222.396 75.6667 220.93 74.04C219.463 72.3867 218.73 70.1733 218.73 67.4C218.73 64.6 219.596 61.9733 221.33 59.52C223.063 57.0667 225.276 55.4533 227.97 54.68C229.916 54.68 232.116 54.88 234.57 55.28L234.53 56.16C234.023 56.16 233.543 56.2533 233.09 56.44C232.583 57.64 232.25 59.0667 232.09 60.72H231.09C230.876 59.8133 230.77 58.88 230.77 57.92C229.756 57.4133 228.556 57.16 227.17 57.16C225.783 57.16 224.636 57.5333 223.73 58.28C222.823 59.9333 222.303 61.9067 222.17 64.2C223.29 64.3867 224.49 64.48 225.77 64.48C227.983 64.48 229.316 64.0133 229.77 63.08L230.61 63.2C230.37 64 230.25 64.7867 230.25 65.56C230.25 66.3333 230.343 67.28 230.53 68.4L229.57 68.56C229.276 67.76 229.063 66.9333 228.93 66.08C227.863 65.9733 226.796 65.92 225.73 65.92C224.69 65.92 223.503 65.9867 222.17 66.12Z" fill="#FAF9F6"/>
<path d="M40.3495 379.36V377.2H52.3735V379.36H40.3495ZM45.0775 383.992V372.4H47.5975V383.992H45.0775ZM58.6572 383.824V370.192L59.5452 370.864L56.2332 372.616L55.5372 370.36L60.0252 367.96H61.2732V383.824H58.6572ZM55.9932 385V382.504H64.0092V385H55.9932ZM73.8558 385V372.4H76.3518V375.088L75.8958 375.376C76.0238 374.96 76.2238 374.56 76.4958 374.176C76.7838 373.792 77.1278 373.456 77.5278 373.168C77.9438 372.864 78.3838 372.624 78.8478 372.448C79.3278 372.272 79.8158 372.184 80.3118 372.184C81.0318 372.184 81.6638 372.304 82.2078 372.544C82.7518 372.784 83.1998 373.144 83.5518 373.624C83.9038 374.104 84.1598 374.704 84.3198 375.424L83.9358 375.328L84.1038 374.92C84.2798 374.552 84.5198 374.208 84.8238 373.888C85.1438 373.552 85.5038 373.256 85.9038 373C86.3038 372.744 86.7278 372.544 87.1758 372.4C87.6238 372.256 88.0638 372.184 88.4958 372.184C89.4398 372.184 90.2158 372.376 90.8238 372.76C91.4478 373.144 91.9118 373.728 92.2158 374.512C92.5358 375.296 92.6958 376.272 92.6958 377.44V385H90.1998V377.584C90.1998 376.864 90.1038 376.28 89.9118 375.832C89.7358 375.368 89.4638 375.024 89.0958 374.8C88.7278 374.576 88.2558 374.464 87.6798 374.464C87.2318 374.464 86.8078 374.544 86.4078 374.704C86.0238 374.848 85.6878 375.056 85.3998 375.328C85.1118 375.6 84.8878 375.92 84.7278 376.288C84.5678 376.64 84.4878 377.032 84.4878 377.464V385H81.9918V377.536C81.9918 376.88 81.8958 376.328 81.7038 375.88C81.5118 375.416 81.2318 375.064 80.8638 374.824C80.4958 374.584 80.0478 374.464 79.5198 374.464C79.0718 374.464 78.6558 374.544 78.2718 374.704C77.8878 374.848 77.5518 375.056 77.2638 375.328C76.9758 375.584 76.7518 375.896 76.5918 376.264C76.4318 376.616 76.3518 377 76.3518 377.416V385H73.8558ZM100.853 385.24C99.8133 385.24 98.8613 384.952 97.9973 384.376C97.1493 383.8 96.4693 383.016 95.9573 382.024C95.4453 381.032 95.1893 379.912 95.1893 378.664C95.1893 377.4 95.4453 376.28 95.9573 375.304C96.4853 374.312 97.1893 373.536 98.0693 372.976C98.9653 372.416 99.9653 372.136 101.069 372.136C101.725 372.136 102.325 372.232 102.869 372.424C103.413 372.616 103.885 372.888 104.285 373.24C104.701 373.576 105.037 373.968 105.293 374.416C105.565 374.864 105.733 375.344 105.797 375.856L105.245 375.664V372.4H107.741V385H105.245V382L105.821 381.832C105.725 382.264 105.525 382.688 105.221 383.104C104.933 383.504 104.557 383.864 104.093 384.184C103.645 384.504 103.141 384.76 102.581 384.952C102.037 385.144 101.461 385.24 100.853 385.24ZM101.501 382.96C102.253 382.96 102.917 382.776 103.493 382.408C104.069 382.04 104.517 381.536 104.837 380.896C105.173 380.24 105.341 379.496 105.341 378.664C105.341 377.848 105.173 377.12 104.837 376.48C104.517 375.84 104.069 375.336 103.493 374.968C102.917 374.6 102.253 374.416 101.501 374.416C100.765 374.416 100.109 374.6 99.5333 374.968C98.9733 375.336 98.5253 375.84 98.1893 376.48C97.8693 377.12 97.7093 377.848 97.7093 378.664C97.7093 379.496 97.8693 380.24 98.1893 380.896C98.5253 381.536 98.9733 382.04 99.5333 382.408C100.109 382.776 100.765 382.96 101.501 382.96ZM116.833 390.52C115.937 390.52 115.041 390.376 114.145 390.088C113.265 389.816 112.553 389.456 112.009 389.008L112.921 387.088C113.241 387.328 113.617 387.536 114.049 387.712C114.481 387.904 114.937 388.048 115.417 388.144C115.897 388.256 116.369 388.312 116.833 388.312C117.713 388.312 118.449 388.168 119.041 387.88C119.633 387.592 120.081 387.168 120.385 386.608C120.689 386.048 120.841 385.352 120.841 384.52V382.096L121.105 382.264C121.025 382.76 120.761 383.24 120.313 383.704C119.881 384.152 119.337 384.52 118.681 384.808C118.025 385.096 117.353 385.24 116.665 385.24C115.465 385.24 114.393 384.96 113.449 384.4C112.521 383.824 111.785 383.048 111.241 382.072C110.697 381.08 110.425 379.952 110.425 378.688C110.425 377.424 110.689 376.304 111.217 375.328C111.761 374.336 112.497 373.56 113.425 373C114.369 372.424 115.425 372.136 116.593 372.136C117.073 372.136 117.537 372.2 117.985 372.328C118.433 372.44 118.849 372.608 119.233 372.832C119.617 373.04 119.961 373.272 120.265 373.528C120.569 373.784 120.817 374.056 121.009 374.344C121.201 374.632 121.321 374.904 121.369 375.16L120.841 375.352V372.4H123.313V384.232C123.313 385.24 123.161 386.128 122.857 386.896C122.569 387.68 122.145 388.336 121.585 388.864C121.025 389.408 120.345 389.816 119.545 390.088C118.745 390.376 117.841 390.52 116.833 390.52ZM116.929 382.96C117.713 382.96 118.409 382.776 119.017 382.408C119.625 382.04 120.097 381.536 120.433 380.896C120.769 380.256 120.937 379.52 120.937 378.688C120.937 377.856 120.761 377.12 120.409 376.48C120.073 375.824 119.601 375.312 118.993 374.944C118.401 374.576 117.713 374.392 116.929 374.392C116.161 374.392 115.473 374.584 114.865 374.968C114.273 375.336 113.801 375.848 113.449 376.504C113.113 377.144 112.945 377.872 112.945 378.688C112.945 379.504 113.113 380.24 113.449 380.896C113.801 381.536 114.273 382.04 114.865 382.408C115.473 382.776 116.161 382.96 116.929 382.96ZM127.187 385V372.4H129.659V385H127.187ZM128.387 369.616C127.859 369.616 127.451 369.48 127.163 369.208C126.875 368.936 126.731 368.552 126.731 368.056C126.731 367.592 126.875 367.216 127.163 366.928C127.467 366.64 127.875 366.496 128.387 366.496C128.915 366.496 129.323 366.632 129.611 366.904C129.899 367.176 130.043 367.56 130.043 368.056C130.043 368.52 129.891 368.896 129.587 369.184C129.299 369.472 128.899 369.616 128.387 369.616ZM138.81 385.24C137.642 385.24 136.594 384.952 135.666 384.376C134.754 383.8 134.026 383.016 133.482 382.024C132.954 381.032 132.69 379.92 132.69 378.688C132.69 377.456 132.954 376.344 133.482 375.352C134.026 374.36 134.754 373.576 135.666 373C136.594 372.424 137.642 372.136 138.81 372.136C139.93 372.136 140.946 372.368 141.858 372.832C142.786 373.28 143.49 373.896 143.97 374.68L142.602 376.36C142.346 375.992 142.018 375.656 141.618 375.352C141.218 375.048 140.794 374.808 140.346 374.632C139.898 374.456 139.466 374.368 139.05 374.368C138.282 374.368 137.594 374.56 136.986 374.944C136.394 375.312 135.922 375.824 135.57 376.48C135.218 377.136 135.042 377.872 135.042 378.688C135.042 379.504 135.226 380.24 135.594 380.896C135.962 381.536 136.45 382.048 137.058 382.432C137.666 382.816 138.338 383.008 139.074 383.008C139.506 383.008 139.922 382.936 140.322 382.792C140.738 382.648 141.138 382.432 141.522 382.144C141.906 381.856 142.266 381.504 142.602 381.088L143.97 382.768C143.458 383.488 142.722 384.08 141.762 384.544C140.818 385.008 139.834 385.24 138.81 385.24ZM158.669 390.52C157.773 390.52 156.877 390.376 155.981 390.088C155.101 389.816 154.389 389.456 153.845 389.008L154.757 387.088C155.077 387.328 155.453 387.536 155.885 387.712C156.317 387.904 156.773 388.048 157.253 388.144C157.733 388.256 158.205 388.312 158.669 388.312C159.549 388.312 160.285 388.168 160.877 387.88C161.469 387.592 161.917 387.168 162.221 386.608C162.525 386.048 162.677 385.352 162.677 384.52V382.096L162.941 382.264C162.861 382.76 162.597 383.24 162.149 383.704C161.717 384.152 161.173 384.52 160.517 384.808C159.861 385.096 159.189 385.24 158.501 385.24C157.301 385.24 156.229 384.96 155.285 384.4C154.357 383.824 153.621 383.048 153.077 382.072C152.533 381.08 152.261 379.952 152.261 378.688C152.261 377.424 152.525 376.304 153.053 375.328C153.597 374.336 154.333 373.56 155.261 373C156.205 372.424 157.261 372.136 158.429 372.136C158.909 372.136 159.373 372.2 159.821 372.328C160.269 372.44 160.685 372.608 161.069 372.832C161.453 373.04 161.797 373.272 162.101 373.528C162.405 373.784 162.653 374.056 162.845 374.344C163.037 374.632 163.157 374.904 163.205 375.16L162.677 375.352V372.4H165.149V384.232C165.149 385.24 164.997 386.128 164.693 386.896C164.405 387.68 163.981 388.336 163.421 388.864C162.861 389.408 162.181 389.816 161.381 390.088C160.581 390.376 159.677 390.52 158.669 390.52ZM158.765 382.96C159.549 382.96 160.245 382.776 160.853 382.408C161.461 382.04 161.933 381.536 162.269 380.896C162.605 380.256 162.773 379.52 162.773 378.688C162.773 377.856 162.597 377.12 162.245 376.48C161.909 375.824 161.437 375.312 160.829 374.944C160.237 374.576 159.549 374.392 158.765 374.392C157.997 374.392 157.309 374.584 156.701 374.968C156.109 375.336 155.637 375.848 155.285 376.504C154.949 377.144 154.781 377.872 154.781 378.688C154.781 379.504 154.949 380.24 155.285 380.896C155.637 381.536 156.109 382.04 156.701 382.408C157.309 382.776 157.997 382.96 158.765 382.96ZM174.495 385.24C173.199 385.24 172.047 384.968 171.039 384.424C170.047 383.864 169.263 383.104 168.687 382.144C168.127 381.184 167.847 380.08 167.847 378.832C167.847 377.84 168.007 376.936 168.327 376.12C168.647 375.304 169.087 374.6 169.647 374.008C170.223 373.4 170.903 372.936 171.687 372.616C172.487 372.28 173.351 372.112 174.279 372.112C175.095 372.112 175.855 372.272 176.559 372.592C177.263 372.896 177.871 373.32 178.383 373.864C178.911 374.408 179.311 375.056 179.583 375.808C179.871 376.544 180.007 377.352 179.991 378.232L179.967 379.288H169.671L169.119 377.32H177.831L177.471 377.728V377.152C177.423 376.624 177.247 376.152 176.943 375.736C176.639 375.32 176.255 374.992 175.791 374.752C175.327 374.512 174.823 374.392 174.279 374.392C173.415 374.392 172.687 374.56 172.095 374.896C171.503 375.216 171.055 375.696 170.751 376.336C170.447 376.96 170.295 377.736 170.295 378.664C170.295 379.544 170.479 380.312 170.847 380.968C171.215 381.608 171.735 382.104 172.407 382.456C173.079 382.808 173.855 382.984 174.735 382.984C175.359 382.984 175.935 382.88 176.463 382.672C177.007 382.464 177.591 382.088 178.215 381.544L179.463 383.296C179.079 383.68 178.607 384.016 178.047 384.304C177.503 384.592 176.919 384.824 176.295 385C175.687 385.16 175.087 385.24 174.495 385.24ZM182.629 385V372.4H185.125V375.088L184.669 375.376C184.797 374.96 184.997 374.56 185.269 374.176C185.557 373.792 185.901 373.456 186.301 373.168C186.717 372.864 187.157 372.624 187.621 372.448C188.101 372.272 188.589 372.184 189.085 372.184C189.805 372.184 190.437 372.304 190.981 372.544C191.525 372.784 191.973 373.144 192.325 373.624C192.677 374.104 192.933 374.704 193.093 375.424L192.709 375.328L192.877 374.92C193.053 374.552 193.293 374.208 193.597 373.888C193.917 373.552 194.277 373.256 194.677 373C195.077 372.744 195.501 372.544 195.949 372.4C196.397 372.256 196.837 372.184 197.269 372.184C198.213 372.184 198.989 372.376 199.597 372.76C200.221 373.144 200.685 373.728 200.989 374.512C201.309 375.296 201.469 376.272 201.469 377.44V385H198.973V377.584C198.973 376.864 198.877 376.28 198.685 375.832C198.509 375.368 198.237 375.024 197.869 374.8C197.501 374.576 197.029 374.464 196.453 374.464C196.005 374.464 195.581 374.544 195.181 374.704C194.797 374.848 194.461 375.056 194.173 375.328C193.885 375.6 193.661 375.92 193.501 376.288C193.341 376.64 193.261 377.032 193.261 377.464V385H190.765V377.536C190.765 376.88 190.669 376.328 190.477 375.88C190.285 375.416 190.005 375.064 189.637 374.824C189.269 374.584 188.821 374.464 188.293 374.464C187.845 374.464 187.429 374.544 187.045 374.704C186.661 374.848 186.325 375.056 186.037 375.328C185.749 375.584 185.525 375.896 185.365 376.264C185.205 376.616 185.125 377 185.125 377.416V385H182.629Z" fill="#FAF9F6"/>
<path d="M201.076 214.96L172.325 160.191C172.325 158.696 170.313 147.685 169.307 142.366C170.112 140.756 179.13 136.424 183.538 134.459L205.819 218.266L201.076 214.96Z" fill="#FFD454"/>
<path d="M171.606 183.047C174.481 178.792 173.427 165.989 172.325 160.191L201.075 214.96C197.338 213.187 189.173 208.865 186.413 205.76C183.653 202.655 175.248 189.372 171.606 183.047Z" fill="#FCE37F"/>
<path d="M296.095 220.279C296.44 225.569 283.972 253.533 277.695 266.998L277.264 265.417L283.014 233.648L284.307 230.342L296.095 220.279Z" fill="#FCA02D"/>
<path d="M284.02 231.923C284.25 237.213 279.803 257.606 277.551 267.142L271.37 272.748L257.426 277.348L240.032 274.617L236.295 267.429L235.863 267.142L230.832 241.267C248.466 235.948 283.79 226.633 284.02 231.923Z" fill="#BB5026"/>
<path d="M188.425 131.872C187.505 132.332 184.783 133.789 183.537 134.459L205.819 218.266C208.837 219.848 225.225 235.948 230.4 240.548C234.54 244.228 247.842 242.656 253.975 241.41L188.425 131.872Z" fill="#FBEFB5"/>
<path d="M222.494 128.284C201.219 127.019 190.725 130.291 188.138 132.016L253.688 241.416C263.233 239.461 273.095 236.672 276.688 235.522C258.72 205.185 238.451 155.501 232.701 134.753C227.641 133.373 223.692 129.865 222.494 128.284Z" fill="#FFD454"/>
<path d="M248.944 145.528C246.874 141.503 237.252 136.664 232.7 134.747C243.855 178.447 266.673 220.135 276.688 235.517C281.863 234.022 286.224 230.485 287.757 228.904C289.022 227.179 293.842 222.435 296.094 220.279C278.614 196.934 257.377 160.718 248.944 145.528Z" fill="#FCE37F"/>
<path d="M289.339 227.035C280.944 219.33 258.336 179.262 248.082 160.191C256.362 180.776 273.382 217.835 280.857 233.792C284.997 231.952 288.237 228.521 289.339 227.035Z" fill="#FBEFB5"/>
<path d="M164.706 148.404C166.546 145.183 168.54 143.037 169.306 142.366C175.631 172.381 173.763 181.898 172.038 182.904L166.431 191.816C159.244 193.973 155.458 175.716 154.5 166.229C157.135 161.629 162.866 151.624 164.706 148.404Z" fill="#E27425"/>
<path d="M150.476 172.697L154.501 166.229C157.031 189.689 164.037 192.631 166.864 191.385C160.539 201.735 155.507 220.183 153.782 227.754C153.322 249.489 156.034 267.861 157.807 274.473C156.082 272.748 152.68 263.883 151.195 259.667C150.045 256.744 147.112 249.949 144.582 246.154C142.052 242.359 141.611 239.494 141.707 238.535C145.397 232.785 153.437 219.675 156.082 213.235C159.389 205.185 155.22 193.397 153.926 183.91C152.891 176.32 151.386 173.176 150.476 172.697Z" fill="#FA9F2D"/>
<path d="M274.244 272.748C272.519 275.623 254.646 288.034 245.925 293.88L242.763 293.592L234.856 270.304L236.294 267.142C237.156 268.148 239.715 270.764 243.05 273.179C247.219 276.198 255.988 275.336 262.457 274.617C267.632 274.042 274.771 269.298 277.694 266.998L274.244 272.748Z" fill="#903F22"/>
<path d="M140.556 188.941C141.016 188.021 147.36 177.729 150.474 172.697C151.74 173.617 152.631 175.764 152.918 176.722C157.633 195.697 157.662 206.67 157.087 209.785C156.857 214.27 146.737 230.821 141.706 238.535C143.201 222.665 141.562 198.86 140.556 188.941Z" fill="#E27425"/>
<path d="M245.925 293.88C243.74 292.73 241.469 287.65 240.606 285.255C239.36 289.136 237.444 296.927 239.744 297.042C242.044 297.157 244.823 294.982 245.925 293.88Z" fill="#F7A02B"/>
<path d="M239.746 297.042C235.951 296.812 230.785 295.413 228.677 294.742L227.958 294.167L233.277 274.473C233.468 269.011 234.082 258.603 235.002 260.673C235.922 262.743 236.248 265.752 236.296 266.998C236.296 268.388 236.526 271.627 237.446 273.467C238.366 275.307 239.362 278.834 239.746 280.367C241.471 285.887 240.464 293.784 239.746 297.042Z" fill="#E37326"/>
<path d="M153.062 227.467C157.547 205.271 167.58 188.51 172.037 182.904C173.187 185.779 184.112 202.454 184.974 203.891C185.664 205.041 186.699 206.096 187.131 206.479C187.322 211.462 187.418 226.432 183.393 247.017C179.368 267.602 177.451 286.5 177.355 293.305C177.068 293.257 176.033 293.132 174.193 293.017C172.353 292.902 162.405 280.415 157.662 274.186C153.982 261.306 153.062 237.673 153.062 227.467Z" fill="#BB5026"/>
<path d="M192.164 294.742C188.369 293.362 180.712 293.209 177.357 293.305C177.357 280.195 180.903 257.463 182.676 247.736L199.495 266.711L233.277 274.042C233.564 275.959 233.679 280.971 231.839 283.961C229.999 286.951 228.964 292.394 228.677 294.742C227.431 294.503 223.415 293.995 217.32 293.88C211.225 293.765 206.731 294.407 205.245 294.742C202.466 295.317 195.959 296.122 192.164 294.742Z" fill="#F7862A"/>
<path d="M182.676 247.735C186.241 232.095 187.132 213.523 187.132 206.479C191.962 210.274 198.345 213.762 200.932 214.96C211.57 221.429 226.664 236.954 228.82 239.11C230.545 240.835 231.647 241.458 231.982 241.554C232.653 244.189 234.167 251.473 234.857 259.523C235.72 269.586 232.27 286.692 220.626 282.523C208.982 278.354 193.457 267.286 189.145 264.267C185.695 261.852 183.395 252.383 182.676 247.735Z" fill="#FA9F2D"/>
<path d="M168.875 268.148C165.08 264.928 156.943 247.64 153.35 239.398C154.5 260.788 156.704 271.502 157.662 274.186C166.172 285.801 172.133 291.58 174.05 293.017C174.74 293.017 176.541 293.209 177.356 293.305C177.126 289.51 178.506 275.815 179.225 269.442C178.88 270.937 176.302 271.598 175.056 271.742C174.577 271.886 172.67 271.368 168.875 268.148Z" fill="#903F22"/>
<path d="M103.181 268.867C104.101 267.487 107.11 266.567 108.499 266.279C109.745 269.777 111.892 276.543 110.512 275.623C109.132 274.703 105.049 270.736 103.181 268.867Z" fill="#FCF2B5"/>
<path d="M149.756 291.005C151.711 293.42 151.625 296.323 151.337 297.473L143.144 298.192L149.756 291.005Z" fill="#FED652"/>
<path d="M151.338 297.473C148.118 305.523 143.959 309.453 142.281 310.411L140.556 307.105L139.981 302.648C140.509 301.834 141.85 299.831 143 298.336C144.15 296.841 149.038 297.138 151.338 297.473Z" fill="#E47327"/>
<path d="M112.956 310.267C111.231 309.692 107.062 309.453 105.193 309.405L122.731 288.417L124.6 287.554L130.781 290.142C130.973 290.717 132.19 292.528 135.525 295.173C138.86 297.818 141.419 306.434 142.281 310.411L128.337 310.986C127.283 311.034 124.686 310.986 122.731 310.411C120.776 309.836 118.466 310.171 117.556 310.411C116.741 310.603 114.681 310.842 112.956 310.267Z" fill="#923E24"/>
<path d="M149.757 291.004C148.837 289.509 144.869 283.386 143 280.51L130.925 288.992L130.494 290.286L139.982 303.511L142.713 299.629L149.757 291.004Z" fill="#FA9F2D"/>
<path d="M94.9874 285.398C97.1724 282.523 101.36 273.179 103.181 268.867L106.2 270.736L124.456 287.986C118.246 298.911 109.027 306.817 105.194 309.405C100.594 300.32 97.1437 295.173 95.9937 293.736C94.7478 292.155 92.8024 288.273 94.9874 285.398Z" fill="#FA9F2D"/>
<path d="M130.925 265.992C132.65 266.088 136.273 266.912 136.963 269.442C137.825 272.604 139.407 276.054 143 280.511C143.048 281.086 142.598 282.696 140.413 284.536C138.113 287.296 135.909 287.794 135.094 287.698C134.471 287.698 132.823 288.101 131.213 289.711C129.603 291.321 127.379 290.19 126.469 289.423C125.223 288.369 122.07 286.232 119.425 286.117C116.78 286.002 115.544 285.302 115.256 284.967C115.486 281.172 112.333 276.438 110.656 274.904C110.656 274.186 110.311 272.892 109.506 270.592C108.701 268.292 108.5 266.758 108.5 266.279C114.595 264.899 125.99 265.513 130.925 265.992Z" fill="#FCE37F"/>
<path d="M119.57 296.036C121.64 295.231 126.182 291.963 128.195 290.43C129.23 290.66 130.351 290.334 130.782 290.142C132.651 292.873 134.664 294.455 135.814 295.461C136.734 296.266 137.73 297.809 138.114 298.48C140.529 303.54 141.899 308.542 142.282 310.411L134.089 310.699C131.932 310.124 131.501 309.692 125.032 306.242C119.857 303.482 119.234 298.288 119.57 296.036Z" fill="#BB5026"/>
<path d="M106.056 287.842C108.816 287.727 113.34 285.877 115.257 284.967L121.294 285.398L124.457 287.986C121.869 293.017 116.263 299.342 113.675 302.073C111.088 304.804 102.606 304.517 101.025 301.642C99.4438 298.767 98.5814 297.473 96.2814 294.167C94.4413 291.522 94.0772 289.806 94.1251 289.279C96.8851 289.969 99.4918 289.375 100.45 288.992C101.169 288.656 103.296 287.957 106.056 287.842Z" fill="#E47526"/>
<path d="M140.412 284.536C134.317 275.911 131.548 268.579 130.925 265.992C135.065 266.452 136.579 268.292 136.819 269.154C137.854 273.524 141.371 278.642 143 280.654C142.77 282.379 141.179 283.961 140.412 284.536Z" fill="#FAF1B5"/>
<path d="M127.331 277.348C120.891 272.748 118.61 267.477 118.274 265.417C120.804 265.417 124.599 265.609 126.181 265.704C126.564 266.759 128.251 269.902 131.931 274.042C135.611 278.182 138.256 283.625 139.118 285.83C137.623 287.325 135.62 287.698 134.806 287.698C134.997 286.165 133.771 281.948 127.331 277.348Z" fill="#FFD454"/>
</svg>
