<svg width="281" height="350" viewBox="0 0 281 350" fill="none" xmlns="http://www.w3.org/2000/svg">
<rect width="281" height="350" rx="20" fill="#202020" fill-opacity="0.5"/>
<path d="M29.696 28.912C31.5093 29.0827 33.472 29.168 35.584 29.168C37.7173 29.168 39.04 29.1893 39.552 29.232C40.0853 29.2533 40.6613 29.328 41.28 29.456C41.8987 29.584 42.3787 29.776 42.72 30.032C43.5733 30.608 44 31.4933 44 32.688C44 33.8613 43.584 34.9387 42.752 35.92C41.92 36.88 40.9067 37.6053 39.712 38.096V38.224C41.248 38.224 42.496 38.5867 43.456 39.312C44.416 40.016 44.896 41.0613 44.896 42.448C44.896 44.1547 44.096 45.7973 42.496 47.376C40.896 48.9547 39.168 49.9893 37.312 50.48C35.9893 50.48 34.432 50.0747 32.64 49.264C32.2773 49.8187 32.032 50.2987 31.904 50.704L31.232 50.544C31.744 48.2187 32 44.5707 32 39.6C32 37.7013 31.9147 34.7893 31.744 30.864C29.376 30.9067 27.8613 31.248 27.2 31.888C27.0507 32.1867 26.976 32.656 26.976 33.296C26.976 33.936 27.0827 34.3733 27.296 34.608L27.264 34.832C26.7307 35.152 26.1973 35.6 25.664 36.176C25.408 36.1547 25.2053 36.048 25.056 35.856C24.8853 35.664 24.8 35.44 24.8 35.184C24.8 34.2027 25.3653 33.04 26.496 31.696C27.6053 30.352 28.672 29.424 29.696 28.912ZM36.416 37.776C37.9947 37.776 39.136 37.552 39.84 37.104C40.608 36.2507 40.992 35.1733 40.992 33.872C40.992 32.5493 40.6293 31.7067 39.904 31.344C39.2 30.96 38.272 30.768 37.12 30.768C35.9893 30.768 35.1893 30.8 34.72 30.864C34.5493 33.0187 34.464 35.824 34.464 39.28C34.464 42.736 34.5173 45.4027 34.624 47.28C35.7333 47.8773 36.9173 48.176 38.176 48.176C39.456 48.176 40.4693 47.92 41.216 47.408C41.7067 46.3627 41.952 45.1893 41.952 43.888C41.952 40.6027 39.9253 38.96 35.872 38.96L36.032 37.776H36.416ZM47.8135 33.392L55.1735 33.168C57.0935 33.168 58.5335 33.456 59.4935 34.032C60.4535 34.5867 60.9335 35.6107 60.9335 37.104C60.9335 38.128 60.6135 39.0347 59.9735 39.824C59.3548 40.6133 58.5335 41.2 57.5095 41.584L61.0935 48.912C61.8188 49.04 62.5015 49.1893 63.1415 49.36L63.0135 50.224C62.1175 50.0747 61.1042 50 59.9735 50C58.8642 50 57.9895 50.0533 57.3495 50.16L57.2215 49.648C57.4988 49.3707 57.6375 48.912 57.6375 48.272C57.6375 46.9707 56.8908 44.88 55.3975 42C54.9495 41.9147 54.4268 41.872 53.8295 41.872L53.8935 40.944H54.2135C56.7308 40.944 57.9895 39.792 57.9895 37.488C57.9895 35.3547 56.9122 34.288 54.7575 34.288C54.0322 34.288 53.3815 34.4053 52.8055 34.64C52.6562 36.048 52.5815 38.4587 52.5815 41.872C52.5815 45.2853 52.6775 47.6427 52.8695 48.944C53.8082 49.0507 54.6828 49.2107 55.4935 49.424L55.3975 50.224C54.2882 50.0747 53.0402 50 51.6535 50C50.2882 50 49.0615 50.0853 47.9735 50.256L47.8455 49.424C48.4428 49.232 49.1148 49.072 49.8615 48.944C50.0748 47.344 50.1815 44.8587 50.1815 41.488C50.1815 38.096 50.0855 35.7493 49.8935 34.448C49.0615 34.1707 48.3682 34.032 47.8135 34.032V33.392ZM71.6973 50.384C69.5853 50.384 67.8786 49.7227 66.5773 48.4C65.2759 47.056 64.6253 45.264 64.6253 43.024C64.6253 40.784 65.3079 38.6827 66.6733 36.72C68.0386 34.7573 69.8199 33.4987 72.0173 32.944C74.2146 32.944 75.8893 33.5733 77.0413 34.832C78.1933 36.0693 78.7693 37.84 78.7693 40.144C78.7693 42.448 78.1399 44.528 76.8813 46.384C75.6439 48.24 73.9159 49.5733 71.6973 50.384ZM71.1533 34.896C70.1933 34.896 69.3613 35.1627 68.6573 35.696C67.7826 37.1893 67.3453 39.0667 67.3453 41.328C67.3453 43.9307 68.0706 45.9253 69.5213 47.312C70.2893 48.0587 71.1959 48.432 72.2413 48.432C73.2866 48.432 74.1293 48.1547 74.7693 47.6C75.6226 46.1067 76.0493 44.2827 76.0493 42.128C76.0493 39.9733 75.6653 38.2347 74.8973 36.912C74.1293 35.568 72.8813 34.896 71.1533 34.896ZM89.213 50.224C88.1037 50.0747 86.8557 50 85.469 50C84.1037 50 82.877 50.0853 81.789 50.256L81.661 49.424C82.3437 49.2107 82.9837 49.0507 83.581 48.944C83.773 47.28 83.869 45.104 83.869 42.416V40.912C83.869 38.0533 83.7623 35.856 83.549 34.32C82.973 34.256 82.2797 34.0853 81.469 33.808L81.565 32.976C82.781 33.2107 84.0503 33.328 85.373 33.328C86.717 33.328 87.677 33.2533 88.253 33.104L88.317 33.648C87.741 33.7973 87.453 34.0427 87.453 34.384C87.453 34.64 87.6983 35.184 88.189 36.016C88.701 36.8267 89.1917 37.616 89.661 38.384C91.069 40.624 92.733 43.376 94.653 46.64L94.749 46.576V42.672C94.749 39.8133 94.5997 37.6693 94.301 36.24C94.0023 34.7893 93.4903 33.9467 92.765 33.712L92.829 33.168C93.3837 33.2747 94.2157 33.328 95.325 33.328C96.4343 33.328 97.5757 33.2107 98.749 32.976L98.845 33.808C97.9703 34.0853 97.2343 34.256 96.637 34.32C96.4237 36.0267 96.317 38.224 96.317 40.912V42.416C96.317 45.6587 96.4237 47.856 96.637 49.008C97.533 49.1573 98.2477 49.328 98.781 49.52L98.685 50.352C97.6183 50.1173 96.6157 50 95.677 50C94.7383 50 94.013 50.0427 93.501 50.128C93.501 49.6587 93.1703 48.8693 92.509 47.76C91.869 46.6507 91.2823 45.6693 90.749 44.816C89.021 42.0213 87.325 39.184 85.661 36.304L85.533 36.368V40.656C85.533 44.9013 85.853 47.664 86.493 48.944C87.453 49.0507 88.3917 49.2107 89.309 49.424L89.213 50.224ZM110.751 33.616C111.689 33.616 112.511 33.296 113.215 32.656L113.887 33.168C113.289 33.7013 112.607 34.6293 111.839 35.952L104.895 47.952L104.991 48.016H108.831C109.791 48.016 110.484 47.856 110.911 47.536C111.017 46.832 111.071 46.096 111.071 45.328H111.903C112.031 47.2693 112.692 48.848 113.887 50.064L113.247 50.512C113.161 50.384 112.991 50.2347 112.735 50.064C110.303 49.6587 107.359 49.456 103.903 49.456C102.473 49.456 101.46 49.808 100.863 50.512L100.191 49.968C101.151 49.008 101.94 48.016 102.559 46.992L109.823 35.152L109.759 35.088H106.303C105.257 35.088 104.361 35.248 103.615 35.568C103.487 36.3147 103.273 37.0293 102.975 37.712L102.207 37.616C102.249 36.976 102.271 36.3893 102.271 35.856C102.271 35.3227 102.185 34.7253 102.015 34.064C101.673 33.872 101.311 33.7333 100.927 33.648L100.991 32.944C101.353 32.944 102.708 33.0613 105.055 33.296C107.423 33.5093 109.321 33.616 110.751 33.616ZM118.348 42.096C118.412 43.9947 118.764 45.4773 119.404 46.544C120.044 47.6107 121.132 48.144 122.668 48.144C124.204 48.144 125.623 47.4933 126.924 46.192L127.372 46.64C125.943 48.4533 124.226 49.7013 122.22 50.384C120.151 50.384 118.53 49.7333 117.356 48.432C116.183 47.1093 115.596 45.3387 115.596 43.12C115.596 40.88 116.29 38.7787 117.676 36.816C119.063 34.8533 120.834 33.5627 122.988 32.944C124.546 32.944 126.306 33.104 128.268 33.424L128.236 34.128C127.831 34.128 127.447 34.2027 127.084 34.352C126.679 35.312 126.412 36.4533 126.284 37.776H125.484C125.314 37.0507 125.228 36.304 125.228 35.536C124.418 35.1307 123.458 34.928 122.348 34.928C121.239 34.928 120.322 35.2267 119.596 35.824C118.871 37.1467 118.455 38.7253 118.348 40.56C119.244 40.7093 120.204 40.784 121.228 40.784C122.999 40.784 124.066 40.4107 124.428 39.664L125.1 39.76C124.908 40.4 124.812 41.0293 124.812 41.648C124.812 42.2667 124.887 43.024 125.036 43.92L124.268 44.048C124.034 43.408 123.863 42.7467 123.756 42.064C122.903 41.9787 122.05 41.936 121.196 41.936C120.364 41.936 119.415 41.9893 118.348 42.096ZM144.266 28.688C146.869 28.688 148.831 29.4667 150.154 31.024C151.498 32.5813 152.17 34.8107 152.17 37.712C152.17 40.592 151.434 43.1947 149.962 45.52C148.511 47.824 146.485 49.4773 143.882 50.48C141.386 50.48 139.381 49.6587 137.866 48.016C136.351 46.352 135.594 44.1867 135.594 41.52C135.594 37.168 137.173 33.5627 140.33 30.704L140.714 30.96C139.199 33.1573 138.442 35.888 138.442 39.152C138.442 41.4773 138.975 43.568 140.042 45.424C141.13 47.2587 142.634 48.176 144.554 48.176C145.813 48.176 146.869 47.8027 147.722 47.056C148.789 45.0933 149.322 42.768 149.322 40.08C149.322 36.56 148.65 33.9787 147.306 32.336C146.581 31.44 145.674 30.992 144.586 30.992C144.031 30.992 143.519 31.152 143.05 31.472C142.581 31.792 142.25 32.208 142.058 32.72C142.058 33.1467 142.154 33.648 142.346 34.224C142.538 34.7787 142.783 35.1307 143.082 35.28L143.146 35.504C142.677 36.08 142.325 36.688 142.09 37.328C142.047 37.3493 141.962 37.36 141.834 37.36C141.066 37.36 140.682 36.6773 140.682 35.312C140.682 33.008 141.877 30.8 144.266 28.688ZM154.876 33.392L162.236 33.168C164.156 33.168 165.596 33.456 166.556 34.032C167.516 34.5867 167.996 35.6107 167.996 37.104C167.996 38.128 167.676 39.0347 167.036 39.824C166.417 40.6133 165.596 41.2 164.572 41.584L168.156 48.912C168.881 49.04 169.564 49.1893 170.204 49.36L170.076 50.224C169.18 50.0747 168.167 50 167.036 50C165.927 50 165.052 50.0533 164.412 50.16L164.284 49.648C164.561 49.3707 164.7 48.912 164.7 48.272C164.7 46.9707 163.953 44.88 162.46 42C162.012 41.9147 161.489 41.872 160.892 41.872L160.956 40.944H161.276C163.793 40.944 165.052 39.792 165.052 37.488C165.052 35.3547 163.975 34.288 161.82 34.288C161.095 34.288 160.444 34.4053 159.868 34.64C159.719 36.048 159.644 38.4587 159.644 41.872C159.644 45.2853 159.74 47.6427 159.932 48.944C160.871 49.0507 161.745 49.2107 162.556 49.424L162.46 50.224C161.351 50.0747 160.103 50 158.716 50C157.351 50 156.124 50.0853 155.036 50.256L154.908 49.424C155.505 49.232 156.177 49.072 156.924 48.944C157.137 47.344 157.244 44.8587 157.244 41.488C157.244 38.096 157.148 35.7493 156.956 34.448C156.124 34.1707 155.431 34.032 154.876 34.032V33.392ZM174.536 42.096C174.6 43.9947 174.952 45.4773 175.592 46.544C176.232 47.6107 177.32 48.144 178.856 48.144C180.392 48.144 181.81 47.4933 183.112 46.192L183.56 46.64C182.13 48.4533 180.413 49.7013 178.408 50.384C176.338 50.384 174.717 49.7333 173.544 48.432C172.37 47.1093 171.784 45.3387 171.784 43.12C171.784 40.88 172.477 38.7787 173.864 36.816C175.25 34.8533 177.021 33.5627 179.176 32.944C180.733 32.944 182.493 33.104 184.456 33.424L184.424 34.128C184.018 34.128 183.634 34.2027 183.272 34.352C182.866 35.312 182.6 36.4533 182.472 37.776H181.672C181.501 37.0507 181.416 36.304 181.416 35.536C180.605 35.1307 179.645 34.928 178.536 34.928C177.426 34.928 176.509 35.2267 175.784 35.824C175.058 37.1467 174.642 38.7253 174.536 40.56C175.432 40.7093 176.392 40.784 177.416 40.784C179.186 40.784 180.253 40.4107 180.616 39.664L181.288 39.76C181.096 40.4 181 41.0293 181 41.648C181 42.2667 181.074 43.024 181.224 43.92L180.456 44.048C180.221 43.408 180.05 42.7467 179.944 42.064C179.09 41.9787 178.237 41.936 177.384 41.936C176.552 41.936 175.602 41.9893 174.536 42.096Z" fill="#FAF9F6"/>
<path d="M28.72 258.24V256.8H36.736V258.24H28.72ZM31.872 261.328V253.6H33.552V261.328H31.872ZM40.9251 261.216V252.128L41.5171 252.576L39.3091 253.744L38.8451 252.24L41.8371 250.64H42.6691V261.216H40.9251ZM39.1491 262V260.336H44.4931V262H39.1491ZM51.0575 262V253.6H52.7215V255.392L52.4175 255.584C52.5028 255.307 52.6362 255.04 52.8175 254.784C53.0095 254.528 53.2388 254.304 53.5055 254.112C53.7828 253.909 54.0762 253.749 54.3855 253.632C54.7055 253.515 55.0308 253.456 55.3615 253.456C55.8415 253.456 56.2628 253.536 56.6255 253.696C56.9882 253.856 57.2868 254.096 57.5215 254.416C57.7562 254.736 57.9268 255.136 58.0335 255.616L57.7775 255.552L57.8895 255.28C58.0068 255.035 58.1668 254.805 58.3695 254.592C58.5828 254.368 58.8228 254.171 59.0895 254C59.3562 253.829 59.6388 253.696 59.9375 253.6C60.2362 253.504 60.5295 253.456 60.8175 253.456C61.4468 253.456 61.9642 253.584 62.3695 253.84C62.7855 254.096 63.0948 254.485 63.2975 255.008C63.5108 255.531 63.6175 256.181 63.6175 256.96V262H61.9535V257.056C61.9535 256.576 61.8895 256.187 61.7615 255.888C61.6442 255.579 61.4628 255.349 61.2175 255.2C60.9722 255.051 60.6575 254.976 60.2735 254.976C59.9748 254.976 59.6922 255.029 59.4255 255.136C59.1695 255.232 58.9455 255.371 58.7535 255.552C58.5615 255.733 58.4122 255.947 58.3055 256.192C58.1988 256.427 58.1455 256.688 58.1455 256.976V262H56.4815V257.024C56.4815 256.587 56.4175 256.219 56.2895 255.92C56.1615 255.611 55.9748 255.376 55.7295 255.216C55.4842 255.056 55.1855 254.976 54.8335 254.976C54.5348 254.976 54.2575 255.029 54.0015 255.136C53.7455 255.232 53.5215 255.371 53.3295 255.552C53.1375 255.723 52.9882 255.931 52.8815 256.176C52.7748 256.411 52.7215 256.667 52.7215 256.944V262H51.0575ZM69.0559 262.16C68.3625 262.16 67.7279 261.968 67.1519 261.584C66.5865 261.2 66.1332 260.677 65.7919 260.016C65.4505 259.355 65.2799 258.608 65.2799 257.776C65.2799 256.933 65.4505 256.187 65.7919 255.536C66.1439 254.875 66.6132 254.357 67.1999 253.984C67.7972 253.611 68.4639 253.424 69.1999 253.424C69.6372 253.424 70.0372 253.488 70.3999 253.616C70.7625 253.744 71.0772 253.925 71.3439 254.16C71.6212 254.384 71.8452 254.645 72.0159 254.944C72.1972 255.243 72.3092 255.563 72.3519 255.904L71.9839 255.776V253.6H73.6479V262H71.9839V260L72.3679 259.888C72.3039 260.176 72.1705 260.459 71.9679 260.736C71.7759 261.003 71.5252 261.243 71.2159 261.456C70.9172 261.669 70.5812 261.84 70.2079 261.968C69.8452 262.096 69.4612 262.16 69.0559 262.16ZM69.4879 260.64C69.9892 260.64 70.4319 260.517 70.8159 260.272C71.1999 260.027 71.4985 259.691 71.7119 259.264C71.9359 258.827 72.0479 258.331 72.0479 257.776C72.0479 257.232 71.9359 256.747 71.7119 256.32C71.4985 255.893 71.1999 255.557 70.8159 255.312C70.4319 255.067 69.9892 254.944 69.4879 254.944C68.9972 254.944 68.5599 255.067 68.1759 255.312C67.8025 255.557 67.5039 255.893 67.2799 256.32C67.0665 256.747 66.9599 257.232 66.9599 257.776C66.9599 258.331 67.0665 258.827 67.2799 259.264C67.5039 259.691 67.8025 260.027 68.1759 260.272C68.5599 260.517 68.9972 260.64 69.4879 260.64ZM79.7089 265.68C79.1115 265.68 78.5142 265.584 77.9169 265.392C77.3302 265.211 76.8555 264.971 76.4929 264.672L77.1009 263.392C77.3142 263.552 77.5649 263.691 77.8529 263.808C78.1409 263.936 78.4449 264.032 78.7649 264.096C79.0849 264.171 79.3995 264.208 79.7089 264.208C80.2955 264.208 80.7862 264.112 81.1809 263.92C81.5755 263.728 81.8742 263.445 82.0769 263.072C82.2795 262.699 82.3809 262.235 82.3809 261.68V260.064L82.5569 260.176C82.5035 260.507 82.3275 260.827 82.0289 261.136C81.7409 261.435 81.3782 261.68 80.9409 261.872C80.5035 262.064 80.0555 262.16 79.5969 262.16C78.7969 262.16 78.0822 261.973 77.4529 261.6C76.8342 261.216 76.3435 260.699 75.9809 260.048C75.6182 259.387 75.4369 258.635 75.4369 257.792C75.4369 256.949 75.6129 256.203 75.9649 255.552C76.3275 254.891 76.8182 254.373 77.4369 254C78.0662 253.616 78.7702 253.424 79.5489 253.424C79.8689 253.424 80.1782 253.467 80.4769 253.552C80.7755 253.627 81.0529 253.739 81.3089 253.888C81.5649 254.027 81.7942 254.181 81.9969 254.352C82.1995 254.523 82.3649 254.704 82.4929 254.896C82.6209 255.088 82.7009 255.269 82.7329 255.44L82.3809 255.568V253.6H84.0289V261.488C84.0289 262.16 83.9275 262.752 83.7249 263.264C83.5329 263.787 83.2502 264.224 82.8769 264.576C82.5035 264.939 82.0502 265.211 81.5169 265.392C80.9835 265.584 80.3809 265.68 79.7089 265.68ZM79.7729 260.64C80.2955 260.64 80.7595 260.517 81.1649 260.272C81.5702 260.027 81.8849 259.691 82.1089 259.264C82.3329 258.837 82.4449 258.347 82.4449 257.792C82.4449 257.237 82.3275 256.747 82.0929 256.32C81.8689 255.883 81.5542 255.541 81.1489 255.296C80.7542 255.051 80.2955 254.928 79.7729 254.928C79.2609 254.928 78.8022 255.056 78.3969 255.312C78.0022 255.557 77.6875 255.899 77.4529 256.336C77.2289 256.763 77.1169 257.248 77.1169 257.792C77.1169 258.336 77.2289 258.827 77.4529 259.264C77.6875 259.691 78.0022 260.027 78.3969 260.272C78.8022 260.517 79.2609 260.64 79.7729 260.64ZM86.6115 262V253.6H88.2595V262H86.6115ZM87.4115 251.744C87.0595 251.744 86.7875 251.653 86.5955 251.472C86.4035 251.291 86.3075 251.035 86.3075 250.704C86.3075 250.395 86.4035 250.144 86.5955 249.952C86.7982 249.76 87.0702 249.664 87.4115 249.664C87.7635 249.664 88.0355 249.755 88.2275 249.936C88.4195 250.117 88.5155 250.373 88.5155 250.704C88.5155 251.013 88.4142 251.264 88.2115 251.456C88.0195 251.648 87.7528 251.744 87.4115 251.744ZM94.3606 262.16C93.582 262.16 92.8833 261.968 92.2646 261.584C91.6566 261.2 91.1713 260.677 90.8086 260.016C90.4566 259.355 90.2806 258.613 90.2806 257.792C90.2806 256.971 90.4566 256.229 90.8086 255.568C91.1713 254.907 91.6566 254.384 92.2646 254C92.8833 253.616 93.582 253.424 94.3606 253.424C95.1073 253.424 95.7846 253.579 96.3926 253.888C97.0113 254.187 97.4806 254.597 97.8006 255.12L96.8886 256.24C96.718 255.995 96.4993 255.771 96.2326 255.568C95.966 255.365 95.6833 255.205 95.3846 255.088C95.086 254.971 94.798 254.912 94.5206 254.912C94.0086 254.912 93.55 255.04 93.1446 255.296C92.75 255.541 92.4353 255.883 92.2006 256.32C91.966 256.757 91.8486 257.248 91.8486 257.792C91.8486 258.336 91.9713 258.827 92.2166 259.264C92.462 259.691 92.7873 260.032 93.1926 260.288C93.598 260.544 94.046 260.672 94.5366 260.672C94.8246 260.672 95.102 260.624 95.3686 260.528C95.646 260.432 95.9126 260.288 96.1686 260.096C96.4246 259.904 96.6646 259.669 96.8886 259.392L97.8006 260.512C97.4593 260.992 96.9686 261.387 96.3286 261.696C95.6993 262.005 95.0433 262.16 94.3606 262.16ZM107.6 265.68C107.002 265.68 106.405 265.584 105.808 265.392C105.221 265.211 104.746 264.971 104.384 264.672L104.992 263.392C105.205 263.552 105.456 263.691 105.744 263.808C106.032 263.936 106.336 264.032 106.656 264.096C106.976 264.171 107.29 264.208 107.6 264.208C108.186 264.208 108.677 264.112 109.072 263.92C109.466 263.728 109.765 263.445 109.968 263.072C110.17 262.699 110.272 262.235 110.272 261.68V260.064L110.448 260.176C110.394 260.507 110.218 260.827 109.92 261.136C109.632 261.435 109.269 261.68 108.832 261.872C108.394 262.064 107.946 262.16 107.488 262.16C106.688 262.16 105.973 261.973 105.344 261.6C104.725 261.216 104.234 260.699 103.872 260.048C103.509 259.387 103.328 258.635 103.328 257.792C103.328 256.949 103.504 256.203 103.856 255.552C104.218 254.891 104.709 254.373 105.328 254C105.957 253.616 106.661 253.424 107.44 253.424C107.76 253.424 108.069 253.467 108.368 253.552C108.666 253.627 108.944 253.739 109.2 253.888C109.456 254.027 109.685 254.181 109.888 254.352C110.09 254.523 110.256 254.704 110.384 254.896C110.512 255.088 110.592 255.269 110.624 255.44L110.272 255.568V253.6H111.92V261.488C111.92 262.16 111.818 262.752 111.616 263.264C111.424 263.787 111.141 264.224 110.767 264.576C110.394 264.939 109.941 265.211 109.408 265.392C108.874 265.584 108.272 265.68 107.6 265.68ZM107.664 260.64C108.186 260.64 108.65 260.517 109.056 260.272C109.461 260.027 109.776 259.691 110 259.264C110.224 258.837 110.336 258.347 110.336 257.792C110.336 257.237 110.218 256.747 109.984 256.32C109.76 255.883 109.445 255.541 109.04 255.296C108.645 255.051 108.186 254.928 107.664 254.928C107.152 254.928 106.693 255.056 106.288 255.312C105.893 255.557 105.578 255.899 105.344 256.336C105.12 256.763 105.008 257.248 105.008 257.792C105.008 258.336 105.12 258.827 105.344 259.264C105.578 259.691 105.893 260.027 106.288 260.272C106.693 260.517 107.152 260.64 107.664 260.64ZM118.15 262.16C117.286 262.16 116.518 261.979 115.846 261.616C115.185 261.243 114.662 260.736 114.278 260.096C113.905 259.456 113.718 258.72 113.718 257.888C113.718 257.227 113.825 256.624 114.038 256.08C114.251 255.536 114.545 255.067 114.918 254.672C115.302 254.267 115.755 253.957 116.278 253.744C116.811 253.52 117.387 253.408 118.006 253.408C118.55 253.408 119.057 253.515 119.526 253.728C119.995 253.931 120.401 254.213 120.742 254.576C121.094 254.939 121.361 255.371 121.542 255.872C121.734 256.363 121.825 256.901 121.814 257.488L121.798 258.192H114.934L114.566 256.88H120.374L120.134 257.152V256.768C120.102 256.416 119.985 256.101 119.782 255.824C119.579 255.547 119.323 255.328 119.014 255.168C118.705 255.008 118.369 254.928 118.006 254.928C117.43 254.928 116.945 255.04 116.55 255.264C116.155 255.477 115.857 255.797 115.654 256.224C115.451 256.64 115.35 257.157 115.35 257.776C115.35 258.363 115.473 258.875 115.718 259.312C115.963 259.739 116.31 260.069 116.758 260.304C117.206 260.539 117.723 260.656 118.31 260.656C118.726 260.656 119.11 260.587 119.462 260.448C119.825 260.309 120.214 260.059 120.63 259.696L121.462 260.864C121.206 261.12 120.891 261.344 120.518 261.536C120.155 261.728 119.766 261.883 119.35 262C118.945 262.107 118.545 262.16 118.15 262.16ZM123.573 262V253.6H125.237V255.392L124.933 255.584C125.018 255.307 125.152 255.04 125.333 254.784C125.525 254.528 125.754 254.304 126.021 254.112C126.298 253.909 126.592 253.749 126.901 253.632C127.221 253.515 127.546 253.456 127.877 253.456C128.357 253.456 128.778 253.536 129.141 253.696C129.504 253.856 129.802 254.096 130.037 254.416C130.272 254.736 130.442 255.136 130.549 255.616L130.293 255.552L130.405 255.28C130.522 255.035 130.682 254.805 130.885 254.592C131.098 254.368 131.338 254.171 131.605 254C131.872 253.829 132.154 253.696 132.453 253.6C132.752 253.504 133.045 253.456 133.333 253.456C133.962 253.456 134.48 253.584 134.885 253.84C135.301 254.096 135.61 254.485 135.813 255.008C136.026 255.531 136.133 256.181 136.133 256.96V262H134.469V257.056C134.469 256.576 134.405 256.187 134.277 255.888C134.16 255.579 133.978 255.349 133.733 255.2C133.488 255.051 133.173 254.976 132.789 254.976C132.49 254.976 132.208 255.029 131.941 255.136C131.685 255.232 131.461 255.371 131.269 255.552C131.077 255.733 130.928 255.947 130.821 256.192C130.714 256.427 130.661 256.688 130.661 256.976V262H128.997V257.024C128.997 256.587 128.933 256.219 128.805 255.92C128.677 255.611 128.49 255.376 128.245 255.216C128 255.056 127.701 254.976 127.349 254.976C127.05 254.976 126.773 255.029 126.517 255.136C126.261 255.232 126.037 255.371 125.845 255.552C125.653 255.723 125.504 255.931 125.397 256.176C125.29 256.411 125.237 256.667 125.237 256.944V262H123.573Z" fill="#FAF9F6"/>
<path d="M142.799 149.498L123.789 113.285C123.789 112.296 122.459 105.016 121.793 101.499C122.326 100.434 128.288 97.5701 131.203 96.2711L145.936 151.684L142.799 149.498Z" fill="#FFD454"/>
<path d="M123.314 128.397C125.215 125.584 124.518 117.118 123.789 113.285L142.799 149.498C140.328 148.326 134.929 145.468 133.104 143.415C131.279 141.362 125.722 132.58 123.314 128.397Z" fill="#FCE37F"/>
<path d="M205.626 153.015C205.854 156.513 197.61 175.003 193.46 183.906L193.175 182.86L196.977 161.855L197.832 159.668L205.626 153.015Z" fill="#FCA02D"/>
<path d="M197.642 160.714C197.794 164.212 194.854 177.696 193.364 184.001L189.277 187.708L180.058 190.749L168.557 188.943L166.085 184.191L165.8 184.001L162.474 166.892C174.133 163.375 197.49 157.216 197.642 160.714Z" fill="#BB5026"/>
<path d="M134.434 94.5602C133.826 94.8643 132.026 95.8275 131.203 96.271L145.935 151.684C147.931 152.73 158.767 163.375 162.188 166.417C164.926 168.85 173.721 167.811 177.776 166.987L134.434 94.5602Z" fill="#FBEFB5"/>
<path d="M156.961 92.1877C142.894 91.3513 135.955 93.5146 134.244 94.6552L177.586 166.991C183.898 165.698 190.418 163.854 192.794 163.094C180.913 143.035 167.511 110.184 163.709 96.4649C160.363 95.5524 157.753 93.2332 156.961 92.1877Z" fill="#FFD454"/>
<path d="M174.45 103.59C173.081 100.928 166.719 97.7284 163.709 96.4611C171.085 125.356 186.173 152.92 192.794 163.09C196.216 162.102 199.099 159.763 200.113 158.718C200.95 157.577 204.137 154.441 205.626 153.015C194.068 137.579 180.026 113.633 174.45 103.59Z" fill="#FCE37F"/>
<path d="M201.158 157.482C195.608 152.388 180.66 125.895 173.879 113.285C179.354 126.896 190.608 151.399 195.55 161.95C198.288 160.733 200.43 158.465 201.158 157.482Z" fill="#FBEFB5"/>
<path d="M118.751 105.491C119.968 103.362 121.286 101.942 121.793 101.499C125.975 121.345 124.739 127.637 123.599 128.302L119.892 134.195C115.14 135.621 112.637 123.55 112.003 117.277C113.745 114.235 117.535 107.62 118.751 105.491Z" fill="#E27425"/>
<path d="M109.341 121.554L112.003 117.277C113.676 132.789 118.308 134.734 120.177 133.91C115.995 140.754 112.668 152.952 111.528 157.958C111.223 172.329 113.017 184.476 114.189 188.848C113.048 187.708 110.799 181.846 109.817 179.058C109.056 177.126 107.117 172.633 105.444 170.124C103.772 167.615 103.48 165.72 103.544 165.086C105.983 161.284 111.299 152.616 113.048 148.358C115.234 143.035 112.478 135.241 111.623 128.968C110.938 123.949 109.943 121.871 109.341 121.554Z" fill="#FA9F2D"/>
<path d="M191.178 187.708C190.038 189.609 178.22 197.815 172.454 201.68L170.362 201.49L165.135 186.092L166.085 184.001C166.656 184.666 168.347 186.396 170.553 187.993C173.309 189.989 179.107 189.419 183.384 188.943C186.806 188.563 191.527 185.427 193.459 183.906L191.178 187.708Z" fill="#903F22"/>
<path d="M102.783 132.294C103.087 131.686 107.282 124.881 109.342 121.554C110.178 122.162 110.767 123.582 110.957 124.215C114.075 136.762 114.094 144.017 113.714 146.076C113.562 149.042 106.87 159.985 103.544 165.086C104.532 154.593 103.449 138.853 102.783 132.294Z" fill="#E27425"/>
<path d="M172.454 201.68C171.009 200.92 169.508 197.561 168.937 195.977C168.114 198.543 166.846 203.695 168.367 203.771C169.888 203.847 171.725 202.409 172.454 201.68Z" fill="#F7A02B"/>
<path d="M168.367 203.771C165.858 203.619 162.443 202.694 161.048 202.25L160.573 201.87L164.09 188.848C164.217 185.237 164.622 178.355 165.231 179.724C165.839 181.092 166.054 183.082 166.086 183.906C166.086 184.825 166.238 186.966 166.846 188.183C167.455 189.4 168.114 191.732 168.367 192.745C169.508 196.395 168.842 201.617 168.367 203.771Z" fill="#E37326"/>
<path d="M111.052 157.767C114.018 143.092 120.652 132.009 123.599 128.302C124.359 130.203 131.583 141.229 132.153 142.179C132.609 142.94 133.294 143.637 133.579 143.89C133.705 147.185 133.769 157.083 131.108 170.694C128.446 184.305 127.179 196.801 127.115 201.3C126.925 201.268 126.241 201.186 125.024 201.11C123.808 201.034 117.23 192.777 114.094 188.658C111.661 180.142 111.052 164.516 111.052 157.767Z" fill="#BB5026"/>
<path d="M136.906 202.25C134.397 201.338 129.334 201.236 127.116 201.3C127.116 192.631 129.461 177.601 130.633 171.169L141.754 183.716L164.09 188.563C164.28 189.831 164.356 193.145 163.14 195.122C161.923 197.099 161.239 200.698 161.049 202.25C160.225 202.092 157.57 201.756 153.54 201.68C149.51 201.604 146.538 202.028 145.556 202.25C143.718 202.63 139.416 203.163 136.906 202.25Z" fill="#F7862A"/>
<path d="M130.633 171.169C132.99 160.828 133.579 148.548 133.579 143.89C136.773 146.4 140.993 148.706 142.704 149.498C149.738 153.775 159.718 164.041 161.143 165.466C162.284 166.607 163.013 167.019 163.234 167.082C163.678 168.825 164.679 173.641 165.135 178.963C165.706 185.617 163.425 196.928 155.726 194.171C148.027 191.415 137.761 184.096 134.91 182.1C132.629 180.503 131.108 174.243 130.633 171.169Z" fill="#FA9F2D"/>
<path d="M121.508 184.666C118.999 182.537 113.619 171.106 111.243 165.657C112.003 179.8 113.46 186.884 114.094 188.658C119.721 196.338 123.662 200.159 124.93 201.11C125.386 201.11 126.577 201.236 127.116 201.3C126.964 198.79 127.876 189.736 128.351 185.522C128.123 186.51 126.419 186.947 125.595 187.042C125.278 187.138 124.017 186.795 121.508 184.666Z" fill="#903F22"/>
<path d="M78.0708 185.142C78.6791 184.229 80.6688 183.621 81.5876 183.431C82.4114 185.743 83.8307 190.217 82.9183 189.609C82.0058 189 79.3064 186.377 78.0708 185.142Z" fill="#FCF2B5"/>
<path d="M108.866 199.779C110.159 201.376 110.102 203.296 109.912 204.056L104.494 204.531L108.866 199.779Z" fill="#FED652"/>
<path d="M109.912 204.056C107.783 209.379 105.033 211.977 103.924 212.611L102.784 210.424L102.403 207.478C102.752 206.939 103.639 205.615 104.399 204.626C105.16 203.638 108.391 203.834 109.912 204.056Z" fill="#E47327"/>
<path d="M84.5345 212.515C83.3939 212.135 80.6375 211.977 79.4019 211.945L90.9978 198.068L92.2334 197.498L96.3205 199.209C96.4472 199.589 97.252 200.786 99.4571 202.535C101.662 204.284 103.354 209.981 103.924 212.611L94.7047 212.991C94.0077 213.022 92.2904 212.991 90.9978 212.611C89.7051 212.23 88.178 212.452 87.576 212.611C87.0374 212.737 85.6751 212.896 84.5345 212.515Z" fill="#923E24"/>
<path d="M108.867 199.779C108.259 198.79 105.635 194.741 104.4 192.84L96.4155 198.448L96.1304 199.304L102.404 208.048L104.21 205.482L108.867 199.779Z" fill="#FA9F2D"/>
<path d="M72.6529 196.072C74.0976 194.171 76.8667 187.993 78.0706 185.142L80.0667 186.377L92.1379 197.783C88.0318 205.007 81.936 210.234 79.4014 211.945C76.3598 205.938 74.0786 202.535 73.3182 201.585C72.4945 200.539 71.2081 197.973 72.6529 196.072Z" fill="#FA9F2D"/>
<path d="M96.4155 183.241C97.5561 183.304 99.9513 183.849 100.408 185.522C100.978 187.613 102.023 189.894 104.4 192.84C104.431 193.221 104.133 194.285 102.689 195.502C101.168 197.327 99.7105 197.656 99.1719 197.593C98.76 197.593 97.6701 197.859 96.6056 198.924C95.541 199.988 94.0709 199.24 93.469 198.733C92.6452 198.036 90.5605 196.623 88.8116 196.547C87.0627 196.471 86.2453 196.009 86.0552 195.787C86.2073 193.278 84.1225 190.147 83.0136 189.134C83.0136 188.658 82.7855 187.803 82.2532 186.282C81.721 184.761 81.5879 183.747 81.5879 183.431C85.618 182.518 93.1521 182.924 96.4155 183.241Z" fill="#FCE37F"/>
<path d="M88.9068 203.106C90.2755 202.573 93.279 200.413 94.6097 199.399C95.2941 199.551 96.0354 199.335 96.3206 199.209C97.5562 201.015 98.8869 202.06 99.6473 202.725C100.256 203.258 100.915 204.278 101.168 204.721C102.765 208.067 103.671 211.375 103.924 212.611L98.5067 212.801C97.081 212.42 96.7958 212.135 92.5186 209.854C89.0969 208.029 88.685 204.595 88.9068 203.106Z" fill="#BB5026"/>
<path d="M79.9713 197.688C81.7962 197.612 84.7871 196.389 86.0544 195.787L90.0464 196.072L92.1374 197.783C90.4266 201.11 86.7197 205.292 85.0088 207.098C83.2979 208.904 77.6901 208.714 76.6445 206.813C75.599 204.912 75.0287 204.056 73.508 201.87C72.2913 200.121 72.0505 198.987 72.0822 198.638C73.9072 199.095 75.6307 198.702 76.2644 198.448C76.7396 198.227 78.1463 197.764 79.9713 197.688Z" fill="#E47526"/>
<path d="M102.688 195.502C98.6582 189.799 96.8269 184.951 96.415 183.241C99.1524 183.545 100.154 184.761 100.312 185.332C100.996 188.221 103.322 191.605 104.399 192.935C104.247 194.076 103.195 195.122 102.688 195.502Z" fill="#FAF1B5"/>
<path d="M94.0393 190.749C89.7812 187.708 88.273 184.223 88.0513 182.86C89.7241 182.86 92.2334 182.987 93.2789 183.05C93.5324 183.747 94.6476 185.826 97.0809 188.563C99.5141 191.301 101.263 194.9 101.833 196.357C100.845 197.346 99.5205 197.593 98.9819 197.593C99.1086 196.579 98.2975 193.791 94.0393 190.749Z" fill="#FFD454"/>
</svg>
