<svg width="395" height="491" viewBox="0 0 395 491" fill="none" xmlns="http://www.w3.org/2000/svg">
<rect width="394.099" height="490.871" rx="20" fill="#202020" fill-opacity="0.5"/>
<path d="M41.12 49.64C43.3867 49.8533 45.84 49.96 48.48 49.96C51.1467 49.96 52.8 49.9867 53.44 50.04C54.1067 50.0667 54.8267 50.16 55.6 50.32C56.3733 50.48 56.9733 50.72 57.4 51.04C58.4667 51.76 59 52.8667 59 54.36C59 55.8267 58.48 57.1733 57.44 58.4C56.4 59.6 55.1333 60.5067 53.64 61.12V61.28C55.56 61.28 57.12 61.7333 58.32 62.64C59.52 63.52 60.12 64.8267 60.12 66.56C60.12 68.6933 59.12 70.7467 57.12 72.72C55.12 74.6933 52.96 75.9867 50.64 76.6C48.9867 76.6 47.04 76.0933 44.8 75.08C44.3467 75.7733 44.04 76.3733 43.88 76.88L43.04 76.68C43.68 73.7733 44 69.2133 44 63C44 60.6267 43.8933 56.9867 43.68 52.08C40.72 52.1333 38.8267 52.56 38 53.36C37.8133 53.7333 37.72 54.32 37.72 55.12C37.72 55.92 37.8533 56.4667 38.12 56.76L38.08 57.04C37.4133 57.44 36.7467 58 36.08 58.72C35.76 58.6933 35.5067 58.56 35.32 58.32C35.1067 58.08 35 57.8 35 57.48C35 56.2533 35.7067 54.8 37.12 53.12C38.5067 51.44 39.84 50.28 41.12 49.64ZM49.52 60.72C51.4933 60.72 52.92 60.44 53.8 59.88C54.76 58.8133 55.24 57.4667 55.24 55.84C55.24 54.1867 54.7867 53.1333 53.88 52.68C53 52.2 51.84 51.96 50.4 51.96C48.9867 51.96 47.9867 52 47.4 52.08C47.1867 54.7733 47.08 58.28 47.08 62.6C47.08 66.92 47.1467 70.2533 47.28 72.6C48.6667 73.3467 50.1467 73.72 51.72 73.72C53.32 73.72 54.5867 73.4 55.52 72.76C56.1333 71.4533 56.44 69.9867 56.44 68.36C56.44 64.2533 53.9067 62.2 48.84 62.2L49.04 60.72H49.52ZM63.7669 55.24L72.9669 54.96C75.3669 54.96 77.1669 55.32 78.3669 56.04C79.5669 56.7333 80.1669 58.0133 80.1669 59.88C80.1669 61.16 79.7669 62.2933 78.9669 63.28C78.1935 64.2667 77.1669 65 75.8869 65.48L80.3669 74.64C81.2735 74.8 82.1269 74.9867 82.9269 75.2L82.7669 76.28C81.6469 76.0933 80.3802 76 78.9669 76C77.5802 76 76.4869 76.0667 75.6869 76.2L75.5269 75.56C75.8735 75.2133 76.0469 74.64 76.0469 73.84C76.0469 72.2133 75.1135 69.6 73.2469 66C72.6869 65.8933 72.0335 65.84 71.2869 65.84L71.3669 64.68H71.7669C74.9135 64.68 76.4869 63.24 76.4869 60.36C76.4869 57.6933 75.1402 56.36 72.4469 56.36C71.5402 56.36 70.7269 56.5067 70.0069 56.8C69.8202 58.56 69.7269 61.5733 69.7269 65.84C69.7269 70.1067 69.8469 73.0533 70.0869 74.68C71.2602 74.8133 72.3535 75.0133 73.3669 75.28L73.2469 76.28C71.8602 76.0933 70.3002 76 68.5669 76C66.8602 76 65.3269 76.1067 63.9669 76.32L63.8069 75.28C64.5535 75.04 65.3935 74.84 66.3269 74.68C66.5935 72.68 66.7269 69.5733 66.7269 65.36C66.7269 61.12 66.6069 58.1867 66.3669 56.56C65.3269 56.2133 64.4602 56.04 63.7669 56.04V55.24ZM93.6216 76.48C90.9816 76.48 88.8482 75.6533 87.2216 74C85.5949 72.32 84.7816 70.08 84.7816 67.28C84.7816 64.48 85.6349 61.8533 87.3416 59.4C89.0482 56.9467 91.2749 55.3733 94.0216 54.68C96.7682 54.68 98.8616 55.4667 100.302 57.04C101.742 58.5867 102.462 60.8 102.462 63.68C102.462 66.56 101.675 69.16 100.102 71.48C98.5549 73.8 96.3949 75.4667 93.6216 76.48ZM92.9416 57.12C91.7416 57.12 90.7016 57.4533 89.8216 58.12C88.7282 59.9867 88.1816 62.3333 88.1816 65.16C88.1816 68.4133 89.0882 70.9067 90.9016 72.64C91.8616 73.5733 92.9949 74.04 94.3016 74.04C95.6082 74.04 96.6616 73.6933 97.4616 73C98.5282 71.1333 99.0616 68.8533 99.0616 66.16C99.0616 63.4667 98.5816 61.2933 97.6216 59.64C96.6616 57.96 95.1016 57.12 92.9416 57.12ZM115.516 76.28C114.13 76.0933 112.57 76 110.836 76C109.13 76 107.596 76.1067 106.236 76.32L106.076 75.28C106.93 75.0133 107.73 74.8133 108.476 74.68C108.716 72.6 108.836 69.88 108.836 66.52V64.64C108.836 61.0667 108.703 58.32 108.436 56.4C107.716 56.32 106.85 56.1067 105.836 55.76L105.956 54.72C107.476 55.0133 109.063 55.16 110.716 55.16C112.396 55.16 113.596 55.0667 114.316 54.88L114.396 55.56C113.676 55.7467 113.316 56.0533 113.316 56.48C113.316 56.8 113.623 57.48 114.236 58.52C114.876 59.5333 115.49 60.52 116.076 61.48C117.836 64.28 119.916 67.72 122.316 71.8L122.436 71.72V66.84C122.436 63.2667 122.25 60.5867 121.876 58.8C121.503 56.9867 120.863 55.9333 119.956 55.64L120.036 54.96C120.73 55.0933 121.77 55.16 123.156 55.16C124.543 55.16 125.97 55.0133 127.436 54.72L127.556 55.76C126.463 56.1067 125.543 56.32 124.796 56.4C124.53 58.5333 124.396 61.28 124.396 64.64V66.52C124.396 70.5733 124.53 73.32 124.796 74.76C125.916 74.9467 126.81 75.16 127.476 75.4L127.356 76.44C126.023 76.1467 124.77 76 123.596 76C122.423 76 121.516 76.0533 120.876 76.16C120.876 75.5733 120.463 74.5867 119.636 73.2C118.836 71.8133 118.103 70.5867 117.436 69.52C115.276 66.0267 113.156 62.48 111.076 58.88L110.916 58.96V64.32C110.916 69.6267 111.316 73.08 112.116 74.68C113.316 74.8133 114.49 75.0133 115.636 75.28L115.516 76.28ZM142.438 55.52C143.611 55.52 144.638 55.12 145.518 54.32L146.358 54.96C145.611 55.6267 144.758 56.7867 143.798 58.44L135.118 73.44L135.238 73.52H140.038C141.238 73.52 142.105 73.32 142.638 72.92C142.771 72.04 142.838 71.12 142.838 70.16H143.878C144.038 72.5867 144.865 74.56 146.358 76.08L145.558 76.64C145.451 76.48 145.238 76.2933 144.918 76.08C141.878 75.5733 138.198 75.32 133.878 75.32C132.091 75.32 130.825 75.76 130.078 76.64L129.238 75.96C130.438 74.76 131.425 73.52 132.198 72.24L141.278 57.44L141.198 57.36H136.878C135.571 57.36 134.451 57.56 133.518 57.96C133.358 58.8933 133.091 59.7867 132.718 60.64L131.758 60.52C131.811 59.72 131.838 58.9867 131.838 58.32C131.838 57.6533 131.731 56.9067 131.518 56.08C131.091 55.84 130.638 55.6667 130.158 55.56L130.238 54.68C130.691 54.68 132.385 54.8267 135.318 55.12C138.278 55.3867 140.651 55.52 142.438 55.52ZM151.935 66.12C152.015 68.4933 152.455 70.3467 153.255 71.68C154.055 73.0133 155.415 73.68 157.335 73.68C159.255 73.68 161.029 72.8667 162.655 71.24L163.215 71.8C161.429 74.0667 159.282 75.6267 156.775 76.48C154.189 76.48 152.162 75.6667 150.695 74.04C149.229 72.3867 148.495 70.1733 148.495 67.4C148.495 64.6 149.362 61.9733 151.095 59.52C152.829 57.0667 155.042 55.4533 157.735 54.68C159.682 54.68 161.882 54.88 164.335 55.28L164.295 56.16C163.789 56.16 163.309 56.2533 162.855 56.44C162.349 57.64 162.015 59.0667 161.855 60.72H160.855C160.642 59.8133 160.535 58.88 160.535 57.92C159.522 57.4133 158.322 57.16 156.935 57.16C155.549 57.16 154.402 57.5333 153.495 58.28C152.589 59.9333 152.069 61.9067 151.935 64.2C153.055 64.3867 154.255 64.48 155.535 64.48C157.749 64.48 159.082 64.0133 159.535 63.08L160.375 63.2C160.135 64 160.015 64.7867 160.015 65.56C160.015 66.3333 160.109 67.28 160.295 68.4L159.335 68.56C159.042 67.76 158.829 66.9333 158.695 66.08C157.629 65.9733 156.562 65.92 155.495 65.92C154.455 65.92 153.269 65.9867 151.935 66.12ZM184.333 49.36C187.586 49.36 190.039 50.3333 191.693 52.28C193.373 54.2267 194.213 57.0133 194.213 60.64C194.213 64.24 193.293 67.4933 191.453 70.4C189.639 73.28 187.106 75.3467 183.853 76.6C180.733 76.6 178.226 75.5733 176.333 73.52C174.439 71.44 173.493 68.7333 173.493 65.4C173.493 59.96 175.466 55.4533 179.413 51.88L179.893 52.2C177.999 54.9467 177.053 58.36 177.053 62.44C177.053 65.3467 177.719 67.96 179.053 70.28C180.413 72.5733 182.293 73.72 184.693 73.72C186.266 73.72 187.586 73.2533 188.653 72.32C189.986 69.8667 190.653 66.96 190.653 63.6C190.653 59.2 189.813 55.9733 188.133 53.92C187.226 52.8 186.093 52.24 184.733 52.24C184.039 52.24 183.399 52.44 182.813 52.84C182.226 53.24 181.813 53.76 181.573 54.4C181.573 54.9333 181.693 55.56 181.933 56.28C182.173 56.9733 182.479 57.4133 182.853 57.6L182.933 57.88C182.346 58.6 181.906 59.36 181.613 60.16C181.559 60.1867 181.453 60.2 181.293 60.2C180.333 60.2 179.853 59.3467 179.853 57.64C179.853 54.76 181.346 52 184.333 49.36ZM197.595 55.24L206.795 54.96C209.195 54.96 210.995 55.32 212.195 56.04C213.395 56.7333 213.995 58.0133 213.995 59.88C213.995 61.16 213.595 62.2933 212.795 63.28C212.022 64.2667 210.995 65 209.715 65.48L214.195 74.64C215.102 74.8 215.955 74.9867 216.755 75.2L216.595 76.28C215.475 76.0933 214.208 76 212.795 76C211.408 76 210.315 76.0667 209.515 76.2L209.355 75.56C209.702 75.2133 209.875 74.64 209.875 73.84C209.875 72.2133 208.942 69.6 207.075 66C206.515 65.8933 205.862 65.84 205.115 65.84L205.195 64.68H205.595C208.742 64.68 210.315 63.24 210.315 60.36C210.315 57.6933 208.968 56.36 206.275 56.36C205.368 56.36 204.555 56.5067 203.835 56.8C203.648 58.56 203.555 61.5733 203.555 65.84C203.555 70.1067 203.675 73.0533 203.915 74.68C205.088 74.8133 206.182 75.0133 207.195 75.28L207.075 76.28C205.688 76.0933 204.128 76 202.395 76C200.688 76 199.155 76.1067 197.795 76.32L197.635 75.28C198.382 75.04 199.222 74.84 200.155 74.68C200.422 72.68 200.555 69.5733 200.555 65.36C200.555 61.12 200.435 58.1867 200.195 56.56C199.155 56.2133 198.288 56.04 197.595 56.04V55.24ZM222.17 66.12C222.25 68.4933 222.69 70.3467 223.49 71.68C224.29 73.0133 225.65 73.68 227.57 73.68C229.49 73.68 231.263 72.8667 232.89 71.24L233.45 71.8C231.663 74.0667 229.516 75.6267 227.01 76.48C224.423 76.48 222.396 75.6667 220.93 74.04C219.463 72.3867 218.73 70.1733 218.73 67.4C218.73 64.6 219.596 61.9733 221.33 59.52C223.063 57.0667 225.276 55.4533 227.97 54.68C229.916 54.68 232.116 54.88 234.57 55.28L234.53 56.16C234.023 56.16 233.543 56.2533 233.09 56.44C232.583 57.64 232.25 59.0667 232.09 60.72H231.09C230.876 59.8133 230.77 58.88 230.77 57.92C229.756 57.4133 228.556 57.16 227.17 57.16C225.783 57.16 224.636 57.5333 223.73 58.28C222.823 59.9333 222.303 61.9067 222.17 64.2C223.29 64.3867 224.49 64.48 225.77 64.48C227.983 64.48 229.316 64.0133 229.77 63.08L230.61 63.2C230.37 64 230.25 64.7867 230.25 65.56C230.25 66.3333 230.343 67.28 230.53 68.4L229.57 68.56C229.276 67.76 229.063 66.9333 228.93 66.08C227.863 65.9733 226.796 65.92 225.73 65.92C224.69 65.92 223.503 65.9867 222.17 66.12Z" fill="#FAF9F6"/>
<path d="M40.3495 374.36V372.2H52.3735V374.36H40.3495ZM45.0775 378.992V367.4H47.5975V378.992H45.0775ZM58.6572 378.824V365.192L59.5452 365.864L56.2332 367.616L55.5372 365.36L60.0252 362.96H61.2732V378.824H58.6572ZM55.9932 380V377.504H64.0092V380H55.9932ZM73.8558 380V367.4H76.3518V370.088L75.8958 370.376C76.0238 369.96 76.2238 369.56 76.4958 369.176C76.7838 368.792 77.1278 368.456 77.5278 368.168C77.9438 367.864 78.3838 367.624 78.8478 367.448C79.3278 367.272 79.8158 367.184 80.3118 367.184C81.0318 367.184 81.6638 367.304 82.2078 367.544C82.7518 367.784 83.1998 368.144 83.5518 368.624C83.9038 369.104 84.1598 369.704 84.3198 370.424L83.9358 370.328L84.1038 369.92C84.2798 369.552 84.5198 369.208 84.8238 368.888C85.1438 368.552 85.5038 368.256 85.9038 368C86.3038 367.744 86.7278 367.544 87.1758 367.4C87.6238 367.256 88.0638 367.184 88.4958 367.184C89.4398 367.184 90.2158 367.376 90.8238 367.76C91.4478 368.144 91.9118 368.728 92.2158 369.512C92.5358 370.296 92.6958 371.272 92.6958 372.44V380H90.1998V372.584C90.1998 371.864 90.1038 371.28 89.9118 370.832C89.7358 370.368 89.4638 370.024 89.0958 369.8C88.7278 369.576 88.2558 369.464 87.6798 369.464C87.2318 369.464 86.8078 369.544 86.4078 369.704C86.0238 369.848 85.6878 370.056 85.3998 370.328C85.1118 370.6 84.8878 370.92 84.7278 371.288C84.5678 371.64 84.4878 372.032 84.4878 372.464V380H81.9918V372.536C81.9918 371.88 81.8958 371.328 81.7038 370.88C81.5118 370.416 81.2318 370.064 80.8638 369.824C80.4958 369.584 80.0478 369.464 79.5198 369.464C79.0718 369.464 78.6558 369.544 78.2718 369.704C77.8878 369.848 77.5518 370.056 77.2638 370.328C76.9758 370.584 76.7518 370.896 76.5918 371.264C76.4318 371.616 76.3518 372 76.3518 372.416V380H73.8558ZM100.853 380.24C99.8133 380.24 98.8613 379.952 97.9973 379.376C97.1493 378.8 96.4693 378.016 95.9573 377.024C95.4453 376.032 95.1893 374.912 95.1893 373.664C95.1893 372.4 95.4453 371.28 95.9573 370.304C96.4853 369.312 97.1893 368.536 98.0693 367.976C98.9653 367.416 99.9653 367.136 101.069 367.136C101.725 367.136 102.325 367.232 102.869 367.424C103.413 367.616 103.885 367.888 104.285 368.24C104.701 368.576 105.037 368.968 105.293 369.416C105.565 369.864 105.733 370.344 105.797 370.856L105.245 370.664V367.4H107.741V380H105.245V377L105.821 376.832C105.725 377.264 105.525 377.688 105.221 378.104C104.933 378.504 104.557 378.864 104.093 379.184C103.645 379.504 103.141 379.76 102.581 379.952C102.037 380.144 101.461 380.24 100.853 380.24ZM101.501 377.96C102.253 377.96 102.917 377.776 103.493 377.408C104.069 377.04 104.517 376.536 104.837 375.896C105.173 375.24 105.341 374.496 105.341 373.664C105.341 372.848 105.173 372.12 104.837 371.48C104.517 370.84 104.069 370.336 103.493 369.968C102.917 369.6 102.253 369.416 101.501 369.416C100.765 369.416 100.109 369.6 99.5333 369.968C98.9733 370.336 98.5253 370.84 98.1893 371.48C97.8693 372.12 97.7093 372.848 97.7093 373.664C97.7093 374.496 97.8693 375.24 98.1893 375.896C98.5253 376.536 98.9733 377.04 99.5333 377.408C100.109 377.776 100.765 377.96 101.501 377.96ZM116.833 385.52C115.937 385.52 115.041 385.376 114.145 385.088C113.265 384.816 112.553 384.456 112.009 384.008L112.921 382.088C113.241 382.328 113.617 382.536 114.049 382.712C114.481 382.904 114.937 383.048 115.417 383.144C115.897 383.256 116.369 383.312 116.833 383.312C117.713 383.312 118.449 383.168 119.041 382.88C119.633 382.592 120.081 382.168 120.385 381.608C120.689 381.048 120.841 380.352 120.841 379.52V377.096L121.105 377.264C121.025 377.76 120.761 378.24 120.313 378.704C119.881 379.152 119.337 379.52 118.681 379.808C118.025 380.096 117.353 380.24 116.665 380.24C115.465 380.24 114.393 379.96 113.449 379.4C112.521 378.824 111.785 378.048 111.241 377.072C110.697 376.08 110.425 374.952 110.425 373.688C110.425 372.424 110.689 371.304 111.217 370.328C111.761 369.336 112.497 368.56 113.425 368C114.369 367.424 115.425 367.136 116.593 367.136C117.073 367.136 117.537 367.2 117.985 367.328C118.433 367.44 118.849 367.608 119.233 367.832C119.617 368.04 119.961 368.272 120.265 368.528C120.569 368.784 120.817 369.056 121.009 369.344C121.201 369.632 121.321 369.904 121.369 370.16L120.841 370.352V367.4H123.313V379.232C123.313 380.24 123.161 381.128 122.857 381.896C122.569 382.68 122.145 383.336 121.585 383.864C121.025 384.408 120.345 384.816 119.545 385.088C118.745 385.376 117.841 385.52 116.833 385.52ZM116.929 377.96C117.713 377.96 118.409 377.776 119.017 377.408C119.625 377.04 120.097 376.536 120.433 375.896C120.769 375.256 120.937 374.52 120.937 373.688C120.937 372.856 120.761 372.12 120.409 371.48C120.073 370.824 119.601 370.312 118.993 369.944C118.401 369.576 117.713 369.392 116.929 369.392C116.161 369.392 115.473 369.584 114.865 369.968C114.273 370.336 113.801 370.848 113.449 371.504C113.113 372.144 112.945 372.872 112.945 373.688C112.945 374.504 113.113 375.24 113.449 375.896C113.801 376.536 114.273 377.04 114.865 377.408C115.473 377.776 116.161 377.96 116.929 377.96ZM127.187 380V367.4H129.659V380H127.187ZM128.387 364.616C127.859 364.616 127.451 364.48 127.163 364.208C126.875 363.936 126.731 363.552 126.731 363.056C126.731 362.592 126.875 362.216 127.163 361.928C127.467 361.64 127.875 361.496 128.387 361.496C128.915 361.496 129.323 361.632 129.611 361.904C129.899 362.176 130.043 362.56 130.043 363.056C130.043 363.52 129.891 363.896 129.587 364.184C129.299 364.472 128.899 364.616 128.387 364.616ZM138.81 380.24C137.642 380.24 136.594 379.952 135.666 379.376C134.754 378.8 134.026 378.016 133.482 377.024C132.954 376.032 132.69 374.92 132.69 373.688C132.69 372.456 132.954 371.344 133.482 370.352C134.026 369.36 134.754 368.576 135.666 368C136.594 367.424 137.642 367.136 138.81 367.136C139.93 367.136 140.946 367.368 141.858 367.832C142.786 368.28 143.49 368.896 143.97 369.68L142.602 371.36C142.346 370.992 142.018 370.656 141.618 370.352C141.218 370.048 140.794 369.808 140.346 369.632C139.898 369.456 139.466 369.368 139.05 369.368C138.282 369.368 137.594 369.56 136.986 369.944C136.394 370.312 135.922 370.824 135.57 371.48C135.218 372.136 135.042 372.872 135.042 373.688C135.042 374.504 135.226 375.24 135.594 375.896C135.962 376.536 136.45 377.048 137.058 377.432C137.666 377.816 138.338 378.008 139.074 378.008C139.506 378.008 139.922 377.936 140.322 377.792C140.738 377.648 141.138 377.432 141.522 377.144C141.906 376.856 142.266 376.504 142.602 376.088L143.97 377.768C143.458 378.488 142.722 379.08 141.762 379.544C140.818 380.008 139.834 380.24 138.81 380.24ZM158.669 385.52C157.773 385.52 156.877 385.376 155.981 385.088C155.101 384.816 154.389 384.456 153.845 384.008L154.757 382.088C155.077 382.328 155.453 382.536 155.885 382.712C156.317 382.904 156.773 383.048 157.253 383.144C157.733 383.256 158.205 383.312 158.669 383.312C159.549 383.312 160.285 383.168 160.877 382.88C161.469 382.592 161.917 382.168 162.221 381.608C162.525 381.048 162.677 380.352 162.677 379.52V377.096L162.941 377.264C162.861 377.76 162.597 378.24 162.149 378.704C161.717 379.152 161.173 379.52 160.517 379.808C159.861 380.096 159.189 380.24 158.501 380.24C157.301 380.24 156.229 379.96 155.285 379.4C154.357 378.824 153.621 378.048 153.077 377.072C152.533 376.08 152.261 374.952 152.261 373.688C152.261 372.424 152.525 371.304 153.053 370.328C153.597 369.336 154.333 368.56 155.261 368C156.205 367.424 157.261 367.136 158.429 367.136C158.909 367.136 159.373 367.2 159.821 367.328C160.269 367.44 160.685 367.608 161.069 367.832C161.453 368.04 161.797 368.272 162.101 368.528C162.405 368.784 162.653 369.056 162.845 369.344C163.037 369.632 163.157 369.904 163.205 370.16L162.677 370.352V367.4H165.149V379.232C165.149 380.24 164.997 381.128 164.693 381.896C164.405 382.68 163.981 383.336 163.421 383.864C162.861 384.408 162.181 384.816 161.381 385.088C160.581 385.376 159.677 385.52 158.669 385.52ZM158.765 377.96C159.549 377.96 160.245 377.776 160.853 377.408C161.461 377.04 161.933 376.536 162.269 375.896C162.605 375.256 162.773 374.52 162.773 373.688C162.773 372.856 162.597 372.12 162.245 371.48C161.909 370.824 161.437 370.312 160.829 369.944C160.237 369.576 159.549 369.392 158.765 369.392C157.997 369.392 157.309 369.584 156.701 369.968C156.109 370.336 155.637 370.848 155.285 371.504C154.949 372.144 154.781 372.872 154.781 373.688C154.781 374.504 154.949 375.24 155.285 375.896C155.637 376.536 156.109 377.04 156.701 377.408C157.309 377.776 157.997 377.96 158.765 377.96ZM174.495 380.24C173.199 380.24 172.047 379.968 171.039 379.424C170.047 378.864 169.263 378.104 168.687 377.144C168.127 376.184 167.847 375.08 167.847 373.832C167.847 372.84 168.007 371.936 168.327 371.12C168.647 370.304 169.087 369.6 169.647 369.008C170.223 368.4 170.903 367.936 171.687 367.616C172.487 367.28 173.351 367.112 174.279 367.112C175.095 367.112 175.855 367.272 176.559 367.592C177.263 367.896 177.871 368.32 178.383 368.864C178.911 369.408 179.311 370.056 179.583 370.808C179.871 371.544 180.007 372.352 179.991 373.232L179.967 374.288H169.671L169.119 372.32H177.831L177.471 372.728V372.152C177.423 371.624 177.247 371.152 176.943 370.736C176.639 370.32 176.255 369.992 175.791 369.752C175.327 369.512 174.823 369.392 174.279 369.392C173.415 369.392 172.687 369.56 172.095 369.896C171.503 370.216 171.055 370.696 170.751 371.336C170.447 371.96 170.295 372.736 170.295 373.664C170.295 374.544 170.479 375.312 170.847 375.968C171.215 376.608 171.735 377.104 172.407 377.456C173.079 377.808 173.855 377.984 174.735 377.984C175.359 377.984 175.935 377.88 176.463 377.672C177.007 377.464 177.591 377.088 178.215 376.544L179.463 378.296C179.079 378.68 178.607 379.016 178.047 379.304C177.503 379.592 176.919 379.824 176.295 380C175.687 380.16 175.087 380.24 174.495 380.24ZM182.629 380V367.4H185.125V370.088L184.669 370.376C184.797 369.96 184.997 369.56 185.269 369.176C185.557 368.792 185.901 368.456 186.301 368.168C186.717 367.864 187.157 367.624 187.621 367.448C188.101 367.272 188.589 367.184 189.085 367.184C189.805 367.184 190.437 367.304 190.981 367.544C191.525 367.784 191.973 368.144 192.325 368.624C192.677 369.104 192.933 369.704 193.093 370.424L192.709 370.328L192.877 369.92C193.053 369.552 193.293 369.208 193.597 368.888C193.917 368.552 194.277 368.256 194.677 368C195.077 367.744 195.501 367.544 195.949 367.4C196.397 367.256 196.837 367.184 197.269 367.184C198.213 367.184 198.989 367.376 199.597 367.76C200.221 368.144 200.685 368.728 200.989 369.512C201.309 370.296 201.469 371.272 201.469 372.44V380H198.973V372.584C198.973 371.864 198.877 371.28 198.685 370.832C198.509 370.368 198.237 370.024 197.869 369.8C197.501 369.576 197.029 369.464 196.453 369.464C196.005 369.464 195.581 369.544 195.181 369.704C194.797 369.848 194.461 370.056 194.173 370.328C193.885 370.6 193.661 370.92 193.501 371.288C193.341 371.64 193.261 372.032 193.261 372.464V380H190.765V372.536C190.765 371.88 190.669 371.328 190.477 370.88C190.285 370.416 190.005 370.064 189.637 369.824C189.269 369.584 188.821 369.464 188.293 369.464C187.845 369.464 187.429 369.544 187.045 369.704C186.661 369.848 186.325 370.056 186.037 370.328C185.749 370.584 185.525 370.896 185.365 371.264C185.205 371.616 185.125 372 185.125 372.416V380H182.629ZM208.979 380.24C207.923 380.24 206.971 380.056 206.123 379.688C205.275 379.32 204.571 378.776 204.011 378.056L205.691 376.616C206.171 377.176 206.691 377.584 207.251 377.84C207.827 378.08 208.475 378.2 209.195 378.2C209.483 378.2 209.747 378.168 209.987 378.104C210.243 378.024 210.459 377.912 210.635 377.768C210.827 377.624 210.971 377.456 211.067 377.264C211.163 377.056 211.211 376.832 211.211 376.592C211.211 376.176 211.059 375.84 210.755 375.584C210.595 375.472 210.339 375.352 209.987 375.224C209.651 375.08 209.211 374.936 208.667 374.792C207.739 374.552 206.979 374.28 206.387 373.976C205.795 373.672 205.339 373.328 205.019 372.944C204.779 372.64 204.603 372.312 204.491 371.96C204.379 371.592 204.323 371.192 204.323 370.76C204.323 370.232 204.435 369.752 204.659 369.32C204.899 368.872 205.219 368.488 205.619 368.168C206.035 367.832 206.515 367.576 207.059 367.4C207.619 367.224 208.211 367.136 208.835 367.136C209.427 367.136 210.011 367.216 210.587 367.376C211.179 367.536 211.723 367.768 212.219 368.072C212.715 368.376 213.131 368.736 213.467 369.152L212.051 370.712C211.747 370.408 211.411 370.144 211.043 369.92C210.691 369.68 210.331 369.496 209.963 369.368C209.595 369.24 209.259 369.176 208.955 369.176C208.619 369.176 208.315 369.208 208.043 369.272C207.771 369.336 207.539 369.432 207.347 369.56C207.171 369.688 207.035 369.848 206.939 370.04C206.843 370.232 206.795 370.448 206.795 370.688C206.811 370.896 206.859 371.096 206.939 371.288C207.035 371.464 207.163 371.616 207.323 371.744C207.499 371.872 207.763 372.008 208.115 372.152C208.467 372.296 208.915 372.432 209.459 372.56C210.259 372.768 210.915 373 211.427 373.256C211.955 373.496 212.371 373.776 212.675 374.096C212.995 374.4 213.219 374.752 213.347 375.152C213.475 375.552 213.539 376 213.539 376.496C213.539 377.216 213.331 377.864 212.915 378.44C212.515 379 211.971 379.44 211.283 379.76C210.595 380.08 209.827 380.24 208.979 380.24Z" fill="#FAF9F6"/>
<path d="M201.076 215.96L172.325 161.191C172.325 159.696 170.313 148.685 169.307 143.366C170.112 141.756 179.13 137.424 183.538 135.459L205.819 219.266L201.076 215.96Z" fill="#FFD454"/>
<path d="M171.606 184.047C174.481 179.792 173.427 166.989 172.325 161.191L201.075 215.96C197.338 214.187 189.173 209.865 186.413 206.76C183.653 203.655 175.248 190.372 171.606 184.047Z" fill="#FCE37F"/>
<path d="M296.095 221.279C296.44 226.569 283.972 254.533 277.695 267.998L277.264 266.417L283.014 234.648L284.307 231.342L296.095 221.279Z" fill="#FCA02D"/>
<path d="M284.02 232.923C284.25 238.213 279.803 258.606 277.551 268.142L271.37 273.748L257.426 278.348L240.032 275.617L236.295 268.429L235.863 268.142L230.832 242.267C248.466 236.948 283.79 227.633 284.02 232.923Z" fill="#BB5026"/>
<path d="M188.425 132.872C187.505 133.332 184.783 134.789 183.537 135.459L205.819 219.266C208.837 220.848 225.225 236.948 230.4 241.548C234.54 245.228 247.842 243.656 253.975 242.41L188.425 132.872Z" fill="#FBEFB5"/>
<path d="M222.494 129.284C201.219 128.019 190.725 131.291 188.138 133.016L253.688 242.416C263.233 240.461 273.095 237.672 276.688 236.522C258.72 206.185 238.451 156.501 232.701 135.753C227.641 134.373 223.692 130.865 222.494 129.284Z" fill="#FFD454"/>
<path d="M248.944 146.528C246.874 142.503 237.252 137.664 232.7 135.747C243.855 179.447 266.673 221.135 276.688 236.517C281.863 235.022 286.224 231.485 287.757 229.904C289.022 228.179 293.842 223.435 296.094 221.279C278.614 197.934 257.377 161.718 248.944 146.528Z" fill="#FCE37F"/>
<path d="M289.339 228.035C280.944 220.33 258.336 180.262 248.082 161.191C256.362 181.776 273.382 218.835 280.857 234.792C284.997 232.952 288.237 229.521 289.339 228.035Z" fill="#FBEFB5"/>
<path d="M164.706 149.404C166.546 146.183 168.54 144.037 169.306 143.366C175.631 173.381 173.763 182.898 172.038 183.904L166.431 192.816C159.244 194.973 155.458 176.716 154.5 167.229C157.135 162.629 162.866 152.624 164.706 149.404Z" fill="#E27425"/>
<path d="M150.476 173.697L154.501 167.229C157.031 190.689 164.037 193.631 166.864 192.385C160.539 202.735 155.507 221.183 153.782 228.754C153.322 250.489 156.034 268.861 157.807 275.473C156.082 273.748 152.68 264.883 151.195 260.667C150.045 257.744 147.112 250.949 144.582 247.154C142.052 243.359 141.611 240.494 141.707 239.535C145.397 233.785 153.437 220.675 156.082 214.235C159.389 206.185 155.22 194.397 153.926 184.91C152.891 177.32 151.386 174.176 150.476 173.697Z" fill="#FA9F2D"/>
<path d="M274.244 273.748C272.519 276.623 254.646 289.034 245.925 294.88L242.763 294.592L234.856 271.304L236.294 268.142C237.156 269.148 239.715 271.764 243.05 274.179C247.219 277.198 255.988 276.336 262.457 275.617C267.632 275.042 274.771 270.298 277.694 267.998L274.244 273.748Z" fill="#903F22"/>
<path d="M140.556 189.941C141.016 189.021 147.36 178.729 150.474 173.697C151.74 174.617 152.631 176.764 152.918 177.722C157.633 196.697 157.662 207.67 157.087 210.785C156.857 215.27 146.737 231.821 141.706 239.535C143.201 223.665 141.562 199.86 140.556 189.941Z" fill="#E27425"/>
<path d="M245.925 294.88C243.74 293.73 241.469 288.65 240.606 286.255C239.36 290.136 237.444 297.927 239.744 298.042C242.044 298.157 244.823 295.982 245.925 294.88Z" fill="#F7A02B"/>
<path d="M239.746 298.042C235.951 297.812 230.785 296.413 228.677 295.742L227.958 295.167L233.277 275.473C233.468 270.011 234.082 259.603 235.002 261.673C235.922 263.743 236.248 266.752 236.296 267.998C236.296 269.388 236.526 272.627 237.446 274.467C238.366 276.307 239.362 279.834 239.746 281.367C241.471 286.887 240.464 294.784 239.746 298.042Z" fill="#E37326"/>
<path d="M153.062 228.467C157.547 206.271 167.58 189.51 172.037 183.904C173.187 186.779 184.112 203.454 184.974 204.891C185.664 206.041 186.699 207.096 187.131 207.479C187.322 212.462 187.418 227.432 183.393 248.017C179.368 268.602 177.451 287.5 177.355 294.305C177.068 294.257 176.033 294.132 174.193 294.017C172.353 293.902 162.405 281.415 157.662 275.186C153.982 262.306 153.062 238.673 153.062 228.467Z" fill="#BB5026"/>
<path d="M192.164 295.742C188.369 294.362 180.712 294.209 177.357 294.305C177.357 281.195 180.903 258.463 182.676 248.736L199.495 267.711L233.277 275.042C233.564 276.959 233.679 281.971 231.839 284.961C229.999 287.951 228.964 293.394 228.677 295.742C227.431 295.503 223.415 294.995 217.32 294.88C211.225 294.765 206.731 295.407 205.245 295.742C202.466 296.317 195.959 297.122 192.164 295.742Z" fill="#F7862A"/>
<path d="M182.676 248.735C186.241 233.095 187.132 214.523 187.132 207.479C191.962 211.274 198.345 214.762 200.932 215.96C211.57 222.429 226.664 237.954 228.82 240.11C230.545 241.835 231.647 242.458 231.982 242.554C232.653 245.189 234.167 252.473 234.857 260.523C235.72 270.586 232.27 287.692 220.626 283.523C208.982 279.354 193.457 268.286 189.145 265.267C185.695 262.852 183.395 253.383 182.676 248.735Z" fill="#FA9F2D"/>
<path d="M168.875 269.148C165.08 265.928 156.943 248.64 153.35 240.398C154.5 261.788 156.704 272.502 157.662 275.186C166.172 286.801 172.133 292.58 174.05 294.017C174.74 294.017 176.541 294.209 177.356 294.305C177.126 290.51 178.506 276.815 179.225 270.442C178.88 271.937 176.302 272.598 175.056 272.742C174.577 272.886 172.67 272.368 168.875 269.148Z" fill="#903F22"/>
<path d="M103.181 269.867C104.101 268.487 107.11 267.567 108.499 267.279C109.745 270.777 111.892 277.543 110.512 276.623C109.132 275.703 105.049 271.736 103.181 269.867Z" fill="#FCF2B5"/>
<path d="M149.756 292.005C151.711 294.42 151.625 297.323 151.337 298.473L143.144 299.192L149.756 292.005Z" fill="#FED652"/>
<path d="M151.338 298.473C148.118 306.523 143.959 310.453 142.281 311.411L140.556 308.105L139.981 303.648C140.509 302.834 141.85 300.831 143 299.336C144.15 297.841 149.038 298.138 151.338 298.473Z" fill="#E47327"/>
<path d="M112.956 311.267C111.231 310.692 107.062 310.453 105.193 310.405L122.731 289.417L124.6 288.554L130.781 291.142C130.973 291.717 132.19 293.528 135.525 296.173C138.86 298.818 141.419 307.434 142.281 311.411L128.337 311.986C127.283 312.034 124.686 311.986 122.731 311.411C120.776 310.836 118.466 311.171 117.556 311.411C116.741 311.603 114.681 311.842 112.956 311.267Z" fill="#923E24"/>
<path d="M149.757 292.004C148.837 290.509 144.869 284.386 143 281.51L130.925 289.992L130.494 291.286L139.982 304.511L142.713 300.629L149.757 292.004Z" fill="#FA9F2D"/>
<path d="M94.9874 286.398C97.1724 283.523 101.36 274.179 103.181 269.867L106.2 271.736L124.456 288.986C118.246 299.911 109.027 307.817 105.194 310.405C100.594 301.32 97.1437 296.173 95.9937 294.736C94.7478 293.155 92.8024 289.273 94.9874 286.398Z" fill="#FA9F2D"/>
<path d="M130.925 266.992C132.65 267.088 136.273 267.912 136.963 270.442C137.825 273.604 139.407 277.054 143 281.511C143.048 282.086 142.598 283.696 140.413 285.536C138.113 288.296 135.909 288.794 135.094 288.698C134.471 288.698 132.823 289.101 131.213 290.711C129.603 292.321 127.379 291.19 126.469 290.423C125.223 289.369 122.07 287.232 119.425 287.117C116.78 287.002 115.544 286.302 115.256 285.967C115.486 282.172 112.333 277.438 110.656 275.904C110.656 275.186 110.311 273.892 109.506 271.592C108.701 269.292 108.5 267.758 108.5 267.279C114.595 265.899 125.99 266.513 130.925 266.992Z" fill="#FCE37F"/>
<path d="M119.57 297.036C121.64 296.231 126.182 292.963 128.195 291.43C129.23 291.66 130.351 291.334 130.782 291.142C132.651 293.873 134.664 295.455 135.814 296.461C136.734 297.266 137.73 298.809 138.114 299.48C140.529 304.54 141.899 309.542 142.282 311.411L134.089 311.699C131.932 311.124 131.501 310.692 125.032 307.242C119.857 304.482 119.234 299.288 119.57 297.036Z" fill="#BB5026"/>
<path d="M106.056 288.842C108.816 288.727 113.34 286.877 115.257 285.967L121.294 286.398L124.457 288.986C121.869 294.017 116.263 300.342 113.675 303.073C111.088 305.804 102.606 305.517 101.025 302.642C99.4438 299.767 98.5814 298.473 96.2814 295.167C94.4413 292.522 94.0772 290.806 94.1251 290.279C96.8851 290.969 99.4918 290.375 100.45 289.992C101.169 289.656 103.296 288.957 106.056 288.842Z" fill="#E47526"/>
<path d="M140.412 285.536C134.317 276.911 131.548 269.579 130.925 266.992C135.065 267.452 136.579 269.292 136.819 270.154C137.854 274.524 141.371 279.642 143 281.654C142.77 283.379 141.179 284.961 140.412 285.536Z" fill="#FAF1B5"/>
<path d="M127.331 278.348C120.891 273.748 118.61 268.477 118.274 266.417C120.804 266.417 124.599 266.609 126.181 266.704C126.564 267.759 128.251 270.902 131.931 275.042C135.611 279.182 138.256 284.625 139.118 286.83C137.623 288.325 135.62 288.698 134.806 288.698C134.997 287.165 133.771 282.948 127.331 278.348Z" fill="#FFD454"/>
</svg>
