<svg width="184" height="70" viewBox="0 0 184 70" fill="none" xmlns="http://www.w3.org/2000/svg">
<path d="M0.250652 34.274C0.161022 54.0823 9.32569 68.4456 15.3758 68.7817C20.6416 68.7817 30.5009 63.5159 41.1445 59.8186C51.7881 56.1214 71.2827 55.3371 81.03 55.3371C90.7774 55.3371 131.335 58.026 143.435 61.6112C153.115 64.4794 163.826 66.3915 167.86 66.0928C162.818 65.1965 152.533 60.6253 151.726 34.274C150.919 7.92261 160.825 1.15268 172.03 2.15366C166.562 -1.96934 150.643 1.52149 143.435 4.02368C141.419 4.95733 132.859 7.58649 114.753 10.6339C96.6481 13.6814 63.2907 10.1858 48.8751 8.05705C43.9081 7.16075 32.5848 4.78554 27.0277 2.45515C21.4706 0.124756 15.2638 1.20584 13.0229 2.45515C8.80286 4.80795 0.340283 14.4656 0.250652 34.274Z" fill="#DCB695"/>
<path d="M11.4539 12.4339C3.56643 16.9154 0.54891 31.3683 0.586256 38.5387C-0.870249 24.3099 3.94738 8.96069 11.678 3.35878C17.8625 -1.12274 26.355 1.8276 30.2763 3.6949C84.1666 16.3552 115.412 12.7607 142.987 4.2551C165.506 -2.69125 168.406 0.901963 170.423 1.35009C155.522 3.92697 151.053 25.2062 151.277 34.7295C150.418 31.2563 148.633 23.0999 148.364 18.2599C148.096 13.4198 145.414 13.1808 144.107 13.6663C141.53 14.3759 132.433 15.9967 116.658 16.8034C96.939 17.8117 81.3657 16.3552 63.1035 15.0108C48.4937 13.9352 36.4758 11.4255 32.293 10.3052C28.6331 9.14743 19.3414 7.95235 11.4539 12.4339Z" fill="#E9CBAB"/>
<path d="M13.8069 59.4899C6.18833 58.9521 4.05961 52.5435 1.81885 49.1824C10.1097 73.4946 17.056 68.5439 18.7366 68.2288C20.5292 67.8927 34.0858 62.5522 40.6961 60.2741C58.6221 50.5268 133.8 58.2575 145.003 61.8427C153.967 64.7108 163.266 65.876 166.515 65.9881C156.655 63.7473 151.166 46.2694 151.614 37.5304C150.493 37.5304 149.709 48.062 150.269 54C150.829 59.938 148.365 57.4732 139.065 55.9047C129.766 54.3361 127.414 54.112 114.193 52.5435C100.973 50.975 63.3277 51.1991 48.5387 52.5435C36.7075 53.6191 29.791 56.3528 27.8117 57.5852C26.3178 58.4442 21.4255 60.0277 13.8069 59.4899Z" fill="#B88D66"/>
<path d="M176.038 56.1287H156.095C157.215 60.05 162.917 65.9881 167.747 65.9881C172.788 65.9881 174.357 63.8593 176.598 60.05C178.39 57.0026 176.971 56.1661 176.038 56.1287Z" fill="#DCB695" stroke="black" stroke-width="0.5"/>
<path d="M183.208 28.3433C184.194 9.07274 173.637 2.15367 169.652 1.67823C155.155 1.35012 152.958 16.3552 151.95 25.7664C151.143 33.2954 153.257 46.3067 154.414 51.8713L169.652 52.4315C173.76 52.4315 182.222 47.6138 183.208 28.3433Z" fill="#DCB695" stroke="black" stroke-width="0.5"/>
<path d="M157.891 51.6998C150.004 9.93197 167.159 3.31383 176.047 5.36786C171.278 2.32111 167.85 -2.44536 158.369 6.97507C149.379 15.9082 151.688 40.3687 154.638 52.0954L157.891 51.6998Z" fill="#B88D66"/>
<path d="M162.593 35.8498C162.862 24.646 168.341 21.4692 170.881 22.1788L168.519 20.6126H164.722L161.434 25.1309L159.072 32.2159L159.008 39.435L160.844 44.6147L164.386 48.7476L169.539 52.7676L173.833 50.5188C170.173 50.8923 162.324 47.0536 162.593 35.8498Z" fill="#B88D66"/>
<path d="M172.061 64.6889C166.415 64.6889 161.025 59.2285 159.232 56.5769L156.12 56.4231L161.434 62.9176L166.515 66.3242L172.061 64.6889Z" fill="#B88D66"/>
<path d="M152.286 22.9655C158.597 20.538 171.623 17.5428 173.237 24.9822C174.85 32.4215 172.639 35.7005 171.332 36.41H158.896" stroke="black" stroke-width="0.5"/>
<path d="M166.066 20.2766C163.602 21.8078 158.717 27.2005 158.896 36.5221C159.12 48.174 168.61 52.1781 170.29 52.2902" stroke="black" stroke-width="0.5" stroke-linecap="round"/>
<path d="M0.250652 34.2739C0.161022 54.0823 9.32569 68.4456 15.3758 68.7817C20.6416 68.7817 30.5009 63.5159 41.1445 59.8186C51.7881 56.1214 71.2827 55.3371 81.03 55.3371C90.7774 55.3371 131.335 58.026 143.435 61.6112C153.115 64.4794 163.826 66.3915 167.86 66.0928C162.818 65.1965 152.533 60.6253 151.726 34.2739C150.919 7.9226 160.266 0.414757 171.226 2.15366C165.759 -1.96934 150.643 1.52149 143.435 4.02368C141.419 4.95733 132.859 7.58649 114.753 10.6339C96.6481 13.6814 63.2907 10.1858 48.8751 8.05705C43.9081 7.16075 32.5848 4.78554 27.0277 2.45515C21.4706 0.124756 15.2638 1.20584 13.0229 2.45515C8.80286 4.80795 0.340283 14.4656 0.250652 34.2739Z" stroke="black" stroke-width="0.5"/>
<path d="M183.208 28.3433C184.194 9.07274 174.693 2.79861 169.652 1.67823C155.456 1.67823 152.958 16.3552 151.95 25.7664C151.143 33.2954 153.257 46.3067 154.414 51.8713L169.652 52.4315C173.76 52.4315 182.222 47.6138 183.208 28.3433Z" stroke="black" stroke-width="0.5"/>
<path d="M176.038 56.1287H156.095C157.215 60.05 162.917 65.9881 167.747 65.9881C172.788 65.9881 174.357 63.8593 176.598 60.05C178.39 57.0026 176.971 56.1661 176.038 56.1287Z" stroke="black" stroke-width="0.5"/>
</svg>
