<svg width="395" height="491" viewBox="0 0 395 491" fill="none" xmlns="http://www.w3.org/2000/svg">
<rect width="394.099" height="490.871" rx="20" fill="#202020" fill-opacity="0.5"/>
<path d="M43.08 76.68C43.72 73.7733 44.04 69.6 44.04 64.16C44.04 58.6933 43.92 54.6667 43.68 52.08C40.72 52.1333 38.8267 52.56 38 53.36C37.8133 53.7333 37.72 54.32 37.72 55.12C37.72 55.92 37.8533 56.4667 38.12 56.76L38.08 57.04C37.4133 57.44 36.7467 58 36.08 58.72C35.76 58.6933 35.5067 58.56 35.32 58.32C35.1067 58.08 35 57.8 35 57.48C35 56.2533 35.7067 54.8 37.12 53.12C38.5067 51.44 39.84 50.28 41.12 49.64C43.3867 49.8533 46.7467 49.96 51.2 49.96C58.48 49.96 62.12 53.4933 62.12 60.56C62.12 64.2667 61.1467 67.6267 59.2 70.64C57.2533 73.6533 54.6133 75.64 51.28 76.6C49.36 76.6 47.2133 76.0933 44.84 75.08C44.3867 75.7733 44.08 76.3733 43.92 76.88L43.08 76.68ZM50.56 51.84C49.3333 51.84 48.3067 51.9067 47.48 52.04C47.24 54.5467 47.12 58.0133 47.12 62.44C47.12 66.8667 47.1867 70.2533 47.32 72.6C48.76 73.3467 50.4 73.72 52.24 73.72C54.08 73.72 55.5067 73.2667 56.52 72.36C57.88 69.88 58.56 66.8133 58.56 63.16C58.56 59.5067 57.9867 56.7067 56.84 54.76C55.72 52.8133 53.6267 51.84 50.56 51.84ZM69.0447 66.12C69.1247 68.4933 69.5647 70.3467 70.3647 71.68C71.1647 73.0133 72.5247 73.68 74.4447 73.68C76.3647 73.68 78.138 72.8667 79.7647 71.24L80.3247 71.8C78.538 74.0667 76.3914 75.6267 73.8847 76.48C71.298 76.48 69.2714 75.6667 67.8047 74.04C66.338 72.3867 65.6047 70.1733 65.6047 67.4C65.6047 64.6 66.4714 61.9733 68.2047 59.52C69.938 57.0667 72.1514 55.4533 74.8447 54.68C76.7914 54.68 78.9914 54.88 81.4447 55.28L81.4047 56.16C80.898 56.16 80.418 56.2533 79.9647 56.44C79.458 57.64 79.1247 59.0667 78.9647 60.72H77.9647C77.7514 59.8133 77.6447 58.88 77.6447 57.92C76.6314 57.4133 75.4314 57.16 74.0447 57.16C72.658 57.16 71.5114 57.5333 70.6047 58.28C69.698 59.9333 69.178 61.9067 69.0447 64.2C70.1647 64.3867 71.3647 64.48 72.6447 64.48C74.858 64.48 76.1914 64.0133 76.6447 63.08L77.4847 63.2C77.2447 64 77.1247 64.7867 77.1247 65.56C77.1247 66.3333 77.218 67.28 77.4047 68.4L76.4447 68.56C76.1514 67.76 75.938 66.9333 75.8047 66.08C74.738 65.9733 73.6714 65.92 72.6047 65.92C71.5647 65.92 70.378 65.9867 69.0447 66.12ZM93.8144 73.76C93.8144 72.1067 93.401 69.64 92.5744 66.36C91.7477 63.0533 90.8277 59.8533 89.8144 56.76L89.6544 56.8L88.6544 64.24C88.2277 67.3067 88.0144 70.0667 88.0144 72.52C88.0144 74.0133 88.481 75.0133 89.4144 75.52L89.2544 76.2C88.4544 76.0667 87.401 76 86.0944 76C84.8144 76 83.401 76.1067 81.8544 76.32L81.6944 75.28C82.601 74.9867 83.4544 74.7733 84.2544 74.64L87.9744 56.4C86.5877 56.16 85.561 55.9467 84.8944 55.76L85.0144 54.72C86.9344 55.0133 88.7077 55.16 90.3344 55.16C91.9877 55.16 93.2677 55.0667 94.1744 54.88L94.2544 55.56C93.5344 55.7467 93.1744 56.0533 93.1744 56.48C93.1744 57.0667 94.001 60.4533 95.6544 66.64L96.5344 69.64L96.8144 69.56C96.8144 68.8667 98.0277 64.52 100.454 56.52C100.454 56.0667 100.094 55.7467 99.3744 55.56L99.4544 54.88C100.361 55.0667 101.641 55.16 103.294 55.16C104.974 55.16 106.761 55.0133 108.654 54.72L108.774 55.76C108.054 55.9467 107.134 56.1467 106.014 56.36C105.934 57 105.894 57.9467 105.894 59.2C105.894 60.4267 106.068 62.96 106.414 66.8C106.761 70.64 107.081 73.28 107.374 74.72C108.361 74.8533 109.374 75.04 110.414 75.28L110.294 76.28C108.908 76.0933 107.361 76 105.654 76C103.974 76 102.454 76.1067 101.094 76.32L100.934 75.28C101.814 75.0133 102.761 74.8133 103.774 74.68C103.694 68.3867 103.268 62.4533 102.494 56.88H102.374C99.6277 64.9867 98.161 70.24 97.9744 72.64C97.4144 72.8267 96.761 73.1733 96.0144 73.68C95.2677 74.16 94.6944 74.64 94.2944 75.12L93.8144 74.8V73.76ZM121.2 76.48C118.56 76.48 116.426 75.6533 114.8 74C113.173 72.32 112.36 70.08 112.36 67.28C112.36 64.48 113.213 61.8533 114.92 59.4C116.626 56.9467 118.853 55.3733 121.6 54.68C124.346 54.68 126.44 55.4667 127.88 57.04C129.32 58.5867 130.04 60.8 130.04 63.68C130.04 66.56 129.253 69.16 127.68 71.48C126.133 73.8 123.973 75.4667 121.2 76.48ZM120.52 57.12C119.32 57.12 118.28 57.4533 117.4 58.12C116.306 59.9867 115.76 62.3333 115.76 65.16C115.76 68.4133 116.666 70.9067 118.48 72.64C119.44 73.5733 120.573 74.04 121.88 74.04C123.186 74.04 124.24 73.6933 125.04 73C126.106 71.1333 126.64 68.8533 126.64 66.16C126.64 63.4667 126.16 61.2933 125.2 59.64C124.24 57.96 122.68 57.12 120.52 57.12ZM143.094 76.28C141.708 76.0933 140.148 76 138.414 76C136.708 76 135.174 76.1067 133.814 76.32L133.654 75.28C134.508 75.0133 135.308 74.8133 136.054 74.68C136.294 72.6 136.414 69.88 136.414 66.52V64.64C136.414 61.0667 136.281 58.32 136.014 56.4C135.294 56.32 134.428 56.1067 133.414 55.76L133.534 54.72C135.054 55.0133 136.641 55.16 138.294 55.16C139.974 55.16 141.174 55.0667 141.894 54.88L141.974 55.56C141.254 55.7467 140.894 56.0533 140.894 56.48C140.894 56.8 141.201 57.48 141.814 58.52C142.454 59.5333 143.068 60.52 143.654 61.48C145.414 64.28 147.494 67.72 149.894 71.8L150.014 71.72V66.84C150.014 63.2667 149.828 60.5867 149.454 58.8C149.081 56.9867 148.441 55.9333 147.534 55.64L147.614 54.96C148.308 55.0933 149.348 55.16 150.734 55.16C152.121 55.16 153.548 55.0133 155.014 54.72L155.134 55.76C154.041 56.1067 153.121 56.32 152.374 56.4C152.108 58.5333 151.974 61.28 151.974 64.64V66.52C151.974 70.5733 152.108 73.32 152.374 74.76C153.494 74.9467 154.388 75.16 155.054 75.4L154.934 76.44C153.601 76.1467 152.348 76 151.174 76C150.001 76 149.094 76.0533 148.454 76.16C148.454 75.5733 148.041 74.5867 147.214 73.2C146.414 71.8133 145.681 70.5867 145.014 69.52C142.854 66.0267 140.734 62.48 138.654 58.88L138.494 58.96V64.32C138.494 69.6267 138.894 73.08 139.694 74.68C140.894 74.8133 142.068 75.0133 143.214 75.28L143.094 76.28ZM175.111 76.68C175.751 73.7733 176.071 69.6 176.071 64.16C176.071 58.6933 175.951 54.6667 175.711 52.08C172.751 52.1333 170.858 52.56 170.031 53.36C169.845 53.7333 169.751 54.32 169.751 55.12C169.751 55.92 169.885 56.4667 170.151 56.76L170.111 57.04C169.445 57.44 168.778 58 168.111 58.72C167.791 58.6933 167.538 58.56 167.351 58.32C167.138 58.08 167.031 57.8 167.031 57.48C167.031 56.2533 167.738 54.8 169.151 53.12C170.538 51.44 171.871 50.28 173.151 49.64C175.418 49.8533 178.778 49.96 183.231 49.96C190.511 49.96 194.151 53.4933 194.151 60.56C194.151 64.2667 193.178 67.6267 191.231 70.64C189.285 73.6533 186.645 75.64 183.311 76.6C181.391 76.6 179.245 76.0933 176.871 75.08C176.418 75.7733 176.111 76.3733 175.951 76.88L175.111 76.68ZM182.591 51.84C181.365 51.84 180.338 51.9067 179.511 52.04C179.271 54.5467 179.151 58.0133 179.151 62.44C179.151 66.8667 179.218 70.2533 179.351 72.6C180.791 73.3467 182.431 73.72 184.271 73.72C186.111 73.72 187.538 73.2667 188.551 72.36C189.911 69.88 190.591 66.8133 190.591 63.16C190.591 59.5067 190.018 56.7067 188.871 54.76C187.751 52.8133 185.658 51.84 182.591 51.84ZM203.836 56.48C203.623 57.92 203.516 60.8667 203.516 65.32C203.516 69.7733 203.636 72.8933 203.876 74.68C205.076 74.8133 206.183 75.0133 207.196 75.28L207.076 76.28C205.689 76.0933 204.129 76 202.396 76C200.689 76 199.156 76.1067 197.796 76.32L197.636 75.28C198.383 75.04 199.223 74.84 200.156 74.68C200.396 72.76 200.516 70.04 200.516 66.52V64.64C200.516 61.12 200.383 58.4 200.116 56.48C199.183 56.32 198.343 56.12 197.596 55.88L197.756 54.84C199.116 55.0533 200.649 55.16 202.356 55.16C204.089 55.16 205.649 55.0667 207.036 54.88L207.156 55.88C206.143 56.1467 205.036 56.3467 203.836 56.48ZM218.94 73.68C220.78 73.68 222.513 72.8667 224.14 71.24L224.7 71.8C222.913 74.0667 220.766 75.6267 218.26 76.48C215.673 76.48 213.646 75.6667 212.18 74.04C210.713 72.3867 209.98 70.1733 209.98 67.4C209.98 64.6 210.846 61.9733 212.58 59.52C214.313 57.0667 216.526 55.4533 219.22 54.68C221.166 54.68 223.366 54.88 225.82 55.28L225.78 56.16C225.273 56.16 224.793 56.2533 224.34 56.44C223.833 57.64 223.5 59.0667 223.34 60.72H222.34C222.126 59.8133 222.02 58.88 222.02 57.92C221.006 57.4133 219.806 57.16 218.42 57.16C217.033 57.16 215.886 57.5333 214.98 58.28C213.94 60.1733 213.42 62.4667 213.42 65.16C213.42 69.3467 214.313 71.9733 216.1 73.04C216.873 73.4667 217.82 73.68 218.94 73.68ZM230.763 66.12C230.843 68.4933 231.283 70.3467 232.083 71.68C232.883 73.0133 234.243 73.68 236.163 73.68C238.083 73.68 239.857 72.8667 241.483 71.24L242.043 71.8C240.257 74.0667 238.11 75.6267 235.603 76.48C233.017 76.48 230.99 75.6667 229.523 74.04C228.057 72.3867 227.323 70.1733 227.323 67.4C227.323 64.6 228.19 61.9733 229.923 59.52C231.657 57.0667 233.87 55.4533 236.563 54.68C238.51 54.68 240.71 54.88 243.163 55.28L243.123 56.16C242.617 56.16 242.137 56.2533 241.683 56.44C241.177 57.64 240.843 59.0667 240.683 60.72H239.683C239.47 59.8133 239.363 58.88 239.363 57.92C238.35 57.4133 237.15 57.16 235.763 57.16C234.377 57.16 233.23 57.5333 232.323 58.28C231.417 59.9333 230.897 61.9067 230.763 64.2C231.883 64.3867 233.083 64.48 234.363 64.48C236.577 64.48 237.91 64.0133 238.363 63.08L239.203 63.2C238.963 64 238.843 64.7867 238.843 65.56C238.843 66.3333 238.937 67.28 239.123 68.4L238.163 68.56C237.87 67.76 237.657 66.9333 237.523 66.08C236.457 65.9733 235.39 65.92 234.323 65.92C233.283 65.92 232.097 65.9867 230.763 66.12Z" fill="#FAF9F6"/>
<path d="M45.4375 385.168C44.3335 385.168 43.3335 384.92 42.4375 384.424C41.5415 383.912 40.7975 383.184 40.2055 382.24L41.6455 380.632C42.3975 381.464 43.0535 382.032 43.6135 382.336C44.1735 382.64 44.7815 382.792 45.4375 382.792C46.0935 382.792 46.6855 382.648 47.2135 382.36C47.7415 382.072 48.1575 381.68 48.4615 381.184C48.7815 380.688 48.9415 380.136 48.9415 379.528C48.9415 378.888 48.7895 378.32 48.4855 377.824C48.1975 377.312 47.8055 376.912 47.3095 376.624C46.8135 376.32 46.2535 376.168 45.6295 376.168C45.3255 376.168 45.0375 376.192 44.7655 376.24C44.4935 376.272 44.1655 376.36 43.7815 376.504C43.3975 376.648 42.8935 376.872 42.2695 377.176L40.9015 375.328L41.8855 368.2H50.9575V370.6H43.5175L44.0215 370.144L43.2295 375.472L42.6295 374.776C42.7895 374.616 43.0615 374.464 43.4455 374.32C43.8295 374.16 44.2535 374.032 44.7175 373.936C45.1975 373.824 45.6535 373.768 46.0855 373.768C47.1095 373.768 48.0215 374.008 48.8215 374.488C49.6375 374.952 50.2775 375.6 50.7415 376.432C51.2215 377.264 51.4615 378.216 51.4615 379.288C51.4615 380.392 51.1975 381.392 50.6695 382.288C50.1415 383.168 49.4215 383.872 48.5095 384.4C47.5975 384.912 46.5735 385.168 45.4375 385.168ZM60.1822 385.24C58.9022 385.24 57.7982 384.888 56.8702 384.184C55.9582 383.48 55.2542 382.488 54.7582 381.208C54.2622 379.912 54.0142 378.376 54.0142 376.6C54.0142 374.824 54.2622 373.296 54.7582 372.016C55.2542 370.72 55.9582 369.72 56.8702 369.016C57.7982 368.312 58.9022 367.96 60.1822 367.96C61.4622 367.96 62.5662 368.312 63.4942 369.016C64.4222 369.72 65.1342 370.72 65.6302 372.016C66.1262 373.296 66.3742 374.824 66.3742 376.6C66.3742 378.376 66.1262 379.912 65.6302 381.208C65.1342 382.488 64.4222 383.48 63.4942 384.184C62.5662 384.888 61.4622 385.24 60.1822 385.24ZM60.1822 382.888C61.3502 382.888 62.2542 382.344 62.8942 381.256C63.5342 380.152 63.8542 378.6 63.8542 376.6C63.8542 374.6 63.5342 373.056 62.8942 371.968C62.2542 370.864 61.3502 370.312 60.1822 370.312C59.0142 370.312 58.1102 370.864 57.4702 371.968C56.8302 373.056 56.5102 374.6 56.5102 376.6C56.5102 378.6 56.8302 380.152 57.4702 381.256C58.1102 382.344 59.0142 382.888 60.1822 382.888ZM66.725 388.168L76.613 368.2H78.989L69.125 388.168H66.725ZM85.8203 385.168C84.7163 385.168 83.7163 384.92 82.8203 384.424C81.9243 383.912 81.1803 383.184 80.5883 382.24L82.0283 380.632C82.7803 381.464 83.4363 382.032 83.9963 382.336C84.5563 382.64 85.1643 382.792 85.8203 382.792C86.4763 382.792 87.0683 382.648 87.5963 382.36C88.1243 382.072 88.5403 381.68 88.8443 381.184C89.1643 380.688 89.3243 380.136 89.3243 379.528C89.3243 378.888 89.1723 378.32 88.8683 377.824C88.5803 377.312 88.1883 376.912 87.6923 376.624C87.1963 376.32 86.6363 376.168 86.0123 376.168C85.7083 376.168 85.4203 376.192 85.1483 376.24C84.8763 376.272 84.5483 376.36 84.1643 376.504C83.7803 376.648 83.2763 376.872 82.6523 377.176L81.2843 375.328L82.2683 368.2H91.3403V370.6H83.9003L84.4043 370.144L83.6123 375.472L83.0123 374.776C83.1723 374.616 83.4443 374.464 83.8283 374.32C84.2123 374.16 84.6363 374.032 85.1003 373.936C85.5803 373.824 86.0363 373.768 86.4683 373.768C87.4923 373.768 88.4043 374.008 89.2043 374.488C90.0203 374.952 90.6603 375.6 91.1243 376.432C91.6043 377.264 91.8443 378.216 91.8443 379.288C91.8443 380.392 91.5803 381.392 91.0523 382.288C90.5243 383.168 89.8043 383.872 88.8923 384.4C87.9803 384.912 86.9563 385.168 85.8203 385.168ZM100.565 385.24C99.285 385.24 98.181 384.888 97.253 384.184C96.341 383.48 95.637 382.488 95.141 381.208C94.645 379.912 94.397 378.376 94.397 376.6C94.397 374.824 94.645 373.296 95.141 372.016C95.637 370.72 96.341 369.72 97.253 369.016C98.181 368.312 99.285 367.96 100.565 367.96C101.845 367.96 102.949 368.312 103.877 369.016C104.805 369.72 105.517 370.72 106.013 372.016C106.509 373.296 106.757 374.824 106.757 376.6C106.757 378.376 106.509 379.912 106.013 381.208C105.517 382.488 104.805 383.48 103.877 384.184C102.949 384.888 101.845 385.24 100.565 385.24ZM100.565 382.888C101.733 382.888 102.637 382.344 103.277 381.256C103.917 380.152 104.237 378.6 104.237 376.6C104.237 374.6 103.917 373.056 103.277 371.968C102.637 370.864 101.733 370.312 100.565 370.312C99.397 370.312 98.493 370.864 97.853 371.968C97.213 373.056 96.893 374.6 96.893 376.6C96.893 378.6 97.213 380.152 97.853 381.256C98.493 382.344 99.397 382.888 100.565 382.888ZM121.678 385.24C120.51 385.24 119.462 384.952 118.534 384.376C117.622 383.8 116.894 383.016 116.35 382.024C115.822 381.032 115.558 379.92 115.558 378.688C115.558 377.456 115.822 376.344 116.35 375.352C116.894 374.36 117.622 373.576 118.534 373C119.462 372.424 120.51 372.136 121.678 372.136C122.798 372.136 123.814 372.368 124.726 372.832C125.654 373.28 126.358 373.896 126.838 374.68L125.47 376.36C125.214 375.992 124.886 375.656 124.486 375.352C124.086 375.048 123.662 374.808 123.214 374.632C122.766 374.456 122.334 374.368 121.918 374.368C121.15 374.368 120.462 374.56 119.854 374.944C119.262 375.312 118.79 375.824 118.438 376.48C118.086 377.136 117.91 377.872 117.91 378.688C117.91 379.504 118.094 380.24 118.462 380.896C118.83 381.536 119.318 382.048 119.926 382.432C120.534 382.816 121.206 383.008 121.942 383.008C122.374 383.008 122.79 382.936 123.19 382.792C123.606 382.648 124.006 382.432 124.39 382.144C124.774 381.856 125.134 381.504 125.47 381.088L126.838 382.768C126.326 383.488 125.59 384.08 124.63 384.544C123.686 385.008 122.702 385.24 121.678 385.24ZM129.169 385V367.24H131.641V374.992L131.209 375.28C131.369 374.72 131.681 374.208 132.145 373.744C132.609 373.264 133.161 372.88 133.801 372.592C134.441 372.288 135.097 372.136 135.769 372.136C136.729 372.136 137.529 372.328 138.169 372.712C138.809 373.08 139.289 373.648 139.609 374.416C139.929 375.184 140.089 376.152 140.089 377.32V385H137.617V377.488C137.617 376.768 137.521 376.176 137.329 375.712C137.137 375.232 136.841 374.888 136.441 374.68C136.041 374.456 135.545 374.36 134.953 374.392C134.473 374.392 134.033 374.472 133.633 374.632C133.233 374.776 132.881 374.984 132.577 375.256C132.289 375.528 132.057 375.848 131.881 376.216C131.721 376.568 131.641 376.952 131.641 377.368V385H130.417C130.209 385 130.001 385 129.793 385C129.585 385 129.377 385 129.169 385ZM148.291 385.24C147.251 385.24 146.299 384.952 145.435 384.376C144.587 383.8 143.907 383.016 143.395 382.024C142.883 381.032 142.627 379.912 142.627 378.664C142.627 377.4 142.883 376.28 143.395 375.304C143.923 374.312 144.627 373.536 145.507 372.976C146.403 372.416 147.403 372.136 148.507 372.136C149.163 372.136 149.763 372.232 150.307 372.424C150.851 372.616 151.323 372.888 151.723 373.24C152.139 373.576 152.475 373.968 152.731 374.416C153.003 374.864 153.171 375.344 153.235 375.856L152.683 375.664V372.4H155.179V385H152.683V382L153.259 381.832C153.163 382.264 152.963 382.688 152.659 383.104C152.371 383.504 151.995 383.864 151.531 384.184C151.083 384.504 150.579 384.76 150.019 384.952C149.475 385.144 148.899 385.24 148.291 385.24ZM148.939 382.96C149.691 382.96 150.355 382.776 150.931 382.408C151.507 382.04 151.955 381.536 152.275 380.896C152.611 380.24 152.779 379.496 152.779 378.664C152.779 377.848 152.611 377.12 152.275 376.48C151.955 375.84 151.507 375.336 150.931 374.968C150.355 374.6 149.691 374.416 148.939 374.416C148.203 374.416 147.547 374.6 146.971 374.968C146.411 375.336 145.963 375.84 145.627 376.48C145.307 377.12 145.147 377.848 145.147 378.664C145.147 379.496 145.307 380.24 145.627 380.896C145.963 381.536 146.411 382.04 146.971 382.408C147.547 382.776 148.203 382.96 148.939 382.96ZM158.63 385V372.4H161.102V374.992L160.67 375.28C160.83 374.72 161.142 374.208 161.606 373.744C162.07 373.264 162.622 372.88 163.262 372.592C163.902 372.288 164.558 372.136 165.23 372.136C166.19 372.136 166.99 372.328 167.63 372.712C168.27 373.08 168.75 373.648 169.07 374.416C169.39 375.184 169.55 376.152 169.55 377.32V385H167.078V377.488C167.078 376.768 166.982 376.176 166.79 375.712C166.598 375.232 166.302 374.888 165.902 374.68C165.502 374.456 165.006 374.36 164.414 374.392C163.934 374.392 163.494 374.472 163.094 374.632C162.694 374.776 162.342 374.984 162.038 375.256C161.75 375.528 161.518 375.848 161.342 376.216C161.182 376.568 161.102 376.952 161.102 377.368V385H159.878C159.67 385 159.462 385 159.254 385C159.046 385 158.838 385 158.63 385ZM178.256 385.24C177.088 385.24 176.04 384.952 175.112 384.376C174.2 383.8 173.472 383.016 172.928 382.024C172.4 381.032 172.136 379.92 172.136 378.688C172.136 377.456 172.4 376.344 172.928 375.352C173.472 374.36 174.2 373.576 175.112 373C176.04 372.424 177.088 372.136 178.256 372.136C179.376 372.136 180.392 372.368 181.304 372.832C182.232 373.28 182.936 373.896 183.416 374.68L182.048 376.36C181.792 375.992 181.464 375.656 181.064 375.352C180.664 375.048 180.24 374.808 179.792 374.632C179.344 374.456 178.912 374.368 178.496 374.368C177.728 374.368 177.04 374.56 176.432 374.944C175.84 375.312 175.368 375.824 175.016 376.48C174.664 377.136 174.488 377.872 174.488 378.688C174.488 379.504 174.672 380.24 175.04 380.896C175.408 381.536 175.896 382.048 176.504 382.432C177.112 382.816 177.784 383.008 178.52 383.008C178.952 383.008 179.368 382.936 179.768 382.792C180.184 382.648 180.584 382.432 180.968 382.144C181.352 381.856 181.712 381.504 182.048 381.088L183.416 382.768C182.904 383.488 182.168 384.08 181.208 384.544C180.264 385.008 179.28 385.24 178.256 385.24ZM191.628 385.24C190.332 385.24 189.18 384.968 188.172 384.424C187.18 383.864 186.396 383.104 185.82 382.144C185.26 381.184 184.98 380.08 184.98 378.832C184.98 377.84 185.14 376.936 185.46 376.12C185.78 375.304 186.22 374.6 186.78 374.008C187.356 373.4 188.036 372.936 188.82 372.616C189.62 372.28 190.484 372.112 191.412 372.112C192.228 372.112 192.988 372.272 193.692 372.592C194.396 372.896 195.004 373.32 195.516 373.864C196.044 374.408 196.444 375.056 196.716 375.808C197.004 376.544 197.14 377.352 197.124 378.232L197.1 379.288H186.804L186.252 377.32H194.964L194.604 377.728V377.152C194.556 376.624 194.38 376.152 194.076 375.736C193.772 375.32 193.388 374.992 192.924 374.752C192.46 374.512 191.956 374.392 191.412 374.392C190.548 374.392 189.82 374.56 189.228 374.896C188.636 375.216 188.188 375.696 187.884 376.336C187.58 376.96 187.428 377.736 187.428 378.664C187.428 379.544 187.612 380.312 187.98 380.968C188.348 381.608 188.868 382.104 189.54 382.456C190.212 382.808 190.988 382.984 191.868 382.984C192.492 382.984 193.068 382.88 193.596 382.672C194.14 382.464 194.724 382.088 195.348 381.544L196.596 383.296C196.212 383.68 195.74 384.016 195.18 384.304C194.636 384.592 194.052 384.824 193.428 385C192.82 385.16 192.22 385.24 191.628 385.24ZM207.905 385V370.984C207.905 370.264 208.065 369.624 208.385 369.064C208.705 368.504 209.145 368.064 209.705 367.744C210.265 367.424 210.913 367.264 211.649 367.264C212.161 367.264 212.641 367.36 213.089 367.552C213.537 367.744 213.897 368 214.169 368.32L213.329 370.216C213.121 370.024 212.889 369.872 212.633 369.76C212.393 369.632 212.161 369.568 211.937 369.568C211.601 369.568 211.313 369.624 211.073 369.736C210.849 369.832 210.681 369.992 210.569 370.216C210.457 370.424 210.401 370.68 210.401 370.984V385H209.153C208.945 385 208.737 385 208.529 385C208.321 385 208.113 385 207.905 385ZM205.889 374.896V372.616H213.377V374.896H205.889ZM221.154 385.24C219.922 385.24 218.818 384.96 217.842 384.4C216.882 383.824 216.122 383.048 215.562 382.072C215.002 381.08 214.722 379.952 214.722 378.688C214.722 377.424 215.002 376.304 215.562 375.328C216.122 374.336 216.882 373.56 217.842 373C218.818 372.424 219.922 372.136 221.154 372.136C222.37 372.136 223.458 372.424 224.418 373C225.394 373.56 226.162 374.336 226.722 375.328C227.282 376.304 227.562 377.424 227.562 378.688C227.562 379.952 227.282 381.08 226.722 382.072C226.162 383.048 225.394 383.824 224.418 384.4C223.458 384.96 222.37 385.24 221.154 385.24ZM221.154 382.984C221.906 382.984 222.578 382.8 223.17 382.432C223.762 382.048 224.226 381.536 224.562 380.896C224.898 380.24 225.058 379.504 225.042 378.688C225.058 377.856 224.898 377.12 224.562 376.48C224.226 375.824 223.762 375.312 223.17 374.944C222.578 374.576 221.906 374.392 221.154 374.392C220.402 374.392 219.722 374.584 219.114 374.968C218.522 375.336 218.058 375.848 217.722 376.504C217.386 377.144 217.226 377.872 217.242 378.688C217.226 379.504 217.386 380.24 217.722 380.896C218.058 381.536 218.522 382.048 219.114 382.432C219.722 382.8 220.402 382.984 221.154 382.984ZM230.255 385V372.4H232.751V376.36L232.511 375.4C232.687 374.792 232.983 374.24 233.399 373.744C233.831 373.248 234.319 372.856 234.863 372.568C235.423 372.28 235.999 372.136 236.591 372.136C236.863 372.136 237.119 372.16 237.359 372.208C237.615 372.256 237.815 372.312 237.959 372.376L237.311 375.064C237.119 374.984 236.903 374.92 236.663 374.872C236.439 374.808 236.215 374.776 235.991 374.776C235.559 374.776 235.143 374.864 234.743 375.04C234.359 375.2 234.015 375.432 233.711 375.736C233.423 376.024 233.191 376.368 233.015 376.768C232.839 377.152 232.751 377.576 232.751 378.04V385H230.255ZM252.542 385.24C251.246 385.24 250.094 384.968 249.086 384.424C248.094 383.864 247.31 383.104 246.734 382.144C246.174 381.184 245.894 380.08 245.894 378.832C245.894 377.84 246.054 376.936 246.374 376.12C246.694 375.304 247.134 374.6 247.694 374.008C248.27 373.4 248.95 372.936 249.734 372.616C250.534 372.28 251.398 372.112 252.326 372.112C253.142 372.112 253.902 372.272 254.606 372.592C255.31 372.896 255.918 373.32 256.43 373.864C256.958 374.408 257.358 375.056 257.63 375.808C257.918 376.544 258.054 377.352 258.038 378.232L258.014 379.288H247.718L247.166 377.32H255.878L255.518 377.728V377.152C255.47 376.624 255.294 376.152 254.99 375.736C254.686 375.32 254.302 374.992 253.838 374.752C253.374 374.512 252.87 374.392 252.326 374.392C251.462 374.392 250.734 374.56 250.142 374.896C249.55 375.216 249.102 375.696 248.798 376.336C248.494 376.96 248.342 377.736 248.342 378.664C248.342 379.544 248.526 380.312 248.894 380.968C249.262 381.608 249.782 382.104 250.454 382.456C251.126 382.808 251.902 382.984 252.782 382.984C253.406 382.984 253.982 382.88 254.51 382.672C255.054 382.464 255.638 382.088 256.262 381.544L257.51 383.296C257.126 383.68 256.654 384.016 256.094 384.304C255.55 384.592 254.966 384.824 254.342 385C253.734 385.16 253.134 385.24 252.542 385.24ZM261.132 385V372.4H263.604V385H261.132ZM262.332 369.616C261.804 369.616 261.396 369.48 261.108 369.208C260.82 368.936 260.676 368.552 260.676 368.056C260.676 367.592 260.82 367.216 261.108 366.928C261.412 366.64 261.82 366.496 262.332 366.496C262.86 366.496 263.268 366.632 263.556 366.904C263.844 367.176 263.988 367.56 263.988 368.056C263.988 368.52 263.836 368.896 263.532 369.184C263.244 369.472 262.844 369.616 262.332 369.616ZM268.964 385V369.184H271.436V385H268.964ZM266.348 374.8V372.4H274.364V374.8H266.348ZM276.615 385V367.24H279.087V374.992L278.655 375.28C278.815 374.72 279.127 374.208 279.591 373.744C280.055 373.264 280.607 372.88 281.247 372.592C281.887 372.288 282.543 372.136 283.215 372.136C284.175 372.136 284.975 372.328 285.615 372.712C286.255 373.08 286.735 373.648 287.055 374.416C287.375 375.184 287.535 376.152 287.535 377.32V385H285.063V377.488C285.063 376.768 284.967 376.176 284.775 375.712C284.583 375.232 284.287 374.888 283.887 374.68C283.487 374.456 282.991 374.36 282.399 374.392C281.919 374.392 281.479 374.472 281.079 374.632C280.679 374.776 280.327 374.984 280.023 375.256C279.735 375.528 279.503 375.848 279.327 376.216C279.167 376.568 279.087 376.952 279.087 377.368V385H277.863C277.655 385 277.447 385 277.239 385C277.031 385 276.823 385 276.615 385ZM296.768 385.24C295.472 385.24 294.32 384.968 293.312 384.424C292.32 383.864 291.536 383.104 290.96 382.144C290.4 381.184 290.12 380.08 290.12 378.832C290.12 377.84 290.28 376.936 290.6 376.12C290.92 375.304 291.36 374.6 291.92 374.008C292.496 373.4 293.176 372.936 293.96 372.616C294.76 372.28 295.624 372.112 296.552 372.112C297.368 372.112 298.128 372.272 298.832 372.592C299.536 372.896 300.144 373.32 300.656 373.864C301.184 374.408 301.584 375.056 301.856 375.808C302.144 376.544 302.28 377.352 302.264 378.232L302.24 379.288H291.944L291.392 377.32H300.104L299.744 377.728V377.152C299.696 376.624 299.52 376.152 299.216 375.736C298.912 375.32 298.528 374.992 298.064 374.752C297.6 374.512 297.096 374.392 296.552 374.392C295.688 374.392 294.96 374.56 294.368 374.896C293.776 375.216 293.328 375.696 293.024 376.336C292.72 376.96 292.568 377.736 292.568 378.664C292.568 379.544 292.752 380.312 293.12 380.968C293.488 381.608 294.008 382.104 294.68 382.456C295.352 382.808 296.128 382.984 297.008 382.984C297.632 382.984 298.208 382.88 298.736 382.672C299.28 382.464 299.864 382.088 300.488 381.544L301.736 383.296C301.352 383.68 300.88 384.016 300.32 384.304C299.776 384.592 299.192 384.824 298.568 385C297.96 385.16 297.36 385.24 296.768 385.24ZM304.951 385V372.4H307.447V376.36L307.207 375.4C307.383 374.792 307.679 374.24 308.095 373.744C308.527 373.248 309.015 372.856 309.559 372.568C310.119 372.28 310.695 372.136 311.287 372.136C311.559 372.136 311.815 372.16 312.055 372.208C312.311 372.256 312.511 372.312 312.655 372.376L312.007 375.064C311.815 374.984 311.599 374.92 311.359 374.872C311.135 374.808 310.911 374.776 310.687 374.776C310.255 374.776 309.839 374.864 309.439 375.04C309.055 375.2 308.711 375.432 308.407 375.736C308.119 376.024 307.887 376.368 307.711 376.768C307.535 377.152 307.447 377.576 307.447 378.04V385H304.951ZM40.3495 414.36V412.2H52.3735V414.36H40.3495ZM45.0775 418.992V407.4H47.5975V418.992H45.0775ZM58.6572 418.824V405.192L59.5452 405.864L56.2332 407.616L55.5372 405.36L60.0252 402.96H61.2732V418.824H58.6572ZM55.9932 420V417.504H64.0092V420H55.9932ZM72.7212 420.24C71.4412 420.24 70.3372 419.888 69.4092 419.184C68.4972 418.48 67.7932 417.488 67.2972 416.208C66.8012 414.912 66.5532 413.376 66.5532 411.6C66.5532 409.824 66.8012 408.296 67.2972 407.016C67.7932 405.72 68.4972 404.72 69.4092 404.016C70.3372 403.312 71.4412 402.96 72.7212 402.96C74.0012 402.96 75.1052 403.312 76.0332 404.016C76.9612 404.72 77.6732 405.72 78.1692 407.016C78.6652 408.296 78.9132 409.824 78.9132 411.6C78.9132 413.376 78.6652 414.912 78.1692 416.208C77.6732 417.488 76.9612 418.48 76.0332 419.184C75.1052 419.888 74.0012 420.24 72.7212 420.24ZM72.7212 417.888C73.8892 417.888 74.7932 417.344 75.4332 416.256C76.0732 415.152 76.3932 413.6 76.3932 411.6C76.3932 409.6 76.0732 408.056 75.4332 406.968C74.7932 405.864 73.8892 405.312 72.7212 405.312C71.5532 405.312 70.6492 405.864 70.0092 406.968C69.3692 408.056 69.0492 409.6 69.0492 411.6C69.0492 413.6 69.3692 415.152 70.0092 416.256C70.6492 417.344 71.5532 417.888 72.7212 417.888ZM94.1459 420.24C92.9139 420.24 91.8099 419.96 90.8339 419.4C89.8739 418.824 89.1139 418.048 88.5539 417.072C87.9939 416.08 87.7139 414.952 87.7139 413.688C87.7139 412.424 87.9939 411.304 88.5539 410.328C89.1139 409.336 89.8739 408.56 90.8339 408C91.8099 407.424 92.9139 407.136 94.1459 407.136C95.3619 407.136 96.4499 407.424 97.4099 408C98.3859 408.56 99.1539 409.336 99.7139 410.328C100.274 411.304 100.554 412.424 100.554 413.688C100.554 414.952 100.274 416.08 99.7139 417.072C99.1539 418.048 98.3859 418.824 97.4099 419.4C96.4499 419.96 95.3619 420.24 94.1459 420.24ZM94.1459 417.984C94.8979 417.984 95.5699 417.8 96.1619 417.432C96.7539 417.048 97.2179 416.536 97.5539 415.896C97.8899 415.24 98.0499 414.504 98.0339 413.688C98.0499 412.856 97.8899 412.12 97.5539 411.48C97.2179 410.824 96.7539 410.312 96.1619 409.944C95.5699 409.576 94.8979 409.392 94.1459 409.392C93.3939 409.392 92.7139 409.584 92.1059 409.968C91.5139 410.336 91.0499 410.848 90.7139 411.504C90.3779 412.144 90.2179 412.872 90.2339 413.688C90.2179 414.504 90.3779 415.24 90.7139 415.896C91.0499 416.536 91.5139 417.048 92.1059 417.432C92.7139 417.8 93.3939 417.984 94.1459 417.984ZM103.248 420V407.4H105.744V411.36L105.504 410.4C105.68 409.792 105.976 409.24 106.392 408.744C106.824 408.248 107.312 407.856 107.856 407.568C108.416 407.28 108.992 407.136 109.584 407.136C109.856 407.136 110.112 407.16 110.352 407.208C110.608 407.256 110.808 407.312 110.952 407.376L110.304 410.064C110.112 409.984 109.896 409.92 109.656 409.872C109.432 409.808 109.208 409.776 108.984 409.776C108.552 409.776 108.136 409.864 107.736 410.04C107.352 410.2 107.008 410.432 106.704 410.736C106.416 411.024 106.184 411.368 106.008 411.768C105.832 412.152 105.744 412.576 105.744 413.04V420H103.248ZM119.198 414.36V411.912H126.11V414.36H119.198ZM132.579 418.824V405.192L133.467 405.864L130.155 407.616L129.459 405.36L133.947 402.96H135.195V418.824H132.579ZM129.915 420V417.504H137.931V420H129.915ZM146.643 420.24C145.363 420.24 144.259 419.888 143.331 419.184C142.419 418.48 141.715 417.488 141.219 416.208C140.723 414.912 140.475 413.376 140.475 411.6C140.475 409.824 140.723 408.296 141.219 407.016C141.715 405.72 142.419 404.72 143.331 404.016C144.259 403.312 145.363 402.96 146.643 402.96C147.923 402.96 149.027 403.312 149.955 404.016C150.883 404.72 151.595 405.72 152.091 407.016C152.587 408.296 152.835 409.824 152.835 411.6C152.835 413.376 152.587 414.912 152.091 416.208C151.595 417.488 150.883 418.48 149.955 419.184C149.027 419.888 147.923 420.24 146.643 420.24ZM146.643 417.888C147.811 417.888 148.715 417.344 149.355 416.256C149.995 415.152 150.315 413.6 150.315 411.6C150.315 409.6 149.995 408.056 149.355 406.968C148.715 405.864 147.811 405.312 146.643 405.312C145.475 405.312 144.571 405.864 143.931 406.968C143.291 408.056 142.971 409.6 142.971 411.6C142.971 413.6 143.291 415.152 143.931 416.256C144.571 417.344 145.475 417.888 146.643 417.888ZM168.044 425.52C167.148 425.52 166.252 425.376 165.356 425.088C164.476 424.816 163.764 424.456 163.22 424.008L164.132 422.088C164.452 422.328 164.828 422.536 165.26 422.712C165.692 422.904 166.148 423.048 166.628 423.144C167.108 423.256 167.58 423.312 168.044 423.312C168.924 423.312 169.66 423.168 170.252 422.88C170.844 422.592 171.292 422.168 171.596 421.608C171.9 421.048 172.052 420.352 172.052 419.52V417.096L172.316 417.264C172.236 417.76 171.972 418.24 171.524 418.704C171.092 419.152 170.548 419.52 169.892 419.808C169.236 420.096 168.564 420.24 167.876 420.24C166.676 420.24 165.604 419.96 164.66 419.4C163.732 418.824 162.996 418.048 162.452 417.072C161.908 416.08 161.636 414.952 161.636 413.688C161.636 412.424 161.9 411.304 162.428 410.328C162.972 409.336 163.708 408.56 164.636 408C165.58 407.424 166.636 407.136 167.804 407.136C168.284 407.136 168.748 407.2 169.196 407.328C169.644 407.44 170.06 407.608 170.444 407.832C170.828 408.04 171.172 408.272 171.476 408.528C171.78 408.784 172.028 409.056 172.22 409.344C172.412 409.632 172.532 409.904 172.58 410.16L172.052 410.352V407.4H174.524V419.232C174.524 420.24 174.372 421.128 174.068 421.896C173.78 422.68 173.356 423.336 172.796 423.864C172.236 424.408 171.556 424.816 170.756 425.088C169.956 425.376 169.052 425.52 168.044 425.52ZM168.14 417.96C168.924 417.96 169.62 417.776 170.228 417.408C170.836 417.04 171.308 416.536 171.644 415.896C171.98 415.256 172.148 414.52 172.148 413.688C172.148 412.856 171.972 412.12 171.62 411.48C171.284 410.824 170.812 410.312 170.204 409.944C169.612 409.576 168.924 409.392 168.14 409.392C167.372 409.392 166.684 409.584 166.076 409.968C165.484 410.336 165.012 410.848 164.66 411.504C164.324 412.144 164.156 412.872 164.156 413.688C164.156 414.504 164.324 415.24 164.66 415.896C165.012 416.536 165.484 417.04 166.076 417.408C166.684 417.776 167.372 417.96 168.14 417.96ZM183.87 420.24C182.574 420.24 181.422 419.968 180.414 419.424C179.422 418.864 178.638 418.104 178.062 417.144C177.502 416.184 177.222 415.08 177.222 413.832C177.222 412.84 177.382 411.936 177.702 411.12C178.022 410.304 178.462 409.6 179.022 409.008C179.598 408.4 180.278 407.936 181.062 407.616C181.862 407.28 182.726 407.112 183.654 407.112C184.47 407.112 185.23 407.272 185.934 407.592C186.638 407.896 187.246 408.32 187.758 408.864C188.286 409.408 188.686 410.056 188.958 410.808C189.246 411.544 189.382 412.352 189.366 413.232L189.342 414.288H179.046L178.494 412.32H187.206L186.846 412.728V412.152C186.798 411.624 186.622 411.152 186.318 410.736C186.014 410.32 185.63 409.992 185.166 409.752C184.702 409.512 184.198 409.392 183.654 409.392C182.79 409.392 182.062 409.56 181.47 409.896C180.878 410.216 180.43 410.696 180.126 411.336C179.822 411.96 179.67 412.736 179.67 413.664C179.67 414.544 179.854 415.312 180.222 415.968C180.59 416.608 181.11 417.104 181.782 417.456C182.454 417.808 183.23 417.984 184.11 417.984C184.734 417.984 185.31 417.88 185.838 417.672C186.382 417.464 186.966 417.088 187.59 416.544L188.838 418.296C188.454 418.68 187.982 419.016 187.422 419.304C186.878 419.592 186.294 419.824 185.67 420C185.062 420.16 184.462 420.24 183.87 420.24ZM192.004 420V407.4H194.5V410.088L194.044 410.376C194.172 409.96 194.372 409.56 194.644 409.176C194.932 408.792 195.276 408.456 195.676 408.168C196.092 407.864 196.532 407.624 196.996 407.448C197.476 407.272 197.964 407.184 198.46 407.184C199.18 407.184 199.812 407.304 200.356 407.544C200.9 407.784 201.348 408.144 201.7 408.624C202.052 409.104 202.308 409.704 202.468 410.424L202.084 410.328L202.252 409.92C202.428 409.552 202.668 409.208 202.972 408.888C203.292 408.552 203.652 408.256 204.052 408C204.452 407.744 204.876 407.544 205.324 407.4C205.772 407.256 206.212 407.184 206.644 407.184C207.588 407.184 208.364 407.376 208.972 407.76C209.596 408.144 210.06 408.728 210.364 409.512C210.684 410.296 210.844 411.272 210.844 412.44V420H208.348V412.584C208.348 411.864 208.252 411.28 208.06 410.832C207.884 410.368 207.612 410.024 207.244 409.8C206.876 409.576 206.404 409.464 205.828 409.464C205.38 409.464 204.956 409.544 204.556 409.704C204.172 409.848 203.836 410.056 203.548 410.328C203.26 410.6 203.036 410.92 202.876 411.288C202.716 411.64 202.636 412.032 202.636 412.464V420H200.14V412.536C200.14 411.88 200.044 411.328 199.852 410.88C199.66 410.416 199.38 410.064 199.012 409.824C198.644 409.584 198.196 409.464 197.668 409.464C197.22 409.464 196.804 409.544 196.42 409.704C196.036 409.848 195.7 410.056 195.412 410.328C195.124 410.584 194.9 410.896 194.74 411.264C194.58 411.616 194.5 412 194.5 412.416V420H192.004ZM218.354 420.24C217.298 420.24 216.346 420.056 215.498 419.688C214.65 419.32 213.946 418.776 213.386 418.056L215.066 416.616C215.546 417.176 216.066 417.584 216.626 417.84C217.202 418.08 217.85 418.2 218.57 418.2C218.858 418.2 219.122 418.168 219.362 418.104C219.618 418.024 219.834 417.912 220.01 417.768C220.202 417.624 220.346 417.456 220.442 417.264C220.538 417.056 220.586 416.832 220.586 416.592C220.586 416.176 220.434 415.84 220.13 415.584C219.97 415.472 219.714 415.352 219.362 415.224C219.026 415.08 218.586 414.936 218.042 414.792C217.114 414.552 216.354 414.28 215.762 413.976C215.17 413.672 214.714 413.328 214.394 412.944C214.154 412.64 213.978 412.312 213.866 411.96C213.754 411.592 213.698 411.192 213.698 410.76C213.698 410.232 213.81 409.752 214.034 409.32C214.274 408.872 214.594 408.488 214.994 408.168C215.41 407.832 215.89 407.576 216.434 407.4C216.994 407.224 217.586 407.136 218.21 407.136C218.802 407.136 219.386 407.216 219.962 407.376C220.554 407.536 221.098 407.768 221.594 408.072C222.09 408.376 222.506 408.736 222.842 409.152L221.426 410.712C221.122 410.408 220.786 410.144 220.418 409.92C220.066 409.68 219.706 409.496 219.338 409.368C218.97 409.24 218.634 409.176 218.33 409.176C217.994 409.176 217.69 409.208 217.418 409.272C217.146 409.336 216.914 409.432 216.722 409.56C216.546 409.688 216.41 409.848 216.314 410.04C216.218 410.232 216.17 410.448 216.17 410.688C216.186 410.896 216.234 411.096 216.314 411.288C216.41 411.464 216.538 411.616 216.698 411.744C216.874 411.872 217.138 412.008 217.49 412.152C217.842 412.296 218.29 412.432 218.834 412.56C219.634 412.768 220.29 413 220.802 413.256C221.33 413.496 221.746 413.776 222.05 414.096C222.37 414.4 222.594 414.752 222.722 415.152C222.85 415.552 222.914 416 222.914 416.496C222.914 417.216 222.706 417.864 222.29 418.44C221.89 419 221.346 419.44 220.658 419.76C219.97 420.08 219.202 420.24 218.354 420.24Z" fill="#FAF9F6"/>
<path d="M196.518 292.296L120.084 255.072L117.106 248.785L116.279 157.958L118.595 149.851C118.595 149.851 195.194 128.178 196.518 128.178C197.842 128.178 262.033 146.046 262.033 146.046L263.522 146.211L267.492 152.167L213.724 180.292L196.518 292.296Z" fill="#F5F5F5"/>
<path d="M262.033 146.046L223.485 135.458C234.459 138.987 257.533 146.41 262.033 147.866C266.533 149.322 263.908 151.23 262.033 152.002C244.882 158.564 209.158 172.219 203.467 174.336C197.775 176.454 196.463 179.41 196.518 180.623V292.296C198.503 292.296 202.419 290.752 204.128 289.98C226.132 278.123 270.669 254.112 272.787 252.921C274.904 251.73 276.206 249.447 276.592 248.454C281.621 248.719 284.643 252.535 285.526 254.41C289.099 261.954 287.346 270.899 286.022 274.429C284.864 278.234 280.265 287.598 271.132 294.613C262 301.627 249.901 304.704 244.993 305.366C238.816 306.083 223.551 307.285 211.904 306.359C197.345 305.201 191.72 302.388 181.298 299.245C172.959 296.73 163.044 290.587 159.128 287.829C153.503 283.804 140.533 274.826 133.65 271.12C125.047 266.487 117.768 266.653 111.15 267.48C104.532 268.307 99.073 274.429 96.9223 277.903C94.7715 281.377 94.1098 286.175 96.5914 293.951C98.5767 300.171 105.139 305.366 108.172 307.186C103.54 306.921 99.8451 310.054 98.5767 311.653C107.974 321.447 125.433 319.594 132.989 317.443C131.797 300.105 121.242 291.91 116.113 289.98C114.79 291.436 114.79 296.874 114.955 299.41C113.908 298.528 111.117 296.201 108.338 293.951C105.558 291.701 104.863 285.017 105.525 283.362C106.022 281.543 108.503 279.392 111.15 278.234C116.848 275.741 124.882 278.73 129.183 280.385C133.485 282.039 139.606 286.506 154.496 296.929C169.386 307.352 185.268 311.984 205.286 315.789C225.305 319.594 243.338 315.954 256.739 312.811C270.14 309.668 281.555 300.238 288.669 292.131C295.783 284.024 297.437 269.3 297.934 263.013C298.43 256.726 296.114 251.929 291.812 245.311C288.371 240.017 281.004 238.142 277.75 237.866L278.742 159.447C289.331 133.638 271.463 116.928 269.809 115.439C268.485 114.248 268.154 116.046 268.154 117.094C268.287 128.211 264.128 141.028 262.033 146.046Z" fill="#DB7C68"/>
<path d="M132.326 146.046L170.378 135.292C155.543 140.256 125.014 150.447 121.573 151.506C118.132 152.565 117.271 156.469 117.271 158.289C117.492 185.807 117.933 241.969 117.933 246.469C117.933 250.969 120.801 253.638 122.234 254.41L143.576 266.653C137.179 263.565 123.525 256.925 120.084 255.072C116.643 253.219 115.893 248.675 115.948 246.635L114.955 158.62C103.705 134.631 123.227 116.432 124.385 115.274C125.312 114.348 125.543 115.991 125.543 116.928C125.808 129.634 130.176 141.634 132.326 146.046Z" fill="#DB7C68"/>
<ellipse cx="184.275" cy="142.737" rx="10.4228" ry="2.64707" fill="#802223"/>
<ellipse cx="207.107" cy="147.866" rx="11.0846" ry="2.81251" fill="#802223"/>
<ellipse cx="232.254" cy="153.491" rx="11.7464" ry="3.14339" fill="#802223"/>
<ellipse cx="154.508" cy="150.912" rx="11.2232" ry="2.64707" transform="rotate(-2.3802 154.508 150.912)" fill="#802223"/>
<ellipse cx="177.429" cy="156.698" rx="11.7667" ry="3.07019" transform="rotate(-2.3802 177.429 156.698)" fill="#802223"/>
<ellipse cx="144.132" cy="182.437" rx="10.4111" ry="6.03415" transform="rotate(80.7842 144.132 182.437)" fill="#802223"/>
<ellipse cx="140.823" cy="182.437" rx="10.4111" ry="6.03415" transform="rotate(80.7842 140.823 182.437)" fill="#DB7C68"/>
<ellipse cx="144.153" cy="212.295" rx="10.8268" ry="6.03415" transform="rotate(80.7842 144.153 212.295)" fill="#802223"/>
<ellipse cx="140.844" cy="212.295" rx="10.8268" ry="6.03415" transform="rotate(80.7842 140.844 212.295)" fill="#DB7C68"/>
<ellipse cx="144.629" cy="241.905" rx="10.8268" ry="6.20973" transform="rotate(78.9746 144.629 241.905)" fill="#802223"/>
<ellipse cx="141.32" cy="241.905" rx="10.8268" ry="6.20973" transform="rotate(78.9746 141.32 241.905)" fill="#DB7C68"/>
<ellipse cx="170.059" cy="189.941" rx="11.1424" ry="6.31895" transform="rotate(80.7842 170.059 189.941)" fill="#802223"/>
<ellipse cx="166.751" cy="189.941" rx="11.1424" ry="6.31895" transform="rotate(80.7842 166.751 189.941)" fill="#DB7C68"/>
<ellipse cx="231.606" cy="189.358" rx="11.4682" ry="6.31895" transform="rotate(102.135 231.606 189.358)" fill="#802223"/>
<ellipse cx="228.765" cy="189.358" rx="11.4682" ry="6.31895" transform="rotate(102.135 228.765 189.358)" fill="#F5F5F5"/>
<ellipse cx="232.442" cy="220.615" rx="11.2871" ry="6.31895" transform="rotate(102.135 232.442 220.615)" fill="#802223"/>
<ellipse cx="229.601" cy="220.615" rx="11.2871" ry="6.31895" transform="rotate(102.135 229.601 220.615)" fill="#F5F5F5"/>
<ellipse cx="232.974" cy="251.97" rx="11.5446" ry="6.31895" transform="rotate(102.135 232.974 251.97)" fill="#802223"/>
<ellipse cx="230.133" cy="251.97" rx="11.5446" ry="6.31895" transform="rotate(102.135 230.133 251.97)" fill="#F5F5F5"/>
<ellipse cx="254.698" cy="179.848" rx="10.8786" ry="6.31895" transform="rotate(102.135 254.698 179.848)" fill="#802223"/>
<ellipse cx="251.856" cy="179.848" rx="10.8786" ry="6.31895" transform="rotate(102.135 251.856 179.848)" fill="#F5F5F5"/>
<ellipse cx="255.423" cy="209.719" rx="10.9726" ry="6.31895" transform="rotate(102.135 255.423 209.719)" fill="#802223"/>
<ellipse cx="252.581" cy="209.719" rx="10.9726" ry="6.31895" transform="rotate(102.135 252.581 209.719)" fill="#F5F5F5"/>
<ellipse cx="256.082" cy="239.694" rx="11.1726" ry="6.31895" transform="rotate(102.135 256.082 239.694)" fill="#802223"/>
<ellipse cx="253.241" cy="239.694" rx="11.1726" ry="6.31895" transform="rotate(102.135 253.241 239.694)" fill="#F5F5F5"/>
<ellipse cx="169.727" cy="220.837" rx="11.1424" ry="6.68797" transform="rotate(78.477 169.727 220.837)" fill="#802223"/>
<ellipse cx="166.419" cy="220.837" rx="11.1424" ry="6.68797" transform="rotate(78.477 166.419 220.837)" fill="#DB7C68"/>
<ellipse cx="169.712" cy="252.219" rx="11.2184" ry="7.04403" transform="rotate(76.7628 169.712 252.219)" fill="#802223"/>
<ellipse cx="166.404" cy="252.219" rx="11.2184" ry="7.04403" transform="rotate(76.7628 166.404 252.219)" fill="#DB7C68"/>
<ellipse cx="202.416" cy="163.08" rx="12.2752" ry="3.93237" transform="rotate(-2.3802 202.416 163.08)" fill="#802223"/>
<ellipse cx="184.275" cy="140.09" rx="10.4228" ry="2.64707" fill="#DB7C68"/>
<ellipse cx="207.107" cy="145.219" rx="11.0846" ry="2.81251" fill="#DB7C68"/>
<ellipse cx="232.254" cy="150.844" rx="11.7464" ry="3.14339" fill="#DB7C68"/>
<ellipse cx="154.508" cy="148.265" rx="11.2232" ry="2.64707" transform="rotate(-2.3802 154.508 148.265)" fill="#DB7C68"/>
<ellipse cx="177.429" cy="154.051" rx="11.7667" ry="3.07019" transform="rotate(-2.3802 177.429 154.051)" fill="#DB7C68"/>
<ellipse cx="202.416" cy="160.433" rx="12.2752" ry="3.93237" transform="rotate(-2.3802 202.416 160.433)" fill="#DB7C68"/>
</svg>
