<svg width="281" height="350" viewBox="0 0 281 350" fill="none" xmlns="http://www.w3.org/2000/svg">
<rect width="281" height="350" rx="20" fill="#202020" fill-opacity="0.5"/>
<path d="M31.264 50.544C31.776 48.2187 32.032 44.88 32.032 40.528C32.032 36.1547 31.936 32.9333 31.744 30.864C29.376 30.9067 27.8613 31.248 27.2 31.888C27.0507 32.1867 26.976 32.656 26.976 33.296C26.976 33.936 27.0827 34.3733 27.296 34.608L27.264 34.832C26.7307 35.152 26.1973 35.6 25.664 36.176C25.408 36.1547 25.2053 36.048 25.056 35.856C24.8853 35.664 24.8 35.44 24.8 35.184C24.8 34.2027 25.3653 33.04 26.496 31.696C27.6053 30.352 28.672 29.424 29.696 28.912C31.5093 29.0827 34.1973 29.168 37.76 29.168C43.584 29.168 46.496 31.9947 46.496 37.648C46.496 40.6133 45.7173 43.3013 44.16 45.712C42.6027 48.1227 40.4907 49.712 37.824 50.48C36.288 50.48 34.5707 50.0747 32.672 49.264C32.3093 49.8187 32.064 50.2987 31.936 50.704L31.264 50.544ZM37.248 30.672C36.2667 30.672 35.4453 30.7253 34.784 30.832C34.592 32.8373 34.496 35.6107 34.496 39.152C34.496 42.6933 34.5493 45.4027 34.656 47.28C35.808 47.8773 37.12 48.176 38.592 48.176C40.064 48.176 41.2053 47.8133 42.016 47.088C43.104 45.104 43.648 42.6507 43.648 39.728C43.648 36.8053 43.1893 34.5653 42.272 33.008C41.376 31.4507 39.7013 30.672 37.248 30.672ZM54.2438 34.384C54.0731 35.536 53.9878 37.8933 53.9878 41.456C53.9878 45.0187 54.0838 47.5147 54.2758 48.944C55.2358 49.0507 56.1211 49.2107 56.9318 49.424L56.8358 50.224C55.7264 50.0747 54.4784 50 53.0918 50C51.7264 50 50.4998 50.0853 49.4118 50.256L49.2838 49.424C49.8811 49.232 50.5531 49.072 51.2998 48.944C51.4918 47.408 51.5878 45.232 51.5878 42.416V40.912C51.5878 38.096 51.4811 35.92 51.2678 34.384C50.5211 34.256 49.8491 34.096 49.2518 33.904L49.3798 33.072C50.4678 33.2427 51.6944 33.328 53.0598 33.328C54.4464 33.328 55.6944 33.2533 56.8038 33.104L56.8998 33.904C56.0891 34.1173 55.2038 34.2773 54.2438 34.384ZM61.1748 32.976C63.1801 33.2107 65.2068 33.328 67.2548 33.328C69.3028 33.328 71.3188 33.2107 73.3028 32.976L73.4308 33.808C72.7908 34.064 72.1294 34.256 71.4468 34.384C71.2121 36.1333 71.0948 38.5653 71.0948 41.68C71.0948 44.7947 71.2121 47.2267 71.4468 48.976C71.8734 49.04 72.6628 49.2 73.8148 49.456L73.6868 50.256C72.6628 50.0853 71.3508 50 69.7508 50C68.1508 50 66.9241 50.0853 66.0708 50.256L65.9427 49.424C66.6681 49.1893 67.4894 49.0187 68.4068 48.912C68.5348 47.6747 68.6308 45.9573 68.6948 43.76C67.6921 43.6533 66.6894 43.6 65.6868 43.6C64.6841 43.6 63.8094 43.6533 63.0628 43.76C62.6361 45.5093 62.4227 46.7253 62.4227 47.408C62.4227 48.4533 62.7961 49.1893 63.5428 49.616L63.4148 50.16C62.9241 50.0533 61.9961 50 60.6308 50C59.2654 50 58.1881 50.0853 57.3987 50.256L57.2707 49.424C57.7828 49.232 58.4868 49.0613 59.3828 48.912L63.5428 34.32C62.6041 34.1707 61.7828 34 61.0788 33.808L61.1748 32.976ZM63.3188 42.256C64.1508 42.384 65.0681 42.448 66.0708 42.448C67.0948 42.448 67.9694 42.384 68.6948 42.256C68.6948 38.3093 68.6094 35.76 68.4388 34.608C67.7134 34.5653 67.1694 34.544 66.8068 34.544C66.4654 34.544 65.9321 34.5653 65.2068 34.608L63.3188 42.256ZM84.5078 48.208C84.5078 46.8853 84.1771 44.912 83.5158 42.288C82.8544 39.6427 82.1184 37.0827 81.3078 34.608L81.1798 34.64L80.3798 40.592C80.0384 43.0453 79.8678 45.2533 79.8678 47.216C79.8678 48.4107 80.2411 49.2107 80.9878 49.616L80.8598 50.16C80.2198 50.0533 79.3771 50 78.3318 50C77.3078 50 76.1771 50.0853 74.9398 50.256L74.8117 49.424C75.5371 49.1893 76.2198 49.0187 76.8598 48.912L79.8358 34.32C78.7264 34.128 77.9051 33.9573 77.3718 33.808L77.4678 32.976C79.0038 33.2107 80.4224 33.328 81.7238 33.328C83.0464 33.328 84.0704 33.2533 84.7958 33.104L84.8598 33.648C84.2838 33.7973 83.9958 34.0427 83.9958 34.384C83.9958 34.8533 84.6571 37.5627 85.9798 42.512L86.6838 44.912L86.9078 44.848C86.9078 44.2933 87.8784 40.816 89.8198 34.416C89.8198 34.0533 89.5318 33.7973 88.9558 33.648L89.0198 33.104C89.7451 33.2533 90.7691 33.328 92.0918 33.328C93.4358 33.328 94.8651 33.2107 96.3798 32.976L96.4758 33.808C95.8998 33.9573 95.1638 34.1173 94.2678 34.288C94.2038 34.8 94.1718 35.5573 94.1718 36.56C94.1718 37.5413 94.3104 39.568 94.5878 42.64C94.8651 45.712 95.1211 47.824 95.3558 48.976C96.1451 49.0827 96.9558 49.232 97.7878 49.424L97.6918 50.224C96.5824 50.0747 95.3451 50 93.9798 50C92.6358 50 91.4198 50.0853 90.3318 50.256L90.2038 49.424C90.9078 49.2107 91.6651 49.0507 92.4757 48.944C92.4118 43.9093 92.0704 39.1627 91.4518 34.704H91.3558C89.1584 41.1893 87.9851 45.392 87.8358 47.312C87.3878 47.4613 86.8651 47.7387 86.2678 48.144C85.6704 48.528 85.2118 48.912 84.8918 49.296L84.5078 49.04V48.208ZM106.416 50.384C104.304 50.384 102.597 49.7227 101.296 48.4C99.9947 47.056 99.344 45.264 99.344 43.024C99.344 40.784 100.027 38.6827 101.392 36.72C102.757 34.7573 104.539 33.4987 106.736 32.944C108.933 32.944 110.608 33.5733 111.76 34.832C112.912 36.0693 113.488 37.84 113.488 40.144C113.488 42.448 112.859 44.528 111.6 46.384C110.363 48.24 108.635 49.5733 106.416 50.384ZM105.872 34.896C104.912 34.896 104.08 35.1627 103.376 35.696C102.501 37.1893 102.064 39.0667 102.064 41.328C102.064 43.9307 102.789 45.9253 104.24 47.312C105.008 48.0587 105.915 48.432 106.96 48.432C108.005 48.432 108.848 48.1547 109.488 47.6C110.341 46.1067 110.768 44.2827 110.768 42.128C110.768 39.9733 110.384 38.2347 109.616 36.912C108.848 35.568 107.6 34.896 105.872 34.896ZM123.932 50.224C122.822 50.0747 121.574 50 120.188 50C118.822 50 117.596 50.0853 116.508 50.256L116.38 49.424C117.062 49.2107 117.702 49.0507 118.3 48.944C118.492 47.28 118.588 45.104 118.588 42.416V40.912C118.588 38.0533 118.481 35.856 118.268 34.32C117.692 34.256 116.998 34.0853 116.188 33.808L116.284 32.976C117.5 33.2107 118.769 33.328 120.092 33.328C121.436 33.328 122.396 33.2533 122.972 33.104L123.036 33.648C122.46 33.7973 122.172 34.0427 122.172 34.384C122.172 34.64 122.417 35.184 122.908 36.016C123.42 36.8267 123.91 37.616 124.38 38.384C125.788 40.624 127.452 43.376 129.372 46.64L129.468 46.576V42.672C129.468 39.8133 129.318 37.6693 129.02 36.24C128.721 34.7893 128.209 33.9467 127.484 33.712L127.548 33.168C128.102 33.2747 128.934 33.328 130.044 33.328C131.153 33.328 132.294 33.2107 133.468 32.976L133.564 33.808C132.689 34.0853 131.953 34.256 131.356 34.32C131.142 36.0267 131.036 38.224 131.036 40.912V42.416C131.036 45.6587 131.142 47.856 131.356 49.008C132.252 49.1573 132.966 49.328 133.5 49.52L133.404 50.352C132.337 50.1173 131.334 50 130.396 50C129.457 50 128.732 50.0427 128.22 50.128C128.22 49.6587 127.889 48.8693 127.228 47.76C126.588 46.6507 126.001 45.6693 125.468 44.816C123.74 42.0213 122.044 39.184 120.38 36.304L120.252 36.368V40.656C120.252 44.9013 120.572 47.664 121.212 48.944C122.172 49.0507 123.11 49.2107 124.028 49.424L123.932 50.224ZM135.933 33.392L143.293 33.168C145.725 33.168 147.592 33.744 148.893 34.896C150.216 36.048 150.877 37.776 150.877 40.08C150.877 42.3627 150.152 44.496 148.701 46.48C147.272 48.464 145.491 49.7653 143.357 50.384C142.803 50.384 142.077 50.2773 141.181 50.064C140.307 49.872 139.581 49.6587 139.005 49.424C138.771 49.7013 138.557 50.096 138.365 50.608L137.693 50.448C138.099 48.5493 138.301 45.872 138.301 42.416C138.301 38.9387 138.205 36.336 138.013 34.608C137.288 34.3307 136.595 34.192 135.933 34.192V33.392ZM146.941 36.592C146.557 35.8667 146.013 35.3013 145.309 34.896C144.627 34.4907 143.869 34.288 143.037 34.288C142.227 34.288 141.523 34.4053 140.925 34.64C140.776 36.0267 140.701 38.2453 140.701 41.296C140.701 44.3253 140.744 46.4267 140.829 47.6C141.896 48.0907 142.984 48.336 144.093 48.336C145.224 48.336 146.12 48.048 146.781 47.472C147.592 45.936 147.997 44.048 147.997 41.808C147.997 39.7173 147.645 37.9787 146.941 36.592Z" fill="#FAF9F6"/>
<path d="M28.72 258.24V256.8H36.736V258.24H28.72ZM31.872 261.328V253.6H33.552V261.328H31.872ZM41.5651 262.112C40.8291 262.112 40.1625 261.947 39.5651 261.616C38.9678 261.275 38.4718 260.789 38.0771 260.16L39.0371 259.088C39.5385 259.643 39.9758 260.021 40.3491 260.224C40.7225 260.427 41.1278 260.528 41.5651 260.528C42.0025 260.528 42.3971 260.432 42.7491 260.24C43.1011 260.048 43.3785 259.787 43.5811 259.456C43.7945 259.125 43.9011 258.757 43.9011 258.352C43.9011 257.925 43.7998 257.547 43.5971 257.216C43.4051 256.875 43.1438 256.608 42.8131 256.416C42.4825 256.213 42.1091 256.112 41.6931 256.112C41.4905 256.112 41.2985 256.128 41.1171 256.16C40.9358 256.181 40.7171 256.24 40.4611 256.336C40.2051 256.432 39.8691 256.581 39.4531 256.784L38.5411 255.552L39.1971 250.8H45.2451V252.4H40.2851L40.6211 252.096L40.0931 255.648L39.6931 255.184C39.7998 255.077 39.9811 254.976 40.2371 254.88C40.4931 254.773 40.7758 254.688 41.0851 254.624C41.4051 254.549 41.7091 254.512 41.9971 254.512C42.6798 254.512 43.2878 254.672 43.8211 254.992C44.3651 255.301 44.7918 255.733 45.1011 256.288C45.4211 256.843 45.5811 257.477 45.5811 258.192C45.5811 258.928 45.4051 259.595 45.0531 260.192C44.7011 260.779 44.2211 261.248 43.6131 261.6C43.0051 261.941 42.3225 262.112 41.5651 262.112ZM52.1513 262V253.6H53.8153V255.392L53.5113 255.584C53.5966 255.307 53.7299 255.04 53.9113 254.784C54.1033 254.528 54.3326 254.304 54.5993 254.112C54.8766 253.909 55.1699 253.749 55.4793 253.632C55.7993 253.515 56.1246 253.456 56.4553 253.456C56.9353 253.456 57.3566 253.536 57.7193 253.696C58.0819 253.856 58.3806 254.096 58.6153 254.416C58.8499 254.736 59.0206 255.136 59.1273 255.616L58.8713 255.552L58.9833 255.28C59.1006 255.035 59.2606 254.805 59.4633 254.592C59.6766 254.368 59.9166 254.171 60.1833 254C60.4499 253.829 60.7326 253.696 61.0312 253.6C61.3299 253.504 61.6233 253.456 61.9113 253.456C62.5406 253.456 63.0579 253.584 63.4633 253.84C63.8793 254.096 64.1886 254.485 64.3913 255.008C64.6046 255.531 64.7113 256.181 64.7113 256.96V262H63.0473V257.056C63.0473 256.576 62.9833 256.187 62.8553 255.888C62.7379 255.579 62.5566 255.349 62.3113 255.2C62.0659 255.051 61.7513 254.976 61.3673 254.976C61.0686 254.976 60.7859 255.029 60.5193 255.136C60.2633 255.232 60.0393 255.371 59.8472 255.552C59.6553 255.733 59.5059 255.947 59.3993 256.192C59.2926 256.427 59.2393 256.688 59.2393 256.976V262H57.5753V257.024C57.5753 256.587 57.5113 256.219 57.3833 255.92C57.2553 255.611 57.0686 255.376 56.8233 255.216C56.5779 255.056 56.2793 254.976 55.9273 254.976C55.6286 254.976 55.3513 255.029 55.0953 255.136C54.8393 255.232 54.6153 255.371 54.4233 255.552C54.2313 255.723 54.0819 255.931 53.9753 256.176C53.8686 256.411 53.8153 256.667 53.8153 256.944V262H52.1513ZM70.1496 262.16C69.4563 262.16 68.8216 261.968 68.2456 261.584C67.6803 261.2 67.227 260.677 66.8856 260.016C66.5443 259.355 66.3736 258.608 66.3736 257.776C66.3736 256.933 66.5443 256.187 66.8856 255.536C67.2376 254.875 67.707 254.357 68.2936 253.984C68.891 253.611 69.5576 253.424 70.2936 253.424C70.731 253.424 71.131 253.488 71.4936 253.616C71.8563 253.744 72.171 253.925 72.4376 254.16C72.715 254.384 72.939 254.645 73.1096 254.944C73.291 255.243 73.403 255.563 73.4456 255.904L73.0776 255.776V253.6H74.7416V262H73.0776V260L73.4616 259.888C73.3976 260.176 73.2643 260.459 73.0616 260.736C72.8696 261.003 72.619 261.243 72.3096 261.456C72.011 261.669 71.675 261.84 71.3016 261.968C70.939 262.096 70.555 262.16 70.1496 262.16ZM70.5816 260.64C71.083 260.64 71.5256 260.517 71.9096 260.272C72.2936 260.027 72.5923 259.691 72.8056 259.264C73.0296 258.827 73.1416 258.331 73.1416 257.776C73.1416 257.232 73.0296 256.747 72.8056 256.32C72.5923 255.893 72.2936 255.557 71.9096 255.312C71.5256 255.067 71.083 254.944 70.5816 254.944C70.091 254.944 69.6536 255.067 69.2696 255.312C68.8963 255.557 68.5976 255.893 68.3736 256.32C68.1603 256.747 68.0536 257.232 68.0536 257.776C68.0536 258.331 68.1603 258.827 68.3736 259.264C68.5976 259.691 68.8963 260.027 69.2696 260.272C69.6536 260.517 70.091 260.64 70.5816 260.64ZM80.8026 265.68C80.2053 265.68 79.608 265.584 79.0106 265.392C78.424 265.211 77.9493 264.971 77.5866 264.672L78.1946 263.392C78.408 263.552 78.6586 263.691 78.9466 263.808C79.2346 263.936 79.5386 264.032 79.8586 264.096C80.1786 264.171 80.4933 264.208 80.8026 264.208C81.3893 264.208 81.88 264.112 82.2746 263.92C82.6693 263.728 82.968 263.445 83.1706 263.072C83.3733 262.699 83.4746 262.235 83.4746 261.68V260.064L83.6506 260.176C83.5973 260.507 83.4213 260.827 83.1226 261.136C82.8346 261.435 82.472 261.68 82.0346 261.872C81.5973 262.064 81.1493 262.16 80.6906 262.16C79.8906 262.16 79.176 261.973 78.5466 261.6C77.928 261.216 77.4373 260.699 77.0746 260.048C76.712 259.387 76.5306 258.635 76.5306 257.792C76.5306 256.949 76.7066 256.203 77.0586 255.552C77.4213 254.891 77.912 254.373 78.5306 254C79.16 253.616 79.864 253.424 80.6426 253.424C80.9626 253.424 81.272 253.467 81.5706 253.552C81.8693 253.627 82.1466 253.739 82.4026 253.888C82.6586 254.027 82.888 254.181 83.0906 254.352C83.2933 254.523 83.4586 254.704 83.5866 254.896C83.7146 255.088 83.7946 255.269 83.8266 255.44L83.4746 255.568V253.6H85.1226V261.488C85.1226 262.16 85.0213 262.752 84.8186 263.264C84.6266 263.787 84.344 264.224 83.9706 264.576C83.5973 264.939 83.144 265.211 82.6106 265.392C82.0773 265.584 81.4746 265.68 80.8026 265.68ZM80.8666 260.64C81.3893 260.64 81.8533 260.517 82.2586 260.272C82.664 260.027 82.9786 259.691 83.2026 259.264C83.4266 258.837 83.5386 258.347 83.5386 257.792C83.5386 257.237 83.4213 256.747 83.1866 256.32C82.9626 255.883 82.648 255.541 82.2426 255.296C81.848 255.051 81.3893 254.928 80.8666 254.928C80.3546 254.928 79.896 255.056 79.4906 255.312C79.096 255.557 78.7813 255.899 78.5466 256.336C78.3226 256.763 78.2106 257.248 78.2106 257.792C78.2106 258.336 78.3226 258.827 78.5466 259.264C78.7813 259.691 79.096 260.027 79.4906 260.272C79.896 260.517 80.3546 260.64 80.8666 260.64ZM87.7053 262V253.6H89.3533V262H87.7053ZM88.5053 251.744C88.1533 251.744 87.8813 251.653 87.6893 251.472C87.4973 251.291 87.4013 251.035 87.4013 250.704C87.4013 250.395 87.4973 250.144 87.6893 249.952C87.8919 249.76 88.1639 249.664 88.5053 249.664C88.8573 249.664 89.1293 249.755 89.3213 249.936C89.5133 250.117 89.6093 250.373 89.6093 250.704C89.6093 251.013 89.5079 251.264 89.3053 251.456C89.1133 251.648 88.8466 251.744 88.5053 251.744ZM95.4544 262.16C94.6757 262.16 93.977 261.968 93.3584 261.584C92.7504 261.2 92.265 260.677 91.9024 260.016C91.5504 259.355 91.3744 258.613 91.3744 257.792C91.3744 256.971 91.5504 256.229 91.9024 255.568C92.265 254.907 92.7504 254.384 93.3584 254C93.977 253.616 94.6757 253.424 95.4544 253.424C96.201 253.424 96.8784 253.579 97.4864 253.888C98.105 254.187 98.5744 254.597 98.8944 255.12L97.9824 256.24C97.8117 255.995 97.593 255.771 97.3264 255.568C97.0597 255.365 96.777 255.205 96.4784 255.088C96.1797 254.971 95.8917 254.912 95.6144 254.912C95.1024 254.912 94.6437 255.04 94.2384 255.296C93.8437 255.541 93.529 255.883 93.2944 256.32C93.0597 256.757 92.9424 257.248 92.9424 257.792C92.9424 258.336 93.065 258.827 93.3104 259.264C93.5557 259.691 93.881 260.032 94.2864 260.288C94.6917 260.544 95.1397 260.672 95.6304 260.672C95.9184 260.672 96.1957 260.624 96.4624 260.528C96.7397 260.432 97.0064 260.288 97.2624 260.096C97.5184 259.904 97.7584 259.669 97.9824 259.392L98.8944 260.512C98.553 260.992 98.0624 261.387 97.4224 261.696C96.793 262.005 96.137 262.16 95.4544 262.16ZM108.693 265.68C108.096 265.68 107.499 265.584 106.901 265.392C106.315 265.211 105.84 264.971 105.477 264.672L106.085 263.392C106.299 263.552 106.549 263.691 106.837 263.808C107.125 263.936 107.429 264.032 107.749 264.096C108.069 264.171 108.384 264.208 108.693 264.208C109.28 264.208 109.771 264.112 110.165 263.92C110.56 263.728 110.859 263.445 111.061 263.072C111.264 262.699 111.365 262.235 111.365 261.68V260.064L111.541 260.176C111.488 260.507 111.312 260.827 111.013 261.136C110.725 261.435 110.363 261.68 109.925 261.872C109.488 262.064 109.04 262.16 108.581 262.16C107.781 262.16 107.067 261.973 106.437 261.6C105.819 261.216 105.328 260.699 104.965 260.048C104.603 259.387 104.421 258.635 104.421 257.792C104.421 256.949 104.597 256.203 104.949 255.552C105.312 254.891 105.803 254.373 106.421 254C107.051 253.616 107.755 253.424 108.533 253.424C108.853 253.424 109.163 253.467 109.461 253.552C109.76 253.627 110.037 253.739 110.293 253.888C110.549 254.027 110.779 254.181 110.981 254.352C111.184 254.523 111.349 254.704 111.477 254.896C111.605 255.088 111.685 255.269 111.717 255.44L111.365 255.568V253.6H113.013V261.488C113.013 262.16 112.912 262.752 112.709 263.264C112.517 263.787 112.235 264.224 111.861 264.576C111.488 264.939 111.035 265.211 110.501 265.392C109.968 265.584 109.365 265.68 108.693 265.68ZM108.757 260.64C109.28 260.64 109.744 260.517 110.149 260.272C110.555 260.027 110.869 259.691 111.093 259.264C111.317 258.837 111.429 258.347 111.429 257.792C111.429 257.237 111.312 256.747 111.077 256.32C110.853 255.883 110.539 255.541 110.133 255.296C109.739 255.051 109.28 254.928 108.757 254.928C108.245 254.928 107.787 255.056 107.381 255.312C106.987 255.557 106.672 255.899 106.437 256.336C106.213 256.763 106.101 257.248 106.101 257.792C106.101 258.336 106.213 258.827 106.437 259.264C106.672 259.691 106.987 260.027 107.381 260.272C107.787 260.517 108.245 260.64 108.757 260.64ZM119.244 262.16C118.38 262.16 117.612 261.979 116.94 261.616C116.279 261.243 115.756 260.736 115.372 260.096C114.999 259.456 114.812 258.72 114.812 257.888C114.812 257.227 114.919 256.624 115.132 256.08C115.345 255.536 115.639 255.067 116.012 254.672C116.396 254.267 116.849 253.957 117.372 253.744C117.905 253.52 118.481 253.408 119.1 253.408C119.644 253.408 120.151 253.515 120.62 253.728C121.089 253.931 121.495 254.213 121.836 254.576C122.188 254.939 122.455 255.371 122.636 255.872C122.828 256.363 122.919 256.901 122.908 257.488L122.892 258.192H116.028L115.66 256.88H121.468L121.228 257.152V256.768C121.196 256.416 121.079 256.101 120.876 255.824C120.673 255.547 120.417 255.328 120.108 255.168C119.799 255.008 119.463 254.928 119.1 254.928C118.524 254.928 118.039 255.04 117.644 255.264C117.249 255.477 116.951 255.797 116.748 256.224C116.545 256.64 116.444 257.157 116.444 257.776C116.444 258.363 116.567 258.875 116.812 259.312C117.057 259.739 117.404 260.069 117.852 260.304C118.3 260.539 118.817 260.656 119.404 260.656C119.82 260.656 120.204 260.587 120.556 260.448C120.919 260.309 121.308 260.059 121.724 259.696L122.556 260.864C122.3 261.12 121.985 261.344 121.612 261.536C121.249 261.728 120.86 261.883 120.444 262C120.039 262.107 119.639 262.16 119.244 262.16ZM124.667 262V253.6H126.331V255.392L126.027 255.584C126.112 255.307 126.246 255.04 126.427 254.784C126.619 254.528 126.848 254.304 127.115 254.112C127.392 253.909 127.686 253.749 127.995 253.632C128.315 253.515 128.64 253.456 128.971 253.456C129.451 253.456 129.872 253.536 130.235 253.696C130.598 253.856 130.896 254.096 131.131 254.416C131.366 254.736 131.536 255.136 131.643 255.616L131.387 255.552L131.499 255.28C131.616 255.035 131.776 254.805 131.979 254.592C132.192 254.368 132.432 254.171 132.699 254C132.966 253.829 133.248 253.696 133.547 253.6C133.846 253.504 134.139 253.456 134.427 253.456C135.056 253.456 135.574 253.584 135.979 253.84C136.395 254.096 136.704 254.485 136.907 255.008C137.12 255.531 137.227 256.181 137.227 256.96V262H135.563V257.056C135.563 256.576 135.499 256.187 135.371 255.888C135.254 255.579 135.072 255.349 134.827 255.2C134.582 255.051 134.267 254.976 133.883 254.976C133.584 254.976 133.302 255.029 133.035 255.136C132.779 255.232 132.555 255.371 132.363 255.552C132.171 255.733 132.022 255.947 131.915 256.192C131.808 256.427 131.755 256.688 131.755 256.976V262H130.091V257.024C130.091 256.587 130.027 256.219 129.899 255.92C129.771 255.611 129.584 255.376 129.339 255.216C129.094 255.056 128.795 254.976 128.443 254.976C128.144 254.976 127.867 255.029 127.611 255.136C127.355 255.232 127.131 255.371 126.939 255.552C126.747 255.723 126.598 255.931 126.491 256.176C126.384 256.411 126.331 256.667 126.331 256.944V262H124.667ZM142.233 262.16C141.529 262.16 140.895 262.037 140.329 261.792C139.764 261.547 139.295 261.184 138.921 260.704L140.041 259.744C140.361 260.117 140.708 260.389 141.081 260.56C141.465 260.72 141.897 260.8 142.377 260.8C142.569 260.8 142.745 260.779 142.905 260.736C143.076 260.683 143.22 260.608 143.337 260.512C143.465 260.416 143.561 260.304 143.625 260.176C143.689 260.037 143.721 259.888 143.721 259.728C143.721 259.451 143.62 259.227 143.417 259.056C143.311 258.981 143.14 258.901 142.905 258.816C142.681 258.72 142.388 258.624 142.025 258.528C141.407 258.368 140.9 258.187 140.505 257.984C140.111 257.781 139.807 257.552 139.593 257.296C139.433 257.093 139.316 256.875 139.241 256.64C139.167 256.395 139.129 256.128 139.129 255.84C139.129 255.488 139.204 255.168 139.353 254.88C139.513 254.581 139.727 254.325 139.993 254.112C140.271 253.888 140.591 253.717 140.953 253.6C141.327 253.483 141.721 253.424 142.137 253.424C142.532 253.424 142.921 253.477 143.305 253.584C143.7 253.691 144.063 253.845 144.393 254.048C144.724 254.251 145.001 254.491 145.225 254.768L144.281 255.808C144.079 255.605 143.855 255.429 143.609 255.28C143.375 255.12 143.135 254.997 142.889 254.912C142.644 254.827 142.42 254.784 142.217 254.784C141.993 254.784 141.791 254.805 141.609 254.848C141.428 254.891 141.273 254.955 141.145 255.04C141.028 255.125 140.937 255.232 140.873 255.36C140.809 255.488 140.777 255.632 140.777 255.792C140.788 255.931 140.82 256.064 140.873 256.192C140.937 256.309 141.023 256.411 141.129 256.496C141.247 256.581 141.423 256.672 141.657 256.768C141.892 256.864 142.191 256.955 142.553 257.04C143.087 257.179 143.524 257.333 143.865 257.504C144.217 257.664 144.495 257.851 144.697 258.064C144.911 258.267 145.06 258.501 145.145 258.768C145.231 259.035 145.273 259.333 145.273 259.664C145.273 260.144 145.135 260.576 144.857 260.96C144.591 261.333 144.228 261.627 143.769 261.84C143.311 262.053 142.799 262.16 142.233 262.16Z" fill="#FAF9F6"/>
<path d="M97.2441 126.02L94.5665 99L60 131.741L60.852 132.593H92.6191L97.2441 126.02Z" fill="#D8F0FA"/>
<path d="M186.946 99H94.5664L97.2441 126.02L115.623 112.632L117.935 112.023L138.748 99.1217H140.817L160.9 111.293L164.308 112.267L184.391 126.264L186.946 99Z" fill="#C1E8F9"/>
<path d="M139.357 132.593H92.6191L97.2442 126.02L115.623 112.632L117.935 112.023L140.087 131.619L139.357 132.593Z" fill="#9AD3EE"/>
<path d="M140.939 132.593L140.209 131.619L160.9 111.293L164.308 112.267L184.391 126.264L189.381 132.593H140.939Z" fill="#B0E0F4"/>
<path d="M140.087 131.619L117.936 112.023L138.748 99.1217H140.818L160.9 111.293L140.209 131.619H140.087Z" fill="#DAF0FB"/>
<path d="M184.391 126.264L186.947 99L222 131.619L221.026 132.593H189.381L184.391 126.264Z" fill="#99D2ED"/>
<path d="M140.818 207.811L60.8525 132.593H92.9847L140.818 207.811Z" fill="#9BD5EB"/>
<path d="M140.817 207.811L92.9839 132.593H102.843L140.817 207.811Z" fill="#D7EFFB"/>
<path d="M140.818 207.811L102.843 132.593H140.818V207.811Z" fill="#C1E8F9"/>
<path d="M177.088 132.593L140.817 207.811V132.593H177.088Z" fill="#9AD3EE"/>
<path d="M189.016 132.593H177.088L140.817 207.811L189.016 132.593Z" fill="#83C9E2"/>
<path d="M221.026 132.593L140.817 207.811L189.016 132.593H221.026Z" fill="#6EB9D6"/>
<circle cx="80.2038" cy="125.29" r="2.43426" fill="#FEFFFF"/>
<circle cx="87.8728" cy="125.655" r="1.58227" fill="#FEFFFF"/>
<circle cx="102.6" cy="116.04" r="1.94741" fill="#FEFFFF"/>
</svg>
