<svg width="395" height="491" viewBox="0 0 395 491" fill="none" xmlns="http://www.w3.org/2000/svg">
<rect width="394.099" height="490.871" rx="20" fill="#202020" fill-opacity="0.5"/>
<path d="M43.08 76.68C43.72 73.7733 44.04 69.6 44.04 64.16C44.04 58.6933 43.92 54.6667 43.68 52.08C40.72 52.1333 38.8267 52.56 38 53.36C37.8133 53.7333 37.72 54.32 37.72 55.12C37.72 55.92 37.8533 56.4667 38.12 56.76L38.08 57.04C37.4133 57.44 36.7467 58 36.08 58.72C35.76 58.6933 35.5067 58.56 35.32 58.32C35.1067 58.08 35 57.8 35 57.48C35 56.2533 35.7067 54.8 37.12 53.12C38.5067 51.44 39.84 50.28 41.12 49.64C43.3867 49.8533 46.7467 49.96 51.2 49.96C58.48 49.96 62.12 53.4933 62.12 60.56C62.12 64.2667 61.1467 67.6267 59.2 70.64C57.2533 73.6533 54.6133 75.64 51.28 76.6C49.36 76.6 47.2133 76.0933 44.84 75.08C44.3867 75.7733 44.08 76.3733 43.92 76.88L43.08 76.68ZM50.56 51.84C49.3333 51.84 48.3067 51.9067 47.48 52.04C47.24 54.5467 47.12 58.0133 47.12 62.44C47.12 66.8667 47.1867 70.2533 47.32 72.6C48.76 73.3467 50.4 73.72 52.24 73.72C54.08 73.72 55.5067 73.2667 56.52 72.36C57.88 69.88 58.56 66.8133 58.56 63.16C58.56 59.5067 57.9867 56.7067 56.84 54.76C55.72 52.8133 53.6267 51.84 50.56 51.84ZM71.8047 56.48C71.5914 57.92 71.4847 60.8667 71.4847 65.32C71.4847 69.7733 71.6047 72.8933 71.8447 74.68C73.0447 74.8133 74.1514 75.0133 75.1647 75.28L75.0447 76.28C73.658 76.0933 72.098 76 70.3647 76C68.658 76 67.1247 76.1067 65.7647 76.32L65.6047 75.28C66.3514 75.04 67.1914 74.84 68.1247 74.68C68.3647 72.76 68.4847 70.04 68.4847 66.52V64.64C68.4847 61.12 68.3514 58.4 68.0847 56.48C67.1514 56.32 66.3114 56.12 65.5647 55.88L65.7247 54.84C67.0847 55.0533 68.618 55.16 70.3247 55.16C72.058 55.16 73.618 55.0667 75.0047 54.88L75.1247 55.88C74.1114 56.1467 73.0047 56.3467 71.8047 56.48ZM80.4684 54.72C82.9751 55.0133 85.5084 55.16 88.0684 55.16C90.6284 55.16 93.1484 55.0133 95.6284 54.72L95.7884 55.76C94.9884 56.08 94.1618 56.32 93.3084 56.48C93.0151 58.6667 92.8684 61.7067 92.8684 65.6C92.8684 69.4933 93.0151 72.5333 93.3084 74.72C93.8418 74.8 94.8284 75 96.2684 75.32L96.1084 76.32C94.8284 76.1067 93.1884 76 91.1884 76C89.1884 76 87.6551 76.1067 86.5884 76.32L86.4284 75.28C87.3351 74.9867 88.3618 74.7733 89.5084 74.64C89.6684 73.0933 89.7884 70.9467 89.8684 68.2C88.6151 68.0667 87.3618 68 86.1084 68C84.8551 68 83.7618 68.0667 82.8284 68.2C82.2951 70.3867 82.0284 71.9067 82.0284 72.76C82.0284 74.0667 82.4951 74.9867 83.4284 75.52L83.2684 76.2C82.6551 76.0667 81.4951 76 79.7884 76C78.0818 76 76.7351 76.1067 75.7484 76.32L75.5884 75.28C76.2284 75.04 77.1084 74.8267 78.2284 74.64L83.4284 56.4C82.2551 56.2133 81.2284 56 80.3484 55.76L80.4684 54.72ZM83.1484 66.32C84.1884 66.48 85.3351 66.56 86.5884 66.56C87.8684 66.56 88.9618 66.48 89.8684 66.32C89.8684 61.3867 89.7618 58.2 89.5484 56.76C88.6418 56.7067 87.9618 56.68 87.5084 56.68C87.0818 56.68 86.4151 56.7067 85.5084 56.76L83.1484 66.32ZM109.635 73.76C109.635 72.1067 109.221 69.64 108.395 66.36C107.568 63.0533 106.648 59.8533 105.635 56.76L105.475 56.8L104.475 64.24C104.048 67.3067 103.835 70.0667 103.835 72.52C103.835 74.0133 104.301 75.0133 105.235 75.52L105.075 76.2C104.275 76.0667 103.221 76 101.915 76C100.635 76 99.2214 76.1067 97.6747 76.32L97.5147 75.28C98.4214 74.9867 99.2747 74.7733 100.075 74.64L103.795 56.4C102.408 56.16 101.381 55.9467 100.715 55.76L100.835 54.72C102.755 55.0133 104.528 55.16 106.155 55.16C107.808 55.16 109.088 55.0667 109.995 54.88L110.075 55.56C109.355 55.7467 108.995 56.0533 108.995 56.48C108.995 57.0667 109.821 60.4533 111.475 66.64L112.355 69.64L112.635 69.56C112.635 68.8667 113.848 64.52 116.275 56.52C116.275 56.0667 115.915 55.7467 115.195 55.56L115.275 54.88C116.181 55.0667 117.461 55.16 119.115 55.16C120.795 55.16 122.581 55.0133 124.475 54.72L124.595 55.76C123.875 55.9467 122.955 56.1467 121.835 56.36C121.755 57 121.715 57.9467 121.715 59.2C121.715 60.4267 121.888 62.96 122.235 66.8C122.581 70.64 122.901 73.28 123.195 74.72C124.181 74.8533 125.195 75.04 126.235 75.28L126.115 76.28C124.728 76.0933 123.181 76 121.475 76C119.795 76 118.275 76.1067 116.915 76.32L116.755 75.28C117.635 75.0133 118.581 74.8133 119.595 74.68C119.515 68.3867 119.088 62.4533 118.315 56.88H118.195C115.448 64.9867 113.981 70.24 113.795 72.64C113.235 72.8267 112.581 73.1733 111.835 73.68C111.088 74.16 110.515 74.64 110.115 75.12L109.635 74.8V73.76ZM137.02 76.48C134.38 76.48 132.247 75.6533 130.62 74C128.993 72.32 128.18 70.08 128.18 67.28C128.18 64.48 129.033 61.8533 130.74 59.4C132.447 56.9467 134.673 55.3733 137.42 54.68C140.167 54.68 142.26 55.4667 143.7 57.04C145.14 58.5867 145.86 60.8 145.86 63.68C145.86 66.56 145.073 69.16 143.5 71.48C141.953 73.8 139.793 75.4667 137.02 76.48ZM136.34 57.12C135.14 57.12 134.1 57.4533 133.22 58.12C132.127 59.9867 131.58 62.3333 131.58 65.16C131.58 68.4133 132.487 70.9067 134.3 72.64C135.26 73.5733 136.393 74.04 137.7 74.04C139.007 74.04 140.06 73.6933 140.86 73C141.927 71.1333 142.46 68.8533 142.46 66.16C142.46 63.4667 141.98 61.2933 141.02 59.64C140.06 57.96 138.5 57.12 136.34 57.12ZM158.915 76.28C157.528 76.0933 155.968 76 154.235 76C152.528 76 150.995 76.1067 149.635 76.32L149.475 75.28C150.328 75.0133 151.128 74.8133 151.875 74.68C152.115 72.6 152.235 69.88 152.235 66.52V64.64C152.235 61.0667 152.101 58.32 151.835 56.4C151.115 56.32 150.248 56.1067 149.235 55.76L149.355 54.72C150.875 55.0133 152.461 55.16 154.115 55.16C155.795 55.16 156.995 55.0667 157.715 54.88L157.795 55.56C157.075 55.7467 156.715 56.0533 156.715 56.48C156.715 56.8 157.021 57.48 157.635 58.52C158.275 59.5333 158.888 60.52 159.475 61.48C161.235 64.28 163.315 67.72 165.715 71.8L165.835 71.72V66.84C165.835 63.2667 165.648 60.5867 165.275 58.8C164.901 56.9867 164.261 55.9333 163.355 55.64L163.435 54.96C164.128 55.0933 165.168 55.16 166.555 55.16C167.941 55.16 169.368 55.0133 170.835 54.72L170.955 55.76C169.861 56.1067 168.941 56.32 168.195 56.4C167.928 58.5333 167.795 61.28 167.795 64.64V66.52C167.795 70.5733 167.928 73.32 168.195 74.76C169.315 74.9467 170.208 75.16 170.875 75.4L170.755 76.44C169.421 76.1467 168.168 76 166.995 76C165.821 76 164.915 76.0533 164.275 76.16C164.275 75.5733 163.861 74.5867 163.035 73.2C162.235 71.8133 161.501 70.5867 160.835 69.52C158.675 66.0267 156.555 62.48 154.475 58.88L154.315 58.96V64.32C154.315 69.6267 154.715 73.08 155.515 74.68C156.715 74.8133 157.888 75.0133 159.035 75.28L158.915 76.28ZM173.917 55.24L183.117 54.96C186.157 54.96 188.49 55.68 190.117 57.12C191.77 58.56 192.597 60.72 192.597 63.6C192.597 66.4533 191.69 69.12 189.877 71.6C188.09 74.08 185.863 75.7067 183.197 76.48C182.503 76.48 181.597 76.3467 180.477 76.08C179.383 75.84 178.477 75.5733 177.757 75.28C177.463 75.6267 177.197 76.12 176.957 76.76L176.117 76.56C176.623 74.1867 176.877 70.84 176.877 66.52C176.877 62.1733 176.757 58.92 176.517 56.76C175.61 56.4133 174.743 56.24 173.917 56.24V55.24ZM187.677 59.24C187.197 58.3333 186.517 57.6267 185.637 57.12C184.783 56.6133 183.837 56.36 182.797 56.36C181.783 56.36 180.903 56.5067 180.157 56.8C179.97 58.5333 179.877 61.3067 179.877 65.12C179.877 68.9067 179.93 71.5333 180.037 73C181.37 73.6133 182.73 73.92 184.117 73.92C185.53 73.92 186.65 73.56 187.477 72.84C188.49 70.92 188.997 68.56 188.997 65.76C188.997 63.1467 188.557 60.9733 187.677 59.24Z" fill="#FAF9F6"/>
<path d="M40.3495 379.36V377.2H52.3735V379.36H40.3495ZM45.0775 383.992V372.4H47.5975V383.992H45.0775ZM59.6172 385.168C58.5132 385.168 57.5132 384.92 56.6172 384.424C55.7212 383.912 54.9772 383.184 54.3852 382.24L55.8252 380.632C56.5772 381.464 57.2332 382.032 57.7932 382.336C58.3532 382.64 58.9612 382.792 59.6172 382.792C60.2732 382.792 60.8652 382.648 61.3932 382.36C61.9212 382.072 62.3372 381.68 62.6412 381.184C62.9612 380.688 63.1212 380.136 63.1212 379.528C63.1212 378.888 62.9692 378.32 62.6652 377.824C62.3772 377.312 61.9852 376.912 61.4892 376.624C60.9932 376.32 60.4332 376.168 59.8092 376.168C59.5052 376.168 59.2172 376.192 58.9452 376.24C58.6732 376.272 58.3452 376.36 57.9612 376.504C57.5772 376.648 57.0732 376.872 56.4492 377.176L55.0812 375.328L56.0652 368.2H65.1372V370.6H57.6972L58.2012 370.144L57.4092 375.472L56.8092 374.776C56.9692 374.616 57.2412 374.464 57.6252 374.32C58.0092 374.16 58.4332 374.032 58.8972 373.936C59.3772 373.824 59.8332 373.768 60.2652 373.768C61.2892 373.768 62.2012 374.008 63.0012 374.488C63.8172 374.952 64.4572 375.6 64.9212 376.432C65.4012 377.264 65.6412 378.216 65.6412 379.288C65.6412 380.392 65.3772 381.392 64.8492 382.288C64.3212 383.168 63.6012 383.872 62.6892 384.4C61.7772 384.912 60.7532 385.168 59.6172 385.168ZM75.4964 385V372.4H77.9924V375.088L77.5364 375.376C77.6644 374.96 77.8644 374.56 78.1364 374.176C78.4244 373.792 78.7684 373.456 79.1684 373.168C79.5844 372.864 80.0244 372.624 80.4884 372.448C80.9684 372.272 81.4564 372.184 81.9524 372.184C82.6724 372.184 83.3044 372.304 83.8484 372.544C84.3924 372.784 84.8404 373.144 85.1924 373.624C85.5444 374.104 85.8004 374.704 85.9604 375.424L85.5764 375.328L85.7444 374.92C85.9204 374.552 86.1604 374.208 86.4644 373.888C86.7844 373.552 87.1444 373.256 87.5444 373C87.9444 372.744 88.3684 372.544 88.8164 372.4C89.2644 372.256 89.7044 372.184 90.1364 372.184C91.0804 372.184 91.8564 372.376 92.4644 372.76C93.0884 373.144 93.5524 373.728 93.8564 374.512C94.1764 375.296 94.3364 376.272 94.3364 377.44V385H91.8404V377.584C91.8404 376.864 91.7444 376.28 91.5524 375.832C91.3764 375.368 91.1044 375.024 90.7364 374.8C90.3684 374.576 89.8964 374.464 89.3204 374.464C88.8724 374.464 88.4484 374.544 88.0484 374.704C87.6644 374.848 87.3284 375.056 87.0404 375.328C86.7524 375.6 86.5284 375.92 86.3684 376.288C86.2084 376.64 86.1284 377.032 86.1284 377.464V385H83.6324V377.536C83.6324 376.88 83.5364 376.328 83.3444 375.88C83.1524 375.416 82.8724 375.064 82.5044 374.824C82.1364 374.584 81.6884 374.464 81.1604 374.464C80.7124 374.464 80.2964 374.544 79.9124 374.704C79.5284 374.848 79.1924 375.056 78.9044 375.328C78.6164 375.584 78.3924 375.896 78.2324 376.264C78.0724 376.616 77.9924 377 77.9924 377.416V385H75.4964ZM102.494 385.24C101.454 385.24 100.502 384.952 99.638 384.376C98.79 383.8 98.11 383.016 97.598 382.024C97.086 381.032 96.83 379.912 96.83 378.664C96.83 377.4 97.086 376.28 97.598 375.304C98.126 374.312 98.83 373.536 99.71 372.976C100.606 372.416 101.606 372.136 102.71 372.136C103.366 372.136 103.966 372.232 104.51 372.424C105.054 372.616 105.526 372.888 105.926 373.24C106.342 373.576 106.678 373.968 106.934 374.416C107.206 374.864 107.374 375.344 107.438 375.856L106.886 375.664V372.4H109.382V385H106.886V382L107.462 381.832C107.366 382.264 107.166 382.688 106.862 383.104C106.574 383.504 106.198 383.864 105.734 384.184C105.286 384.504 104.782 384.76 104.222 384.952C103.678 385.144 103.102 385.24 102.494 385.24ZM103.142 382.96C103.894 382.96 104.558 382.776 105.134 382.408C105.71 382.04 106.158 381.536 106.478 380.896C106.814 380.24 106.982 379.496 106.982 378.664C106.982 377.848 106.814 377.12 106.478 376.48C106.158 375.84 105.71 375.336 105.134 374.968C104.558 374.6 103.894 374.416 103.142 374.416C102.406 374.416 101.75 374.6 101.174 374.968C100.614 375.336 100.166 375.84 99.83 376.48C99.51 377.12 99.35 377.848 99.35 378.664C99.35 379.496 99.51 380.24 99.83 380.896C100.166 381.536 100.614 382.04 101.174 382.408C101.75 382.776 102.406 382.96 103.142 382.96ZM118.473 390.52C117.577 390.52 116.681 390.376 115.785 390.088C114.905 389.816 114.193 389.456 113.649 389.008L114.561 387.088C114.881 387.328 115.257 387.536 115.689 387.712C116.121 387.904 116.577 388.048 117.057 388.144C117.537 388.256 118.009 388.312 118.473 388.312C119.353 388.312 120.089 388.168 120.681 387.88C121.273 387.592 121.721 387.168 122.025 386.608C122.329 386.048 122.481 385.352 122.481 384.52V382.096L122.745 382.264C122.665 382.76 122.401 383.24 121.953 383.704C121.521 384.152 120.977 384.52 120.321 384.808C119.665 385.096 118.993 385.24 118.305 385.24C117.105 385.24 116.033 384.96 115.089 384.4C114.161 383.824 113.425 383.048 112.881 382.072C112.337 381.08 112.065 379.952 112.065 378.688C112.065 377.424 112.329 376.304 112.857 375.328C113.401 374.336 114.137 373.56 115.065 373C116.009 372.424 117.065 372.136 118.233 372.136C118.713 372.136 119.177 372.2 119.625 372.328C120.073 372.44 120.489 372.608 120.873 372.832C121.257 373.04 121.601 373.272 121.905 373.528C122.209 373.784 122.457 374.056 122.649 374.344C122.841 374.632 122.961 374.904 123.009 375.16L122.481 375.352V372.4H124.953V384.232C124.953 385.24 124.801 386.128 124.497 386.896C124.209 387.68 123.785 388.336 123.225 388.864C122.665 389.408 121.985 389.816 121.185 390.088C120.385 390.376 119.481 390.52 118.473 390.52ZM118.569 382.96C119.353 382.96 120.049 382.776 120.657 382.408C121.265 382.04 121.737 381.536 122.073 380.896C122.409 380.256 122.577 379.52 122.577 378.688C122.577 377.856 122.401 377.12 122.049 376.48C121.713 375.824 121.241 375.312 120.633 374.944C120.041 374.576 119.353 374.392 118.569 374.392C117.801 374.392 117.113 374.584 116.505 374.968C115.913 375.336 115.441 375.848 115.089 376.504C114.753 377.144 114.585 377.872 114.585 378.688C114.585 379.504 114.753 380.24 115.089 380.896C115.441 381.536 115.913 382.04 116.505 382.408C117.113 382.776 117.801 382.96 118.569 382.96ZM128.827 385V372.4H131.299V385H128.827ZM130.027 369.616C129.499 369.616 129.091 369.48 128.803 369.208C128.515 368.936 128.371 368.552 128.371 368.056C128.371 367.592 128.515 367.216 128.803 366.928C129.107 366.64 129.515 366.496 130.027 366.496C130.555 366.496 130.963 366.632 131.251 366.904C131.539 367.176 131.683 367.56 131.683 368.056C131.683 368.52 131.531 368.896 131.227 369.184C130.939 369.472 130.539 369.616 130.027 369.616ZM140.451 385.24C139.283 385.24 138.235 384.952 137.307 384.376C136.395 383.8 135.667 383.016 135.123 382.024C134.595 381.032 134.331 379.92 134.331 378.688C134.331 377.456 134.595 376.344 135.123 375.352C135.667 374.36 136.395 373.576 137.307 373C138.235 372.424 139.283 372.136 140.451 372.136C141.571 372.136 142.587 372.368 143.499 372.832C144.427 373.28 145.131 373.896 145.611 374.68L144.243 376.36C143.987 375.992 143.659 375.656 143.259 375.352C142.859 375.048 142.435 374.808 141.987 374.632C141.539 374.456 141.107 374.368 140.691 374.368C139.923 374.368 139.235 374.56 138.627 374.944C138.035 375.312 137.563 375.824 137.211 376.48C136.859 377.136 136.683 377.872 136.683 378.688C136.683 379.504 136.867 380.24 137.235 380.896C137.603 381.536 138.091 382.048 138.699 382.432C139.307 382.816 139.979 383.008 140.715 383.008C141.147 383.008 141.563 382.936 141.963 382.792C142.379 382.648 142.779 382.432 143.163 382.144C143.547 381.856 143.907 381.504 144.243 381.088L145.611 382.768C145.099 383.488 144.363 384.08 143.403 384.544C142.459 385.008 141.475 385.24 140.451 385.24ZM160.309 390.52C159.413 390.52 158.517 390.376 157.621 390.088C156.741 389.816 156.029 389.456 155.485 389.008L156.397 387.088C156.717 387.328 157.093 387.536 157.525 387.712C157.957 387.904 158.413 388.048 158.893 388.144C159.373 388.256 159.845 388.312 160.309 388.312C161.189 388.312 161.925 388.168 162.517 387.88C163.109 387.592 163.557 387.168 163.861 386.608C164.165 386.048 164.317 385.352 164.317 384.52V382.096L164.581 382.264C164.501 382.76 164.237 383.24 163.789 383.704C163.357 384.152 162.813 384.52 162.157 384.808C161.501 385.096 160.829 385.24 160.141 385.24C158.941 385.24 157.869 384.96 156.925 384.4C155.997 383.824 155.261 383.048 154.717 382.072C154.173 381.08 153.901 379.952 153.901 378.688C153.901 377.424 154.165 376.304 154.693 375.328C155.237 374.336 155.973 373.56 156.901 373C157.845 372.424 158.901 372.136 160.069 372.136C160.549 372.136 161.013 372.2 161.461 372.328C161.909 372.44 162.325 372.608 162.709 372.832C163.093 373.04 163.437 373.272 163.741 373.528C164.045 373.784 164.293 374.056 164.485 374.344C164.677 374.632 164.797 374.904 164.845 375.16L164.317 375.352V372.4H166.789V384.232C166.789 385.24 166.637 386.128 166.333 386.896C166.045 387.68 165.621 388.336 165.061 388.864C164.501 389.408 163.821 389.816 163.021 390.088C162.221 390.376 161.317 390.52 160.309 390.52ZM160.405 382.96C161.189 382.96 161.885 382.776 162.493 382.408C163.101 382.04 163.573 381.536 163.909 380.896C164.245 380.256 164.413 379.52 164.413 378.688C164.413 377.856 164.237 377.12 163.885 376.48C163.549 375.824 163.077 375.312 162.469 374.944C161.877 374.576 161.189 374.392 160.405 374.392C159.637 374.392 158.949 374.584 158.341 374.968C157.749 375.336 157.277 375.848 156.925 376.504C156.589 377.144 156.421 377.872 156.421 378.688C156.421 379.504 156.589 380.24 156.925 380.896C157.277 381.536 157.749 382.04 158.341 382.408C158.949 382.776 159.637 382.96 160.405 382.96ZM176.135 385.24C174.839 385.24 173.687 384.968 172.679 384.424C171.687 383.864 170.903 383.104 170.327 382.144C169.767 381.184 169.487 380.08 169.487 378.832C169.487 377.84 169.647 376.936 169.967 376.12C170.287 375.304 170.727 374.6 171.287 374.008C171.863 373.4 172.543 372.936 173.327 372.616C174.127 372.28 174.991 372.112 175.919 372.112C176.735 372.112 177.495 372.272 178.199 372.592C178.903 372.896 179.511 373.32 180.023 373.864C180.551 374.408 180.951 375.056 181.223 375.808C181.511 376.544 181.647 377.352 181.631 378.232L181.607 379.288H171.311L170.759 377.32H179.471L179.111 377.728V377.152C179.063 376.624 178.887 376.152 178.583 375.736C178.279 375.32 177.895 374.992 177.431 374.752C176.967 374.512 176.463 374.392 175.919 374.392C175.055 374.392 174.327 374.56 173.735 374.896C173.143 375.216 172.695 375.696 172.391 376.336C172.087 376.96 171.935 377.736 171.935 378.664C171.935 379.544 172.119 380.312 172.487 380.968C172.855 381.608 173.375 382.104 174.047 382.456C174.719 382.808 175.495 382.984 176.375 382.984C176.999 382.984 177.575 382.88 178.103 382.672C178.647 382.464 179.231 382.088 179.855 381.544L181.103 383.296C180.719 383.68 180.247 384.016 179.687 384.304C179.143 384.592 178.559 384.824 177.935 385C177.327 385.16 176.727 385.24 176.135 385.24ZM184.27 385V372.4H186.766V375.088L186.31 375.376C186.438 374.96 186.638 374.56 186.91 374.176C187.198 373.792 187.542 373.456 187.942 373.168C188.358 372.864 188.798 372.624 189.262 372.448C189.742 372.272 190.23 372.184 190.726 372.184C191.446 372.184 192.078 372.304 192.622 372.544C193.166 372.784 193.614 373.144 193.966 373.624C194.318 374.104 194.574 374.704 194.734 375.424L194.35 375.328L194.518 374.92C194.694 374.552 194.934 374.208 195.238 373.888C195.558 373.552 195.918 373.256 196.318 373C196.718 372.744 197.142 372.544 197.59 372.4C198.038 372.256 198.478 372.184 198.91 372.184C199.854 372.184 200.63 372.376 201.238 372.76C201.862 373.144 202.326 373.728 202.63 374.512C202.95 375.296 203.11 376.272 203.11 377.44V385H200.614V377.584C200.614 376.864 200.518 376.28 200.326 375.832C200.15 375.368 199.878 375.024 199.51 374.8C199.142 374.576 198.67 374.464 198.094 374.464C197.646 374.464 197.222 374.544 196.822 374.704C196.438 374.848 196.102 375.056 195.814 375.328C195.526 375.6 195.302 375.92 195.142 376.288C194.982 376.64 194.902 377.032 194.902 377.464V385H192.406V377.536C192.406 376.88 192.31 376.328 192.118 375.88C191.926 375.416 191.646 375.064 191.278 374.824C190.91 374.584 190.462 374.464 189.934 374.464C189.486 374.464 189.07 374.544 188.686 374.704C188.302 374.848 187.966 375.056 187.678 375.328C187.39 375.584 187.166 375.896 187.006 376.264C186.846 376.616 186.766 377 186.766 377.416V385H184.27ZM210.619 385.24C209.563 385.24 208.611 385.056 207.763 384.688C206.915 384.32 206.211 383.776 205.651 383.056L207.331 381.616C207.811 382.176 208.331 382.584 208.891 382.84C209.467 383.08 210.115 383.2 210.835 383.2C211.123 383.2 211.387 383.168 211.627 383.104C211.883 383.024 212.099 382.912 212.275 382.768C212.467 382.624 212.611 382.456 212.707 382.264C212.803 382.056 212.851 381.832 212.851 381.592C212.851 381.176 212.699 380.84 212.395 380.584C212.235 380.472 211.979 380.352 211.627 380.224C211.291 380.08 210.851 379.936 210.307 379.792C209.379 379.552 208.619 379.28 208.027 378.976C207.435 378.672 206.979 378.328 206.659 377.944C206.419 377.64 206.243 377.312 206.131 376.96C206.019 376.592 205.963 376.192 205.963 375.76C205.963 375.232 206.075 374.752 206.299 374.32C206.539 373.872 206.859 373.488 207.259 373.168C207.675 372.832 208.155 372.576 208.699 372.4C209.259 372.224 209.851 372.136 210.475 372.136C211.067 372.136 211.651 372.216 212.227 372.376C212.819 372.536 213.363 372.768 213.859 373.072C214.355 373.376 214.771 373.736 215.107 374.152L213.691 375.712C213.387 375.408 213.051 375.144 212.683 374.92C212.331 374.68 211.971 374.496 211.603 374.368C211.235 374.24 210.899 374.176 210.595 374.176C210.259 374.176 209.955 374.208 209.683 374.272C209.411 374.336 209.179 374.432 208.987 374.56C208.811 374.688 208.675 374.848 208.579 375.04C208.483 375.232 208.435 375.448 208.435 375.688C208.451 375.896 208.499 376.096 208.579 376.288C208.675 376.464 208.803 376.616 208.963 376.744C209.139 376.872 209.403 377.008 209.755 377.152C210.107 377.296 210.555 377.432 211.099 377.56C211.899 377.768 212.555 378 213.067 378.256C213.595 378.496 214.011 378.776 214.315 379.096C214.635 379.4 214.859 379.752 214.987 380.152C215.115 380.552 215.179 381 215.179 381.496C215.179 382.216 214.971 382.864 214.555 383.44C214.155 384 213.611 384.44 212.923 384.76C212.235 385.08 211.467 385.24 210.619 385.24Z" fill="#FAF9F6"/>
<path d="M119.752 183.702L115.025 136L54 193.802L55.5041 195.306H111.587L119.752 183.702Z" fill="#D8F0FA"/>
<path d="M278.116 136H115.025L119.752 183.702L152.198 160.066L156.281 158.992L193.025 136.215H196.678L232.132 157.702L238.149 159.421L273.603 184.132L278.116 136Z" fill="#C1E8F9"/>
<path d="M194.099 195.306H111.587L119.752 183.702L152.198 160.066L156.281 158.992L195.389 193.587L194.099 195.306Z" fill="#9AD3EE"/>
<path d="M196.893 195.306L195.604 193.587L232.132 157.702L238.149 159.421L273.604 184.132L282.413 195.306H196.893Z" fill="#B0E0F4"/>
<path d="M195.389 193.586L156.281 158.991L193.025 136.215H196.678L232.132 157.702L195.604 193.586H195.389Z" fill="#DAF0FB"/>
<path d="M273.604 184.132L278.116 136L340 193.587L338.281 195.306H282.413L273.604 184.132Z" fill="#99D2ED"/>
<path d="M196.678 328.099L55.5049 195.306H112.232L196.678 328.099Z" fill="#9BD5EB"/>
<path d="M196.677 328.099L112.231 195.306H129.636L196.677 328.099Z" fill="#D7EFFB"/>
<path d="M196.678 328.099L129.637 195.306H196.678V328.099Z" fill="#C1E8F9"/>
<path d="M260.711 195.306L196.678 328.099V195.306H260.711Z" fill="#9AD3EE"/>
<path d="M281.769 195.306H260.711L196.678 328.099L281.769 195.306Z" fill="#83C9E2"/>
<path d="M338.281 195.306L196.678 328.099L281.769 195.306H338.281Z" fill="#6EB9D6"/>
<circle cx="89.6686" cy="182.413" r="4.29752" fill="#FEFFFF"/>
<circle cx="103.207" cy="183.058" r="2.79339" fill="#FEFFFF"/>
<circle cx="129.207" cy="166.083" r="3.43802" fill="#FEFFFF"/>
</svg>
