<svg width="395" height="491" viewBox="0 0 395 491" fill="none" xmlns="http://www.w3.org/2000/svg">
<rect width="394.099" height="490.871" rx="20" fill="#202020" fill-opacity="0.5"/>
<path d="M43.08 76.68C43.72 73.7733 44.04 69.6 44.04 64.16C44.04 58.6933 43.92 54.6667 43.68 52.08C40.72 52.1333 38.8267 52.56 38 53.36C37.8133 53.7333 37.72 54.32 37.72 55.12C37.72 55.92 37.8533 56.4667 38.12 56.76L38.08 57.04C37.4133 57.44 36.7467 58 36.08 58.72C35.76 58.6933 35.5067 58.56 35.32 58.32C35.1067 58.08 35 57.8 35 57.48C35 56.2533 35.7067 54.8 37.12 53.12C38.5067 51.44 39.84 50.28 41.12 49.64C43.3867 49.8533 46.7467 49.96 51.2 49.96C58.48 49.96 62.12 53.4933 62.12 60.56C62.12 64.2667 61.1467 67.6267 59.2 70.64C57.2533 73.6533 54.6133 75.64 51.28 76.6C49.36 76.6 47.2133 76.0933 44.84 75.08C44.3867 75.7733 44.08 76.3733 43.92 76.88L43.08 76.68ZM50.56 51.84C49.3333 51.84 48.3067 51.9067 47.48 52.04C47.24 54.5467 47.12 58.0133 47.12 62.44C47.12 66.8667 47.1867 70.2533 47.32 72.6C48.76 73.3467 50.4 73.72 52.24 73.72C54.08 73.72 55.5067 73.2667 56.52 72.36C57.88 69.88 58.56 66.8133 58.56 63.16C58.56 59.5067 57.9867 56.7067 56.84 54.76C55.72 52.8133 53.6267 51.84 50.56 51.84ZM71.8047 56.48C71.5914 57.92 71.4847 60.8667 71.4847 65.32C71.4847 69.7733 71.6047 72.8933 71.8447 74.68C73.0447 74.8133 74.1514 75.0133 75.1647 75.28L75.0447 76.28C73.658 76.0933 72.098 76 70.3647 76C68.658 76 67.1247 76.1067 65.7647 76.32L65.6047 75.28C66.3514 75.04 67.1914 74.84 68.1247 74.68C68.3647 72.76 68.4847 70.04 68.4847 66.52V64.64C68.4847 61.12 68.3514 58.4 68.0847 56.48C67.1514 56.32 66.3114 56.12 65.5647 55.88L65.7247 54.84C67.0847 55.0533 68.618 55.16 70.3247 55.16C72.058 55.16 73.618 55.0667 75.0047 54.88L75.1247 55.88C74.1114 56.1467 73.0047 56.3467 71.8047 56.48ZM80.4684 54.72C82.9751 55.0133 85.5084 55.16 88.0684 55.16C90.6284 55.16 93.1484 55.0133 95.6284 54.72L95.7884 55.76C94.9884 56.08 94.1618 56.32 93.3084 56.48C93.0151 58.6667 92.8684 61.7067 92.8684 65.6C92.8684 69.4933 93.0151 72.5333 93.3084 74.72C93.8418 74.8 94.8284 75 96.2684 75.32L96.1084 76.32C94.8284 76.1067 93.1884 76 91.1884 76C89.1884 76 87.6551 76.1067 86.5884 76.32L86.4284 75.28C87.3351 74.9867 88.3618 74.7733 89.5084 74.64C89.6684 73.0933 89.7884 70.9467 89.8684 68.2C88.6151 68.0667 87.3618 68 86.1084 68C84.8551 68 83.7618 68.0667 82.8284 68.2C82.2951 70.3867 82.0284 71.9067 82.0284 72.76C82.0284 74.0667 82.4951 74.9867 83.4284 75.52L83.2684 76.2C82.6551 76.0667 81.4951 76 79.7884 76C78.0818 76 76.7351 76.1067 75.7484 76.32L75.5884 75.28C76.2284 75.04 77.1084 74.8267 78.2284 74.64L83.4284 56.4C82.2551 56.2133 81.2284 56 80.3484 55.76L80.4684 54.72ZM83.1484 66.32C84.1884 66.48 85.3351 66.56 86.5884 66.56C87.8684 66.56 88.9618 66.48 89.8684 66.32C89.8684 61.3867 89.7618 58.2 89.5484 56.76C88.6418 56.7067 87.9618 56.68 87.5084 56.68C87.0818 56.68 86.4151 56.7067 85.5084 56.76L83.1484 66.32ZM109.635 73.76C109.635 72.1067 109.221 69.64 108.395 66.36C107.568 63.0533 106.648 59.8533 105.635 56.76L105.475 56.8L104.475 64.24C104.048 67.3067 103.835 70.0667 103.835 72.52C103.835 74.0133 104.301 75.0133 105.235 75.52L105.075 76.2C104.275 76.0667 103.221 76 101.915 76C100.635 76 99.2214 76.1067 97.6747 76.32L97.5147 75.28C98.4214 74.9867 99.2747 74.7733 100.075 74.64L103.795 56.4C102.408 56.16 101.381 55.9467 100.715 55.76L100.835 54.72C102.755 55.0133 104.528 55.16 106.155 55.16C107.808 55.16 109.088 55.0667 109.995 54.88L110.075 55.56C109.355 55.7467 108.995 56.0533 108.995 56.48C108.995 57.0667 109.821 60.4533 111.475 66.64L112.355 69.64L112.635 69.56C112.635 68.8667 113.848 64.52 116.275 56.52C116.275 56.0667 115.915 55.7467 115.195 55.56L115.275 54.88C116.181 55.0667 117.461 55.16 119.115 55.16C120.795 55.16 122.581 55.0133 124.475 54.72L124.595 55.76C123.875 55.9467 122.955 56.1467 121.835 56.36C121.755 57 121.715 57.9467 121.715 59.2C121.715 60.4267 121.888 62.96 122.235 66.8C122.581 70.64 122.901 73.28 123.195 74.72C124.181 74.8533 125.195 75.04 126.235 75.28L126.115 76.28C124.728 76.0933 123.181 76 121.475 76C119.795 76 118.275 76.1067 116.915 76.32L116.755 75.28C117.635 75.0133 118.581 74.8133 119.595 74.68C119.515 68.3867 119.088 62.4533 118.315 56.88H118.195C115.448 64.9867 113.981 70.24 113.795 72.64C113.235 72.8267 112.581 73.1733 111.835 73.68C111.088 74.16 110.515 74.64 110.115 75.12L109.635 74.8V73.76ZM137.02 76.48C134.38 76.48 132.247 75.6533 130.62 74C128.993 72.32 128.18 70.08 128.18 67.28C128.18 64.48 129.033 61.8533 130.74 59.4C132.447 56.9467 134.673 55.3733 137.42 54.68C140.167 54.68 142.26 55.4667 143.7 57.04C145.14 58.5867 145.86 60.8 145.86 63.68C145.86 66.56 145.073 69.16 143.5 71.48C141.953 73.8 139.793 75.4667 137.02 76.48ZM136.34 57.12C135.14 57.12 134.1 57.4533 133.22 58.12C132.127 59.9867 131.58 62.3333 131.58 65.16C131.58 68.4133 132.487 70.9067 134.3 72.64C135.26 73.5733 136.393 74.04 137.7 74.04C139.007 74.04 140.06 73.6933 140.86 73C141.927 71.1333 142.46 68.8533 142.46 66.16C142.46 63.4667 141.98 61.2933 141.02 59.64C140.06 57.96 138.5 57.12 136.34 57.12ZM158.915 76.28C157.528 76.0933 155.968 76 154.235 76C152.528 76 150.995 76.1067 149.635 76.32L149.475 75.28C150.328 75.0133 151.128 74.8133 151.875 74.68C152.115 72.6 152.235 69.88 152.235 66.52V64.64C152.235 61.0667 152.101 58.32 151.835 56.4C151.115 56.32 150.248 56.1067 149.235 55.76L149.355 54.72C150.875 55.0133 152.461 55.16 154.115 55.16C155.795 55.16 156.995 55.0667 157.715 54.88L157.795 55.56C157.075 55.7467 156.715 56.0533 156.715 56.48C156.715 56.8 157.021 57.48 157.635 58.52C158.275 59.5333 158.888 60.52 159.475 61.48C161.235 64.28 163.315 67.72 165.715 71.8L165.835 71.72V66.84C165.835 63.2667 165.648 60.5867 165.275 58.8C164.901 56.9867 164.261 55.9333 163.355 55.64L163.435 54.96C164.128 55.0933 165.168 55.16 166.555 55.16C167.941 55.16 169.368 55.0133 170.835 54.72L170.955 55.76C169.861 56.1067 168.941 56.32 168.195 56.4C167.928 58.5333 167.795 61.28 167.795 64.64V66.52C167.795 70.5733 167.928 73.32 168.195 74.76C169.315 74.9467 170.208 75.16 170.875 75.4L170.755 76.44C169.421 76.1467 168.168 76 166.995 76C165.821 76 164.915 76.0533 164.275 76.16C164.275 75.5733 163.861 74.5867 163.035 73.2C162.235 71.8133 161.501 70.5867 160.835 69.52C158.675 66.0267 156.555 62.48 154.475 58.88L154.315 58.96V64.32C154.315 69.6267 154.715 73.08 155.515 74.68C156.715 74.8133 157.888 75.0133 159.035 75.28L158.915 76.28ZM173.917 55.24L183.117 54.96C186.157 54.96 188.49 55.68 190.117 57.12C191.77 58.56 192.597 60.72 192.597 63.6C192.597 66.4533 191.69 69.12 189.877 71.6C188.09 74.08 185.863 75.7067 183.197 76.48C182.503 76.48 181.597 76.3467 180.477 76.08C179.383 75.84 178.477 75.5733 177.757 75.28C177.463 75.6267 177.197 76.12 176.957 76.76L176.117 76.56C176.623 74.1867 176.877 70.84 176.877 66.52C176.877 62.1733 176.757 58.92 176.517 56.76C175.61 56.4133 174.743 56.24 173.917 56.24V55.24ZM187.677 59.24C187.197 58.3333 186.517 57.6267 185.637 57.12C184.783 56.6133 183.837 56.36 182.797 56.36C181.783 56.36 180.903 56.5067 180.157 56.8C179.97 58.5333 179.877 61.3067 179.877 65.12C179.877 68.9067 179.93 71.5333 180.037 73C181.37 73.6133 182.73 73.92 184.117 73.92C185.53 73.92 186.65 73.56 187.477 72.84C188.49 70.92 188.997 68.56 188.997 65.76C188.997 63.1467 188.557 60.9733 187.677 59.24Z" fill="#FAF9F6"/>
<path d="M40.3495 374.36V372.2H52.3735V374.36H40.3495ZM45.0775 378.992V367.4H47.5975V378.992H45.0775ZM59.6172 380.168C58.5132 380.168 57.5132 379.92 56.6172 379.424C55.7212 378.912 54.9772 378.184 54.3852 377.24L55.8252 375.632C56.5772 376.464 57.2332 377.032 57.7932 377.336C58.3532 377.64 58.9612 377.792 59.6172 377.792C60.2732 377.792 60.8652 377.648 61.3932 377.36C61.9212 377.072 62.3372 376.68 62.6412 376.184C62.9612 375.688 63.1212 375.136 63.1212 374.528C63.1212 373.888 62.9692 373.32 62.6652 372.824C62.3772 372.312 61.9852 371.912 61.4892 371.624C60.9932 371.32 60.4332 371.168 59.8092 371.168C59.5052 371.168 59.2172 371.192 58.9452 371.24C58.6732 371.272 58.3452 371.36 57.9612 371.504C57.5772 371.648 57.0732 371.872 56.4492 372.176L55.0812 370.328L56.0652 363.2H65.1372V365.6H57.6972L58.2012 365.144L57.4092 370.472L56.8092 369.776C56.9692 369.616 57.2412 369.464 57.6252 369.32C58.0092 369.16 58.4332 369.032 58.8972 368.936C59.3772 368.824 59.8332 368.768 60.2652 368.768C61.2892 368.768 62.2012 369.008 63.0012 369.488C63.8172 369.952 64.4572 370.6 64.9212 371.432C65.4012 372.264 65.6412 373.216 65.6412 374.288C65.6412 375.392 65.3772 376.392 64.8492 377.288C64.3212 378.168 63.6012 378.872 62.6892 379.4C61.7772 379.912 60.7532 380.168 59.6172 380.168ZM75.4964 380V367.4H77.9924V370.088L77.5364 370.376C77.6644 369.96 77.8644 369.56 78.1364 369.176C78.4244 368.792 78.7684 368.456 79.1684 368.168C79.5844 367.864 80.0244 367.624 80.4884 367.448C80.9684 367.272 81.4564 367.184 81.9524 367.184C82.6724 367.184 83.3044 367.304 83.8484 367.544C84.3924 367.784 84.8404 368.144 85.1924 368.624C85.5444 369.104 85.8004 369.704 85.9604 370.424L85.5764 370.328L85.7444 369.92C85.9204 369.552 86.1604 369.208 86.4644 368.888C86.7844 368.552 87.1444 368.256 87.5444 368C87.9444 367.744 88.3684 367.544 88.8164 367.4C89.2644 367.256 89.7044 367.184 90.1364 367.184C91.0804 367.184 91.8564 367.376 92.4644 367.76C93.0884 368.144 93.5524 368.728 93.8564 369.512C94.1764 370.296 94.3364 371.272 94.3364 372.44V380H91.8404V372.584C91.8404 371.864 91.7444 371.28 91.5524 370.832C91.3764 370.368 91.1044 370.024 90.7364 369.8C90.3684 369.576 89.8964 369.464 89.3204 369.464C88.8724 369.464 88.4484 369.544 88.0484 369.704C87.6644 369.848 87.3284 370.056 87.0404 370.328C86.7524 370.6 86.5284 370.92 86.3684 371.288C86.2084 371.64 86.1284 372.032 86.1284 372.464V380H83.6324V372.536C83.6324 371.88 83.5364 371.328 83.3444 370.88C83.1524 370.416 82.8724 370.064 82.5044 369.824C82.1364 369.584 81.6884 369.464 81.1604 369.464C80.7124 369.464 80.2964 369.544 79.9124 369.704C79.5284 369.848 79.1924 370.056 78.9044 370.328C78.6164 370.584 78.3924 370.896 78.2324 371.264C78.0724 371.616 77.9924 372 77.9924 372.416V380H75.4964ZM102.494 380.24C101.454 380.24 100.502 379.952 99.638 379.376C98.79 378.8 98.11 378.016 97.598 377.024C97.086 376.032 96.83 374.912 96.83 373.664C96.83 372.4 97.086 371.28 97.598 370.304C98.126 369.312 98.83 368.536 99.71 367.976C100.606 367.416 101.606 367.136 102.71 367.136C103.366 367.136 103.966 367.232 104.51 367.424C105.054 367.616 105.526 367.888 105.926 368.24C106.342 368.576 106.678 368.968 106.934 369.416C107.206 369.864 107.374 370.344 107.438 370.856L106.886 370.664V367.4H109.382V380H106.886V377L107.462 376.832C107.366 377.264 107.166 377.688 106.862 378.104C106.574 378.504 106.198 378.864 105.734 379.184C105.286 379.504 104.782 379.76 104.222 379.952C103.678 380.144 103.102 380.24 102.494 380.24ZM103.142 377.96C103.894 377.96 104.558 377.776 105.134 377.408C105.71 377.04 106.158 376.536 106.478 375.896C106.814 375.24 106.982 374.496 106.982 373.664C106.982 372.848 106.814 372.12 106.478 371.48C106.158 370.84 105.71 370.336 105.134 369.968C104.558 369.6 103.894 369.416 103.142 369.416C102.406 369.416 101.75 369.6 101.174 369.968C100.614 370.336 100.166 370.84 99.83 371.48C99.51 372.12 99.35 372.848 99.35 373.664C99.35 374.496 99.51 375.24 99.83 375.896C100.166 376.536 100.614 377.04 101.174 377.408C101.75 377.776 102.406 377.96 103.142 377.96ZM118.473 385.52C117.577 385.52 116.681 385.376 115.785 385.088C114.905 384.816 114.193 384.456 113.649 384.008L114.561 382.088C114.881 382.328 115.257 382.536 115.689 382.712C116.121 382.904 116.577 383.048 117.057 383.144C117.537 383.256 118.009 383.312 118.473 383.312C119.353 383.312 120.089 383.168 120.681 382.88C121.273 382.592 121.721 382.168 122.025 381.608C122.329 381.048 122.481 380.352 122.481 379.52V377.096L122.745 377.264C122.665 377.76 122.401 378.24 121.953 378.704C121.521 379.152 120.977 379.52 120.321 379.808C119.665 380.096 118.993 380.24 118.305 380.24C117.105 380.24 116.033 379.96 115.089 379.4C114.161 378.824 113.425 378.048 112.881 377.072C112.337 376.08 112.065 374.952 112.065 373.688C112.065 372.424 112.329 371.304 112.857 370.328C113.401 369.336 114.137 368.56 115.065 368C116.009 367.424 117.065 367.136 118.233 367.136C118.713 367.136 119.177 367.2 119.625 367.328C120.073 367.44 120.489 367.608 120.873 367.832C121.257 368.04 121.601 368.272 121.905 368.528C122.209 368.784 122.457 369.056 122.649 369.344C122.841 369.632 122.961 369.904 123.009 370.16L122.481 370.352V367.4H124.953V379.232C124.953 380.24 124.801 381.128 124.497 381.896C124.209 382.68 123.785 383.336 123.225 383.864C122.665 384.408 121.985 384.816 121.185 385.088C120.385 385.376 119.481 385.52 118.473 385.52ZM118.569 377.96C119.353 377.96 120.049 377.776 120.657 377.408C121.265 377.04 121.737 376.536 122.073 375.896C122.409 375.256 122.577 374.52 122.577 373.688C122.577 372.856 122.401 372.12 122.049 371.48C121.713 370.824 121.241 370.312 120.633 369.944C120.041 369.576 119.353 369.392 118.569 369.392C117.801 369.392 117.113 369.584 116.505 369.968C115.913 370.336 115.441 370.848 115.089 371.504C114.753 372.144 114.585 372.872 114.585 373.688C114.585 374.504 114.753 375.24 115.089 375.896C115.441 376.536 115.913 377.04 116.505 377.408C117.113 377.776 117.801 377.96 118.569 377.96ZM128.827 380V367.4H131.299V380H128.827ZM130.027 364.616C129.499 364.616 129.091 364.48 128.803 364.208C128.515 363.936 128.371 363.552 128.371 363.056C128.371 362.592 128.515 362.216 128.803 361.928C129.107 361.64 129.515 361.496 130.027 361.496C130.555 361.496 130.963 361.632 131.251 361.904C131.539 362.176 131.683 362.56 131.683 363.056C131.683 363.52 131.531 363.896 131.227 364.184C130.939 364.472 130.539 364.616 130.027 364.616ZM140.451 380.24C139.283 380.24 138.235 379.952 137.307 379.376C136.395 378.8 135.667 378.016 135.123 377.024C134.595 376.032 134.331 374.92 134.331 373.688C134.331 372.456 134.595 371.344 135.123 370.352C135.667 369.36 136.395 368.576 137.307 368C138.235 367.424 139.283 367.136 140.451 367.136C141.571 367.136 142.587 367.368 143.499 367.832C144.427 368.28 145.131 368.896 145.611 369.68L144.243 371.36C143.987 370.992 143.659 370.656 143.259 370.352C142.859 370.048 142.435 369.808 141.987 369.632C141.539 369.456 141.107 369.368 140.691 369.368C139.923 369.368 139.235 369.56 138.627 369.944C138.035 370.312 137.563 370.824 137.211 371.48C136.859 372.136 136.683 372.872 136.683 373.688C136.683 374.504 136.867 375.24 137.235 375.896C137.603 376.536 138.091 377.048 138.699 377.432C139.307 377.816 139.979 378.008 140.715 378.008C141.147 378.008 141.563 377.936 141.963 377.792C142.379 377.648 142.779 377.432 143.163 377.144C143.547 376.856 143.907 376.504 144.243 376.088L145.611 377.768C145.099 378.488 144.363 379.08 143.403 379.544C142.459 380.008 141.475 380.24 140.451 380.24ZM160.309 385.52C159.413 385.52 158.517 385.376 157.621 385.088C156.741 384.816 156.029 384.456 155.485 384.008L156.397 382.088C156.717 382.328 157.093 382.536 157.525 382.712C157.957 382.904 158.413 383.048 158.893 383.144C159.373 383.256 159.845 383.312 160.309 383.312C161.189 383.312 161.925 383.168 162.517 382.88C163.109 382.592 163.557 382.168 163.861 381.608C164.165 381.048 164.317 380.352 164.317 379.52V377.096L164.581 377.264C164.501 377.76 164.237 378.24 163.789 378.704C163.357 379.152 162.813 379.52 162.157 379.808C161.501 380.096 160.829 380.24 160.141 380.24C158.941 380.24 157.869 379.96 156.925 379.4C155.997 378.824 155.261 378.048 154.717 377.072C154.173 376.08 153.901 374.952 153.901 373.688C153.901 372.424 154.165 371.304 154.693 370.328C155.237 369.336 155.973 368.56 156.901 368C157.845 367.424 158.901 367.136 160.069 367.136C160.549 367.136 161.013 367.2 161.461 367.328C161.909 367.44 162.325 367.608 162.709 367.832C163.093 368.04 163.437 368.272 163.741 368.528C164.045 368.784 164.293 369.056 164.485 369.344C164.677 369.632 164.797 369.904 164.845 370.16L164.317 370.352V367.4H166.789V379.232C166.789 380.24 166.637 381.128 166.333 381.896C166.045 382.68 165.621 383.336 165.061 383.864C164.501 384.408 163.821 384.816 163.021 385.088C162.221 385.376 161.317 385.52 160.309 385.52ZM160.405 377.96C161.189 377.96 161.885 377.776 162.493 377.408C163.101 377.04 163.573 376.536 163.909 375.896C164.245 375.256 164.413 374.52 164.413 373.688C164.413 372.856 164.237 372.12 163.885 371.48C163.549 370.824 163.077 370.312 162.469 369.944C161.877 369.576 161.189 369.392 160.405 369.392C159.637 369.392 158.949 369.584 158.341 369.968C157.749 370.336 157.277 370.848 156.925 371.504C156.589 372.144 156.421 372.872 156.421 373.688C156.421 374.504 156.589 375.24 156.925 375.896C157.277 376.536 157.749 377.04 158.341 377.408C158.949 377.776 159.637 377.96 160.405 377.96ZM176.135 380.24C174.839 380.24 173.687 379.968 172.679 379.424C171.687 378.864 170.903 378.104 170.327 377.144C169.767 376.184 169.487 375.08 169.487 373.832C169.487 372.84 169.647 371.936 169.967 371.12C170.287 370.304 170.727 369.6 171.287 369.008C171.863 368.4 172.543 367.936 173.327 367.616C174.127 367.28 174.991 367.112 175.919 367.112C176.735 367.112 177.495 367.272 178.199 367.592C178.903 367.896 179.511 368.32 180.023 368.864C180.551 369.408 180.951 370.056 181.223 370.808C181.511 371.544 181.647 372.352 181.631 373.232L181.607 374.288H171.311L170.759 372.32H179.471L179.111 372.728V372.152C179.063 371.624 178.887 371.152 178.583 370.736C178.279 370.32 177.895 369.992 177.431 369.752C176.967 369.512 176.463 369.392 175.919 369.392C175.055 369.392 174.327 369.56 173.735 369.896C173.143 370.216 172.695 370.696 172.391 371.336C172.087 371.96 171.935 372.736 171.935 373.664C171.935 374.544 172.119 375.312 172.487 375.968C172.855 376.608 173.375 377.104 174.047 377.456C174.719 377.808 175.495 377.984 176.375 377.984C176.999 377.984 177.575 377.88 178.103 377.672C178.647 377.464 179.231 377.088 179.855 376.544L181.103 378.296C180.719 378.68 180.247 379.016 179.687 379.304C179.143 379.592 178.559 379.824 177.935 380C177.327 380.16 176.727 380.24 176.135 380.24ZM184.27 380V367.4H186.766V370.088L186.31 370.376C186.438 369.96 186.638 369.56 186.91 369.176C187.198 368.792 187.542 368.456 187.942 368.168C188.358 367.864 188.798 367.624 189.262 367.448C189.742 367.272 190.23 367.184 190.726 367.184C191.446 367.184 192.078 367.304 192.622 367.544C193.166 367.784 193.614 368.144 193.966 368.624C194.318 369.104 194.574 369.704 194.734 370.424L194.35 370.328L194.518 369.92C194.694 369.552 194.934 369.208 195.238 368.888C195.558 368.552 195.918 368.256 196.318 368C196.718 367.744 197.142 367.544 197.59 367.4C198.038 367.256 198.478 367.184 198.91 367.184C199.854 367.184 200.63 367.376 201.238 367.76C201.862 368.144 202.326 368.728 202.63 369.512C202.95 370.296 203.11 371.272 203.11 372.44V380H200.614V372.584C200.614 371.864 200.518 371.28 200.326 370.832C200.15 370.368 199.878 370.024 199.51 369.8C199.142 369.576 198.67 369.464 198.094 369.464C197.646 369.464 197.222 369.544 196.822 369.704C196.438 369.848 196.102 370.056 195.814 370.328C195.526 370.6 195.302 370.92 195.142 371.288C194.982 371.64 194.902 372.032 194.902 372.464V380H192.406V372.536C192.406 371.88 192.31 371.328 192.118 370.88C191.926 370.416 191.646 370.064 191.278 369.824C190.91 369.584 190.462 369.464 189.934 369.464C189.486 369.464 189.07 369.544 188.686 369.704C188.302 369.848 187.966 370.056 187.678 370.328C187.39 370.584 187.166 370.896 187.006 371.264C186.846 371.616 186.766 372 186.766 372.416V380H184.27ZM210.619 380.24C209.563 380.24 208.611 380.056 207.763 379.688C206.915 379.32 206.211 378.776 205.651 378.056L207.331 376.616C207.811 377.176 208.331 377.584 208.891 377.84C209.467 378.08 210.115 378.2 210.835 378.2C211.123 378.2 211.387 378.168 211.627 378.104C211.883 378.024 212.099 377.912 212.275 377.768C212.467 377.624 212.611 377.456 212.707 377.264C212.803 377.056 212.851 376.832 212.851 376.592C212.851 376.176 212.699 375.84 212.395 375.584C212.235 375.472 211.979 375.352 211.627 375.224C211.291 375.08 210.851 374.936 210.307 374.792C209.379 374.552 208.619 374.28 208.027 373.976C207.435 373.672 206.979 373.328 206.659 372.944C206.419 372.64 206.243 372.312 206.131 371.96C206.019 371.592 205.963 371.192 205.963 370.76C205.963 370.232 206.075 369.752 206.299 369.32C206.539 368.872 206.859 368.488 207.259 368.168C207.675 367.832 208.155 367.576 208.699 367.4C209.259 367.224 209.851 367.136 210.475 367.136C211.067 367.136 211.651 367.216 212.227 367.376C212.819 367.536 213.363 367.768 213.859 368.072C214.355 368.376 214.771 368.736 215.107 369.152L213.691 370.712C213.387 370.408 213.051 370.144 212.683 369.92C212.331 369.68 211.971 369.496 211.603 369.368C211.235 369.24 210.899 369.176 210.595 369.176C210.259 369.176 209.955 369.208 209.683 369.272C209.411 369.336 209.179 369.432 208.987 369.56C208.811 369.688 208.675 369.848 208.579 370.04C208.483 370.232 208.435 370.448 208.435 370.688C208.451 370.896 208.499 371.096 208.579 371.288C208.675 371.464 208.803 371.616 208.963 371.744C209.139 371.872 209.403 372.008 209.755 372.152C210.107 372.296 210.555 372.432 211.099 372.56C211.899 372.768 212.555 373 213.067 373.256C213.595 373.496 214.011 373.776 214.315 374.096C214.635 374.4 214.859 374.752 214.987 375.152C215.115 375.552 215.179 376 215.179 376.496C215.179 377.216 214.971 377.864 214.555 378.44C214.155 379 213.611 379.44 212.923 379.76C212.235 380.08 211.467 380.24 210.619 380.24Z" fill="#FAF9F6"/>
<path d="M124.752 176.702L120.025 129L59 186.802L60.5041 188.306H116.587L124.752 176.702Z" fill="#D8F0FA"/>
<path d="M283.116 129H120.025L124.752 176.702L157.198 153.066L161.281 151.992L198.025 129.215H201.678L237.132 150.702L243.149 152.421L278.603 177.132L283.116 129Z" fill="#C1E8F9"/>
<path d="M199.099 188.306H116.587L124.752 176.702L157.198 153.066L161.281 151.992L200.389 186.587L199.099 188.306Z" fill="#9AD3EE"/>
<path d="M201.893 188.306L200.604 186.587L237.132 150.702L243.149 152.421L278.604 177.132L287.413 188.306H201.893Z" fill="#B0E0F4"/>
<path d="M200.389 186.586L161.281 151.991L198.025 129.215H201.678L237.132 150.702L200.604 186.586H200.389Z" fill="#DAF0FB"/>
<path d="M278.604 177.132L283.116 129L345 186.587L343.281 188.306H287.413L278.604 177.132Z" fill="#99D2ED"/>
<path d="M201.678 321.099L60.5049 188.306H117.232L201.678 321.099Z" fill="#9BD5EB"/>
<path d="M201.677 321.099L117.231 188.306H134.636L201.677 321.099Z" fill="#D7EFFB"/>
<path d="M201.678 321.099L134.637 188.306H201.678V321.099Z" fill="#C1E8F9"/>
<path d="M265.711 188.306L201.678 321.099V188.306H265.711Z" fill="#9AD3EE"/>
<path d="M286.769 188.306H265.711L201.678 321.099L286.769 188.306Z" fill="#83C9E2"/>
<path d="M343.281 188.306L201.678 321.099L286.769 188.306H343.281Z" fill="#6EB9D6"/>
<circle cx="94.6686" cy="175.413" r="4.29752" fill="#FEFFFF"/>
<circle cx="108.207" cy="176.058" r="2.79339" fill="#FEFFFF"/>
<circle cx="134.207" cy="159.083" r="3.43802" fill="#FEFFFF"/>
</svg>
