<svg width="395" height="491" viewBox="0 0 395 491" fill="none" xmlns="http://www.w3.org/2000/svg">
<rect width="394.099" height="490.871" rx="20" fill="#202020" fill-opacity="0.5"/>
<path d="M43.08 76.68C43.72 73.7733 44.04 69.6 44.04 64.16C44.04 58.6933 43.92 54.6667 43.68 52.08C40.72 52.1333 38.8267 52.56 38 53.36C37.8133 53.7333 37.72 54.32 37.72 55.12C37.72 55.92 37.8533 56.4667 38.12 56.76L38.08 57.04C37.4133 57.44 36.7467 58 36.08 58.72C35.76 58.6933 35.5067 58.56 35.32 58.32C35.1067 58.08 35 57.8 35 57.48C35 56.2533 35.7067 54.8 37.12 53.12C38.5067 51.44 39.84 50.28 41.12 49.64C43.3867 49.8533 46.7467 49.96 51.2 49.96C58.48 49.96 62.12 53.4933 62.12 60.56C62.12 64.2667 61.1467 67.6267 59.2 70.64C57.2533 73.6533 54.6133 75.64 51.28 76.6C49.36 76.6 47.2133 76.0933 44.84 75.08C44.3867 75.7733 44.08 76.3733 43.92 76.88L43.08 76.68ZM50.56 51.84C49.3333 51.84 48.3067 51.9067 47.48 52.04C47.24 54.5467 47.12 58.0133 47.12 62.44C47.12 66.8667 47.1867 70.2533 47.32 72.6C48.76 73.3467 50.4 73.72 52.24 73.72C54.08 73.72 55.5067 73.2667 56.52 72.36C57.88 69.88 58.56 66.8133 58.56 63.16C58.56 59.5067 57.9867 56.7067 56.84 54.76C55.72 52.8133 53.6267 51.84 50.56 51.84ZM74.3247 76.48C71.6847 76.48 69.5514 75.6533 67.9247 74C66.298 72.32 65.4847 70.08 65.4847 67.28C65.4847 64.48 66.338 61.8533 68.0447 59.4C69.7514 56.9467 71.978 55.3733 74.7247 54.68C77.4714 54.68 79.5647 55.4667 81.0047 57.04C82.4447 58.5867 83.1647 60.8 83.1647 63.68C83.1647 66.56 82.378 69.16 80.8047 71.48C79.258 73.8 77.098 75.4667 74.3247 76.48ZM73.6447 57.12C72.4447 57.12 71.4047 57.4533 70.5247 58.12C69.4314 59.9867 68.8847 62.3333 68.8847 65.16C68.8847 68.4133 69.7914 70.9067 71.6047 72.64C72.5647 73.5733 73.698 74.04 75.0047 74.04C76.3114 74.04 77.3647 73.6933 78.1647 73C79.2314 71.1333 79.7647 68.8533 79.7647 66.16C79.7647 63.4667 79.2847 61.2933 78.3247 59.64C77.3647 57.96 75.8047 57.12 73.6447 57.12ZM86.5794 55.24L95.8594 54.96C100.686 54.96 103.099 56.7067 103.099 60.2C103.099 62.1467 102.233 63.72 100.499 64.92C98.7927 66.12 96.846 66.72 94.6594 66.72C94.3394 66.72 94.1127 66.7067 93.9794 66.68L94.1394 65.36H94.4994C96.1527 65.36 97.3794 65 98.1794 64.28C99.006 63.56 99.4194 62.4267 99.4194 60.88C99.4194 59.3333 99.086 58.2 98.4194 57.48C97.7794 56.7333 96.7394 56.36 95.2994 56.36C94.4194 56.36 93.5927 56.5067 92.8194 56.8C92.6327 58.56 92.5394 61.5467 92.5394 65.76C92.5394 69.9733 92.6594 72.9467 92.8994 74.68C94.0194 74.8133 95.1927 75.0267 96.4194 75.32L96.2994 76.32C94.9927 76.1067 93.4194 76 91.5794 76C89.7394 76 88.1394 76.1067 86.7794 76.32L86.6194 75.28C87.4194 75.0133 88.2594 74.8133 89.1394 74.68C89.406 72.8133 89.5394 69.9067 89.5394 65.96C89.5394 61.9867 89.4194 58.92 89.1794 56.76C88.246 56.4133 87.3794 56.24 86.5794 56.24V55.24ZM104.978 55.24L114.258 54.96C119.084 54.96 121.498 56.7067 121.498 60.2C121.498 62.1467 120.631 63.72 118.898 64.92C117.191 66.12 115.244 66.72 113.058 66.72C112.738 66.72 112.511 66.7067 112.378 66.68L112.538 65.36H112.898C114.551 65.36 115.778 65 116.578 64.28C117.404 63.56 117.818 62.4267 117.818 60.88C117.818 59.3333 117.484 58.2 116.818 57.48C116.178 56.7333 115.138 56.36 113.698 56.36C112.818 56.36 111.991 56.5067 111.218 56.8C111.031 58.56 110.938 61.5467 110.938 65.76C110.938 69.9733 111.058 72.9467 111.298 74.68C112.418 74.8133 113.591 75.0267 114.818 75.32L114.698 76.32C113.391 76.1067 111.818 76 109.978 76C108.138 76 106.538 76.1067 105.178 76.32L105.018 75.28C105.818 75.0133 106.658 74.8133 107.538 74.68C107.804 72.8133 107.938 69.9067 107.938 65.96C107.938 61.9867 107.818 58.92 107.578 56.76C106.644 56.4133 105.778 56.24 104.978 56.24V55.24ZM126.896 66.12C126.976 68.4933 127.416 70.3467 128.216 71.68C129.016 73.0133 130.376 73.68 132.296 73.68C134.216 73.68 135.99 72.8667 137.616 71.24L138.176 71.8C136.39 74.0667 134.243 75.6267 131.736 76.48C129.15 76.48 127.123 75.6667 125.656 74.04C124.19 72.3867 123.456 70.1733 123.456 67.4C123.456 64.6 124.323 61.9733 126.056 59.52C127.79 57.0667 130.003 55.4533 132.696 54.68C134.643 54.68 136.843 54.88 139.296 55.28L139.256 56.16C138.75 56.16 138.27 56.2533 137.816 56.44C137.31 57.64 136.976 59.0667 136.816 60.72H135.816C135.603 59.8133 135.496 58.88 135.496 57.92C134.483 57.4133 133.283 57.16 131.896 57.16C130.51 57.16 129.363 57.5333 128.456 58.28C127.55 59.9333 127.03 61.9067 126.896 64.2C128.016 64.3867 129.216 64.48 130.496 64.48C132.71 64.48 134.043 64.0133 134.496 63.08L135.336 63.2C135.096 64 134.976 64.7867 134.976 65.56C134.976 66.3333 135.07 67.28 135.256 68.4L134.296 68.56C134.003 67.76 133.79 66.9333 133.656 66.08C132.59 65.9733 131.523 65.92 130.456 65.92C129.416 65.92 128.23 65.9867 126.896 66.12ZM155.946 76.44C154.213 76.1467 151.853 76 148.866 76C145.906 76 143.426 76.1333 141.426 76.4L141.306 75.4C142.053 75.1067 142.906 74.8667 143.866 74.68C144.133 73.08 144.266 70.36 144.266 66.52V64.64C144.266 61.3333 144.133 58.6133 143.866 56.48C142.986 56.3467 142.146 56.1467 141.346 55.88L141.506 54.84C142.866 55.0533 144.466 55.16 146.306 55.16C148.146 55.16 149.719 55.0533 151.026 54.84L151.146 55.84C149.946 56.1333 148.759 56.3467 147.586 56.48C147.373 57.92 147.266 60.8933 147.266 65.4C147.266 69.88 147.373 72.8667 147.586 74.36C148.226 74.4667 149.133 74.52 150.306 74.52C151.479 74.52 152.533 74.2933 153.466 73.84C153.839 72.9333 154.026 71.8667 154.026 70.64H155.026C155.133 72.6933 155.506 74.36 156.146 75.64L155.946 76.44ZM166.635 73.68C167.782 73.68 168.915 73.3467 170.035 72.68L169.835 68.4C169.088 68.16 168.182 67.9467 167.115 67.76L167.235 66.92C167.875 66.9733 168.342 67 168.635 67C170.475 67 172.142 66.5067 173.635 65.52L174.035 66.24C173.715 66.5333 173.422 66.84 173.155 67.16C172.782 70.7867 172.542 73.7733 172.435 76.12H171.595C171.382 75.1333 171.062 74.32 170.635 73.68C169.088 75.04 167.528 75.9733 165.955 76.48C163.368 76.48 161.342 75.6667 159.875 74.04C158.408 72.3867 157.675 70.1733 157.675 67.4C157.675 64.6 158.542 61.9733 160.275 59.52C162.008 57.0667 164.222 55.4533 166.915 54.68C168.862 54.68 171.062 54.88 173.515 55.28L173.475 56.16C172.968 56.16 172.488 56.2533 172.035 56.44C171.528 57.64 171.195 59.0667 171.035 60.72H170.035C169.822 59.8133 169.715 58.88 169.715 57.92C168.702 57.4133 167.502 57.16 166.115 57.16C164.728 57.16 163.582 57.5333 162.675 58.28C161.608 60.2267 161.075 62.5333 161.075 65.2C161.075 67.84 161.462 69.92 162.235 71.44C163.035 72.9333 164.502 73.68 166.635 73.68ZM179.883 54.72C182.389 55.0133 184.923 55.16 187.483 55.16C190.043 55.16 192.563 55.0133 195.043 54.72L195.203 55.76C194.403 56.08 193.576 56.32 192.723 56.48C192.429 58.6667 192.283 61.7067 192.283 65.6C192.283 69.4933 192.429 72.5333 192.723 74.72C193.256 74.8 194.243 75 195.683 75.32L195.523 76.32C194.243 76.1067 192.603 76 190.603 76C188.603 76 187.069 76.1067 186.003 76.32L185.842 75.28C186.749 74.9867 187.776 74.7733 188.923 74.64C189.083 73.0933 189.203 70.9467 189.283 68.2C188.029 68.0667 186.776 68 185.523 68C184.269 68 183.176 68.0667 182.243 68.2C181.709 70.3867 181.442 71.9067 181.442 72.76C181.442 74.0667 181.909 74.9867 182.843 75.52L182.683 76.2C182.069 76.0667 180.909 76 179.203 76C177.496 76 176.149 76.1067 175.162 76.32L175.002 75.28C175.643 75.04 176.523 74.8267 177.643 74.64L182.843 56.4C181.669 56.2133 180.643 56 179.763 55.76L179.883 54.72ZM182.563 66.32C183.603 66.48 184.749 66.56 186.003 66.56C187.283 66.56 188.376 66.48 189.283 66.32C189.283 61.3867 189.176 58.2 188.963 56.76C188.056 56.7067 187.376 56.68 186.923 56.68C186.496 56.68 185.829 56.7067 184.923 56.76L182.563 66.32ZM208.329 76.28C206.942 76.0933 205.382 76 203.649 76C201.942 76 200.409 76.1067 199.049 76.32L198.889 75.28C199.742 75.0133 200.542 74.8133 201.289 74.68C201.529 72.6 201.649 69.88 201.649 66.52V64.64C201.649 61.0667 201.515 58.32 201.249 56.4C200.529 56.32 199.662 56.1067 198.649 55.76L198.769 54.72C200.289 55.0133 201.875 55.16 203.529 55.16C205.209 55.16 206.409 55.0667 207.129 54.88L207.209 55.56C206.489 55.7467 206.129 56.0533 206.129 56.48C206.129 56.8 206.435 57.48 207.049 58.52C207.689 59.5333 208.302 60.52 208.889 61.48C210.649 64.28 212.729 67.72 215.129 71.8L215.249 71.72V66.84C215.249 63.2667 215.062 60.5867 214.689 58.8C214.315 56.9867 213.675 55.9333 212.769 55.64L212.849 54.96C213.542 55.0933 214.582 55.16 215.969 55.16C217.355 55.16 218.782 55.0133 220.249 54.72L220.369 55.76C219.275 56.1067 218.355 56.32 217.609 56.4C217.342 58.5333 217.209 61.28 217.209 64.64V66.52C217.209 70.5733 217.342 73.32 217.609 74.76C218.729 74.9467 219.622 75.16 220.289 75.4L220.169 76.44C218.835 76.1467 217.582 76 216.409 76C215.235 76 214.329 76.0533 213.689 76.16C213.689 75.5733 213.275 74.5867 212.449 73.2C211.649 71.8133 210.915 70.5867 210.249 69.52C208.089 66.0267 205.969 62.48 203.889 58.88L203.729 58.96V64.32C203.729 69.6267 204.129 73.08 204.929 74.68C206.129 74.8133 207.302 75.0133 208.449 75.28L208.329 76.28ZM232.651 73.68C233.797 73.68 234.931 73.3467 236.051 72.68L235.851 68.4C235.104 68.16 234.197 67.9467 233.131 67.76L233.251 66.92C233.891 66.9733 234.357 67 234.651 67C236.491 67 238.157 66.5067 239.651 65.52L240.051 66.24C239.731 66.5333 239.437 66.84 239.171 67.16C238.797 70.7867 238.557 73.7733 238.451 76.12H237.611C237.397 75.1333 237.077 74.32 236.651 73.68C235.104 75.04 233.544 75.9733 231.971 76.48C229.384 76.48 227.357 75.6667 225.891 74.04C224.424 72.3867 223.691 70.1733 223.691 67.4C223.691 64.6 224.557 61.9733 226.291 59.52C228.024 57.0667 230.237 55.4533 232.931 54.68C234.877 54.68 237.077 54.88 239.531 55.28L239.491 56.16C238.984 56.16 238.504 56.2533 238.051 56.44C237.544 57.64 237.211 59.0667 237.051 60.72H236.051C235.837 59.8133 235.731 58.88 235.731 57.92C234.717 57.4133 233.517 57.16 232.131 57.16C230.744 57.16 229.597 57.5333 228.691 58.28C227.624 60.2267 227.091 62.5333 227.091 65.2C227.091 67.84 227.477 69.92 228.251 71.44C229.051 72.9333 230.517 73.68 232.651 73.68ZM246.818 66.12C246.898 68.4933 247.338 70.3467 248.138 71.68C248.938 73.0133 250.298 73.68 252.218 73.68C254.138 73.68 255.911 72.8667 257.538 71.24L258.098 71.8C256.311 74.0667 254.165 75.6267 251.658 76.48C249.071 76.48 247.045 75.6667 245.578 74.04C244.111 72.3867 243.378 70.1733 243.378 67.4C243.378 64.6 244.245 61.9733 245.978 59.52C247.711 57.0667 249.925 55.4533 252.618 54.68C254.565 54.68 256.765 54.88 259.218 55.28L259.178 56.16C258.671 56.16 258.191 56.2533 257.738 56.44C257.231 57.64 256.898 59.0667 256.738 60.72H255.738C255.525 59.8133 255.418 58.88 255.418 57.92C254.405 57.4133 253.205 57.16 251.818 57.16C250.431 57.16 249.285 57.5333 248.378 58.28C247.471 59.9333 246.951 61.9067 246.818 64.2C247.938 64.3867 249.138 64.48 250.418 64.48C252.631 64.48 253.965 64.0133 254.418 63.08L255.258 63.2C255.018 64 254.898 64.7867 254.898 65.56C254.898 66.3333 254.991 67.28 255.178 68.4L254.218 68.56C253.925 67.76 253.711 66.9333 253.578 66.08C252.511 65.9733 251.445 65.92 250.378 65.92C249.338 65.92 248.151 65.9867 246.818 66.12ZM261.228 55.24L270.428 54.96C272.828 54.96 274.628 55.32 275.828 56.04C277.028 56.7333 277.628 58.0133 277.628 59.88C277.628 61.16 277.228 62.2933 276.428 63.28C275.654 64.2667 274.628 65 273.348 65.48L277.828 74.64C278.734 74.8 279.588 74.9867 280.388 75.2L280.228 76.28C279.108 76.0933 277.841 76 276.428 76C275.041 76 273.948 76.0667 273.148 76.2L272.988 75.56C273.334 75.2133 273.508 74.64 273.508 73.84C273.508 72.2133 272.574 69.6 270.708 66C270.148 65.8933 269.494 65.84 268.748 65.84L268.828 64.68H269.228C272.374 64.68 273.948 63.24 273.948 60.36C273.948 57.6933 272.601 56.36 269.908 56.36C269.001 56.36 268.188 56.5067 267.468 56.8C267.281 58.56 267.188 61.5733 267.188 65.84C267.188 70.1067 267.308 73.0533 267.548 74.68C268.721 74.8133 269.814 75.0133 270.828 75.28L270.708 76.28C269.321 76.0933 267.761 76 266.028 76C264.321 76 262.788 76.1067 261.428 76.32L261.268 75.28C262.014 75.04 262.854 74.84 263.788 74.68C264.054 72.68 264.188 69.5733 264.188 65.36C264.188 61.12 264.068 58.1867 263.828 56.56C262.788 56.2133 261.921 56.04 261.228 56.04V55.24Z" fill="#FAF9F6"/>
<path d="M40.5415 379.36V376.912H47.4535V379.36H40.5415ZM50.9468 385L50.1548 383.032L55.2908 377.248C55.5628 376.96 55.8428 376.632 56.1308 376.264C56.4348 375.88 56.7228 375.488 56.9948 375.088C57.2668 374.688 57.4828 374.296 57.6428 373.912C57.8188 373.512 57.9068 373.136 57.9068 372.784C57.9068 372.272 57.8028 371.84 57.5948 371.488C57.4028 371.12 57.1148 370.84 56.7308 370.648C56.3628 370.456 55.9148 370.36 55.3868 370.36C54.9228 370.36 54.4668 370.496 54.0188 370.768C53.5708 371.04 53.1628 371.424 52.7948 371.92C52.4268 372.416 52.1388 372.992 51.9308 373.648L49.9388 372.4C50.2108 371.472 50.6188 370.68 51.1628 370.024C51.7228 369.352 52.3868 368.84 53.1548 368.488C53.9388 368.136 54.7868 367.96 55.6988 367.96C56.6428 367.96 57.4828 368.16 58.2188 368.56C58.9548 368.944 59.5308 369.488 59.9468 370.192C60.3628 370.88 60.5708 371.68 60.5708 372.592C60.5708 372.96 60.5308 373.336 60.4508 373.72C60.3708 374.104 60.2428 374.504 60.0668 374.92C59.8908 375.32 59.6668 375.744 59.3948 376.192C59.1228 376.624 58.7948 377.08 58.4108 377.56C58.0428 378.04 57.6188 378.544 57.1388 379.072L53.3228 383.224L52.8428 382.504H61.0988V385H50.9468ZM75.1658 385.24C74.1258 385.24 73.1738 384.952 72.3098 384.376C71.4618 383.8 70.7818 383.016 70.2698 382.024C69.7578 381.032 69.5018 379.912 69.5018 378.664C69.5018 377.4 69.7578 376.28 70.2698 375.304C70.7978 374.312 71.5018 373.536 72.3818 372.976C73.2778 372.416 74.2778 372.136 75.3818 372.136C76.0378 372.136 76.6378 372.232 77.1818 372.424C77.7258 372.616 78.1978 372.888 78.5978 373.24C79.0138 373.576 79.3498 373.968 79.6058 374.416C79.8778 374.864 80.0458 375.344 80.1098 375.856L79.5578 375.664V372.4H82.0538V385H79.5578V382L80.1338 381.832C80.0378 382.264 79.8378 382.688 79.5338 383.104C79.2458 383.504 78.8698 383.864 78.4058 384.184C77.9578 384.504 77.4538 384.76 76.8938 384.952C76.3498 385.144 75.7738 385.24 75.1658 385.24ZM75.8138 382.96C76.5658 382.96 77.2298 382.776 77.8058 382.408C78.3818 382.04 78.8298 381.536 79.1498 380.896C79.4858 380.24 79.6538 379.496 79.6538 378.664C79.6538 377.848 79.4858 377.12 79.1498 376.48C78.8298 375.84 78.3818 375.336 77.8058 374.968C77.2298 374.6 76.5658 374.416 75.8138 374.416C75.0778 374.416 74.4218 374.6 73.8458 374.968C73.2858 375.336 72.8378 375.84 72.5018 376.48C72.1818 377.12 72.0218 377.848 72.0218 378.664C72.0218 379.496 72.1818 380.24 72.5018 380.896C72.8378 381.536 73.2858 382.04 73.8458 382.408C74.4218 382.776 75.0778 382.96 75.8138 382.96ZM85.5053 385V372.4H87.9773V374.992L87.5453 375.28C87.7053 374.72 88.0173 374.208 88.4813 373.744C88.9453 373.264 89.4973 372.88 90.1373 372.592C90.7773 372.288 91.4333 372.136 92.1053 372.136C93.0653 372.136 93.8653 372.328 94.5053 372.712C95.1453 373.08 95.6253 373.648 95.9453 374.416C96.2653 375.184 96.4253 376.152 96.4253 377.32V385H93.9533V377.488C93.9533 376.768 93.8573 376.176 93.6653 375.712C93.4733 375.232 93.1773 374.888 92.7773 374.68C92.3773 374.456 91.8813 374.36 91.2893 374.392C90.8093 374.392 90.3693 374.472 89.9693 374.632C89.5693 374.776 89.2173 374.984 88.9133 375.256C88.6253 375.528 88.3933 375.848 88.2173 376.216C88.0573 376.568 87.9773 376.952 87.9773 377.368V385H86.7533C86.5453 385 86.3373 385 86.1293 385C85.9213 385 85.7133 385 85.5053 385ZM105.035 385.24C103.883 385.24 102.851 384.96 101.939 384.4C101.043 383.824 100.331 383.048 99.8028 382.072C99.2748 381.08 99.0108 379.952 99.0108 378.688C99.0108 377.424 99.2668 376.304 99.7788 375.328C100.307 374.336 101.019 373.56 101.915 373C102.811 372.424 103.827 372.136 104.963 372.136C105.587 372.136 106.187 372.24 106.763 372.448C107.355 372.64 107.883 372.912 108.347 373.264C108.811 373.6 109.171 373.976 109.427 374.392C109.699 374.792 109.835 375.2 109.835 375.616L109.115 375.664V367.24H111.587V385H109.115V382H109.595C109.595 382.384 109.467 382.768 109.211 383.152C108.955 383.52 108.611 383.864 108.179 384.184C107.763 384.504 107.275 384.76 106.715 384.952C106.171 385.144 105.611 385.24 105.035 385.24ZM105.371 383.104C106.123 383.104 106.787 382.912 107.363 382.528C107.939 382.144 108.387 381.624 108.707 380.968C109.043 380.296 109.211 379.536 109.211 378.688C109.211 377.84 109.043 377.088 108.707 376.432C108.387 375.76 107.939 375.232 107.363 374.848C106.787 374.464 106.123 374.272 105.371 374.272C104.619 374.272 103.955 374.464 103.379 374.848C102.803 375.232 102.347 375.76 102.011 376.432C101.691 377.088 101.531 377.84 101.531 378.688C101.531 379.536 101.691 380.296 102.011 380.968C102.347 381.624 102.803 382.144 103.379 382.528C103.955 382.912 104.619 383.104 105.371 383.104ZM122.124 385V372.4H124.596V385H122.124ZM123.324 369.616C122.796 369.616 122.388 369.48 122.1 369.208C121.812 368.936 121.668 368.552 121.668 368.056C121.668 367.592 121.812 367.216 122.1 366.928C122.404 366.64 122.812 366.496 123.324 366.496C123.852 366.496 124.26 366.632 124.548 366.904C124.836 367.176 124.98 367.56 124.98 368.056C124.98 368.52 124.828 368.896 124.524 369.184C124.236 369.472 123.836 369.616 123.324 369.616ZM128.396 385V372.4H130.868V374.992L130.436 375.28C130.596 374.72 130.908 374.208 131.372 373.744C131.836 373.264 132.388 372.88 133.028 372.592C133.668 372.288 134.324 372.136 134.996 372.136C135.956 372.136 136.756 372.328 137.396 372.712C138.036 373.08 138.516 373.648 138.836 374.416C139.156 375.184 139.316 376.152 139.316 377.32V385H136.844V377.488C136.844 376.768 136.748 376.176 136.556 375.712C136.364 375.232 136.068 374.888 135.668 374.68C135.268 374.456 134.772 374.36 134.18 374.392C133.7 374.392 133.26 374.472 132.86 374.632C132.46 374.776 132.108 374.984 131.804 375.256C131.516 375.528 131.284 375.848 131.108 376.216C130.948 376.568 130.868 376.952 130.868 377.368V385H129.644C129.436 385 129.228 385 129.02 385C128.812 385 128.604 385 128.396 385ZM146.797 385L141.469 372.4H144.133L147.973 381.832L147.517 382.048L151.621 372.4H154.165L148.573 385H146.797ZM161.956 385.24C160.66 385.24 159.508 384.968 158.5 384.424C157.508 383.864 156.724 383.104 156.148 382.144C155.588 381.184 155.308 380.08 155.308 378.832C155.308 377.84 155.468 376.936 155.788 376.12C156.108 375.304 156.548 374.6 157.108 374.008C157.684 373.4 158.364 372.936 159.148 372.616C159.948 372.28 160.812 372.112 161.74 372.112C162.556 372.112 163.316 372.272 164.02 372.592C164.724 372.896 165.332 373.32 165.844 373.864C166.372 374.408 166.772 375.056 167.044 375.808C167.332 376.544 167.468 377.352 167.452 378.232L167.428 379.288H157.132L156.58 377.32H165.292L164.932 377.728V377.152C164.884 376.624 164.708 376.152 164.404 375.736C164.1 375.32 163.716 374.992 163.252 374.752C162.788 374.512 162.284 374.392 161.74 374.392C160.876 374.392 160.148 374.56 159.556 374.896C158.964 375.216 158.516 375.696 158.212 376.336C157.908 376.96 157.756 377.736 157.756 378.664C157.756 379.544 157.94 380.312 158.308 380.968C158.676 381.608 159.196 382.104 159.868 382.456C160.54 382.808 161.316 382.984 162.196 382.984C162.82 382.984 163.396 382.88 163.924 382.672C164.468 382.464 165.052 382.088 165.676 381.544L166.924 383.296C166.54 383.68 166.068 384.016 165.508 384.304C164.964 384.592 164.38 384.824 163.756 385C163.148 385.16 162.548 385.24 161.956 385.24ZM170.138 385V372.4H172.634V376.36L172.394 375.4C172.57 374.792 172.866 374.24 173.282 373.744C173.714 373.248 174.202 372.856 174.746 372.568C175.306 372.28 175.882 372.136 176.474 372.136C176.746 372.136 177.002 372.16 177.242 372.208C177.498 372.256 177.698 372.312 177.842 372.376L177.194 375.064C177.002 374.984 176.786 374.92 176.546 374.872C176.322 374.808 176.098 374.776 175.874 374.776C175.442 374.776 175.026 374.864 174.626 375.04C174.242 375.2 173.898 375.432 173.594 375.736C173.306 376.024 173.074 376.368 172.898 376.768C172.722 377.152 172.634 377.576 172.634 378.04V385H170.138ZM181.847 385V369.184H184.319V385H181.847ZM179.231 374.8V372.4H187.247V374.8H179.231ZM197.784 385V369.184H200.256V385H197.784ZM195.168 374.8V372.4H203.184V374.8H195.168ZM205.435 385V367.24H207.907V374.992L207.475 375.28C207.635 374.72 207.947 374.208 208.411 373.744C208.875 373.264 209.427 372.88 210.067 372.592C210.707 372.288 211.363 372.136 212.035 372.136C212.995 372.136 213.795 372.328 214.435 372.712C215.075 373.08 215.555 373.648 215.875 374.416C216.195 375.184 216.355 376.152 216.355 377.32V385H213.883V377.488C213.883 376.768 213.787 376.176 213.595 375.712C213.403 375.232 213.107 374.888 212.707 374.68C212.307 374.456 211.811 374.36 211.219 374.392C210.739 374.392 210.299 374.472 209.899 374.632C209.499 374.776 209.147 374.984 208.843 375.256C208.555 375.528 208.323 375.848 208.147 376.216C207.987 376.568 207.907 376.952 207.907 377.368V385H206.683C206.475 385 206.267 385 206.059 385C205.851 385 205.643 385 205.435 385ZM225.588 385.24C224.292 385.24 223.14 384.968 222.132 384.424C221.14 383.864 220.356 383.104 219.78 382.144C219.22 381.184 218.94 380.08 218.94 378.832C218.94 377.84 219.1 376.936 219.42 376.12C219.74 375.304 220.18 374.6 220.74 374.008C221.316 373.4 221.996 372.936 222.78 372.616C223.58 372.28 224.444 372.112 225.372 372.112C226.188 372.112 226.948 372.272 227.652 372.592C228.356 372.896 228.964 373.32 229.476 373.864C230.004 374.408 230.404 375.056 230.676 375.808C230.964 376.544 231.1 377.352 231.084 378.232L231.06 379.288H220.764L220.212 377.32H228.924L228.564 377.728V377.152C228.516 376.624 228.34 376.152 228.036 375.736C227.732 375.32 227.348 374.992 226.884 374.752C226.42 374.512 225.916 374.392 225.372 374.392C224.508 374.392 223.78 374.56 223.188 374.896C222.596 375.216 222.148 375.696 221.844 376.336C221.54 376.96 221.388 377.736 221.388 378.664C221.388 379.544 221.572 380.312 221.94 380.968C222.308 381.608 222.828 382.104 223.5 382.456C224.172 382.808 224.948 382.984 225.828 382.984C226.452 382.984 227.028 382.88 227.556 382.672C228.1 382.464 228.684 382.088 229.308 381.544L230.556 383.296C230.172 383.68 229.7 384.016 229.14 384.304C228.596 384.592 228.012 384.824 227.388 385C226.78 385.16 226.18 385.24 225.588 385.24ZM244.626 385L239.298 372.4H241.962L245.802 381.832L245.346 382.048L249.45 372.4H251.994L246.402 385H244.626ZM258.752 385.24C257.712 385.24 256.76 384.952 255.896 384.376C255.048 383.8 254.368 383.016 253.856 382.024C253.344 381.032 253.088 379.912 253.088 378.664C253.088 377.4 253.344 376.28 253.856 375.304C254.384 374.312 255.088 373.536 255.968 372.976C256.864 372.416 257.864 372.136 258.968 372.136C259.624 372.136 260.224 372.232 260.768 372.424C261.312 372.616 261.784 372.888 262.184 373.24C262.6 373.576 262.936 373.968 263.192 374.416C263.464 374.864 263.632 375.344 263.696 375.856L263.144 375.664V372.4H265.64V385H263.144V382L263.72 381.832C263.624 382.264 263.424 382.688 263.12 383.104C262.832 383.504 262.456 383.864 261.992 384.184C261.544 384.504 261.04 384.76 260.48 384.952C259.936 385.144 259.36 385.24 258.752 385.24ZM259.4 382.96C260.152 382.96 260.816 382.776 261.392 382.408C261.968 382.04 262.416 381.536 262.736 380.896C263.072 380.24 263.24 379.496 263.24 378.664C263.24 377.848 263.072 377.12 262.736 376.48C262.416 375.84 261.968 375.336 261.392 374.968C260.816 374.6 260.152 374.416 259.4 374.416C258.664 374.416 258.008 374.6 257.432 374.968C256.872 375.336 256.424 375.84 256.088 376.48C255.768 377.12 255.608 377.848 255.608 378.664C255.608 379.496 255.768 380.24 256.088 380.896C256.424 381.536 256.872 382.04 257.432 382.408C258.008 382.776 258.664 382.96 259.4 382.96ZM269.139 385V367.24H271.611V385H269.139ZM279.414 385.24C278.518 385.24 277.734 385.032 277.062 384.616C276.406 384.2 275.894 383.616 275.526 382.864C275.174 382.112 274.998 381.216 274.998 380.176V372.4H277.47V379.504C277.47 380.24 277.582 380.88 277.806 381.424C278.046 381.952 278.382 382.36 278.814 382.648C279.262 382.936 279.798 383.08 280.422 383.08C280.886 383.08 281.31 383.008 281.694 382.864C282.078 382.704 282.406 382.488 282.678 382.216C282.966 381.944 283.19 381.616 283.35 381.232C283.51 380.848 283.59 380.432 283.59 379.984V372.4H286.062V385H283.59V382.36L284.022 382.072C283.83 382.664 283.502 383.2 283.038 383.68C282.59 384.16 282.054 384.544 281.43 384.832C280.806 385.104 280.134 385.24 279.414 385.24ZM295.409 385.24C294.113 385.24 292.961 384.968 291.953 384.424C290.961 383.864 290.177 383.104 289.601 382.144C289.041 381.184 288.761 380.08 288.761 378.832C288.761 377.84 288.921 376.936 289.241 376.12C289.561 375.304 290.001 374.6 290.561 374.008C291.137 373.4 291.817 372.936 292.601 372.616C293.401 372.28 294.265 372.112 295.193 372.112C296.009 372.112 296.769 372.272 297.473 372.592C298.177 372.896 298.785 373.32 299.297 373.864C299.825 374.408 300.225 375.056 300.497 375.808C300.785 376.544 300.921 377.352 300.905 378.232L300.881 379.288H290.585L290.033 377.32H298.745L298.385 377.728V377.152C298.337 376.624 298.161 376.152 297.857 375.736C297.553 375.32 297.169 374.992 296.705 374.752C296.241 374.512 295.737 374.392 295.193 374.392C294.329 374.392 293.601 374.56 293.009 374.896C292.417 375.216 291.969 375.696 291.665 376.336C291.361 376.96 291.209 377.736 291.209 378.664C291.209 379.544 291.393 380.312 291.761 380.968C292.129 381.608 292.649 382.104 293.321 382.456C293.993 382.808 294.769 382.984 295.649 382.984C296.273 382.984 296.849 382.88 297.377 382.672C297.921 382.464 298.505 382.088 299.129 381.544L300.377 383.296C299.993 383.68 299.521 384.016 298.961 384.304C298.417 384.592 297.833 384.824 297.209 385C296.601 385.16 296.001 385.24 295.409 385.24ZM315.982 385.24C314.75 385.24 313.646 384.96 312.67 384.4C311.71 383.824 310.95 383.048 310.39 382.072C309.83 381.08 309.55 379.952 309.55 378.688C309.55 377.424 309.83 376.304 310.39 375.328C310.95 374.336 311.71 373.56 312.67 373C313.646 372.424 314.75 372.136 315.982 372.136C317.198 372.136 318.286 372.424 319.246 373C320.222 373.56 320.99 374.336 321.55 375.328C322.11 376.304 322.39 377.424 322.39 378.688C322.39 379.952 322.11 381.08 321.55 382.072C320.99 383.048 320.222 383.824 319.246 384.4C318.286 384.96 317.198 385.24 315.982 385.24ZM315.982 382.984C316.734 382.984 317.406 382.8 317.998 382.432C318.59 382.048 319.054 381.536 319.39 380.896C319.726 380.24 319.886 379.504 319.87 378.688C319.886 377.856 319.726 377.12 319.39 376.48C319.054 375.824 318.59 375.312 317.998 374.944C317.406 374.576 316.734 374.392 315.982 374.392C315.23 374.392 314.55 374.584 313.942 374.968C313.35 375.336 312.886 375.848 312.55 376.504C312.214 377.144 312.054 377.872 312.07 378.688C312.054 379.504 312.214 380.24 312.55 380.896C312.886 381.536 313.35 382.048 313.942 382.432C314.55 382.8 315.23 382.984 315.982 382.984ZM325.983 385V370.984C325.983 370.264 326.143 369.624 326.463 369.064C326.783 368.504 327.223 368.064 327.783 367.744C328.343 367.424 328.991 367.264 329.727 367.264C330.239 367.264 330.719 367.36 331.167 367.552C331.615 367.744 331.975 368 332.247 368.32L331.407 370.216C331.199 370.024 330.967 369.872 330.711 369.76C330.471 369.632 330.239 369.568 330.015 369.568C329.679 369.568 329.391 369.624 329.151 369.736C328.927 369.832 328.759 369.992 328.647 370.216C328.535 370.424 328.479 370.68 328.479 370.984V385H327.231C327.023 385 326.815 385 326.607 385C326.399 385 326.191 385 325.983 385ZM323.967 374.896V372.616H331.455V374.896H323.967ZM42.5575 420V404.184H45.0295V420H42.5575ZM39.9415 409.8V407.4H47.9575V409.8H39.9415ZM50.2085 420V402.24H52.6805V409.992L52.2485 410.28C52.4085 409.72 52.7205 409.208 53.1845 408.744C53.6485 408.264 54.2005 407.88 54.8405 407.592C55.4805 407.288 56.1365 407.136 56.8085 407.136C57.7685 407.136 58.5685 407.328 59.2085 407.712C59.8485 408.08 60.3285 408.648 60.6485 409.416C60.9685 410.184 61.1285 411.152 61.1285 412.32V420H58.6565V412.488C58.6565 411.768 58.5605 411.176 58.3685 410.712C58.1765 410.232 57.8805 409.888 57.4805 409.68C57.0805 409.456 56.5845 409.36 55.9925 409.392C55.5125 409.392 55.0725 409.472 54.6725 409.632C54.2725 409.776 53.9205 409.984 53.6165 410.256C53.3285 410.528 53.0965 410.848 52.9205 411.216C52.7605 411.568 52.6805 411.952 52.6805 412.368V420H51.4565C51.2485 420 51.0405 420 50.8325 420C50.6245 420 50.4165 420 50.2085 420ZM70.3619 420.24C69.0659 420.24 67.9139 419.968 66.9059 419.424C65.9139 418.864 65.1299 418.104 64.5539 417.144C63.9939 416.184 63.7139 415.08 63.7139 413.832C63.7139 412.84 63.8739 411.936 64.1939 411.12C64.5139 410.304 64.9539 409.6 65.5139 409.008C66.0899 408.4 66.7699 407.936 67.5539 407.616C68.3539 407.28 69.2179 407.112 70.1459 407.112C70.9619 407.112 71.7219 407.272 72.4259 407.592C73.1299 407.896 73.7379 408.32 74.2499 408.864C74.7779 409.408 75.1779 410.056 75.4499 410.808C75.7379 411.544 75.8739 412.352 75.8579 413.232L75.8339 414.288H65.5379L64.9859 412.32H73.6979L73.3379 412.728V412.152C73.2899 411.624 73.1139 411.152 72.8099 410.736C72.5059 410.32 72.1219 409.992 71.6579 409.752C71.1939 409.512 70.6899 409.392 70.1459 409.392C69.2819 409.392 68.5539 409.56 67.9619 409.896C67.3699 410.216 66.9219 410.696 66.6179 411.336C66.3139 411.96 66.1619 412.736 66.1619 413.664C66.1619 414.544 66.3459 415.312 66.7139 415.968C67.0819 416.608 67.6019 417.104 68.2739 417.456C68.9459 417.808 69.7219 417.984 70.6019 417.984C71.2259 417.984 71.8019 417.88 72.3299 417.672C72.8739 417.464 73.4579 417.088 74.0819 416.544L75.3299 418.296C74.9459 418.68 74.4739 419.016 73.9139 419.304C73.3699 419.592 72.7859 419.824 72.1619 420C71.5539 420.16 70.9539 420.24 70.3619 420.24ZM90.911 425.52C90.015 425.52 89.119 425.376 88.223 425.088C87.343 424.816 86.631 424.456 86.087 424.008L86.999 422.088C87.319 422.328 87.695 422.536 88.127 422.712C88.559 422.904 89.015 423.048 89.495 423.144C89.975 423.256 90.447 423.312 90.911 423.312C91.791 423.312 92.527 423.168 93.119 422.88C93.711 422.592 94.159 422.168 94.463 421.608C94.767 421.048 94.919 420.352 94.919 419.52V417.096L95.183 417.264C95.103 417.76 94.839 418.24 94.391 418.704C93.959 419.152 93.415 419.52 92.759 419.808C92.103 420.096 91.431 420.24 90.743 420.24C89.543 420.24 88.471 419.96 87.527 419.4C86.599 418.824 85.863 418.048 85.319 417.072C84.775 416.08 84.503 414.952 84.503 413.688C84.503 412.424 84.767 411.304 85.295 410.328C85.839 409.336 86.575 408.56 87.503 408C88.447 407.424 89.503 407.136 90.671 407.136C91.151 407.136 91.615 407.2 92.063 407.328C92.511 407.44 92.927 407.608 93.311 407.832C93.695 408.04 94.039 408.272 94.343 408.528C94.647 408.784 94.895 409.056 95.087 409.344C95.279 409.632 95.399 409.904 95.447 410.16L94.919 410.352V407.4H97.391V419.232C97.391 420.24 97.239 421.128 96.935 421.896C96.647 422.68 96.223 423.336 95.663 423.864C95.103 424.408 94.423 424.816 93.623 425.088C92.823 425.376 91.919 425.52 90.911 425.52ZM91.007 417.96C91.791 417.96 92.487 417.776 93.095 417.408C93.703 417.04 94.175 416.536 94.511 415.896C94.847 415.256 95.015 414.52 95.015 413.688C95.015 412.856 94.839 412.12 94.487 411.48C94.151 410.824 93.679 410.312 93.071 409.944C92.479 409.576 91.791 409.392 91.007 409.392C90.239 409.392 89.551 409.584 88.943 409.968C88.351 410.336 87.879 410.848 87.527 411.504C87.191 412.144 87.023 412.872 87.023 413.688C87.023 414.504 87.191 415.24 87.527 415.896C87.879 416.536 88.351 417.04 88.943 417.408C89.551 417.776 90.239 417.96 91.007 417.96ZM106.737 420.24C105.441 420.24 104.289 419.968 103.281 419.424C102.289 418.864 101.505 418.104 100.929 417.144C100.369 416.184 100.089 415.08 100.089 413.832C100.089 412.84 100.249 411.936 100.569 411.12C100.889 410.304 101.329 409.6 101.889 409.008C102.465 408.4 103.145 407.936 103.929 407.616C104.729 407.28 105.593 407.112 106.521 407.112C107.337 407.112 108.097 407.272 108.801 407.592C109.505 407.896 110.113 408.32 110.625 408.864C111.153 409.408 111.553 410.056 111.825 410.808C112.113 411.544 112.249 412.352 112.233 413.232L112.209 414.288H101.913L101.361 412.32H110.073L109.713 412.728V412.152C109.665 411.624 109.489 411.152 109.185 410.736C108.881 410.32 108.497 409.992 108.033 409.752C107.569 409.512 107.065 409.392 106.521 409.392C105.657 409.392 104.929 409.56 104.337 409.896C103.745 410.216 103.297 410.696 102.993 411.336C102.689 411.96 102.537 412.736 102.537 413.664C102.537 414.544 102.721 415.312 103.089 415.968C103.457 416.608 103.977 417.104 104.649 417.456C105.321 417.808 106.097 417.984 106.977 417.984C107.601 417.984 108.177 417.88 108.705 417.672C109.249 417.464 109.833 417.088 110.457 416.544L111.705 418.296C111.321 418.68 110.849 419.016 110.289 419.304C109.745 419.592 109.161 419.824 108.537 420C107.929 420.16 107.329 420.24 106.737 420.24ZM114.871 420V407.4H117.367V410.088L116.911 410.376C117.039 409.96 117.239 409.56 117.511 409.176C117.799 408.792 118.143 408.456 118.543 408.168C118.959 407.864 119.399 407.624 119.863 407.448C120.343 407.272 120.831 407.184 121.327 407.184C122.047 407.184 122.679 407.304 123.223 407.544C123.767 407.784 124.215 408.144 124.567 408.624C124.919 409.104 125.175 409.704 125.335 410.424L124.951 410.328L125.119 409.92C125.295 409.552 125.535 409.208 125.839 408.888C126.159 408.552 126.519 408.256 126.919 408C127.319 407.744 127.743 407.544 128.191 407.4C128.639 407.256 129.079 407.184 129.511 407.184C130.455 407.184 131.231 407.376 131.839 407.76C132.463 408.144 132.927 408.728 133.231 409.512C133.551 410.296 133.711 411.272 133.711 412.44V420H131.215V412.584C131.215 411.864 131.119 411.28 130.927 410.832C130.751 410.368 130.479 410.024 130.111 409.8C129.743 409.576 129.271 409.464 128.695 409.464C128.247 409.464 127.823 409.544 127.423 409.704C127.039 409.848 126.703 410.056 126.415 410.328C126.127 410.6 125.903 410.92 125.743 411.288C125.583 411.64 125.503 412.032 125.503 412.464V420H123.007V412.536C123.007 411.88 122.911 411.328 122.719 410.88C122.527 410.416 122.247 410.064 121.879 409.824C121.511 409.584 121.063 409.464 120.535 409.464C120.087 409.464 119.671 409.544 119.287 409.704C118.903 409.848 118.567 410.056 118.279 410.328C117.991 410.584 117.767 410.896 117.607 411.264C117.447 411.616 117.367 412 117.367 412.416V420H114.871ZM149.1 420.24C147.932 420.24 146.884 419.952 145.956 419.376C145.044 418.8 144.316 418.016 143.772 417.024C143.244 416.032 142.98 414.92 142.98 413.688C142.98 412.456 143.244 411.344 143.772 410.352C144.316 409.36 145.044 408.576 145.956 408C146.884 407.424 147.932 407.136 149.1 407.136C150.22 407.136 151.236 407.368 152.148 407.832C153.076 408.28 153.78 408.896 154.26 409.68L152.892 411.36C152.636 410.992 152.308 410.656 151.908 410.352C151.508 410.048 151.084 409.808 150.636 409.632C150.188 409.456 149.756 409.368 149.34 409.368C148.572 409.368 147.884 409.56 147.276 409.944C146.684 410.312 146.212 410.824 145.86 411.48C145.508 412.136 145.332 412.872 145.332 413.688C145.332 414.504 145.516 415.24 145.884 415.896C146.252 416.536 146.74 417.048 147.348 417.432C147.956 417.816 148.628 418.008 149.364 418.008C149.796 418.008 150.212 417.936 150.612 417.792C151.028 417.648 151.428 417.432 151.812 417.144C152.196 416.856 152.556 416.504 152.892 416.088L154.26 417.768C153.748 418.488 153.012 419.08 152.052 419.544C151.108 420.008 150.124 420.24 149.1 420.24ZM161.439 420.24C160.399 420.24 159.447 419.952 158.583 419.376C157.735 418.8 157.055 418.016 156.543 417.024C156.031 416.032 155.775 414.912 155.775 413.664C155.775 412.4 156.031 411.28 156.543 410.304C157.071 409.312 157.775 408.536 158.655 407.976C159.551 407.416 160.551 407.136 161.655 407.136C162.311 407.136 162.911 407.232 163.455 407.424C163.999 407.616 164.471 407.888 164.871 408.24C165.287 408.576 165.623 408.968 165.879 409.416C166.151 409.864 166.319 410.344 166.383 410.856L165.831 410.664V407.4H168.327V420H165.831V417L166.407 416.832C166.311 417.264 166.111 417.688 165.807 418.104C165.519 418.504 165.143 418.864 164.679 419.184C164.231 419.504 163.727 419.76 163.167 419.952C162.623 420.144 162.047 420.24 161.439 420.24ZM162.087 417.96C162.839 417.96 163.503 417.776 164.079 417.408C164.655 417.04 165.103 416.536 165.423 415.896C165.759 415.24 165.927 414.496 165.927 413.664C165.927 412.848 165.759 412.12 165.423 411.48C165.103 410.84 164.655 410.336 164.079 409.968C163.503 409.6 162.839 409.416 162.087 409.416C161.351 409.416 160.695 409.6 160.119 409.968C159.559 410.336 159.111 410.84 158.775 411.48C158.455 412.12 158.295 412.848 158.295 413.664C158.295 414.496 158.455 415.24 158.775 415.896C159.111 416.536 159.559 417.04 160.119 417.408C160.695 417.776 161.351 417.96 162.087 417.96ZM171.779 420V407.4H174.275V411.36L174.035 410.4C174.211 409.792 174.507 409.24 174.923 408.744C175.355 408.248 175.843 407.856 176.387 407.568C176.947 407.28 177.523 407.136 178.115 407.136C178.387 407.136 178.643 407.16 178.883 407.208C179.139 407.256 179.339 407.312 179.483 407.376L178.835 410.064C178.643 409.984 178.427 409.92 178.187 409.872C177.963 409.808 177.739 409.776 177.515 409.776C177.083 409.776 176.667 409.864 176.267 410.04C175.883 410.2 175.539 410.432 175.235 410.736C174.947 411.024 174.715 411.368 174.539 411.768C174.363 412.152 174.275 412.576 174.275 413.04V420H171.779ZM186.175 420.24C185.023 420.24 183.991 419.96 183.079 419.4C182.183 418.824 181.471 418.048 180.943 417.072C180.415 416.08 180.151 414.952 180.151 413.688C180.151 412.424 180.407 411.304 180.919 410.328C181.447 409.336 182.159 408.56 183.055 408C183.951 407.424 184.967 407.136 186.103 407.136C186.727 407.136 187.327 407.24 187.903 407.448C188.495 407.64 189.023 407.912 189.487 408.264C189.951 408.6 190.311 408.976 190.567 409.392C190.839 409.792 190.975 410.2 190.975 410.616L190.255 410.664V402.24H192.727V420H190.255V417H190.735C190.735 417.384 190.607 417.768 190.351 418.152C190.095 418.52 189.751 418.864 189.319 419.184C188.903 419.504 188.415 419.76 187.855 419.952C187.311 420.144 186.751 420.24 186.175 420.24ZM186.511 418.104C187.263 418.104 187.927 417.912 188.503 417.528C189.079 417.144 189.527 416.624 189.847 415.968C190.183 415.296 190.351 414.536 190.351 413.688C190.351 412.84 190.183 412.088 189.847 411.432C189.527 410.76 189.079 410.232 188.503 409.848C187.927 409.464 187.263 409.272 186.511 409.272C185.759 409.272 185.095 409.464 184.519 409.848C183.943 410.232 183.487 410.76 183.151 411.432C182.831 412.088 182.671 412.84 182.671 413.688C182.671 414.536 182.831 415.296 183.151 415.968C183.487 416.624 183.943 417.144 184.519 417.528C185.095 417.912 185.759 418.104 186.511 418.104ZM202.857 420V407.4H205.329V409.992L204.897 410.28C205.057 409.72 205.369 409.208 205.833 408.744C206.297 408.264 206.849 407.88 207.489 407.592C208.129 407.288 208.785 407.136 209.457 407.136C210.417 407.136 211.217 407.328 211.857 407.712C212.497 408.08 212.977 408.648 213.297 409.416C213.617 410.184 213.777 411.152 213.777 412.32V420H211.305V412.488C211.305 411.768 211.209 411.176 211.017 410.712C210.825 410.232 210.529 409.888 210.129 409.68C209.729 409.456 209.233 409.36 208.641 409.392C208.161 409.392 207.721 409.472 207.321 409.632C206.921 409.776 206.569 409.984 206.265 410.256C205.977 410.528 205.745 410.848 205.569 411.216C205.409 411.568 205.329 411.952 205.329 412.368V420H204.105C203.897 420 203.689 420 203.481 420C203.273 420 203.065 420 202.857 420ZM223.01 420.24C221.714 420.24 220.562 419.968 219.554 419.424C218.562 418.864 217.778 418.104 217.202 417.144C216.642 416.184 216.362 415.08 216.362 413.832C216.362 412.84 216.522 411.936 216.842 411.12C217.162 410.304 217.602 409.6 218.162 409.008C218.738 408.4 219.418 407.936 220.202 407.616C221.002 407.28 221.866 407.112 222.794 407.112C223.61 407.112 224.37 407.272 225.074 407.592C225.778 407.896 226.386 408.32 226.898 408.864C227.426 409.408 227.826 410.056 228.098 410.808C228.386 411.544 228.522 412.352 228.506 413.232L228.482 414.288H218.186L217.634 412.32H226.346L225.986 412.728V412.152C225.938 411.624 225.762 411.152 225.458 410.736C225.154 410.32 224.77 409.992 224.306 409.752C223.842 409.512 223.338 409.392 222.794 409.392C221.93 409.392 221.202 409.56 220.61 409.896C220.018 410.216 219.57 410.696 219.266 411.336C218.962 411.96 218.81 412.736 218.81 413.664C218.81 414.544 218.994 415.312 219.362 415.968C219.73 416.608 220.25 417.104 220.922 417.456C221.594 417.808 222.37 417.984 223.25 417.984C223.874 417.984 224.45 417.88 224.978 417.672C225.522 417.464 226.106 417.088 226.73 416.544L227.978 418.296C227.594 418.68 227.122 419.016 226.562 419.304C226.018 419.592 225.434 419.824 224.81 420C224.202 420.16 223.602 420.24 223.01 420.24ZM239.499 420L235.419 414.696L235.059 414.24L229.755 407.4H232.875L236.883 412.632L237.291 413.16L242.523 420H239.499ZM229.779 420L234.747 413.52L236.211 415.272L232.707 420H229.779ZM237.435 413.904L236.067 412.176L239.163 407.4H242.091L237.435 413.904ZM246.159 420V404.184H248.631V420H246.159ZM243.543 409.8V407.4H251.559V409.8H243.543ZM262.097 420V404.184H264.569V420H262.097ZM259.481 409.8V407.4H267.497V409.8H259.481ZM274.164 420.24C273.268 420.24 272.484 420.032 271.812 419.616C271.156 419.2 270.644 418.616 270.276 417.864C269.924 417.112 269.748 416.216 269.748 415.176V407.4H272.22V414.504C272.22 415.24 272.332 415.88 272.556 416.424C272.796 416.952 273.132 417.36 273.564 417.648C274.012 417.936 274.548 418.08 275.172 418.08C275.636 418.08 276.06 418.008 276.444 417.864C276.828 417.704 277.156 417.488 277.428 417.216C277.716 416.944 277.94 416.616 278.1 416.232C278.26 415.848 278.34 415.432 278.34 414.984V407.4H280.812V420H278.34V417.36L278.772 417.072C278.58 417.664 278.252 418.2 277.788 418.68C277.34 419.16 276.804 419.544 276.18 419.832C275.556 420.104 274.884 420.24 274.164 420.24ZM284.279 420V407.4H286.775V411.36L286.535 410.4C286.711 409.792 287.007 409.24 287.423 408.744C287.855 408.248 288.343 407.856 288.887 407.568C289.447 407.28 290.023 407.136 290.615 407.136C290.887 407.136 291.143 407.16 291.383 407.208C291.639 407.256 291.839 407.312 291.983 407.376L291.335 410.064C291.143 409.984 290.927 409.92 290.687 409.872C290.463 409.808 290.239 409.776 290.015 409.776C289.583 409.776 289.167 409.864 288.767 410.04C288.383 410.2 288.039 410.432 287.735 410.736C287.447 411.024 287.215 411.368 287.039 411.768C286.863 412.152 286.775 412.576 286.775 413.04V420H284.279ZM293.958 420V407.4H296.43V409.992L295.998 410.28C296.158 409.72 296.47 409.208 296.934 408.744C297.398 408.264 297.95 407.88 298.59 407.592C299.23 407.288 299.886 407.136 300.558 407.136C301.518 407.136 302.318 407.328 302.958 407.712C303.598 408.08 304.078 408.648 304.398 409.416C304.718 410.184 304.878 411.152 304.878 412.32V420H302.406V412.488C302.406 411.768 302.31 411.176 302.118 410.712C301.926 410.232 301.63 409.888 301.23 409.68C300.83 409.456 300.334 409.36 299.742 409.392C299.262 409.392 298.822 409.472 298.422 409.632C298.022 409.776 297.67 409.984 297.366 410.256C297.078 410.528 296.846 410.848 296.67 411.216C296.51 411.568 296.43 411.952 296.43 412.368V420H295.206C294.998 420 294.79 420 294.582 420C294.374 420 294.166 420 293.958 420Z" fill="#FAF9F6"/>
<path d="M219.1 140.357C261.94 158.833 291.642 159.311 301.138 157.241C302.678 156.945 306.708 156.126 310.506 155.213C314.305 154.299 317.642 156.556 318.836 157.799C319.732 158.571 321.495 161.32 321.38 166.142C321.236 172.17 315.635 205.629 309.441 220.491C303.247 235.352 291.141 254.944 277.767 268.761C267.068 279.815 248.828 284.163 241.045 284.955C231.55 286.598 208.784 281.948 193.681 250.205C174.801 210.527 190.073 156.571 192.922 145.805C195.201 137.192 198.51 133.849 199.88 133.254C201.421 132.318 205.58 131.242 209.881 134.434C214.182 137.626 217.819 139.713 219.1 140.357Z" fill="#E84C3D"/>
<path d="M236.759 179.997C222.305 186.421 211.617 183.438 208.08 181.144L206.646 184.586L214.676 188.601C222.419 188.218 238.709 186.995 240.773 182.865C242.838 178.735 238.862 179.041 236.759 179.997Z" fill="#AD3928"/>
<path d="M264.003 184.012C265.609 183.324 267.54 186.211 268.018 187.74C272.893 195.77 280.234 210.683 272.893 206.094C265.551 201.506 262.951 194.623 262.569 191.755C262.378 189.461 262.397 184.7 264.003 184.012Z" fill="#AD3928"/>
<path d="M239.339 224.735C228.785 223.358 217.735 230.279 213.529 233.912L212.095 236.493C229.397 238.596 265.723 243.835 263.429 239.934C260.561 235.059 252.531 226.456 239.339 224.735Z" fill="#AD3928"/>
<path d="M245.648 173.114C239.53 161.834 221.099 146.042 196.321 173.114C205.498 167.57 228.211 159.808 245.648 173.114Z" fill="#AD3928"/>
<path d="M262.568 175.695C274.996 168.335 300.882 162.848 305.012 199.785C303.483 190.321 292.852 172.254 262.568 175.695Z" fill="#AD3928"/>
<path d="M206.646 182.865C215.823 188.83 232.265 184.777 239.339 182.005C241.404 181.266 240.964 182.844 240.486 183.725C231.768 199.097 216.97 196.057 210.661 192.616C205.499 186.88 197.469 176.9 206.646 182.865Z" fill="#F5F5F5"/>
<path d="M295.548 200.072C282.012 199.384 272.319 191.946 269.164 188.314C266.87 185.733 265.723 186.306 264.862 186.88C264.174 187.339 264.193 189.557 264.289 190.608C264.767 193.763 266.755 200.99 270.885 204.66C275.014 208.331 282.165 209.058 285.224 208.962C288.283 208.867 295.032 207.815 297.555 204.374C300.079 200.932 297.269 200.072 295.548 200.072Z" fill="#F5F5F5"/>
<path d="M284.65 225.595C283.503 222.383 288.187 219.095 290.673 217.852C292.05 217.164 292.393 218.521 292.393 219.286C292.623 224.792 290.959 227.125 290.099 227.603C288.761 228.272 285.798 228.807 284.65 225.595Z" fill="#AD3928"/>
<path d="M213.242 243.376C234.808 235.805 256.833 248.251 265.15 255.421C266.01 256.141 266.297 256.281 267.731 257.428C268.878 258.346 268.782 255.325 268.591 253.7C267.731 245.383 263.429 234.199 246.796 228.176C233.489 223.359 219.073 232.478 213.529 237.64L213.242 243.376Z" fill="#F5F5F5"/>
<path d="M98.816 183.152C145.389 180.399 172.137 167.474 179.688 161.356C180.931 160.4 184.162 157.858 187.145 155.334C190.127 152.81 194.123 153.327 195.748 153.9C196.895 154.187 199.706 155.85 201.771 160.209C204.352 165.658 214.389 198.064 215.536 214.124C216.683 230.184 214.676 253.127 208.94 271.481C204.352 286.164 190.013 298.247 183.417 302.453C175.674 308.189 153.247 314.268 125.487 292.702C90.7862 265.745 80.1752 210.683 77.881 199.785C76.0456 191.067 77.4986 186.593 78.4545 185.446C79.4105 183.917 82.6416 181.087 87.9183 182.005C93.1951 182.922 97.3821 183.152 98.816 183.152Z" fill="#F2C311"/>
<path d="M140.686 212.117C130.744 200.359 107.19 184.528 92.5068 215.271C98.6248 208.293 116.826 197.892 140.686 212.117Z" fill="#F39C11"/>
<path d="M122.045 212.403C132.828 213.092 138.105 220.242 139.252 223.588L123.766 221.867L107.133 225.595L101.971 231.331C98.7589 230.184 99.485 226.647 100.537 225.022C103.213 220.529 111.262 211.715 122.045 212.403Z" fill="#F39C11"/>
<path d="M172.519 198.638C181.237 192.673 192.403 197.109 196.896 200.072L167.644 213.264C167.453 214.411 166.898 217.336 165.063 218.713C163.227 220.089 162.291 218.235 162.195 217.279C162.004 213.551 163.801 204.603 172.519 198.638Z" fill="#F39C11"/>
<path d="M188.005 246.817C190.758 244.293 190.968 247.391 190.586 249.111L190.012 252.266L168.79 268.899C158.371 269.377 136.441 269.358 132.082 265.458C127.723 261.558 131.987 261.73 134.663 262.303C168.217 267.465 184.563 249.972 188.005 246.817Z" fill="#F39C11"/>
<path d="M155.599 208.962C158.275 193.667 170.741 167.666 199.189 186.02C189.343 183.725 166.84 185.102 155.599 208.962Z" fill="#F39C11"/>
<path d="M137.244 221.007C119.579 207.242 106.75 220.051 102.544 228.177C102.066 229.037 101.225 230.872 101.683 231.331C102.142 231.79 104.169 230.375 105.125 229.611C113.384 223.416 129.214 224.544 136.097 225.882C137.149 226.074 139.309 226.112 139.539 224.735C139.768 223.359 138.105 221.676 137.244 221.007Z" fill="#F5F5F5"/>
<path d="M184.563 206.668C184.105 201.62 184.181 198.256 184.277 197.204C191.446 196.917 197.468 199.498 199.763 202.079C201.598 204.144 199.763 205.043 198.615 205.234C197.946 205.329 195.621 205.222 191.733 205.521C188.005 205.807 185.71 206.381 184.563 206.668Z" fill="#E84C3D"/>
<path d="M164.202 217.279C165.349 201.907 178.063 197.491 184.277 197.204C184.047 198.58 184.372 204.087 184.564 206.668C177.681 208.388 169.364 214.411 166.783 217.279C164.718 219.573 164.202 218.235 164.202 217.279Z" fill="#F5F5F5"/>
<path d="M135.811 264.311C162.653 269.358 182.174 256.855 188.578 249.972C191.102 247.219 190.968 249.972 190.586 251.693C188.292 261.787 184.659 267.179 183.13 268.613C180.166 271.672 171.486 278.191 160.474 279.797C146.708 281.805 134.377 268.9 132.082 266.032C130.247 263.737 133.803 263.929 135.811 264.311Z" fill="#F5F5F5"/>
<circle cx="116.883" cy="251.119" r="8.89023" fill="#F39C11"/>
<circle cx="199.476" cy="227.603" r="8.89023" fill="#F39C11"/>
</svg>
