<svg width="395" height="491" viewBox="0 0 395 491" fill="none" xmlns="http://www.w3.org/2000/svg">
<rect width="394.099" height="490.871" rx="20" fill="#202020" fill-opacity="0.5"/>
<path d="M43.08 76.68C43.72 73.7733 44.04 69.6 44.04 64.16C44.04 58.6933 43.92 54.6667 43.68 52.08C40.72 52.1333 38.8267 52.56 38 53.36C37.8133 53.7333 37.72 54.32 37.72 55.12C37.72 55.92 37.8533 56.4667 38.12 56.76L38.08 57.04C37.4133 57.44 36.7467 58 36.08 58.72C35.76 58.6933 35.5067 58.56 35.32 58.32C35.1067 58.08 35 57.8 35 57.48C35 56.2533 35.7067 54.8 37.12 53.12C38.5067 51.44 39.84 50.28 41.12 49.64C43.3867 49.8533 46.7467 49.96 51.2 49.96C58.48 49.96 62.12 53.4933 62.12 60.56C62.12 64.2667 61.1467 67.6267 59.2 70.64C57.2533 73.6533 54.6133 75.64 51.28 76.6C49.36 76.6 47.2133 76.0933 44.84 75.08C44.3867 75.7733 44.08 76.3733 43.92 76.88L43.08 76.68ZM50.56 51.84C49.3333 51.84 48.3067 51.9067 47.48 52.04C47.24 54.5467 47.12 58.0133 47.12 62.44C47.12 66.8667 47.1867 70.2533 47.32 72.6C48.76 73.3467 50.4 73.72 52.24 73.72C54.08 73.72 55.5067 73.2667 56.52 72.36C57.88 69.88 58.56 66.8133 58.56 63.16C58.56 59.5067 57.9867 56.7067 56.84 54.76C55.72 52.8133 53.6267 51.84 50.56 51.84ZM82.2447 64.64V66.52C82.2447 70.1733 82.378 72.9067 82.6447 74.72C83.8714 74.88 84.8847 75.0667 85.6847 75.28L85.5647 76.28C84.258 76.0933 82.9114 76 81.5247 76C80.1647 76 79.2314 76.04 78.7247 76.12L78.5647 75.6C78.8047 75.3333 78.9647 74.5733 79.0447 73.32C77.658 74.76 76.058 75.8133 74.2447 76.48C69.658 76.48 67.3647 73.7467 67.3647 68.28C67.3647 67.08 67.458 65.16 67.6447 62.52C67.8314 59.88 67.9247 58.3333 67.9247 57.88C67.9247 57.4267 67.8447 56.9867 67.6847 56.56V56.52C66.5647 56.3333 65.6714 56.1333 65.0047 55.92L65.1647 54.84C66.7114 55.0533 68.1114 55.16 69.3647 55.16C70.618 55.16 71.6447 55.0933 72.4447 54.96L72.6047 55.64C71.6447 56.1467 71.0847 57.0667 70.9247 58.4C70.6047 60.96 70.4447 63.5867 70.4447 66.28C70.4447 68.9733 70.7514 70.8933 71.3647 72.04C72.0047 73.16 73.178 73.72 74.8847 73.72C76.618 73.72 78.018 73.2267 79.0847 72.24C79.1914 70.1067 79.2447 67.5867 79.2447 64.68C79.2447 61.7733 79.138 59.04 78.9247 56.48C77.7247 56.3467 76.618 56.1467 75.6047 55.88L75.7247 54.88C77.1114 55.0667 78.658 55.16 80.3647 55.16C82.098 55.16 83.6447 55.0533 85.0047 54.84L85.1647 55.88C84.418 56.12 83.578 56.32 82.6447 56.48C82.378 58.2667 82.2447 60.9867 82.2447 64.64ZM91.3697 72.96C92.5964 73.4667 93.8097 73.72 95.0097 73.72C96.2097 73.72 97.1697 73.44 97.8897 72.88C98.6097 72.32 98.9697 71.52 98.9697 70.48C98.9697 69.4133 97.463 68.0933 94.4497 66.52C93.303 65.9333 92.2497 65.2267 91.2897 64.4C90.3564 63.5467 89.8897 62.7067 89.8897 61.88C89.8897 60.4667 90.6364 59.04 92.1297 57.6C93.623 56.16 95.1564 55.1867 96.7297 54.68C98.703 54.68 100.49 54.88 102.09 55.28V56C100.97 57.12 100.343 58.6533 100.21 60.6H99.2097C99.2097 59.8533 99.143 58.92 99.0097 57.8C98.0764 57.3733 97.0764 57.16 96.0097 57.16C94.943 57.16 94.0497 57.4 93.3297 57.88C92.6364 58.3333 92.2897 59 92.2897 59.88C92.2897 60.4933 92.7564 61.16 93.6897 61.88C94.6497 62.6 95.6897 63.24 96.8097 63.8C97.9297 64.36 98.9564 65.0533 99.8897 65.88C100.85 66.7067 101.33 67.5333 101.33 68.36C101.33 69.96 100.623 71.56 99.2097 73.16C97.7964 74.7333 96.2364 75.84 94.5297 76.48C92.8497 76.48 91.2764 76.28 89.8097 75.88C89.383 76.0667 88.943 76.3733 88.4897 76.8L87.7697 76.28C89.263 74.6533 90.0897 72.64 90.2497 70.24H91.2497C91.2497 71.1733 91.2897 72.08 91.3697 72.96ZM118.566 57.32C117.632 56.8667 116.739 56.64 115.886 56.64C115.032 56.64 114.459 56.6933 114.166 56.8C113.952 58.24 113.846 61.0267 113.846 65.16C113.846 69.2933 113.992 72.4667 114.286 74.68C115.486 74.8133 116.592 75.0133 117.606 75.28L117.486 76.28C116.099 76.0933 114.499 76 112.686 76C110.899 76 109.326 76.1067 107.966 76.32L107.806 75.28C108.339 75.12 109.259 74.92 110.566 74.68C110.806 72.76 110.926 70.04 110.926 66.52V64.64C110.926 62.7733 110.779 60.16 110.486 56.8C110.192 56.6933 109.646 56.64 108.846 56.64C108.046 56.64 107.192 56.8267 106.286 57.2C106.019 58.0267 105.832 59.1333 105.726 60.52H104.686C104.686 58.3333 104.326 56.64 103.606 55.44L103.806 54.76C105.859 55.0267 108.739 55.16 112.446 55.16C116.152 55.16 119.139 55.0133 121.406 54.72L121.646 55.48C120.979 56.2267 120.526 56.96 120.286 57.68C120.046 58.3733 119.899 59.32 119.846 60.52H118.846C118.659 59.64 118.566 58.5733 118.566 57.32ZM139.447 76.68C140.087 73.7733 140.407 69.6 140.407 64.16C140.407 58.6933 140.287 54.6667 140.047 52.08C137.087 52.1333 135.194 52.56 134.367 53.36C134.181 53.7333 134.087 54.32 134.087 55.12C134.087 55.92 134.221 56.4667 134.487 56.76L134.447 57.04C133.781 57.44 133.114 58 132.447 58.72C132.127 58.6933 131.874 58.56 131.687 58.32C131.474 58.08 131.367 57.8 131.367 57.48C131.367 56.2533 132.074 54.8 133.487 53.12C134.874 51.44 136.207 50.28 137.487 49.64C139.754 49.8533 143.114 49.96 147.567 49.96C154.847 49.96 158.487 53.4933 158.487 60.56C158.487 64.2667 157.514 67.6267 155.567 70.64C153.621 73.6533 150.981 75.64 147.647 76.6C145.727 76.6 143.581 76.0933 141.207 75.08C140.754 75.7733 140.447 76.3733 140.287 76.88L139.447 76.68ZM146.927 51.84C145.701 51.84 144.674 51.9067 143.847 52.04C143.607 54.5467 143.487 58.0133 143.487 62.44C143.487 66.8667 143.554 70.2533 143.687 72.6C145.127 73.3467 146.767 73.72 148.607 73.72C150.447 73.72 151.874 73.2667 152.887 72.36C154.247 69.88 154.927 66.8133 154.927 63.16C154.927 59.5067 154.354 56.7067 153.207 54.76C152.087 52.8133 149.994 51.84 146.927 51.84ZM165.412 66.12C165.492 68.4933 165.932 70.3467 166.732 71.68C167.532 73.0133 168.892 73.68 170.812 73.68C172.732 73.68 174.505 72.8667 176.132 71.24L176.692 71.8C174.905 74.0667 172.759 75.6267 170.252 76.48C167.665 76.48 165.639 75.6667 164.172 74.04C162.705 72.3867 161.972 70.1733 161.972 67.4C161.972 64.6 162.839 61.9733 164.572 59.52C166.305 57.0667 168.519 55.4533 171.212 54.68C173.159 54.68 175.359 54.88 177.812 55.28L177.772 56.16C177.265 56.16 176.785 56.2533 176.332 56.44C175.825 57.64 175.492 59.0667 175.332 60.72H174.332C174.119 59.8133 174.012 58.88 174.012 57.92C172.999 57.4133 171.799 57.16 170.412 57.16C169.025 57.16 167.879 57.5333 166.972 58.28C166.065 59.9333 165.545 61.9067 165.412 64.2C166.532 64.3867 167.732 64.48 169.012 64.48C171.225 64.48 172.559 64.0133 173.012 63.08L173.852 63.2C173.612 64 173.492 64.7867 173.492 65.56C173.492 66.3333 173.585 67.28 173.772 68.4L172.812 68.56C172.519 67.76 172.305 66.9333 172.172 66.08C171.105 65.9733 170.039 65.92 168.972 65.92C167.932 65.92 166.745 65.9867 165.412 66.12ZM192.222 76.24C191.075 76.08 189.635 76 187.902 76C186.195 76 184.955 76.0533 184.182 76.16L184.062 75.52C184.302 75.4667 184.528 75.3333 184.742 75.12C184.982 74.88 185.102 74.6667 185.102 74.48C185.102 72.96 183.702 67.8267 180.902 59.08C180.528 57.9067 180.208 57.0533 179.942 56.52C179.062 56.4133 178.102 56.2 177.062 55.88L177.222 54.84C178.288 55.0533 179.822 55.16 181.822 55.16C183.822 55.16 185.462 55.0533 186.742 54.84L186.902 55.84C185.462 56.16 184.475 56.36 183.942 56.44C184.128 58.2 184.675 60.8 185.582 64.24C186.515 67.68 187.515 70.8667 188.582 73.8C190.368 69.8267 191.555 66.8133 192.142 64.76C192.755 62.7067 193.062 60.8267 193.062 59.12C193.062 57.4133 192.515 56.2667 191.422 55.68L191.582 55C192.382 55.1333 193.395 55.2 194.622 55.2C195.875 55.2 197.275 55.0933 198.822 54.88L198.982 55.92C198.075 56.2133 197.222 56.4267 196.422 56.56C196.528 57.36 196.582 58.0933 196.582 58.76C196.582 59.4 196.475 60.1867 196.262 61.12C196.075 62.0267 195.622 63.28 194.902 64.88C193.968 66.8533 192.288 70.12 189.862 74.68C190.395 74.7333 191.248 74.96 192.422 75.36L192.222 76.24ZM206.453 56.48C206.24 57.92 206.133 60.8667 206.133 65.32C206.133 69.7733 206.253 72.8933 206.493 74.68C207.693 74.8133 208.8 75.0133 209.813 75.28L209.693 76.28C208.306 76.0933 206.746 76 205.013 76C203.306 76 201.773 76.1067 200.413 76.32L200.253 75.28C201 75.04 201.84 74.84 202.773 74.68C203.013 72.76 203.133 70.04 203.133 66.52V64.64C203.133 61.12 203 58.4 202.733 56.48C201.8 56.32 200.96 56.12 200.213 55.88L200.373 54.84C201.733 55.0533 203.266 55.16 204.973 55.16C206.706 55.16 208.266 55.0667 209.653 54.88L209.773 55.88C208.76 56.1467 207.653 56.3467 206.453 56.48ZM227.157 76.44C225.424 76.1467 223.064 76 220.077 76C217.117 76 214.637 76.1333 212.637 76.4L212.517 75.4C213.264 75.1067 214.117 74.8667 215.077 74.68C215.344 73.08 215.477 70.36 215.477 66.52V64.64C215.477 61.3333 215.344 58.6133 215.077 56.48C214.197 56.3467 213.357 56.1467 212.557 55.88L212.717 54.84C214.077 55.0533 215.677 55.16 217.517 55.16C219.357 55.16 220.93 55.0533 222.237 54.84L222.357 55.84C221.157 56.1333 219.97 56.3467 218.797 56.48C218.584 57.92 218.477 60.8933 218.477 65.4C218.477 69.88 218.584 72.8667 218.797 74.36C219.437 74.4667 220.344 74.52 221.517 74.52C222.69 74.52 223.744 74.2933 224.677 73.84C225.05 72.9333 225.237 71.8667 225.237 70.64H226.237C226.344 72.6933 226.717 74.36 227.357 75.64L227.157 76.44Z" fill="#FAF9F6"/>
<path d="M40.3495 379.36V377.2H52.3735V379.36H40.3495ZM45.0775 383.992V372.4H47.5975V383.992H45.0775ZM60.2412 385C59.4092 385 58.6332 384.856 57.9132 384.568C57.2092 384.264 56.5932 383.848 56.0652 383.32C55.5532 382.792 55.1452 382.168 54.8412 381.448C54.5532 380.728 54.4092 379.936 54.4092 379.072C54.4092 378.64 54.4652 378.16 54.5772 377.632C54.7052 377.088 54.8892 376.496 55.1292 375.856C55.3852 375.216 55.6892 374.544 56.0412 373.84C56.3932 373.12 56.8012 372.376 57.2652 371.608L59.4492 367.912H61.9692L62.0652 368.152L59.4252 372.592C58.9452 373.408 58.5132 374.184 58.1292 374.92C57.7612 375.656 57.4492 376.352 57.1932 377.008C56.9372 377.648 56.7452 378.232 56.6172 378.76L56.0412 376.288C56.3452 375.792 56.6732 375.36 57.0252 374.992C57.3772 374.608 57.7532 374.288 58.1532 374.032C58.5692 373.776 59.0012 373.584 59.4492 373.456C59.8972 373.328 60.3612 373.264 60.8412 373.264C61.7692 373.264 62.6172 373.52 63.3852 374.032C64.1692 374.528 64.7932 375.192 65.2572 376.024C65.7372 376.856 65.9772 377.768 65.9772 378.76C65.9772 379.96 65.7292 381.032 65.2332 381.976C64.7532 382.904 64.0812 383.64 63.2172 384.184C62.3532 384.728 61.3612 385 60.2412 385ZM60.2412 382.6C60.8652 382.6 61.4172 382.456 61.8972 382.168C62.3932 381.864 62.7772 381.448 63.0492 380.92C63.3372 380.376 63.4812 379.76 63.4812 379.072C63.4812 378.48 63.3372 377.928 63.0492 377.416C62.7612 376.888 62.3772 376.464 61.8972 376.144C61.4172 375.824 60.8812 375.664 60.2892 375.664C59.6332 375.664 59.0492 375.816 58.5372 376.12C58.0252 376.424 57.6252 376.832 57.3372 377.344C57.0492 377.856 56.9052 378.424 56.9052 379.048C56.9052 379.72 57.0492 380.328 57.3372 380.872C57.6252 381.4 58.0172 381.824 58.5132 382.144C59.0092 382.448 59.5852 382.6 60.2412 382.6ZM80.9032 390.52C80.0072 390.52 79.1112 390.376 78.2152 390.088C77.3352 389.816 76.6232 389.456 76.0792 389.008L76.9912 387.088C77.3112 387.328 77.6872 387.536 78.1192 387.712C78.5512 387.904 79.0072 388.048 79.4872 388.144C79.9672 388.256 80.4392 388.312 80.9032 388.312C81.7832 388.312 82.5192 388.168 83.1112 387.88C83.7032 387.592 84.1512 387.168 84.4552 386.608C84.7592 386.048 84.9112 385.352 84.9112 384.52V382.096L85.1752 382.264C85.0952 382.76 84.8312 383.24 84.3832 383.704C83.9512 384.152 83.4072 384.52 82.7512 384.808C82.0952 385.096 81.4232 385.24 80.7352 385.24C79.5352 385.24 78.4632 384.96 77.5192 384.4C76.5912 383.824 75.8552 383.048 75.3112 382.072C74.7672 381.08 74.4952 379.952 74.4952 378.688C74.4952 377.424 74.7592 376.304 75.2872 375.328C75.8312 374.336 76.5672 373.56 77.4952 373C78.4392 372.424 79.4952 372.136 80.6632 372.136C81.1432 372.136 81.6072 372.2 82.0552 372.328C82.5032 372.44 82.9192 372.608 83.3032 372.832C83.6872 373.04 84.0312 373.272 84.3352 373.528C84.6392 373.784 84.8872 374.056 85.0792 374.344C85.2712 374.632 85.3912 374.904 85.4392 375.16L84.9112 375.352V372.4H87.3832V384.232C87.3832 385.24 87.2312 386.128 86.9272 386.896C86.6392 387.68 86.2152 388.336 85.6552 388.864C85.0952 389.408 84.4152 389.816 83.6152 390.088C82.8152 390.376 81.9112 390.52 80.9032 390.52ZM80.9992 382.96C81.7832 382.96 82.4792 382.776 83.0872 382.408C83.6952 382.04 84.1672 381.536 84.5032 380.896C84.8392 380.256 85.0072 379.52 85.0072 378.688C85.0072 377.856 84.8312 377.12 84.4792 376.48C84.1432 375.824 83.6712 375.312 83.0632 374.944C82.4712 374.576 81.7832 374.392 80.9992 374.392C80.2312 374.392 79.5432 374.584 78.9352 374.968C78.3432 375.336 77.8712 375.848 77.5192 376.504C77.1832 377.144 77.0152 377.872 77.0152 378.688C77.0152 379.504 77.1832 380.24 77.5192 380.896C77.8712 381.536 78.3432 382.04 78.9352 382.408C79.5432 382.776 80.2312 382.96 80.9992 382.96ZM96.7291 385.24C95.4331 385.24 94.2811 384.968 93.2731 384.424C92.2811 383.864 91.4971 383.104 90.9211 382.144C90.3611 381.184 90.0811 380.08 90.0811 378.832C90.0811 377.84 90.2411 376.936 90.5611 376.12C90.8811 375.304 91.3211 374.6 91.8811 374.008C92.4571 373.4 93.1371 372.936 93.9211 372.616C94.7211 372.28 95.5851 372.112 96.5131 372.112C97.3291 372.112 98.0891 372.272 98.7931 372.592C99.4971 372.896 100.105 373.32 100.617 373.864C101.145 374.408 101.545 375.056 101.817 375.808C102.105 376.544 102.241 377.352 102.225 378.232L102.201 379.288H91.9051L91.3531 377.32H100.065L99.7051 377.728V377.152C99.6571 376.624 99.4811 376.152 99.1771 375.736C98.8731 375.32 98.4891 374.992 98.0251 374.752C97.5611 374.512 97.0571 374.392 96.5131 374.392C95.6491 374.392 94.9211 374.56 94.3291 374.896C93.7371 375.216 93.2891 375.696 92.9851 376.336C92.6811 376.96 92.5291 377.736 92.5291 378.664C92.5291 379.544 92.7131 380.312 93.0811 380.968C93.4491 381.608 93.9691 382.104 94.6411 382.456C95.3131 382.808 96.0891 382.984 96.9691 382.984C97.5931 382.984 98.1691 382.88 98.6971 382.672C99.2411 382.464 99.8251 382.088 100.449 381.544L101.697 383.296C101.313 383.68 100.841 384.016 100.281 384.304C99.7371 384.592 99.1531 384.824 98.5291 385C97.9211 385.16 97.3211 385.24 96.7291 385.24ZM104.864 385V372.4H107.36V375.088L106.904 375.376C107.032 374.96 107.232 374.56 107.504 374.176C107.792 373.792 108.136 373.456 108.536 373.168C108.952 372.864 109.392 372.624 109.856 372.448C110.336 372.272 110.824 372.184 111.32 372.184C112.04 372.184 112.672 372.304 113.216 372.544C113.76 372.784 114.208 373.144 114.56 373.624C114.912 374.104 115.168 374.704 115.328 375.424L114.944 375.328L115.112 374.92C115.288 374.552 115.528 374.208 115.832 373.888C116.152 373.552 116.512 373.256 116.912 373C117.312 372.744 117.736 372.544 118.184 372.4C118.632 372.256 119.072 372.184 119.504 372.184C120.448 372.184 121.224 372.376 121.832 372.76C122.456 373.144 122.92 373.728 123.224 374.512C123.544 375.296 123.704 376.272 123.704 377.44V385H121.208V377.584C121.208 376.864 121.112 376.28 120.92 375.832C120.744 375.368 120.472 375.024 120.104 374.8C119.736 374.576 119.264 374.464 118.688 374.464C118.24 374.464 117.816 374.544 117.416 374.704C117.032 374.848 116.696 375.056 116.408 375.328C116.12 375.6 115.896 375.92 115.736 376.288C115.576 376.64 115.496 377.032 115.496 377.464V385H113V377.536C113 376.88 112.904 376.328 112.712 375.88C112.52 375.416 112.24 375.064 111.872 374.824C111.504 374.584 111.056 374.464 110.528 374.464C110.08 374.464 109.664 374.544 109.28 374.704C108.896 374.848 108.56 375.056 108.272 375.328C107.984 375.584 107.76 375.896 107.6 376.264C107.44 376.616 107.36 377 107.36 377.416V385H104.864ZM131.213 385.24C130.157 385.24 129.205 385.056 128.357 384.688C127.509 384.32 126.805 383.776 126.245 383.056L127.925 381.616C128.405 382.176 128.925 382.584 129.485 382.84C130.061 383.08 130.709 383.2 131.429 383.2C131.717 383.2 131.981 383.168 132.221 383.104C132.477 383.024 132.693 382.912 132.869 382.768C133.061 382.624 133.205 382.456 133.301 382.264C133.397 382.056 133.445 381.832 133.445 381.592C133.445 381.176 133.293 380.84 132.989 380.584C132.829 380.472 132.573 380.352 132.221 380.224C131.885 380.08 131.445 379.936 130.901 379.792C129.973 379.552 129.213 379.28 128.621 378.976C128.029 378.672 127.573 378.328 127.253 377.944C127.013 377.64 126.837 377.312 126.725 376.96C126.613 376.592 126.557 376.192 126.557 375.76C126.557 375.232 126.669 374.752 126.893 374.32C127.133 373.872 127.453 373.488 127.853 373.168C128.269 372.832 128.749 372.576 129.293 372.4C129.853 372.224 130.445 372.136 131.069 372.136C131.661 372.136 132.245 372.216 132.821 372.376C133.413 372.536 133.957 372.768 134.453 373.072C134.949 373.376 135.365 373.736 135.701 374.152L134.285 375.712C133.981 375.408 133.645 375.144 133.277 374.92C132.925 374.68 132.565 374.496 132.197 374.368C131.829 374.24 131.493 374.176 131.189 374.176C130.853 374.176 130.549 374.208 130.277 374.272C130.005 374.336 129.773 374.432 129.581 374.56C129.405 374.688 129.269 374.848 129.173 375.04C129.077 375.232 129.029 375.448 129.029 375.688C129.045 375.896 129.093 376.096 129.173 376.288C129.269 376.464 129.397 376.616 129.557 376.744C129.733 376.872 129.997 377.008 130.349 377.152C130.701 377.296 131.149 377.432 131.693 377.56C132.493 377.768 133.149 378 133.661 378.256C134.189 378.496 134.605 378.776 134.909 379.096C135.229 379.4 135.453 379.752 135.581 380.152C135.709 380.552 135.773 381 135.773 381.496C135.773 382.216 135.565 382.864 135.149 383.44C134.749 384 134.205 384.44 133.517 384.76C132.829 385.08 132.061 385.24 131.213 385.24ZM138.882 389.296L137.97 388.192C138.53 387.872 138.986 387.504 139.338 387.088C139.69 386.672 139.866 386.312 139.866 386.008C139.866 385.848 139.826 385.688 139.746 385.528C139.666 385.384 139.498 385.176 139.242 384.904C138.922 384.6 138.714 384.344 138.618 384.136C138.522 383.928 138.474 383.704 138.474 383.464C138.474 383.08 138.61 382.776 138.882 382.552C139.154 382.312 139.506 382.192 139.938 382.192C140.338 382.192 140.698 382.312 141.018 382.552C141.354 382.776 141.61 383.096 141.786 383.512C141.978 383.912 142.074 384.376 142.074 384.904C142.074 385.384 141.994 385.848 141.834 386.296C141.674 386.744 141.45 387.16 141.162 387.544C140.874 387.928 140.538 388.272 140.154 388.576C139.77 388.88 139.346 389.12 138.882 389.296ZM158.247 385.24C157.703 385.24 157.159 385.152 156.615 384.976C156.087 384.8 155.599 384.568 155.151 384.28C154.719 383.976 154.351 383.648 154.047 383.296C153.759 382.928 153.567 382.56 153.471 382.192L154.095 381.856V384.928H151.623V367.24H154.095V375.28L153.711 375.064C153.791 374.696 153.967 374.344 154.239 374.008C154.511 373.656 154.855 373.344 155.271 373.072C155.703 372.784 156.167 372.56 156.663 372.4C157.159 372.224 157.663 372.136 158.175 372.136C159.311 372.136 160.319 372.416 161.199 372.976C162.079 373.536 162.775 374.312 163.287 375.304C163.799 376.28 164.055 377.4 164.055 378.664C164.055 379.928 163.799 381.056 163.287 382.048C162.791 383.04 162.103 383.824 161.223 384.4C160.343 384.96 159.351 385.24 158.247 385.24ZM157.839 382.984C158.575 382.984 159.231 382.8 159.807 382.432C160.383 382.048 160.839 381.536 161.175 380.896C161.511 380.24 161.679 379.496 161.679 378.664C161.679 377.848 161.511 377.12 161.175 376.48C160.855 375.824 160.407 375.312 159.831 374.944C159.255 374.576 158.591 374.392 157.839 374.392C157.087 374.392 156.423 374.576 155.847 374.944C155.271 375.312 154.815 375.824 154.479 376.48C154.143 377.12 153.975 377.848 153.975 378.664C153.975 379.496 154.143 380.24 154.479 380.896C154.815 381.536 155.271 382.048 155.847 382.432C156.423 382.8 157.087 382.984 157.839 382.984ZM171.156 385.24C170.26 385.24 169.476 385.032 168.804 384.616C168.148 384.2 167.636 383.616 167.268 382.864C166.916 382.112 166.74 381.216 166.74 380.176V372.4H169.212V379.504C169.212 380.24 169.324 380.88 169.548 381.424C169.788 381.952 170.124 382.36 170.556 382.648C171.004 382.936 171.54 383.08 172.164 383.08C172.628 383.08 173.052 383.008 173.436 382.864C173.82 382.704 174.148 382.488 174.42 382.216C174.708 381.944 174.932 381.616 175.092 381.232C175.252 380.848 175.332 380.432 175.332 379.984V372.4H177.804V385H175.332V382.36L175.764 382.072C175.572 382.664 175.244 383.2 174.78 383.68C174.332 384.16 173.796 384.544 173.172 384.832C172.548 385.104 171.876 385.24 171.156 385.24ZM182.831 385V369.184H185.303V385H182.831ZM180.215 374.8V372.4H188.231V374.8H180.215ZM199.32 390.52L201.864 384.64L201.888 386.608L195.6 372.4H198.48L202.416 381.664C202.496 381.824 202.592 382.072 202.704 382.408C202.816 382.728 202.912 383.048 202.992 383.368L202.368 383.512C202.496 383.176 202.616 382.84 202.728 382.504C202.856 382.168 202.976 381.832 203.088 381.496L206.376 372.4H209.304L204.12 385L201.984 390.52H199.32ZM216.583 385.24C215.351 385.24 214.247 384.96 213.271 384.4C212.311 383.824 211.551 383.048 210.991 382.072C210.431 381.08 210.151 379.952 210.151 378.688C210.151 377.424 210.431 376.304 210.991 375.328C211.551 374.336 212.311 373.56 213.271 373C214.247 372.424 215.351 372.136 216.583 372.136C217.799 372.136 218.887 372.424 219.847 373C220.823 373.56 221.591 374.336 222.151 375.328C222.711 376.304 222.991 377.424 222.991 378.688C222.991 379.952 222.711 381.08 222.151 382.072C221.591 383.048 220.823 383.824 219.847 384.4C218.887 384.96 217.799 385.24 216.583 385.24ZM216.583 382.984C217.335 382.984 218.007 382.8 218.599 382.432C219.191 382.048 219.655 381.536 219.991 380.896C220.327 380.24 220.487 379.504 220.471 378.688C220.487 377.856 220.327 377.12 219.991 376.48C219.655 375.824 219.191 375.312 218.599 374.944C218.007 374.576 217.335 374.392 216.583 374.392C215.831 374.392 215.151 374.584 214.543 374.968C213.951 375.336 213.487 375.848 213.151 376.504C212.815 377.144 212.655 377.872 212.671 378.688C212.655 379.504 212.815 380.24 213.151 380.896C213.487 381.536 213.951 382.048 214.543 382.432C215.151 382.8 215.831 382.984 216.583 382.984ZM230.101 385.24C229.205 385.24 228.421 385.032 227.749 384.616C227.093 384.2 226.581 383.616 226.213 382.864C225.861 382.112 225.685 381.216 225.685 380.176V372.4H228.157V379.504C228.157 380.24 228.269 380.88 228.493 381.424C228.733 381.952 229.069 382.36 229.501 382.648C229.949 382.936 230.485 383.08 231.109 383.08C231.573 383.08 231.997 383.008 232.381 382.864C232.765 382.704 233.093 382.488 233.365 382.216C233.653 381.944 233.877 381.616 234.037 381.232C234.197 380.848 234.277 380.432 234.277 379.984V372.4H236.749V385H234.277V382.36L234.709 382.072C234.517 382.664 234.189 383.2 233.725 383.68C233.277 384.16 232.741 384.544 232.117 384.832C231.493 385.104 230.821 385.24 230.101 385.24ZM252.295 385.24C251.127 385.24 250.079 384.952 249.151 384.376C248.239 383.8 247.511 383.016 246.967 382.024C246.439 381.032 246.175 379.92 246.175 378.688C246.175 377.456 246.439 376.344 246.967 375.352C247.511 374.36 248.239 373.576 249.151 373C250.079 372.424 251.127 372.136 252.295 372.136C253.415 372.136 254.431 372.368 255.343 372.832C256.271 373.28 256.975 373.896 257.455 374.68L256.087 376.36C255.831 375.992 255.503 375.656 255.103 375.352C254.703 375.048 254.279 374.808 253.831 374.632C253.383 374.456 252.951 374.368 252.535 374.368C251.767 374.368 251.079 374.56 250.471 374.944C249.879 375.312 249.407 375.824 249.055 376.48C248.703 377.136 248.527 377.872 248.527 378.688C248.527 379.504 248.711 380.24 249.079 380.896C249.447 381.536 249.935 382.048 250.543 382.432C251.151 382.816 251.823 383.008 252.559 383.008C252.991 383.008 253.407 382.936 253.807 382.792C254.223 382.648 254.623 382.432 255.007 382.144C255.391 381.856 255.751 381.504 256.087 381.088L257.455 382.768C256.943 383.488 256.207 384.08 255.247 384.544C254.303 385.008 253.319 385.24 252.295 385.24ZM264.635 385.24C263.595 385.24 262.643 384.952 261.779 384.376C260.931 383.8 260.251 383.016 259.739 382.024C259.227 381.032 258.971 379.912 258.971 378.664C258.971 377.4 259.227 376.28 259.739 375.304C260.267 374.312 260.971 373.536 261.851 372.976C262.747 372.416 263.747 372.136 264.851 372.136C265.507 372.136 266.107 372.232 266.651 372.424C267.195 372.616 267.667 372.888 268.067 373.24C268.483 373.576 268.819 373.968 269.075 374.416C269.347 374.864 269.515 375.344 269.579 375.856L269.027 375.664V372.4H271.523V385H269.027V382L269.603 381.832C269.507 382.264 269.307 382.688 269.003 383.104C268.715 383.504 268.339 383.864 267.875 384.184C267.427 384.504 266.923 384.76 266.363 384.952C265.819 385.144 265.243 385.24 264.635 385.24ZM265.283 382.96C266.035 382.96 266.699 382.776 267.275 382.408C267.851 382.04 268.299 381.536 268.619 380.896C268.955 380.24 269.123 379.496 269.123 378.664C269.123 377.848 268.955 377.12 268.619 376.48C268.299 375.84 267.851 375.336 267.275 374.968C266.699 374.6 266.035 374.416 265.283 374.416C264.547 374.416 263.891 374.6 263.315 374.968C262.755 375.336 262.307 375.84 261.971 376.48C261.651 377.12 261.491 377.848 261.491 378.664C261.491 379.496 261.651 380.24 261.971 380.896C262.307 381.536 262.755 382.04 263.315 382.408C263.891 382.776 264.547 382.96 265.283 382.96ZM274.974 385V372.4H277.446V374.992L277.014 375.28C277.174 374.72 277.486 374.208 277.95 373.744C278.414 373.264 278.966 372.88 279.606 372.592C280.246 372.288 280.902 372.136 281.574 372.136C282.534 372.136 283.334 372.328 283.974 372.712C284.614 373.08 285.094 373.648 285.414 374.416C285.734 375.184 285.894 376.152 285.894 377.32V385H283.422V377.488C283.422 376.768 283.326 376.176 283.134 375.712C282.942 375.232 282.646 374.888 282.246 374.68C281.846 374.456 281.35 374.36 280.758 374.392C280.278 374.392 279.838 374.472 279.438 374.632C279.038 374.776 278.686 374.984 278.382 375.256C278.094 375.528 277.862 375.848 277.686 376.216C277.526 376.568 277.446 376.952 277.446 377.368V385H276.222C276.014 385 275.806 385 275.598 385C275.39 385 275.182 385 274.974 385ZM289.248 385V372.4H291.72V374.992L291.288 375.28C291.448 374.72 291.76 374.208 292.224 373.744C292.688 373.264 293.24 372.88 293.88 372.592C294.52 372.288 295.176 372.136 295.848 372.136C296.808 372.136 297.608 372.328 298.248 372.712C298.888 373.08 299.368 373.648 299.688 374.416C300.008 375.184 300.168 376.152 300.168 377.32V385H297.696V377.488C297.696 376.768 297.6 376.176 297.408 375.712C297.216 375.232 296.92 374.888 296.52 374.68C296.12 374.456 295.624 374.36 295.032 374.392C294.552 374.392 294.112 374.472 293.712 374.632C293.312 374.776 292.96 374.984 292.656 375.256C292.368 375.528 292.136 375.848 291.96 376.216C291.8 376.568 291.72 376.952 291.72 377.368V385H290.496C290.288 385 290.08 385 289.872 385C289.664 385 289.456 385 289.248 385ZM309.185 385.24C307.953 385.24 306.849 384.96 305.873 384.4C304.913 383.824 304.153 383.048 303.593 382.072C303.033 381.08 302.753 379.952 302.753 378.688C302.753 377.424 303.033 376.304 303.593 375.328C304.153 374.336 304.913 373.56 305.873 373C306.849 372.424 307.953 372.136 309.185 372.136C310.401 372.136 311.489 372.424 312.449 373C313.425 373.56 314.193 374.336 314.753 375.328C315.313 376.304 315.593 377.424 315.593 378.688C315.593 379.952 315.313 381.08 314.753 382.072C314.193 383.048 313.425 383.824 312.449 384.4C311.489 384.96 310.401 385.24 309.185 385.24ZM309.185 382.984C309.937 382.984 310.609 382.8 311.201 382.432C311.793 382.048 312.257 381.536 312.593 380.896C312.929 380.24 313.089 379.504 313.073 378.688C313.089 377.856 312.929 377.12 312.593 376.48C312.257 375.824 311.793 375.312 311.201 374.944C310.609 374.576 309.937 374.392 309.185 374.392C308.433 374.392 307.753 374.584 307.145 374.968C306.553 375.336 306.089 375.848 305.753 376.504C305.417 377.144 305.257 377.872 305.273 378.688C305.257 379.504 305.417 380.24 305.753 380.896C306.089 381.536 306.553 382.048 307.145 382.432C307.753 382.8 308.433 382.984 309.185 382.984ZM319.847 385V369.184H322.319V385H319.847ZM317.231 374.8V372.4H325.247V374.8H317.231ZM45.1975 420.24C44.1415 420.24 43.1895 420.056 42.3415 419.688C41.4935 419.32 40.7895 418.776 40.2295 418.056L41.9095 416.616C42.3895 417.176 42.9095 417.584 43.4695 417.84C44.0455 418.08 44.6935 418.2 45.4135 418.2C45.7015 418.2 45.9655 418.168 46.2055 418.104C46.4615 418.024 46.6775 417.912 46.8535 417.768C47.0455 417.624 47.1895 417.456 47.2855 417.264C47.3815 417.056 47.4295 416.832 47.4295 416.592C47.4295 416.176 47.2775 415.84 46.9735 415.584C46.8135 415.472 46.5575 415.352 46.2055 415.224C45.8695 415.08 45.4295 414.936 44.8855 414.792C43.9575 414.552 43.1975 414.28 42.6055 413.976C42.0135 413.672 41.5575 413.328 41.2375 412.944C40.9975 412.64 40.8215 412.312 40.7095 411.96C40.5975 411.592 40.5415 411.192 40.5415 410.76C40.5415 410.232 40.6535 409.752 40.8775 409.32C41.1175 408.872 41.4375 408.488 41.8375 408.168C42.2535 407.832 42.7335 407.576 43.2775 407.4C43.8375 407.224 44.4295 407.136 45.0535 407.136C45.6455 407.136 46.2295 407.216 46.8055 407.376C47.3975 407.536 47.9415 407.768 48.4375 408.072C48.9335 408.376 49.3495 408.736 49.6855 409.152L48.2695 410.712C47.9655 410.408 47.6295 410.144 47.2615 409.92C46.9095 409.68 46.5495 409.496 46.1815 409.368C45.8135 409.24 45.4775 409.176 45.1735 409.176C44.8375 409.176 44.5335 409.208 44.2615 409.272C43.9895 409.336 43.7575 409.432 43.5655 409.56C43.3895 409.688 43.2535 409.848 43.1575 410.04C43.0615 410.232 43.0135 410.448 43.0135 410.688C43.0295 410.896 43.0775 411.096 43.1575 411.288C43.2535 411.464 43.3815 411.616 43.5415 411.744C43.7175 411.872 43.9815 412.008 44.3335 412.152C44.6855 412.296 45.1335 412.432 45.6775 412.56C46.4775 412.768 47.1335 413 47.6455 413.256C48.1735 413.496 48.5895 413.776 48.8935 414.096C49.2135 414.4 49.4375 414.752 49.5655 415.152C49.6935 415.552 49.7575 416 49.7575 416.496C49.7575 417.216 49.5495 417.864 49.1335 418.44C48.7335 419 48.1895 419.44 47.5015 419.76C46.8135 420.08 46.0455 420.24 45.1975 420.24ZM58.3619 420.24C57.0659 420.24 55.9139 419.968 54.9059 419.424C53.9139 418.864 53.1299 418.104 52.5539 417.144C51.9939 416.184 51.7139 415.08 51.7139 413.832C51.7139 412.84 51.8739 411.936 52.1939 411.12C52.5139 410.304 52.9539 409.6 53.5139 409.008C54.0899 408.4 54.7699 407.936 55.5539 407.616C56.3539 407.28 57.2179 407.112 58.1459 407.112C58.9619 407.112 59.7219 407.272 60.4259 407.592C61.1299 407.896 61.7379 408.32 62.2499 408.864C62.7779 409.408 63.1779 410.056 63.4499 410.808C63.7379 411.544 63.8739 412.352 63.8579 413.232L63.8339 414.288H53.5379L52.9859 412.32H61.6979L61.3379 412.728V412.152C61.2899 411.624 61.1139 411.152 60.8099 410.736C60.5059 410.32 60.1219 409.992 59.6579 409.752C59.1939 409.512 58.6899 409.392 58.1459 409.392C57.2819 409.392 56.5539 409.56 55.9619 409.896C55.3699 410.216 54.9219 410.696 54.6179 411.336C54.3139 411.96 54.1619 412.736 54.1619 413.664C54.1619 414.544 54.3459 415.312 54.7139 415.968C55.0819 416.608 55.6019 417.104 56.2739 417.456C56.9459 417.808 57.7219 417.984 58.6019 417.984C59.2259 417.984 59.8019 417.88 60.3299 417.672C60.8739 417.464 61.4579 417.088 62.0819 416.544L63.3299 418.296C62.9459 418.68 62.4739 419.016 61.9139 419.304C61.3699 419.592 60.7859 419.824 60.1619 420C59.5539 420.16 58.9539 420.24 58.3619 420.24ZM72.4244 420.24C71.1284 420.24 69.9764 419.968 68.9684 419.424C67.9764 418.864 67.1924 418.104 66.6164 417.144C66.0564 416.184 65.7764 415.08 65.7764 413.832C65.7764 412.84 65.9364 411.936 66.2564 411.12C66.5764 410.304 67.0164 409.6 67.5764 409.008C68.1524 408.4 68.8324 407.936 69.6164 407.616C70.4164 407.28 71.2804 407.112 72.2084 407.112C73.0244 407.112 73.7844 407.272 74.4884 407.592C75.1924 407.896 75.8004 408.32 76.3124 408.864C76.8404 409.408 77.2404 410.056 77.5124 410.808C77.8004 411.544 77.9364 412.352 77.9204 413.232L77.8964 414.288H67.6004L67.0484 412.32H75.7604L75.4004 412.728V412.152C75.3524 411.624 75.1764 411.152 74.8724 410.736C74.5684 410.32 74.1844 409.992 73.7204 409.752C73.2564 409.512 72.7524 409.392 72.2084 409.392C71.3444 409.392 70.6164 409.56 70.0244 409.896C69.4324 410.216 68.9844 410.696 68.6804 411.336C68.3764 411.96 68.2244 412.736 68.2244 413.664C68.2244 414.544 68.4084 415.312 68.7764 415.968C69.1444 416.608 69.6644 417.104 70.3364 417.456C71.0084 417.808 71.7844 417.984 72.6644 417.984C73.2884 417.984 73.8644 417.88 74.3924 417.672C74.9364 417.464 75.5204 417.088 76.1444 416.544L77.3924 418.296C77.0084 418.68 76.5364 419.016 75.9764 419.304C75.4324 419.592 74.8484 419.824 74.2244 420C73.6164 420.16 73.0164 420.24 72.4244 420.24ZM88.8935 420V404.184H91.3655V420H88.8935ZM86.2775 409.8V407.4H94.2935V409.8H86.2775ZM96.5444 420V402.24H99.0164V409.992L98.5844 410.28C98.7444 409.72 99.0564 409.208 99.5204 408.744C99.9844 408.264 100.536 407.88 101.176 407.592C101.816 407.288 102.472 407.136 103.144 407.136C104.104 407.136 104.904 407.328 105.544 407.712C106.184 408.08 106.664 408.648 106.984 409.416C107.304 410.184 107.464 411.152 107.464 412.32V420H104.992V412.488C104.992 411.768 104.896 411.176 104.704 410.712C104.512 410.232 104.216 409.888 103.816 409.68C103.416 409.456 102.92 409.36 102.328 409.392C101.848 409.392 101.408 409.472 101.008 409.632C100.608 409.776 100.256 409.984 99.9524 410.256C99.6644 410.528 99.4324 410.848 99.2564 411.216C99.0964 411.568 99.0164 411.952 99.0164 412.368V420H97.7924C97.5844 420 97.3764 420 97.1684 420C96.9604 420 96.7524 420 96.5444 420ZM116.698 420.24C115.402 420.24 114.25 419.968 113.242 419.424C112.25 418.864 111.466 418.104 110.89 417.144C110.33 416.184 110.05 415.08 110.05 413.832C110.05 412.84 110.21 411.936 110.53 411.12C110.85 410.304 111.29 409.6 111.85 409.008C112.426 408.4 113.106 407.936 113.89 407.616C114.69 407.28 115.554 407.112 116.482 407.112C117.298 407.112 118.058 407.272 118.762 407.592C119.466 407.896 120.074 408.32 120.586 408.864C121.114 409.408 121.514 410.056 121.786 410.808C122.074 411.544 122.21 412.352 122.194 413.232L122.17 414.288H111.874L111.322 412.32H120.034L119.674 412.728V412.152C119.626 411.624 119.45 411.152 119.146 410.736C118.842 410.32 118.458 409.992 117.994 409.752C117.53 409.512 117.026 409.392 116.482 409.392C115.618 409.392 114.89 409.56 114.298 409.896C113.706 410.216 113.258 410.696 112.954 411.336C112.65 411.96 112.498 412.736 112.498 413.664C112.498 414.544 112.682 415.312 113.05 415.968C113.418 416.608 113.938 417.104 114.61 417.456C115.282 417.808 116.058 417.984 116.938 417.984C117.562 417.984 118.138 417.88 118.666 417.672C119.21 417.464 119.794 417.088 120.418 416.544L121.666 418.296C121.282 418.68 120.81 419.016 120.25 419.304C119.706 419.592 119.122 419.824 118.498 420C117.89 420.16 117.29 420.24 116.698 420.24ZM136.959 420.24C135.791 420.24 134.743 419.952 133.815 419.376C132.903 418.8 132.175 418.016 131.631 417.024C131.103 416.032 130.839 414.92 130.839 413.688C130.839 412.456 131.103 411.344 131.631 410.352C132.175 409.36 132.903 408.576 133.815 408C134.743 407.424 135.791 407.136 136.959 407.136C138.079 407.136 139.095 407.368 140.007 407.832C140.935 408.28 141.639 408.896 142.119 409.68L140.751 411.36C140.495 410.992 140.167 410.656 139.767 410.352C139.367 410.048 138.943 409.808 138.495 409.632C138.047 409.456 137.615 409.368 137.199 409.368C136.431 409.368 135.743 409.56 135.135 409.944C134.543 410.312 134.071 410.824 133.719 411.48C133.367 412.136 133.191 412.872 133.191 413.688C133.191 414.504 133.375 415.24 133.743 415.896C134.111 416.536 134.599 417.048 135.207 417.432C135.815 417.816 136.487 418.008 137.223 418.008C137.655 418.008 138.071 417.936 138.471 417.792C138.887 417.648 139.287 417.432 139.671 417.144C140.055 416.856 140.415 416.504 140.751 416.088L142.119 417.768C141.607 418.488 140.871 419.08 139.911 419.544C138.967 420.008 137.983 420.24 136.959 420.24ZM149.299 420.24C148.259 420.24 147.307 419.952 146.443 419.376C145.595 418.8 144.915 418.016 144.403 417.024C143.891 416.032 143.635 414.912 143.635 413.664C143.635 412.4 143.891 411.28 144.403 410.304C144.931 409.312 145.635 408.536 146.515 407.976C147.411 407.416 148.411 407.136 149.515 407.136C150.171 407.136 150.771 407.232 151.315 407.424C151.859 407.616 152.331 407.888 152.731 408.24C153.147 408.576 153.483 408.968 153.739 409.416C154.011 409.864 154.179 410.344 154.243 410.856L153.691 410.664V407.4H156.187V420H153.691V417L154.267 416.832C154.171 417.264 153.971 417.688 153.667 418.104C153.379 418.504 153.003 418.864 152.539 419.184C152.091 419.504 151.587 419.76 151.027 419.952C150.483 420.144 149.907 420.24 149.299 420.24ZM149.947 417.96C150.699 417.96 151.363 417.776 151.939 417.408C152.515 417.04 152.963 416.536 153.283 415.896C153.619 415.24 153.787 414.496 153.787 413.664C153.787 412.848 153.619 412.12 153.283 411.48C152.963 410.84 152.515 410.336 151.939 409.968C151.363 409.6 150.699 409.416 149.947 409.416C149.211 409.416 148.555 409.6 147.979 409.968C147.419 410.336 146.971 410.84 146.635 411.48C146.315 412.12 146.155 412.848 146.155 413.664C146.155 414.496 146.315 415.24 146.635 415.896C146.971 416.536 147.419 417.04 147.979 417.408C148.555 417.776 149.211 417.96 149.947 417.96ZM159.638 420V407.4H162.134V411.36L161.894 410.4C162.07 409.792 162.366 409.24 162.782 408.744C163.214 408.248 163.702 407.856 164.246 407.568C164.806 407.28 165.382 407.136 165.974 407.136C166.246 407.136 166.502 407.16 166.742 407.208C166.998 407.256 167.198 407.312 167.342 407.376L166.694 410.064C166.502 409.984 166.286 409.92 166.046 409.872C165.822 409.808 165.598 409.776 165.374 409.776C164.942 409.776 164.526 409.864 164.126 410.04C163.742 410.2 163.398 410.432 163.094 410.736C162.806 411.024 162.574 411.368 162.398 411.768C162.222 412.152 162.134 412.576 162.134 413.04V420H159.638ZM174.035 420.24C172.883 420.24 171.851 419.96 170.939 419.4C170.043 418.824 169.331 418.048 168.803 417.072C168.275 416.08 168.011 414.952 168.011 413.688C168.011 412.424 168.267 411.304 168.779 410.328C169.307 409.336 170.019 408.56 170.915 408C171.811 407.424 172.827 407.136 173.963 407.136C174.587 407.136 175.187 407.24 175.763 407.448C176.355 407.64 176.883 407.912 177.347 408.264C177.811 408.6 178.171 408.976 178.427 409.392C178.699 409.792 178.835 410.2 178.835 410.616L178.115 410.664V402.24H180.587V420H178.115V417H178.595C178.595 417.384 178.467 417.768 178.211 418.152C177.955 418.52 177.611 418.864 177.179 419.184C176.763 419.504 176.275 419.76 175.715 419.952C175.171 420.144 174.611 420.24 174.035 420.24ZM174.371 418.104C175.123 418.104 175.787 417.912 176.363 417.528C176.939 417.144 177.387 416.624 177.707 415.968C178.043 415.296 178.211 414.536 178.211 413.688C178.211 412.84 178.043 412.088 177.707 411.432C177.387 410.76 176.939 410.232 176.363 409.848C175.787 409.464 175.123 409.272 174.371 409.272C173.619 409.272 172.955 409.464 172.379 409.848C171.803 410.232 171.347 410.76 171.011 411.432C170.691 412.088 170.531 412.84 170.531 413.688C170.531 414.536 170.691 415.296 171.011 415.968C171.347 416.624 171.803 417.144 172.379 417.528C172.955 417.912 173.619 418.104 174.371 418.104ZM188.19 420.24C187.134 420.24 186.182 420.056 185.334 419.688C184.486 419.32 183.782 418.776 183.222 418.056L184.902 416.616C185.382 417.176 185.902 417.584 186.462 417.84C187.038 418.08 187.686 418.2 188.406 418.2C188.694 418.2 188.958 418.168 189.198 418.104C189.454 418.024 189.67 417.912 189.846 417.768C190.038 417.624 190.182 417.456 190.278 417.264C190.374 417.056 190.422 416.832 190.422 416.592C190.422 416.176 190.27 415.84 189.966 415.584C189.806 415.472 189.55 415.352 189.198 415.224C188.862 415.08 188.422 414.936 187.878 414.792C186.95 414.552 186.19 414.28 185.598 413.976C185.006 413.672 184.55 413.328 184.23 412.944C183.99 412.64 183.814 412.312 183.702 411.96C183.59 411.592 183.534 411.192 183.534 410.76C183.534 410.232 183.646 409.752 183.87 409.32C184.11 408.872 184.43 408.488 184.83 408.168C185.246 407.832 185.726 407.576 186.27 407.4C186.83 407.224 187.422 407.136 188.046 407.136C188.638 407.136 189.222 407.216 189.798 407.376C190.39 407.536 190.934 407.768 191.43 408.072C191.926 408.376 192.342 408.736 192.678 409.152L191.262 410.712C190.958 410.408 190.622 410.144 190.254 409.92C189.902 409.68 189.542 409.496 189.174 409.368C188.806 409.24 188.47 409.176 188.166 409.176C187.83 409.176 187.526 409.208 187.254 409.272C186.982 409.336 186.75 409.432 186.558 409.56C186.382 409.688 186.246 409.848 186.15 410.04C186.054 410.232 186.006 410.448 186.006 410.688C186.022 410.896 186.07 411.096 186.15 411.288C186.246 411.464 186.374 411.616 186.534 411.744C186.71 411.872 186.974 412.008 187.326 412.152C187.678 412.296 188.126 412.432 188.67 412.56C189.47 412.768 190.126 413 190.638 413.256C191.166 413.496 191.582 413.776 191.886 414.096C192.206 414.4 192.43 414.752 192.558 415.152C192.686 415.552 192.75 416 192.75 416.496C192.75 417.216 192.542 417.864 192.126 418.44C191.726 419 191.182 419.44 190.494 419.76C189.806 420.08 189.038 420.24 188.19 420.24ZM202.201 420V407.4H204.673V409.992L204.241 410.28C204.401 409.72 204.713 409.208 205.177 408.744C205.641 408.264 206.193 407.88 206.833 407.592C207.473 407.288 208.129 407.136 208.801 407.136C209.761 407.136 210.561 407.328 211.201 407.712C211.841 408.08 212.321 408.648 212.641 409.416C212.961 410.184 213.121 411.152 213.121 412.32V420H210.649V412.488C210.649 411.768 210.553 411.176 210.361 410.712C210.169 410.232 209.873 409.888 209.473 409.68C209.073 409.456 208.577 409.36 207.985 409.392C207.505 409.392 207.065 409.472 206.665 409.632C206.265 409.776 205.913 409.984 205.609 410.256C205.321 410.528 205.089 410.848 204.913 411.216C204.753 411.568 204.673 411.952 204.673 412.368V420H203.449C203.241 420 203.033 420 202.825 420C202.617 420 202.409 420 202.201 420ZM222.354 420.24C221.058 420.24 219.906 419.968 218.898 419.424C217.906 418.864 217.122 418.104 216.546 417.144C215.986 416.184 215.706 415.08 215.706 413.832C215.706 412.84 215.866 411.936 216.186 411.12C216.506 410.304 216.946 409.6 217.506 409.008C218.082 408.4 218.762 407.936 219.546 407.616C220.346 407.28 221.21 407.112 222.138 407.112C222.954 407.112 223.714 407.272 224.418 407.592C225.122 407.896 225.73 408.32 226.242 408.864C226.77 409.408 227.17 410.056 227.442 410.808C227.73 411.544 227.866 412.352 227.85 413.232L227.826 414.288H217.53L216.978 412.32H225.69L225.33 412.728V412.152C225.282 411.624 225.106 411.152 224.802 410.736C224.498 410.32 224.114 409.992 223.65 409.752C223.186 409.512 222.682 409.392 222.138 409.392C221.274 409.392 220.546 409.56 219.954 409.896C219.362 410.216 218.914 410.696 218.61 411.336C218.306 411.96 218.154 412.736 218.154 413.664C218.154 414.544 218.338 415.312 218.706 415.968C219.074 416.608 219.594 417.104 220.266 417.456C220.938 417.808 221.714 417.984 222.594 417.984C223.218 417.984 223.794 417.88 224.322 417.672C224.866 417.464 225.45 417.088 226.074 416.544L227.322 418.296C226.938 418.68 226.466 419.016 225.906 419.304C225.362 419.592 224.778 419.824 224.154 420C223.546 420.16 222.946 420.24 222.354 420.24ZM238.842 420L234.762 414.696L234.402 414.24L229.098 407.4H232.218L236.226 412.632L236.634 413.16L241.866 420H238.842ZM229.122 420L234.09 413.52L235.554 415.272L232.05 420H229.122ZM236.778 413.904L235.41 412.176L238.506 407.4H241.434L236.778 413.904ZM245.503 420V404.184H247.975V420H245.503ZM242.887 409.8V407.4H250.903V409.8H242.887ZM261.44 420V404.184H263.912V420H261.44ZM258.824 409.8V407.4H266.84V409.8H258.824ZM273.507 420.24C272.611 420.24 271.827 420.032 271.155 419.616C270.499 419.2 269.987 418.616 269.619 417.864C269.267 417.112 269.091 416.216 269.091 415.176V407.4H271.563V414.504C271.563 415.24 271.675 415.88 271.899 416.424C272.139 416.952 272.475 417.36 272.907 417.648C273.355 417.936 273.891 418.08 274.515 418.08C274.979 418.08 275.403 418.008 275.787 417.864C276.171 417.704 276.499 417.488 276.771 417.216C277.059 416.944 277.283 416.616 277.443 416.232C277.603 415.848 277.683 415.432 277.683 414.984V407.4H280.155V420H277.683V417.36L278.115 417.072C277.923 417.664 277.595 418.2 277.131 418.68C276.683 419.16 276.147 419.544 275.523 419.832C274.899 420.104 274.227 420.24 273.507 420.24ZM283.623 420V407.4H286.119V411.36L285.879 410.4C286.055 409.792 286.351 409.24 286.767 408.744C287.199 408.248 287.687 407.856 288.231 407.568C288.791 407.28 289.367 407.136 289.959 407.136C290.231 407.136 290.487 407.16 290.727 407.208C290.983 407.256 291.183 407.312 291.327 407.376L290.679 410.064C290.487 409.984 290.271 409.92 290.031 409.872C289.807 409.808 289.583 409.776 289.359 409.776C288.927 409.776 288.511 409.864 288.111 410.04C287.727 410.2 287.383 410.432 287.079 410.736C286.791 411.024 286.559 411.368 286.383 411.768C286.207 412.152 286.119 412.576 286.119 413.04V420H283.623ZM293.302 420V407.4H295.774V409.992L295.342 410.28C295.502 409.72 295.814 409.208 296.278 408.744C296.742 408.264 297.294 407.88 297.934 407.592C298.574 407.288 299.23 407.136 299.902 407.136C300.862 407.136 301.662 407.328 302.302 407.712C302.942 408.08 303.422 408.648 303.742 409.416C304.062 410.184 304.222 411.152 304.222 412.32V420H301.75V412.488C301.75 411.768 301.654 411.176 301.462 410.712C301.27 410.232 300.974 409.888 300.574 409.68C300.174 409.456 299.678 409.36 299.086 409.392C298.606 409.392 298.166 409.472 297.766 409.632C297.366 409.776 297.014 409.984 296.71 410.256C296.422 410.528 296.19 410.848 296.014 411.216C295.854 411.568 295.774 411.952 295.774 412.368V420H294.55C294.342 420 294.134 420 293.926 420C293.718 420 293.51 420 293.302 420Z" fill="#FAF9F6"/>
<path d="M189.998 308.395C187.385 314.348 188.062 322.612 188.728 326C204.119 323.532 206.757 313.235 206.152 308.395C209.237 303.676 210.145 300.772 207.422 297.505C205.244 294.891 197.319 291.939 193.628 290.789C194.354 288.369 195.661 282.767 195.08 279.718C194.354 275.907 191.269 272.64 187.639 270.643C184.735 269.046 184.614 268.042 184.916 267.739C186.55 265.682 191.487 261.242 198.166 259.935C204.845 258.628 211.113 251.283 213.412 247.774C213.775 249.226 212.686 250.497 224.846 249.408C234.574 248.537 241.483 240.212 243.722 236.159C260.601 236.522 266.953 214.923 267.135 213.834C267.28 212.963 268.042 212.745 268.405 212.745C279.295 212.382 280.747 196.773 281.655 188.062C282.562 179.35 278.932 166.463 271.128 157.57C263.324 148.677 242.996 135.064 213.593 129.075C184.19 123.085 159.507 124.537 147.528 126.534C135.549 128.53 125.93 135.79 125.022 137.968C124.296 139.711 123.268 140.509 122.844 140.691C91.6266 149.766 113.225 168.46 113.951 169.004C114.532 169.44 114.193 169.912 113.951 170.093C98.3419 185.158 120.122 196.048 123.933 198.225C126.982 199.968 126.535 201.008 125.93 201.311C110.865 211.475 145.35 220.913 147.891 221.094C149.924 221.239 149.948 222.607 149.706 223.272C143.353 239.425 156.603 248.319 158.599 249.045C160.196 249.626 159.628 250.497 159.144 250.86C148.109 259.862 149.464 267.679 151.521 270.462C136.856 276.27 153.759 282.561 164.044 284.981C162.738 290.644 173.422 294.238 178.927 295.327C176.749 303.748 185.4 307.548 189.998 308.395Z" fill="#D49D6B"/>
<path d="M206.24 308.404C209.324 303.687 210.231 300.785 207.51 297.52L195.988 297.868L188.183 287.704L176.204 263.928L196.169 240.877L192.902 194.777L156.421 125.445C140.994 126.715 134.278 131.071 132.826 131.797C131.665 132.378 131.253 133.007 131.193 133.249C130.89 134.52 129.85 136.988 128.107 136.698C126.365 136.407 125.324 137.424 125.022 137.968C124.296 139.711 123.267 140.509 122.844 140.691C101.064 147.225 117.399 163.922 119.032 164.83C120.339 165.556 119.577 166.463 119.032 166.826C103.605 178.624 126.655 193.325 129.922 194.777C132.536 195.939 131.737 197.318 131.012 197.862C117.944 208.389 149.343 216.92 152.791 217.283C155.55 217.573 155.635 218.856 155.332 219.461C147.165 235.251 163.5 244.87 164.589 245.415C165.46 245.85 164.952 246.564 164.589 246.867C153.554 256.45 155.151 263.928 157.329 266.469C142.664 272.277 159.446 278.689 169.671 281.17C169.38 287.994 179.592 291.031 184.735 291.697C182.702 299.683 191.148 303.857 195.625 304.946C192.43 312.496 193.447 319.466 194.354 322.007C204.518 321.571 206.513 312.757 206.24 308.404Z" fill="#C37F52"/>
<path d="M271.18 157.658C263.38 148.769 243.064 135.164 213.678 129.178C189.751 124.304 168.951 124.36 155.587 125.627C147.949 132.741 155.986 137.787 160.959 139.42C152.538 138.985 139.422 141.538 133.916 142.869C129.923 143.595 122.555 146.68 125.023 153.214C127.491 159.748 144.685 162.471 152.974 163.015C103.969 192.781 161.685 188.969 164.59 188.606C166.913 188.316 165.558 189.211 164.59 189.695C104.255 220.368 175.298 213.29 176.568 213.29C177.585 213.29 177.113 213.774 176.75 214.016C145.387 238.555 166.949 242.874 181.65 241.967C182.134 242.027 183.175 242.257 183.465 242.693C183.756 243.128 182.981 243.479 182.558 243.6C176.205 245.778 162.593 258.483 160.052 262.839C157.511 267.195 168.946 270.28 170.035 270.28C170.906 270.28 170.519 270.764 170.216 271.006C163.501 277.54 170.398 280.444 171.123 280.444C171.704 280.444 172.091 281.049 172.212 281.352C173.301 283.893 179.472 283.167 180.924 282.622C182.086 282.187 182.134 282.804 182.013 283.167C180.707 286.797 183.284 290.487 184.736 291.879C183.719 299.719 187.7 298.655 189.818 297.142C194.319 306.87 203.489 301.447 207.511 297.52C205.334 294.908 197.413 291.957 193.725 290.808C194.451 288.389 195.757 282.79 195.176 279.742C194.451 275.933 191.367 272.668 187.739 270.672C184.837 269.076 184.716 268.072 185.018 267.77C186.651 265.714 191.585 261.276 198.26 259.969C204.935 258.663 211.199 251.323 213.497 247.815C213.86 249.267 212.771 250.537 224.925 249.448C234.647 248.577 241.552 240.257 243.789 236.206C260.659 236.568 267.008 214.981 267.189 213.893C267.334 213.022 268.096 212.805 268.459 212.805C279.342 212.442 280.794 196.841 281.701 188.134C282.608 179.426 278.98 166.547 271.18 157.658Z" fill="#CD8F5F"/>
<path d="M189.998 274.092C193.048 276.124 192.116 281.351 191.269 283.711C190.966 284.316 190.107 285.417 189.091 284.981C187.82 284.437 188.546 281.351 187.82 278.085C187.24 275.471 185.158 275.302 184.19 275.544L173.119 277.903C171.849 278.085 169.308 278.121 169.308 276.814C169.308 275.181 172.756 273.003 174.39 271.369C175.696 270.062 177.475 269.978 178.201 270.099C180.863 270.583 186.949 272.059 189.998 274.092Z" fill="#DFA274"/>
<path d="M197.077 250.134C192.431 250.279 182.557 253.461 178.201 255.034C172.272 257.454 161.576 260.951 166.222 255.579C170.869 250.206 183.767 245.959 189.635 244.507C193.991 243.6 201.905 241.24 198.71 239.062C194.717 236.34 179.835 234.344 175.297 234.344C171.667 234.344 169.55 233.497 168.945 233.073C168.521 232.65 169.163 231.004 175.116 227.81C181.069 224.615 194.899 224.906 201.07 225.45C201.977 225.511 204.083 225.486 205.244 224.906C206.406 224.325 209.116 223.938 210.326 223.817C220.672 222.728 232.288 225.995 236.099 228.354C239.911 230.714 239.185 235.251 236.825 239.788C234.937 243.418 225.754 244.447 221.398 244.507C218.857 244.568 213.303 245.161 211.415 247.048C209.056 249.408 202.885 249.952 197.077 250.134Z" fill="#DFA274"/>
<path d="M215.589 248.138C216.46 247.557 218.009 245.234 218.674 244.145C220.126 248.646 232.226 245.294 238.095 243.056C231.016 250.86 217.948 249.771 216.859 249.771C215.77 249.771 214.5 248.864 215.589 248.138Z" fill="#DDA475"/>
<path d="M247.896 234.344C248.476 233.908 249.106 232.831 249.348 232.347C251.526 233.073 255.821 231.319 257.696 230.351C255.337 233.073 250.981 234.888 249.711 235.251C248.44 235.614 247.17 234.888 247.896 234.344Z" fill="#DDA475"/>
<path d="M272.217 211.838C272.652 211.547 272.882 209.902 272.943 209.115C273.814 209.261 275.242 209.055 275.847 208.934C275.121 210.095 273.124 211.354 272.217 211.838Z" fill="#DDA475"/>
<path d="M215.407 214.016C201.614 209.37 169.973 206.998 155.876 206.393C168.763 206.393 215.226 191.51 218.674 190.24C221.433 189.223 219.461 188.485 218.13 188.243C204.699 186.065 158.599 179.35 153.154 178.442C148.798 177.716 151.097 176.204 152.791 175.538C176.748 166.826 232.831 177.535 235.372 177.716C237.405 177.862 236.461 177.172 235.735 176.809C218.493 168.097 144.26 153.759 134.641 150.855C126.945 148.531 132.523 147.104 136.274 146.68C160.958 144.139 227.931 155.937 231.561 155.937C234.465 155.937 232.892 154.485 231.742 153.759C223.938 148.495 181.286 135.064 172.574 132.342C165.604 130.164 169.428 129.135 172.211 128.893C194.862 126.715 236.461 141.296 254.43 148.858C256.97 149.826 262.161 152.597 262.597 155.937C263.033 159.276 260.721 161.079 259.511 161.563C260.903 162.349 264.122 164.358 265.864 166.1C268.042 168.278 268.405 174.449 266.771 178.079C265.138 181.709 259.693 181.891 255.337 181.891C251.852 181.891 253.885 183.464 255.337 184.25C263.686 188.969 266.771 194.233 266.408 195.685C266.045 197.137 263.867 198.407 258.059 198.589C252.252 198.77 235.735 194.051 232.105 193.325C229.201 192.744 230.048 194.172 230.835 194.959C232.771 196.895 237.332 201.42 240.091 204.033C243.54 207.3 244.629 212.564 242.269 215.831C239.91 219.098 232.65 219.824 215.407 214.016Z" fill="#DFA274"/>
<path d="M162.773 120C126.909 120.29 114.676 133.31 113.043 139.783C116.673 135.79 132.826 129.801 138.634 127.986C143.281 126.534 156.663 122.057 162.773 120Z" fill="#FEDBA7"/>
<path d="M184.19 122.904C209.455 117.241 244.326 128.893 258.604 135.427C228.294 126.534 193.265 126.897 184.372 125.808C177.257 124.937 181.286 123.509 184.19 122.904Z" fill="#FEDBA7"/>
<path d="M135.367 168.097C107.78 183.924 106.691 196.834 109.595 201.311C111.228 195.14 114.495 192.418 127.2 184.069C137.364 177.39 136.88 170.638 135.367 168.097Z" fill="#FEDBA7"/>
<path d="M138.09 222.183C110.502 226.249 139.179 203.065 156.965 190.966C127.018 202.4 115.039 220.55 121.755 225.995C127.127 230.351 134.883 225.269 138.09 222.183Z" fill="#FEDBA7"/>
<path d="M138.271 240.515C159.47 227.302 181.952 226.66 190.543 227.991C162.773 228.717 149.706 237.792 146.439 240.515C143.172 243.237 143.353 247.775 144.261 249.953C144.987 251.695 143.716 252.373 142.99 252.494C141.599 252.736 138.053 252.385 135.004 249.045C131.955 245.706 135.912 241.967 138.271 240.515Z" fill="#AC6634"/>
<path d="M191.632 286.071C151.267 299.429 159.809 289.942 169.126 283.53L159.507 289.882C155.998 292.362 150.686 297.505 157.51 298.231C164.335 298.957 183.102 290.426 191.632 286.071Z" fill="#AC6634"/>
<path d="M195.807 290.789C227.169 288.902 212.746 298.594 201.615 303.676C207.241 303.494 227.387 296.234 219.22 290.245C212.686 285.453 200.889 288.611 195.807 290.789Z" fill="#FEDBA7"/>
<path d="M197.077 263.565C197.077 270.099 169.974 264.351 156.422 260.661C195.988 273.003 202.341 271.369 204.337 269.736C205.934 268.429 200.163 265.077 197.077 263.565Z" fill="#FEDBA7"/>
<path d="M236.462 235.251C232.977 234.09 219.159 227.507 212.686 224.361C220.308 229.02 236.208 238.554 238.821 239.426C241.435 240.297 248.864 244.145 252.252 245.96C248.622 241.059 240.818 236.703 236.462 235.251Z" fill="#AC6634"/>
<path d="M220.853 212.019C239.729 218.263 250.74 229.867 253.886 234.888C240.999 224.18 234.465 225.087 226.298 221.094C219.764 217.9 219.945 213.713 220.853 212.019Z" fill="#C57F53"/>
<path d="M190.362 200.04C165.968 198.443 153.941 204.336 150.977 207.482C181.287 203.307 183.465 205.122 188.91 204.578C193.266 204.142 191.693 201.371 190.362 200.04Z" fill="#AC6634"/>
<path d="M248.259 195.503C209.055 168.061 172.514 168.339 159.144 171.908C203.248 175.175 236.462 191.873 239.184 192.962C241.362 193.833 244.206 195.382 245.355 196.048C246.686 196.895 249.566 198.516 250.437 198.226C251.308 197.935 249.348 196.29 248.259 195.503Z" fill="#FEDBA7"/>
<path d="M176.022 158.841C212.032 155.646 245.718 168.883 258.059 175.901C247.17 170.819 229.383 167.734 221.397 166.645C215.008 165.774 188.485 161.079 176.022 158.841Z" fill="#FEDBA7"/>
<path d="M200.344 150.31C176.241 143.05 147.104 143.776 135.549 145.047C157.147 145.954 167.492 148.858 176.567 150.31C183.827 151.472 195.443 150.794 200.344 150.31Z" fill="#B87042"/>
<path d="M203.974 132.342C225.318 130.454 249.046 138.936 258.241 143.413C250.437 141.114 233.122 136.407 226.298 135.972C219.474 135.536 208.572 133.37 203.974 132.342Z" fill="#AC6634"/>
<path d="M253.704 157.207C264.957 168.339 287.572 190.966 288.007 192.418C287.039 183.101 278.823 163.015 253.704 157.207Z" fill="#AC6634"/>
<path d="M271.128 227.628C271.564 230.823 267.559 232.71 265.502 233.255C269.495 233.255 277.299 232.093 276.573 227.447C275.666 221.639 255.338 208.208 252.252 207.301C249.784 206.575 250.619 207.845 251.345 208.571C257.758 213.592 270.693 224.434 271.128 227.628Z" fill="#FEDBA7"/>
<path d="M238 257C234.912 243.306 216.713 235.294 208 233C210.69 236.235 217.684 243.235 224.14 245.353C230.596 247.471 236.07 254 238 257Z" fill="#FEDBA7"/>
</svg>
