<svg width="395" height="491" viewBox="0 0 395 491" fill="none" xmlns="http://www.w3.org/2000/svg">
<rect width="394.099" height="490.871" rx="20" fill="#202020" fill-opacity="0.5"/>
<path d="M54.76 53.36C53.48 52.6133 51.96 52.24 50.2 52.24C48.44 52.24 47.0133 52.6933 45.92 53.6C45.8933 53.9733 45.88 54.3333 45.88 54.68C45.88 58.9467 48.16 61.08 52.72 61.08L52.52 62.56H52.04C49.9333 62.56 48.1867 62.9867 46.8 63.84C45.44 64.6667 44.76 66.0133 44.76 67.88C44.76 69.7467 45.4 71.2 46.68 72.24C47.96 73.2533 49.4667 73.76 51.2 73.76C52.9333 73.76 54.2933 73.44 55.28 72.8C55.4667 72.4267 55.56 71.84 55.56 71.04C55.56 70.24 55.4267 69.6933 55.16 69.4L55.2 69.12C55.8667 68.72 56.5333 68.16 57.2 67.44C57.52 67.4667 57.7733 67.6 57.96 67.84C58.1733 68.08 58.28 68.36 58.28 68.68C58.28 70.3067 57.5067 71.8933 55.96 73.44C54.44 74.96 52.7733 76.0133 50.96 76.6C48.1067 76.6 45.7333 75.9067 43.84 74.52C41.9467 73.1333 41 71.16 41 68.6C41 66.76 41.7733 65.2267 43.32 64C44.8667 62.7733 46.6267 62.16 48.6 62.16V62C46.7867 61.8933 45.2667 61.3867 44.04 60.48C42.84 59.5733 42.24 58.32 42.24 56.72C43.2 55.0133 44.4667 53.48 46.04 52.12C47.64 50.76 49.3467 49.84 51.16 49.36C53.0533 49.36 54.92 49.6133 56.76 50.12C57.1867 49.9067 57.7333 49.4933 58.4 48.88L59.24 49.44C57.48 51.5733 56.4 54.12 56 57.08H54.96C54.96 55.6133 54.8933 54.3733 54.76 53.36ZM71.5878 73.76C71.5878 72.1067 71.1745 69.64 70.3478 66.36C69.5211 63.0533 68.6011 59.8533 67.5878 56.76L67.4278 56.8L66.4278 64.24C66.0011 67.3067 65.7878 70.0667 65.7878 72.52C65.7878 74.0133 66.2545 75.0133 67.1878 75.52L67.0278 76.2C66.2278 76.0667 65.1745 76 63.8678 76C62.5878 76 61.1745 76.1067 59.6278 76.32L59.4678 75.28C60.3745 74.9867 61.2278 74.7733 62.0278 74.64L65.7478 56.4C64.3611 56.16 63.3345 55.9467 62.6678 55.76L62.7878 54.72C64.7078 55.0133 66.4811 55.16 68.1078 55.16C69.7611 55.16 71.0411 55.0667 71.9478 54.88L72.0278 55.56C71.3078 55.7467 70.9478 56.0533 70.9478 56.48C70.9478 57.0667 71.7745 60.4533 73.4278 66.64L74.3078 69.64L74.5878 69.56C74.5878 68.8667 75.8011 64.52 78.2278 56.52C78.2278 56.0667 77.8678 55.7467 77.1478 55.56L77.2278 54.88C78.1345 55.0667 79.4145 55.16 81.0678 55.16C82.7478 55.16 84.5345 55.0133 86.4278 54.72L86.5478 55.76C85.8278 55.9467 84.9078 56.1467 83.7878 56.36C83.7078 57 83.6678 57.9467 83.6678 59.2C83.6678 60.4267 83.8411 62.96 84.1878 66.8C84.5345 70.64 84.8545 73.28 85.1478 74.72C86.1345 74.8533 87.1478 75.04 88.1878 75.28L88.0678 76.28C86.6811 76.0933 85.1345 76 83.4278 76C81.7478 76 80.2278 76.1067 78.8678 76.32L78.7078 75.28C79.5878 75.0133 80.5345 74.8133 81.5478 74.68C81.4678 68.3867 81.0411 62.4533 80.2678 56.88H80.1478C77.4011 64.9867 75.9345 70.24 75.7478 72.64C75.1878 72.8267 74.5345 73.1733 73.7878 73.68C73.0411 74.16 72.4678 74.64 72.0678 75.12L71.5878 74.8V73.76ZM93.6931 66.12C93.7731 68.4933 94.2131 70.3467 95.0131 71.68C95.8131 73.0133 97.1731 73.68 99.0931 73.68C101.013 73.68 102.786 72.8667 104.413 71.24L104.973 71.8C103.186 74.0667 101.04 75.6267 98.5331 76.48C95.9465 76.48 93.9198 75.6667 92.4531 74.04C90.9865 72.3867 90.2531 70.1733 90.2531 67.4C90.2531 64.6 91.1198 61.9733 92.8531 59.52C94.5865 57.0667 96.7998 55.4533 99.4931 54.68C101.44 54.68 103.64 54.88 106.093 55.28L106.053 56.16C105.546 56.16 105.066 56.2533 104.613 56.44C104.106 57.64 103.773 59.0667 103.613 60.72H102.613C102.4 59.8133 102.293 58.88 102.293 57.92C101.28 57.4133 100.08 57.16 98.6931 57.16C97.3065 57.16 96.1598 57.5333 95.2531 58.28C94.3465 59.9333 93.8265 61.9067 93.6931 64.2C94.8131 64.3867 96.0131 64.48 97.2931 64.48C99.5065 64.48 100.84 64.0133 101.293 63.08L102.133 63.2C101.893 64 101.773 64.7867 101.773 65.56C101.773 66.3333 101.866 67.28 102.053 68.4L101.093 68.56C100.8 67.76 100.586 66.9333 100.453 66.08C99.3865 65.9733 98.3198 65.92 97.2531 65.92C96.2131 65.92 95.0265 65.9867 93.6931 66.12ZM108.103 55.24L117.303 54.96C119.703 54.96 121.503 55.32 122.703 56.04C123.903 56.7333 124.503 58.0133 124.503 59.88C124.503 61.16 124.103 62.2933 123.303 63.28C122.529 64.2667 121.503 65 120.223 65.48L124.703 74.64C125.609 74.8 126.463 74.9867 127.263 75.2L127.103 76.28C125.983 76.0933 124.716 76 123.303 76C121.916 76 120.823 76.0667 120.023 76.2L119.863 75.56C120.209 75.2133 120.383 74.64 120.383 73.84C120.383 72.2133 119.449 69.6 117.583 66C117.023 65.8933 116.369 65.84 115.623 65.84L115.703 64.68H116.103C119.249 64.68 120.823 63.24 120.823 60.36C120.823 57.6933 119.476 56.36 116.783 56.36C115.876 56.36 115.063 56.5067 114.343 56.8C114.156 58.56 114.063 61.5733 114.063 65.84C114.063 70.1067 114.183 73.0533 114.423 74.68C115.596 74.8133 116.689 75.0133 117.703 75.28L117.583 76.28C116.196 76.0933 114.636 76 112.903 76C111.196 76 109.663 76.1067 108.303 76.32L108.143 75.28C108.889 75.04 109.729 74.84 110.663 74.68C110.929 72.68 111.063 69.5733 111.063 65.36C111.063 61.12 110.943 58.1867 110.703 56.56C109.663 56.2133 108.796 56.04 108.103 56.04V55.24ZM131.758 54.72C134.264 55.0133 136.798 55.16 139.358 55.16C141.918 55.16 144.438 55.0133 146.918 54.72L147.078 55.76C146.278 56.08 145.451 56.32 144.598 56.48C144.304 58.6667 144.158 61.7067 144.158 65.6C144.158 69.4933 144.304 72.5333 144.598 74.72C145.131 74.8 146.118 75 147.558 75.32L147.398 76.32C146.118 76.1067 144.478 76 142.478 76C140.478 76 138.944 76.1067 137.878 76.32L137.717 75.28C138.624 74.9867 139.651 74.7733 140.798 74.64C140.958 73.0933 141.078 70.9467 141.158 68.2C139.904 68.0667 138.651 68 137.398 68C136.144 68 135.051 68.0667 134.118 68.2C133.584 70.3867 133.317 71.9067 133.317 72.76C133.317 74.0667 133.784 74.9867 134.718 75.52L134.558 76.2C133.944 76.0667 132.784 76 131.078 76C129.371 76 128.024 76.1067 127.037 76.32L126.877 75.28C127.518 75.04 128.398 74.8267 129.518 74.64L134.718 56.4C133.544 56.2133 132.518 56 131.638 55.76L131.758 54.72ZM134.438 66.32C135.478 66.48 136.624 66.56 137.878 66.56C139.158 66.56 140.251 66.48 141.158 66.32C141.158 61.3867 141.051 58.2 140.838 56.76C139.931 56.7067 139.251 56.68 138.798 56.68C138.371 56.68 137.704 56.7067 136.798 56.76L134.438 66.32ZM165.204 76.44C163.47 76.1467 161.11 76 158.124 76C155.164 76 152.684 76.1333 150.684 76.4L150.564 75.4C151.31 75.1067 152.164 74.8667 153.124 74.68C153.39 73.08 153.524 70.36 153.524 66.52V64.64C153.524 61.3333 153.39 58.6133 153.124 56.48C152.244 56.3467 151.404 56.1467 150.604 55.88L150.764 54.84C152.124 55.0533 153.724 55.16 155.564 55.16C157.404 55.16 158.977 55.0533 160.284 54.84L160.404 55.84C159.204 56.1333 158.017 56.3467 156.844 56.48C156.63 57.92 156.524 60.8933 156.524 65.4C156.524 69.88 156.63 72.8667 156.844 74.36C157.484 74.4667 158.39 74.52 159.564 74.52C160.737 74.52 161.79 74.2933 162.724 73.84C163.097 72.9333 163.284 71.8667 163.284 70.64H164.284C164.39 72.6933 164.764 74.36 165.404 75.64L165.204 76.44ZM166.573 55.24L175.773 54.96C178.813 54.96 181.146 55.68 182.773 57.12C184.426 58.56 185.253 60.72 185.253 63.6C185.253 66.4533 184.346 69.12 182.533 71.6C180.746 74.08 178.519 75.7067 175.853 76.48C175.159 76.48 174.253 76.3467 173.133 76.08C172.039 75.84 171.133 75.5733 170.413 75.28C170.119 75.6267 169.853 76.12 169.613 76.76L168.773 76.56C169.279 74.1867 169.533 70.84 169.533 66.52C169.533 62.1733 169.413 58.92 169.173 56.76C168.266 56.4133 167.399 56.24 166.573 56.24V55.24ZM180.333 59.24C179.853 58.3333 179.173 57.6267 178.293 57.12C177.439 56.6133 176.493 56.36 175.453 56.36C174.439 56.36 173.559 56.5067 172.813 56.8C172.626 58.5333 172.533 61.3067 172.533 65.12C172.533 68.9067 172.586 71.5333 172.693 73C174.026 73.6133 175.386 73.92 176.773 73.92C178.186 73.92 179.306 73.56 180.133 72.84C181.146 70.92 181.653 68.56 181.653 65.76C181.653 63.1467 181.213 60.9733 180.333 59.24Z" fill="#FAF9F6"/>
<path d="M40.3495 374.36V372.2H52.3735V374.36H40.3495ZM45.0775 378.992V367.4H47.5975V378.992H45.0775ZM61.8972 380V366.464L62.4972 366.608L56.9772 373.352L56.8812 373.064H67.3212V375.44H55.2732L54.1692 373.28L62.4012 363.2H64.3932V380H61.8972ZM76.7386 380V367.4H79.2346V370.088L78.7786 370.376C78.9066 369.96 79.1066 369.56 79.3786 369.176C79.6666 368.792 80.0106 368.456 80.4106 368.168C80.8266 367.864 81.2666 367.624 81.7306 367.448C82.2106 367.272 82.6986 367.184 83.1946 367.184C83.9146 367.184 84.5466 367.304 85.0906 367.544C85.6346 367.784 86.0826 368.144 86.4346 368.624C86.7866 369.104 87.0426 369.704 87.2026 370.424L86.8186 370.328L86.9866 369.92C87.1626 369.552 87.4026 369.208 87.7066 368.888C88.0266 368.552 88.3866 368.256 88.7866 368C89.1866 367.744 89.6106 367.544 90.0586 367.4C90.5066 367.256 90.9466 367.184 91.3786 367.184C92.3226 367.184 93.0986 367.376 93.7066 367.76C94.3306 368.144 94.7946 368.728 95.0986 369.512C95.4186 370.296 95.5786 371.272 95.5786 372.44V380H93.0826V372.584C93.0826 371.864 92.9866 371.28 92.7946 370.832C92.6186 370.368 92.3466 370.024 91.9786 369.8C91.6106 369.576 91.1386 369.464 90.5626 369.464C90.1146 369.464 89.6906 369.544 89.2906 369.704C88.9066 369.848 88.5706 370.056 88.2826 370.328C87.9946 370.6 87.7706 370.92 87.6106 371.288C87.4506 371.64 87.3706 372.032 87.3706 372.464V380H84.8746V372.536C84.8746 371.88 84.7786 371.328 84.5866 370.88C84.3946 370.416 84.1146 370.064 83.7466 369.824C83.3786 369.584 82.9306 369.464 82.4026 369.464C81.9546 369.464 81.5386 369.544 81.1546 369.704C80.7706 369.848 80.4346 370.056 80.1466 370.328C79.8586 370.584 79.6346 370.896 79.4746 371.264C79.3146 371.616 79.2346 372 79.2346 372.416V380H76.7386ZM103.736 380.24C102.696 380.24 101.744 379.952 100.88 379.376C100.032 378.8 99.3522 378.016 98.8402 377.024C98.3282 376.032 98.0722 374.912 98.0722 373.664C98.0722 372.4 98.3282 371.28 98.8402 370.304C99.3682 369.312 100.072 368.536 100.952 367.976C101.848 367.416 102.848 367.136 103.952 367.136C104.608 367.136 105.208 367.232 105.752 367.424C106.296 367.616 106.768 367.888 107.168 368.24C107.584 368.576 107.92 368.968 108.176 369.416C108.448 369.864 108.616 370.344 108.68 370.856L108.128 370.664V367.4H110.624V380H108.128V377L108.704 376.832C108.608 377.264 108.408 377.688 108.104 378.104C107.816 378.504 107.44 378.864 106.976 379.184C106.528 379.504 106.024 379.76 105.464 379.952C104.92 380.144 104.344 380.24 103.736 380.24ZM104.384 377.96C105.136 377.96 105.8 377.776 106.376 377.408C106.952 377.04 107.4 376.536 107.72 375.896C108.056 375.24 108.224 374.496 108.224 373.664C108.224 372.848 108.056 372.12 107.72 371.48C107.4 370.84 106.952 370.336 106.376 369.968C105.8 369.6 105.136 369.416 104.384 369.416C103.648 369.416 102.992 369.6 102.416 369.968C101.856 370.336 101.408 370.84 101.072 371.48C100.752 372.12 100.592 372.848 100.592 373.664C100.592 374.496 100.752 375.24 101.072 375.896C101.408 376.536 101.856 377.04 102.416 377.408C102.992 377.776 103.648 377.96 104.384 377.96ZM119.716 385.52C118.82 385.52 117.924 385.376 117.028 385.088C116.148 384.816 115.436 384.456 114.892 384.008L115.804 382.088C116.124 382.328 116.5 382.536 116.932 382.712C117.364 382.904 117.82 383.048 118.3 383.144C118.78 383.256 119.252 383.312 119.716 383.312C120.596 383.312 121.332 383.168 121.924 382.88C122.516 382.592 122.964 382.168 123.268 381.608C123.572 381.048 123.724 380.352 123.724 379.52V377.096L123.988 377.264C123.908 377.76 123.644 378.24 123.196 378.704C122.764 379.152 122.22 379.52 121.564 379.808C120.908 380.096 120.236 380.24 119.548 380.24C118.348 380.24 117.276 379.96 116.332 379.4C115.404 378.824 114.668 378.048 114.124 377.072C113.58 376.08 113.308 374.952 113.308 373.688C113.308 372.424 113.572 371.304 114.1 370.328C114.644 369.336 115.38 368.56 116.308 368C117.252 367.424 118.308 367.136 119.476 367.136C119.956 367.136 120.42 367.2 120.868 367.328C121.316 367.44 121.732 367.608 122.116 367.832C122.5 368.04 122.844 368.272 123.148 368.528C123.452 368.784 123.7 369.056 123.892 369.344C124.084 369.632 124.204 369.904 124.252 370.16L123.724 370.352V367.4H126.196V379.232C126.196 380.24 126.044 381.128 125.74 381.896C125.452 382.68 125.028 383.336 124.468 383.864C123.908 384.408 123.228 384.816 122.428 385.088C121.628 385.376 120.724 385.52 119.716 385.52ZM119.812 377.96C120.596 377.96 121.292 377.776 121.9 377.408C122.508 377.04 122.98 376.536 123.316 375.896C123.652 375.256 123.82 374.52 123.82 373.688C123.82 372.856 123.644 372.12 123.292 371.48C122.956 370.824 122.484 370.312 121.876 369.944C121.284 369.576 120.596 369.392 119.812 369.392C119.044 369.392 118.356 369.584 117.748 369.968C117.156 370.336 116.684 370.848 116.332 371.504C115.996 372.144 115.828 372.872 115.828 373.688C115.828 374.504 115.996 375.24 116.332 375.896C116.684 376.536 117.156 377.04 117.748 377.408C118.356 377.776 119.044 377.96 119.812 377.96ZM130.07 380V367.4H132.542V380H130.07ZM131.27 364.616C130.742 364.616 130.334 364.48 130.046 364.208C129.758 363.936 129.614 363.552 129.614 363.056C129.614 362.592 129.758 362.216 130.046 361.928C130.35 361.64 130.758 361.496 131.27 361.496C131.798 361.496 132.206 361.632 132.494 361.904C132.782 362.176 132.926 362.56 132.926 363.056C132.926 363.52 132.774 363.896 132.47 364.184C132.182 364.472 131.782 364.616 131.27 364.616ZM141.693 380.24C140.525 380.24 139.477 379.952 138.549 379.376C137.637 378.8 136.909 378.016 136.365 377.024C135.837 376.032 135.573 374.92 135.573 373.688C135.573 372.456 135.837 371.344 136.365 370.352C136.909 369.36 137.637 368.576 138.549 368C139.477 367.424 140.525 367.136 141.693 367.136C142.813 367.136 143.829 367.368 144.741 367.832C145.669 368.28 146.373 368.896 146.853 369.68L145.485 371.36C145.229 370.992 144.901 370.656 144.501 370.352C144.101 370.048 143.677 369.808 143.229 369.632C142.781 369.456 142.349 369.368 141.933 369.368C141.165 369.368 140.477 369.56 139.869 369.944C139.277 370.312 138.805 370.824 138.453 371.48C138.101 372.136 137.925 372.872 137.925 373.688C137.925 374.504 138.109 375.24 138.477 375.896C138.845 376.536 139.333 377.048 139.941 377.432C140.549 377.816 141.221 378.008 141.957 378.008C142.389 378.008 142.805 377.936 143.205 377.792C143.621 377.648 144.021 377.432 144.405 377.144C144.789 376.856 145.149 376.504 145.485 376.088L146.853 377.768C146.341 378.488 145.605 379.08 144.645 379.544C143.701 380.008 142.717 380.24 141.693 380.24ZM161.552 385.52C160.656 385.52 159.76 385.376 158.864 385.088C157.984 384.816 157.272 384.456 156.728 384.008L157.64 382.088C157.96 382.328 158.336 382.536 158.768 382.712C159.2 382.904 159.656 383.048 160.136 383.144C160.616 383.256 161.088 383.312 161.552 383.312C162.432 383.312 163.168 383.168 163.76 382.88C164.352 382.592 164.8 382.168 165.104 381.608C165.408 381.048 165.56 380.352 165.56 379.52V377.096L165.824 377.264C165.744 377.76 165.48 378.24 165.032 378.704C164.6 379.152 164.056 379.52 163.4 379.808C162.744 380.096 162.072 380.24 161.384 380.24C160.184 380.24 159.112 379.96 158.168 379.4C157.24 378.824 156.504 378.048 155.96 377.072C155.416 376.08 155.144 374.952 155.144 373.688C155.144 372.424 155.408 371.304 155.936 370.328C156.48 369.336 157.216 368.56 158.144 368C159.088 367.424 160.144 367.136 161.312 367.136C161.792 367.136 162.256 367.2 162.704 367.328C163.152 367.44 163.568 367.608 163.952 367.832C164.336 368.04 164.68 368.272 164.984 368.528C165.288 368.784 165.536 369.056 165.728 369.344C165.92 369.632 166.04 369.904 166.088 370.16L165.56 370.352V367.4H168.032V379.232C168.032 380.24 167.88 381.128 167.576 381.896C167.288 382.68 166.864 383.336 166.304 383.864C165.744 384.408 165.064 384.816 164.264 385.088C163.464 385.376 162.56 385.52 161.552 385.52ZM161.648 377.96C162.432 377.96 163.128 377.776 163.736 377.408C164.344 377.04 164.816 376.536 165.152 375.896C165.488 375.256 165.656 374.52 165.656 373.688C165.656 372.856 165.48 372.12 165.128 371.48C164.792 370.824 164.32 370.312 163.712 369.944C163.12 369.576 162.432 369.392 161.648 369.392C160.88 369.392 160.192 369.584 159.584 369.968C158.992 370.336 158.52 370.848 158.168 371.504C157.832 372.144 157.664 372.872 157.664 373.688C157.664 374.504 157.832 375.24 158.168 375.896C158.52 376.536 158.992 377.04 159.584 377.408C160.192 377.776 160.88 377.96 161.648 377.96ZM177.378 380.24C176.082 380.24 174.93 379.968 173.922 379.424C172.93 378.864 172.146 378.104 171.57 377.144C171.01 376.184 170.73 375.08 170.73 373.832C170.73 372.84 170.89 371.936 171.21 371.12C171.53 370.304 171.97 369.6 172.53 369.008C173.106 368.4 173.786 367.936 174.57 367.616C175.37 367.28 176.234 367.112 177.162 367.112C177.978 367.112 178.738 367.272 179.442 367.592C180.146 367.896 180.754 368.32 181.266 368.864C181.794 369.408 182.194 370.056 182.466 370.808C182.754 371.544 182.89 372.352 182.874 373.232L182.85 374.288H172.554L172.002 372.32H180.714L180.354 372.728V372.152C180.306 371.624 180.13 371.152 179.826 370.736C179.522 370.32 179.138 369.992 178.674 369.752C178.21 369.512 177.706 369.392 177.162 369.392C176.298 369.392 175.57 369.56 174.978 369.896C174.386 370.216 173.938 370.696 173.634 371.336C173.33 371.96 173.178 372.736 173.178 373.664C173.178 374.544 173.362 375.312 173.73 375.968C174.098 376.608 174.618 377.104 175.29 377.456C175.962 377.808 176.738 377.984 177.618 377.984C178.242 377.984 178.818 377.88 179.346 377.672C179.89 377.464 180.474 377.088 181.098 376.544L182.346 378.296C181.962 378.68 181.49 379.016 180.93 379.304C180.386 379.592 179.802 379.824 179.178 380C178.57 380.16 177.97 380.24 177.378 380.24ZM185.512 380V367.4H188.008V370.088L187.552 370.376C187.68 369.96 187.88 369.56 188.152 369.176C188.44 368.792 188.784 368.456 189.184 368.168C189.6 367.864 190.04 367.624 190.504 367.448C190.984 367.272 191.472 367.184 191.968 367.184C192.688 367.184 193.32 367.304 193.864 367.544C194.408 367.784 194.856 368.144 195.208 368.624C195.56 369.104 195.816 369.704 195.976 370.424L195.592 370.328L195.76 369.92C195.936 369.552 196.176 369.208 196.48 368.888C196.8 368.552 197.16 368.256 197.56 368C197.96 367.744 198.384 367.544 198.832 367.4C199.28 367.256 199.72 367.184 200.152 367.184C201.096 367.184 201.872 367.376 202.48 367.76C203.104 368.144 203.568 368.728 203.872 369.512C204.192 370.296 204.352 371.272 204.352 372.44V380H201.856V372.584C201.856 371.864 201.76 371.28 201.568 370.832C201.392 370.368 201.12 370.024 200.752 369.8C200.384 369.576 199.912 369.464 199.336 369.464C198.888 369.464 198.464 369.544 198.064 369.704C197.68 369.848 197.344 370.056 197.056 370.328C196.768 370.6 196.544 370.92 196.384 371.288C196.224 371.64 196.144 372.032 196.144 372.464V380H193.648V372.536C193.648 371.88 193.552 371.328 193.36 370.88C193.168 370.416 192.888 370.064 192.52 369.824C192.152 369.584 191.704 369.464 191.176 369.464C190.728 369.464 190.312 369.544 189.928 369.704C189.544 369.848 189.208 370.056 188.92 370.328C188.632 370.584 188.408 370.896 188.248 371.264C188.088 371.616 188.008 372 188.008 372.416V380H185.512ZM211.862 380.24C210.806 380.24 209.854 380.056 209.006 379.688C208.158 379.32 207.454 378.776 206.894 378.056L208.574 376.616C209.054 377.176 209.574 377.584 210.134 377.84C210.71 378.08 211.358 378.2 212.078 378.2C212.366 378.2 212.63 378.168 212.87 378.104C213.126 378.024 213.342 377.912 213.518 377.768C213.71 377.624 213.854 377.456 213.95 377.264C214.046 377.056 214.094 376.832 214.094 376.592C214.094 376.176 213.942 375.84 213.638 375.584C213.478 375.472 213.222 375.352 212.87 375.224C212.534 375.08 212.094 374.936 211.55 374.792C210.622 374.552 209.862 374.28 209.27 373.976C208.678 373.672 208.222 373.328 207.902 372.944C207.662 372.64 207.486 372.312 207.374 371.96C207.262 371.592 207.206 371.192 207.206 370.76C207.206 370.232 207.318 369.752 207.542 369.32C207.782 368.872 208.102 368.488 208.502 368.168C208.918 367.832 209.398 367.576 209.942 367.4C210.502 367.224 211.094 367.136 211.718 367.136C212.31 367.136 212.894 367.216 213.47 367.376C214.062 367.536 214.606 367.768 215.102 368.072C215.598 368.376 216.014 368.736 216.35 369.152L214.934 370.712C214.63 370.408 214.294 370.144 213.926 369.92C213.574 369.68 213.214 369.496 212.846 369.368C212.478 369.24 212.142 369.176 211.838 369.176C211.502 369.176 211.198 369.208 210.926 369.272C210.654 369.336 210.422 369.432 210.23 369.56C210.054 369.688 209.918 369.848 209.822 370.04C209.726 370.232 209.678 370.448 209.678 370.688C209.694 370.896 209.742 371.096 209.822 371.288C209.918 371.464 210.046 371.616 210.206 371.744C210.382 371.872 210.646 372.008 210.998 372.152C211.35 372.296 211.798 372.432 212.342 372.56C213.142 372.768 213.798 373 214.31 373.256C214.838 373.496 215.254 373.776 215.558 374.096C215.878 374.4 216.102 374.752 216.23 375.152C216.358 375.552 216.422 376 216.422 376.496C216.422 377.216 216.214 377.864 215.798 378.44C215.398 379 214.854 379.44 214.166 379.76C213.478 380.08 212.71 380.24 211.862 380.24Z" fill="#FAF9F6"/>
<path d="M295.523 293L98.4839 293L109.942 276.426L111.17 274.994L282.838 273.357L297.774 255.351L297.774 186.807L300.639 183.738L316.803 172.484L316.803 271.72L295.523 293Z" fill="#00D1C4"/>
<path d="M300.639 183.738L300.639 259.853L288.567 251.055L275.472 179.441L284.065 167.369L300.639 183.738Z" fill="#C6E9D8"/>
<path d="M77 271.516L77 172.689L93.3688 183.943L98.4841 244.916L109.942 276.426L98.4841 293L77 271.516Z" fill="#C6E9D8"/>
<path d="M93.3688 183.942L93.3688 260.057L275.472 179.441L284.065 167.369L109.942 167.369L98.6887 151L77 172.689L93.3688 183.942Z" fill="#33F396"/>
<path d="M105.85 251.669L93.3687 260.058L109.942 276.427L284.065 276.427L300.639 259.853L288.567 251.055L105.85 251.669Z" fill="#00C792"/>
<path d="M109.942 167.369L93.3687 183.942L105.85 192.331L118.74 179.441L109.942 167.369Z" fill="#70FBAE"/>
<path d="M295.319 151L316.803 172.484L300.639 183.738L284.065 167.369L109.942 167.369L98.6885 151L295.319 151Z" fill="#00C792"/>
<path d="M105.85 192.331L105.85 251.668L118.536 264.559L275.063 264.559L288.567 251.054L288.567 192.536L275.472 179.441L118.741 179.441L105.85 192.331Z" fill="#70FBAE"/>
<path d="M275.472 179.441L105.85 205.836L105.85 192.331L118.741 179.441L275.472 179.441Z" fill="#FEFEFE"/>
</svg>
