<svg width="281" height="350" viewBox="0 0 281 350" fill="none" xmlns="http://www.w3.org/2000/svg">
<rect width="281" height="350" rx="20" fill="#202020" fill-opacity="0.5"/>
<path d="M40.608 31.888C39.584 31.2907 38.368 30.992 36.96 30.992C35.552 30.992 34.4107 31.3547 33.536 32.08C33.5147 32.3787 33.504 32.6667 33.504 32.944C33.504 36.3573 35.328 38.064 38.976 38.064L38.816 39.248H38.432C36.7467 39.248 35.3493 39.5893 34.24 40.272C33.152 40.9333 32.608 42.0107 32.608 43.504C32.608 44.9973 33.12 46.16 34.144 46.992C35.168 47.8027 36.3733 48.208 37.76 48.208C39.1467 48.208 40.2347 47.952 41.024 47.44C41.1733 47.1413 41.248 46.672 41.248 46.032C41.248 45.392 41.1413 44.9547 40.928 44.72L40.96 44.496C41.4933 44.176 42.0267 43.728 42.56 43.152C42.816 43.1733 43.0187 43.28 43.168 43.472C43.3387 43.664 43.424 43.888 43.424 44.144C43.424 45.4453 42.8053 46.7147 41.568 47.952C40.352 49.168 39.0187 50.0107 37.568 50.48C35.2853 50.48 33.3867 49.9253 31.872 48.816C30.3573 47.7067 29.6 46.128 29.6 44.08C29.6 42.608 30.2187 41.3813 31.456 40.4C32.6933 39.4187 34.1013 38.928 35.68 38.928V38.8C34.2293 38.7147 33.0133 38.3093 32.032 37.584C31.072 36.8587 30.592 35.856 30.592 34.576C31.36 33.2107 32.3733 31.984 33.632 30.896C34.912 29.808 36.2773 29.072 37.728 28.688C39.2427 28.688 40.736 28.8907 42.208 29.296C42.5493 29.1253 42.9867 28.7947 43.52 28.304L44.192 28.752C42.784 30.4587 41.92 32.496 41.6 34.864H40.768C40.768 33.6907 40.7147 32.6987 40.608 31.888ZM54.0703 48.208C54.0703 46.8853 53.7396 44.912 53.0783 42.288C52.4169 39.6427 51.6809 37.0827 50.8703 34.608L50.7423 34.64L49.9423 40.592C49.6009 43.0453 49.4303 45.2533 49.4303 47.216C49.4303 48.4107 49.8036 49.2107 50.5503 49.616L50.4223 50.16C49.7823 50.0533 48.9396 50 47.8943 50C46.8703 50 45.7396 50.0853 44.5023 50.256L44.3742 49.424C45.0996 49.1893 45.7823 49.0187 46.4223 48.912L49.3983 34.32C48.2889 34.128 47.4676 33.9573 46.9343 33.808L47.0303 32.976C48.5663 33.2107 49.9849 33.328 51.2863 33.328C52.6089 33.328 53.6329 33.2533 54.3583 33.104L54.4223 33.648C53.8463 33.7973 53.5583 34.0427 53.5583 34.384C53.5583 34.8533 54.2196 37.5627 55.5423 42.512L56.2463 44.912L56.4703 44.848C56.4703 44.2933 57.4409 40.816 59.3823 34.416C59.3823 34.0533 59.0943 33.7973 58.5183 33.648L58.5823 33.104C59.3076 33.2533 60.3316 33.328 61.6543 33.328C62.9983 33.328 64.4276 33.2107 65.9423 32.976L66.0383 33.808C65.4623 33.9573 64.7263 34.1173 63.8303 34.288C63.7663 34.8 63.7343 35.5573 63.7343 36.56C63.7343 37.5413 63.8729 39.568 64.1503 42.64C64.4276 45.712 64.6836 47.824 64.9183 48.976C65.7076 49.0827 66.5183 49.232 67.3503 49.424L67.2543 50.224C66.1449 50.0747 64.9076 50 63.5423 50C62.1983 50 60.9823 50.0853 59.8943 50.256L59.7663 49.424C60.4703 49.2107 61.2276 49.0507 62.0382 48.944C61.9743 43.9093 61.6329 39.1627 61.0143 34.704H60.9183C58.7209 41.1893 57.5476 45.392 57.3983 47.312C56.9503 47.4613 56.4276 47.7387 55.8303 48.144C55.2329 48.528 54.7743 48.912 54.4543 49.296L54.0703 49.04V48.208ZM71.7545 42.096C71.8185 43.9947 72.1705 45.4773 72.8105 46.544C73.4505 47.6107 74.5385 48.144 76.0745 48.144C77.6105 48.144 79.0292 47.4933 80.3305 46.192L80.7785 46.64C79.3492 48.4533 77.6318 49.7013 75.6265 50.384C73.5572 50.384 71.9358 49.7333 70.7625 48.432C69.5892 47.1093 69.0025 45.3387 69.0025 43.12C69.0025 40.88 69.6958 38.7787 71.0825 36.816C72.4692 34.8533 74.2398 33.5627 76.3945 32.944C77.9518 32.944 79.7118 33.104 81.6745 33.424L81.6425 34.128C81.2372 34.128 80.8532 34.2027 80.4905 34.352C80.0852 35.312 79.8185 36.4533 79.6905 37.776H78.8905C78.7198 37.0507 78.6345 36.304 78.6345 35.536C77.8238 35.1307 76.8638 34.928 75.7545 34.928C74.6452 34.928 73.7278 35.2267 73.0025 35.824C72.2772 37.1467 71.8612 38.7253 71.7545 40.56C72.6505 40.7093 73.6105 40.784 74.6345 40.784C76.4052 40.784 77.4718 40.4107 77.8345 39.664L78.5065 39.76C78.3145 40.4 78.2185 41.0293 78.2185 41.648C78.2185 42.2667 78.2932 43.024 78.4425 43.92L77.6745 44.048C77.4398 43.408 77.2692 42.7467 77.1625 42.064C76.3092 41.9787 75.4558 41.936 74.6025 41.936C73.7705 41.936 72.8212 41.9893 71.7545 42.096ZM83.2823 33.392L90.6423 33.168C92.5623 33.168 94.0023 33.456 94.9623 34.032C95.9223 34.5867 96.4023 35.6107 96.4023 37.104C96.4023 38.128 96.0823 39.0347 95.4423 39.824C94.8236 40.6133 94.0023 41.2 92.9783 41.584L96.5623 48.912C97.2876 49.04 97.9703 49.1893 98.6103 49.36L98.4823 50.224C97.5863 50.0747 96.5729 50 95.4423 50C94.3329 50 93.4583 50.0533 92.8183 50.16L92.6903 49.648C92.9676 49.3707 93.1063 48.912 93.1063 48.272C93.1063 46.9707 92.3596 44.88 90.8663 42C90.4183 41.9147 89.8956 41.872 89.2983 41.872L89.3623 40.944H89.6823C92.1996 40.944 93.4583 39.792 93.4583 37.488C93.4583 35.3547 92.3809 34.288 90.2263 34.288C89.5009 34.288 88.8503 34.4053 88.2743 34.64C88.1249 36.048 88.0503 38.4587 88.0503 41.872C88.0503 45.2853 88.1463 47.6427 88.3383 48.944C89.2769 49.0507 90.1516 49.2107 90.9623 49.424L90.8663 50.224C89.7569 50.0747 88.5089 50 87.1223 50C85.7569 50 84.5303 50.0853 83.4423 50.256L83.3143 49.424C83.9116 49.232 84.5836 49.072 85.3303 48.944C85.5436 47.344 85.6503 44.8587 85.6503 41.488C85.6503 38.096 85.5543 35.7493 85.3623 34.448C84.5303 34.1707 83.8369 34.032 83.2823 34.032V33.392ZM102.206 32.976C104.211 33.2107 106.238 33.328 108.286 33.328C110.334 33.328 112.35 33.2107 114.334 32.976L114.462 33.808C113.822 34.064 113.161 34.256 112.478 34.384C112.243 36.1333 112.126 38.5653 112.126 41.68C112.126 44.7947 112.243 47.2267 112.478 48.976C112.905 49.04 113.694 49.2 114.846 49.456L114.718 50.256C113.694 50.0853 112.382 50 110.782 50C109.182 50 107.955 50.0853 107.102 50.256L106.974 49.424C107.699 49.1893 108.521 49.0187 109.438 48.912C109.566 47.6747 109.662 45.9573 109.726 43.76C108.723 43.6533 107.721 43.6 106.718 43.6C105.715 43.6 104.841 43.6533 104.094 43.76C103.667 45.5093 103.454 46.7253 103.454 47.408C103.454 48.4533 103.827 49.1893 104.574 49.616L104.446 50.16C103.955 50.0533 103.027 50 101.662 50C100.297 50 99.2193 50.0853 98.43 50.256L98.302 49.424C98.814 49.232 99.518 49.0613 100.414 48.912L104.574 34.32C103.635 34.1707 102.814 34 102.11 33.808L102.206 32.976ZM104.35 42.256C105.182 42.384 106.099 42.448 107.102 42.448C108.126 42.448 109.001 42.384 109.726 42.256C109.726 38.3093 109.641 35.76 109.47 34.608C108.745 34.5653 108.201 34.544 107.838 34.544C107.497 34.544 106.963 34.5653 106.238 34.608L104.35 42.256ZM128.963 50.352C127.576 50.1173 125.688 50 123.299 50C120.931 50 118.947 50.1067 117.347 50.32L117.251 49.52C117.848 49.2853 118.531 49.0933 119.299 48.944C119.512 47.664 119.619 45.488 119.619 42.416V40.912C119.619 38.2667 119.512 36.0907 119.299 34.384C118.595 34.2773 117.923 34.1173 117.283 33.904L117.411 33.072C118.499 33.2427 119.779 33.328 121.251 33.328C122.723 33.328 123.982 33.2427 125.027 33.072L125.123 33.872C124.163 34.1067 123.214 34.2773 122.275 34.384C122.104 35.536 122.019 37.9147 122.019 41.52C122.019 45.104 122.104 47.4933 122.275 48.688C122.787 48.7733 123.512 48.816 124.451 48.816C125.39 48.816 126.232 48.6347 126.979 48.272C127.278 47.5467 127.427 46.6933 127.427 45.712H128.227C128.312 47.3547 128.611 48.688 129.123 49.712L128.963 50.352ZM130.058 33.392L137.418 33.168C139.85 33.168 141.717 33.744 143.018 34.896C144.341 36.048 145.002 37.776 145.002 40.08C145.002 42.3627 144.277 44.496 142.826 46.48C141.397 48.464 139.616 49.7653 137.482 50.384C136.928 50.384 136.202 50.2773 135.306 50.064C134.432 49.872 133.706 49.6587 133.13 49.424C132.896 49.7013 132.682 50.096 132.49 50.608L131.818 50.448C132.224 48.5493 132.426 45.872 132.426 42.416C132.426 38.9387 132.33 36.336 132.138 34.608C131.413 34.3307 130.72 34.192 130.058 34.192V33.392ZM141.066 36.592C140.682 35.8667 140.138 35.3013 139.434 34.896C138.752 34.4907 137.994 34.288 137.162 34.288C136.352 34.288 135.648 34.4053 135.05 34.64C134.901 36.0267 134.826 38.2453 134.826 41.296C134.826 44.3253 134.869 46.4267 134.954 47.6C136.021 48.0907 137.109 48.336 138.218 48.336C139.349 48.336 140.245 48.048 140.906 47.472C141.717 45.936 142.122 44.048 142.122 41.808C142.122 39.7173 141.77 37.9787 141.066 36.592Z" fill="#FAF9F6"/>
<path d="M28.72 258.24V256.8H36.736V258.24H28.72ZM31.872 261.328V253.6H33.552V261.328H31.872ZM43.0851 262V252.976L43.4851 253.072L39.8051 257.568L39.7411 257.376H46.7011V258.96H38.6691L37.9331 257.52L43.4211 250.8H44.7491V262H43.0851ZM52.9794 262V253.6H54.6434V255.392L54.3394 255.584C54.4247 255.307 54.558 255.04 54.7394 254.784C54.9314 254.528 55.1607 254.304 55.4274 254.112C55.7047 253.909 55.998 253.749 56.3074 253.632C56.6274 253.515 56.9527 253.456 57.2834 253.456C57.7634 253.456 58.1847 253.536 58.5474 253.696C58.91 253.856 59.2087 254.096 59.4434 254.416C59.678 254.736 59.8487 255.136 59.9554 255.616L59.6994 255.552L59.8114 255.28C59.9287 255.035 60.0887 254.805 60.2914 254.592C60.5047 254.368 60.7447 254.171 61.0114 254C61.278 253.829 61.5607 253.696 61.8594 253.6C62.158 253.504 62.4514 253.456 62.7394 253.456C63.3687 253.456 63.886 253.584 64.2914 253.84C64.7074 254.096 65.0167 254.485 65.2194 255.008C65.4327 255.531 65.5394 256.181 65.5394 256.96V262H63.8754V257.056C63.8754 256.576 63.8114 256.187 63.6834 255.888C63.566 255.579 63.3847 255.349 63.1394 255.2C62.894 255.051 62.5794 254.976 62.1954 254.976C61.8967 254.976 61.614 255.029 61.3474 255.136C61.0914 255.232 60.8674 255.371 60.6754 255.552C60.4834 255.733 60.334 255.947 60.2274 256.192C60.1207 256.427 60.0674 256.688 60.0674 256.976V262H58.4034V257.024C58.4034 256.587 58.3394 256.219 58.2114 255.92C58.0834 255.611 57.8967 255.376 57.6514 255.216C57.406 255.056 57.1074 254.976 56.7554 254.976C56.4567 254.976 56.1794 255.029 55.9234 255.136C55.6674 255.232 55.4434 255.371 55.2514 255.552C55.0594 255.723 54.91 255.931 54.8034 256.176C54.6967 256.411 54.6434 256.667 54.6434 256.944V262H52.9794ZM70.9778 262.16C70.2844 262.16 69.6498 261.968 69.0738 261.584C68.5084 261.2 68.0551 260.677 67.7138 260.016C67.3724 259.355 67.2018 258.608 67.2018 257.776C67.2018 256.933 67.3724 256.187 67.7138 255.536C68.0658 254.875 68.5351 254.357 69.1218 253.984C69.7191 253.611 70.3858 253.424 71.1218 253.424C71.5591 253.424 71.9591 253.488 72.3218 253.616C72.6844 253.744 72.9991 253.925 73.2658 254.16C73.5431 254.384 73.7671 254.645 73.9378 254.944C74.1191 255.243 74.2311 255.563 74.2738 255.904L73.9058 255.776V253.6H75.5698V262H73.9058V260L74.2898 259.888C74.2258 260.176 74.0924 260.459 73.8898 260.736C73.6978 261.003 73.4471 261.243 73.1378 261.456C72.8391 261.669 72.5031 261.84 72.1298 261.968C71.7671 262.096 71.3831 262.16 70.9778 262.16ZM71.4098 260.64C71.9111 260.64 72.3538 260.517 72.7378 260.272C73.1218 260.027 73.4204 259.691 73.6338 259.264C73.8578 258.827 73.9698 258.331 73.9698 257.776C73.9698 257.232 73.8578 256.747 73.6338 256.32C73.4204 255.893 73.1218 255.557 72.7378 255.312C72.3538 255.067 71.9111 254.944 71.4098 254.944C70.9191 254.944 70.4818 255.067 70.0978 255.312C69.7244 255.557 69.4258 255.893 69.2018 256.32C68.9884 256.747 68.8818 257.232 68.8818 257.776C68.8818 258.331 68.9884 258.827 69.2018 259.264C69.4258 259.691 69.7244 260.027 70.0978 260.272C70.4818 260.517 70.9191 260.64 71.4098 260.64ZM81.6308 265.68C81.0334 265.68 80.4361 265.584 79.8388 265.392C79.2521 265.211 78.7774 264.971 78.4148 264.672L79.0228 263.392C79.2361 263.552 79.4868 263.691 79.7748 263.808C80.0628 263.936 80.3668 264.032 80.6868 264.096C81.0068 264.171 81.3214 264.208 81.6308 264.208C82.2174 264.208 82.7081 264.112 83.1028 263.92C83.4974 263.728 83.7961 263.445 83.9988 263.072C84.2014 262.699 84.3028 262.235 84.3028 261.68V260.064L84.4788 260.176C84.4254 260.507 84.2494 260.827 83.9508 261.136C83.6628 261.435 83.3001 261.68 82.8628 261.872C82.4254 262.064 81.9774 262.16 81.5188 262.16C80.7188 262.16 80.0041 261.973 79.3748 261.6C78.7561 261.216 78.2654 260.699 77.9028 260.048C77.5401 259.387 77.3588 258.635 77.3588 257.792C77.3588 256.949 77.5348 256.203 77.8868 255.552C78.2494 254.891 78.7401 254.373 79.3588 254C79.9881 253.616 80.6921 253.424 81.4708 253.424C81.7908 253.424 82.1001 253.467 82.3988 253.552C82.6974 253.627 82.9748 253.739 83.2308 253.888C83.4868 254.027 83.7161 254.181 83.9188 254.352C84.1214 254.523 84.2868 254.704 84.4148 254.896C84.5428 255.088 84.6228 255.269 84.6548 255.44L84.3028 255.568V253.6H85.9508V261.488C85.9508 262.16 85.8494 262.752 85.6468 263.264C85.4548 263.787 85.1721 264.224 84.7987 264.576C84.4254 264.939 83.9721 265.211 83.4388 265.392C82.9054 265.584 82.3028 265.68 81.6308 265.68ZM81.6948 260.64C82.2174 260.64 82.6814 260.517 83.0868 260.272C83.4921 260.027 83.8068 259.691 84.0308 259.264C84.2548 258.837 84.3668 258.347 84.3668 257.792C84.3668 257.237 84.2494 256.747 84.0148 256.32C83.7908 255.883 83.4761 255.541 83.0708 255.296C82.6761 255.051 82.2174 254.928 81.6948 254.928C81.1828 254.928 80.7241 255.056 80.3188 255.312C79.9241 255.557 79.6094 255.899 79.3748 256.336C79.1508 256.763 79.0388 257.248 79.0388 257.792C79.0388 258.336 79.1508 258.827 79.3748 259.264C79.6094 259.691 79.9241 260.027 80.3188 260.272C80.7241 260.517 81.1828 260.64 81.6948 260.64ZM88.5334 262V253.6H90.1814V262H88.5334ZM89.3334 251.744C88.9814 251.744 88.7094 251.653 88.5174 251.472C88.3254 251.291 88.2294 251.035 88.2294 250.704C88.2294 250.395 88.3254 250.144 88.5174 249.952C88.72 249.76 88.992 249.664 89.3334 249.664C89.6854 249.664 89.9574 249.755 90.1494 249.936C90.3414 250.117 90.4374 250.373 90.4374 250.704C90.4374 251.013 90.336 251.264 90.1334 251.456C89.9414 251.648 89.6747 251.744 89.3334 251.744ZM96.2825 262.16C95.5038 262.16 94.8052 261.968 94.1865 261.584C93.5785 261.2 93.0932 260.677 92.7305 260.016C92.3785 259.355 92.2025 258.613 92.2025 257.792C92.2025 256.971 92.3785 256.229 92.7305 255.568C93.0932 254.907 93.5785 254.384 94.1865 254C94.8052 253.616 95.5038 253.424 96.2825 253.424C97.0292 253.424 97.7065 253.579 98.3145 253.888C98.9332 254.187 99.4025 254.597 99.7225 255.12L98.8105 256.24C98.6398 255.995 98.4212 255.771 98.1545 255.568C97.8878 255.365 97.6052 255.205 97.3065 255.088C97.0078 254.971 96.7198 254.912 96.4425 254.912C95.9305 254.912 95.4718 255.04 95.0665 255.296C94.6718 255.541 94.3572 255.883 94.1225 256.32C93.8878 256.757 93.7705 257.248 93.7705 257.792C93.7705 258.336 93.8932 258.827 94.1385 259.264C94.3838 259.691 94.7092 260.032 95.1145 260.288C95.5198 260.544 95.9678 260.672 96.4585 260.672C96.7465 260.672 97.0238 260.624 97.2905 260.528C97.5678 260.432 97.8345 260.288 98.0905 260.096C98.3465 259.904 98.5865 259.669 98.8105 259.392L99.7225 260.512C99.3812 260.992 98.8905 261.387 98.2505 261.696C97.6212 262.005 96.9652 262.16 96.2825 262.16ZM109.521 265.68C108.924 265.68 108.327 265.584 107.729 265.392C107.143 265.211 106.668 264.971 106.305 264.672L106.913 263.392C107.127 263.552 107.377 263.691 107.665 263.808C107.953 263.936 108.257 264.032 108.577 264.096C108.897 264.171 109.212 264.208 109.521 264.208C110.108 264.208 110.599 264.112 110.993 263.92C111.388 263.728 111.687 263.445 111.889 263.072C112.092 262.699 112.193 262.235 112.193 261.68V260.064L112.369 260.176C112.316 260.507 112.14 260.827 111.841 261.136C111.553 261.435 111.191 261.68 110.753 261.872C110.316 262.064 109.868 262.16 109.409 262.16C108.609 262.16 107.895 261.973 107.265 261.6C106.647 261.216 106.156 260.699 105.793 260.048C105.431 259.387 105.249 258.635 105.249 257.792C105.249 256.949 105.425 256.203 105.777 255.552C106.14 254.891 106.631 254.373 107.249 254C107.879 253.616 108.583 253.424 109.361 253.424C109.681 253.424 109.991 253.467 110.289 253.552C110.588 253.627 110.865 253.739 111.121 253.888C111.377 254.027 111.607 254.181 111.809 254.352C112.012 254.523 112.177 254.704 112.305 254.896C112.433 255.088 112.513 255.269 112.545 255.44L112.193 255.568V253.6H113.841V261.488C113.841 262.16 113.74 262.752 113.537 263.264C113.345 263.787 113.063 264.224 112.689 264.576C112.316 264.939 111.863 265.211 111.329 265.392C110.796 265.584 110.193 265.68 109.521 265.68ZM109.585 260.64C110.108 260.64 110.572 260.517 110.977 260.272C111.383 260.027 111.697 259.691 111.921 259.264C112.145 258.837 112.257 258.347 112.257 257.792C112.257 257.237 112.14 256.747 111.905 256.32C111.681 255.883 111.367 255.541 110.961 255.296C110.567 255.051 110.108 254.928 109.585 254.928C109.073 254.928 108.615 255.056 108.209 255.312C107.815 255.557 107.5 255.899 107.265 256.336C107.041 256.763 106.929 257.248 106.929 257.792C106.929 258.336 107.041 258.827 107.265 259.264C107.5 259.691 107.815 260.027 108.209 260.272C108.615 260.517 109.073 260.64 109.585 260.64ZM120.072 262.16C119.208 262.16 118.44 261.979 117.768 261.616C117.107 261.243 116.584 260.736 116.2 260.096C115.827 259.456 115.64 258.72 115.64 257.888C115.64 257.227 115.747 256.624 115.96 256.08C116.173 255.536 116.467 255.067 116.84 254.672C117.224 254.267 117.677 253.957 118.2 253.744C118.733 253.52 119.309 253.408 119.928 253.408C120.472 253.408 120.979 253.515 121.448 253.728C121.917 253.931 122.323 254.213 122.664 254.576C123.016 254.939 123.283 255.371 123.464 255.872C123.656 256.363 123.747 256.901 123.736 257.488L123.72 258.192H116.856L116.488 256.88H122.296L122.056 257.152V256.768C122.024 256.416 121.907 256.101 121.704 255.824C121.501 255.547 121.245 255.328 120.936 255.168C120.627 255.008 120.291 254.928 119.928 254.928C119.352 254.928 118.867 255.04 118.472 255.264C118.077 255.477 117.779 255.797 117.576 256.224C117.373 256.64 117.272 257.157 117.272 257.776C117.272 258.363 117.395 258.875 117.64 259.312C117.885 259.739 118.232 260.069 118.68 260.304C119.128 260.539 119.645 260.656 120.232 260.656C120.648 260.656 121.032 260.587 121.384 260.448C121.747 260.309 122.136 260.059 122.552 259.696L123.384 260.864C123.128 261.12 122.813 261.344 122.44 261.536C122.077 261.728 121.688 261.883 121.272 262C120.867 262.107 120.467 262.16 120.072 262.16ZM125.495 262V253.6H127.159V255.392L126.855 255.584C126.94 255.307 127.074 255.04 127.255 254.784C127.447 254.528 127.676 254.304 127.943 254.112C128.22 253.909 128.514 253.749 128.823 253.632C129.143 253.515 129.468 253.456 129.799 253.456C130.279 253.456 130.7 253.536 131.063 253.696C131.426 253.856 131.724 254.096 131.959 254.416C132.194 254.736 132.364 255.136 132.471 255.616L132.215 255.552L132.327 255.28C132.444 255.035 132.604 254.805 132.807 254.592C133.02 254.368 133.26 254.171 133.527 254C133.794 253.829 134.076 253.696 134.375 253.6C134.674 253.504 134.967 253.456 135.255 253.456C135.884 253.456 136.402 253.584 136.807 253.84C137.223 254.096 137.532 254.485 137.735 255.008C137.948 255.531 138.055 256.181 138.055 256.96V262H136.391V257.056C136.391 256.576 136.327 256.187 136.199 255.888C136.082 255.579 135.9 255.349 135.655 255.2C135.41 255.051 135.095 254.976 134.711 254.976C134.412 254.976 134.13 255.029 133.863 255.136C133.607 255.232 133.383 255.371 133.191 255.552C132.999 255.733 132.85 255.947 132.743 256.192C132.636 256.427 132.583 256.688 132.583 256.976V262H130.919V257.024C130.919 256.587 130.855 256.219 130.727 255.92C130.599 255.611 130.412 255.376 130.167 255.216C129.922 255.056 129.623 254.976 129.271 254.976C128.972 254.976 128.695 255.029 128.439 255.136C128.183 255.232 127.959 255.371 127.767 255.552C127.575 255.723 127.426 255.931 127.319 256.176C127.212 256.411 127.159 256.667 127.159 256.944V262H125.495ZM143.061 262.16C142.357 262.16 141.723 262.037 141.157 261.792C140.592 261.547 140.123 261.184 139.749 260.704L140.869 259.744C141.189 260.117 141.536 260.389 141.909 260.56C142.293 260.72 142.725 260.8 143.205 260.8C143.397 260.8 143.573 260.779 143.733 260.736C143.904 260.683 144.048 260.608 144.165 260.512C144.293 260.416 144.389 260.304 144.453 260.176C144.517 260.037 144.549 259.888 144.549 259.728C144.549 259.451 144.448 259.227 144.245 259.056C144.139 258.981 143.968 258.901 143.733 258.816C143.509 258.72 143.216 258.624 142.853 258.528C142.235 258.368 141.728 258.187 141.333 257.984C140.939 257.781 140.635 257.552 140.421 257.296C140.261 257.093 140.144 256.875 140.069 256.64C139.995 256.395 139.957 256.128 139.957 255.84C139.957 255.488 140.032 255.168 140.181 254.88C140.341 254.581 140.555 254.325 140.821 254.112C141.099 253.888 141.419 253.717 141.781 253.6C142.155 253.483 142.549 253.424 142.965 253.424C143.36 253.424 143.749 253.477 144.133 253.584C144.528 253.691 144.891 253.845 145.221 254.048C145.552 254.251 145.829 254.491 146.053 254.768L145.109 255.808C144.907 255.605 144.683 255.429 144.437 255.28C144.203 255.12 143.963 254.997 143.717 254.912C143.472 254.827 143.248 254.784 143.045 254.784C142.821 254.784 142.619 254.805 142.437 254.848C142.256 254.891 142.101 254.955 141.973 255.04C141.856 255.125 141.765 255.232 141.701 255.36C141.637 255.488 141.605 255.632 141.605 255.792C141.616 255.931 141.648 256.064 141.701 256.192C141.765 256.309 141.851 256.411 141.957 256.496C142.075 256.581 142.251 256.672 142.485 256.768C142.72 256.864 143.019 256.955 143.381 257.04C143.915 257.179 144.352 257.333 144.693 257.504C145.045 257.664 145.323 257.851 145.525 258.064C145.739 258.267 145.888 258.501 145.973 258.768C146.059 259.035 146.101 259.333 146.101 259.664C146.101 260.144 145.963 260.576 145.685 260.96C145.419 261.333 145.056 261.627 144.597 261.84C144.139 262.053 143.627 262.16 143.061 262.16Z" fill="#FAF9F6"/>
<path d="M212.592 205.405L70.4937 205.405L78.7569 193.453L79.6422 192.42L203.443 191.24L214.215 178.255L214.215 128.823L216.281 126.609L227.938 118.494L227.938 190.059L212.592 205.405Z" fill="#00D1C4"/>
<path d="M216.28 126.61L216.28 181.501L207.575 175.156L198.131 123.511L204.328 114.805L216.28 126.61Z" fill="#C6E9D8"/>
<path d="M55 189.912L55 118.641L66.8046 126.757L70.4935 170.729L78.7568 193.453L70.4936 205.405L55 189.912Z" fill="#C6E9D8"/>
<path d="M66.8046 126.757L66.8046 181.648L198.131 123.511L204.328 114.805L78.7568 114.805L70.6411 103L55 118.641L66.8046 126.757Z" fill="#33F396"/>
<path d="M75.8057 175.599L66.8047 181.649L78.7569 193.453L204.328 193.453L216.281 181.501L207.575 175.156L75.8057 175.599Z" fill="#00C792"/>
<path d="M78.7569 114.805L66.8047 126.757L75.8057 132.807L85.1018 123.511L78.7569 114.805Z" fill="#70FBAE"/>
<path d="M212.444 103L227.938 118.494L216.281 126.61L204.328 114.805L78.7568 114.805L70.6411 103L212.444 103Z" fill="#00C792"/>
<path d="M75.8057 132.807L75.8057 175.598L84.9542 184.895L197.836 184.895L207.575 175.156L207.575 132.954L198.131 123.511L85.1018 123.511L75.8057 132.807Z" fill="#70FBAE"/>
<path d="M198.131 123.511L75.8057 142.546L75.8057 132.807L85.1018 123.511L198.131 123.511Z" fill="#FEFEFE"/>
</svg>
