<svg width="395" height="491" viewBox="0 0 395 491" fill="none" xmlns="http://www.w3.org/2000/svg">
<rect width="394.099" height="490.871" rx="20" fill="#202020" fill-opacity="0.5"/>
<path d="M54.76 53.36C53.48 52.6133 51.96 52.24 50.2 52.24C48.44 52.24 47.0133 52.6933 45.92 53.6C45.8933 53.9733 45.88 54.3333 45.88 54.68C45.88 58.9467 48.16 61.08 52.72 61.08L52.52 62.56H52.04C49.9333 62.56 48.1867 62.9867 46.8 63.84C45.44 64.6667 44.76 66.0133 44.76 67.88C44.76 69.7467 45.4 71.2 46.68 72.24C47.96 73.2533 49.4667 73.76 51.2 73.76C52.9333 73.76 54.2933 73.44 55.28 72.8C55.4667 72.4267 55.56 71.84 55.56 71.04C55.56 70.24 55.4267 69.6933 55.16 69.4L55.2 69.12C55.8667 68.72 56.5333 68.16 57.2 67.44C57.52 67.4667 57.7733 67.6 57.96 67.84C58.1733 68.08 58.28 68.36 58.28 68.68C58.28 70.3067 57.5067 71.8933 55.96 73.44C54.44 74.96 52.7733 76.0133 50.96 76.6C48.1067 76.6 45.7333 75.9067 43.84 74.52C41.9467 73.1333 41 71.16 41 68.6C41 66.76 41.7733 65.2267 43.32 64C44.8667 62.7733 46.6267 62.16 48.6 62.16V62C46.7867 61.8933 45.2667 61.3867 44.04 60.48C42.84 59.5733 42.24 58.32 42.24 56.72C43.2 55.0133 44.4667 53.48 46.04 52.12C47.64 50.76 49.3467 49.84 51.16 49.36C53.0533 49.36 54.92 49.6133 56.76 50.12C57.1867 49.9067 57.7333 49.4933 58.4 48.88L59.24 49.44C57.48 51.5733 56.4 54.12 56 57.08H54.96C54.96 55.6133 54.8933 54.3733 54.76 53.36ZM71.5878 73.76C71.5878 72.1067 71.1745 69.64 70.3478 66.36C69.5211 63.0533 68.6011 59.8533 67.5878 56.76L67.4278 56.8L66.4278 64.24C66.0011 67.3067 65.7878 70.0667 65.7878 72.52C65.7878 74.0133 66.2545 75.0133 67.1878 75.52L67.0278 76.2C66.2278 76.0667 65.1745 76 63.8678 76C62.5878 76 61.1745 76.1067 59.6278 76.32L59.4678 75.28C60.3745 74.9867 61.2278 74.7733 62.0278 74.64L65.7478 56.4C64.3611 56.16 63.3345 55.9467 62.6678 55.76L62.7878 54.72C64.7078 55.0133 66.4811 55.16 68.1078 55.16C69.7611 55.16 71.0411 55.0667 71.9478 54.88L72.0278 55.56C71.3078 55.7467 70.9478 56.0533 70.9478 56.48C70.9478 57.0667 71.7745 60.4533 73.4278 66.64L74.3078 69.64L74.5878 69.56C74.5878 68.8667 75.8011 64.52 78.2278 56.52C78.2278 56.0667 77.8678 55.7467 77.1478 55.56L77.2278 54.88C78.1345 55.0667 79.4145 55.16 81.0678 55.16C82.7478 55.16 84.5345 55.0133 86.4278 54.72L86.5478 55.76C85.8278 55.9467 84.9078 56.1467 83.7878 56.36C83.7078 57 83.6678 57.9467 83.6678 59.2C83.6678 60.4267 83.8411 62.96 84.1878 66.8C84.5345 70.64 84.8545 73.28 85.1478 74.72C86.1345 74.8533 87.1478 75.04 88.1878 75.28L88.0678 76.28C86.6811 76.0933 85.1345 76 83.4278 76C81.7478 76 80.2278 76.1067 78.8678 76.32L78.7078 75.28C79.5878 75.0133 80.5345 74.8133 81.5478 74.68C81.4678 68.3867 81.0411 62.4533 80.2678 56.88H80.1478C77.4011 64.9867 75.9345 70.24 75.7478 72.64C75.1878 72.8267 74.5345 73.1733 73.7878 73.68C73.0411 74.16 72.4678 74.64 72.0678 75.12L71.5878 74.8V73.76ZM93.6931 66.12C93.7731 68.4933 94.2131 70.3467 95.0131 71.68C95.8131 73.0133 97.1731 73.68 99.0931 73.68C101.013 73.68 102.786 72.8667 104.413 71.24L104.973 71.8C103.186 74.0667 101.04 75.6267 98.5331 76.48C95.9465 76.48 93.9198 75.6667 92.4531 74.04C90.9865 72.3867 90.2531 70.1733 90.2531 67.4C90.2531 64.6 91.1198 61.9733 92.8531 59.52C94.5865 57.0667 96.7998 55.4533 99.4931 54.68C101.44 54.68 103.64 54.88 106.093 55.28L106.053 56.16C105.546 56.16 105.066 56.2533 104.613 56.44C104.106 57.64 103.773 59.0667 103.613 60.72H102.613C102.4 59.8133 102.293 58.88 102.293 57.92C101.28 57.4133 100.08 57.16 98.6931 57.16C97.3065 57.16 96.1598 57.5333 95.2531 58.28C94.3465 59.9333 93.8265 61.9067 93.6931 64.2C94.8131 64.3867 96.0131 64.48 97.2931 64.48C99.5065 64.48 100.84 64.0133 101.293 63.08L102.133 63.2C101.893 64 101.773 64.7867 101.773 65.56C101.773 66.3333 101.866 67.28 102.053 68.4L101.093 68.56C100.8 67.76 100.586 66.9333 100.453 66.08C99.3865 65.9733 98.3198 65.92 97.2531 65.92C96.2131 65.92 95.0265 65.9867 93.6931 66.12ZM108.103 55.24L117.303 54.96C119.703 54.96 121.503 55.32 122.703 56.04C123.903 56.7333 124.503 58.0133 124.503 59.88C124.503 61.16 124.103 62.2933 123.303 63.28C122.529 64.2667 121.503 65 120.223 65.48L124.703 74.64C125.609 74.8 126.463 74.9867 127.263 75.2L127.103 76.28C125.983 76.0933 124.716 76 123.303 76C121.916 76 120.823 76.0667 120.023 76.2L119.863 75.56C120.209 75.2133 120.383 74.64 120.383 73.84C120.383 72.2133 119.449 69.6 117.583 66C117.023 65.8933 116.369 65.84 115.623 65.84L115.703 64.68H116.103C119.249 64.68 120.823 63.24 120.823 60.36C120.823 57.6933 119.476 56.36 116.783 56.36C115.876 56.36 115.063 56.5067 114.343 56.8C114.156 58.56 114.063 61.5733 114.063 65.84C114.063 70.1067 114.183 73.0533 114.423 74.68C115.596 74.8133 116.689 75.0133 117.703 75.28L117.583 76.28C116.196 76.0933 114.636 76 112.903 76C111.196 76 109.663 76.1067 108.303 76.32L108.143 75.28C108.889 75.04 109.729 74.84 110.663 74.68C110.929 72.68 111.063 69.5733 111.063 65.36C111.063 61.12 110.943 58.1867 110.703 56.56C109.663 56.2133 108.796 56.04 108.103 56.04V55.24ZM131.758 54.72C134.264 55.0133 136.798 55.16 139.358 55.16C141.918 55.16 144.438 55.0133 146.918 54.72L147.078 55.76C146.278 56.08 145.451 56.32 144.598 56.48C144.304 58.6667 144.158 61.7067 144.158 65.6C144.158 69.4933 144.304 72.5333 144.598 74.72C145.131 74.8 146.118 75 147.558 75.32L147.398 76.32C146.118 76.1067 144.478 76 142.478 76C140.478 76 138.944 76.1067 137.878 76.32L137.717 75.28C138.624 74.9867 139.651 74.7733 140.798 74.64C140.958 73.0933 141.078 70.9467 141.158 68.2C139.904 68.0667 138.651 68 137.398 68C136.144 68 135.051 68.0667 134.118 68.2C133.584 70.3867 133.317 71.9067 133.317 72.76C133.317 74.0667 133.784 74.9867 134.718 75.52L134.558 76.2C133.944 76.0667 132.784 76 131.078 76C129.371 76 128.024 76.1067 127.037 76.32L126.877 75.28C127.518 75.04 128.398 74.8267 129.518 74.64L134.718 56.4C133.544 56.2133 132.518 56 131.638 55.76L131.758 54.72ZM134.438 66.32C135.478 66.48 136.624 66.56 137.878 66.56C139.158 66.56 140.251 66.48 141.158 66.32C141.158 61.3867 141.051 58.2 140.838 56.76C139.931 56.7067 139.251 56.68 138.798 56.68C138.371 56.68 137.704 56.7067 136.798 56.76L134.438 66.32ZM165.204 76.44C163.47 76.1467 161.11 76 158.124 76C155.164 76 152.684 76.1333 150.684 76.4L150.564 75.4C151.31 75.1067 152.164 74.8667 153.124 74.68C153.39 73.08 153.524 70.36 153.524 66.52V64.64C153.524 61.3333 153.39 58.6133 153.124 56.48C152.244 56.3467 151.404 56.1467 150.604 55.88L150.764 54.84C152.124 55.0533 153.724 55.16 155.564 55.16C157.404 55.16 158.977 55.0533 160.284 54.84L160.404 55.84C159.204 56.1333 158.017 56.3467 156.844 56.48C156.63 57.92 156.524 60.8933 156.524 65.4C156.524 69.88 156.63 72.8667 156.844 74.36C157.484 74.4667 158.39 74.52 159.564 74.52C160.737 74.52 161.79 74.2933 162.724 73.84C163.097 72.9333 163.284 71.8667 163.284 70.64H164.284C164.39 72.6933 164.764 74.36 165.404 75.64L165.204 76.44ZM166.573 55.24L175.773 54.96C178.813 54.96 181.146 55.68 182.773 57.12C184.426 58.56 185.253 60.72 185.253 63.6C185.253 66.4533 184.346 69.12 182.533 71.6C180.746 74.08 178.519 75.7067 175.853 76.48C175.159 76.48 174.253 76.3467 173.133 76.08C172.039 75.84 171.133 75.5733 170.413 75.28C170.119 75.6267 169.853 76.12 169.613 76.76L168.773 76.56C169.279 74.1867 169.533 70.84 169.533 66.52C169.533 62.1733 169.413 58.92 169.173 56.76C168.266 56.4133 167.399 56.24 166.573 56.24V55.24ZM180.333 59.24C179.853 58.3333 179.173 57.6267 178.293 57.12C177.439 56.6133 176.493 56.36 175.453 56.36C174.439 56.36 173.559 56.5067 172.813 56.8C172.626 58.5333 172.533 61.3067 172.533 65.12C172.533 68.9067 172.586 71.5333 172.693 73C174.026 73.6133 175.386 73.92 176.773 73.92C178.186 73.92 179.306 73.56 180.133 72.84C181.146 70.92 181.653 68.56 181.653 65.76C181.653 63.1467 181.213 60.9733 180.333 59.24Z" fill="#FAF9F6"/>
<path d="M40.3495 379.36V377.2H52.3735V379.36H40.3495ZM45.0775 383.992V372.4H47.5975V383.992H45.0775ZM61.8972 385V371.464L62.4972 371.608L56.9772 378.352L56.8812 378.064H67.3212V380.44H55.2732L54.1692 378.28L62.4012 368.2H64.3932V385H61.8972ZM76.7386 385V372.4H79.2346V375.088L78.7786 375.376C78.9066 374.96 79.1066 374.56 79.3786 374.176C79.6666 373.792 80.0106 373.456 80.4106 373.168C80.8266 372.864 81.2666 372.624 81.7306 372.448C82.2106 372.272 82.6986 372.184 83.1946 372.184C83.9146 372.184 84.5466 372.304 85.0906 372.544C85.6346 372.784 86.0826 373.144 86.4346 373.624C86.7866 374.104 87.0426 374.704 87.2026 375.424L86.8186 375.328L86.9866 374.92C87.1626 374.552 87.4026 374.208 87.7066 373.888C88.0266 373.552 88.3866 373.256 88.7866 373C89.1866 372.744 89.6106 372.544 90.0586 372.4C90.5066 372.256 90.9466 372.184 91.3786 372.184C92.3226 372.184 93.0986 372.376 93.7066 372.76C94.3306 373.144 94.7946 373.728 95.0986 374.512C95.4186 375.296 95.5786 376.272 95.5786 377.44V385H93.0826V377.584C93.0826 376.864 92.9866 376.28 92.7946 375.832C92.6186 375.368 92.3466 375.024 91.9786 374.8C91.6106 374.576 91.1386 374.464 90.5626 374.464C90.1146 374.464 89.6906 374.544 89.2906 374.704C88.9066 374.848 88.5706 375.056 88.2826 375.328C87.9946 375.6 87.7706 375.92 87.6106 376.288C87.4506 376.64 87.3706 377.032 87.3706 377.464V385H84.8746V377.536C84.8746 376.88 84.7786 376.328 84.5866 375.88C84.3946 375.416 84.1146 375.064 83.7466 374.824C83.3786 374.584 82.9306 374.464 82.4026 374.464C81.9546 374.464 81.5386 374.544 81.1546 374.704C80.7706 374.848 80.4346 375.056 80.1466 375.328C79.8586 375.584 79.6346 375.896 79.4746 376.264C79.3146 376.616 79.2346 377 79.2346 377.416V385H76.7386ZM103.736 385.24C102.696 385.24 101.744 384.952 100.88 384.376C100.032 383.8 99.3522 383.016 98.8402 382.024C98.3282 381.032 98.0722 379.912 98.0722 378.664C98.0722 377.4 98.3282 376.28 98.8402 375.304C99.3682 374.312 100.072 373.536 100.952 372.976C101.848 372.416 102.848 372.136 103.952 372.136C104.608 372.136 105.208 372.232 105.752 372.424C106.296 372.616 106.768 372.888 107.168 373.24C107.584 373.576 107.92 373.968 108.176 374.416C108.448 374.864 108.616 375.344 108.68 375.856L108.128 375.664V372.4H110.624V385H108.128V382L108.704 381.832C108.608 382.264 108.408 382.688 108.104 383.104C107.816 383.504 107.44 383.864 106.976 384.184C106.528 384.504 106.024 384.76 105.464 384.952C104.92 385.144 104.344 385.24 103.736 385.24ZM104.384 382.96C105.136 382.96 105.8 382.776 106.376 382.408C106.952 382.04 107.4 381.536 107.72 380.896C108.056 380.24 108.224 379.496 108.224 378.664C108.224 377.848 108.056 377.12 107.72 376.48C107.4 375.84 106.952 375.336 106.376 374.968C105.8 374.6 105.136 374.416 104.384 374.416C103.648 374.416 102.992 374.6 102.416 374.968C101.856 375.336 101.408 375.84 101.072 376.48C100.752 377.12 100.592 377.848 100.592 378.664C100.592 379.496 100.752 380.24 101.072 380.896C101.408 381.536 101.856 382.04 102.416 382.408C102.992 382.776 103.648 382.96 104.384 382.96ZM119.716 390.52C118.82 390.52 117.924 390.376 117.028 390.088C116.148 389.816 115.436 389.456 114.892 389.008L115.804 387.088C116.124 387.328 116.5 387.536 116.932 387.712C117.364 387.904 117.82 388.048 118.3 388.144C118.78 388.256 119.252 388.312 119.716 388.312C120.596 388.312 121.332 388.168 121.924 387.88C122.516 387.592 122.964 387.168 123.268 386.608C123.572 386.048 123.724 385.352 123.724 384.52V382.096L123.988 382.264C123.908 382.76 123.644 383.24 123.196 383.704C122.764 384.152 122.22 384.52 121.564 384.808C120.908 385.096 120.236 385.24 119.548 385.24C118.348 385.24 117.276 384.96 116.332 384.4C115.404 383.824 114.668 383.048 114.124 382.072C113.58 381.08 113.308 379.952 113.308 378.688C113.308 377.424 113.572 376.304 114.1 375.328C114.644 374.336 115.38 373.56 116.308 373C117.252 372.424 118.308 372.136 119.476 372.136C119.956 372.136 120.42 372.2 120.868 372.328C121.316 372.44 121.732 372.608 122.116 372.832C122.5 373.04 122.844 373.272 123.148 373.528C123.452 373.784 123.7 374.056 123.892 374.344C124.084 374.632 124.204 374.904 124.252 375.16L123.724 375.352V372.4H126.196V384.232C126.196 385.24 126.044 386.128 125.74 386.896C125.452 387.68 125.028 388.336 124.468 388.864C123.908 389.408 123.228 389.816 122.428 390.088C121.628 390.376 120.724 390.52 119.716 390.52ZM119.812 382.96C120.596 382.96 121.292 382.776 121.9 382.408C122.508 382.04 122.98 381.536 123.316 380.896C123.652 380.256 123.82 379.52 123.82 378.688C123.82 377.856 123.644 377.12 123.292 376.48C122.956 375.824 122.484 375.312 121.876 374.944C121.284 374.576 120.596 374.392 119.812 374.392C119.044 374.392 118.356 374.584 117.748 374.968C117.156 375.336 116.684 375.848 116.332 376.504C115.996 377.144 115.828 377.872 115.828 378.688C115.828 379.504 115.996 380.24 116.332 380.896C116.684 381.536 117.156 382.04 117.748 382.408C118.356 382.776 119.044 382.96 119.812 382.96ZM130.07 385V372.4H132.542V385H130.07ZM131.27 369.616C130.742 369.616 130.334 369.48 130.046 369.208C129.758 368.936 129.614 368.552 129.614 368.056C129.614 367.592 129.758 367.216 130.046 366.928C130.35 366.64 130.758 366.496 131.27 366.496C131.798 366.496 132.206 366.632 132.494 366.904C132.782 367.176 132.926 367.56 132.926 368.056C132.926 368.52 132.774 368.896 132.47 369.184C132.182 369.472 131.782 369.616 131.27 369.616ZM141.693 385.24C140.525 385.24 139.477 384.952 138.549 384.376C137.637 383.8 136.909 383.016 136.365 382.024C135.837 381.032 135.573 379.92 135.573 378.688C135.573 377.456 135.837 376.344 136.365 375.352C136.909 374.36 137.637 373.576 138.549 373C139.477 372.424 140.525 372.136 141.693 372.136C142.813 372.136 143.829 372.368 144.741 372.832C145.669 373.28 146.373 373.896 146.853 374.68L145.485 376.36C145.229 375.992 144.901 375.656 144.501 375.352C144.101 375.048 143.677 374.808 143.229 374.632C142.781 374.456 142.349 374.368 141.933 374.368C141.165 374.368 140.477 374.56 139.869 374.944C139.277 375.312 138.805 375.824 138.453 376.48C138.101 377.136 137.925 377.872 137.925 378.688C137.925 379.504 138.109 380.24 138.477 380.896C138.845 381.536 139.333 382.048 139.941 382.432C140.549 382.816 141.221 383.008 141.957 383.008C142.389 383.008 142.805 382.936 143.205 382.792C143.621 382.648 144.021 382.432 144.405 382.144C144.789 381.856 145.149 381.504 145.485 381.088L146.853 382.768C146.341 383.488 145.605 384.08 144.645 384.544C143.701 385.008 142.717 385.24 141.693 385.24ZM161.552 390.52C160.656 390.52 159.76 390.376 158.864 390.088C157.984 389.816 157.272 389.456 156.728 389.008L157.64 387.088C157.96 387.328 158.336 387.536 158.768 387.712C159.2 387.904 159.656 388.048 160.136 388.144C160.616 388.256 161.088 388.312 161.552 388.312C162.432 388.312 163.168 388.168 163.76 387.88C164.352 387.592 164.8 387.168 165.104 386.608C165.408 386.048 165.56 385.352 165.56 384.52V382.096L165.824 382.264C165.744 382.76 165.48 383.24 165.032 383.704C164.6 384.152 164.056 384.52 163.4 384.808C162.744 385.096 162.072 385.24 161.384 385.24C160.184 385.24 159.112 384.96 158.168 384.4C157.24 383.824 156.504 383.048 155.96 382.072C155.416 381.08 155.144 379.952 155.144 378.688C155.144 377.424 155.408 376.304 155.936 375.328C156.48 374.336 157.216 373.56 158.144 373C159.088 372.424 160.144 372.136 161.312 372.136C161.792 372.136 162.256 372.2 162.704 372.328C163.152 372.44 163.568 372.608 163.952 372.832C164.336 373.04 164.68 373.272 164.984 373.528C165.288 373.784 165.536 374.056 165.728 374.344C165.92 374.632 166.04 374.904 166.088 375.16L165.56 375.352V372.4H168.032V384.232C168.032 385.24 167.88 386.128 167.576 386.896C167.288 387.68 166.864 388.336 166.304 388.864C165.744 389.408 165.064 389.816 164.264 390.088C163.464 390.376 162.56 390.52 161.552 390.52ZM161.648 382.96C162.432 382.96 163.128 382.776 163.736 382.408C164.344 382.04 164.816 381.536 165.152 380.896C165.488 380.256 165.656 379.52 165.656 378.688C165.656 377.856 165.48 377.12 165.128 376.48C164.792 375.824 164.32 375.312 163.712 374.944C163.12 374.576 162.432 374.392 161.648 374.392C160.88 374.392 160.192 374.584 159.584 374.968C158.992 375.336 158.52 375.848 158.168 376.504C157.832 377.144 157.664 377.872 157.664 378.688C157.664 379.504 157.832 380.24 158.168 380.896C158.52 381.536 158.992 382.04 159.584 382.408C160.192 382.776 160.88 382.96 161.648 382.96ZM177.378 385.24C176.082 385.24 174.93 384.968 173.922 384.424C172.93 383.864 172.146 383.104 171.57 382.144C171.01 381.184 170.73 380.08 170.73 378.832C170.73 377.84 170.89 376.936 171.21 376.12C171.53 375.304 171.97 374.6 172.53 374.008C173.106 373.4 173.786 372.936 174.57 372.616C175.37 372.28 176.234 372.112 177.162 372.112C177.978 372.112 178.738 372.272 179.442 372.592C180.146 372.896 180.754 373.32 181.266 373.864C181.794 374.408 182.194 375.056 182.466 375.808C182.754 376.544 182.89 377.352 182.874 378.232L182.85 379.288H172.554L172.002 377.32H180.714L180.354 377.728V377.152C180.306 376.624 180.13 376.152 179.826 375.736C179.522 375.32 179.138 374.992 178.674 374.752C178.21 374.512 177.706 374.392 177.162 374.392C176.298 374.392 175.57 374.56 174.978 374.896C174.386 375.216 173.938 375.696 173.634 376.336C173.33 376.96 173.178 377.736 173.178 378.664C173.178 379.544 173.362 380.312 173.73 380.968C174.098 381.608 174.618 382.104 175.29 382.456C175.962 382.808 176.738 382.984 177.618 382.984C178.242 382.984 178.818 382.88 179.346 382.672C179.89 382.464 180.474 382.088 181.098 381.544L182.346 383.296C181.962 383.68 181.49 384.016 180.93 384.304C180.386 384.592 179.802 384.824 179.178 385C178.57 385.16 177.97 385.24 177.378 385.24ZM185.512 385V372.4H188.008V375.088L187.552 375.376C187.68 374.96 187.88 374.56 188.152 374.176C188.44 373.792 188.784 373.456 189.184 373.168C189.6 372.864 190.04 372.624 190.504 372.448C190.984 372.272 191.472 372.184 191.968 372.184C192.688 372.184 193.32 372.304 193.864 372.544C194.408 372.784 194.856 373.144 195.208 373.624C195.56 374.104 195.816 374.704 195.976 375.424L195.592 375.328L195.76 374.92C195.936 374.552 196.176 374.208 196.48 373.888C196.8 373.552 197.16 373.256 197.56 373C197.96 372.744 198.384 372.544 198.832 372.4C199.28 372.256 199.72 372.184 200.152 372.184C201.096 372.184 201.872 372.376 202.48 372.76C203.104 373.144 203.568 373.728 203.872 374.512C204.192 375.296 204.352 376.272 204.352 377.44V385H201.856V377.584C201.856 376.864 201.76 376.28 201.568 375.832C201.392 375.368 201.12 375.024 200.752 374.8C200.384 374.576 199.912 374.464 199.336 374.464C198.888 374.464 198.464 374.544 198.064 374.704C197.68 374.848 197.344 375.056 197.056 375.328C196.768 375.6 196.544 375.92 196.384 376.288C196.224 376.64 196.144 377.032 196.144 377.464V385H193.648V377.536C193.648 376.88 193.552 376.328 193.36 375.88C193.168 375.416 192.888 375.064 192.52 374.824C192.152 374.584 191.704 374.464 191.176 374.464C190.728 374.464 190.312 374.544 189.928 374.704C189.544 374.848 189.208 375.056 188.92 375.328C188.632 375.584 188.408 375.896 188.248 376.264C188.088 376.616 188.008 377 188.008 377.416V385H185.512ZM211.862 385.24C210.806 385.24 209.854 385.056 209.006 384.688C208.158 384.32 207.454 383.776 206.894 383.056L208.574 381.616C209.054 382.176 209.574 382.584 210.134 382.84C210.71 383.08 211.358 383.2 212.078 383.2C212.366 383.2 212.63 383.168 212.87 383.104C213.126 383.024 213.342 382.912 213.518 382.768C213.71 382.624 213.854 382.456 213.95 382.264C214.046 382.056 214.094 381.832 214.094 381.592C214.094 381.176 213.942 380.84 213.638 380.584C213.478 380.472 213.222 380.352 212.87 380.224C212.534 380.08 212.094 379.936 211.55 379.792C210.622 379.552 209.862 379.28 209.27 378.976C208.678 378.672 208.222 378.328 207.902 377.944C207.662 377.64 207.486 377.312 207.374 376.96C207.262 376.592 207.206 376.192 207.206 375.76C207.206 375.232 207.318 374.752 207.542 374.32C207.782 373.872 208.102 373.488 208.502 373.168C208.918 372.832 209.398 372.576 209.942 372.4C210.502 372.224 211.094 372.136 211.718 372.136C212.31 372.136 212.894 372.216 213.47 372.376C214.062 372.536 214.606 372.768 215.102 373.072C215.598 373.376 216.014 373.736 216.35 374.152L214.934 375.712C214.63 375.408 214.294 375.144 213.926 374.92C213.574 374.68 213.214 374.496 212.846 374.368C212.478 374.24 212.142 374.176 211.838 374.176C211.502 374.176 211.198 374.208 210.926 374.272C210.654 374.336 210.422 374.432 210.23 374.56C210.054 374.688 209.918 374.848 209.822 375.04C209.726 375.232 209.678 375.448 209.678 375.688C209.694 375.896 209.742 376.096 209.822 376.288C209.918 376.464 210.046 376.616 210.206 376.744C210.382 376.872 210.646 377.008 210.998 377.152C211.35 377.296 211.798 377.432 212.342 377.56C213.142 377.768 213.798 378 214.31 378.256C214.838 378.496 215.254 378.776 215.558 379.096C215.878 379.4 216.102 379.752 216.23 380.152C216.358 380.552 216.422 381 216.422 381.496C216.422 382.216 216.214 382.864 215.798 383.44C215.398 384 214.854 384.44 214.166 384.76C213.478 385.08 212.71 385.24 211.862 385.24Z" fill="#FAF9F6"/>
<path d="M295.523 292L98.4839 292L109.942 275.426L111.17 273.994L282.838 272.357L297.774 254.351L297.774 185.807L300.639 182.738L316.803 171.484L316.803 270.72L295.523 292Z" fill="#00D1C4"/>
<path d="M300.639 182.738L300.639 258.853L288.567 250.055L275.472 178.441L284.065 166.369L300.639 182.738Z" fill="#C6E9D8"/>
<path d="M77 270.516L77 171.689L93.3688 182.943L98.4841 243.916L109.942 275.426L98.4841 292L77 270.516Z" fill="#C6E9D8"/>
<path d="M93.3688 182.942L93.3688 259.057L275.472 178.441L284.065 166.369L109.942 166.369L98.6887 150L77 171.689L93.3688 182.942Z" fill="#33F396"/>
<path d="M105.85 250.669L93.3687 259.058L109.942 275.427L284.065 275.427L300.639 258.853L288.567 250.055L105.85 250.669Z" fill="#00C792"/>
<path d="M109.942 166.369L93.3687 182.942L105.85 191.331L118.74 178.441L109.942 166.369Z" fill="#70FBAE"/>
<path d="M295.319 150L316.803 171.484L300.639 182.738L284.065 166.369L109.942 166.369L98.6885 150L295.319 150Z" fill="#00C792"/>
<path d="M105.85 191.331L105.85 250.668L118.536 263.559L275.063 263.559L288.567 250.054L288.567 191.536L275.472 178.441L118.741 178.441L105.85 191.331Z" fill="#70FBAE"/>
<path d="M275.472 178.441L105.85 204.836L105.85 191.331L118.741 178.441L275.472 178.441Z" fill="#FEFEFE"/>
</svg>
