<svg width="281" height="350" viewBox="0 0 281 350" fill="none" xmlns="http://www.w3.org/2000/svg">
<rect width="281" height="349.631" rx="20" fill="#202020" fill-opacity="0.5"/>
<g filter="url(#filter0_d_337_37)">
<path d="M91.6386 96.0664C127.215 65.1575 169.127 83.1877 185.636 96.0664C190.19 99.3076 193.849 101.13 196.971 101.13C199.409 101.13 200.891 101.987 201.194 102.419C202.836 104.148 205.524 108.435 203.138 111.754C200.753 115.073 202.222 118.383 202.41 119.509C202.785 120.821 202.553 121.422 210.286 122.322C218.18 123.24 222.5 126.059 223.753 127.831C224.444 128.609 225.853 131.28 225.957 135.74C226.061 140.2 222.629 142.006 220.901 142.352C218.048 142.827 211.514 145.619 208.195 152.983C204.876 160.347 212.689 169.449 217.011 173.079C218.308 173.987 220.771 176.554 220.252 179.562C219.734 182.57 217.443 182.63 216.363 182.284C215.499 182.025 213.562 180.495 212.733 176.45C211.903 172.405 208.843 169.924 207.417 169.19C204.91 167.85 200.053 167.115 200.675 174.894C201.297 182.673 197.996 185.137 196.267 185.396C196.181 192.095 196.397 207.54 197.952 215.734C199.508 223.928 194.711 225.545 192.118 225.328C190.303 225.242 187.347 222.476 190.044 212.104C192.74 201.732 191.513 189.977 190.562 185.396C189.179 185.526 186.413 184.54 186.413 179.562C186.413 174.583 184.598 173.425 183.691 173.468C182.999 173.209 180.89 173.053 177.986 174.505C174.356 176.32 174.875 193.694 175.004 201.213C175.108 207.229 172.714 206.572 171.504 205.492C171.115 205.189 170.492 202.717 171.115 195.249C171.737 187.782 169.213 185.828 167.873 185.785C166.274 185.439 163.154 186.122 163.465 191.619C163.776 197.116 162.039 198.059 161.132 197.842C160.094 197.972 158.175 197.142 158.798 192.786C159.42 188.43 157.588 186.909 156.594 186.692C155.902 186.347 154.104 186.355 152.445 189.156C150.785 191.956 151.062 206.054 151.408 212.752C151.494 214.827 152.004 220.635 153.352 227.273C154.701 233.911 151.753 235.139 150.111 234.923C147.864 234.707 143.732 233.211 145.184 228.959C146.637 224.706 147 220.013 147 218.198C147.043 213.271 147.103 202.458 147 198.62C146.896 194.783 144.882 193.737 143.888 193.694C142.116 193.261 138.754 193.797 139.48 199.398C140.206 204.999 137.362 207.35 135.85 207.826C135.85 219.408 135.901 243.583 136.109 247.628C136.316 251.674 138.097 259.513 138.961 262.927C139.35 264.786 139.039 268.969 134.683 270.836C130.326 272.703 128.719 268.762 128.459 266.558C128.2 264.267 128.096 258.986 129.756 256.185C131.415 253.385 131.658 248.45 131.571 246.332V207.826C129.972 206.399 126.955 201.784 127.682 194.731C128.408 187.678 125.391 184.618 123.792 183.97C121.199 182.933 116.402 182.518 117.958 189.156C119.514 195.794 118.606 205.146 117.958 208.992C117.526 210.937 117.05 216.149 118.606 221.439C120.162 226.729 118.822 228.31 117.958 228.44C117.223 228.699 115.417 228.985 114.068 228.051C112.72 227.118 112.988 222.39 113.29 220.142C113.895 215.821 114.82 203.573 113.679 189.156C112.538 174.739 107.845 175.11 105.641 177.098C104.474 178.151 103.213 180.066 102.529 181.247C101.103 183.71 99.6769 187.859 98.1211 190.323C96.3578 193.538 97.3864 198.231 98.1211 200.176C102.374 210.237 100.844 214.567 99.5473 215.475C97.9482 216.988 94.1019 219.365 91.5089 216.772C88.9159 214.178 90.4285 206.875 91.5089 203.547C92.719 198.966 94.4909 189.545 91.8979 188.508C89.3048 187.47 88.3108 180.901 88.138 177.747C85.6487 160.529 79.9267 162.966 77.3769 166.337C75.5186 168.585 72.6058 174.972 75.8211 182.544C79.0365 190.115 75.7779 193.478 73.7467 194.212C72.7959 194.601 70.2202 194.783 67.5234 192.397C64.8267 190.012 65.9676 184.834 66.8752 182.544C72.165 163.252 68.2149 155.317 65.5787 153.761C63.1585 151.946 57.7218 149.405 55.3362 153.761C52.9507 158.117 50.107 158.688 48.9834 158.429C47.3411 157.823 45.3791 155.758 50.6688 152.335C55.9586 148.912 56.7625 143.043 56.5032 140.537C56.2871 137.252 57.0736 130.398 61.9485 129.257C66.8234 128.116 68.7336 122.991 69.0793 120.57C69.425 118.41 69.2608 112.947 65.838 108.383C62.4152 103.82 62.4239 98.7026 62.856 96.7146C63.7204 94.3377 67.2642 91.1656 74.5246 97.4925C81.7851 103.819 88.9591 99.178 91.6386 96.0664Z" fill="#C12026"/>
<path d="M81.6562 83.3606C81.5525 80.4564 83.6874 79.8168 84.7679 79.86C87.1016 79.86 88.6574 80.6379 88.6574 83.6199C88.6574 86.0055 86.7559 86.6019 85.8051 86.6019C84.4654 86.7315 81.76 86.2648 81.6562 83.3606Z" fill="#C12026"/>
<path d="M54.1702 112.921C57.593 113.647 60.3503 120.225 61.3011 123.423C59.0192 121.66 54.9049 121.478 53.1331 121.608C51.9662 121.608 49.2954 121.089 47.947 119.015C46.5986 116.94 47.2123 115.644 47.6877 115.255C48.4224 114.174 50.7475 112.195 54.1702 112.921Z" fill="#C12026"/>
<path d="M48.2063 169.708C47.6877 166.389 51.0155 165.214 52.7441 165.041C54.9483 165.041 57.2819 165.948 57.2819 169.708C57.2819 172.716 54.2567 173.641 52.7441 173.727C51.4476 173.771 48.7249 173.027 48.2063 169.708Z" fill="#C12026"/>
<path d="M217.92 157.91C217.505 155.939 219.302 155.014 220.253 154.798C221.29 154.798 223.106 154.798 223.495 157.132C223.806 158.999 222.155 159.811 221.29 159.984C220.34 160.114 218.334 159.881 217.92 157.91Z" fill="#C12026"/>
<path d="M213.64 113.958C213.226 110.224 216.233 108.859 217.789 108.643C219.475 108.643 222.975 109.031 222.846 113.051C222.742 116.266 220.296 117.329 219.086 117.459C217.444 117.848 214.055 117.692 213.64 113.958Z" fill="#C12026"/>
<path d="M199.898 86.4723C198.031 89.2727 197.391 94.4674 197.305 96.7147C199.768 94.5106 202.491 94.1217 204.176 93.992C205.525 93.8883 207.158 92.7387 207.806 92.1769C208.023 92.0905 208.532 91.399 208.844 89.3246C209.155 87.2502 207.59 85.8672 206.769 85.4351C205.257 84.6139 201.765 83.6718 199.898 86.4723Z" fill="#C12026"/>
<rect x="37" y="124.234" width="7.20041" height="23.8513" rx="3.6002" fill="#202020"/>
<rect x="63.3262" y="128.959" width="7.20041" height="19.1261" transform="rotate(90 63.3262 128.959)" fill="#202020"/>
<rect x="63.3262" y="136.16" width="7.20041" height="19.1261" transform="rotate(90 63.3262 136.16)" fill="#202020"/>
<rect x="63.3262" y="119.509" width="7.20041" height="33.3019" rx="3.6002" fill="#202020"/>
<path d="M209.247 124.281L70.5264 129.127V136.283H244.189L209.247 124.281Z" fill="#202020"/>
<path d="M209.247 147.911L70.5264 143.065V135.908H244.189L209.247 147.911Z" fill="#202020"/>
<g filter="url(#filter1_d_337_37)">
<path d="M78.7091 132.376C78.6258 132.293 78.5841 132.178 78.5841 132.032C78.5841 131.928 78.5841 131.845 78.5841 131.782C78.605 131.699 78.6258 131.605 78.6466 131.501C78.7508 131.022 78.8029 130.543 78.8029 130.064C78.8029 129.564 78.8237 129.074 78.8654 128.595C78.8862 128.303 78.8966 128.011 78.8966 127.72C78.9175 127.428 78.9279 127.136 78.9279 126.845C78.9279 125.116 78.8758 123.397 78.7716 121.689C78.6675 119.959 78.6154 118.22 78.6154 116.47C78.6154 115.261 78.6362 114.053 78.6779 112.845C78.7195 111.616 78.7508 110.386 78.7716 109.157C78.9591 109.053 79.1883 109.011 79.4591 109.032C79.73 109.053 79.9487 108.959 80.1154 108.751C80.2195 108.73 80.3237 108.73 80.4279 108.751C80.532 108.751 80.6362 108.751 80.7404 108.751C80.9695 108.751 81.1883 108.678 81.3966 108.532C81.605 108.386 81.8341 108.261 82.0841 108.157C82.2091 108.199 82.2925 108.22 82.3341 108.22C82.3966 108.199 82.4591 108.189 82.5216 108.189C82.5841 108.189 82.7195 108.261 82.9279 108.407C83.1362 108.553 83.3654 108.72 83.6154 108.907C83.8654 109.095 84.0945 109.272 84.3029 109.439C84.532 109.605 84.6779 109.709 84.7404 109.751C85.2612 110.147 85.7195 110.584 86.1154 111.064C86.532 111.522 86.9383 111.991 87.3341 112.47C87.7091 112.949 88.1154 113.439 88.5529 113.939C88.9904 114.418 89.4175 114.866 89.8341 115.282C89.98 115.449 90.1258 115.595 90.2716 115.72C90.4383 115.845 90.5945 115.991 90.7404 116.157C90.8029 116.241 90.855 116.334 90.8966 116.439C90.9591 116.522 91.0216 116.616 91.0841 116.72C91.2091 116.866 91.355 116.991 91.5216 117.095C91.6883 117.199 91.8445 117.324 91.9904 117.47C92.0945 117.553 92.2508 117.72 92.4591 117.97C92.6675 118.22 92.7716 118.407 92.7716 118.532C92.7716 118.616 92.7508 118.689 92.7091 118.751C92.6675 118.814 92.6258 118.886 92.5841 118.97C92.5633 119.032 92.5529 119.126 92.5529 119.251C92.5529 119.376 92.5425 119.459 92.5216 119.501C92.3133 119.668 92.1987 119.772 92.1779 119.814C92.157 119.855 92.1258 119.897 92.0841 119.939C92.0216 120.022 91.9383 120.095 91.8341 120.157C91.7508 120.199 91.6883 120.272 91.6466 120.376C91.605 120.439 91.5841 120.501 91.5841 120.564C91.605 120.626 91.5945 120.699 91.5529 120.782C91.4487 121.011 91.282 121.23 91.0529 121.439C90.8237 121.647 90.6258 121.876 90.4591 122.126C90.23 122.501 90.0008 122.876 89.7716 123.251C89.5425 123.626 89.282 123.991 88.9904 124.345C88.8654 124.511 88.73 124.678 88.5841 124.845C88.4591 124.991 88.3341 125.147 88.2091 125.314C88.105 125.439 88.0112 125.574 87.9279 125.72C87.8445 125.845 87.7508 125.991 87.6466 126.157C87.4175 126.449 87.1987 126.741 86.9904 127.032C86.782 127.303 86.5633 127.584 86.3341 127.876C86.0841 128.23 85.8133 128.584 85.5216 128.939C85.23 129.272 84.9695 129.616 84.7404 129.97C84.5112 130.345 84.2716 130.689 84.0216 131.001C83.7716 131.314 83.5008 131.616 83.2091 131.907C83.1258 131.97 83.0216 132.064 82.8966 132.189C82.7716 132.314 82.6466 132.376 82.5216 132.376C82.4383 132.376 82.3654 132.345 82.3029 132.282C82.2612 132.22 82.1883 132.189 82.0841 132.189C82.0633 132.189 82.0008 132.199 81.8966 132.22C81.7925 132.241 81.6675 132.261 81.5216 132.282L80.9591 132.345C80.6258 132.511 80.3862 132.584 80.2404 132.564C80.0945 132.564 79.9487 132.574 79.8029 132.595C79.7195 132.616 79.6466 132.647 79.5841 132.689C79.5425 132.73 79.4904 132.751 79.4279 132.751C79.282 132.751 79.1675 132.678 79.0841 132.532C79.0008 132.407 78.8758 132.355 78.7091 132.376ZM88.0841 118.876C88.0841 118.772 87.98 118.626 87.7716 118.439C87.5841 118.251 87.4383 118.116 87.3341 118.032C87.1883 117.907 87.0112 117.793 86.8029 117.689C86.6154 117.564 86.4591 117.428 86.3341 117.282C86.23 117.157 86.1258 117.032 86.0216 116.907C85.9383 116.761 85.8445 116.626 85.7404 116.501C85.3654 116.084 84.98 115.668 84.5841 115.251C84.2091 114.834 83.8758 114.376 83.5841 113.876C83.3966 113.751 83.2195 113.605 83.0529 113.439C82.8862 113.272 82.6883 113.136 82.4591 113.032C82.4175 113.157 82.3966 113.293 82.3966 113.439C82.4175 113.564 82.4279 113.689 82.4279 113.814C82.4279 114.293 82.407 114.761 82.3654 115.22C82.3237 115.678 82.3029 116.136 82.3029 116.595C82.3029 117.72 82.3237 118.834 82.3654 119.939C82.4279 121.022 82.4591 122.116 82.4591 123.22C82.4591 123.636 82.4591 124.053 82.4591 124.47C82.48 124.886 82.5216 125.303 82.5841 125.72C82.5425 125.845 82.5216 125.959 82.5216 126.064C82.5216 126.168 82.5425 126.303 82.5841 126.47C82.7508 126.366 82.8862 126.241 82.9904 126.095C83.1154 125.928 83.23 125.772 83.3341 125.626C83.6883 125.168 84.032 124.709 84.3654 124.251C84.7195 123.772 85.0737 123.293 85.4279 122.814C85.657 122.501 85.8862 122.199 86.1154 121.907C86.3654 121.595 86.605 121.272 86.8341 120.939C86.8966 120.855 86.9904 120.709 87.1154 120.501C87.2612 120.293 87.3966 120.084 87.5216 119.876C87.6675 119.647 87.7925 119.439 87.8966 119.251C88.0216 119.064 88.0841 118.939 88.0841 118.876ZM99.1154 123.814C99.157 123.918 99.3029 124.136 99.5529 124.47C99.8237 124.803 100.126 125.168 100.459 125.564C100.792 125.959 101.105 126.345 101.397 126.72C101.709 127.074 101.928 127.334 102.053 127.501C102.282 127.793 102.501 128.084 102.709 128.376C102.938 128.647 103.147 128.939 103.334 129.251L103.897 130.189C104.063 130.397 104.209 130.574 104.334 130.72C104.48 130.866 104.595 131.064 104.678 131.314C104.72 131.48 104.74 131.595 104.74 131.657C104.74 131.803 104.688 131.907 104.584 131.97C104.417 131.97 104.324 131.991 104.303 132.032C104.303 132.095 104.261 132.147 104.178 132.189C104.095 132.23 103.959 132.251 103.772 132.251C103.605 132.272 103.47 132.282 103.365 132.282C103.178 132.282 102.938 132.272 102.647 132.251C102.376 132.251 102.157 132.282 101.99 132.345C101.949 132.366 101.886 132.397 101.803 132.439C101.72 132.48 101.657 132.501 101.615 132.501C101.449 132.501 101.324 132.47 101.24 132.407C101.178 132.366 101.084 132.334 100.959 132.314C100.792 132.126 100.647 131.939 100.522 131.751C100.417 131.543 100.292 131.334 100.147 131.126C100.001 130.98 99.855 130.855 99.7091 130.751C99.5633 130.626 99.4383 130.491 99.3341 130.345C99.0216 129.886 98.6987 129.439 98.3654 129.001C98.032 128.564 97.6883 128.136 97.3341 127.72C97.1675 127.491 96.9904 127.282 96.8029 127.095C96.6154 126.907 96.4383 126.699 96.2716 126.47C96.105 126.261 95.9487 126.043 95.8029 125.814C95.657 125.564 95.5112 125.324 95.3654 125.095C95.2404 124.907 95.0737 124.668 94.8654 124.376C94.657 124.064 94.4279 123.761 94.1779 123.47C93.9279 123.157 93.6779 122.866 93.4279 122.595C93.1779 122.324 92.9695 122.116 92.8029 121.97C92.782 121.845 92.73 121.751 92.6466 121.689C92.5633 121.605 92.4695 121.532 92.3654 121.47C92.3237 121.366 92.282 121.272 92.2404 121.189C92.1779 121.084 92.1466 120.98 92.1466 120.876C92.1466 120.73 92.1779 120.595 92.2404 120.47C92.282 120.386 92.3133 120.314 92.3341 120.251C92.3341 120.168 92.355 120.084 92.3966 120.001C92.5008 119.772 92.6362 119.553 92.8029 119.345C92.9904 119.116 93.1362 118.876 93.2404 118.626C93.282 118.564 93.3029 118.501 93.3029 118.439C93.3029 118.355 93.3237 118.282 93.3654 118.22C93.407 118.053 93.4904 117.918 93.6154 117.814C93.7612 117.689 93.8758 117.553 93.9591 117.407C94.0633 117.241 94.157 117.074 94.2404 116.907C94.3445 116.72 94.4487 116.522 94.5529 116.314C94.8654 115.793 95.1883 115.293 95.5216 114.814C95.8758 114.314 96.23 113.814 96.5841 113.314C96.855 112.897 97.1154 112.501 97.3654 112.126C97.6362 111.73 97.907 111.334 98.1779 110.939C98.3237 110.751 98.48 110.532 98.6466 110.282C98.8133 110.032 98.9904 109.782 99.1779 109.532C99.3862 109.282 99.5945 109.053 99.8029 108.845C100.011 108.636 100.22 108.47 100.428 108.345C100.74 108.324 100.949 108.397 101.053 108.564C101.157 108.709 101.313 108.782 101.522 108.782C101.792 108.845 101.97 108.928 102.053 109.032C102.136 109.136 102.23 109.241 102.334 109.345C102.626 109.345 102.855 109.397 103.022 109.501C103.209 109.605 103.386 109.761 103.553 109.97C103.49 110.199 103.397 110.407 103.272 110.595C103.147 110.761 103.032 110.939 102.928 111.126C102.761 111.209 102.636 111.324 102.553 111.47C102.49 111.616 102.386 111.73 102.24 111.814C102.032 112.168 101.813 112.511 101.584 112.845C101.355 113.157 101.126 113.47 100.897 113.782C100.772 113.97 100.636 114.136 100.49 114.282C100.365 114.428 100.251 114.584 100.147 114.751C100.105 114.814 100.063 114.886 100.022 114.97C100.001 115.032 99.9695 115.095 99.9279 115.157C99.6779 115.553 99.407 115.928 99.1154 116.282C98.8237 116.616 98.5529 116.991 98.3029 117.407C98.2195 117.553 98.1466 117.709 98.0841 117.876C98.0425 118.022 97.98 118.168 97.8966 118.314C97.8133 118.439 97.6883 118.605 97.5216 118.814C97.3758 119.022 97.23 119.251 97.0841 119.501C96.9383 119.73 96.8029 119.959 96.6779 120.189C96.5737 120.397 96.5216 120.574 96.5216 120.72C96.5425 120.824 96.6675 121.032 96.8966 121.345C97.1466 121.636 97.4175 121.959 97.7091 122.314C98.0216 122.647 98.3133 122.97 98.5841 123.282C98.855 123.574 99.032 123.751 99.1154 123.814ZM101.178 118.126C101.324 118.439 101.48 118.709 101.647 118.939C101.709 119.022 101.782 119.095 101.865 119.157C101.949 119.22 102.011 119.303 102.053 119.407C102.095 119.449 102.136 119.543 102.178 119.689C102.22 119.814 102.261 119.907 102.303 119.97C102.365 120.136 102.49 120.324 102.678 120.532C102.865 120.741 102.959 120.928 102.959 121.095C102.959 121.199 102.938 121.314 102.897 121.439C102.855 121.564 102.824 121.678 102.803 121.782C102.782 121.907 102.772 122.043 102.772 122.189C102.772 122.314 102.73 122.428 102.647 122.532C102.542 122.636 102.428 122.699 102.303 122.72C102.178 122.741 102.063 122.793 101.959 122.876C101.917 122.918 101.855 122.991 101.772 123.095C101.688 123.199 101.605 123.314 101.522 123.439C101.438 123.564 101.355 123.689 101.272 123.814C101.209 123.918 101.178 124.001 101.178 124.064C100.928 124.084 100.761 124.095 100.678 124.095C100.615 124.074 100.542 124.074 100.459 124.095C100.355 123.991 100.24 123.907 100.115 123.845C100.011 123.761 99.8758 123.689 99.7091 123.626C99.6675 123.459 99.5737 123.272 99.4279 123.064C99.282 122.834 99.157 122.647 99.0529 122.501L98.8341 122.22C98.5216 121.782 98.23 121.366 97.9591 120.97C97.7091 120.553 97.5216 120.095 97.3966 119.595C97.7925 119.303 98.0945 119.084 98.3029 118.939C98.532 118.793 98.7716 118.657 99.0216 118.532C99.2716 118.407 99.5112 118.293 99.7404 118.189C99.9904 118.064 100.22 117.918 100.428 117.751C100.595 117.751 100.709 117.761 100.772 117.782C100.834 117.803 100.876 117.824 100.897 117.845C100.917 117.866 100.938 117.907 100.959 117.97C101.001 118.011 101.074 118.064 101.178 118.126ZM112.959 108.345C113.063 108.72 113.167 109.095 113.272 109.47C113.376 109.824 113.501 110.178 113.647 110.532C113.959 110.574 114.147 110.605 114.209 110.626C114.292 110.647 114.386 110.678 114.49 110.72C114.72 111.261 114.855 111.845 114.897 112.47C114.959 113.074 115.042 113.668 115.147 114.251C115.542 114.772 115.824 115.334 115.99 115.939C116.178 116.522 116.386 117.116 116.615 117.72C116.678 117.928 116.72 118.064 116.74 118.126C116.761 118.168 116.772 118.209 116.772 118.251C116.897 118.605 117.022 118.97 117.147 119.345C117.272 119.72 117.407 120.084 117.553 120.439C117.615 120.626 117.678 120.814 117.74 121.001C117.824 121.168 117.897 121.334 117.959 121.501C118.022 121.709 118.074 121.928 118.115 122.157C118.178 122.366 118.24 122.574 118.303 122.782C118.449 123.199 118.605 123.616 118.772 124.032C118.938 124.449 119.105 124.866 119.272 125.282C119.334 125.428 119.449 125.751 119.615 126.251C119.803 126.751 119.99 127.282 120.178 127.845C120.365 128.386 120.532 128.897 120.678 129.376C120.845 129.834 120.928 130.116 120.928 130.22C120.928 130.386 120.938 130.564 120.959 130.751C121.001 130.918 121.032 131.095 121.053 131.282C120.97 131.491 120.865 131.605 120.74 131.626C120.615 131.647 120.501 131.636 120.397 131.595C120.292 131.636 120.188 131.678 120.084 131.72C120.001 131.761 119.917 131.803 119.834 131.845C119.772 131.866 119.72 131.897 119.678 131.939C119.636 131.98 119.584 132.001 119.522 132.001C119.272 132.001 119.105 132.022 119.022 132.064C118.959 132.126 118.855 132.157 118.709 132.157C118.522 132.095 118.397 132.084 118.334 132.126C118.292 132.189 118.251 132.23 118.209 132.251C118.126 132.293 118.032 132.314 117.928 132.314C117.824 132.314 117.72 132.324 117.615 132.345C117.574 132.261 117.532 132.178 117.49 132.095C117.47 132.011 117.428 131.918 117.365 131.814C117.136 131.48 116.97 131.157 116.865 130.845C116.782 130.532 116.709 130.282 116.647 130.095C116.542 129.866 116.449 129.636 116.365 129.407C116.303 129.178 116.22 128.949 116.115 128.72C115.99 128.761 115.876 128.814 115.772 128.876C115.667 128.918 115.584 128.98 115.522 129.064C115.272 129.064 115.147 129.095 115.147 129.157C115.147 129.22 115.126 129.282 115.084 129.345C114.959 129.386 114.855 129.428 114.772 129.47C114.709 129.511 114.595 129.522 114.428 129.501C114.324 129.605 114.22 129.699 114.115 129.782C114.011 129.845 113.876 129.886 113.709 129.907C113.542 130.074 113.365 130.22 113.178 130.345C113.011 130.449 112.813 130.47 112.584 130.407C112.292 130.47 112.001 130.532 111.709 130.595C111.417 130.636 111.126 130.657 110.834 130.657C110.501 130.553 110.292 130.459 110.209 130.376C110.126 130.293 110.001 130.251 109.834 130.251C109.855 129.959 109.792 129.761 109.647 129.657C109.647 129.595 109.647 129.501 109.647 129.376C109.667 129.23 109.699 129.136 109.74 129.095C110.011 128.97 110.167 128.834 110.209 128.689C110.251 128.543 110.365 128.449 110.553 128.407C110.595 128.324 110.636 128.251 110.678 128.189C110.74 128.105 110.792 128.022 110.834 127.939C110.938 127.897 111.022 127.866 111.084 127.845C111.167 127.824 111.23 127.761 111.272 127.657C111.376 127.657 111.532 127.595 111.74 127.47C111.949 127.324 112.084 127.209 112.147 127.126C112.313 127.064 112.417 127.011 112.459 126.97C112.501 126.907 112.553 126.855 112.615 126.814C112.824 126.834 112.959 126.814 113.022 126.751C113.188 126.834 113.376 126.876 113.584 126.876C113.667 126.876 113.74 126.876 113.803 126.876C113.865 126.855 113.938 126.845 114.022 126.845C114.188 126.678 114.397 126.574 114.647 126.532C114.917 126.47 115.136 126.355 115.303 126.189C115.24 126.022 115.188 125.824 115.147 125.595C115.105 125.345 115.032 125.147 114.928 125.001C114.886 124.73 114.813 124.47 114.709 124.22C114.626 123.97 114.553 123.73 114.49 123.501C114.261 122.626 113.99 121.772 113.678 120.939C113.365 120.105 113.105 119.251 112.897 118.376C112.855 118.272 112.803 118.168 112.74 118.064C112.699 117.939 112.657 117.824 112.615 117.72C112.511 117.97 112.459 118.116 112.459 118.157C112.459 118.178 112.438 118.209 112.397 118.251C112.376 118.355 112.355 118.449 112.334 118.532C112.313 118.595 112.282 118.678 112.24 118.782C112.178 118.949 112.115 119.136 112.053 119.345C112.011 119.532 111.97 119.709 111.928 119.876C111.824 120.23 111.73 120.605 111.647 121.001C111.563 121.376 111.47 121.751 111.365 122.126C111.157 122.772 110.938 123.418 110.709 124.064C110.501 124.689 110.292 125.324 110.084 125.97C110.042 126.261 109.99 126.491 109.928 126.657C109.886 126.803 109.834 126.959 109.772 127.126C109.73 127.272 109.688 127.418 109.647 127.564C109.626 127.709 109.615 127.824 109.615 127.907C109.324 128.574 109.074 129.251 108.865 129.939C108.678 130.626 108.438 131.293 108.147 131.939C108.063 131.98 107.99 132.032 107.928 132.095C107.865 132.157 107.792 132.189 107.709 132.189C107.542 132.189 107.449 132.147 107.428 132.064C107.428 131.98 107.386 131.939 107.303 131.939C107.22 131.939 107.147 131.959 107.084 132.001C107.022 132.022 106.959 132.053 106.897 132.095C106.792 132.053 106.667 132.022 106.522 132.001C106.397 132.001 106.303 131.959 106.24 131.876C106.095 131.98 105.949 132.032 105.803 132.032C105.636 132.032 105.47 131.98 105.303 131.876C105.178 131.918 105.053 131.939 104.928 131.939C104.865 131.939 104.792 131.928 104.709 131.907C104.626 131.886 104.563 131.855 104.522 131.814C104.501 131.73 104.49 131.647 104.49 131.564C104.49 131.48 104.49 131.386 104.49 131.282C104.49 131.074 104.47 130.918 104.428 130.814C104.803 129.751 105.167 128.678 105.522 127.595C105.876 126.491 106.23 125.376 106.584 124.251C106.772 123.73 106.949 123.22 107.115 122.72C107.303 122.22 107.48 121.709 107.647 121.189C107.73 120.897 107.803 120.626 107.865 120.376C107.928 120.105 108.011 119.845 108.115 119.595C108.282 119.053 108.449 118.511 108.615 117.97C108.803 117.407 108.97 116.855 109.115 116.314C109.199 116.251 109.251 116.178 109.272 116.095C109.292 116.011 109.324 115.918 109.365 115.814L109.334 115.407C109.48 115.199 109.574 115.022 109.615 114.876C109.678 114.709 109.72 114.543 109.74 114.376C109.845 114.126 109.938 113.855 110.022 113.564C110.105 113.272 110.167 113.001 110.209 112.751C110.251 112.418 110.272 112.043 110.272 111.626C110.292 111.189 110.355 110.824 110.459 110.532C110.501 110.449 110.532 110.397 110.553 110.376C110.595 110.334 110.615 110.261 110.615 110.157C110.657 110.116 110.699 110.074 110.74 110.032C110.803 109.97 110.845 109.907 110.865 109.845C110.97 109.678 111.001 109.532 110.959 109.407C110.938 109.282 110.928 109.147 110.928 109.001C111.115 108.897 111.199 108.803 111.178 108.72C111.157 108.636 111.147 108.553 111.147 108.47C111.147 108.366 111.209 108.272 111.334 108.189C111.48 108.084 111.574 107.98 111.615 107.876C111.74 107.897 111.865 107.918 111.99 107.939C112.115 107.939 112.24 107.928 112.365 107.907C112.511 108.178 112.688 108.314 112.897 108.314L112.959 108.345ZM135.553 109.657C135.511 109.741 135.49 109.824 135.49 109.907C135.511 109.991 135.522 110.084 135.522 110.189C135.48 110.439 135.48 110.564 135.522 110.564C135.563 110.564 135.584 110.584 135.584 110.626L135.365 110.939C135.365 111.064 135.334 111.178 135.272 111.282C135.23 111.386 135.22 111.511 135.24 111.657C135.178 111.761 135.115 111.866 135.053 111.97C135.011 112.074 134.938 112.178 134.834 112.282H134.428C134.199 112.282 133.949 112.303 133.678 112.345C133.428 112.366 133.178 112.376 132.928 112.376C132.886 112.376 132.834 112.376 132.772 112.376C132.709 112.355 132.647 112.345 132.584 112.345C132.542 112.345 132.49 112.355 132.428 112.376C132.365 112.376 132.292 112.376 132.209 112.376C131.897 112.376 131.584 112.366 131.272 112.345C130.98 112.303 130.667 112.282 130.334 112.282C130.251 112.282 130.167 112.282 130.084 112.282C130.001 112.282 129.907 112.293 129.803 112.314C129.782 112.668 129.761 113.032 129.74 113.407C129.74 113.761 129.74 114.126 129.74 114.501C129.74 114.605 129.73 114.72 129.709 114.845C129.688 114.949 129.678 115.053 129.678 115.157C129.657 115.428 129.636 115.689 129.615 115.939C129.615 116.189 129.615 116.449 129.615 116.72C129.615 117.303 129.615 117.886 129.615 118.47C129.636 119.053 129.657 119.647 129.678 120.251C129.699 120.564 129.72 120.866 129.74 121.157C129.761 121.449 129.772 121.751 129.772 122.064C129.772 122.772 129.761 123.48 129.74 124.189C129.72 124.876 129.709 125.574 129.709 126.282C129.709 126.511 129.699 126.73 129.678 126.939C129.657 127.126 129.647 127.334 129.647 127.564C129.647 128.043 129.657 128.522 129.678 129.001C129.699 129.48 129.709 129.959 129.709 130.439C129.709 130.668 129.699 130.897 129.678 131.126C129.678 131.355 129.678 131.584 129.678 131.814C129.574 131.98 129.501 132.126 129.459 132.251C129.417 132.376 129.292 132.439 129.084 132.439C128.938 132.397 128.865 132.345 128.865 132.282C128.886 132.241 128.876 132.199 128.834 132.157C128.647 132.136 128.501 132.147 128.397 132.189C128.313 132.251 128.209 132.303 128.084 132.345C128.022 132.324 127.949 132.314 127.865 132.314C127.803 132.314 127.74 132.314 127.678 132.314C127.636 132.314 127.595 132.324 127.553 132.345C127.511 132.386 127.417 132.407 127.272 132.407C127.147 132.428 127.074 132.407 127.053 132.345C127.032 132.282 126.97 132.251 126.865 132.251C126.761 132.314 126.636 132.355 126.49 132.376C126.365 132.418 126.24 132.439 126.115 132.439C125.99 132.355 125.928 132.272 125.928 132.189C125.949 132.126 125.938 132.053 125.897 131.97C125.876 131.928 125.834 131.876 125.772 131.814C125.73 131.73 125.688 131.668 125.647 131.626C125.688 131.334 125.72 131.074 125.74 130.845C125.761 130.616 125.772 130.366 125.772 130.095C125.772 129.553 125.751 129.022 125.709 128.501C125.667 127.98 125.647 127.449 125.647 126.907C125.647 126.741 125.667 126.564 125.709 126.376C125.751 126.189 125.772 125.991 125.772 125.782C125.73 125.616 125.72 125.522 125.74 125.501C125.761 125.459 125.772 125.418 125.772 125.376C125.772 125.251 125.761 125.126 125.74 125.001C125.74 124.876 125.74 124.751 125.74 124.626C125.74 124.376 125.74 124.126 125.74 123.876C125.761 123.626 125.772 123.376 125.772 123.126C125.772 123.022 125.761 122.918 125.74 122.814C125.74 122.689 125.74 122.574 125.74 122.47C125.72 122.282 125.709 122.084 125.709 121.876C125.73 121.668 125.74 121.459 125.74 121.251C125.74 120.251 125.72 119.261 125.678 118.282C125.657 117.303 125.647 116.314 125.647 115.314C125.647 114.814 125.667 114.324 125.709 113.845C125.772 113.345 125.803 112.845 125.803 112.345C125.803 112.282 125.782 112.199 125.74 112.095C125.699 111.991 125.657 111.918 125.615 111.876C125.511 111.876 125.407 111.876 125.303 111.876C125.22 111.855 125.126 111.845 125.022 111.845C124.792 111.845 124.574 111.876 124.365 111.939C123.97 111.959 123.584 111.991 123.209 112.032C122.855 112.053 122.49 112.074 122.115 112.095C121.865 112.074 121.709 112.074 121.647 112.095C121.605 112.095 121.553 112.095 121.49 112.095C121.324 112.095 121.199 112.053 121.115 111.97V111.564C120.99 111.314 120.938 111.178 120.959 111.157C120.98 111.136 120.99 111.105 120.99 111.064C120.99 111.001 120.938 110.939 120.834 110.876C120.709 110.793 120.647 110.668 120.647 110.501C120.626 110.334 120.584 110.209 120.522 110.126C120.459 110.043 120.428 109.959 120.428 109.876C120.428 109.73 120.459 109.564 120.522 109.376C120.709 109.272 120.886 109.199 121.053 109.157C121.24 109.116 121.449 109.064 121.678 109.001C121.803 108.959 121.917 108.918 122.022 108.876C122.126 108.834 122.24 108.803 122.365 108.782C122.511 108.761 122.657 108.751 122.803 108.751C122.949 108.751 123.095 108.741 123.24 108.72C123.553 108.657 123.876 108.605 124.209 108.564C124.563 108.522 124.897 108.501 125.209 108.501C125.501 108.501 125.792 108.543 126.084 108.626C126.376 108.689 126.636 108.72 126.865 108.72C127.199 108.72 127.511 108.741 127.803 108.782C128.115 108.824 128.438 108.845 128.772 108.845C128.813 108.845 128.876 108.866 128.959 108.907C129.063 108.928 129.178 108.939 129.303 108.939H132.334C132.501 108.98 132.615 108.991 132.678 108.97C132.761 108.949 132.834 108.939 132.897 108.939C133.063 108.939 133.22 108.949 133.365 108.97C133.511 108.991 133.667 109.001 133.834 109.001C133.98 109.001 134.095 108.991 134.178 108.97C134.345 108.991 134.501 109.043 134.647 109.126C134.792 109.189 134.959 109.22 135.147 109.22C135.23 109.282 135.292 109.366 135.334 109.47C135.376 109.553 135.449 109.616 135.553 109.657ZM150.522 108.876C150.772 108.814 150.949 108.793 151.053 108.814C151.157 108.814 151.261 108.824 151.365 108.845C151.49 108.928 151.595 109.032 151.678 109.157C151.678 109.595 151.667 110.032 151.647 110.47C151.647 110.886 151.647 111.314 151.647 111.751C151.647 112.543 151.657 113.334 151.678 114.126C151.699 114.918 151.699 115.709 151.678 116.501C151.72 116.689 151.73 116.793 151.709 116.814C151.688 116.834 151.678 116.866 151.678 116.907C151.678 117.699 151.699 118.48 151.74 119.251C151.782 120.022 151.803 120.803 151.803 121.595V125.751C151.803 126.647 151.824 127.532 151.865 128.407C151.928 129.282 151.959 130.157 151.959 131.032C151.959 131.116 151.907 131.23 151.803 131.376C151.761 131.543 151.699 131.678 151.615 131.782C151.428 131.803 151.251 131.772 151.084 131.689C151.001 131.689 150.938 131.72 150.897 131.782C150.876 131.824 150.834 131.866 150.772 131.907C150.605 131.907 150.47 131.949 150.365 132.032C150.261 132.116 150.136 132.157 149.99 132.157C149.865 132.157 149.74 132.136 149.615 132.095C149.511 132.074 149.386 132.064 149.24 132.064C149.199 132.064 149.136 132.095 149.053 132.157C148.97 132.241 148.907 132.293 148.865 132.314C148.761 132.314 148.667 132.324 148.584 132.345C148.501 132.386 148.407 132.407 148.303 132.407C148.199 132.324 148.147 132.199 148.147 132.032C148.167 131.866 148.105 131.761 147.959 131.72C147.959 131.616 147.959 131.501 147.959 131.376C147.98 131.251 147.99 131.126 147.99 131.001C147.99 130.189 147.97 129.376 147.928 128.564C147.886 127.73 147.855 126.907 147.834 126.095C147.813 125.741 147.803 125.397 147.803 125.064C147.824 124.709 147.834 124.355 147.834 124.001C147.834 123.814 147.834 123.626 147.834 123.439C147.834 123.251 147.813 123.074 147.772 122.907C147.647 122.886 147.532 122.907 147.428 122.97C147.345 123.011 147.251 123.032 147.147 123.032C146.709 123.178 146.417 123.324 146.272 123.47C146.147 123.47 146.042 123.491 145.959 123.532C145.876 123.574 145.782 123.616 145.678 123.657C145.511 123.699 145.345 123.741 145.178 123.782C145.032 123.803 144.876 123.845 144.709 123.907C144.605 123.949 144.501 123.991 144.397 124.032C144.292 124.074 144.188 124.116 144.084 124.157C143.855 124.241 143.626 124.324 143.397 124.407C143.167 124.47 142.938 124.543 142.709 124.626C142.48 124.668 142.282 124.73 142.115 124.814C141.949 124.897 141.782 124.98 141.615 125.064C141.47 126.043 141.386 126.98 141.365 127.876C141.365 128.751 141.397 129.626 141.459 130.501C141.417 130.626 141.397 130.772 141.397 130.939C141.397 131.084 141.365 131.209 141.303 131.314C141.074 131.376 140.917 131.386 140.834 131.345C140.772 131.282 140.699 131.23 140.615 131.189C140.532 131.209 140.459 131.251 140.397 131.314C140.355 131.376 140.313 131.428 140.272 131.47C140.105 131.47 139.97 131.511 139.865 131.595C139.782 131.657 139.699 131.709 139.615 131.751C139.553 131.772 139.49 131.772 139.428 131.751C139.365 131.73 139.292 131.741 139.209 131.782C139.001 131.782 138.897 131.761 138.897 131.72C138.917 131.657 138.897 131.626 138.834 131.626C138.751 131.626 138.688 131.668 138.647 131.751C138.626 131.814 138.574 131.866 138.49 131.907C138.407 131.949 138.313 131.98 138.209 132.001C138.105 132.001 138.001 132.022 137.897 132.064C137.792 131.959 137.74 131.845 137.74 131.72C137.74 131.595 137.688 131.48 137.584 131.376C137.542 131.084 137.511 130.803 137.49 130.532C137.49 130.241 137.459 129.949 137.397 129.657C137.438 129.074 137.449 128.605 137.428 128.251C137.428 127.897 137.428 127.532 137.428 127.157C137.428 126.824 137.417 126.491 137.397 126.157C137.376 125.824 137.355 125.491 137.334 125.157C137.292 124.553 137.251 123.939 137.209 123.314C137.188 122.689 137.178 122.064 137.178 121.439C137.178 120.918 137.199 120.407 137.24 119.907C137.303 119.407 137.334 118.897 137.334 118.376C137.334 118.022 137.334 117.678 137.334 117.345C137.355 116.991 137.365 116.636 137.365 116.282C137.365 115.991 137.355 115.709 137.334 115.439C137.334 115.147 137.334 114.866 137.334 114.595C137.334 114.282 137.355 113.98 137.397 113.689C137.438 113.376 137.459 113.074 137.459 112.782C137.459 112.428 137.438 112.084 137.397 111.751C137.355 111.397 137.334 111.043 137.334 110.689C137.334 110.584 137.345 110.491 137.365 110.407C137.386 110.303 137.397 110.199 137.397 110.095C137.376 109.866 137.386 109.73 137.428 109.689C137.47 109.626 137.511 109.553 137.553 109.47C137.657 109.449 137.772 109.418 137.897 109.376C138.022 109.334 138.136 109.334 138.24 109.376C138.365 109.251 138.532 109.189 138.74 109.189C138.97 109.189 139.136 109.116 139.24 108.97C139.386 108.991 139.48 109.001 139.522 109.001C139.584 108.98 139.636 108.97 139.678 108.97C139.865 109.011 139.959 109.011 139.959 108.97C139.98 108.907 140.022 108.876 140.084 108.876C140.188 108.876 140.345 108.886 140.553 108.907C140.782 108.907 140.938 108.949 141.022 109.032C141.23 110.136 141.345 111.261 141.365 112.407C141.386 113.553 141.397 114.689 141.397 115.814C141.397 116.105 141.407 116.407 141.428 116.72C141.449 117.011 141.438 117.303 141.397 117.595C141.397 117.72 141.386 117.845 141.365 117.97C141.345 118.074 141.334 118.189 141.334 118.314C141.334 118.668 141.313 119.043 141.272 119.439C141.23 119.814 141.209 120.178 141.209 120.532C141.459 120.678 141.667 120.73 141.834 120.689C142.022 120.626 142.199 120.564 142.365 120.501C142.574 120.439 142.761 120.376 142.928 120.314C143.115 120.23 143.303 120.157 143.49 120.095C143.657 120.011 143.834 119.949 144.022 119.907C144.23 119.845 144.417 119.793 144.584 119.751C145.126 119.564 145.657 119.334 146.178 119.064C146.699 118.793 147.23 118.574 147.772 118.407C147.73 117.261 147.709 116.126 147.709 115.001C147.709 113.855 147.709 112.72 147.709 111.595C147.709 111.282 147.709 110.959 147.709 110.626C147.709 110.293 147.73 109.97 147.772 109.657C147.792 109.574 147.813 109.511 147.834 109.47C147.876 109.407 147.897 109.324 147.897 109.22C147.959 109.116 148.032 109.043 148.115 109.001C148.199 108.959 148.261 108.897 148.303 108.814C148.345 108.855 148.386 108.897 148.428 108.939C148.49 108.959 148.553 108.98 148.615 109.001C148.782 108.959 148.876 108.928 148.897 108.907C148.938 108.886 148.98 108.866 149.022 108.845C149.126 108.803 149.261 108.782 149.428 108.782C149.595 108.782 149.73 108.782 149.834 108.782H150.209L150.522 108.876ZM179.709 109.657C179.667 109.741 179.647 109.824 179.647 109.907C179.667 109.991 179.678 110.084 179.678 110.189C179.636 110.439 179.636 110.564 179.678 110.564C179.72 110.564 179.74 110.584 179.74 110.626L179.522 110.939C179.522 111.064 179.49 111.178 179.428 111.282C179.386 111.386 179.376 111.511 179.397 111.657C179.334 111.761 179.272 111.866 179.209 111.97C179.167 112.074 179.095 112.178 178.99 112.282H178.584C178.355 112.282 178.105 112.303 177.834 112.345C177.584 112.366 177.334 112.376 177.084 112.376C177.042 112.376 176.99 112.376 176.928 112.376C176.865 112.355 176.803 112.345 176.74 112.345C176.699 112.345 176.647 112.355 176.584 112.376C176.522 112.376 176.449 112.376 176.365 112.376C176.053 112.376 175.74 112.366 175.428 112.345C175.136 112.303 174.824 112.282 174.49 112.282C174.407 112.282 174.324 112.282 174.24 112.282C174.157 112.282 174.063 112.293 173.959 112.314C173.938 112.668 173.917 113.032 173.897 113.407C173.897 113.761 173.897 114.126 173.897 114.501C173.897 114.605 173.886 114.72 173.865 114.845C173.845 114.949 173.834 115.053 173.834 115.157C173.813 115.428 173.792 115.689 173.772 115.939C173.772 116.189 173.772 116.449 173.772 116.72C173.772 117.303 173.772 117.886 173.772 118.47C173.792 119.053 173.813 119.647 173.834 120.251C173.855 120.564 173.876 120.866 173.897 121.157C173.917 121.449 173.928 121.751 173.928 122.064C173.928 122.772 173.917 123.48 173.897 124.189C173.876 124.876 173.865 125.574 173.865 126.282C173.865 126.511 173.855 126.73 173.834 126.939C173.813 127.126 173.803 127.334 173.803 127.564C173.803 128.043 173.813 128.522 173.834 129.001C173.855 129.48 173.865 129.959 173.865 130.439C173.865 130.668 173.855 130.897 173.834 131.126C173.834 131.355 173.834 131.584 173.834 131.814C173.73 131.98 173.657 132.126 173.615 132.251C173.574 132.376 173.449 132.439 173.24 132.439C173.095 132.397 173.022 132.345 173.022 132.282C173.042 132.241 173.032 132.199 172.99 132.157C172.803 132.136 172.657 132.147 172.553 132.189C172.47 132.251 172.365 132.303 172.24 132.345C172.178 132.324 172.105 132.314 172.022 132.314C171.959 132.314 171.897 132.314 171.834 132.314C171.792 132.314 171.751 132.324 171.709 132.345C171.667 132.386 171.574 132.407 171.428 132.407C171.303 132.428 171.23 132.407 171.209 132.345C171.188 132.282 171.126 132.251 171.022 132.251C170.917 132.314 170.792 132.355 170.647 132.376C170.522 132.418 170.397 132.439 170.272 132.439C170.147 132.355 170.084 132.272 170.084 132.189C170.105 132.126 170.095 132.053 170.053 131.97C170.032 131.928 169.99 131.876 169.928 131.814C169.886 131.73 169.845 131.668 169.803 131.626C169.845 131.334 169.876 131.074 169.897 130.845C169.917 130.616 169.928 130.366 169.928 130.095C169.928 129.553 169.907 129.022 169.865 128.501C169.824 127.98 169.803 127.449 169.803 126.907C169.803 126.741 169.824 126.564 169.865 126.376C169.907 126.189 169.928 125.991 169.928 125.782C169.886 125.616 169.876 125.522 169.897 125.501C169.917 125.459 169.928 125.418 169.928 125.376C169.928 125.251 169.917 125.126 169.897 125.001C169.897 124.876 169.897 124.751 169.897 124.626C169.897 124.376 169.897 124.126 169.897 123.876C169.917 123.626 169.928 123.376 169.928 123.126C169.928 123.022 169.917 122.918 169.897 122.814C169.897 122.689 169.897 122.574 169.897 122.47C169.876 122.282 169.865 122.084 169.865 121.876C169.886 121.668 169.897 121.459 169.897 121.251C169.897 120.251 169.876 119.261 169.834 118.282C169.813 117.303 169.803 116.314 169.803 115.314C169.803 114.814 169.824 114.324 169.865 113.845C169.928 113.345 169.959 112.845 169.959 112.345C169.959 112.282 169.938 112.199 169.897 112.095C169.855 111.991 169.813 111.918 169.772 111.876C169.667 111.876 169.563 111.876 169.459 111.876C169.376 111.855 169.282 111.845 169.178 111.845C168.949 111.845 168.73 111.876 168.522 111.939C168.126 111.959 167.74 111.991 167.365 112.032C167.011 112.053 166.647 112.074 166.272 112.095C166.022 112.074 165.865 112.074 165.803 112.095C165.761 112.095 165.709 112.095 165.647 112.095C165.48 112.095 165.355 112.053 165.272 111.97V111.564C165.147 111.314 165.095 111.178 165.115 111.157C165.136 111.136 165.147 111.105 165.147 111.064C165.147 111.001 165.095 110.939 164.99 110.876C164.865 110.793 164.803 110.668 164.803 110.501C164.782 110.334 164.74 110.209 164.678 110.126C164.615 110.043 164.584 109.959 164.584 109.876C164.584 109.73 164.615 109.564 164.678 109.376C164.865 109.272 165.042 109.199 165.209 109.157C165.397 109.116 165.605 109.064 165.834 109.001C165.959 108.959 166.074 108.918 166.178 108.876C166.282 108.834 166.397 108.803 166.522 108.782C166.667 108.761 166.813 108.751 166.959 108.751C167.105 108.751 167.251 108.741 167.397 108.72C167.709 108.657 168.032 108.605 168.365 108.564C168.72 108.522 169.053 108.501 169.365 108.501C169.657 108.501 169.949 108.543 170.24 108.626C170.532 108.689 170.792 108.72 171.022 108.72C171.355 108.72 171.667 108.741 171.959 108.782C172.272 108.824 172.595 108.845 172.928 108.845C172.97 108.845 173.032 108.866 173.115 108.907C173.22 108.928 173.334 108.939 173.459 108.939H176.49C176.657 108.98 176.772 108.991 176.834 108.97C176.917 108.949 176.99 108.939 177.053 108.939C177.22 108.939 177.376 108.949 177.522 108.97C177.667 108.991 177.824 109.001 177.99 109.001C178.136 109.001 178.251 108.991 178.334 108.97C178.501 108.991 178.657 109.043 178.803 109.126C178.949 109.189 179.115 109.22 179.303 109.22C179.386 109.282 179.449 109.366 179.49 109.47C179.532 109.553 179.605 109.616 179.709 109.657ZM196.365 119.595C196.324 119.678 196.282 119.761 196.24 119.845C196.199 119.907 196.167 119.98 196.147 120.064C196.23 120.147 196.303 120.241 196.365 120.345C196.449 120.428 196.49 120.522 196.49 120.626C196.49 120.709 196.47 120.793 196.428 120.876C196.407 120.939 196.407 121.001 196.428 121.064C196.345 121.209 196.251 121.345 196.147 121.47C196.063 121.595 196.001 121.73 195.959 121.876C195.876 121.959 195.803 122.043 195.74 122.126C195.699 122.209 195.657 122.293 195.615 122.376C195.511 122.418 195.438 122.491 195.397 122.595C195.376 122.678 195.324 122.751 195.24 122.814C195.22 122.897 195.115 123.095 194.928 123.407C194.74 123.72 194.532 124.053 194.303 124.407C194.074 124.761 193.855 125.105 193.647 125.439C193.438 125.772 193.292 125.991 193.209 126.095C193.167 126.199 193.115 126.282 193.053 126.345C193.011 126.407 192.959 126.48 192.897 126.564C192.855 126.626 192.824 126.699 192.803 126.782C192.782 126.845 192.751 126.897 192.709 126.939C192.667 127.022 192.615 127.095 192.553 127.157C192.511 127.22 192.47 127.303 192.428 127.407C192.22 127.678 192.011 128.001 191.803 128.376C191.595 128.751 191.397 129.084 191.209 129.376C191.105 129.543 191.001 129.709 190.897 129.876C190.813 130.043 190.72 130.209 190.615 130.376C190.511 130.543 190.407 130.699 190.303 130.845C190.199 130.991 190.095 131.147 189.99 131.314C189.824 131.439 189.678 131.595 189.553 131.782C189.428 131.949 189.282 132.095 189.115 132.22C188.845 132.22 188.678 132.095 188.615 131.845C188.345 131.782 188.209 131.782 188.209 131.845C188.209 131.907 188.209 131.959 188.209 132.001C188.126 132.043 188.063 132.105 188.022 132.189C188.001 132.272 187.949 132.334 187.865 132.376C187.699 132.334 187.553 132.261 187.428 132.157C187.324 132.074 187.167 132.043 186.959 132.064C186.876 131.939 186.782 131.834 186.678 131.751C186.574 131.647 186.48 131.543 186.397 131.439C186.355 131.314 186.292 131.209 186.209 131.126C186.147 131.043 186.084 130.959 186.022 130.876C185.959 130.772 185.897 130.678 185.834 130.595C185.772 130.511 185.709 130.428 185.647 130.345C185.501 130.157 185.355 129.98 185.209 129.814C185.084 129.626 184.97 129.439 184.865 129.251C184.699 129.001 184.532 128.751 184.365 128.501C184.22 128.23 184.063 127.97 183.897 127.72C183.813 127.595 183.73 127.47 183.647 127.345C183.563 127.22 183.49 127.095 183.428 126.97C183.386 126.866 183.324 126.741 183.24 126.595C183.178 126.449 183.095 126.355 182.99 126.314C182.949 126.147 182.876 126.022 182.772 125.939C182.667 125.855 182.563 125.751 182.459 125.626C182.313 125.459 182.178 125.282 182.053 125.095C181.928 124.886 181.803 124.678 181.678 124.47C181.261 123.886 180.865 123.314 180.49 122.751C180.136 122.189 179.782 121.605 179.428 121.001C179.532 120.668 179.584 120.418 179.584 120.251C179.584 120.084 179.636 119.949 179.74 119.845C179.74 119.761 179.761 119.636 179.803 119.47C180.074 119.011 180.334 118.595 180.584 118.22C180.813 117.866 180.97 117.574 181.053 117.345C181.157 117.116 181.261 116.876 181.365 116.626C181.47 116.564 181.553 116.491 181.615 116.407C181.678 116.303 181.761 116.209 181.865 116.126C181.907 115.897 182.001 115.709 182.147 115.564C182.292 115.397 182.386 115.199 182.428 114.97C182.615 114.824 182.72 114.657 182.74 114.47C183.011 114.282 183.178 114.032 183.24 113.72C183.407 113.553 183.542 113.366 183.647 113.157C183.772 112.949 183.886 112.73 183.99 112.501C184.24 112.293 184.438 112.022 184.584 111.689C184.709 111.605 184.803 111.491 184.865 111.345C184.928 111.199 185.011 111.074 185.115 110.97C185.282 110.699 185.407 110.48 185.49 110.314C185.595 110.126 185.699 109.939 185.803 109.751C185.949 109.751 186.042 109.699 186.084 109.595C186.126 109.491 186.209 109.449 186.334 109.47C186.334 109.282 186.386 109.116 186.49 108.97C186.532 108.949 186.595 108.928 186.678 108.907C186.761 108.866 186.803 108.824 186.803 108.782C186.761 108.532 186.772 108.386 186.834 108.345C186.897 108.303 186.949 108.261 186.99 108.22C187.22 108.261 187.376 108.293 187.459 108.314C187.542 108.334 187.678 108.407 187.865 108.532C188.074 108.532 188.22 108.574 188.303 108.657C188.386 108.741 188.48 108.803 188.584 108.845C188.667 108.928 188.73 109.011 188.772 109.095C188.834 109.178 188.917 109.241 189.022 109.282C189.188 109.511 189.365 109.761 189.553 110.032C189.74 110.303 189.917 110.553 190.084 110.782C190.313 111.095 190.542 111.397 190.772 111.689C191.022 111.959 191.251 112.261 191.459 112.595C191.522 112.699 191.636 112.886 191.803 113.157C191.97 113.407 192.157 113.678 192.365 113.97C192.574 114.261 192.761 114.532 192.928 114.782C193.095 115.011 193.209 115.147 193.272 115.189C193.334 115.293 193.47 115.491 193.678 115.782C193.886 116.074 194.105 116.386 194.334 116.72C194.584 117.032 194.824 117.334 195.053 117.626C195.282 117.918 195.438 118.105 195.522 118.189C195.751 118.501 195.917 118.761 196.022 118.97C196.147 119.157 196.261 119.366 196.365 119.595ZM189.209 125.47C189.438 125.157 189.615 124.876 189.74 124.626C189.865 124.376 189.99 124.126 190.115 123.876C190.324 123.626 190.449 123.449 190.49 123.345C190.532 123.241 190.584 123.136 190.647 123.032C190.813 122.782 190.98 122.532 191.147 122.282C191.334 122.032 191.48 121.761 191.584 121.47C191.709 121.386 191.803 121.282 191.865 121.157C191.928 121.032 192.022 120.918 192.147 120.814C192.022 120.376 191.876 120.043 191.709 119.814C191.542 119.564 191.376 119.324 191.209 119.095C191.147 118.991 191.084 118.886 191.022 118.782C190.959 118.678 190.897 118.574 190.834 118.47C190.751 118.407 190.678 118.345 190.615 118.282C190.574 118.22 190.522 118.157 190.459 118.095C190.417 117.991 190.355 117.855 190.272 117.689C190.188 117.584 190.105 117.491 190.022 117.407C189.938 117.324 189.865 117.22 189.803 117.095C189.72 117.011 189.615 116.897 189.49 116.751C189.365 116.605 189.23 116.449 189.084 116.282C188.959 116.095 188.845 115.928 188.74 115.782C188.636 115.616 188.553 115.48 188.49 115.376C188.449 115.272 188.407 115.189 188.365 115.126C188.345 115.043 188.313 114.959 188.272 114.876C188.167 114.73 188.063 114.605 187.959 114.501C187.855 114.376 187.751 114.241 187.647 114.095C187.584 114.136 187.522 114.168 187.459 114.189C187.417 114.189 187.376 114.209 187.334 114.251C187.188 114.522 187.022 114.772 186.834 115.001C186.667 115.23 186.501 115.48 186.334 115.751C186.188 116.001 186.042 116.261 185.897 116.532C185.751 116.782 185.605 117.032 185.459 117.282C185.355 117.428 185.251 117.574 185.147 117.72C185.063 117.845 184.97 117.991 184.865 118.157C184.761 118.303 184.667 118.459 184.584 118.626C184.522 118.772 184.438 118.918 184.334 119.064C184.167 119.272 184.032 119.459 183.928 119.626C183.824 119.793 183.72 119.991 183.615 120.22C183.678 120.345 183.772 120.522 183.897 120.751C184.042 120.959 184.188 121.178 184.334 121.407C184.48 121.616 184.605 121.814 184.709 122.001C184.834 122.189 184.907 122.314 184.928 122.376C185.095 122.522 185.23 122.689 185.334 122.876C185.438 123.043 185.574 123.209 185.74 123.376C185.824 123.543 185.917 123.689 186.022 123.814C186.126 123.939 186.23 124.074 186.334 124.22C186.438 124.366 186.574 124.584 186.74 124.876C186.907 125.147 187.074 125.428 187.24 125.72C187.407 126.011 187.574 126.282 187.74 126.532C187.907 126.782 188.042 126.939 188.147 127.001C188.355 126.772 188.522 126.522 188.647 126.251C188.792 125.959 188.98 125.699 189.209 125.47ZM81.9904 167.376C81.907 167.293 81.8654 167.178 81.8654 167.032C81.8654 166.928 81.8654 166.845 81.8654 166.782C81.8862 166.699 81.907 166.605 81.9279 166.501C82.032 166.022 82.0841 165.543 82.0841 165.064C82.0841 164.564 82.105 164.074 82.1466 163.595C82.1675 163.303 82.1779 163.011 82.1779 162.72C82.1987 162.428 82.2091 162.136 82.2091 161.845C82.2091 160.116 82.157 158.397 82.0529 156.689C81.9487 154.959 81.8966 153.22 81.8966 151.47C81.8966 150.261 81.9175 149.053 81.9591 147.845C82.0008 146.616 82.032 145.386 82.0529 144.157C82.2404 144.053 82.4695 144.011 82.7404 144.032C83.0112 144.053 83.23 143.959 83.3966 143.751C83.5008 143.73 83.605 143.73 83.7091 143.751C83.8133 143.751 83.9175 143.751 84.0216 143.751C84.2508 143.751 84.4695 143.678 84.6779 143.532C84.8862 143.386 85.1154 143.261 85.3654 143.157C85.4904 143.199 85.5737 143.22 85.6154 143.22C85.6779 143.199 85.7404 143.189 85.8029 143.189C85.8654 143.189 86.0008 143.261 86.2091 143.407C86.4175 143.553 86.6466 143.72 86.8966 143.907C87.1466 144.095 87.3758 144.272 87.5841 144.439C87.8133 144.605 87.9591 144.709 88.0216 144.751C88.5425 145.147 89.0008 145.584 89.3966 146.064C89.8133 146.522 90.2195 146.991 90.6154 147.47C90.9904 147.949 91.3966 148.439 91.8341 148.939C92.2716 149.418 92.6987 149.866 93.1154 150.282C93.2612 150.449 93.407 150.595 93.5529 150.72C93.7195 150.845 93.8758 150.991 94.0216 151.157C94.0841 151.241 94.1362 151.334 94.1779 151.439C94.2404 151.522 94.3029 151.616 94.3654 151.72C94.4904 151.866 94.6362 151.991 94.8029 152.095C94.9695 152.199 95.1258 152.324 95.2716 152.47C95.3758 152.553 95.532 152.72 95.7404 152.97C95.9487 153.22 96.0529 153.407 96.0529 153.532C96.0529 153.616 96.032 153.689 95.9904 153.751C95.9487 153.814 95.907 153.886 95.8654 153.97C95.8445 154.032 95.8341 154.126 95.8341 154.251C95.8341 154.376 95.8237 154.459 95.8029 154.501C95.5945 154.668 95.48 154.772 95.4591 154.814C95.4383 154.855 95.407 154.897 95.3654 154.939C95.3029 155.022 95.2195 155.095 95.1154 155.157C95.032 155.199 94.9695 155.272 94.9279 155.376C94.8862 155.439 94.8654 155.501 94.8654 155.564C94.8862 155.626 94.8758 155.699 94.8341 155.782C94.73 156.011 94.5633 156.23 94.3341 156.439C94.105 156.647 93.907 156.876 93.7404 157.126C93.5112 157.501 93.282 157.876 93.0529 158.251C92.8237 158.626 92.5633 158.991 92.2716 159.345C92.1466 159.511 92.0112 159.678 91.8654 159.845C91.7404 159.991 91.6154 160.147 91.4904 160.314C91.3862 160.439 91.2925 160.574 91.2091 160.72C91.1258 160.845 91.032 160.991 90.9279 161.157C90.6987 161.449 90.48 161.741 90.2716 162.032C90.0633 162.303 89.8445 162.584 89.6154 162.876C89.3654 163.23 89.0945 163.584 88.8029 163.939C88.5112 164.272 88.2508 164.616 88.0216 164.97C87.7925 165.345 87.5529 165.689 87.3029 166.001C87.0529 166.314 86.782 166.616 86.4904 166.907C86.407 166.97 86.3029 167.064 86.1779 167.189C86.0529 167.314 85.9279 167.376 85.8029 167.376C85.7195 167.376 85.6466 167.345 85.5841 167.282C85.5425 167.22 85.4695 167.189 85.3654 167.189C85.3445 167.189 85.282 167.199 85.1779 167.22C85.0737 167.241 84.9487 167.261 84.8029 167.282L84.2404 167.345C83.907 167.511 83.6675 167.584 83.5216 167.564C83.3758 167.564 83.23 167.574 83.0841 167.595C83.0008 167.616 82.9279 167.647 82.8654 167.689C82.8237 167.73 82.7716 167.751 82.7091 167.751C82.5633 167.751 82.4487 167.678 82.3654 167.532C82.282 167.407 82.157 167.355 81.9904 167.376ZM91.3654 153.876C91.3654 153.772 91.2612 153.626 91.0529 153.439C90.8654 153.251 90.7195 153.116 90.6154 153.032C90.4695 152.907 90.2925 152.793 90.0841 152.689C89.8966 152.564 89.7404 152.428 89.6154 152.282C89.5112 152.157 89.407 152.032 89.3029 151.907C89.2195 151.761 89.1258 151.626 89.0216 151.501C88.6466 151.084 88.2612 150.668 87.8654 150.251C87.4904 149.834 87.157 149.376 86.8654 148.876C86.6779 148.751 86.5008 148.605 86.3341 148.439C86.1675 148.272 85.9695 148.136 85.7404 148.032C85.6987 148.157 85.6779 148.293 85.6779 148.439C85.6987 148.564 85.7091 148.689 85.7091 148.814C85.7091 149.293 85.6883 149.761 85.6466 150.22C85.605 150.678 85.5841 151.136 85.5841 151.595C85.5841 152.72 85.605 153.834 85.6466 154.939C85.7091 156.022 85.7404 157.116 85.7404 158.22C85.7404 158.636 85.7404 159.053 85.7404 159.47C85.7612 159.886 85.8029 160.303 85.8654 160.72C85.8237 160.845 85.8029 160.959 85.8029 161.064C85.8029 161.168 85.8237 161.303 85.8654 161.47C86.032 161.366 86.1675 161.241 86.2716 161.095C86.3966 160.928 86.5112 160.772 86.6154 160.626C86.9695 160.168 87.3133 159.709 87.6466 159.251C88.0008 158.772 88.355 158.293 88.7091 157.814C88.9383 157.501 89.1675 157.199 89.3966 156.907C89.6466 156.595 89.8862 156.272 90.1154 155.939C90.1779 155.855 90.2716 155.709 90.3966 155.501C90.5425 155.293 90.6779 155.084 90.8029 154.876C90.9487 154.647 91.0737 154.439 91.1779 154.251C91.3029 154.064 91.3654 153.939 91.3654 153.876ZM111.709 164.001C111.688 164.314 111.751 164.553 111.897 164.72C112.063 164.866 112.199 165.053 112.303 165.282C112.261 165.574 112.292 165.803 112.397 165.97C112.334 166.095 112.272 166.241 112.209 166.407C112.147 166.553 112.053 166.678 111.928 166.782C111.595 166.928 111.397 167.053 111.334 167.157C111.272 167.261 111.147 167.314 110.959 167.314C110.855 167.418 110.74 167.522 110.615 167.626C110.49 167.751 110.376 167.866 110.272 167.97C110.167 167.928 110.095 167.876 110.053 167.814C110.011 167.751 109.949 167.668 109.865 167.564C109.657 167.501 109.47 167.386 109.303 167.22C109.136 167.074 108.99 166.907 108.865 166.72C108.74 166.511 108.615 166.303 108.49 166.095C108.386 165.866 108.292 165.657 108.209 165.47C107.917 164.928 107.615 164.386 107.303 163.845C107.011 163.282 106.709 162.73 106.397 162.189C106.23 161.918 106.063 161.647 105.897 161.376C105.751 161.084 105.595 160.793 105.428 160.501C105.386 160.459 105.345 160.418 105.303 160.376C105.261 160.314 105.22 160.251 105.178 160.189C105.032 159.98 104.917 159.751 104.834 159.501C104.772 159.23 104.626 159.011 104.397 158.845C104.001 158.803 103.636 158.866 103.303 159.032C102.99 159.178 102.709 159.376 102.459 159.626C102.48 159.772 102.49 159.907 102.49 160.032C102.49 160.157 102.49 160.282 102.49 160.407C102.49 160.886 102.47 161.345 102.428 161.782C102.386 162.22 102.365 162.678 102.365 163.157C102.365 163.366 102.376 163.584 102.397 163.814C102.417 164.022 102.449 164.23 102.49 164.439C102.428 164.668 102.397 164.918 102.397 165.189C102.397 165.334 102.407 165.47 102.428 165.595C102.47 165.72 102.49 165.855 102.49 166.001C102.49 166.209 102.417 166.355 102.272 166.439C102.147 166.501 102.105 166.626 102.147 166.814C101.897 166.918 101.657 167.022 101.428 167.126C101.199 167.23 100.959 167.303 100.709 167.345C100.605 167.366 100.501 167.366 100.397 167.345C100.292 167.345 100.199 167.366 100.115 167.407C100.011 167.449 99.9279 167.522 99.8654 167.626C99.8029 167.751 99.7195 167.814 99.6154 167.814C99.4904 167.814 99.4175 167.761 99.3966 167.657C99.3758 167.574 99.3341 167.501 99.2716 167.439C99.1675 167.397 99.0841 167.376 99.0216 167.376C98.9591 167.376 98.8966 167.345 98.8341 167.282C98.855 167.095 98.8133 166.959 98.7091 166.876C98.605 166.772 98.5529 166.574 98.5529 166.282C98.5529 166.053 98.5633 165.834 98.5841 165.626C98.6258 165.418 98.6466 165.199 98.6466 164.97C98.6466 164.782 98.6154 164.616 98.5529 164.47C98.5112 164.303 98.4695 164.126 98.4279 163.939C98.407 163.855 98.407 163.772 98.4279 163.689C98.4487 163.605 98.4591 163.522 98.4591 163.439C98.4591 163.064 98.4383 162.689 98.3966 162.314C98.3758 161.918 98.3654 161.532 98.3654 161.157C98.3654 161.011 98.3654 160.876 98.3654 160.751C98.3654 160.626 98.3758 160.501 98.3966 160.376C98.4383 160.251 98.4695 160.147 98.4904 160.064C98.532 159.98 98.5529 159.876 98.5529 159.751C98.5529 159.355 98.5112 158.97 98.4279 158.595C98.3445 158.199 98.3029 157.814 98.3029 157.439C98.3029 157.23 98.3029 157.022 98.3029 156.814C98.3237 156.584 98.3341 156.366 98.3341 156.157C98.3341 155.553 98.3237 154.959 98.3029 154.376C98.282 153.793 98.2716 153.209 98.2716 152.626C98.2716 152.209 98.282 151.803 98.3029 151.407C98.3237 150.991 98.3341 150.574 98.3341 150.157C98.3341 149.636 98.3133 149.126 98.2716 148.626C98.23 148.105 98.2091 147.574 98.2091 147.032C98.2091 146.845 98.1987 146.72 98.1779 146.657C98.157 146.595 98.1258 146.564 98.0841 146.564C98.0425 146.543 97.9904 146.532 97.9279 146.532C97.8862 146.511 97.8445 146.47 97.8029 146.407C97.8029 146.282 97.855 146.199 97.9591 146.157C98.0633 146.095 98.1154 145.918 98.1154 145.626C98.1154 145.459 98.0945 145.293 98.0529 145.126C98.032 144.959 98.0216 144.793 98.0216 144.626C98.0216 144.376 98.0737 144.126 98.1779 143.876C98.282 143.626 98.3758 143.386 98.4591 143.157C98.7091 143.136 98.8758 143.136 98.9591 143.157C99.0633 143.178 99.1675 143.168 99.2716 143.126C99.3341 143.355 99.4695 143.48 99.6779 143.501C99.8862 143.501 100.074 143.522 100.24 143.564C100.428 143.584 100.605 143.636 100.772 143.72C100.959 143.782 101.136 143.814 101.303 143.814C101.345 143.939 101.428 144.032 101.553 144.095C101.699 144.136 101.845 144.178 101.99 144.22C102.157 144.199 102.282 144.126 102.365 144.001C102.47 143.876 102.605 143.814 102.772 143.814C102.897 143.814 103.042 143.907 103.209 144.095C103.376 144.261 103.501 144.397 103.584 144.501C103.667 144.564 103.824 144.699 104.053 144.907C104.282 145.116 104.532 145.334 104.803 145.564C105.074 145.772 105.324 145.98 105.553 146.189C105.782 146.376 105.928 146.48 105.99 146.501C106.845 147.355 107.636 148.136 108.365 148.845C109.115 149.532 109.928 150.157 110.803 150.72C110.824 150.782 110.845 150.834 110.865 150.876C110.907 150.918 110.949 150.97 110.99 151.032C110.99 151.199 110.959 151.324 110.897 151.407C110.834 151.491 110.803 151.595 110.803 151.72C110.803 151.782 110.813 151.845 110.834 151.907C110.876 151.97 110.897 152.032 110.897 152.095C110.917 152.178 110.917 152.261 110.897 152.345C110.897 152.407 110.897 152.48 110.897 152.564C110.897 152.772 110.959 152.959 111.084 153.126C111.23 153.293 111.303 153.48 111.303 153.689C111.261 153.876 111.178 153.991 111.053 154.032C110.928 154.074 110.824 154.126 110.74 154.189C110.699 154.23 110.657 154.282 110.615 154.345C110.595 154.407 110.563 154.459 110.522 154.501C110.063 154.709 109.73 154.907 109.522 155.095C109.313 155.261 109.095 155.428 108.865 155.595C108.803 155.636 108.699 155.709 108.553 155.814C108.407 155.897 108.261 155.991 108.115 156.095C107.97 156.178 107.834 156.272 107.709 156.376C107.605 156.48 107.553 156.564 107.553 156.626C107.553 156.772 107.636 156.98 107.803 157.251C107.99 157.501 108.126 157.699 108.209 157.845C108.438 158.22 108.647 158.595 108.834 158.97C109.022 159.324 109.23 159.678 109.459 160.032C109.876 160.678 110.261 161.334 110.615 162.001C110.99 162.668 111.355 163.334 111.709 164.001ZM106.615 152.376C106.136 151.772 105.615 151.23 105.053 150.751C104.511 150.251 103.99 149.73 103.49 149.189L103.147 149.126C103.022 148.918 102.876 148.741 102.709 148.595C102.563 148.428 102.407 148.261 102.24 148.095C102.261 148.324 102.272 148.543 102.272 148.751C102.272 148.959 102.272 149.178 102.272 149.407C102.272 150.074 102.251 150.73 102.209 151.376C102.188 152.001 102.178 152.636 102.178 153.282C102.178 153.928 102.209 154.543 102.272 155.126C102.709 155.126 103.105 155.001 103.459 154.751C103.605 154.647 103.74 154.543 103.865 154.439C103.99 154.314 104.126 154.199 104.272 154.095C104.438 153.991 104.626 153.866 104.834 153.72C105.063 153.574 105.282 153.428 105.49 153.282C105.72 153.136 105.928 152.991 106.115 152.845C106.324 152.678 106.49 152.522 106.615 152.376ZM120.459 143.345C120.563 143.72 120.667 144.095 120.772 144.47C120.876 144.824 121.001 145.178 121.147 145.532C121.459 145.574 121.647 145.605 121.709 145.626C121.792 145.647 121.886 145.678 121.99 145.72C122.22 146.261 122.355 146.845 122.397 147.47C122.459 148.074 122.542 148.668 122.647 149.251C123.042 149.772 123.324 150.334 123.49 150.939C123.678 151.522 123.886 152.116 124.115 152.72C124.178 152.928 124.22 153.064 124.24 153.126C124.261 153.168 124.272 153.209 124.272 153.251C124.397 153.605 124.522 153.97 124.647 154.345C124.772 154.72 124.907 155.084 125.053 155.439C125.115 155.626 125.178 155.814 125.24 156.001C125.324 156.168 125.397 156.334 125.459 156.501C125.522 156.709 125.574 156.928 125.615 157.157C125.678 157.366 125.74 157.574 125.803 157.782C125.949 158.199 126.105 158.616 126.272 159.032C126.438 159.449 126.605 159.866 126.772 160.282C126.834 160.428 126.949 160.751 127.115 161.251C127.303 161.751 127.49 162.282 127.678 162.845C127.865 163.386 128.032 163.897 128.178 164.376C128.345 164.834 128.428 165.116 128.428 165.22C128.428 165.386 128.438 165.564 128.459 165.751C128.501 165.918 128.532 166.095 128.553 166.282C128.47 166.491 128.365 166.605 128.24 166.626C128.115 166.647 128.001 166.636 127.897 166.595C127.792 166.636 127.688 166.678 127.584 166.72C127.501 166.761 127.417 166.803 127.334 166.845C127.272 166.866 127.22 166.897 127.178 166.939C127.136 166.98 127.084 167.001 127.022 167.001C126.772 167.001 126.605 167.022 126.522 167.064C126.459 167.126 126.355 167.157 126.209 167.157C126.022 167.095 125.897 167.084 125.834 167.126C125.792 167.189 125.751 167.23 125.709 167.251C125.626 167.293 125.532 167.314 125.428 167.314C125.324 167.314 125.22 167.324 125.115 167.345C125.074 167.261 125.032 167.178 124.99 167.095C124.97 167.011 124.928 166.918 124.865 166.814C124.636 166.48 124.47 166.157 124.365 165.845C124.282 165.532 124.209 165.282 124.147 165.095C124.042 164.866 123.949 164.636 123.865 164.407C123.803 164.178 123.72 163.949 123.615 163.72C123.49 163.761 123.376 163.814 123.272 163.876C123.167 163.918 123.084 163.98 123.022 164.064C122.772 164.064 122.647 164.095 122.647 164.157C122.647 164.22 122.626 164.282 122.584 164.345C122.459 164.386 122.355 164.428 122.272 164.47C122.209 164.511 122.095 164.522 121.928 164.501C121.824 164.605 121.72 164.699 121.615 164.782C121.511 164.845 121.376 164.886 121.209 164.907C121.042 165.074 120.865 165.22 120.678 165.345C120.511 165.449 120.313 165.47 120.084 165.407C119.792 165.47 119.501 165.532 119.209 165.595C118.917 165.636 118.626 165.657 118.334 165.657C118.001 165.553 117.792 165.459 117.709 165.376C117.626 165.293 117.501 165.251 117.334 165.251C117.355 164.959 117.292 164.761 117.147 164.657C117.147 164.595 117.147 164.501 117.147 164.376C117.167 164.23 117.199 164.136 117.24 164.095C117.511 163.97 117.667 163.834 117.709 163.689C117.751 163.543 117.865 163.449 118.053 163.407C118.095 163.324 118.136 163.251 118.178 163.189C118.24 163.105 118.292 163.022 118.334 162.939C118.438 162.897 118.522 162.866 118.584 162.845C118.667 162.824 118.73 162.761 118.772 162.657C118.876 162.657 119.032 162.595 119.24 162.47C119.449 162.324 119.584 162.209 119.647 162.126C119.813 162.064 119.917 162.011 119.959 161.97C120.001 161.907 120.053 161.855 120.115 161.814C120.324 161.834 120.459 161.814 120.522 161.751C120.688 161.834 120.876 161.876 121.084 161.876C121.167 161.876 121.24 161.876 121.303 161.876C121.365 161.855 121.438 161.845 121.522 161.845C121.688 161.678 121.897 161.574 122.147 161.532C122.417 161.47 122.636 161.355 122.803 161.189C122.74 161.022 122.688 160.824 122.647 160.595C122.605 160.345 122.532 160.147 122.428 160.001C122.386 159.73 122.313 159.47 122.209 159.22C122.126 158.97 122.053 158.73 121.99 158.501C121.761 157.626 121.49 156.772 121.178 155.939C120.865 155.105 120.605 154.251 120.397 153.376C120.355 153.272 120.303 153.168 120.24 153.064C120.199 152.939 120.157 152.824 120.115 152.72C120.011 152.97 119.959 153.116 119.959 153.157C119.959 153.178 119.938 153.209 119.897 153.251C119.876 153.355 119.855 153.449 119.834 153.532C119.813 153.595 119.782 153.678 119.74 153.782C119.678 153.949 119.615 154.136 119.553 154.345C119.511 154.532 119.47 154.709 119.428 154.876C119.324 155.23 119.23 155.605 119.147 156.001C119.063 156.376 118.97 156.751 118.865 157.126C118.657 157.772 118.438 158.418 118.209 159.064C118.001 159.689 117.792 160.324 117.584 160.97C117.542 161.261 117.49 161.491 117.428 161.657C117.386 161.803 117.334 161.959 117.272 162.126C117.23 162.272 117.188 162.418 117.147 162.564C117.126 162.709 117.115 162.824 117.115 162.907C116.824 163.574 116.574 164.251 116.365 164.939C116.178 165.626 115.938 166.293 115.647 166.939C115.563 166.98 115.49 167.032 115.428 167.095C115.365 167.157 115.292 167.189 115.209 167.189C115.042 167.189 114.949 167.147 114.928 167.064C114.928 166.98 114.886 166.939 114.803 166.939C114.72 166.939 114.647 166.959 114.584 167.001C114.522 167.022 114.459 167.053 114.397 167.095C114.292 167.053 114.167 167.022 114.022 167.001C113.897 167.001 113.803 166.959 113.74 166.876C113.595 166.98 113.449 167.032 113.303 167.032C113.136 167.032 112.97 166.98 112.803 166.876C112.678 166.918 112.553 166.939 112.428 166.939C112.365 166.939 112.292 166.928 112.209 166.907C112.126 166.886 112.063 166.855 112.022 166.814C112.001 166.73 111.99 166.647 111.99 166.564C111.99 166.48 111.99 166.386 111.99 166.282C111.99 166.074 111.97 165.918 111.928 165.814C112.303 164.751 112.667 163.678 113.022 162.595C113.376 161.491 113.73 160.376 114.084 159.251C114.272 158.73 114.449 158.22 114.615 157.72C114.803 157.22 114.98 156.709 115.147 156.189C115.23 155.897 115.303 155.626 115.365 155.376C115.428 155.105 115.511 154.845 115.615 154.595C115.782 154.053 115.949 153.511 116.115 152.97C116.303 152.407 116.47 151.855 116.615 151.314C116.699 151.251 116.751 151.178 116.772 151.095C116.792 151.011 116.824 150.918 116.865 150.814L116.834 150.407C116.98 150.199 117.074 150.022 117.115 149.876C117.178 149.709 117.22 149.543 117.24 149.376C117.345 149.126 117.438 148.855 117.522 148.564C117.605 148.272 117.667 148.001 117.709 147.751C117.751 147.418 117.772 147.043 117.772 146.626C117.792 146.189 117.855 145.824 117.959 145.532C118.001 145.449 118.032 145.397 118.053 145.376C118.095 145.334 118.115 145.261 118.115 145.157C118.157 145.116 118.199 145.074 118.24 145.032C118.303 144.97 118.345 144.907 118.365 144.845C118.47 144.678 118.501 144.532 118.459 144.407C118.438 144.282 118.428 144.147 118.428 144.001C118.615 143.897 118.699 143.803 118.678 143.72C118.657 143.636 118.647 143.553 118.647 143.47C118.647 143.366 118.709 143.272 118.834 143.189C118.98 143.084 119.074 142.98 119.115 142.876C119.24 142.897 119.365 142.918 119.49 142.939C119.615 142.939 119.74 142.928 119.865 142.907C120.011 143.178 120.188 143.314 120.397 143.314L120.459 143.345ZM146.553 155.032C146.595 155.178 146.678 155.334 146.803 155.501C146.928 155.668 146.99 155.793 146.99 155.876C146.824 156.272 146.699 156.584 146.615 156.814C146.532 157.022 146.397 157.209 146.209 157.376C146.209 157.439 146.147 157.574 146.022 157.782C145.897 157.991 145.751 158.22 145.584 158.47C145.438 158.699 145.282 158.928 145.115 159.157C144.97 159.366 144.876 159.511 144.834 159.595C144.73 159.761 144.647 159.928 144.584 160.095C144.522 160.241 144.449 160.386 144.365 160.532C144.178 160.866 143.98 161.178 143.772 161.47C143.584 161.761 143.407 162.084 143.24 162.439C143.136 162.543 143.042 162.657 142.959 162.782C142.876 162.907 142.782 163.022 142.678 163.126C142.428 163.584 142.136 164.011 141.803 164.407C141.49 164.803 141.199 165.241 140.928 165.72C141.157 165.949 141.272 166.241 141.272 166.595C141.272 166.782 141.22 166.886 141.115 166.907C141.011 166.907 140.917 166.928 140.834 166.97C140.626 167.116 140.438 167.199 140.272 167.22C140.105 167.241 139.97 167.251 139.865 167.251C139.636 167.251 139.386 167.241 139.115 167.22C138.845 167.22 138.615 167.241 138.428 167.282C138.365 167.303 138.292 167.334 138.209 167.376C138.126 167.439 138.063 167.47 138.022 167.47C137.855 167.47 137.73 167.439 137.647 167.376C137.584 167.334 137.49 167.293 137.365 167.251C137.199 167.064 137.042 166.866 136.897 166.657C136.772 166.449 136.636 166.241 136.49 166.032C136.365 165.886 136.23 165.761 136.084 165.657C135.938 165.532 135.803 165.386 135.678 165.22C135.345 164.741 135.001 164.282 134.647 163.845C134.313 163.407 133.97 162.97 133.615 162.532C133.449 162.303 133.261 162.084 133.053 161.876C132.865 161.668 132.688 161.459 132.522 161.251C132.355 161.022 132.199 160.782 132.053 160.532C131.907 160.282 131.751 160.043 131.584 159.814C131.459 159.605 131.282 159.355 131.053 159.064C130.824 158.751 130.584 158.439 130.334 158.126C130.084 157.814 129.824 157.522 129.553 157.251C129.303 156.959 129.084 156.741 128.897 156.595C128.897 156.449 128.855 156.345 128.772 156.282C128.688 156.22 128.595 156.147 128.49 156.064C128.449 155.959 128.397 155.866 128.334 155.782C128.272 155.678 128.24 155.564 128.24 155.439C128.24 155.293 128.272 155.157 128.334 155.032C128.376 154.949 128.397 154.876 128.397 154.814C128.417 154.73 128.449 154.647 128.49 154.564C128.595 154.293 128.74 154.053 128.928 153.845C129.136 153.636 129.292 153.397 129.397 153.126C129.417 153.043 129.428 152.97 129.428 152.907C129.428 152.824 129.449 152.741 129.49 152.657C129.553 152.511 129.647 152.386 129.772 152.282C129.897 152.157 130.011 152.022 130.115 151.876C130.22 151.689 130.324 151.501 130.428 151.314C130.532 151.126 130.636 150.939 130.74 150.751C131.032 150.272 131.355 149.814 131.709 149.376C132.063 148.918 132.397 148.47 132.709 148.032C133.001 147.616 133.272 147.209 133.522 146.814C133.772 146.397 134.042 145.98 134.334 145.564C134.48 145.355 134.647 145.126 134.834 144.876C135.022 144.605 135.209 144.345 135.397 144.095C135.605 143.845 135.813 143.616 136.022 143.407C136.23 143.178 136.438 143.011 136.647 142.907C137.001 142.866 137.23 142.928 137.334 143.095C137.438 143.241 137.584 143.314 137.772 143.314C138.063 143.376 138.261 143.47 138.365 143.595C138.47 143.72 138.574 143.834 138.678 143.939C138.949 143.939 139.178 143.991 139.365 144.095C139.553 144.199 139.74 144.355 139.928 144.564C139.845 144.793 139.73 145.001 139.584 145.189C139.459 145.376 139.345 145.574 139.24 145.782C139.074 145.845 138.949 145.949 138.865 146.095C138.803 146.241 138.699 146.366 138.553 146.47C138.324 146.824 138.095 147.178 137.865 147.532C137.636 147.866 137.407 148.189 137.178 148.501C137.074 148.626 136.959 148.73 136.834 148.814C136.709 148.876 136.595 148.98 136.49 149.126C136.449 149.189 136.417 149.261 136.397 149.345C136.376 149.407 136.345 149.47 136.303 149.532C136.053 149.928 135.772 150.314 135.459 150.689C135.147 151.064 134.876 151.459 134.647 151.876C134.542 152.022 134.459 152.178 134.397 152.345C134.334 152.491 134.261 152.636 134.178 152.782C134.095 152.928 133.97 153.116 133.803 153.345C133.657 153.553 133.501 153.772 133.334 154.001C133.188 154.23 133.053 154.459 132.928 154.689C132.824 154.918 132.772 155.105 132.772 155.251C132.792 155.355 132.928 155.564 133.178 155.876C133.428 156.189 133.709 156.522 134.022 156.876C134.334 157.23 134.626 157.574 134.897 157.907C135.188 158.22 135.365 158.407 135.428 158.47C135.47 158.574 135.626 158.803 135.897 159.157C136.167 159.491 136.47 159.866 136.803 160.282C137.157 160.678 137.501 161.064 137.834 161.439C138.167 161.814 138.397 162.084 138.522 162.251L138.772 162.657C138.813 162.636 138.917 162.491 139.084 162.22C139.272 161.949 139.459 161.647 139.647 161.314C139.834 160.98 140.001 160.668 140.147 160.376C140.313 160.084 140.417 159.897 140.459 159.814C140.522 159.751 140.626 159.584 140.772 159.314C140.917 159.043 141.074 158.751 141.24 158.439C141.428 158.126 141.584 157.834 141.709 157.564C141.855 157.293 141.938 157.116 141.959 157.032H141.584C141.251 157.032 140.917 157.053 140.584 157.095C140.272 157.116 139.949 157.178 139.615 157.282C139.47 157.261 139.345 157.22 139.24 157.157C139.136 157.095 139.011 157.032 138.865 156.97C138.803 156.761 138.772 156.616 138.772 156.532C138.792 156.449 138.792 156.386 138.772 156.345C138.751 156.261 138.72 156.199 138.678 156.157C138.657 156.116 138.647 156.053 138.647 155.97C138.647 155.824 138.626 155.709 138.584 155.626C138.542 155.522 138.501 155.407 138.459 155.282C138.459 155.199 138.459 155.116 138.459 155.032C138.48 154.949 138.47 154.876 138.428 154.814C138.47 154.439 138.438 154.168 138.334 154.001C138.334 153.709 138.376 153.522 138.459 153.439C138.542 153.355 138.605 153.23 138.647 153.064C138.834 153.126 138.99 153.116 139.115 153.032C139.261 152.928 139.407 152.876 139.553 152.876C139.886 152.876 140.157 152.824 140.365 152.72C140.553 152.699 140.74 152.689 140.928 152.689C141.136 152.689 141.334 152.668 141.522 152.626C141.626 152.605 141.709 152.584 141.772 152.564C141.855 152.543 141.949 152.522 142.053 152.501C142.178 152.48 142.313 152.47 142.459 152.47C142.605 152.47 142.74 152.47 142.865 152.47C143.199 152.428 143.532 152.407 143.865 152.407C144.199 152.386 144.532 152.366 144.865 152.345C144.97 152.386 145.063 152.418 145.147 152.439C145.251 152.459 145.345 152.491 145.428 152.532C145.49 152.574 145.542 152.626 145.584 152.689C145.626 152.73 145.699 152.761 145.803 152.782C145.907 152.886 145.98 152.991 146.022 153.095C145.98 153.282 145.99 153.418 146.053 153.501C145.949 153.605 145.886 153.751 145.865 153.939C145.865 154.105 145.855 154.261 145.834 154.407C145.98 154.449 146.105 154.564 146.209 154.751C146.313 154.939 146.386 155.032 146.428 155.032H146.553ZM164.084 154.595C164.042 154.678 164.001 154.761 163.959 154.845C163.917 154.907 163.886 154.98 163.865 155.064C163.949 155.147 164.022 155.241 164.084 155.345C164.167 155.428 164.209 155.522 164.209 155.626C164.209 155.709 164.188 155.793 164.147 155.876C164.126 155.939 164.126 156.001 164.147 156.064C164.063 156.209 163.97 156.345 163.865 156.47C163.782 156.595 163.72 156.73 163.678 156.876C163.595 156.959 163.522 157.043 163.459 157.126C163.417 157.209 163.376 157.293 163.334 157.376C163.23 157.418 163.157 157.491 163.115 157.595C163.095 157.678 163.042 157.751 162.959 157.814C162.938 157.897 162.834 158.095 162.647 158.407C162.459 158.72 162.251 159.053 162.022 159.407C161.792 159.761 161.574 160.105 161.365 160.439C161.157 160.772 161.011 160.991 160.928 161.095C160.886 161.199 160.834 161.282 160.772 161.345C160.73 161.407 160.678 161.48 160.615 161.564C160.574 161.626 160.542 161.699 160.522 161.782C160.501 161.845 160.47 161.897 160.428 161.939C160.386 162.022 160.334 162.095 160.272 162.157C160.23 162.22 160.188 162.303 160.147 162.407C159.938 162.678 159.73 163.001 159.522 163.376C159.313 163.751 159.115 164.084 158.928 164.376C158.824 164.543 158.72 164.709 158.615 164.876C158.532 165.043 158.438 165.209 158.334 165.376C158.23 165.543 158.126 165.699 158.022 165.845C157.917 165.991 157.813 166.147 157.709 166.314C157.542 166.439 157.397 166.595 157.272 166.782C157.147 166.949 157.001 167.095 156.834 167.22C156.563 167.22 156.397 167.095 156.334 166.845C156.063 166.782 155.928 166.782 155.928 166.845C155.928 166.907 155.928 166.959 155.928 167.001C155.845 167.043 155.782 167.105 155.74 167.189C155.72 167.272 155.667 167.334 155.584 167.376C155.417 167.334 155.272 167.261 155.147 167.157C155.042 167.074 154.886 167.043 154.678 167.064C154.595 166.939 154.501 166.834 154.397 166.751C154.292 166.647 154.199 166.543 154.115 166.439C154.074 166.314 154.011 166.209 153.928 166.126C153.865 166.043 153.803 165.959 153.74 165.876C153.678 165.772 153.615 165.678 153.553 165.595C153.49 165.511 153.428 165.428 153.365 165.345C153.22 165.157 153.074 164.98 152.928 164.814C152.803 164.626 152.688 164.439 152.584 164.251C152.417 164.001 152.251 163.751 152.084 163.501C151.938 163.23 151.782 162.97 151.615 162.72C151.532 162.595 151.449 162.47 151.365 162.345C151.282 162.22 151.209 162.095 151.147 161.97C151.105 161.866 151.042 161.741 150.959 161.595C150.897 161.449 150.813 161.355 150.709 161.314C150.667 161.147 150.595 161.022 150.49 160.939C150.386 160.855 150.282 160.751 150.178 160.626C150.032 160.459 149.897 160.282 149.772 160.095C149.647 159.886 149.522 159.678 149.397 159.47C148.98 158.886 148.584 158.314 148.209 157.751C147.855 157.189 147.501 156.605 147.147 156.001C147.251 155.668 147.303 155.418 147.303 155.251C147.303 155.084 147.355 154.949 147.459 154.845C147.459 154.761 147.48 154.636 147.522 154.47C147.792 154.011 148.053 153.595 148.303 153.22C148.532 152.866 148.688 152.574 148.772 152.345C148.876 152.116 148.98 151.876 149.084 151.626C149.188 151.564 149.272 151.491 149.334 151.407C149.397 151.303 149.48 151.209 149.584 151.126C149.626 150.897 149.72 150.709 149.865 150.564C150.011 150.397 150.105 150.199 150.147 149.97C150.334 149.824 150.438 149.657 150.459 149.47C150.73 149.282 150.897 149.032 150.959 148.72C151.126 148.553 151.261 148.366 151.365 148.157C151.49 147.949 151.605 147.73 151.709 147.501C151.959 147.293 152.157 147.022 152.303 146.689C152.428 146.605 152.522 146.491 152.584 146.345C152.647 146.199 152.73 146.074 152.834 145.97C153.001 145.699 153.126 145.48 153.209 145.314C153.313 145.126 153.417 144.939 153.522 144.751C153.667 144.751 153.761 144.699 153.803 144.595C153.845 144.491 153.928 144.449 154.053 144.47C154.053 144.282 154.105 144.116 154.209 143.97C154.251 143.949 154.313 143.928 154.397 143.907C154.48 143.866 154.522 143.824 154.522 143.782C154.48 143.532 154.49 143.386 154.553 143.345C154.615 143.303 154.667 143.261 154.709 143.22C154.938 143.261 155.095 143.293 155.178 143.314C155.261 143.334 155.397 143.407 155.584 143.532C155.792 143.532 155.938 143.574 156.022 143.657C156.105 143.741 156.199 143.803 156.303 143.845C156.386 143.928 156.449 144.011 156.49 144.095C156.553 144.178 156.636 144.241 156.74 144.282C156.907 144.511 157.084 144.761 157.272 145.032C157.459 145.303 157.636 145.553 157.803 145.782C158.032 146.095 158.261 146.397 158.49 146.689C158.74 146.959 158.97 147.261 159.178 147.595C159.24 147.699 159.355 147.886 159.522 148.157C159.688 148.407 159.876 148.678 160.084 148.97C160.292 149.261 160.48 149.532 160.647 149.782C160.813 150.011 160.928 150.147 160.99 150.189C161.053 150.293 161.188 150.491 161.397 150.782C161.605 151.074 161.824 151.386 162.053 151.72C162.303 152.032 162.542 152.334 162.772 152.626C163.001 152.918 163.157 153.105 163.24 153.189C163.47 153.501 163.636 153.761 163.74 153.97C163.865 154.157 163.98 154.366 164.084 154.595ZM156.928 160.47C157.157 160.157 157.334 159.876 157.459 159.626C157.584 159.376 157.709 159.126 157.834 158.876C158.042 158.626 158.167 158.449 158.209 158.345C158.251 158.241 158.303 158.136 158.365 158.032C158.532 157.782 158.699 157.532 158.865 157.282C159.053 157.032 159.199 156.761 159.303 156.47C159.428 156.386 159.522 156.282 159.584 156.157C159.647 156.032 159.74 155.918 159.865 155.814C159.74 155.376 159.595 155.043 159.428 154.814C159.261 154.564 159.095 154.324 158.928 154.095C158.865 153.991 158.803 153.886 158.74 153.782C158.678 153.678 158.615 153.574 158.553 153.47C158.47 153.407 158.397 153.345 158.334 153.282C158.292 153.22 158.24 153.157 158.178 153.095C158.136 152.991 158.074 152.855 157.99 152.689C157.907 152.584 157.824 152.491 157.74 152.407C157.657 152.324 157.584 152.22 157.522 152.095C157.438 152.011 157.334 151.897 157.209 151.751C157.084 151.605 156.949 151.449 156.803 151.282C156.678 151.095 156.563 150.928 156.459 150.782C156.355 150.616 156.272 150.48 156.209 150.376C156.167 150.272 156.126 150.189 156.084 150.126C156.063 150.043 156.032 149.959 155.99 149.876C155.886 149.73 155.782 149.605 155.678 149.501C155.574 149.376 155.47 149.241 155.365 149.095C155.303 149.136 155.24 149.168 155.178 149.189C155.136 149.189 155.095 149.209 155.053 149.251C154.907 149.522 154.74 149.772 154.553 150.001C154.386 150.23 154.22 150.48 154.053 150.751C153.907 151.001 153.761 151.261 153.615 151.532C153.47 151.782 153.324 152.032 153.178 152.282C153.074 152.428 152.97 152.574 152.865 152.72C152.782 152.845 152.688 152.991 152.584 153.157C152.48 153.303 152.386 153.459 152.303 153.626C152.24 153.772 152.157 153.918 152.053 154.064C151.886 154.272 151.751 154.459 151.647 154.626C151.542 154.793 151.438 154.991 151.334 155.22C151.397 155.345 151.49 155.522 151.615 155.751C151.761 155.959 151.907 156.178 152.053 156.407C152.199 156.616 152.324 156.814 152.428 157.001C152.553 157.189 152.626 157.314 152.647 157.376C152.813 157.522 152.949 157.689 153.053 157.876C153.157 158.043 153.292 158.209 153.459 158.376C153.542 158.543 153.636 158.689 153.74 158.814C153.845 158.939 153.949 159.074 154.053 159.22C154.157 159.366 154.292 159.584 154.459 159.876C154.626 160.147 154.792 160.428 154.959 160.72C155.126 161.011 155.292 161.282 155.459 161.532C155.626 161.782 155.761 161.939 155.865 162.001C156.074 161.772 156.24 161.522 156.365 161.251C156.511 160.959 156.699 160.699 156.928 160.47ZM176.365 143.689C176.699 143.647 176.949 143.678 177.115 143.782C177.303 143.866 177.49 143.918 177.678 143.939C177.782 143.959 177.886 143.97 177.99 143.97C178.115 143.949 178.24 143.939 178.365 143.939C178.636 143.939 178.845 143.97 178.99 144.032C179.157 144.095 179.324 144.23 179.49 144.439C179.532 144.48 179.584 144.543 179.647 144.626C179.73 144.689 179.772 144.751 179.772 144.814C179.772 144.98 179.73 145.126 179.647 145.251C179.563 145.376 179.522 145.553 179.522 145.782C179.522 146.136 179.563 146.491 179.647 146.845C179.73 147.178 179.782 147.522 179.803 147.876C179.907 149.168 179.959 150.47 179.959 151.782C179.98 153.074 179.99 154.355 179.99 155.626C179.99 155.793 179.98 155.949 179.959 156.095C179.959 156.22 179.917 156.334 179.834 156.439V156.845C179.813 157.386 179.824 157.939 179.865 158.501C179.907 159.043 179.928 159.584 179.928 160.126C179.928 160.605 179.897 161.084 179.834 161.564C179.792 162.043 179.772 162.532 179.772 163.032C179.772 163.491 179.803 163.939 179.865 164.376C179.928 164.814 179.959 165.261 179.959 165.72C179.855 165.907 179.792 166.053 179.772 166.157C179.751 166.261 179.709 166.355 179.647 166.439C179.584 166.48 179.511 166.491 179.428 166.47C179.365 166.449 179.313 166.47 179.272 166.532C179.167 166.657 179.095 166.803 179.053 166.97C179.011 167.136 178.907 167.272 178.74 167.376C178.699 167.668 178.584 167.886 178.397 168.032C178.23 168.199 178.105 168.407 178.022 168.657C177.772 168.678 177.595 168.668 177.49 168.626C177.407 168.584 177.313 168.543 177.209 168.501C177.188 168.147 177.188 167.886 177.209 167.72C177.251 167.574 177.272 167.418 177.272 167.251C177.272 167.043 177.22 166.886 177.115 166.782C177.011 166.678 176.938 166.543 176.897 166.376C176.667 166.23 176.511 166.136 176.428 166.095C176.345 166.032 176.272 165.959 176.209 165.876C176.084 165.709 175.98 165.532 175.897 165.345C175.813 165.157 175.72 164.98 175.615 164.814C175.324 164.334 175.022 163.845 174.709 163.345C174.417 162.845 174.095 162.355 173.74 161.876C173.678 161.772 173.605 161.678 173.522 161.595C173.438 161.511 173.365 161.418 173.303 161.314C172.949 160.751 172.615 160.178 172.303 159.595C171.99 159.011 171.626 158.459 171.209 157.939C171.042 157.73 170.917 157.501 170.834 157.251C170.751 156.98 170.626 156.751 170.459 156.564C170.438 156.668 170.428 156.782 170.428 156.907C170.428 157.032 170.428 157.147 170.428 157.251C170.428 157.959 170.438 158.668 170.459 159.376C170.501 160.064 170.522 160.761 170.522 161.47C170.522 161.616 170.501 161.751 170.459 161.876C170.438 161.98 170.428 162.105 170.428 162.251C170.428 162.459 170.438 162.657 170.459 162.845C170.48 163.032 170.49 163.22 170.49 163.407C170.49 163.636 170.48 163.855 170.459 164.064C170.459 164.272 170.449 164.48 170.428 164.689C170.386 164.959 170.334 165.22 170.272 165.47C170.209 165.699 170.178 165.939 170.178 166.189C170.178 166.334 170.188 166.47 170.209 166.595C170.251 166.72 170.272 166.834 170.272 166.939C170.126 167.168 169.938 167.282 169.709 167.282C169.501 167.282 169.324 167.366 169.178 167.532C169.053 167.511 168.949 167.522 168.865 167.564C168.803 167.605 168.74 167.626 168.678 167.626C168.595 167.626 168.522 167.616 168.459 167.595C168.417 167.574 168.365 167.564 168.303 167.564C168.199 167.564 168.095 167.616 167.99 167.72C167.886 167.824 167.782 167.876 167.678 167.876C167.615 167.876 167.501 167.834 167.334 167.751C167.188 167.668 167.022 167.564 166.834 167.439C166.667 167.334 166.511 167.22 166.365 167.095C166.22 166.991 166.147 166.907 166.147 166.845C166.126 166.741 166.115 166.595 166.115 166.407C166.115 166.157 166.126 165.918 166.147 165.689C166.188 165.439 166.23 165.189 166.272 164.939C166.334 164.23 166.365 163.532 166.365 162.845C166.365 162.136 166.365 161.428 166.365 160.72C166.365 160.428 166.365 160.136 166.365 159.845C166.386 159.553 166.397 159.261 166.397 158.97C166.397 158.282 166.365 157.595 166.303 156.907C166.261 156.199 166.24 155.501 166.24 154.814C166.24 154.334 166.261 153.866 166.303 153.407C166.345 152.928 166.365 152.459 166.365 152.001C166.365 151.647 166.355 151.303 166.334 150.97C166.313 150.636 166.303 150.293 166.303 149.939C166.282 149.709 166.282 149.47 166.303 149.22C166.324 148.949 166.334 148.699 166.334 148.47C166.334 148.199 166.292 147.949 166.209 147.72C166.147 147.47 166.115 147.241 166.115 147.032C166.115 146.907 166.136 146.793 166.178 146.689C166.24 146.564 166.272 146.439 166.272 146.314C166.272 146.147 166.24 145.98 166.178 145.814C166.136 145.647 166.115 145.48 166.115 145.314C166.115 145.147 166.136 144.991 166.178 144.845C166.22 144.699 166.24 144.543 166.24 144.376C166.532 144.23 166.792 144.157 167.022 144.157C167.251 144.157 167.417 144.241 167.522 144.407C167.522 144.782 167.542 145.074 167.584 145.282C167.626 145.47 167.657 145.668 167.678 145.876C167.678 146.001 167.667 146.147 167.647 146.314C167.647 146.48 167.657 146.647 167.678 146.814C167.699 146.959 167.74 147.084 167.803 147.189C167.886 147.293 168.022 147.345 168.209 147.345C168.251 147.449 168.303 147.543 168.365 147.626C168.428 147.709 168.47 147.814 168.49 147.939C168.615 147.855 168.688 147.741 168.709 147.595C168.73 147.449 168.73 147.314 168.709 147.189C168.813 147.23 168.907 147.251 168.99 147.251C169.074 147.23 169.157 147.241 169.24 147.282C169.282 147.574 169.334 147.834 169.397 148.064C169.459 148.272 169.48 148.522 169.459 148.814C169.876 149.126 170.23 149.574 170.522 150.157C170.834 150.72 171.126 151.23 171.397 151.689C171.542 151.918 171.709 152.136 171.897 152.345C172.105 152.532 172.261 152.761 172.365 153.032C172.532 153.136 172.667 153.272 172.772 153.439C172.876 153.605 172.97 153.772 173.053 153.939C173.47 154.668 173.928 155.376 174.428 156.064C174.928 156.751 175.449 157.428 175.99 158.095C176.011 157.949 176.022 157.814 176.022 157.689C176.022 157.543 176.022 157.397 176.022 157.251L175.99 154.439C175.99 154.272 175.98 154.116 175.959 153.97C175.959 153.824 175.949 153.668 175.928 153.501C175.886 152.959 175.876 152.428 175.897 151.907C175.917 151.386 175.917 150.855 175.897 150.314C175.855 149.751 175.824 149.178 175.803 148.595C175.803 148.011 175.782 147.428 175.74 146.845C175.72 146.491 175.699 146.136 175.678 145.782C175.657 145.428 175.647 145.074 175.647 144.72C175.647 144.282 175.688 143.886 175.772 143.532C175.813 143.491 175.855 143.459 175.897 143.439C175.959 143.397 176.032 143.376 176.115 143.376C176.24 143.376 176.324 143.48 176.365 143.689ZM189.74 143.97C189.782 144.053 189.824 144.116 189.865 144.157C189.928 144.178 189.97 144.241 189.99 144.345C190.136 144.449 190.251 144.532 190.334 144.595C190.417 144.636 190.47 144.72 190.49 144.845C190.678 144.991 190.782 145.084 190.803 145.126C190.845 145.168 190.876 145.22 190.897 145.282C191.001 145.366 191.095 145.439 191.178 145.501C191.282 145.564 191.355 145.657 191.397 145.782C191.563 145.928 191.667 146.043 191.709 146.126C191.751 146.209 191.782 146.303 191.803 146.407C191.72 146.553 191.553 146.751 191.303 147.001C191.053 147.251 190.772 147.522 190.459 147.814C190.147 148.084 189.845 148.355 189.553 148.626C189.261 148.876 189.032 149.074 188.865 149.22C188.824 149.303 188.772 149.376 188.709 149.439C188.647 149.501 188.595 149.574 188.553 149.657C188.428 149.761 188.313 149.876 188.209 150.001C188.105 150.105 187.98 150.189 187.834 150.251C187.626 150.543 187.334 150.834 186.959 151.126C186.584 151.397 186.334 151.668 186.209 151.939C186.23 152.001 186.272 152.064 186.334 152.126C186.417 152.189 186.48 152.241 186.522 152.282C186.688 152.449 186.886 152.605 187.115 152.751C187.345 152.876 187.542 153.022 187.709 153.189C187.876 153.334 188.042 153.48 188.209 153.626C188.376 153.751 188.542 153.886 188.709 154.032C188.792 154.116 188.897 154.241 189.022 154.407C189.23 154.574 189.428 154.73 189.615 154.876C189.824 155.001 190.022 155.147 190.209 155.314C190.605 155.647 190.99 155.991 191.365 156.345C191.74 156.678 192.136 157.011 192.553 157.345L192.803 157.626C192.803 157.793 192.845 157.991 192.928 158.22C193.032 158.428 193.126 158.605 193.209 158.751C193.167 158.959 193.167 159.095 193.209 159.157C193.272 159.199 193.324 159.241 193.365 159.282C193.345 159.678 193.355 159.939 193.397 160.064C193.042 160.376 192.709 160.668 192.397 160.939C192.105 161.189 191.845 161.439 191.615 161.689C191.428 161.918 191.23 162.126 191.022 162.314C190.834 162.48 190.626 162.668 190.397 162.876C190.272 163.043 190.167 163.157 190.084 163.22C189.938 163.366 189.792 163.48 189.647 163.564C189.397 163.793 189.147 164.011 188.897 164.22C188.667 164.428 188.438 164.636 188.209 164.845C188.042 164.991 187.886 165.136 187.74 165.282C187.595 165.407 187.449 165.553 187.303 165.72C187.178 165.845 187.032 165.991 186.865 166.157C186.72 166.324 186.563 166.459 186.397 166.564C186.334 166.689 186.251 166.803 186.147 166.907C186.042 166.991 185.949 167.084 185.865 167.189C185.72 167.272 185.584 167.355 185.459 167.439C185.334 167.522 185.188 167.605 185.022 167.689C184.855 167.564 184.688 167.449 184.522 167.345C184.376 167.241 184.209 167.168 184.022 167.126C183.897 167.022 183.803 166.918 183.74 166.814C183.678 166.709 183.563 166.636 183.397 166.595C183.355 166.532 183.303 166.47 183.24 166.407C183.199 166.324 183.157 166.241 183.115 166.157C182.865 166.136 182.667 165.98 182.522 165.689C182.563 165.564 182.615 165.47 182.678 165.407C182.761 165.345 182.782 165.23 182.74 165.064C182.865 164.855 183.011 164.678 183.178 164.532C183.365 164.366 183.542 164.199 183.709 164.032C183.897 163.866 184.063 163.699 184.209 163.532C184.376 163.345 184.553 163.168 184.74 163.001C184.845 162.897 184.949 162.803 185.053 162.72C185.157 162.616 185.272 162.511 185.397 162.407C185.626 162.178 185.855 161.97 186.084 161.782C186.334 161.574 186.584 161.355 186.834 161.126C187.167 160.793 187.511 160.48 187.865 160.189C188.22 159.876 188.542 159.532 188.834 159.157C188.813 159.074 188.782 159.022 188.74 159.001C188.699 158.959 188.667 158.907 188.647 158.845C188.313 158.532 187.98 158.23 187.647 157.939C187.334 157.626 186.99 157.355 186.615 157.126C186.49 157.001 186.407 156.897 186.365 156.814C185.99 156.543 185.626 156.241 185.272 155.907C184.938 155.574 184.563 155.293 184.147 155.064C184.063 154.959 183.959 154.876 183.834 154.814C183.73 154.73 183.626 154.657 183.522 154.595C183.459 154.491 183.386 154.407 183.303 154.345C183.24 154.261 183.157 154.199 183.053 154.157C182.886 154.011 182.772 153.897 182.709 153.814C182.667 153.709 182.584 153.647 182.459 153.626C182.417 153.522 182.345 153.439 182.24 153.376C182.157 153.314 182.063 153.241 181.959 153.157C181.917 153.032 181.855 152.928 181.772 152.845C181.751 152.678 181.761 152.564 181.803 152.501C181.845 152.418 181.876 152.355 181.897 152.314C181.876 152.189 181.824 152.095 181.74 152.032C181.636 151.97 181.584 151.866 181.584 151.72C181.584 151.636 181.615 151.584 181.678 151.564C181.72 151.522 181.751 151.47 181.772 151.407L181.865 150.939C182.032 150.814 182.167 150.668 182.272 150.501C182.397 150.314 182.553 150.168 182.74 150.064C182.949 149.751 183.209 149.491 183.522 149.282C183.626 149.116 183.751 148.98 183.897 148.876C184.063 148.772 184.199 148.636 184.303 148.47C184.47 148.366 184.605 148.251 184.709 148.126C184.834 148.001 184.98 147.886 185.147 147.782C185.188 147.699 185.23 147.636 185.272 147.595C185.334 147.532 185.376 147.47 185.397 147.407C185.959 146.866 186.449 146.397 186.865 146.001C187.303 145.605 187.751 145.209 188.209 144.814C188.334 144.709 188.459 144.595 188.584 144.47C188.709 144.345 188.845 144.23 188.99 144.126C189.032 144.084 189.084 144.064 189.147 144.064C189.209 144.064 189.272 144.043 189.334 144.001C189.584 144.001 189.72 143.991 189.74 143.97Z" fill="#F5F5F5"/>
</g>
</g>
<defs>
<filter id="filter0_d_337_37" x="37" y="79" width="215.188" height="200.324" filterUnits="userSpaceOnUse" color-interpolation-filters="sRGB">
<feFlood flood-opacity="0" result="BackgroundImageFix"/>
<feColorMatrix in="SourceAlpha" type="matrix" values="0 0 0 0 0 0 0 0 0 0 0 0 0 0 0 0 0 0 127 0" result="hardAlpha"/>
<feOffset dx="4" dy="4"/>
<feGaussianBlur stdDeviation="2"/>
<feComposite in2="hardAlpha" operator="out"/>
<feColorMatrix type="matrix" values="0 0 0 0 0 0 0 0 0 0 0 0 0 0 0 0 0 0 0.25 0"/>
<feBlend mode="normal" in2="BackgroundImageFix" result="effect1_dropShadow_337_37"/>
<feBlend mode="normal" in="SourceGraphic" in2="effect1_dropShadow_337_37" result="shape"/>
</filter>
<filter id="filter1_d_337_37" x="78.5842" y="107.876" width="125.906" height="68.8125" filterUnits="userSpaceOnUse" color-interpolation-filters="sRGB">
<feFlood flood-opacity="0" result="BackgroundImageFix"/>
<feColorMatrix in="SourceAlpha" type="matrix" values="0 0 0 0 0 0 0 0 0 0 0 0 0 0 0 0 0 0 127 0" result="hardAlpha"/>
<feOffset dx="4" dy="4"/>
<feGaussianBlur stdDeviation="2"/>
<feComposite in2="hardAlpha" operator="out"/>
<feColorMatrix type="matrix" values="0 0 0 0 0 0 0 0 0 0 0 0 0 0 0 0 0 0 0.5 0"/>
<feBlend mode="normal" in2="BackgroundImageFix" result="effect1_dropShadow_337_37"/>
<feBlend mode="normal" in="SourceGraphic" in2="effect1_dropShadow_337_37" result="shape"/>
</filter>
</defs>
</svg>
