<svg width="281" height="350" viewBox="0 0 281 350" fill="none" xmlns="http://www.w3.org/2000/svg">
<rect width="281" height="350" rx="20" fill="#202020" fill-opacity="0.5"/>
<path d="M37.76 47.888C38.7627 47.888 39.808 47.5893 40.896 46.992V44.368C40.896 43.8773 40.8533 43.1627 40.768 42.224C40.0213 42.0107 39.0507 41.7973 37.856 41.584L37.952 40.912C38.4427 40.976 38.912 41.008 39.36 41.008C41.2373 41.008 42.9547 40.4853 44.512 39.44L44.8 40.016C44.3093 40.4 43.9253 40.784 43.648 41.168C43.2427 44.88 43.0293 48.3467 43.008 51.568C42.3893 52.6987 41.3653 53.7867 39.936 54.832C38.528 55.8773 37.2373 56.4 36.064 56.4C35.744 56.4 35.4773 56.3147 35.264 56.144C35.0507 55.9733 34.944 55.7387 34.944 55.44C35.5627 54.9707 36.0853 54.4267 36.512 53.808L36.736 53.776C37.2053 54.1387 37.7493 54.32 38.368 54.32C38.9867 54.32 39.4133 54.256 39.648 54.128C40.5227 52.9547 40.96 51.0347 40.96 48.368C39.7867 49.2853 38.4853 49.9893 37.056 50.48C34.496 50.48 32.5653 49.68 31.264 48.08C29.984 46.4587 29.344 44.2293 29.344 41.392C29.344 38.5333 30.1227 35.888 31.68 33.456C33.2587 31.0027 35.3707 29.4133 38.016 28.688C40.2347 28.688 42.464 28.8907 44.704 29.296L44.672 30C44.1387 30 43.6267 30.096 43.136 30.288C42.56 31.632 42.208 33.136 42.08 34.8H41.28C41.088 33.9253 40.992 32.9333 40.992 31.824C39.9893 31.2693 38.7627 30.992 37.312 30.992C35.8613 30.992 34.6987 31.3547 33.824 32.08C32.736 33.936 32.192 36.2933 32.192 39.152C32.192 44.976 34.048 47.888 37.76 47.888ZM54.2285 50.384C52.1165 50.384 50.4098 49.7227 49.1085 48.4C47.8072 47.056 47.1565 45.264 47.1565 43.024C47.1565 40.784 47.8392 38.6827 49.2045 36.72C50.5698 34.7573 52.3512 33.4987 54.5485 32.944C56.7458 32.944 58.4205 33.5733 59.5725 34.832C60.7245 36.0693 61.3005 37.84 61.3005 40.144C61.3005 42.448 60.6712 44.528 59.4125 46.384C58.1752 48.24 56.4472 49.5733 54.2285 50.384ZM53.6845 34.896C52.7245 34.896 51.8925 35.1627 51.1885 35.696C50.3138 37.1893 49.8765 39.0667 49.8765 41.328C49.8765 43.9307 50.6018 45.9253 52.0525 47.312C52.8205 48.0587 53.7272 48.432 54.7725 48.432C55.8178 48.432 56.6605 48.1547 57.3005 47.6C58.1538 46.1067 58.5805 44.2827 58.5805 42.128C58.5805 39.9733 58.1965 38.2347 57.4285 36.912C56.6605 35.568 55.4125 34.896 53.6845 34.896ZM75.7443 50.352C74.3576 50.1173 72.4696 50 70.0803 50C67.7123 50 65.7283 50.1067 64.1283 50.32L64.0323 49.52C64.6296 49.2853 65.3123 49.0933 66.0803 48.944C66.2936 47.664 66.4003 45.488 66.4003 42.416V40.912C66.4003 38.2667 66.2936 36.0907 66.0803 34.384C65.3763 34.2773 64.7043 34.1173 64.0643 33.904L64.1923 33.072C65.2803 33.2427 66.5603 33.328 68.0323 33.328C69.5043 33.328 70.7629 33.2427 71.8083 33.072L71.9043 33.872C70.9443 34.1067 69.9949 34.2773 69.0563 34.384C68.8856 35.536 68.8003 37.9147 68.8003 41.52C68.8003 45.104 68.8856 47.4933 69.0563 48.688C69.5683 48.7733 70.2936 48.816 71.2323 48.816C72.1709 48.816 73.0136 48.6347 73.7603 48.272C74.0589 47.5467 74.2083 46.6933 74.2083 45.712H75.0083C75.0936 47.3547 75.3923 48.688 75.9043 49.712L75.7443 50.352ZM76.8395 33.392L84.1995 33.168C86.6315 33.168 88.4982 33.744 89.7995 34.896C91.1222 36.048 91.7835 37.776 91.7835 40.08C91.7835 42.3627 91.0582 44.496 89.6075 46.48C88.1782 48.464 86.3968 49.7653 84.2635 50.384C83.7088 50.384 82.9835 50.2773 82.0875 50.064C81.2128 49.872 80.4875 49.6587 79.9115 49.424C79.6768 49.7013 79.4635 50.096 79.2715 50.608L78.5995 50.448C79.0048 48.5493 79.2075 45.872 79.2075 42.416C79.2075 38.9387 79.1115 36.336 78.9195 34.608C78.1942 34.3307 77.5008 34.192 76.8395 34.192V33.392ZM87.8475 36.592C87.4635 35.8667 86.9195 35.3013 86.2155 34.896C85.5328 34.4907 84.7755 34.288 83.9435 34.288C83.1328 34.288 82.4288 34.4053 81.8315 34.64C81.6822 36.0267 81.6075 38.2453 81.6075 41.296C81.6075 44.3253 81.6502 46.4267 81.7355 47.6C82.8022 48.0907 83.8902 48.336 84.9995 48.336C86.1302 48.336 87.0262 48.048 87.6875 47.472C88.4982 45.936 88.9035 44.048 88.9035 41.808C88.9035 39.7173 88.5515 37.9787 87.8475 36.592ZM105.664 30.288C105.429 31.888 105.312 34.8747 105.312 39.248C105.312 43.6213 105.45 46.832 105.728 48.88C106.858 48.9867 108.032 49.1893 109.248 49.488L109.152 50.256C107.573 50.0853 105.856 50 104 50C102.165 50 100.682 50.0853 99.5515 50.256L99.4235 49.456C100.384 49.1573 101.408 48.9333 102.496 48.784C102.73 47.0347 102.848 44.2827 102.848 40.528V38.64C102.848 35.184 102.709 32.432 102.432 30.384C101.344 30.2347 100.32 30.0107 99.3595 29.712L99.4875 28.912C100.618 29.0827 102.101 29.168 103.936 29.168C105.792 29.168 107.509 29.0827 109.088 28.912L109.184 29.68C107.968 29.9787 106.794 30.1813 105.664 30.288ZM118.557 50.224C117.447 50.0747 116.199 50 114.813 50C113.447 50 112.221 50.0853 111.133 50.256L111.005 49.424C111.687 49.2107 112.327 49.0507 112.925 48.944C113.117 47.28 113.213 45.104 113.213 42.416V40.912C113.213 38.0533 113.106 35.856 112.893 34.32C112.317 34.256 111.623 34.0853 110.813 33.808L110.909 32.976C112.125 33.2107 113.394 33.328 114.717 33.328C116.061 33.328 117.021 33.2533 117.597 33.104L117.661 33.648C117.085 33.7973 116.797 34.0427 116.797 34.384C116.797 34.64 117.042 35.184 117.533 36.016C118.045 36.8267 118.535 37.616 119.005 38.384C120.413 40.624 122.077 43.376 123.997 46.64L124.093 46.576V42.672C124.093 39.8133 123.943 37.6693 123.645 36.24C123.346 34.7893 122.834 33.9467 122.109 33.712L122.173 33.168C122.727 33.2747 123.559 33.328 124.669 33.328C125.778 33.328 126.919 33.2107 128.093 32.976L128.189 33.808C127.314 34.0853 126.578 34.256 125.981 34.32C125.767 36.0267 125.661 38.224 125.661 40.912V42.416C125.661 45.6587 125.767 47.856 125.981 49.008C126.877 49.1573 127.591 49.328 128.125 49.52L128.029 50.352C126.962 50.1173 125.959 50 125.021 50C124.082 50 123.357 50.0427 122.845 50.128C122.845 49.6587 122.514 48.8693 121.853 47.76C121.213 46.6507 120.626 45.6693 120.093 44.816C118.365 42.0213 116.669 39.184 115.005 36.304L114.877 36.368V40.656C114.877 44.9013 115.197 47.664 115.837 48.944C116.797 49.0507 117.735 49.2107 118.653 49.424L118.557 50.224ZM138.014 48.144C138.932 48.144 139.838 47.8773 140.734 47.344L140.574 43.92C139.977 43.728 139.252 43.5573 138.398 43.408L138.494 42.736C139.006 42.7787 139.38 42.8 139.614 42.8C141.086 42.8 142.42 42.4053 143.614 41.616L143.934 42.192C143.678 42.4267 143.444 42.672 143.23 42.928C142.932 45.8293 142.74 48.2187 142.654 50.096H141.982C141.812 49.3067 141.556 48.656 141.214 48.144C139.977 49.232 138.729 49.9787 137.47 50.384C135.401 50.384 133.78 49.7333 132.606 48.432C131.433 47.1093 130.846 45.3387 130.846 43.12C130.846 40.88 131.54 38.7787 132.926 36.816C134.313 34.8533 136.084 33.5627 138.238 32.944C139.796 32.944 141.556 33.104 143.518 33.424L143.486 34.128C143.081 34.128 142.697 34.2027 142.334 34.352C141.929 35.312 141.662 36.4533 141.534 37.776H140.734C140.564 37.0507 140.478 36.304 140.478 35.536C139.668 35.1307 138.708 34.928 137.598 34.928C136.489 34.928 135.572 35.2267 134.846 35.824C133.993 37.3813 133.566 39.2267 133.566 41.36C133.566 43.472 133.876 45.136 134.494 46.352C135.134 47.5467 136.308 48.144 138.014 48.144ZM153.572 50.384C151.46 50.384 149.754 49.7227 148.452 48.4C147.151 47.056 146.5 45.264 146.5 43.024C146.5 40.784 147.183 38.6827 148.548 36.72C149.914 34.7573 151.695 33.4987 153.892 32.944C156.09 32.944 157.764 33.5733 158.916 34.832C160.068 36.0693 160.644 37.84 160.644 40.144C160.644 42.448 160.015 44.528 158.756 46.384C157.519 48.24 155.791 49.5733 153.572 50.384ZM153.028 34.896C152.068 34.896 151.236 35.1627 150.532 35.696C149.658 37.1893 149.22 39.0667 149.22 41.328C149.22 43.9307 149.946 45.9253 151.396 47.312C152.164 48.0587 153.071 48.432 154.116 48.432C155.162 48.432 156.004 48.1547 156.644 47.6C157.498 46.1067 157.924 44.2827 157.924 42.128C157.924 39.9733 157.54 38.2347 156.772 36.912C156.004 35.568 154.756 34.896 153.028 34.896ZM173.84 35.056C173.093 34.6933 172.379 34.512 171.696 34.512C171.013 34.512 170.555 34.5547 170.32 34.64C170.149 35.792 170.064 38.0213 170.064 41.328C170.064 44.6347 170.181 47.1733 170.416 48.944C171.376 49.0507 172.261 49.2107 173.072 49.424L172.976 50.224C171.867 50.0747 170.587 50 169.136 50C167.707 50 166.448 50.0853 165.36 50.256L165.232 49.424C165.659 49.296 166.395 49.136 167.44 48.944C167.632 47.408 167.728 45.232 167.728 42.416V40.912C167.728 39.4187 167.611 37.328 167.376 34.64C167.141 34.5547 166.704 34.512 166.064 34.512C165.424 34.512 164.741 34.6613 164.016 34.96C163.803 35.6213 163.653 36.5067 163.568 37.616H162.736C162.736 35.8667 162.448 34.512 161.872 33.552L162.032 33.008C163.675 33.2213 165.979 33.328 168.944 33.328C171.909 33.328 174.299 33.2107 176.112 32.976L176.304 33.584C175.771 34.1813 175.408 34.768 175.216 35.344C175.024 35.8987 174.907 36.656 174.864 37.616H174.064C173.915 36.912 173.84 36.0587 173.84 35.056Z" fill="#FAF9F6"/>
<path d="M28.72 258.24V256.8H36.736V258.24H28.72ZM31.872 261.328V253.6H33.552V261.328H31.872ZM41.4691 262.16C40.6798 262.16 39.9918 261.979 39.4051 261.616C38.8291 261.253 38.2851 260.645 37.7731 259.792L39.1171 258.944C39.3838 259.339 39.6451 259.664 39.9011 259.92C40.1678 260.165 40.4398 260.347 40.7171 260.464C40.9945 260.581 41.2878 260.64 41.5971 260.64C41.9705 260.64 42.3171 260.549 42.6371 260.368C42.9571 260.176 43.2131 259.915 43.4051 259.584C43.5971 259.253 43.6931 258.88 43.6931 258.464C43.6931 258.048 43.6185 257.696 43.4691 257.408C43.3198 257.109 43.1011 256.885 42.8131 256.736C42.5251 256.576 42.1838 256.496 41.7891 256.496C41.6078 256.496 41.4158 256.517 41.2131 256.56C41.0211 256.592 40.8131 256.645 40.5891 256.72C40.3651 256.784 40.1198 256.869 39.8531 256.976L39.3731 255.712L42.8291 251.904L43.1651 252.4H38.3971V250.8H44.8131L45.1331 251.44L41.4691 255.504L41.0691 255.088C41.1545 255.045 41.2931 255.008 41.4851 254.976C41.6878 254.933 41.8531 254.912 41.9811 254.912C42.4505 254.912 42.8878 255.003 43.2931 255.184C43.7091 255.355 44.0665 255.6 44.3651 255.92C44.6745 256.229 44.9145 256.597 45.0851 257.024C45.2665 257.44 45.3571 257.888 45.3571 258.368C45.3571 259.093 45.1811 259.744 44.8291 260.32C44.4878 260.885 44.0238 261.333 43.4371 261.664C42.8505 261.995 42.1945 262.16 41.4691 262.16ZM51.5263 262V253.6H53.1903V255.392L52.8863 255.584C52.9716 255.307 53.1049 255.04 53.2863 254.784C53.4783 254.528 53.7076 254.304 53.9743 254.112C54.2516 253.909 54.5449 253.749 54.8543 253.632C55.1743 253.515 55.4996 253.456 55.8303 253.456C56.3103 253.456 56.7316 253.536 57.0943 253.696C57.4569 253.856 57.7556 254.096 57.9903 254.416C58.2249 254.736 58.3956 255.136 58.5023 255.616L58.2463 255.552L58.3583 255.28C58.4756 255.035 58.6356 254.805 58.8383 254.592C59.0516 254.368 59.2916 254.171 59.5583 254C59.8249 253.829 60.1076 253.696 60.4062 253.6C60.7049 253.504 60.9983 253.456 61.2863 253.456C61.9156 253.456 62.4329 253.584 62.8383 253.84C63.2543 254.096 63.5636 254.485 63.7663 255.008C63.9796 255.531 64.0863 256.181 64.0863 256.96V262H62.4223V257.056C62.4223 256.576 62.3583 256.187 62.2303 255.888C62.1129 255.579 61.9316 255.349 61.6863 255.2C61.4409 255.051 61.1263 254.976 60.7423 254.976C60.4436 254.976 60.1609 255.029 59.8943 255.136C59.6383 255.232 59.4143 255.371 59.2222 255.552C59.0303 255.733 58.8809 255.947 58.7743 256.192C58.6676 256.427 58.6143 256.688 58.6143 256.976V262H56.9503V257.024C56.9503 256.587 56.8863 256.219 56.7583 255.92C56.6303 255.611 56.4436 255.376 56.1983 255.216C55.9529 255.056 55.6543 254.976 55.3023 254.976C55.0036 254.976 54.7263 255.029 54.4703 255.136C54.2143 255.232 53.9903 255.371 53.7983 255.552C53.6063 255.723 53.4569 255.931 53.3503 256.176C53.2436 256.411 53.1903 256.667 53.1903 256.944V262H51.5263ZM69.5246 262.16C68.8313 262.16 68.1966 261.968 67.6206 261.584C67.0553 261.2 66.602 260.677 66.2606 260.016C65.9193 259.355 65.7486 258.608 65.7486 257.776C65.7486 256.933 65.9193 256.187 66.2606 255.536C66.6126 254.875 67.082 254.357 67.6686 253.984C68.266 253.611 68.9326 253.424 69.6686 253.424C70.106 253.424 70.506 253.488 70.8686 253.616C71.2313 253.744 71.546 253.925 71.8126 254.16C72.09 254.384 72.314 254.645 72.4846 254.944C72.666 255.243 72.778 255.563 72.8206 255.904L72.4526 255.776V253.6H74.1166V262H72.4526V260L72.8366 259.888C72.7726 260.176 72.6393 260.459 72.4366 260.736C72.2446 261.003 71.994 261.243 71.6846 261.456C71.386 261.669 71.05 261.84 70.6766 261.968C70.314 262.096 69.93 262.16 69.5246 262.16ZM69.9566 260.64C70.458 260.64 70.9006 260.517 71.2846 260.272C71.6686 260.027 71.9673 259.691 72.1806 259.264C72.4046 258.827 72.5166 258.331 72.5166 257.776C72.5166 257.232 72.4046 256.747 72.1806 256.32C71.9673 255.893 71.6686 255.557 71.2846 255.312C70.9006 255.067 70.458 254.944 69.9566 254.944C69.466 254.944 69.0286 255.067 68.6446 255.312C68.2713 255.557 67.9726 255.893 67.7486 256.32C67.5353 256.747 67.4286 257.232 67.4286 257.776C67.4286 258.331 67.5353 258.827 67.7486 259.264C67.9726 259.691 68.2713 260.027 68.6446 260.272C69.0286 260.517 69.466 260.64 69.9566 260.64ZM80.1776 265.68C79.5803 265.68 78.983 265.584 78.3856 265.392C77.799 265.211 77.3243 264.971 76.9616 264.672L77.5696 263.392C77.783 263.552 78.0336 263.691 78.3216 263.808C78.6096 263.936 78.9136 264.032 79.2336 264.096C79.5536 264.171 79.8683 264.208 80.1776 264.208C80.7643 264.208 81.255 264.112 81.6496 263.92C82.0443 263.728 82.343 263.445 82.5456 263.072C82.7483 262.699 82.8496 262.235 82.8496 261.68V260.064L83.0256 260.176C82.9723 260.507 82.7963 260.827 82.4976 261.136C82.2096 261.435 81.847 261.68 81.4096 261.872C80.9723 262.064 80.5243 262.16 80.0656 262.16C79.2656 262.16 78.551 261.973 77.9216 261.6C77.303 261.216 76.8123 260.699 76.4496 260.048C76.087 259.387 75.9056 258.635 75.9056 257.792C75.9056 256.949 76.0816 256.203 76.4336 255.552C76.7963 254.891 77.287 254.373 77.9056 254C78.535 253.616 79.239 253.424 80.0176 253.424C80.3376 253.424 80.647 253.467 80.9456 253.552C81.2443 253.627 81.5216 253.739 81.7776 253.888C82.0336 254.027 82.263 254.181 82.4656 254.352C82.6683 254.523 82.8336 254.704 82.9616 254.896C83.0896 255.088 83.1696 255.269 83.2016 255.44L82.8496 255.568V253.6H84.4976V261.488C84.4976 262.16 84.3963 262.752 84.1936 263.264C84.0016 263.787 83.719 264.224 83.3456 264.576C82.9723 264.939 82.519 265.211 81.9856 265.392C81.4523 265.584 80.8496 265.68 80.1776 265.68ZM80.2416 260.64C80.7643 260.64 81.2283 260.517 81.6336 260.272C82.039 260.027 82.3536 259.691 82.5776 259.264C82.8016 258.837 82.9136 258.347 82.9136 257.792C82.9136 257.237 82.7963 256.747 82.5616 256.32C82.3376 255.883 82.023 255.541 81.6176 255.296C81.223 255.051 80.7643 254.928 80.2416 254.928C79.7296 254.928 79.271 255.056 78.8656 255.312C78.471 255.557 78.1563 255.899 77.9216 256.336C77.6976 256.763 77.5856 257.248 77.5856 257.792C77.5856 258.336 77.6976 258.827 77.9216 259.264C78.1563 259.691 78.471 260.027 78.8656 260.272C79.271 260.517 79.7296 260.64 80.2416 260.64ZM87.0803 262V253.6H88.7283V262H87.0803ZM87.8803 251.744C87.5283 251.744 87.2563 251.653 87.0643 251.472C86.8723 251.291 86.7763 251.035 86.7763 250.704C86.7763 250.395 86.8723 250.144 87.0643 249.952C87.2669 249.76 87.5389 249.664 87.8803 249.664C88.2323 249.664 88.5043 249.755 88.6963 249.936C88.8883 250.117 88.9843 250.373 88.9843 250.704C88.9843 251.013 88.8829 251.264 88.6803 251.456C88.4883 251.648 88.2216 251.744 87.8803 251.744ZM94.8294 262.16C94.0507 262.16 93.352 261.968 92.7334 261.584C92.1254 261.2 91.64 260.677 91.2774 260.016C90.9254 259.355 90.7494 258.613 90.7494 257.792C90.7494 256.971 90.9254 256.229 91.2774 255.568C91.64 254.907 92.1254 254.384 92.7334 254C93.352 253.616 94.0507 253.424 94.8294 253.424C95.576 253.424 96.2534 253.579 96.8614 253.888C97.48 254.187 97.9494 254.597 98.2694 255.12L97.3574 256.24C97.1867 255.995 96.968 255.771 96.7014 255.568C96.4347 255.365 96.152 255.205 95.8534 255.088C95.5547 254.971 95.2667 254.912 94.9894 254.912C94.4774 254.912 94.0187 255.04 93.6134 255.296C93.2187 255.541 92.904 255.883 92.6694 256.32C92.4347 256.757 92.3174 257.248 92.3174 257.792C92.3174 258.336 92.44 258.827 92.6854 259.264C92.9307 259.691 93.256 260.032 93.6614 260.288C94.0667 260.544 94.5147 260.672 95.0054 260.672C95.2934 260.672 95.5707 260.624 95.8374 260.528C96.1147 260.432 96.3814 260.288 96.6374 260.096C96.8934 259.904 97.1334 259.669 97.3574 259.392L98.2694 260.512C97.928 260.992 97.4374 261.387 96.7974 261.696C96.168 262.005 95.512 262.16 94.8294 262.16ZM108.068 265.68C107.471 265.68 106.874 265.584 106.276 265.392C105.69 265.211 105.215 264.971 104.852 264.672L105.46 263.392C105.674 263.552 105.924 263.691 106.212 263.808C106.5 263.936 106.804 264.032 107.124 264.096C107.444 264.171 107.759 264.208 108.068 264.208C108.655 264.208 109.146 264.112 109.54 263.92C109.935 263.728 110.234 263.445 110.436 263.072C110.639 262.699 110.74 262.235 110.74 261.68V260.064L110.916 260.176C110.863 260.507 110.687 260.827 110.388 261.136C110.1 261.435 109.738 261.68 109.3 261.872C108.863 262.064 108.415 262.16 107.956 262.16C107.156 262.16 106.442 261.973 105.812 261.6C105.194 261.216 104.703 260.699 104.34 260.048C103.978 259.387 103.796 258.635 103.796 257.792C103.796 256.949 103.972 256.203 104.324 255.552C104.687 254.891 105.178 254.373 105.796 254C106.426 253.616 107.13 253.424 107.908 253.424C108.228 253.424 108.538 253.467 108.836 253.552C109.135 253.627 109.412 253.739 109.668 253.888C109.924 254.027 110.154 254.181 110.356 254.352C110.559 254.523 110.724 254.704 110.852 254.896C110.98 255.088 111.06 255.269 111.092 255.44L110.74 255.568V253.6H112.388V261.488C112.388 262.16 112.287 262.752 112.084 263.264C111.892 263.787 111.61 264.224 111.236 264.576C110.863 264.939 110.41 265.211 109.876 265.392C109.343 265.584 108.74 265.68 108.068 265.68ZM108.132 260.64C108.655 260.64 109.119 260.517 109.524 260.272C109.93 260.027 110.244 259.691 110.468 259.264C110.692 258.837 110.804 258.347 110.804 257.792C110.804 257.237 110.687 256.747 110.452 256.32C110.228 255.883 109.914 255.541 109.508 255.296C109.114 255.051 108.655 254.928 108.132 254.928C107.62 254.928 107.162 255.056 106.756 255.312C106.362 255.557 106.047 255.899 105.812 256.336C105.588 256.763 105.476 257.248 105.476 257.792C105.476 258.336 105.588 258.827 105.812 259.264C106.047 259.691 106.362 260.027 106.756 260.272C107.162 260.517 107.62 260.64 108.132 260.64ZM118.619 262.16C117.755 262.16 116.987 261.979 116.315 261.616C115.654 261.243 115.131 260.736 114.747 260.096C114.374 259.456 114.187 258.72 114.187 257.888C114.187 257.227 114.294 256.624 114.507 256.08C114.72 255.536 115.014 255.067 115.387 254.672C115.771 254.267 116.224 253.957 116.747 253.744C117.28 253.52 117.856 253.408 118.475 253.408C119.019 253.408 119.526 253.515 119.995 253.728C120.464 253.931 120.87 254.213 121.211 254.576C121.563 254.939 121.83 255.371 122.011 255.872C122.203 256.363 122.294 256.901 122.283 257.488L122.267 258.192H115.403L115.035 256.88H120.843L120.603 257.152V256.768C120.571 256.416 120.454 256.101 120.251 255.824C120.048 255.547 119.792 255.328 119.483 255.168C119.174 255.008 118.838 254.928 118.475 254.928C117.899 254.928 117.414 255.04 117.019 255.264C116.624 255.477 116.326 255.797 116.123 256.224C115.92 256.64 115.819 257.157 115.819 257.776C115.819 258.363 115.942 258.875 116.187 259.312C116.432 259.739 116.779 260.069 117.227 260.304C117.675 260.539 118.192 260.656 118.779 260.656C119.195 260.656 119.579 260.587 119.931 260.448C120.294 260.309 120.683 260.059 121.099 259.696L121.931 260.864C121.675 261.12 121.36 261.344 120.987 261.536C120.624 261.728 120.235 261.883 119.819 262C119.414 262.107 119.014 262.16 118.619 262.16ZM124.042 262V253.6H125.706V255.392L125.402 255.584C125.487 255.307 125.621 255.04 125.802 254.784C125.994 254.528 126.223 254.304 126.49 254.112C126.767 253.909 127.061 253.749 127.37 253.632C127.69 253.515 128.015 253.456 128.346 253.456C128.826 253.456 129.247 253.536 129.61 253.696C129.973 253.856 130.271 254.096 130.506 254.416C130.741 254.736 130.911 255.136 131.018 255.616L130.762 255.552L130.874 255.28C130.991 255.035 131.151 254.805 131.354 254.592C131.567 254.368 131.807 254.171 132.074 254C132.341 253.829 132.623 253.696 132.922 253.6C133.221 253.504 133.514 253.456 133.802 253.456C134.431 253.456 134.949 253.584 135.354 253.84C135.77 254.096 136.079 254.485 136.282 255.008C136.495 255.531 136.602 256.181 136.602 256.96V262H134.938V257.056C134.938 256.576 134.874 256.187 134.746 255.888C134.629 255.579 134.447 255.349 134.202 255.2C133.957 255.051 133.642 254.976 133.258 254.976C132.959 254.976 132.677 255.029 132.41 255.136C132.154 255.232 131.93 255.371 131.738 255.552C131.546 255.733 131.397 255.947 131.29 256.192C131.183 256.427 131.13 256.688 131.13 256.976V262H129.466V257.024C129.466 256.587 129.402 256.219 129.274 255.92C129.146 255.611 128.959 255.376 128.714 255.216C128.469 255.056 128.17 254.976 127.818 254.976C127.519 254.976 127.242 255.029 126.986 255.136C126.73 255.232 126.506 255.371 126.314 255.552C126.122 255.723 125.973 255.931 125.866 256.176C125.759 256.411 125.706 256.667 125.706 256.944V262H124.042ZM141.608 262.16C140.904 262.16 140.27 262.037 139.704 261.792C139.139 261.547 138.67 261.184 138.296 260.704L139.416 259.744C139.736 260.117 140.083 260.389 140.456 260.56C140.84 260.72 141.272 260.8 141.752 260.8C141.944 260.8 142.12 260.779 142.28 260.736C142.451 260.683 142.595 260.608 142.712 260.512C142.84 260.416 142.936 260.304 143 260.176C143.064 260.037 143.096 259.888 143.096 259.728C143.096 259.451 142.995 259.227 142.792 259.056C142.686 258.981 142.515 258.901 142.28 258.816C142.056 258.72 141.763 258.624 141.4 258.528C140.782 258.368 140.275 258.187 139.88 257.984C139.486 257.781 139.182 257.552 138.968 257.296C138.808 257.093 138.691 256.875 138.616 256.64C138.542 256.395 138.504 256.128 138.504 255.84C138.504 255.488 138.579 255.168 138.728 254.88C138.888 254.581 139.102 254.325 139.368 254.112C139.646 253.888 139.966 253.717 140.328 253.6C140.702 253.483 141.096 253.424 141.512 253.424C141.907 253.424 142.296 253.477 142.68 253.584C143.075 253.691 143.438 253.845 143.768 254.048C144.099 254.251 144.376 254.491 144.6 254.768L143.656 255.808C143.454 255.605 143.23 255.429 142.984 255.28C142.75 255.12 142.51 254.997 142.264 254.912C142.019 254.827 141.795 254.784 141.592 254.784C141.368 254.784 141.166 254.805 140.984 254.848C140.803 254.891 140.648 254.955 140.52 255.04C140.403 255.125 140.312 255.232 140.248 255.36C140.184 255.488 140.152 255.632 140.152 255.792C140.163 255.931 140.195 256.064 140.248 256.192C140.312 256.309 140.398 256.411 140.504 256.496C140.622 256.581 140.798 256.672 141.032 256.768C141.267 256.864 141.566 256.955 141.928 257.04C142.462 257.179 142.899 257.333 143.24 257.504C143.592 257.664 143.87 257.851 144.072 258.064C144.286 258.267 144.435 258.501 144.52 258.768C144.606 259.035 144.648 259.333 144.648 259.664C144.648 260.144 144.51 260.576 144.232 260.96C143.966 261.333 143.603 261.627 143.144 261.84C142.686 262.053 142.174 262.16 141.608 262.16Z" fill="#FAF9F6"/>
<path d="M74.6515 111.717C85.1177 114.973 98.5881 116.498 104.015 116.853C123.397 117.047 164.448 117.474 173.596 117.629C182.744 117.784 200.73 112.848 208.58 110.361C213.458 108.648 224.628 104.875 230.288 103.48C235.947 102.084 237.233 104.061 237.168 105.224L229.028 116.466L200.246 137.689L141.519 143.116L90.254 138.077L62.441 121.408C56.7879 116.014 45.54 105.069 45.7726 104.449C46.0633 103.674 48.9706 103.48 52.2655 104.74C55.5604 106 61.5688 107.647 74.6515 111.717Z" fill="#F09E21"/>
<path d="M136.286 107.744C107.368 107.356 92.9675 124.897 89.3818 133.716L93.8397 140.79C122.912 140.919 181.194 141.1 181.736 140.79C182.279 140.48 185.322 137.883 186.776 136.623L186.638 136.353C174.068 111.692 172.302 108.227 136.286 107.744Z" fill="#FEE593"/>
<path d="M72.3257 125.285C84.1099 134.2 100.688 136.881 107.504 137.107C122.202 137.818 154.64 139.259 166.812 139.336C182.027 139.433 196.66 133.813 208.483 128.676C220.306 123.54 222.923 116.563 231.741 107.259C238.796 99.8168 238.687 106.936 237.75 111.426C223.892 169.572 197.339 200.195 193.075 204.362C189.663 207.696 181.704 209.305 178.151 209.692C165.94 211.631 136.77 212.212 116.516 211.534C100.313 210.991 90.5124 204.395 87.6374 201.164C57.4018 167.149 45.2881 119.179 44.1252 109.585C43.1948 101.91 47.6785 104.578 50.0366 106.872C52.5563 109.294 60.5416 116.369 72.3257 125.285Z" fill="#F8D65B"/>
<path d="M147.915 112.202C155.312 112.04 171.503 115.923 177.085 132.747C170.204 126.512 154.737 113.675 147.915 112.202Z" fill="#FAFEFB"/>
<path d="M125.723 113.946C106.186 116.505 95.7458 129.225 92.9678 135.266L96.7472 137.204L124.269 138.852C118.145 131.874 122.687 119.341 125.723 113.946Z" fill="#F8D65B"/>
<path d="M84.73 169.475C91.9659 174.87 112.33 187.016 135.898 192.443C120.457 195.834 88.6063 195.989 84.73 169.475Z" fill="#FEE593"/>
<path d="M215.266 137.883C139.29 163.777 85.7957 149.899 68.5459 139.724C89.7884 171.743 154.989 170.057 184.934 165.211C189.508 168.855 187.809 188.049 186.387 197.191C207.32 176.957 214.362 149.221 215.266 137.883Z" fill="#F09E21"/>
</svg>
