<svg width="395" height="491" viewBox="0 0 395 491" fill="none" xmlns="http://www.w3.org/2000/svg">
<rect width="394.099" height="490.871" rx="20" fill="#202020" fill-opacity="0.5"/>
<path d="M51.2 73.36C52.4533 73.36 53.76 72.9867 55.12 72.24V68.96C55.12 68.3467 55.0667 67.4533 54.96 66.28C54.0267 66.0133 52.8133 65.7467 51.32 65.48L51.44 64.64C52.0533 64.72 52.64 64.76 53.2 64.76C55.5467 64.76 57.6933 64.1067 59.64 62.8L60 63.52C59.3867 64 58.9067 64.48 58.56 64.96C58.0533 69.6 57.7867 73.9333 57.76 77.96C56.9867 79.3733 55.7067 80.7333 53.92 82.04C52.16 83.3467 50.5467 84 49.08 84C48.68 84 48.3467 83.8933 48.08 83.68C47.8133 83.4667 47.68 83.1733 47.68 82.8C48.4533 82.2133 49.1067 81.5333 49.64 80.76L49.92 80.72C50.5067 81.1733 51.1867 81.4 51.96 81.4C52.7333 81.4 53.2667 81.32 53.56 81.16C54.6533 79.6933 55.2 77.2933 55.2 73.96C53.7333 75.1067 52.1067 75.9867 50.32 76.6C47.12 76.6 44.7067 75.6 43.08 73.6C41.48 71.5733 40.68 68.7867 40.68 65.24C40.68 61.6667 41.6533 58.36 43.6 55.32C45.5733 52.2533 48.2133 50.2667 51.52 49.36C54.2933 49.36 57.08 49.6133 59.88 50.12L59.84 51C59.1733 51 58.5333 51.12 57.92 51.36C57.2 53.04 56.76 54.92 56.6 57H55.6C55.36 55.9067 55.24 54.6667 55.24 53.28C53.9867 52.5867 52.4533 52.24 50.64 52.24C48.8267 52.24 47.3733 52.6933 46.28 53.6C44.92 55.92 44.24 58.8667 44.24 62.44C44.24 69.72 46.56 73.36 51.2 73.36ZM71.7856 76.48C69.1456 76.48 67.0123 75.6533 65.3856 74C63.759 72.32 62.9456 70.08 62.9456 67.28C62.9456 64.48 63.799 61.8533 65.5056 59.4C67.2123 56.9467 69.439 55.3733 72.1856 54.68C74.9323 54.68 77.0256 55.4667 78.4656 57.04C79.9056 58.5867 80.6256 60.8 80.6256 63.68C80.6256 66.56 79.839 69.16 78.2656 71.48C76.719 73.8 74.559 75.4667 71.7856 76.48ZM71.1056 57.12C69.9056 57.12 68.8656 57.4533 67.9856 58.12C66.8923 59.9867 66.3456 62.3333 66.3456 65.16C66.3456 68.4133 67.2523 70.9067 69.0656 72.64C70.0256 73.5733 71.159 74.04 72.4656 74.04C73.7723 74.04 74.8256 73.6933 75.6256 73C76.6923 71.1333 77.2256 68.8533 77.2256 66.16C77.2256 63.4667 76.7456 61.2933 75.7856 59.64C74.8256 57.96 73.2656 57.12 71.1056 57.12ZM98.6803 76.44C96.947 76.1467 94.587 76 91.6003 76C88.6403 76 86.1603 76.1333 84.1603 76.4L84.0403 75.4C84.787 75.1067 85.6403 74.8667 86.6003 74.68C86.867 73.08 87.0003 70.36 87.0003 66.52V64.64C87.0003 61.3333 86.867 58.6133 86.6003 56.48C85.7203 56.3467 84.8803 56.1467 84.0803 55.88L84.2403 54.84C85.6003 55.0533 87.2003 55.16 89.0403 55.16C90.8803 55.16 92.4536 55.0533 93.7603 54.84L93.8803 55.84C92.6803 56.1333 91.4936 56.3467 90.3203 56.48C90.107 57.92 90.0003 60.8933 90.0003 65.4C90.0003 69.88 90.107 72.8667 90.3203 74.36C90.9603 74.4667 91.867 74.52 93.0403 74.52C94.2136 74.52 95.267 74.2933 96.2003 73.84C96.5736 72.9333 96.7603 71.8667 96.7603 70.64H97.7603C97.867 72.6933 98.2403 74.36 98.8803 75.64L98.6803 76.44ZM100.049 55.24L109.249 54.96C112.289 54.96 114.623 55.68 116.249 57.12C117.903 58.56 118.729 60.72 118.729 63.6C118.729 66.4533 117.823 69.12 116.009 71.6C114.223 74.08 111.996 75.7067 109.329 76.48C108.636 76.48 107.729 76.3467 106.609 76.08C105.516 75.84 104.609 75.5733 103.889 75.28C103.596 75.6267 103.329 76.12 103.089 76.76L102.249 76.56C102.756 74.1867 103.009 70.84 103.009 66.52C103.009 62.1733 102.889 58.92 102.649 56.76C101.743 56.4133 100.876 56.24 100.049 56.24V55.24ZM113.809 59.24C113.329 58.3333 112.649 57.6267 111.769 57.12C110.916 56.6133 109.969 56.36 108.929 56.36C107.916 56.36 107.036 56.5067 106.289 56.8C106.103 58.5333 106.009 61.3067 106.009 65.12C106.009 68.9067 106.063 71.5333 106.169 73C107.503 73.6133 108.863 73.92 110.249 73.92C111.663 73.92 112.783 73.56 113.609 72.84C114.623 70.92 115.129 68.56 115.129 65.76C115.129 63.1467 114.689 60.9733 113.809 59.24ZM136.079 51.36C135.786 53.36 135.639 57.0933 135.639 62.56C135.639 68.0267 135.813 72.04 136.159 74.6C137.573 74.7333 139.039 74.9867 140.559 75.36L140.439 76.32C138.466 76.1067 136.319 76 133.999 76C131.706 76 129.853 76.1067 128.439 76.32L128.279 75.32C129.479 74.9467 130.759 74.6667 132.119 74.48C132.413 72.2933 132.559 68.8533 132.559 64.16V61.8C132.559 57.48 132.386 54.04 132.039 51.48C130.679 51.2933 129.399 51.0133 128.199 50.64L128.359 49.64C129.773 49.8533 131.626 49.96 133.919 49.96C136.239 49.96 138.386 49.8533 140.359 49.64L140.479 50.6C138.959 50.9733 137.493 51.2267 136.079 51.36ZM152.196 76.28C150.809 76.0933 149.249 76 147.516 76C145.809 76 144.276 76.1067 142.916 76.32L142.756 75.28C143.609 75.0133 144.409 74.8133 145.156 74.68C145.396 72.6 145.516 69.88 145.516 66.52V64.64C145.516 61.0667 145.383 58.32 145.116 56.4C144.396 56.32 143.529 56.1067 142.516 55.76L142.636 54.72C144.156 55.0133 145.743 55.16 147.396 55.16C149.076 55.16 150.276 55.0667 150.996 54.88L151.076 55.56C150.356 55.7467 149.996 56.0533 149.996 56.48C149.996 56.8 150.303 57.48 150.916 58.52C151.556 59.5333 152.169 60.52 152.756 61.48C154.516 64.28 156.596 67.72 158.996 71.8L159.116 71.72V66.84C159.116 63.2667 158.929 60.5867 158.556 58.8C158.183 56.9867 157.543 55.9333 156.636 55.64L156.716 54.96C157.409 55.0933 158.449 55.16 159.836 55.16C161.223 55.16 162.649 55.0133 164.116 54.72L164.236 55.76C163.143 56.1067 162.223 56.32 161.476 56.4C161.209 58.5333 161.076 61.28 161.076 64.64V66.52C161.076 70.5733 161.209 73.32 161.476 74.76C162.596 74.9467 163.489 75.16 164.156 75.4L164.036 76.44C162.703 76.1467 161.449 76 160.276 76C159.103 76 158.196 76.0533 157.556 76.16C157.556 75.5733 157.143 74.5867 156.316 73.2C155.516 71.8133 154.783 70.5867 154.116 69.52C151.956 66.0267 149.836 62.48 147.756 58.88L147.596 58.96V64.32C147.596 69.6267 147.996 73.08 148.796 74.68C149.996 74.8133 151.169 75.0133 152.316 75.28L152.196 76.28ZM176.518 73.68C177.664 73.68 178.798 73.3467 179.918 72.68L179.718 68.4C178.971 68.16 178.064 67.9467 176.998 67.76L177.118 66.92C177.758 66.9733 178.224 67 178.518 67C180.358 67 182.024 66.5067 183.518 65.52L183.918 66.24C183.598 66.5333 183.304 66.84 183.038 67.16C182.664 70.7867 182.424 73.7733 182.318 76.12H181.478C181.264 75.1333 180.944 74.32 180.518 73.68C178.971 75.04 177.411 75.9733 175.838 76.48C173.251 76.48 171.224 75.6667 169.758 74.04C168.291 72.3867 167.558 70.1733 167.558 67.4C167.558 64.6 168.424 61.9733 170.158 59.52C171.891 57.0667 174.104 55.4533 176.798 54.68C178.744 54.68 180.944 54.88 183.398 55.28L183.358 56.16C182.851 56.16 182.371 56.2533 181.918 56.44C181.411 57.64 181.078 59.0667 180.918 60.72H179.918C179.704 59.8133 179.598 58.88 179.598 57.92C178.584 57.4133 177.384 57.16 175.998 57.16C174.611 57.16 173.464 57.5333 172.558 58.28C171.491 60.2267 170.958 62.5333 170.958 65.2C170.958 67.84 171.344 69.92 172.118 71.44C172.918 72.9333 174.384 73.68 176.518 73.68ZM195.965 76.48C193.325 76.48 191.192 75.6533 189.565 74C187.939 72.32 187.125 70.08 187.125 67.28C187.125 64.48 187.979 61.8533 189.685 59.4C191.392 56.9467 193.619 55.3733 196.365 54.68C199.112 54.68 201.205 55.4667 202.645 57.04C204.085 58.5867 204.805 60.8 204.805 63.68C204.805 66.56 204.019 69.16 202.445 71.48C200.899 73.8 198.739 75.4667 195.965 76.48ZM195.285 57.12C194.085 57.12 193.045 57.4533 192.165 58.12C191.072 59.9867 190.525 62.3333 190.525 65.16C190.525 68.4133 191.432 70.9067 193.245 72.64C194.205 73.5733 195.339 74.04 196.645 74.04C197.952 74.04 199.005 73.6933 199.805 73C200.872 71.1333 201.405 68.8533 201.405 66.16C201.405 63.4667 200.925 61.2933 199.965 59.64C199.005 57.96 197.445 57.12 195.285 57.12ZM221.3 57.32C220.367 56.8667 219.473 56.64 218.62 56.64C217.767 56.64 217.193 56.6933 216.9 56.8C216.687 58.24 216.58 61.0267 216.58 65.16C216.58 69.2933 216.727 72.4667 217.02 74.68C218.22 74.8133 219.327 75.0133 220.34 75.28L220.22 76.28C218.833 76.0933 217.233 76 215.42 76C213.633 76 212.06 76.1067 210.7 76.32L210.54 75.28C211.073 75.12 211.993 74.92 213.3 74.68C213.54 72.76 213.66 70.04 213.66 66.52V64.64C213.66 62.7733 213.513 60.16 213.22 56.8C212.927 56.6933 212.38 56.64 211.58 56.64C210.78 56.64 209.927 56.8267 209.02 57.2C208.753 58.0267 208.567 59.1333 208.46 60.52H207.42C207.42 58.3333 207.06 56.64 206.34 55.44L206.54 54.76C208.593 55.0267 211.473 55.16 215.18 55.16C218.887 55.16 221.873 55.0133 224.14 54.72L224.38 55.48C223.713 56.2267 223.26 56.96 223.02 57.68C222.78 58.3733 222.633 59.32 222.58 60.52H221.58C221.393 59.64 221.3 58.5733 221.3 57.32Z" fill="#FAF9F6"/>
<path d="M40.3495 379.36V377.2H52.3735V379.36H40.3495ZM45.0775 383.992V372.4H47.5975V383.992H45.0775ZM59.4732 385.24C58.2892 385.24 57.2572 384.968 56.3772 384.424C55.5132 383.88 54.6972 382.968 53.9292 381.688L55.9452 380.416C56.3452 381.008 56.7372 381.496 57.1212 381.88C57.5212 382.248 57.9292 382.52 58.3452 382.696C58.7612 382.872 59.2012 382.96 59.6652 382.96C60.2252 382.96 60.7452 382.824 61.2252 382.552C61.7052 382.264 62.0892 381.872 62.3772 381.376C62.6652 380.88 62.8092 380.32 62.8092 379.696C62.8092 379.072 62.6972 378.544 62.4732 378.112C62.2492 377.664 61.9212 377.328 61.4892 377.104C61.0572 376.864 60.5452 376.744 59.9532 376.744C59.6812 376.744 59.3932 376.776 59.0892 376.84C58.8012 376.888 58.4892 376.968 58.1532 377.08C57.8172 377.176 57.4492 377.304 57.0492 377.464L56.3292 375.568L61.5132 369.856L62.0172 370.6H54.8652V368.2H64.4892L64.9692 369.16L59.4732 375.256L58.8732 374.632C59.0012 374.568 59.2092 374.512 59.4972 374.464C59.8012 374.4 60.0492 374.368 60.2412 374.368C60.9452 374.368 61.6012 374.504 62.2092 374.776C62.8332 375.032 63.3692 375.4 63.8172 375.88C64.2812 376.344 64.6412 376.896 64.8972 377.536C65.1692 378.16 65.3052 378.832 65.3052 379.552C65.3052 380.64 65.0412 381.616 64.5132 382.48C64.0012 383.328 63.3052 384 62.4252 384.496C61.5452 384.992 60.5612 385.24 59.4732 385.24ZM74.5589 385V372.4H77.0549V375.088L76.5989 375.376C76.7269 374.96 76.9269 374.56 77.1989 374.176C77.4869 373.792 77.8309 373.456 78.2309 373.168C78.6469 372.864 79.0869 372.624 79.5509 372.448C80.0309 372.272 80.5189 372.184 81.0149 372.184C81.7349 372.184 82.3669 372.304 82.9109 372.544C83.4549 372.784 83.9029 373.144 84.2549 373.624C84.6069 374.104 84.8629 374.704 85.0229 375.424L84.6389 375.328L84.8069 374.92C84.9829 374.552 85.2229 374.208 85.5269 373.888C85.8469 373.552 86.2069 373.256 86.6069 373C87.0069 372.744 87.4309 372.544 87.8789 372.4C88.3269 372.256 88.7669 372.184 89.1989 372.184C90.1429 372.184 90.9189 372.376 91.5269 372.76C92.1509 373.144 92.6149 373.728 92.9189 374.512C93.2389 375.296 93.3989 376.272 93.3989 377.44V385H90.9029V377.584C90.9029 376.864 90.8069 376.28 90.6149 375.832C90.4389 375.368 90.1669 375.024 89.7989 374.8C89.4309 374.576 88.9589 374.464 88.3829 374.464C87.9349 374.464 87.5109 374.544 87.1109 374.704C86.7269 374.848 86.3909 375.056 86.1029 375.328C85.8149 375.6 85.5909 375.92 85.4309 376.288C85.2709 376.64 85.1909 377.032 85.1909 377.464V385H82.6949V377.536C82.6949 376.88 82.5989 376.328 82.4069 375.88C82.2149 375.416 81.9349 375.064 81.5669 374.824C81.1989 374.584 80.7509 374.464 80.2229 374.464C79.7749 374.464 79.3589 374.544 78.9749 374.704C78.5909 374.848 78.2549 375.056 77.9669 375.328C77.6789 375.584 77.4549 375.896 77.2949 376.264C77.1349 376.616 77.0549 377 77.0549 377.416V385H74.5589ZM101.556 385.24C100.516 385.24 99.5645 384.952 98.7005 384.376C97.8525 383.8 97.1725 383.016 96.6605 382.024C96.1485 381.032 95.8925 379.912 95.8925 378.664C95.8925 377.4 96.1485 376.28 96.6605 375.304C97.1885 374.312 97.8925 373.536 98.7725 372.976C99.6685 372.416 100.668 372.136 101.772 372.136C102.428 372.136 103.028 372.232 103.572 372.424C104.116 372.616 104.588 372.888 104.988 373.24C105.404 373.576 105.74 373.968 105.996 374.416C106.268 374.864 106.436 375.344 106.5 375.856L105.948 375.664V372.4H108.444V385H105.948V382L106.524 381.832C106.428 382.264 106.228 382.688 105.924 383.104C105.636 383.504 105.26 383.864 104.796 384.184C104.348 384.504 103.844 384.76 103.284 384.952C102.74 385.144 102.164 385.24 101.556 385.24ZM102.204 382.96C102.956 382.96 103.62 382.776 104.196 382.408C104.772 382.04 105.22 381.536 105.54 380.896C105.876 380.24 106.044 379.496 106.044 378.664C106.044 377.848 105.876 377.12 105.54 376.48C105.22 375.84 104.772 375.336 104.196 374.968C103.62 374.6 102.956 374.416 102.204 374.416C101.468 374.416 100.812 374.6 100.236 374.968C99.6765 375.336 99.2285 375.84 98.8925 376.48C98.5725 377.12 98.4125 377.848 98.4125 378.664C98.4125 379.496 98.5725 380.24 98.8925 380.896C99.2285 381.536 99.6765 382.04 100.236 382.408C100.812 382.776 101.468 382.96 102.204 382.96ZM117.536 390.52C116.64 390.52 115.744 390.376 114.848 390.088C113.968 389.816 113.256 389.456 112.712 389.008L113.624 387.088C113.944 387.328 114.32 387.536 114.752 387.712C115.184 387.904 115.64 388.048 116.12 388.144C116.6 388.256 117.072 388.312 117.536 388.312C118.416 388.312 119.152 388.168 119.744 387.88C120.336 387.592 120.784 387.168 121.088 386.608C121.392 386.048 121.544 385.352 121.544 384.52V382.096L121.808 382.264C121.728 382.76 121.464 383.24 121.016 383.704C120.584 384.152 120.04 384.52 119.384 384.808C118.728 385.096 118.056 385.24 117.368 385.24C116.168 385.24 115.096 384.96 114.152 384.4C113.224 383.824 112.488 383.048 111.944 382.072C111.4 381.08 111.128 379.952 111.128 378.688C111.128 377.424 111.392 376.304 111.92 375.328C112.464 374.336 113.2 373.56 114.128 373C115.072 372.424 116.128 372.136 117.296 372.136C117.776 372.136 118.24 372.2 118.688 372.328C119.136 372.44 119.552 372.608 119.936 372.832C120.32 373.04 120.664 373.272 120.968 373.528C121.272 373.784 121.52 374.056 121.712 374.344C121.904 374.632 122.024 374.904 122.072 375.16L121.544 375.352V372.4H124.016V384.232C124.016 385.24 123.864 386.128 123.56 386.896C123.272 387.68 122.848 388.336 122.288 388.864C121.728 389.408 121.048 389.816 120.248 390.088C119.448 390.376 118.544 390.52 117.536 390.52ZM117.632 382.96C118.416 382.96 119.112 382.776 119.72 382.408C120.328 382.04 120.8 381.536 121.136 380.896C121.472 380.256 121.64 379.52 121.64 378.688C121.64 377.856 121.464 377.12 121.112 376.48C120.776 375.824 120.304 375.312 119.696 374.944C119.104 374.576 118.416 374.392 117.632 374.392C116.864 374.392 116.176 374.584 115.568 374.968C114.976 375.336 114.504 375.848 114.152 376.504C113.816 377.144 113.648 377.872 113.648 378.688C113.648 379.504 113.816 380.24 114.152 380.896C114.504 381.536 114.976 382.04 115.568 382.408C116.176 382.776 116.864 382.96 117.632 382.96ZM127.89 385V372.4H130.362V385H127.89ZM129.09 369.616C128.562 369.616 128.154 369.48 127.866 369.208C127.578 368.936 127.434 368.552 127.434 368.056C127.434 367.592 127.578 367.216 127.866 366.928C128.17 366.64 128.578 366.496 129.09 366.496C129.618 366.496 130.026 366.632 130.314 366.904C130.602 367.176 130.746 367.56 130.746 368.056C130.746 368.52 130.594 368.896 130.29 369.184C130.002 369.472 129.602 369.616 129.09 369.616ZM139.514 385.24C138.346 385.24 137.298 384.952 136.37 384.376C135.458 383.8 134.73 383.016 134.186 382.024C133.658 381.032 133.394 379.92 133.394 378.688C133.394 377.456 133.658 376.344 134.186 375.352C134.73 374.36 135.458 373.576 136.37 373C137.298 372.424 138.346 372.136 139.514 372.136C140.634 372.136 141.65 372.368 142.562 372.832C143.49 373.28 144.194 373.896 144.674 374.68L143.306 376.36C143.05 375.992 142.722 375.656 142.322 375.352C141.922 375.048 141.498 374.808 141.05 374.632C140.602 374.456 140.17 374.368 139.754 374.368C138.986 374.368 138.298 374.56 137.69 374.944C137.098 375.312 136.626 375.824 136.274 376.48C135.922 377.136 135.746 377.872 135.746 378.688C135.746 379.504 135.93 380.24 136.298 380.896C136.666 381.536 137.154 382.048 137.762 382.432C138.37 382.816 139.042 383.008 139.778 383.008C140.21 383.008 140.626 382.936 141.026 382.792C141.442 382.648 141.842 382.432 142.226 382.144C142.61 381.856 142.97 381.504 143.306 381.088L144.674 382.768C144.162 383.488 143.426 384.08 142.466 384.544C141.522 385.008 140.538 385.24 139.514 385.24ZM159.372 390.52C158.476 390.52 157.58 390.376 156.684 390.088C155.804 389.816 155.092 389.456 154.548 389.008L155.46 387.088C155.78 387.328 156.156 387.536 156.588 387.712C157.02 387.904 157.476 388.048 157.956 388.144C158.436 388.256 158.908 388.312 159.372 388.312C160.252 388.312 160.988 388.168 161.58 387.88C162.172 387.592 162.62 387.168 162.924 386.608C163.228 386.048 163.38 385.352 163.38 384.52V382.096L163.644 382.264C163.564 382.76 163.3 383.24 162.852 383.704C162.42 384.152 161.876 384.52 161.22 384.808C160.564 385.096 159.892 385.24 159.204 385.24C158.004 385.24 156.932 384.96 155.988 384.4C155.06 383.824 154.324 383.048 153.78 382.072C153.236 381.08 152.964 379.952 152.964 378.688C152.964 377.424 153.228 376.304 153.756 375.328C154.3 374.336 155.036 373.56 155.964 373C156.908 372.424 157.964 372.136 159.132 372.136C159.612 372.136 160.076 372.2 160.524 372.328C160.972 372.44 161.388 372.608 161.772 372.832C162.156 373.04 162.5 373.272 162.804 373.528C163.108 373.784 163.356 374.056 163.548 374.344C163.74 374.632 163.86 374.904 163.908 375.16L163.38 375.352V372.4H165.852V384.232C165.852 385.24 165.7 386.128 165.396 386.896C165.108 387.68 164.684 388.336 164.124 388.864C163.564 389.408 162.884 389.816 162.084 390.088C161.284 390.376 160.38 390.52 159.372 390.52ZM159.468 382.96C160.252 382.96 160.948 382.776 161.556 382.408C162.164 382.04 162.636 381.536 162.972 380.896C163.308 380.256 163.476 379.52 163.476 378.688C163.476 377.856 163.3 377.12 162.948 376.48C162.612 375.824 162.14 375.312 161.532 374.944C160.94 374.576 160.252 374.392 159.468 374.392C158.7 374.392 158.012 374.584 157.404 374.968C156.812 375.336 156.34 375.848 155.988 376.504C155.652 377.144 155.484 377.872 155.484 378.688C155.484 379.504 155.652 380.24 155.988 380.896C156.34 381.536 156.812 382.04 157.404 382.408C158.012 382.776 158.7 382.96 159.468 382.96ZM175.198 385.24C173.902 385.24 172.75 384.968 171.742 384.424C170.75 383.864 169.966 383.104 169.39 382.144C168.83 381.184 168.55 380.08 168.55 378.832C168.55 377.84 168.71 376.936 169.03 376.12C169.35 375.304 169.79 374.6 170.35 374.008C170.926 373.4 171.606 372.936 172.39 372.616C173.19 372.28 174.054 372.112 174.982 372.112C175.798 372.112 176.558 372.272 177.262 372.592C177.966 372.896 178.574 373.32 179.086 373.864C179.614 374.408 180.014 375.056 180.286 375.808C180.574 376.544 180.71 377.352 180.694 378.232L180.67 379.288H170.374L169.822 377.32H178.534L178.174 377.728V377.152C178.126 376.624 177.95 376.152 177.646 375.736C177.342 375.32 176.958 374.992 176.494 374.752C176.03 374.512 175.526 374.392 174.982 374.392C174.118 374.392 173.39 374.56 172.798 374.896C172.206 375.216 171.758 375.696 171.454 376.336C171.15 376.96 170.998 377.736 170.998 378.664C170.998 379.544 171.182 380.312 171.55 380.968C171.918 381.608 172.438 382.104 173.11 382.456C173.782 382.808 174.558 382.984 175.438 382.984C176.062 382.984 176.638 382.88 177.166 382.672C177.71 382.464 178.294 382.088 178.918 381.544L180.166 383.296C179.782 383.68 179.31 384.016 178.75 384.304C178.206 384.592 177.622 384.824 176.998 385C176.39 385.16 175.79 385.24 175.198 385.24ZM183.332 385V372.4H185.828V375.088L185.372 375.376C185.5 374.96 185.7 374.56 185.972 374.176C186.26 373.792 186.604 373.456 187.004 373.168C187.42 372.864 187.86 372.624 188.324 372.448C188.804 372.272 189.292 372.184 189.788 372.184C190.508 372.184 191.14 372.304 191.684 372.544C192.228 372.784 192.676 373.144 193.028 373.624C193.38 374.104 193.636 374.704 193.796 375.424L193.412 375.328L193.58 374.92C193.756 374.552 193.996 374.208 194.3 373.888C194.62 373.552 194.98 373.256 195.38 373C195.78 372.744 196.204 372.544 196.652 372.4C197.1 372.256 197.54 372.184 197.972 372.184C198.916 372.184 199.692 372.376 200.3 372.76C200.924 373.144 201.388 373.728 201.692 374.512C202.012 375.296 202.172 376.272 202.172 377.44V385H199.676V377.584C199.676 376.864 199.58 376.28 199.388 375.832C199.212 375.368 198.94 375.024 198.572 374.8C198.204 374.576 197.732 374.464 197.156 374.464C196.708 374.464 196.284 374.544 195.884 374.704C195.5 374.848 195.164 375.056 194.876 375.328C194.588 375.6 194.364 375.92 194.204 376.288C194.044 376.64 193.964 377.032 193.964 377.464V385H191.468V377.536C191.468 376.88 191.372 376.328 191.18 375.88C190.988 375.416 190.708 375.064 190.34 374.824C189.972 374.584 189.524 374.464 188.996 374.464C188.548 374.464 188.132 374.544 187.748 374.704C187.364 374.848 187.028 375.056 186.74 375.328C186.452 375.584 186.228 375.896 186.068 376.264C185.908 376.616 185.828 377 185.828 377.416V385H183.332ZM209.682 385.24C208.626 385.24 207.674 385.056 206.826 384.688C205.978 384.32 205.274 383.776 204.714 383.056L206.394 381.616C206.874 382.176 207.394 382.584 207.954 382.84C208.53 383.08 209.178 383.2 209.898 383.2C210.186 383.2 210.45 383.168 210.69 383.104C210.946 383.024 211.162 382.912 211.338 382.768C211.53 382.624 211.674 382.456 211.77 382.264C211.866 382.056 211.914 381.832 211.914 381.592C211.914 381.176 211.762 380.84 211.458 380.584C211.298 380.472 211.042 380.352 210.69 380.224C210.354 380.08 209.914 379.936 209.37 379.792C208.442 379.552 207.682 379.28 207.09 378.976C206.498 378.672 206.042 378.328 205.722 377.944C205.482 377.64 205.306 377.312 205.194 376.96C205.082 376.592 205.026 376.192 205.026 375.76C205.026 375.232 205.138 374.752 205.362 374.32C205.602 373.872 205.922 373.488 206.322 373.168C206.738 372.832 207.218 372.576 207.762 372.4C208.322 372.224 208.914 372.136 209.538 372.136C210.13 372.136 210.714 372.216 211.29 372.376C211.882 372.536 212.426 372.768 212.922 373.072C213.418 373.376 213.834 373.736 214.17 374.152L212.754 375.712C212.45 375.408 212.114 375.144 211.746 374.92C211.394 374.68 211.034 374.496 210.666 374.368C210.298 374.24 209.962 374.176 209.658 374.176C209.322 374.176 209.018 374.208 208.746 374.272C208.474 374.336 208.242 374.432 208.05 374.56C207.874 374.688 207.738 374.848 207.642 375.04C207.546 375.232 207.498 375.448 207.498 375.688C207.514 375.896 207.562 376.096 207.642 376.288C207.738 376.464 207.866 376.616 208.026 376.744C208.202 376.872 208.466 377.008 208.818 377.152C209.17 377.296 209.618 377.432 210.162 377.56C210.962 377.768 211.618 378 212.13 378.256C212.658 378.496 213.074 378.776 213.378 379.096C213.698 379.4 213.922 379.752 214.05 380.152C214.178 380.552 214.242 381 214.242 381.496C214.242 382.216 214.034 382.864 213.618 383.44C213.218 384 212.674 384.44 211.986 384.76C211.298 385.08 210.53 385.24 209.682 385.24Z" fill="#FAF9F6"/>
<path d="M102.765 167.162C117.367 171.705 136.161 173.833 143.733 174.328C170.774 174.599 228.048 175.194 240.812 175.41C253.575 175.626 278.67 168.74 289.622 165.269C296.427 162.881 312.012 157.617 319.908 155.67C327.804 153.723 329.598 156.481 329.508 158.103L318.15 173.787L277.994 203.398L196.058 210.97L124.533 203.939L85.7284 180.683C77.8413 173.157 62.1482 157.887 62.4727 157.022C62.8784 155.94 66.9346 155.67 71.5316 157.427C76.1287 159.185 84.5116 161.484 102.765 167.162Z" fill="#F09E21"/>
<path d="M188.757 161.619C148.411 161.078 128.319 185.55 123.316 197.854L129.536 207.724C170.098 207.905 251.412 208.157 252.169 207.724C252.926 207.292 257.172 203.668 259.2 201.911L259.008 201.533C241.471 167.127 239.006 162.292 188.757 161.619Z" fill="#FEE593"/>
<path d="M99.5201 186.091C115.961 198.53 139.091 202.271 148.6 202.587C169.107 203.578 214.365 205.588 231.348 205.696C252.575 205.832 272.992 197.99 289.487 190.824C305.982 183.658 309.633 173.923 321.937 160.943C331.78 150.559 331.627 160.492 330.32 166.757C310.985 247.881 273.938 290.607 267.989 296.421C263.23 301.072 252.124 303.316 247.167 303.857C230.131 306.561 189.433 307.373 161.175 306.426C138.568 305.669 124.894 296.466 120.883 291.959C78.6981 244.501 61.7971 177.573 60.1746 164.188C58.8766 153.479 65.1323 157.202 68.4223 160.402C71.9377 163.782 83.0788 173.652 99.5201 186.091Z" fill="#F8D65B"/>
<path d="M204.982 167.838C215.303 167.613 237.892 173.03 245.68 196.502C236.08 187.804 214.501 169.894 204.982 167.838Z" fill="#FAFEFB"/>
<path d="M174.02 170.272C146.762 173.841 132.195 191.59 128.319 200.018L133.592 202.722L171.991 205.02C163.446 195.285 169.783 177.799 174.02 170.272Z" fill="#F8D65B"/>
<path d="M116.827 247.746C126.923 255.273 155.334 272.219 188.217 279.79C166.674 284.523 122.235 284.739 116.827 247.746Z" fill="#FEE593"/>
<path d="M298.95 203.668C192.948 239.796 118.313 220.434 94.2461 206.237C123.884 250.91 214.851 248.557 256.63 241.797C263.012 246.881 260.642 273.661 258.659 286.416C287.863 258.184 297.689 219.488 298.95 203.668Z" fill="#F09E21"/>
</svg>
