<svg width="395" height="491" viewBox="0 0 395 491" fill="none" xmlns="http://www.w3.org/2000/svg">
<rect width="394.099" height="490.871" rx="20" fill="#202020" fill-opacity="0.5"/>
<path d="M51.2 73.36C52.4533 73.36 53.76 72.9867 55.12 72.24V68.96C55.12 68.3467 55.0667 67.4533 54.96 66.28C54.0267 66.0133 52.8133 65.7467 51.32 65.48L51.44 64.64C52.0533 64.72 52.64 64.76 53.2 64.76C55.5467 64.76 57.6933 64.1067 59.64 62.8L60 63.52C59.3867 64 58.9067 64.48 58.56 64.96C58.0533 69.6 57.7867 73.9333 57.76 77.96C56.9867 79.3733 55.7067 80.7333 53.92 82.04C52.16 83.3467 50.5467 84 49.08 84C48.68 84 48.3467 83.8933 48.08 83.68C47.8133 83.4667 47.68 83.1733 47.68 82.8C48.4533 82.2133 49.1067 81.5333 49.64 80.76L49.92 80.72C50.5067 81.1733 51.1867 81.4 51.96 81.4C52.7333 81.4 53.2667 81.32 53.56 81.16C54.6533 79.6933 55.2 77.2933 55.2 73.96C53.7333 75.1067 52.1067 75.9867 50.32 76.6C47.12 76.6 44.7067 75.6 43.08 73.6C41.48 71.5733 40.68 68.7867 40.68 65.24C40.68 61.6667 41.6533 58.36 43.6 55.32C45.5733 52.2533 48.2133 50.2667 51.52 49.36C54.2933 49.36 57.08 49.6133 59.88 50.12L59.84 51C59.1733 51 58.5333 51.12 57.92 51.36C57.2 53.04 56.76 54.92 56.6 57H55.6C55.36 55.9067 55.24 54.6667 55.24 53.28C53.9867 52.5867 52.4533 52.24 50.64 52.24C48.8267 52.24 47.3733 52.6933 46.28 53.6C44.92 55.92 44.24 58.8667 44.24 62.44C44.24 69.72 46.56 73.36 51.2 73.36ZM71.7856 76.48C69.1456 76.48 67.0123 75.6533 65.3856 74C63.759 72.32 62.9456 70.08 62.9456 67.28C62.9456 64.48 63.799 61.8533 65.5056 59.4C67.2123 56.9467 69.439 55.3733 72.1856 54.68C74.9323 54.68 77.0256 55.4667 78.4656 57.04C79.9056 58.5867 80.6256 60.8 80.6256 63.68C80.6256 66.56 79.839 69.16 78.2656 71.48C76.719 73.8 74.559 75.4667 71.7856 76.48ZM71.1056 57.12C69.9056 57.12 68.8656 57.4533 67.9856 58.12C66.8923 59.9867 66.3456 62.3333 66.3456 65.16C66.3456 68.4133 67.2523 70.9067 69.0656 72.64C70.0256 73.5733 71.159 74.04 72.4656 74.04C73.7723 74.04 74.8256 73.6933 75.6256 73C76.6923 71.1333 77.2256 68.8533 77.2256 66.16C77.2256 63.4667 76.7456 61.2933 75.7856 59.64C74.8256 57.96 73.2656 57.12 71.1056 57.12ZM98.6803 76.44C96.947 76.1467 94.587 76 91.6003 76C88.6403 76 86.1603 76.1333 84.1603 76.4L84.0403 75.4C84.787 75.1067 85.6403 74.8667 86.6003 74.68C86.867 73.08 87.0003 70.36 87.0003 66.52V64.64C87.0003 61.3333 86.867 58.6133 86.6003 56.48C85.7203 56.3467 84.8803 56.1467 84.0803 55.88L84.2403 54.84C85.6003 55.0533 87.2003 55.16 89.0403 55.16C90.8803 55.16 92.4536 55.0533 93.7603 54.84L93.8803 55.84C92.6803 56.1333 91.4936 56.3467 90.3203 56.48C90.107 57.92 90.0003 60.8933 90.0003 65.4C90.0003 69.88 90.107 72.8667 90.3203 74.36C90.9603 74.4667 91.867 74.52 93.0403 74.52C94.2136 74.52 95.267 74.2933 96.2003 73.84C96.5736 72.9333 96.7603 71.8667 96.7603 70.64H97.7603C97.867 72.6933 98.2403 74.36 98.8803 75.64L98.6803 76.44ZM100.049 55.24L109.249 54.96C112.289 54.96 114.623 55.68 116.249 57.12C117.903 58.56 118.729 60.72 118.729 63.6C118.729 66.4533 117.823 69.12 116.009 71.6C114.223 74.08 111.996 75.7067 109.329 76.48C108.636 76.48 107.729 76.3467 106.609 76.08C105.516 75.84 104.609 75.5733 103.889 75.28C103.596 75.6267 103.329 76.12 103.089 76.76L102.249 76.56C102.756 74.1867 103.009 70.84 103.009 66.52C103.009 62.1733 102.889 58.92 102.649 56.76C101.743 56.4133 100.876 56.24 100.049 56.24V55.24ZM113.809 59.24C113.329 58.3333 112.649 57.6267 111.769 57.12C110.916 56.6133 109.969 56.36 108.929 56.36C107.916 56.36 107.036 56.5067 106.289 56.8C106.103 58.5333 106.009 61.3067 106.009 65.12C106.009 68.9067 106.063 71.5333 106.169 73C107.503 73.6133 108.863 73.92 110.249 73.92C111.663 73.92 112.783 73.56 113.609 72.84C114.623 70.92 115.129 68.56 115.129 65.76C115.129 63.1467 114.689 60.9733 113.809 59.24ZM136.079 51.36C135.786 53.36 135.639 57.0933 135.639 62.56C135.639 68.0267 135.813 72.04 136.159 74.6C137.573 74.7333 139.039 74.9867 140.559 75.36L140.439 76.32C138.466 76.1067 136.319 76 133.999 76C131.706 76 129.853 76.1067 128.439 76.32L128.279 75.32C129.479 74.9467 130.759 74.6667 132.119 74.48C132.413 72.2933 132.559 68.8533 132.559 64.16V61.8C132.559 57.48 132.386 54.04 132.039 51.48C130.679 51.2933 129.399 51.0133 128.199 50.64L128.359 49.64C129.773 49.8533 131.626 49.96 133.919 49.96C136.239 49.96 138.386 49.8533 140.359 49.64L140.479 50.6C138.959 50.9733 137.493 51.2267 136.079 51.36ZM152.196 76.28C150.809 76.0933 149.249 76 147.516 76C145.809 76 144.276 76.1067 142.916 76.32L142.756 75.28C143.609 75.0133 144.409 74.8133 145.156 74.68C145.396 72.6 145.516 69.88 145.516 66.52V64.64C145.516 61.0667 145.383 58.32 145.116 56.4C144.396 56.32 143.529 56.1067 142.516 55.76L142.636 54.72C144.156 55.0133 145.743 55.16 147.396 55.16C149.076 55.16 150.276 55.0667 150.996 54.88L151.076 55.56C150.356 55.7467 149.996 56.0533 149.996 56.48C149.996 56.8 150.303 57.48 150.916 58.52C151.556 59.5333 152.169 60.52 152.756 61.48C154.516 64.28 156.596 67.72 158.996 71.8L159.116 71.72V66.84C159.116 63.2667 158.929 60.5867 158.556 58.8C158.183 56.9867 157.543 55.9333 156.636 55.64L156.716 54.96C157.409 55.0933 158.449 55.16 159.836 55.16C161.223 55.16 162.649 55.0133 164.116 54.72L164.236 55.76C163.143 56.1067 162.223 56.32 161.476 56.4C161.209 58.5333 161.076 61.28 161.076 64.64V66.52C161.076 70.5733 161.209 73.32 161.476 74.76C162.596 74.9467 163.489 75.16 164.156 75.4L164.036 76.44C162.703 76.1467 161.449 76 160.276 76C159.103 76 158.196 76.0533 157.556 76.16C157.556 75.5733 157.143 74.5867 156.316 73.2C155.516 71.8133 154.783 70.5867 154.116 69.52C151.956 66.0267 149.836 62.48 147.756 58.88L147.596 58.96V64.32C147.596 69.6267 147.996 73.08 148.796 74.68C149.996 74.8133 151.169 75.0133 152.316 75.28L152.196 76.28ZM176.518 73.68C177.664 73.68 178.798 73.3467 179.918 72.68L179.718 68.4C178.971 68.16 178.064 67.9467 176.998 67.76L177.118 66.92C177.758 66.9733 178.224 67 178.518 67C180.358 67 182.024 66.5067 183.518 65.52L183.918 66.24C183.598 66.5333 183.304 66.84 183.038 67.16C182.664 70.7867 182.424 73.7733 182.318 76.12H181.478C181.264 75.1333 180.944 74.32 180.518 73.68C178.971 75.04 177.411 75.9733 175.838 76.48C173.251 76.48 171.224 75.6667 169.758 74.04C168.291 72.3867 167.558 70.1733 167.558 67.4C167.558 64.6 168.424 61.9733 170.158 59.52C171.891 57.0667 174.104 55.4533 176.798 54.68C178.744 54.68 180.944 54.88 183.398 55.28L183.358 56.16C182.851 56.16 182.371 56.2533 181.918 56.44C181.411 57.64 181.078 59.0667 180.918 60.72H179.918C179.704 59.8133 179.598 58.88 179.598 57.92C178.584 57.4133 177.384 57.16 175.998 57.16C174.611 57.16 173.464 57.5333 172.558 58.28C171.491 60.2267 170.958 62.5333 170.958 65.2C170.958 67.84 171.344 69.92 172.118 71.44C172.918 72.9333 174.384 73.68 176.518 73.68ZM195.965 76.48C193.325 76.48 191.192 75.6533 189.565 74C187.939 72.32 187.125 70.08 187.125 67.28C187.125 64.48 187.979 61.8533 189.685 59.4C191.392 56.9467 193.619 55.3733 196.365 54.68C199.112 54.68 201.205 55.4667 202.645 57.04C204.085 58.5867 204.805 60.8 204.805 63.68C204.805 66.56 204.019 69.16 202.445 71.48C200.899 73.8 198.739 75.4667 195.965 76.48ZM195.285 57.12C194.085 57.12 193.045 57.4533 192.165 58.12C191.072 59.9867 190.525 62.3333 190.525 65.16C190.525 68.4133 191.432 70.9067 193.245 72.64C194.205 73.5733 195.339 74.04 196.645 74.04C197.952 74.04 199.005 73.6933 199.805 73C200.872 71.1333 201.405 68.8533 201.405 66.16C201.405 63.4667 200.925 61.2933 199.965 59.64C199.005 57.96 197.445 57.12 195.285 57.12ZM221.3 57.32C220.367 56.8667 219.473 56.64 218.62 56.64C217.767 56.64 217.193 56.6933 216.9 56.8C216.687 58.24 216.58 61.0267 216.58 65.16C216.58 69.2933 216.727 72.4667 217.02 74.68C218.22 74.8133 219.327 75.0133 220.34 75.28L220.22 76.28C218.833 76.0933 217.233 76 215.42 76C213.633 76 212.06 76.1067 210.7 76.32L210.54 75.28C211.073 75.12 211.993 74.92 213.3 74.68C213.54 72.76 213.66 70.04 213.66 66.52V64.64C213.66 62.7733 213.513 60.16 213.22 56.8C212.927 56.6933 212.38 56.64 211.58 56.64C210.78 56.64 209.927 56.8267 209.02 57.2C208.753 58.0267 208.567 59.1333 208.46 60.52H207.42C207.42 58.3333 207.06 56.64 206.34 55.44L206.54 54.76C208.593 55.0267 211.473 55.16 215.18 55.16C218.887 55.16 221.873 55.0133 224.14 54.72L224.38 55.48C223.713 56.2267 223.26 56.96 223.02 57.68C222.78 58.3733 222.633 59.32 222.58 60.52H221.58C221.393 59.64 221.3 58.5733 221.3 57.32Z" fill="#FAF9F6"/>
<path d="M40.3495 374.36V372.2H52.3735V374.36H40.3495ZM45.0775 378.992V367.4H47.5975V378.992H45.0775ZM59.4732 380.24C58.2892 380.24 57.2572 379.968 56.3772 379.424C55.5132 378.88 54.6972 377.968 53.9292 376.688L55.9452 375.416C56.3452 376.008 56.7372 376.496 57.1212 376.88C57.5212 377.248 57.9292 377.52 58.3452 377.696C58.7612 377.872 59.2012 377.96 59.6652 377.96C60.2252 377.96 60.7452 377.824 61.2252 377.552C61.7052 377.264 62.0892 376.872 62.3772 376.376C62.6652 375.88 62.8092 375.32 62.8092 374.696C62.8092 374.072 62.6972 373.544 62.4732 373.112C62.2492 372.664 61.9212 372.328 61.4892 372.104C61.0572 371.864 60.5452 371.744 59.9532 371.744C59.6812 371.744 59.3932 371.776 59.0892 371.84C58.8012 371.888 58.4892 371.968 58.1532 372.08C57.8172 372.176 57.4492 372.304 57.0492 372.464L56.3292 370.568L61.5132 364.856L62.0172 365.6H54.8652V363.2H64.4892L64.9692 364.16L59.4732 370.256L58.8732 369.632C59.0012 369.568 59.2092 369.512 59.4972 369.464C59.8012 369.4 60.0492 369.368 60.2412 369.368C60.9452 369.368 61.6012 369.504 62.2092 369.776C62.8332 370.032 63.3692 370.4 63.8172 370.88C64.2812 371.344 64.6412 371.896 64.8972 372.536C65.1692 373.16 65.3052 373.832 65.3052 374.552C65.3052 375.64 65.0412 376.616 64.5132 377.48C64.0012 378.328 63.3052 379 62.4252 379.496C61.5452 379.992 60.5612 380.24 59.4732 380.24ZM74.5589 380V367.4H77.0549V370.088L76.5989 370.376C76.7269 369.96 76.9269 369.56 77.1989 369.176C77.4869 368.792 77.8309 368.456 78.2309 368.168C78.6469 367.864 79.0869 367.624 79.5509 367.448C80.0309 367.272 80.5189 367.184 81.0149 367.184C81.7349 367.184 82.3669 367.304 82.9109 367.544C83.4549 367.784 83.9029 368.144 84.2549 368.624C84.6069 369.104 84.8629 369.704 85.0229 370.424L84.6389 370.328L84.8069 369.92C84.9829 369.552 85.2229 369.208 85.5269 368.888C85.8469 368.552 86.2069 368.256 86.6069 368C87.0069 367.744 87.4309 367.544 87.8789 367.4C88.3269 367.256 88.7669 367.184 89.1989 367.184C90.1429 367.184 90.9189 367.376 91.5269 367.76C92.1509 368.144 92.6149 368.728 92.9189 369.512C93.2389 370.296 93.3989 371.272 93.3989 372.44V380H90.9029V372.584C90.9029 371.864 90.8069 371.28 90.6149 370.832C90.4389 370.368 90.1669 370.024 89.7989 369.8C89.4309 369.576 88.9589 369.464 88.3829 369.464C87.9349 369.464 87.5109 369.544 87.1109 369.704C86.7269 369.848 86.3909 370.056 86.1029 370.328C85.8149 370.6 85.5909 370.92 85.4309 371.288C85.2709 371.64 85.1909 372.032 85.1909 372.464V380H82.6949V372.536C82.6949 371.88 82.5989 371.328 82.4069 370.88C82.2149 370.416 81.9349 370.064 81.5669 369.824C81.1989 369.584 80.7509 369.464 80.2229 369.464C79.7749 369.464 79.3589 369.544 78.9749 369.704C78.5909 369.848 78.2549 370.056 77.9669 370.328C77.6789 370.584 77.4549 370.896 77.2949 371.264C77.1349 371.616 77.0549 372 77.0549 372.416V380H74.5589ZM101.556 380.24C100.516 380.24 99.5645 379.952 98.7005 379.376C97.8525 378.8 97.1725 378.016 96.6605 377.024C96.1485 376.032 95.8925 374.912 95.8925 373.664C95.8925 372.4 96.1485 371.28 96.6605 370.304C97.1885 369.312 97.8925 368.536 98.7725 367.976C99.6685 367.416 100.668 367.136 101.772 367.136C102.428 367.136 103.028 367.232 103.572 367.424C104.116 367.616 104.588 367.888 104.988 368.24C105.404 368.576 105.74 368.968 105.996 369.416C106.268 369.864 106.436 370.344 106.5 370.856L105.948 370.664V367.4H108.444V380H105.948V377L106.524 376.832C106.428 377.264 106.228 377.688 105.924 378.104C105.636 378.504 105.26 378.864 104.796 379.184C104.348 379.504 103.844 379.76 103.284 379.952C102.74 380.144 102.164 380.24 101.556 380.24ZM102.204 377.96C102.956 377.96 103.62 377.776 104.196 377.408C104.772 377.04 105.22 376.536 105.54 375.896C105.876 375.24 106.044 374.496 106.044 373.664C106.044 372.848 105.876 372.12 105.54 371.48C105.22 370.84 104.772 370.336 104.196 369.968C103.62 369.6 102.956 369.416 102.204 369.416C101.468 369.416 100.812 369.6 100.236 369.968C99.6765 370.336 99.2285 370.84 98.8925 371.48C98.5725 372.12 98.4125 372.848 98.4125 373.664C98.4125 374.496 98.5725 375.24 98.8925 375.896C99.2285 376.536 99.6765 377.04 100.236 377.408C100.812 377.776 101.468 377.96 102.204 377.96ZM117.536 385.52C116.64 385.52 115.744 385.376 114.848 385.088C113.968 384.816 113.256 384.456 112.712 384.008L113.624 382.088C113.944 382.328 114.32 382.536 114.752 382.712C115.184 382.904 115.64 383.048 116.12 383.144C116.6 383.256 117.072 383.312 117.536 383.312C118.416 383.312 119.152 383.168 119.744 382.88C120.336 382.592 120.784 382.168 121.088 381.608C121.392 381.048 121.544 380.352 121.544 379.52V377.096L121.808 377.264C121.728 377.76 121.464 378.24 121.016 378.704C120.584 379.152 120.04 379.52 119.384 379.808C118.728 380.096 118.056 380.24 117.368 380.24C116.168 380.24 115.096 379.96 114.152 379.4C113.224 378.824 112.488 378.048 111.944 377.072C111.4 376.08 111.128 374.952 111.128 373.688C111.128 372.424 111.392 371.304 111.92 370.328C112.464 369.336 113.2 368.56 114.128 368C115.072 367.424 116.128 367.136 117.296 367.136C117.776 367.136 118.24 367.2 118.688 367.328C119.136 367.44 119.552 367.608 119.936 367.832C120.32 368.04 120.664 368.272 120.968 368.528C121.272 368.784 121.52 369.056 121.712 369.344C121.904 369.632 122.024 369.904 122.072 370.16L121.544 370.352V367.4H124.016V379.232C124.016 380.24 123.864 381.128 123.56 381.896C123.272 382.68 122.848 383.336 122.288 383.864C121.728 384.408 121.048 384.816 120.248 385.088C119.448 385.376 118.544 385.52 117.536 385.52ZM117.632 377.96C118.416 377.96 119.112 377.776 119.72 377.408C120.328 377.04 120.8 376.536 121.136 375.896C121.472 375.256 121.64 374.52 121.64 373.688C121.64 372.856 121.464 372.12 121.112 371.48C120.776 370.824 120.304 370.312 119.696 369.944C119.104 369.576 118.416 369.392 117.632 369.392C116.864 369.392 116.176 369.584 115.568 369.968C114.976 370.336 114.504 370.848 114.152 371.504C113.816 372.144 113.648 372.872 113.648 373.688C113.648 374.504 113.816 375.24 114.152 375.896C114.504 376.536 114.976 377.04 115.568 377.408C116.176 377.776 116.864 377.96 117.632 377.96ZM127.89 380V367.4H130.362V380H127.89ZM129.09 364.616C128.562 364.616 128.154 364.48 127.866 364.208C127.578 363.936 127.434 363.552 127.434 363.056C127.434 362.592 127.578 362.216 127.866 361.928C128.17 361.64 128.578 361.496 129.09 361.496C129.618 361.496 130.026 361.632 130.314 361.904C130.602 362.176 130.746 362.56 130.746 363.056C130.746 363.52 130.594 363.896 130.29 364.184C130.002 364.472 129.602 364.616 129.09 364.616ZM139.514 380.24C138.346 380.24 137.298 379.952 136.37 379.376C135.458 378.8 134.73 378.016 134.186 377.024C133.658 376.032 133.394 374.92 133.394 373.688C133.394 372.456 133.658 371.344 134.186 370.352C134.73 369.36 135.458 368.576 136.37 368C137.298 367.424 138.346 367.136 139.514 367.136C140.634 367.136 141.65 367.368 142.562 367.832C143.49 368.28 144.194 368.896 144.674 369.68L143.306 371.36C143.05 370.992 142.722 370.656 142.322 370.352C141.922 370.048 141.498 369.808 141.05 369.632C140.602 369.456 140.17 369.368 139.754 369.368C138.986 369.368 138.298 369.56 137.69 369.944C137.098 370.312 136.626 370.824 136.274 371.48C135.922 372.136 135.746 372.872 135.746 373.688C135.746 374.504 135.93 375.24 136.298 375.896C136.666 376.536 137.154 377.048 137.762 377.432C138.37 377.816 139.042 378.008 139.778 378.008C140.21 378.008 140.626 377.936 141.026 377.792C141.442 377.648 141.842 377.432 142.226 377.144C142.61 376.856 142.97 376.504 143.306 376.088L144.674 377.768C144.162 378.488 143.426 379.08 142.466 379.544C141.522 380.008 140.538 380.24 139.514 380.24ZM159.372 385.52C158.476 385.52 157.58 385.376 156.684 385.088C155.804 384.816 155.092 384.456 154.548 384.008L155.46 382.088C155.78 382.328 156.156 382.536 156.588 382.712C157.02 382.904 157.476 383.048 157.956 383.144C158.436 383.256 158.908 383.312 159.372 383.312C160.252 383.312 160.988 383.168 161.58 382.88C162.172 382.592 162.62 382.168 162.924 381.608C163.228 381.048 163.38 380.352 163.38 379.52V377.096L163.644 377.264C163.564 377.76 163.3 378.24 162.852 378.704C162.42 379.152 161.876 379.52 161.22 379.808C160.564 380.096 159.892 380.24 159.204 380.24C158.004 380.24 156.932 379.96 155.988 379.4C155.06 378.824 154.324 378.048 153.78 377.072C153.236 376.08 152.964 374.952 152.964 373.688C152.964 372.424 153.228 371.304 153.756 370.328C154.3 369.336 155.036 368.56 155.964 368C156.908 367.424 157.964 367.136 159.132 367.136C159.612 367.136 160.076 367.2 160.524 367.328C160.972 367.44 161.388 367.608 161.772 367.832C162.156 368.04 162.5 368.272 162.804 368.528C163.108 368.784 163.356 369.056 163.548 369.344C163.74 369.632 163.86 369.904 163.908 370.16L163.38 370.352V367.4H165.852V379.232C165.852 380.24 165.7 381.128 165.396 381.896C165.108 382.68 164.684 383.336 164.124 383.864C163.564 384.408 162.884 384.816 162.084 385.088C161.284 385.376 160.38 385.52 159.372 385.52ZM159.468 377.96C160.252 377.96 160.948 377.776 161.556 377.408C162.164 377.04 162.636 376.536 162.972 375.896C163.308 375.256 163.476 374.52 163.476 373.688C163.476 372.856 163.3 372.12 162.948 371.48C162.612 370.824 162.14 370.312 161.532 369.944C160.94 369.576 160.252 369.392 159.468 369.392C158.7 369.392 158.012 369.584 157.404 369.968C156.812 370.336 156.34 370.848 155.988 371.504C155.652 372.144 155.484 372.872 155.484 373.688C155.484 374.504 155.652 375.24 155.988 375.896C156.34 376.536 156.812 377.04 157.404 377.408C158.012 377.776 158.7 377.96 159.468 377.96ZM175.198 380.24C173.902 380.24 172.75 379.968 171.742 379.424C170.75 378.864 169.966 378.104 169.39 377.144C168.83 376.184 168.55 375.08 168.55 373.832C168.55 372.84 168.71 371.936 169.03 371.12C169.35 370.304 169.79 369.6 170.35 369.008C170.926 368.4 171.606 367.936 172.39 367.616C173.19 367.28 174.054 367.112 174.982 367.112C175.798 367.112 176.558 367.272 177.262 367.592C177.966 367.896 178.574 368.32 179.086 368.864C179.614 369.408 180.014 370.056 180.286 370.808C180.574 371.544 180.71 372.352 180.694 373.232L180.67 374.288H170.374L169.822 372.32H178.534L178.174 372.728V372.152C178.126 371.624 177.95 371.152 177.646 370.736C177.342 370.32 176.958 369.992 176.494 369.752C176.03 369.512 175.526 369.392 174.982 369.392C174.118 369.392 173.39 369.56 172.798 369.896C172.206 370.216 171.758 370.696 171.454 371.336C171.15 371.96 170.998 372.736 170.998 373.664C170.998 374.544 171.182 375.312 171.55 375.968C171.918 376.608 172.438 377.104 173.11 377.456C173.782 377.808 174.558 377.984 175.438 377.984C176.062 377.984 176.638 377.88 177.166 377.672C177.71 377.464 178.294 377.088 178.918 376.544L180.166 378.296C179.782 378.68 179.31 379.016 178.75 379.304C178.206 379.592 177.622 379.824 176.998 380C176.39 380.16 175.79 380.24 175.198 380.24ZM183.332 380V367.4H185.828V370.088L185.372 370.376C185.5 369.96 185.7 369.56 185.972 369.176C186.26 368.792 186.604 368.456 187.004 368.168C187.42 367.864 187.86 367.624 188.324 367.448C188.804 367.272 189.292 367.184 189.788 367.184C190.508 367.184 191.14 367.304 191.684 367.544C192.228 367.784 192.676 368.144 193.028 368.624C193.38 369.104 193.636 369.704 193.796 370.424L193.412 370.328L193.58 369.92C193.756 369.552 193.996 369.208 194.3 368.888C194.62 368.552 194.98 368.256 195.38 368C195.78 367.744 196.204 367.544 196.652 367.4C197.1 367.256 197.54 367.184 197.972 367.184C198.916 367.184 199.692 367.376 200.3 367.76C200.924 368.144 201.388 368.728 201.692 369.512C202.012 370.296 202.172 371.272 202.172 372.44V380H199.676V372.584C199.676 371.864 199.58 371.28 199.388 370.832C199.212 370.368 198.94 370.024 198.572 369.8C198.204 369.576 197.732 369.464 197.156 369.464C196.708 369.464 196.284 369.544 195.884 369.704C195.5 369.848 195.164 370.056 194.876 370.328C194.588 370.6 194.364 370.92 194.204 371.288C194.044 371.64 193.964 372.032 193.964 372.464V380H191.468V372.536C191.468 371.88 191.372 371.328 191.18 370.88C190.988 370.416 190.708 370.064 190.34 369.824C189.972 369.584 189.524 369.464 188.996 369.464C188.548 369.464 188.132 369.544 187.748 369.704C187.364 369.848 187.028 370.056 186.74 370.328C186.452 370.584 186.228 370.896 186.068 371.264C185.908 371.616 185.828 372 185.828 372.416V380H183.332ZM209.682 380.24C208.626 380.24 207.674 380.056 206.826 379.688C205.978 379.32 205.274 378.776 204.714 378.056L206.394 376.616C206.874 377.176 207.394 377.584 207.954 377.84C208.53 378.08 209.178 378.2 209.898 378.2C210.186 378.2 210.45 378.168 210.69 378.104C210.946 378.024 211.162 377.912 211.338 377.768C211.53 377.624 211.674 377.456 211.77 377.264C211.866 377.056 211.914 376.832 211.914 376.592C211.914 376.176 211.762 375.84 211.458 375.584C211.298 375.472 211.042 375.352 210.69 375.224C210.354 375.08 209.914 374.936 209.37 374.792C208.442 374.552 207.682 374.28 207.09 373.976C206.498 373.672 206.042 373.328 205.722 372.944C205.482 372.64 205.306 372.312 205.194 371.96C205.082 371.592 205.026 371.192 205.026 370.76C205.026 370.232 205.138 369.752 205.362 369.32C205.602 368.872 205.922 368.488 206.322 368.168C206.738 367.832 207.218 367.576 207.762 367.4C208.322 367.224 208.914 367.136 209.538 367.136C210.13 367.136 210.714 367.216 211.29 367.376C211.882 367.536 212.426 367.768 212.922 368.072C213.418 368.376 213.834 368.736 214.17 369.152L212.754 370.712C212.45 370.408 212.114 370.144 211.746 369.92C211.394 369.68 211.034 369.496 210.666 369.368C210.298 369.24 209.962 369.176 209.658 369.176C209.322 369.176 209.018 369.208 208.746 369.272C208.474 369.336 208.242 369.432 208.05 369.56C207.874 369.688 207.738 369.848 207.642 370.04C207.546 370.232 207.498 370.448 207.498 370.688C207.514 370.896 207.562 371.096 207.642 371.288C207.738 371.464 207.866 371.616 208.026 371.744C208.202 371.872 208.466 372.008 208.818 372.152C209.17 372.296 209.618 372.432 210.162 372.56C210.962 372.768 211.618 373 212.13 373.256C212.658 373.496 213.074 373.776 213.378 374.096C213.698 374.4 213.922 374.752 214.05 375.152C214.178 375.552 214.242 376 214.242 376.496C214.242 377.216 214.034 377.864 213.618 378.44C213.218 379 212.674 379.44 211.986 379.76C211.298 380.08 210.53 380.24 209.682 380.24Z" fill="#FAF9F6"/>
<path d="M104.765 164.162C119.367 168.705 138.161 170.833 145.733 171.328C172.774 171.599 230.048 172.194 242.812 172.41C255.575 172.626 280.67 165.74 291.622 162.269C298.427 159.881 314.012 154.617 321.908 152.67C329.804 150.723 331.598 153.481 331.508 155.103L320.15 170.787L279.994 200.398L198.058 207.97L126.533 200.939L87.7284 177.683C79.8413 170.157 64.1482 154.887 64.4727 154.022C64.8784 152.94 68.9346 152.67 73.5316 154.427C78.1287 156.185 86.5116 158.484 104.765 164.162Z" fill="#F09E21"/>
<path d="M190.757 158.619C150.411 158.078 130.319 182.55 125.316 194.854L131.536 204.724C172.098 204.905 253.412 205.157 254.169 204.724C254.926 204.292 259.172 200.668 261.2 198.911L261.008 198.533C243.471 164.127 241.006 159.292 190.757 158.619Z" fill="#FEE593"/>
<path d="M101.52 183.091C117.961 195.53 141.091 199.271 150.6 199.587C171.107 200.578 216.365 202.588 233.348 202.696C254.575 202.832 274.992 194.99 291.487 187.824C307.982 180.658 311.633 170.923 323.937 157.943C333.78 147.559 333.627 157.492 332.32 163.757C312.985 244.881 275.938 287.607 269.989 293.421C265.23 298.072 254.124 300.316 249.167 300.857C232.131 303.561 191.433 304.373 163.175 303.426C140.568 302.669 126.894 293.466 122.883 288.959C80.6981 241.501 63.7971 174.573 62.1746 161.188C60.8766 150.479 67.1323 154.202 70.4223 157.402C73.9377 160.782 85.0788 170.652 101.52 183.091Z" fill="#F8D65B"/>
<path d="M206.982 164.838C217.303 164.613 239.892 170.03 247.68 193.502C238.08 184.804 216.501 166.894 206.982 164.838Z" fill="#FAFEFB"/>
<path d="M176.02 167.272C148.762 170.841 134.195 188.59 130.319 197.018L135.592 199.722L173.991 202.02C165.446 192.285 171.783 174.799 176.02 167.272Z" fill="#F8D65B"/>
<path d="M118.827 244.746C128.923 252.273 157.334 269.219 190.217 276.79C168.674 281.523 124.235 281.739 118.827 244.746Z" fill="#FEE593"/>
<path d="M300.95 200.668C194.948 236.796 120.313 217.434 96.2461 203.237C125.884 247.91 216.851 245.557 258.63 238.797C265.012 243.881 262.642 270.661 260.659 283.416C289.863 255.184 299.689 216.488 300.95 200.668Z" fill="#F09E21"/>
</svg>
