<svg width="281" height="350" viewBox="0 0 281 350" fill="none" xmlns="http://www.w3.org/2000/svg">
<rect width="281" height="350" rx="20" fill="#202020" fill-opacity="0.5"/>
<path d="M37.76 47.888C38.7627 47.888 39.808 47.5893 40.896 46.992V44.368C40.896 43.8773 40.8533 43.1627 40.768 42.224C40.0213 42.0107 39.0507 41.7973 37.856 41.584L37.952 40.912C38.4427 40.976 38.912 41.008 39.36 41.008C41.2373 41.008 42.9547 40.4853 44.512 39.44L44.8 40.016C44.3093 40.4 43.9253 40.784 43.648 41.168C43.2427 44.88 43.0293 48.3467 43.008 51.568C42.3893 52.6987 41.3653 53.7867 39.936 54.832C38.528 55.8773 37.2373 56.4 36.064 56.4C35.744 56.4 35.4773 56.3147 35.264 56.144C35.0507 55.9733 34.944 55.7387 34.944 55.44C35.5627 54.9707 36.0853 54.4267 36.512 53.808L36.736 53.776C37.2053 54.1387 37.7493 54.32 38.368 54.32C38.9867 54.32 39.4133 54.256 39.648 54.128C40.5227 52.9547 40.96 51.0347 40.96 48.368C39.7867 49.2853 38.4853 49.9893 37.056 50.48C34.496 50.48 32.5653 49.68 31.264 48.08C29.984 46.4587 29.344 44.2293 29.344 41.392C29.344 38.5333 30.1227 35.888 31.68 33.456C33.2587 31.0027 35.3707 29.4133 38.016 28.688C40.2347 28.688 42.464 28.8907 44.704 29.296L44.672 30C44.1387 30 43.6267 30.096 43.136 30.288C42.56 31.632 42.208 33.136 42.08 34.8H41.28C41.088 33.9253 40.992 32.9333 40.992 31.824C39.9893 31.2693 38.7627 30.992 37.312 30.992C35.8613 30.992 34.6987 31.3547 33.824 32.08C32.736 33.936 32.192 36.2933 32.192 39.152C32.192 44.976 34.048 47.888 37.76 47.888ZM54.2285 50.384C52.1165 50.384 50.4098 49.7227 49.1085 48.4C47.8072 47.056 47.1565 45.264 47.1565 43.024C47.1565 40.784 47.8392 38.6827 49.2045 36.72C50.5698 34.7573 52.3512 33.4987 54.5485 32.944C56.7458 32.944 58.4205 33.5733 59.5725 34.832C60.7245 36.0693 61.3005 37.84 61.3005 40.144C61.3005 42.448 60.6712 44.528 59.4125 46.384C58.1752 48.24 56.4472 49.5733 54.2285 50.384ZM53.6845 34.896C52.7245 34.896 51.8925 35.1627 51.1885 35.696C50.3138 37.1893 49.8765 39.0667 49.8765 41.328C49.8765 43.9307 50.6018 45.9253 52.0525 47.312C52.8205 48.0587 53.7272 48.432 54.7725 48.432C55.8178 48.432 56.6605 48.1547 57.3005 47.6C58.1538 46.1067 58.5805 44.2827 58.5805 42.128C58.5805 39.9733 58.1965 38.2347 57.4285 36.912C56.6605 35.568 55.4125 34.896 53.6845 34.896ZM64.0323 33.392L71.3923 33.168C73.3123 33.168 74.7523 33.456 75.7123 34.032C76.6723 34.5867 77.1523 35.6107 77.1523 37.104C77.1523 38.128 76.8323 39.0347 76.1923 39.824C75.5736 40.6133 74.7523 41.2 73.7283 41.584L77.3123 48.912C78.0376 49.04 78.7203 49.1893 79.3603 49.36L79.2323 50.224C78.3363 50.0747 77.3229 50 76.1923 50C75.0829 50 74.2083 50.0533 73.5683 50.16L73.4403 49.648C73.7176 49.3707 73.8563 48.912 73.8563 48.272C73.8563 46.9707 73.1096 44.88 71.6163 42C71.1683 41.9147 70.6456 41.872 70.0483 41.872L70.1123 40.944H70.4323C72.9496 40.944 74.2083 39.792 74.2083 37.488C74.2083 35.3547 73.1309 34.288 70.9763 34.288C70.2509 34.288 69.6003 34.4053 69.0243 34.64C68.8749 36.048 68.8003 38.4587 68.8003 41.872C68.8003 45.2853 68.8963 47.6427 69.0883 48.944C70.0269 49.0507 70.9016 49.2107 71.7123 49.424L71.6163 50.224C70.5069 50.0747 69.2589 50 67.8723 50C66.5069 50 65.2803 50.0853 64.1923 50.256L64.0643 49.424C64.6616 49.232 65.3336 49.072 66.0803 48.944C66.2936 47.344 66.4003 44.8587 66.4003 41.488C66.4003 38.096 66.3043 35.7493 66.1123 34.448C65.2803 34.1707 64.5869 34.032 64.0323 34.032V33.392ZM88.108 48.144C89.0253 48.144 89.932 47.8773 90.828 47.344L90.668 43.92C90.0707 43.728 89.3453 43.5573 88.492 43.408L88.588 42.736C89.1 42.7787 89.4733 42.8 89.708 42.8C91.18 42.8 92.5133 42.4053 93.708 41.616L94.028 42.192C93.772 42.4267 93.5373 42.672 93.324 42.928C93.0253 45.8293 92.8333 48.2187 92.748 50.096H92.076C91.9053 49.3067 91.6493 48.656 91.308 48.144C90.0707 49.232 88.8227 49.9787 87.564 50.384C85.4947 50.384 83.8733 49.7333 82.7 48.432C81.5267 47.1093 80.94 45.3387 80.94 43.12C80.94 40.88 81.6333 38.7787 83.02 36.816C84.4067 34.8533 86.1773 33.5627 88.332 32.944C89.8893 32.944 91.6493 33.104 93.612 33.424L93.58 34.128C93.1747 34.128 92.7907 34.2027 92.428 34.352C92.0227 35.312 91.756 36.4533 91.628 37.776H90.828C90.6573 37.0507 90.572 36.304 90.572 35.536C89.7613 35.1307 88.8013 34.928 87.692 34.928C86.5827 34.928 85.6653 35.2267 84.94 35.824C84.0867 37.3813 83.66 39.2267 83.66 41.36C83.66 43.472 83.9693 45.136 84.588 46.352C85.228 47.5467 86.4013 48.144 88.108 48.144ZM103.666 50.384C101.554 50.384 99.8473 49.7227 98.546 48.4C97.2447 47.056 96.594 45.264 96.594 43.024C96.594 40.784 97.2767 38.6827 98.642 36.72C100.007 34.7573 101.789 33.4987 103.986 32.944C106.183 32.944 107.858 33.5733 109.01 34.832C110.162 36.0693 110.738 37.84 110.738 40.144C110.738 42.448 110.109 44.528 108.85 46.384C107.613 48.24 105.885 49.5733 103.666 50.384ZM103.122 34.896C102.162 34.896 101.33 35.1627 100.626 35.696C99.7513 37.1893 99.314 39.0667 99.314 41.328C99.314 43.9307 100.039 45.9253 101.49 47.312C102.258 48.0587 103.165 48.432 104.21 48.432C105.255 48.432 106.098 48.1547 106.738 47.6C107.591 46.1067 108.018 44.2827 108.018 42.128C108.018 39.9733 107.634 38.2347 106.866 36.912C106.098 35.568 104.85 34.896 103.122 34.896ZM121.182 50.224C120.072 50.0747 118.824 50 117.438 50C116.072 50 114.846 50.0853 113.758 50.256L113.63 49.424C114.312 49.2107 114.952 49.0507 115.55 48.944C115.742 47.28 115.838 45.104 115.838 42.416V40.912C115.838 38.0533 115.731 35.856 115.518 34.32C114.942 34.256 114.248 34.0853 113.438 33.808L113.534 32.976C114.75 33.2107 116.019 33.328 117.342 33.328C118.686 33.328 119.646 33.2533 120.222 33.104L120.286 33.648C119.71 33.7973 119.422 34.0427 119.422 34.384C119.422 34.64 119.667 35.184 120.158 36.016C120.67 36.8267 121.16 37.616 121.63 38.384C123.038 40.624 124.702 43.376 126.622 46.64L126.718 46.576V42.672C126.718 39.8133 126.568 37.6693 126.27 36.24C125.971 34.7893 125.459 33.9467 124.734 33.712L124.798 33.168C125.352 33.2747 126.184 33.328 127.294 33.328C128.403 33.328 129.544 33.2107 130.718 32.976L130.814 33.808C129.939 34.0853 129.203 34.256 128.606 34.32C128.392 36.0267 128.286 38.224 128.286 40.912V42.416C128.286 45.6587 128.392 47.856 128.606 49.008C129.502 49.1573 130.216 49.328 130.75 49.52L130.654 50.352C129.587 50.1173 128.584 50 127.646 50C126.707 50 125.982 50.0427 125.47 50.128C125.47 49.6587 125.139 48.8693 124.478 47.76C123.838 46.6507 123.251 45.6693 122.718 44.816C120.99 42.0213 119.294 39.184 117.63 36.304L117.502 36.368V40.656C117.502 44.9013 117.822 47.664 118.462 48.944C119.422 49.0507 120.36 49.2107 121.278 49.424L121.182 50.224ZM150.389 31.888C149.365 31.2907 148.149 30.992 146.741 30.992C145.333 30.992 144.192 31.3547 143.317 32.08C143.296 32.3787 143.285 32.6667 143.285 32.944C143.285 36.3573 145.109 38.064 148.757 38.064L148.597 39.248H148.213C146.528 39.248 145.131 39.5893 144.021 40.272C142.933 40.9333 142.389 42.0107 142.389 43.504C142.389 44.9973 142.901 46.16 143.925 46.992C144.949 47.8027 146.155 48.208 147.541 48.208C148.928 48.208 150.016 47.952 150.805 47.44C150.955 47.1413 151.029 46.672 151.029 46.032C151.029 45.392 150.923 44.9547 150.709 44.72L150.741 44.496C151.275 44.176 151.808 43.728 152.341 43.152C152.597 43.1733 152.8 43.28 152.949 43.472C153.12 43.664 153.205 43.888 153.205 44.144C153.205 45.4453 152.587 46.7147 151.349 47.952C150.133 49.168 148.8 50.0107 147.349 50.48C145.067 50.48 143.168 49.9253 141.653 48.816C140.139 47.7067 139.381 46.128 139.381 44.08C139.381 42.608 140 41.3813 141.237 40.4C142.475 39.4187 143.883 38.928 145.461 38.928V38.8C144.011 38.7147 142.795 38.3093 141.813 37.584C140.853 36.8587 140.373 35.856 140.373 34.576C141.141 33.2107 142.155 31.984 143.413 30.896C144.693 29.808 146.059 29.072 147.509 28.688C149.024 28.688 150.517 28.8907 151.989 29.296C152.331 29.1253 152.768 28.7947 153.301 28.304L153.973 28.752C152.565 30.4587 151.701 32.496 151.381 34.864H150.549C150.549 33.6907 150.496 32.6987 150.389 31.888ZM164.94 34.416C164.94 34.0747 164.652 33.84 164.076 33.712L164.204 33.168C164.844 33.2747 165.676 33.328 166.7 33.328C167.745 33.328 168.886 33.2427 170.124 33.072L170.252 33.904C169.697 34.096 168.993 34.256 168.14 34.384L162.828 42.384C162.828 45.1573 162.934 47.344 163.148 48.944C164.086 49.0507 164.961 49.2107 165.772 49.424L165.676 50.224C164.566 50.0747 163.286 50 161.836 50C160.406 50 159.148 50.0853 158.06 50.256L157.932 49.424C158.337 49.296 159.062 49.136 160.108 48.944C160.3 47.792 160.396 46.0533 160.396 43.728V43.056C157.921 38.064 156.353 35.1627 155.692 34.352C155.094 34.288 154.433 34.1387 153.707 33.904L153.835 33.072C154.689 33.2427 155.916 33.328 157.516 33.328C159.116 33.328 160.428 33.2427 161.452 33.072L161.58 33.872C160.577 34.1067 159.734 34.2667 159.052 34.352C159.777 36.5707 160.79 38.9067 162.092 41.36C163.99 37.6693 164.94 35.3547 164.94 34.416ZM173.255 42.096C173.319 43.9947 173.671 45.4773 174.311 46.544C174.951 47.6107 176.039 48.144 177.575 48.144C179.111 48.144 180.529 47.4933 181.831 46.192L182.279 46.64C180.849 48.4533 179.132 49.7013 177.127 50.384C175.057 50.384 173.436 49.7333 172.263 48.432C171.089 47.1093 170.503 45.3387 170.503 43.12C170.503 40.88 171.196 38.7787 172.583 36.816C173.969 34.8533 175.74 33.5627 177.895 32.944C179.452 32.944 181.212 33.104 183.175 33.424L183.143 34.128C182.737 34.128 182.353 34.2027 181.991 34.352C181.585 35.312 181.319 36.4533 181.191 37.776H180.391C180.22 37.0507 180.135 36.304 180.135 35.536C179.324 35.1307 178.364 34.928 177.255 34.928C176.145 34.928 175.228 35.2267 174.503 35.824C173.777 37.1467 173.361 38.7253 173.255 40.56C174.151 40.7093 175.111 40.784 176.135 40.784C177.905 40.784 178.972 40.4107 179.335 39.664L180.007 39.76C179.815 40.4 179.719 41.0293 179.719 41.648C179.719 42.2667 179.793 43.024 179.943 43.92L179.175 44.048C178.94 43.408 178.769 42.7467 178.663 42.064C177.809 41.9787 176.956 41.936 176.103 41.936C175.271 41.936 174.321 41.9893 173.255 42.096ZM186.958 47.568C187.94 47.9733 188.91 48.176 189.87 48.176C190.83 48.176 191.598 47.952 192.174 47.504C192.75 47.056 193.038 46.416 193.038 45.584C193.038 44.7307 191.833 43.6747 189.422 42.416C188.505 41.9467 187.662 41.3813 186.894 40.72C186.148 40.0373 185.774 39.3653 185.774 38.704C185.774 37.5733 186.372 36.432 187.566 35.28C188.761 34.128 189.988 33.3493 191.246 32.944C192.825 32.944 194.254 33.104 195.534 33.424V34C194.638 34.896 194.137 36.1227 194.03 37.68H193.23C193.23 37.0827 193.177 36.336 193.07 35.44C192.324 35.0987 191.524 34.928 190.67 34.928C189.817 34.928 189.102 35.12 188.526 35.504C187.972 35.8667 187.694 36.4 187.694 37.104C187.694 37.5947 188.068 38.128 188.814 38.704C189.582 39.28 190.414 39.792 191.31 40.24C192.206 40.688 193.028 41.2427 193.774 41.904C194.542 42.5653 194.926 43.2267 194.926 43.888C194.926 45.168 194.361 46.448 193.23 47.728C192.1 48.9867 190.852 49.872 189.486 50.384C188.142 50.384 186.884 50.224 185.71 49.904C185.369 50.0533 185.017 50.2987 184.654 50.64L184.078 50.224C185.273 48.9227 185.934 47.312 186.062 45.392H186.862C186.862 46.1387 186.894 46.864 186.958 47.568ZM201.995 48.528C201.846 48.8053 201.579 49.1573 201.195 49.584C200.832 50.0107 200.523 50.3093 200.267 50.48C200.011 50.3093 199.691 50.0107 199.307 49.584C198.944 49.1573 198.688 48.8053 198.539 48.528C198.667 48.272 198.912 47.984 199.275 47.664C199.638 47.3227 199.968 47.0773 200.267 46.928C200.544 47.0987 200.864 47.3547 201.227 47.696C201.59 48.016 201.846 48.2933 201.995 48.528ZM199.179 28.272C199.435 28.144 199.819 28.0267 200.331 27.92C200.843 27.792 201.174 27.728 201.323 27.728C201.494 27.728 201.6 27.728 201.643 27.728C201.878 27.9413 202.219 28.368 202.667 29.008C201.664 32.5707 201.003 37.6267 200.683 44.176L199.851 44.24L199.179 28.272Z" fill="#FAF9F6"/>
<path d="M32.576 262V256.416L32.688 257.2L28.16 250.8H30.24L33.696 255.76L33.296 255.712L36.416 250.8H38.4L34.064 257.376L34.304 256.288V262H32.576ZM44.256 262.16C43.4667 262.16 42.736 262.016 42.064 261.728C41.4027 261.44 40.8213 261.04 40.32 260.528C39.8293 260.005 39.4453 259.397 39.168 258.704C38.9013 258 38.768 257.232 38.768 256.4C38.768 255.568 38.9013 254.805 39.168 254.112C39.4453 253.408 39.8293 252.8 40.32 252.288C40.8213 251.765 41.4027 251.36 42.064 251.072C42.736 250.784 43.4667 250.64 44.256 250.64C45.0453 250.64 45.7707 250.784 46.432 251.072C47.104 251.36 47.6853 251.765 48.176 252.288C48.6773 252.811 49.0613 253.424 49.328 254.128C49.6053 254.821 49.744 255.579 49.744 256.4C49.744 257.221 49.6053 257.984 49.328 258.688C49.0613 259.381 48.6773 259.989 48.176 260.512C47.6853 261.035 47.104 261.44 46.432 261.728C45.7707 262.016 45.0453 262.16 44.256 262.16ZM44.256 260.48C44.8 260.48 45.296 260.379 45.744 260.176C46.2027 259.973 46.5973 259.691 46.928 259.328C47.2587 258.955 47.5147 258.523 47.696 258.032C47.888 257.531 47.984 256.987 47.984 256.4C47.984 255.813 47.888 255.275 47.696 254.784C47.5147 254.283 47.2587 253.851 46.928 253.488C46.5973 253.115 46.2027 252.827 45.744 252.624C45.296 252.421 44.8 252.32 44.256 252.32C43.712 252.32 43.2107 252.421 42.752 252.624C42.304 252.827 41.9093 253.109 41.568 253.472C41.2373 253.835 40.9813 254.267 40.8 254.768C40.6187 255.259 40.528 255.803 40.528 256.4C40.528 256.987 40.6187 257.531 40.8 258.032C40.9813 258.533 41.2373 258.965 41.568 259.328C41.9093 259.691 42.304 259.973 42.752 260.176C43.2107 260.379 43.712 260.48 44.256 260.48ZM56.4356 262.096C55.5716 262.096 54.7983 261.909 54.1156 261.536C53.433 261.152 52.8943 260.629 52.4996 259.968C52.1156 259.296 51.9236 258.539 51.9236 257.696V250.784H53.6516V257.552C53.6516 258.096 53.7796 258.587 54.0356 259.024C54.2916 259.451 54.6276 259.792 55.0436 260.048C55.4703 260.304 55.9343 260.432 56.4356 260.432C56.969 260.432 57.449 260.304 57.8756 260.048C58.313 259.792 58.6596 259.451 58.9156 259.024C59.1716 258.587 59.2996 258.096 59.2996 257.552V250.784H60.9476V257.696C60.9476 258.539 60.7503 259.296 60.3556 259.968C59.9716 260.629 59.4383 261.152 58.7556 261.536C58.073 261.909 57.2996 262.096 56.4356 262.096ZM68.4118 262V250.8H70.1398V260.336H75.3878V262H68.4118ZM82.3654 262.16C81.576 262.16 80.8454 262.016 80.1734 261.728C79.512 261.44 78.9307 261.04 78.4294 260.528C77.9387 260.005 77.5547 259.397 77.2774 258.704C77.0107 258 76.8774 257.232 76.8774 256.4C76.8774 255.568 77.0107 254.805 77.2774 254.112C77.5547 253.408 77.9387 252.8 78.4294 252.288C78.9307 251.765 79.512 251.36 80.1734 251.072C80.8454 250.784 81.576 250.64 82.3654 250.64C83.1547 250.64 83.88 250.784 84.5414 251.072C85.2134 251.36 85.7947 251.765 86.2854 252.288C86.7867 252.811 87.1707 253.424 87.4374 254.128C87.7147 254.821 87.8534 255.579 87.8534 256.4C87.8534 257.221 87.7147 257.984 87.4374 258.688C87.1707 259.381 86.7867 259.989 86.2854 260.512C85.7947 261.035 85.2134 261.44 84.5414 261.728C83.88 262.016 83.1547 262.16 82.3654 262.16ZM82.3654 260.48C82.9094 260.48 83.4054 260.379 83.8534 260.176C84.312 259.973 84.7067 259.691 85.0374 259.328C85.368 258.955 85.624 258.523 85.8054 258.032C85.9974 257.531 86.0934 256.987 86.0934 256.4C86.0934 255.813 85.9974 255.275 85.8054 254.784C85.624 254.283 85.368 253.851 85.0374 253.488C84.7067 253.115 84.312 252.827 83.8534 252.624C83.4054 252.421 82.9094 252.32 82.3654 252.32C81.8214 252.32 81.32 252.421 80.8614 252.624C80.4134 252.827 80.0187 253.109 79.6774 253.472C79.3467 253.835 79.0907 254.267 78.9094 254.768C78.728 255.259 78.6374 255.803 78.6374 256.4C78.6374 256.987 78.728 257.531 78.9094 258.032C79.0907 258.533 79.3467 258.965 79.6774 259.328C80.0187 259.691 80.4134 259.973 80.8614 260.176C81.32 260.379 81.8214 260.48 82.3654 260.48ZM93.649 262.16C93.041 262.16 92.4757 262.08 91.953 261.92C91.441 261.76 90.9717 261.52 90.545 261.2C90.129 260.869 89.7557 260.464 89.425 259.984L90.609 258.624C91.1317 259.371 91.633 259.888 92.113 260.176C92.593 260.464 93.1637 260.608 93.825 260.608C94.2303 260.608 94.5983 260.544 94.929 260.416C95.2597 260.288 95.521 260.112 95.713 259.888C95.905 259.664 96.001 259.408 96.001 259.12C96.001 258.928 95.969 258.747 95.905 258.576C95.841 258.405 95.7397 258.251 95.601 258.112C95.473 257.973 95.3023 257.845 95.089 257.728C94.8863 257.611 94.6463 257.509 94.369 257.424C94.0917 257.328 93.7717 257.248 93.409 257.184C92.833 257.067 92.3317 256.912 91.905 256.72C91.4783 256.528 91.121 256.288 90.833 256C90.545 255.712 90.3317 255.387 90.193 255.024C90.0543 254.651 89.985 254.235 89.985 253.776C89.985 253.328 90.081 252.912 90.273 252.528C90.4757 252.144 90.7477 251.813 91.089 251.536C91.441 251.248 91.8517 251.029 92.321 250.88C92.7903 250.72 93.297 250.64 93.841 250.64C94.417 250.64 94.945 250.715 95.425 250.864C95.905 251.013 96.3317 251.237 96.705 251.536C97.0783 251.824 97.3877 252.181 97.633 252.608L96.417 253.808C96.2037 253.456 95.9637 253.163 95.697 252.928C95.4303 252.683 95.137 252.501 94.817 252.384C94.497 252.256 94.1557 252.192 93.793 252.192C93.377 252.192 93.0143 252.256 92.705 252.384C92.3957 252.512 92.1503 252.693 91.969 252.928C91.7983 253.152 91.713 253.419 91.713 253.728C91.713 253.952 91.7557 254.16 91.841 254.352C91.9263 254.533 92.0543 254.699 92.225 254.848C92.4063 254.987 92.6463 255.115 92.945 255.232C93.2437 255.339 93.601 255.435 94.017 255.52C94.6037 255.648 95.1263 255.813 95.585 256.016C96.0437 256.208 96.433 256.437 96.753 256.704C97.073 256.971 97.313 257.269 97.473 257.6C97.6437 257.931 97.729 258.288 97.729 258.672C97.729 259.387 97.5637 260.005 97.233 260.528C96.9023 261.051 96.433 261.456 95.825 261.744C95.217 262.021 94.4917 262.16 93.649 262.16ZM102.305 262V252.464H99.1694V250.8H107.265V252.464H104.033V262H102.305ZM112.713 262L117.049 250.8H118.809L123.113 262H121.273L118.713 255.248C118.681 255.173 118.617 254.992 118.521 254.704C118.435 254.416 118.334 254.096 118.217 253.744C118.099 253.392 117.993 253.072 117.897 252.784C117.801 252.485 117.737 252.293 117.705 252.208L118.073 252.192C118.009 252.373 117.929 252.603 117.833 252.88C117.747 253.157 117.651 253.451 117.545 253.76C117.449 254.069 117.353 254.363 117.257 254.64C117.161 254.907 117.081 255.131 117.016 255.312L114.473 262H112.713ZM114.633 259.216L115.273 257.552H120.361L121.097 259.216H114.633ZM125.084 262V250.8H126.812V260.336H132.06V262H125.084ZM134.662 262V250.8H136.39V260.336H141.638V262H134.662ZM153.412 262.16C152.623 262.16 151.892 262.016 151.22 261.728C150.559 261.44 149.978 261.04 149.476 260.528C148.986 260.005 148.602 259.397 148.324 258.704C148.058 258 147.924 257.232 147.924 256.4C147.924 255.568 148.058 254.805 148.324 254.112C148.602 253.408 148.986 252.8 149.476 252.288C149.978 251.765 150.559 251.36 151.22 251.072C151.892 250.784 152.623 250.64 153.412 250.64C154.202 250.64 154.927 250.784 155.588 251.072C156.26 251.36 156.842 251.765 157.332 252.288C157.834 252.811 158.218 253.424 158.484 254.128C158.762 254.821 158.9 255.579 158.9 256.4C158.9 257.221 158.762 257.984 158.484 258.688C158.218 259.381 157.834 259.989 157.332 260.512C156.842 261.035 156.26 261.44 155.588 261.728C154.927 262.016 154.202 262.16 153.412 262.16ZM153.412 260.48C153.956 260.48 154.452 260.379 154.9 260.176C155.359 259.973 155.754 259.691 156.084 259.328C156.415 258.955 156.671 258.523 156.852 258.032C157.044 257.531 157.14 256.987 157.14 256.4C157.14 255.813 157.044 255.275 156.852 254.784C156.671 254.283 156.415 253.851 156.084 253.488C155.754 253.115 155.359 252.827 154.9 252.624C154.452 252.421 153.956 252.32 153.412 252.32C152.868 252.32 152.367 252.421 151.908 252.624C151.46 252.827 151.066 253.109 150.724 253.472C150.394 253.835 150.138 254.267 149.956 254.768C149.775 255.259 149.684 255.803 149.684 256.4C149.684 256.987 149.775 257.531 149.956 258.032C150.138 258.533 150.394 258.965 150.724 259.328C151.066 259.691 151.46 259.973 151.908 260.176C152.367 260.379 152.868 260.48 153.412 260.48ZM161.24 262V250.8H162.968V262H161.24ZM162.008 257.232V255.568H167.784V257.232H162.008ZM162.008 252.464V250.8H168.504V252.464H162.008ZM178.357 262V256.416L178.469 257.2L173.941 250.8H176.021L179.477 255.76L179.077 255.712L182.197 250.8H184.181L179.845 257.376L180.085 256.288V262H178.357ZM190.037 262.16C189.248 262.16 188.517 262.016 187.845 261.728C187.184 261.44 186.603 261.04 186.101 260.528C185.611 260.005 185.227 259.397 184.949 258.704C184.683 258 184.549 257.232 184.549 256.4C184.549 255.568 184.683 254.805 184.949 254.112C185.227 253.408 185.611 252.8 186.101 252.288C186.603 251.765 187.184 251.36 187.845 251.072C188.517 250.784 189.248 250.64 190.037 250.64C190.827 250.64 191.552 250.784 192.213 251.072C192.885 251.36 193.467 251.765 193.957 252.288C194.459 252.811 194.843 253.424 195.109 254.128C195.387 254.821 195.525 255.579 195.525 256.4C195.525 257.221 195.387 257.984 195.109 258.688C194.843 259.381 194.459 259.989 193.957 260.512C193.467 261.035 192.885 261.44 192.213 261.728C191.552 262.016 190.827 262.16 190.037 262.16ZM190.037 260.48C190.581 260.48 191.077 260.379 191.525 260.176C191.984 259.973 192.379 259.691 192.709 259.328C193.04 258.955 193.296 258.523 193.477 258.032C193.669 257.531 193.765 256.987 193.765 256.4C193.765 255.813 193.669 255.275 193.477 254.784C193.296 254.283 193.04 253.851 192.709 253.488C192.379 253.115 191.984 252.827 191.525 252.624C191.077 252.421 190.581 252.32 190.037 252.32C189.493 252.32 188.992 252.421 188.533 252.624C188.085 252.827 187.691 253.109 187.349 253.472C187.019 253.835 186.763 254.267 186.581 254.768C186.4 255.259 186.309 255.803 186.309 256.4C186.309 256.987 186.4 257.531 186.581 258.032C186.763 258.533 187.019 258.965 187.349 259.328C187.691 259.691 188.085 259.973 188.533 260.176C188.992 260.379 189.493 260.48 190.037 260.48ZM202.217 262.096C201.353 262.096 200.58 261.909 199.897 261.536C199.214 261.152 198.676 260.629 198.281 259.968C197.897 259.296 197.705 258.539 197.705 257.696V250.784H199.433V257.552C199.433 258.096 199.561 258.587 199.817 259.024C200.073 259.451 200.409 259.792 200.825 260.048C201.252 260.304 201.716 260.432 202.217 260.432C202.75 260.432 203.23 260.304 203.657 260.048C204.094 259.792 204.441 259.451 204.697 259.024C204.953 258.587 205.081 258.096 205.081 257.552V250.784H206.729V257.696C206.729 258.539 206.532 259.296 206.137 259.968C205.753 260.629 205.22 261.152 204.537 261.536C203.854 261.909 203.081 262.096 202.217 262.096ZM209.709 262V250.8H214.477C215.117 250.8 215.703 250.96 216.237 251.28C216.781 251.589 217.213 252.016 217.533 252.56C217.853 253.093 218.013 253.696 218.013 254.368C218.013 254.976 217.853 255.541 217.533 256.064C217.213 256.587 216.786 257.008 216.253 257.328C215.719 257.637 215.127 257.792 214.477 257.792H211.437V262H209.709ZM216.365 262L213.517 256.944L215.293 256.544L218.461 262.016L216.365 262ZM211.437 256.128H214.637C214.946 256.128 215.223 256.053 215.469 255.904C215.714 255.744 215.906 255.531 216.045 255.264C216.183 254.987 216.253 254.683 216.253 254.352C216.253 253.979 216.162 253.653 215.981 253.376C215.81 253.088 215.565 252.864 215.245 252.704C214.935 252.544 214.583 252.464 214.189 252.464H211.437V256.128ZM29.568 287V275.8H34.128C34.736 275.8 35.2853 275.955 35.776 276.264C36.2773 276.563 36.6773 276.973 36.976 277.496C37.2747 278.019 37.424 278.6 37.424 279.24C37.424 279.88 37.2747 280.461 36.976 280.984C36.6773 281.507 36.2773 281.928 35.776 282.248C35.2853 282.557 34.736 282.712 34.128 282.712H31.296V287H29.568ZM31.296 281.048H34.096C34.384 281.048 34.6453 280.968 34.88 280.808C35.1147 280.637 35.3013 280.419 35.44 280.152C35.5893 279.875 35.664 279.571 35.664 279.24C35.664 278.909 35.5893 278.611 35.44 278.344C35.3013 278.077 35.1147 277.864 34.88 277.704C34.6453 277.544 34.384 277.464 34.096 277.464H31.296V281.048ZM44.3966 287.16C43.6073 287.16 42.8766 287.016 42.2046 286.728C41.5433 286.44 40.962 286.04 40.4606 285.528C39.97 285.005 39.586 284.397 39.3086 283.704C39.042 283 38.9086 282.232 38.9086 281.4C38.9086 280.568 39.042 279.805 39.3086 279.112C39.586 278.408 39.97 277.8 40.4606 277.288C40.962 276.765 41.5433 276.36 42.2046 276.072C42.8766 275.784 43.6073 275.64 44.3966 275.64C45.186 275.64 45.9113 275.784 46.5726 276.072C47.2446 276.36 47.826 276.765 48.3166 277.288C48.818 277.811 49.202 278.424 49.4686 279.128C49.746 279.821 49.8846 280.579 49.8846 281.4C49.8846 282.221 49.746 282.984 49.4686 283.688C49.202 284.381 48.818 284.989 48.3166 285.512C47.826 286.035 47.2446 286.44 46.5726 286.728C45.9113 287.016 45.186 287.16 44.3966 287.16ZM44.3966 285.48C44.9406 285.48 45.4366 285.379 45.8846 285.176C46.3433 284.973 46.738 284.691 47.0686 284.328C47.3993 283.955 47.6553 283.523 47.8366 283.032C48.0286 282.531 48.1246 281.987 48.1246 281.4C48.1246 280.813 48.0286 280.275 47.8366 279.784C47.6553 279.283 47.3993 278.851 47.0686 278.488C46.738 278.115 46.3433 277.827 45.8846 277.624C45.4366 277.421 44.9406 277.32 44.3966 277.32C43.8526 277.32 43.3513 277.421 42.8926 277.624C42.4446 277.827 42.05 278.109 41.7086 278.472C41.378 278.835 41.122 279.267 40.9406 279.768C40.7593 280.259 40.6686 280.803 40.6686 281.4C40.6686 281.987 40.7593 282.531 40.9406 283.032C41.122 283.533 41.378 283.965 41.7086 284.328C42.05 284.691 42.4446 284.973 42.8926 285.176C43.3513 285.379 43.8526 285.48 44.3966 285.48ZM51.5739 287V285.4H53.3819V277.4H51.5739V275.8H56.9179V277.4H55.1099V285.4H56.9179V287H51.5739ZM59.6305 287V275.8H61.1825L68.0305 284.968L67.7745 285.112C67.7318 284.845 67.6945 284.557 67.6625 284.248C67.6305 283.928 67.5985 283.592 67.5665 283.24C67.5452 282.877 67.5238 282.499 67.5025 282.104C67.4918 281.699 67.4812 281.277 67.4705 280.84C67.4598 280.403 67.4545 279.949 67.4545 279.48V275.8H69.1825V287H67.5985L60.8625 278.168L61.0385 277.944C61.0918 278.595 61.1345 279.149 61.1665 279.608C61.2092 280.056 61.2412 280.44 61.2625 280.76C61.2945 281.069 61.3158 281.325 61.3265 281.528C61.3372 281.72 61.3425 281.88 61.3425 282.008C61.3532 282.136 61.3585 282.248 61.3585 282.344V287H59.6305ZM74.446 287V277.464H71.31V275.8H79.406V277.464H76.174V287H74.446ZM84.9928 287.16C84.3848 287.16 83.8194 287.08 83.2968 286.92C82.7848 286.76 82.3154 286.52 81.8888 286.2C81.4728 285.869 81.0994 285.464 80.7688 284.984L81.9528 283.624C82.4754 284.371 82.9768 284.888 83.4568 285.176C83.9368 285.464 84.5074 285.608 85.1688 285.608C85.5741 285.608 85.9421 285.544 86.2728 285.416C86.6034 285.288 86.8648 285.112 87.0568 284.888C87.2488 284.664 87.3448 284.408 87.3448 284.12C87.3448 283.928 87.3128 283.747 87.2488 283.576C87.1848 283.405 87.0834 283.251 86.9448 283.112C86.8168 282.973 86.6461 282.845 86.4328 282.728C86.2301 282.611 85.9901 282.509 85.7128 282.424C85.4354 282.328 85.1154 282.248 84.7528 282.184C84.1768 282.067 83.6754 281.912 83.2488 281.72C82.8221 281.528 82.4648 281.288 82.1768 281C81.8888 280.712 81.6754 280.387 81.5368 280.024C81.3981 279.651 81.3288 279.235 81.3288 278.776C81.3288 278.328 81.4248 277.912 81.6168 277.528C81.8194 277.144 82.0914 276.813 82.4328 276.536C82.7848 276.248 83.1954 276.029 83.6648 275.88C84.1341 275.72 84.6408 275.64 85.1848 275.64C85.7608 275.64 86.2888 275.715 86.7688 275.864C87.2488 276.013 87.6754 276.237 88.0487 276.536C88.4221 276.824 88.7314 277.181 88.9768 277.608L87.7608 278.808C87.5474 278.456 87.3074 278.163 87.0408 277.928C86.7741 277.683 86.4808 277.501 86.1608 277.384C85.8408 277.256 85.4994 277.192 85.1368 277.192C84.7208 277.192 84.3581 277.256 84.0488 277.384C83.7394 277.512 83.4941 277.693 83.3128 277.928C83.1421 278.152 83.0568 278.419 83.0568 278.728C83.0568 278.952 83.0994 279.16 83.1848 279.352C83.2701 279.533 83.3981 279.699 83.5688 279.848C83.7501 279.987 83.9901 280.115 84.2888 280.232C84.5874 280.339 84.9448 280.435 85.3608 280.52C85.9474 280.648 86.4701 280.813 86.9288 281.016C87.3874 281.208 87.7768 281.437 88.0968 281.704C88.4168 281.971 88.6568 282.269 88.8168 282.6C88.9874 282.931 89.0728 283.288 89.0728 283.672C89.0728 284.387 88.9074 285.005 88.5768 285.528C88.2461 286.051 87.7768 286.456 87.1688 286.744C86.5608 287.021 85.8354 287.16 84.9928 287.16ZM91.3451 283.144C91.2705 282.472 91.2011 281.779 91.1371 281.064C91.0838 280.339 91.0411 279.624 91.0091 278.92C90.9771 278.216 90.9611 277.549 90.9611 276.92V275.8H92.6891V276.92C92.6891 277.581 92.6731 278.275 92.6411 279C92.6091 279.725 92.5611 280.445 92.4971 281.16C92.4438 281.864 92.3798 282.525 92.3051 283.144H91.3451ZM91.7771 287.176C91.4251 287.176 91.1531 287.075 90.9611 286.872C90.7691 286.659 90.6731 286.36 90.6731 285.976C90.6731 285.624 90.7745 285.336 90.9771 285.112C91.1798 284.888 91.4465 284.776 91.7771 284.776C92.1291 284.776 92.4011 284.883 92.5931 285.096C92.7851 285.299 92.8811 285.592 92.8811 285.976C92.8811 286.328 92.7798 286.616 92.5771 286.84C92.3745 287.064 92.1078 287.176 91.7771 287.176Z" fill="#FAF9F6"/>
<path d="M98.1793 129.102C99.6455 130.185 100.431 131.113 100.892 131.456C101.078 131.632 101.697 132.228 101.784 132.344C101.929 132.574 102.194 132.75 102.586 133.373C103.097 133.995 103.634 134.557 104.068 135.15C104.576 135.843 105.083 136.628 105.432 137.286C105.709 137.808 105.948 138.526 106.319 139.179C106.638 139.743 106.891 140.51 107.219 141.231C107.567 141.996 107.731 142.461 107.916 142.964C108.177 143.672 108.337 144.18 108.512 144.988C108.758 146.128 108.982 146.709 108.83 149.078C108.758 150.203 108.752 151.129 108.656 152.035C108.583 152.717 108.688 154.044 107.971 156.301C107.449 157.946 107.175 158.933 106.257 160.675C105.763 161.612 105.044 162.814 103.816 164.865C103.411 165.541 102.954 166.441 102.188 167.393C101.609 168.112 101.009 168.677 100.298 169.372C99.3989 170.252 98.5445 171.115 97.8307 171.71C96.8447 172.532 95.2406 173.853 94.1728 174.408C93.5035 174.756 92.8094 175.163 91.9214 175.492C90.9397 175.855 89.4751 176.413 87.1253 176.879C85.8869 177.124 84.2012 177.311 82.0861 177.644C81.5375 177.73 80.4726 177.686 79.049 177.773C78.3419 177.817 76.9492 177.962 74.9933 177.816C73.8373 177.729 73.22 177.727 72.7331 177.642C71.3911 177.41 69.6166 176.893 68.5196 176.514C67.0983 176.023 66.4081 175.723 65.6159 175.402C64.2172 174.836 62.5815 173.937 61.0992 173.047C60.1841 172.498 59.1212 171.914 58.4142 171.344C57.8016 170.849 56.4687 169.816 55.6835 169.075C54.8351 168.275 53.7325 167.295 53.1127 166.503C52.6042 165.854 52.1575 165.323 51.5728 164.495C50.7114 163.275 49.5267 161.92 48.5955 160.117C48.3358 159.615 47.8688 158.92 47.2852 157.538C46.5606 155.822 46.0979 154.466 45.924 153.659C45.7502 152.852 45.5382 151.953 45.5183 150.676C45.4896 148.83 45.5406 147.656 45.5624 147.364C45.636 146.378 45.7634 145.461 45.8682 144.731C46.0133 143.721 46.2724 142.227 46.8312 140.286C47.1541 139.164 47.5854 137.791 48.1419 136.397C48.6983 135.004 49.3165 133.606 49.9275 132.606C50.9554 130.922 51.7304 129.938 52.6308 129.115C54.0682 127.801 55.3106 126.798 55.7606 126.42C56.0351 126.19 56.5766 125.929 57.1846 125.481C57.5166 125.237 58.7861 124.467 60.7048 123.587C61.643 123.157 61.9844 122.994 62.4159 122.838C63.2142 122.549 64.6385 122.073 67.3057 121.783C69.0399 121.594 71.5128 121.351 73.1201 121.381C75.446 121.425 76.3457 121.488 77.4904 121.644C78.4656 121.776 80.1911 122.034 81.6612 122.325C83.1314 122.615 84.3194 122.903 85.2408 123.22C86.8325 123.767 87.8985 124.098 89.8621 124.977C91.4713 125.697 94.2433 126.961 95.6717 127.672C97.2264 128.445 97.5024 128.602 98.1793 129.102Z" fill="#F2EB5C"/>
<path d="M67.2213 124.079C60.131 125.054 51.3789 135.6 50.271 140.807C51.3345 146.036 59.3555 148.156 63.233 148.562C63.8534 138.725 70.1386 132.351 73.2037 130.393C72.3174 126.671 68.8461 124.633 67.2213 124.079Z" fill="#FEFEF6"/>
<path d="M88.1622 158.935C87.01 164.164 81.7735 169.977 79.2993 172.229C96.9365 174.179 101.715 157.458 101.9 148.854C98.9749 155.589 91.5227 158.381 88.1622 158.935Z" fill="#B47933"/>
<path d="M77.5883 128.046L77.6048 128.026C77.8178 127.743 78.0993 127.391 78.1701 127.296C78.3109 127.085 78.5697 126.638 78.8875 126.262C79.2525 125.98 79.5966 125.556 80.0633 125.287C80.4516 125.063 80.885 124.657 81.4154 124.57C82.2699 124.429 83.4457 124.456 83.8252 124.642C84.2604 124.854 84.689 125.087 84.8468 125.548C84.9883 125.96 85.1267 127.473 85.0105 128.393L85.0095 128.4C84.9395 128.954 84.851 129.654 84.7164 130.263C84.5397 131.062 84.4496 131.54 84.3401 131.979C84.1404 132.779 83.9623 133.376 83.8111 133.907C83.6227 134.566 83.4201 135.454 83.141 136.364C82.9639 136.941 82.5095 138.25 82.2124 139.338C81.9991 140.119 81.6682 141.252 81.4108 142.274C80.9876 143.954 80.6161 145.333 80.5076 145.899C80.3316 146.817 80.1492 147.992 79.9437 148.942C79.8139 149.542 79.6592 150.304 79.3791 151.176C79.1551 151.872 78.9047 152.723 78.721 153.338C78.5203 154.011 78.3389 154.868 78.1567 155.454C77.9321 156.176 77.6895 157.357 77.4511 158.242C77.2042 159.159 76.9342 159.85 76.8522 160.675C76.781 161.392 76.6152 162.1 76.4639 162.873C76.3352 163.53 76.3275 164.006 76.1818 164.802C76.0051 165.766 75.87 166.414 75.7822 167.058C75.6764 167.834 75.4748 168.677 75.2885 169.538C75.1587 170.138 75.0974 170.774 74.8533 171.383C74.665 171.853 74.6987 172.384 73.6758 173.831C73.1118 174.628 72.5465 175.38 71.9473 175.331C71.065 175.259 70.3543 174.892 69.8673 174.483C69.2805 173.989 69.0223 173.643 68.7166 173.261C68.4341 172.907 68.0428 172.32 67.8116 171.626C67.6356 171.097 67.4617 170.692 67.3299 169.897C67.2364 169.334 67.1871 168.854 67.0125 168.169C66.8598 167.57 66.757 167.007 66.6718 166.289C66.5776 165.495 66.5611 164.358 66.3188 163.302C66.1544 162.585 66.1273 162.018 66.0253 160.868C65.9901 160.47 65.7803 159.002 65.9788 157.02C66.1093 155.717 66.3627 154.699 66.567 153.426C66.7201 152.473 66.8973 151.686 67.2022 150.31C67.4734 149.086 67.8521 148.083 68.2369 146.478C68.5074 145.35 68.696 144.494 68.9299 143.706C69.1182 143.071 69.2806 142.611 69.6472 141.672C69.9195 140.975 70.3742 139.7 70.8347 138.934C70.9754 138.7 71.4944 137.578 72.3769 136.156C72.7387 135.573 72.9201 135.368 73.248 134.778C73.8941 133.615 74.4438 132.62 74.738 132.197C74.9253 131.928 75.1252 131.5 75.6232 130.746C76.8154 128.941 77.1508 128.552 77.5883 128.046Z" fill="#DF913E"/>
<path d="M70.2187 169.792C70.6618 170.346 71.4703 173.264 71.6549 174.778C71.8396 174.298 71.8765 173.227 71.9913 172.008C72.0993 170.861 72.5018 170.217 72.656 169.903C72.8736 169.46 73.4536 168.795 73.0991 167.909C72.7446 167.023 72.7298 166.284 72.7668 166.025C72.8406 165.435 73.0991 163.788 73.5423 161.926C74.0962 159.6 75.4256 159.268 76.0904 158.603C76.7551 157.938 76.7551 156.719 75.5364 153.396C74.5615 150.737 75.9426 147.857 76.7551 146.749C77.6414 145.419 79.569 142.605 80.1894 141.985C80.8098 141.364 80.5218 140.249 80.3002 139.769C80.1525 139.621 79.7906 138.883 79.5247 137.11C79.1924 134.895 80.411 132.125 80.8542 130.906C81.2087 129.931 82.1097 129.318 82.516 129.134C82.7006 129.134 83.0256 128.934 82.8483 128.137C82.6711 127.339 82.7745 126.253 82.8483 125.81C82.2279 126.519 81.4081 126.844 81.0757 126.918C80.7064 127.066 80.0343 127.494 80.3002 128.026C80.5661 128.558 80.1156 129.503 79.8571 129.909C78.2322 132.014 74.7166 136.401 73.6531 137.11C72.5895 137.819 72.4713 139.695 72.5452 140.545C72.656 141.8 72.7668 145.065 72.3236 148.078C71.8805 151.092 69.3324 154.504 68.1138 155.833C67.8553 156.239 67.6041 157.229 68.6677 157.938C69.7312 158.647 69.9971 160.302 69.9971 161.04C69.9971 161.04 70.551 166.801 70.2187 167.466C69.8863 168.13 69.7863 169.252 70.2187 169.792Z" fill="#0E151B"/>
<path d="M66.4486 121.6C66.9803 117.523 65.7839 115.027 65.1191 114.288C100.305 108.439 117.964 128.1 122.396 138.661C121.775 140.522 119.552 141.357 118.518 141.542C115.682 138.617 109.434 138.403 106.664 138.661C96.2057 122.176 75.4961 120.418 66.4486 121.6Z" fill="#8EB44D" stroke="black"/>
<path d="M47.0772 113.69C52.7757 112.278 60.6942 113.296 64.0107 114.399C65.5484 115.635 65.7125 119.872 65.5617 121.6C61.6723 121.159 55.0294 126.856 52.1651 129.577C50.1752 125.694 45.2305 123.399 43.0069 122.737C42.1024 119.824 45.3436 115.492 47.0772 113.69Z" fill="#8EB44D" stroke="black"/>
<path d="M34.7631 124.481C36.2698 123.063 40.2775 123.484 42.3825 123.484C47.7002 125.168 50.7283 128.691 51.5777 130.242C49.0961 134.23 46.4779 141.763 45.1115 145.641C40.4142 148.477 34.5869 148.521 32.2603 148.189C31.2633 146.933 29.0909 143.957 29.0023 140.323C28.8915 135.781 32.8798 126.253 34.7631 124.481Z" fill="#8EB44D" stroke="black"/>
<path d="M30.5538 150.405C30.4652 149.784 30.96 149.112 31.5509 148.632C36.6914 150.227 42.7033 147.967 45.0667 146.638C44.9781 151.335 48.6488 158.935 50.1629 162.37C49.188 164.142 43.3311 166.653 40.5245 167.687C38.7519 167.244 36.6839 165.73 35.8715 165.028C32.2155 157.606 30.6646 151.18 30.5538 150.405Z" fill="#8EB44D" stroke="black"/>
<path d="M68.3319 184.194C61.1529 184.106 47.1348 173.192 40.8569 167.8C45.9088 166.382 49.5352 164.107 50.7169 163.147C54.1734 166.692 59.4321 170.198 61.7955 171.454C66.4928 173.492 69.8829 176.366 70.9907 177.547C71.3453 179.94 69.3659 182.976 68.3319 184.194Z" fill="#8EB44D" stroke="black"/>
<path d="M69.1069 184.527C69.7273 183.463 71.2119 179.578 71.8766 177.769C77.1057 177.592 85.1709 177.141 88.0514 176.772C91.951 178.101 97.8375 183.087 100.681 185.524C100.947 188.36 97.9852 192.614 96.4711 194.387C92.0397 195.273 76.308 188.146 69.1069 184.527Z" fill="#8EB44D" stroke="black"/>
<path d="M109.101 184.084C103.694 186.033 93.332 179.8 88.8267 176.439C112.047 165.272 110.688 147.118 107.106 139.437C113.399 138.285 117.483 140.582 118.739 141.874C124.766 147.989 129.891 161.262 131.701 167.133C132.846 170.642 133.806 177.614 128.488 177.436C121.841 177.215 115.858 178.544 114.307 180.538C113.067 182.134 110.319 183.567 109.101 184.084Z" fill="#8EB44D" stroke="black"/>
<path d="M70.8794 118.941C96.2273 115.928 108.842 129.208 111.981 136.224C109.588 134.629 106.7 134.968 105.555 135.338C101.479 122.664 80.7394 119.126 70.8794 118.941Z" fill="#52783B"/>
<path d="M48.9442 122.487C52.8439 116.371 59.5058 118.24 62.3493 119.938C56.1453 119.673 52.674 123.742 51.7139 125.81C49.3209 125.012 48.8704 123.262 48.9442 122.487Z" fill="#52783B"/>
<path d="M44.1804 139.104C42.9987 140.914 38.8184 143.868 31.5508 141.209C33.3972 145.309 38.5081 150.626 44.1804 139.104Z" fill="#52783B"/>
<path d="M34.3204 152.842C36.2777 156.055 41.588 162.325 47.1716 161.705C44.5128 165.398 38.2201 168.795 34.3204 152.842Z" fill="#52783B"/>
<path d="M45.6206 170.125C50.6799 173.042 62.3493 178.633 68.5533 177.658C69.8089 181.314 66.9802 184.926 45.6206 170.125Z" fill="#52783B"/>
<path d="M73.4279 184.748C79.5212 186.521 93.0149 189.224 98.244 185.856C98.9826 189.069 95.0534 193.345 73.4279 184.748Z" fill="#52783B"/>
<path d="M120.734 167.687C111.605 177.259 98.4656 177.953 93.0371 177.104C101.014 181.89 107.365 181.388 109.544 180.539C110.837 180.021 113.533 178.655 113.976 177.326C114.419 175.996 115.564 174.999 116.081 174.667C119.714 172.362 126.605 174.371 129.596 175.664C124.19 172.562 121.435 169.054 120.734 167.687Z" fill="#52783B"/>
<path d="M118.407 162.148C115.925 160.198 113.163 154.984 112.092 152.62C112.092 155.013 110.615 159.304 109.876 161.151C111.649 163.278 116.302 162.702 118.407 162.148Z" fill="#52783B"/>
<path d="M183.248 130.875C181.741 131.957 180.933 132.885 180.46 133.229C180.268 133.404 179.632 134 179.543 134.116C179.394 134.347 179.122 134.523 178.718 135.145C178.194 135.767 177.641 136.33 177.195 136.922C176.672 137.615 176.151 138.4 175.792 139.059C175.508 139.581 175.262 140.298 174.881 140.952C174.553 141.515 174.293 142.282 173.955 143.004C173.598 143.769 173.43 144.233 173.239 144.737C172.971 145.445 172.806 145.952 172.627 146.761C172.374 147.901 172.143 148.481 172.3 150.85C172.374 151.976 172.38 152.901 172.479 153.808C172.553 154.489 172.446 155.817 173.183 158.074C173.72 159.719 174.001 160.705 174.945 162.448C175.452 163.385 176.192 164.587 177.454 166.637C177.87 167.313 178.34 168.214 179.127 169.166C179.723 169.885 180.34 170.449 181.071 171.145C181.995 172.025 182.873 172.887 183.607 173.482C184.62 174.305 186.269 175.626 187.367 176.181C188.055 176.529 188.768 176.935 189.681 177.264C190.69 177.628 192.196 178.186 194.612 178.651C195.884 178.897 197.617 179.084 199.792 179.416C200.356 179.502 201.45 179.458 202.914 179.546C203.641 179.589 205.072 179.735 207.083 179.588C208.271 179.502 208.906 179.499 209.406 179.415C210.786 179.183 212.61 178.666 213.738 178.287C215.199 177.796 215.908 177.496 216.723 177.175C218.16 176.609 219.842 175.71 221.366 174.82C222.306 174.27 223.399 173.687 224.126 173.116C224.755 172.622 226.126 171.588 226.933 170.848C227.805 170.048 228.938 169.068 229.576 168.276C230.098 167.626 230.557 167.096 231.158 166.267C232.044 165.047 233.262 163.692 234.219 161.89C234.486 161.387 234.966 160.693 235.566 159.311C236.311 157.595 236.787 156.238 236.965 155.431C237.144 154.624 237.362 153.726 237.382 152.449C237.412 150.602 237.359 149.429 237.337 149.137C237.261 148.15 237.13 147.234 237.023 146.504C236.873 145.493 236.607 144 236.033 142.058C235.701 140.936 235.257 139.563 234.685 138.17C234.113 136.776 233.478 135.378 232.85 134.378C231.793 132.695 230.996 131.71 230.071 130.887C228.593 129.573 227.316 128.57 226.854 128.193C226.571 127.963 226.015 127.702 225.39 127.254C225.048 127.01 223.743 126.24 221.771 125.36C220.807 124.93 220.456 124.767 220.012 124.611C219.191 124.322 217.727 123.845 214.986 123.555C213.203 123.367 210.661 123.123 209.008 123.154C206.618 123.198 205.693 123.261 204.516 123.416C203.513 123.549 201.74 123.806 200.228 124.097C198.717 124.388 197.496 124.676 196.549 124.992C194.913 125.54 193.817 125.871 191.798 126.75C190.144 127.47 187.294 128.734 185.826 129.445C184.228 130.218 183.944 130.375 183.248 130.875Z" fill="#F2EB5C"/>
<path d="M207.03 130.824L207.015 130.803C206.824 130.504 206.571 130.132 206.507 130.032C206.383 129.81 206.16 129.345 205.872 128.946C205.529 128.636 205.219 128.187 204.774 127.883C204.404 127.63 204.003 127.192 203.481 127.064C202.64 126.859 201.465 126.796 201.073 126.951C200.623 127.129 200.177 127.329 199.985 127.776C199.812 128.176 199.558 129.674 199.603 130.6L199.603 130.608C199.631 131.165 199.665 131.87 199.753 132.488C199.868 133.298 199.921 133.781 199.996 134.227C200.134 135.04 200.266 135.65 200.376 136.19C200.513 136.862 200.647 137.762 200.855 138.691C200.988 139.28 201.34 140.62 201.553 141.727C201.706 142.523 201.949 143.678 202.127 144.717C202.42 146.425 202.684 147.827 202.749 148.4C202.854 149.329 202.946 150.515 203.078 151.478C203.161 152.086 203.257 152.857 203.469 153.748C203.639 154.46 203.824 155.327 203.959 155.955C204.108 156.641 204.223 157.51 204.36 158.108C204.528 158.845 204.68 160.04 204.849 160.941C205.025 161.874 205.241 162.584 205.26 163.413C205.276 164.133 205.387 164.852 205.478 165.634C205.556 166.3 205.527 166.775 205.611 167.579C205.714 168.554 205.799 169.211 205.837 169.859C205.883 170.642 206.019 171.497 206.139 172.37C206.222 172.978 206.234 173.617 206.431 174.243C206.583 174.726 206.508 175.253 207.417 176.774C207.918 177.612 208.424 178.406 209.025 178.403C209.911 178.398 210.647 178.087 211.164 177.716C211.787 177.269 212.071 176.944 212.405 176.586C212.714 176.255 213.149 175.7 213.433 175.025C213.649 174.512 213.854 174.121 214.046 173.339C214.183 172.784 214.269 172.31 214.495 171.641C214.693 171.055 214.839 170.502 214.979 169.792C215.134 169.008 215.238 167.876 215.56 166.841C215.779 166.139 215.85 165.576 216.04 164.437C216.105 164.043 216.427 162.595 216.382 160.603C216.351 159.294 216.177 158.259 216.071 156.975C215.991 156.013 215.875 155.215 215.677 153.82C215.5 152.579 215.2 151.549 214.939 149.919C214.756 148.773 214.634 147.906 214.461 147.102C214.322 146.455 214.195 145.984 213.902 145.02C213.684 144.303 213.328 142.997 212.928 142.198C212.806 141.954 212.374 140.795 211.604 139.31C211.288 138.701 211.122 138.483 210.841 137.869C210.286 136.66 209.814 135.626 209.553 135.182C209.387 134.899 209.221 134.457 208.782 133.667C207.732 131.775 207.427 131.362 207.03 130.824Z" fill="#DF913E"/>
<path d="M211.173 173.013C210.689 173.531 209.659 176.378 209.359 177.873C209.211 177.38 209.257 176.31 209.236 175.086C209.216 173.934 208.864 173.261 208.735 172.936C208.552 172.478 208.024 171.77 208.446 170.914C208.867 170.057 208.939 169.322 208.922 169.062C208.894 168.467 208.762 166.805 208.463 164.915C208.09 162.553 206.79 162.119 206.178 161.406C205.566 160.692 205.66 159.477 207.13 156.257C208.306 153.68 207.15 150.703 206.425 149.536C205.643 148.142 203.937 145.188 203.366 144.522C202.795 143.856 203.168 142.766 203.426 142.305C203.584 142.169 204.002 141.46 204.403 139.713C204.904 137.529 203.902 134.674 203.554 133.425C203.275 132.426 202.424 131.746 202.033 131.53C201.849 131.516 201.54 131.292 201.778 130.511C202.016 129.729 201.996 128.639 201.957 128.191C202.521 128.946 203.313 129.333 203.639 129.432C203.996 129.607 204.633 130.086 204.327 130.596C204.021 131.106 204.398 132.083 204.624 132.508C206.083 134.731 209.251 139.375 210.257 140.164C211.263 140.952 211.237 142.832 211.098 143.673C210.892 144.916 210.531 148.163 210.741 151.201C210.952 154.24 213.23 157.837 214.343 159.256C214.57 159.681 214.744 160.687 213.63 161.313C212.515 161.938 212.123 163.567 212.066 164.303C212.066 164.303 211.072 170.005 211.352 170.693C211.632 171.381 211.646 172.507 211.173 173.013Z" fill="#0E151B"/>
<path d="M215.566 123.927C215.034 119.85 216.24 117.423 216.904 116.684C181.719 110.835 164.059 130.496 159.628 141.057C160.248 142.919 162.471 143.753 163.505 143.938C166.342 141.013 172.59 140.799 175.36 141.057C185.818 124.572 206.518 122.745 215.566 123.927Z" fill="#8EB44D" stroke="black"/>
<path d="M234.946 116.086C229.248 114.674 221.329 115.692 218.013 116.795C216.475 118.031 216.311 122.268 216.462 123.996C220.351 123.555 226.994 129.252 229.858 131.973C231.848 128.09 236.793 125.795 239.017 125.133C239.921 122.22 236.68 117.888 234.946 116.086Z" fill="#8EB44D" stroke="black"/>
<path d="M247.26 126.877C245.754 125.459 241.746 125.88 239.641 125.88C234.323 127.564 231.295 131.087 230.446 132.638C232.927 136.626 235.546 144.159 236.912 148.037C241.609 150.873 247.437 150.917 249.763 150.585C250.76 149.329 252.933 146.353 253.021 142.719C253.132 138.177 249.144 128.649 247.26 126.877Z" fill="#8EB44D" stroke="black"/>
<path d="M251.47 152.801C251.559 152.18 251.064 151.508 250.473 151.028C245.333 152.623 239.321 150.363 236.957 149.034C237.046 153.731 233.92 161.705 232.406 165.139C233.381 166.912 238.693 169.049 241.499 170.083C243.272 169.64 245.34 168.126 246.152 167.424C249.808 160.002 251.359 153.576 251.47 152.801Z" fill="#8EB44D" stroke="black"/>
<path d="M213.683 186.632C220.862 186.543 235.587 175.738 241.865 170.346C236.813 168.928 233.187 166.653 232.005 165.693C228.548 169.238 223.29 172.744 220.926 174C216.229 176.038 212.021 178.803 210.913 179.984C210.559 182.377 212.649 185.413 213.683 186.632Z" fill="#8EB44D" stroke="black"/>
<path d="M212.917 186.923C212.296 185.859 210.812 181.974 210.147 180.165C204.918 179.988 197.065 179.578 194.185 179.209C190.285 180.538 184.186 185.483 181.342 187.92C181.077 190.756 184.038 195.01 185.552 196.783C189.984 197.669 205.715 190.542 212.917 186.923Z" fill="#8EB44D" stroke="black"/>
<path d="M172.923 186.48C178.329 188.429 188.691 182.196 193.197 178.835C169.976 167.668 171.335 149.514 174.917 141.833C168.624 140.681 164.54 142.978 163.285 144.27C157.258 150.386 152.132 163.658 150.323 169.529C149.178 173.038 148.218 180.01 153.535 179.832C160.183 179.611 166.165 180.94 167.716 182.935C168.957 184.53 171.704 185.963 172.923 186.48Z" fill="#8EB44D" stroke="black"/>
<path d="M211.144 121.337C185.796 118.324 173.181 131.604 170.042 138.62C172.435 137.025 175.323 137.364 176.468 137.734C180.545 125.06 201.284 121.522 211.144 121.337Z" fill="#52783B"/>
<path d="M233.079 124.883C229.18 118.767 222.518 120.636 219.674 122.334C225.878 122.069 229.349 126.138 230.31 128.206C232.703 127.408 233.153 125.658 233.079 124.883Z" fill="#52783B"/>
<path d="M237.843 141.5C239.025 143.31 243.205 146.264 250.473 143.605C248.626 147.705 243.515 153.022 237.843 141.5Z" fill="#52783B"/>
<path d="M247.703 155.238C245.746 158.451 240.435 164.721 234.852 164.101C237.511 167.794 243.803 171.191 247.703 155.238Z" fill="#52783B"/>
<path d="M236.403 172.521C231.344 175.438 219.674 181.029 213.47 180.054C212.215 183.71 215.043 187.322 236.403 172.521Z" fill="#52783B"/>
<path d="M208.596 187.144C202.502 188.917 189.009 191.62 183.779 188.252C183.041 191.465 186.97 195.741 208.596 187.144Z" fill="#52783B"/>
<path d="M161.29 170.083C170.419 179.655 183.558 180.349 188.986 179.5C181.01 184.286 174.658 183.784 172.479 182.934C171.187 182.417 168.491 181.051 168.048 179.722C167.605 178.392 166.46 177.395 165.943 177.063C162.309 174.758 155.418 176.767 152.427 178.06C157.833 174.958 160.588 171.45 161.29 170.083Z" fill="#52783B"/>
<path d="M163.616 164.544C166.098 162.594 168.86 157.38 169.931 155.016C169.931 157.409 171.408 161.701 172.147 163.547C170.374 165.674 165.721 165.098 163.616 164.544Z" fill="#52783B"/>
<path d="M233.071 151.069C231.033 153.019 226.904 152.251 225.094 151.623C226.601 160.752 221.955 167.983 219.444 170.457C230.08 169.216 232.96 157.015 233.071 151.069Z" fill="#B47933"/>
<path d="M195.181 141.542C188.888 142.694 182.071 141.579 179.449 140.877C174.309 152.31 181.813 165.804 186.207 171.122C183.46 155.7 191.045 144.976 195.181 141.542Z" fill="#FEFEF6"/>
</svg>
