<svg width="395" height="491" viewBox="0 0 395 491" fill="none" xmlns="http://www.w3.org/2000/svg">
<rect width="394.099" height="490.871" rx="20" fill="#202020" fill-opacity="0.5"/>
<path d="M51.2 73.36C52.4533 73.36 53.76 72.9867 55.12 72.24V68.96C55.12 68.3467 55.0667 67.4533 54.96 66.28C54.0267 66.0133 52.8133 65.7467 51.32 65.48L51.44 64.64C52.0533 64.72 52.64 64.76 53.2 64.76C55.5467 64.76 57.6933 64.1067 59.64 62.8L60 63.52C59.3867 64 58.9067 64.48 58.56 64.96C58.0533 69.6 57.7867 73.9333 57.76 77.96C56.9867 79.3733 55.7067 80.7333 53.92 82.04C52.16 83.3467 50.5467 84 49.08 84C48.68 84 48.3467 83.8933 48.08 83.68C47.8133 83.4667 47.68 83.1733 47.68 82.8C48.4533 82.2133 49.1067 81.5333 49.64 80.76L49.92 80.72C50.5067 81.1733 51.1867 81.4 51.96 81.4C52.7333 81.4 53.2667 81.32 53.56 81.16C54.6533 79.6933 55.2 77.2933 55.2 73.96C53.7333 75.1067 52.1067 75.9867 50.32 76.6C47.12 76.6 44.7067 75.6 43.08 73.6C41.48 71.5733 40.68 68.7867 40.68 65.24C40.68 61.6667 41.6533 58.36 43.6 55.32C45.5733 52.2533 48.2133 50.2667 51.52 49.36C54.2933 49.36 57.08 49.6133 59.88 50.12L59.84 51C59.1733 51 58.5333 51.12 57.92 51.36C57.2 53.04 56.76 54.92 56.6 57H55.6C55.36 55.9067 55.24 54.6667 55.24 53.28C53.9867 52.5867 52.4533 52.24 50.64 52.24C48.8267 52.24 47.3733 52.6933 46.28 53.6C44.92 55.92 44.24 58.8667 44.24 62.44C44.24 69.72 46.56 73.36 51.2 73.36ZM71.7856 76.48C69.1456 76.48 67.0123 75.6533 65.3856 74C63.759 72.32 62.9456 70.08 62.9456 67.28C62.9456 64.48 63.799 61.8533 65.5056 59.4C67.2123 56.9467 69.439 55.3733 72.1856 54.68C74.9323 54.68 77.0256 55.4667 78.4656 57.04C79.9056 58.5867 80.6256 60.8 80.6256 63.68C80.6256 66.56 79.839 69.16 78.2656 71.48C76.719 73.8 74.559 75.4667 71.7856 76.48ZM71.1056 57.12C69.9056 57.12 68.8656 57.4533 67.9856 58.12C66.8923 59.9867 66.3456 62.3333 66.3456 65.16C66.3456 68.4133 67.2523 70.9067 69.0656 72.64C70.0256 73.5733 71.159 74.04 72.4656 74.04C73.7723 74.04 74.8256 73.6933 75.6256 73C76.6923 71.1333 77.2256 68.8533 77.2256 66.16C77.2256 63.4667 76.7456 61.2933 75.7856 59.64C74.8256 57.96 73.2656 57.12 71.1056 57.12ZM84.0403 55.24L93.2403 54.96C95.6403 54.96 97.4403 55.32 98.6403 56.04C99.8403 56.7333 100.44 58.0133 100.44 59.88C100.44 61.16 100.04 62.2933 99.2403 63.28C98.467 64.2667 97.4403 65 96.1603 65.48L100.64 74.64C101.547 74.8 102.4 74.9867 103.2 75.2L103.04 76.28C101.92 76.0933 100.654 76 99.2403 76C97.8536 76 96.7603 76.0667 95.9603 76.2L95.8003 75.56C96.147 75.2133 96.3203 74.64 96.3203 73.84C96.3203 72.2133 95.387 69.6 93.5203 66C92.9603 65.8933 92.307 65.84 91.5603 65.84L91.6403 64.68H92.0403C95.187 64.68 96.7603 63.24 96.7603 60.36C96.7603 57.6933 95.4136 56.36 92.7203 56.36C91.8136 56.36 91.0003 56.5067 90.2803 56.8C90.0936 58.56 90.0003 61.5733 90.0003 65.84C90.0003 70.1067 90.1203 73.0533 90.3603 74.68C91.5336 74.8133 92.627 75.0133 93.6403 75.28L93.5203 76.28C92.1336 76.0933 90.5736 76 88.8403 76C87.1336 76 85.6003 76.1067 84.2403 76.32L84.0803 75.28C84.827 75.04 85.667 74.84 86.6003 74.68C86.867 72.68 87.0003 69.5733 87.0003 65.36C87.0003 61.12 86.8803 58.1867 86.6403 56.56C85.6003 56.2133 84.7336 56.04 84.0403 56.04V55.24ZM114.135 73.68C115.282 73.68 116.415 73.3467 117.535 72.68L117.335 68.4C116.588 68.16 115.682 67.9467 114.615 67.76L114.735 66.92C115.375 66.9733 115.842 67 116.135 67C117.975 67 119.642 66.5067 121.135 65.52L121.535 66.24C121.215 66.5333 120.922 66.84 120.655 67.16C120.282 70.7867 120.042 73.7733 119.935 76.12H119.095C118.882 75.1333 118.562 74.32 118.135 73.68C116.588 75.04 115.028 75.9733 113.455 76.48C110.868 76.48 108.842 75.6667 107.375 74.04C105.908 72.3867 105.175 70.1733 105.175 67.4C105.175 64.6 106.042 61.9733 107.775 59.52C109.508 57.0667 111.722 55.4533 114.415 54.68C116.362 54.68 118.562 54.88 121.015 55.28L120.975 56.16C120.468 56.16 119.988 56.2533 119.535 56.44C119.028 57.64 118.695 59.0667 118.535 60.72H117.535C117.322 59.8133 117.215 58.88 117.215 57.92C116.202 57.4133 115.002 57.16 113.615 57.16C112.228 57.16 111.082 57.5333 110.175 58.28C109.108 60.2267 108.575 62.5333 108.575 65.2C108.575 67.84 108.962 69.92 109.735 71.44C110.535 72.9333 112.002 73.68 114.135 73.68ZM133.583 76.48C130.943 76.48 128.809 75.6533 127.183 74C125.556 72.32 124.743 70.08 124.743 67.28C124.743 64.48 125.596 61.8533 127.303 59.4C129.009 56.9467 131.236 55.3733 133.983 54.68C136.729 54.68 138.823 55.4667 140.263 57.04C141.703 58.5867 142.423 60.8 142.423 63.68C142.423 66.56 141.636 69.16 140.063 71.48C138.516 73.8 136.356 75.4667 133.583 76.48ZM132.903 57.12C131.703 57.12 130.663 57.4533 129.783 58.12C128.689 59.9867 128.143 62.3333 128.143 65.16C128.143 68.4133 129.049 70.9067 130.863 72.64C131.823 73.5733 132.956 74.04 134.263 74.04C135.569 74.04 136.623 73.6933 137.423 73C138.489 71.1333 139.023 68.8533 139.023 66.16C139.023 63.4667 138.543 61.2933 137.583 59.64C136.623 57.96 135.063 57.12 132.903 57.12ZM155.477 76.28C154.091 76.0933 152.531 76 150.797 76C149.091 76 147.557 76.1067 146.197 76.32L146.037 75.28C146.891 75.0133 147.691 74.8133 148.437 74.68C148.677 72.6 148.797 69.88 148.797 66.52V64.64C148.797 61.0667 148.664 58.32 148.397 56.4C147.677 56.32 146.811 56.1067 145.797 55.76L145.917 54.72C147.437 55.0133 149.024 55.16 150.677 55.16C152.357 55.16 153.557 55.0667 154.277 54.88L154.357 55.56C153.637 55.7467 153.277 56.0533 153.277 56.48C153.277 56.8 153.584 57.48 154.197 58.52C154.837 59.5333 155.451 60.52 156.037 61.48C157.797 64.28 159.877 67.72 162.277 71.8L162.397 71.72V66.84C162.397 63.2667 162.211 60.5867 161.837 58.8C161.464 56.9867 160.824 55.9333 159.917 55.64L159.997 54.96C160.691 55.0933 161.731 55.16 163.117 55.16C164.504 55.16 165.931 55.0133 167.397 54.72L167.517 55.76C166.424 56.1067 165.504 56.32 164.757 56.4C164.491 58.5333 164.357 61.28 164.357 64.64V66.52C164.357 70.5733 164.491 73.32 164.757 74.76C165.877 74.9467 166.771 75.16 167.437 75.4L167.317 76.44C165.984 76.1467 164.731 76 163.557 76C162.384 76 161.477 76.0533 160.837 76.16C160.837 75.5733 160.424 74.5867 159.597 73.2C158.797 71.8133 158.064 70.5867 157.397 69.52C155.237 66.0267 153.117 62.48 151.037 58.88L150.877 58.96V64.32C150.877 69.6267 151.277 73.08 152.077 74.68C153.277 74.8133 154.451 75.0133 155.597 75.28L155.477 76.28ZM191.987 53.36C190.707 52.6133 189.187 52.24 187.427 52.24C185.667 52.24 184.24 52.6933 183.147 53.6C183.12 53.9733 183.107 54.3333 183.107 54.68C183.107 58.9467 185.387 61.08 189.947 61.08L189.747 62.56H189.267C187.16 62.56 185.413 62.9867 184.027 63.84C182.667 64.6667 181.987 66.0133 181.987 67.88C181.987 69.7467 182.627 71.2 183.907 72.24C185.187 73.2533 186.693 73.76 188.427 73.76C190.16 73.76 191.52 73.44 192.507 72.8C192.693 72.4267 192.787 71.84 192.787 71.04C192.787 70.24 192.653 69.6933 192.387 69.4L192.427 69.12C193.093 68.72 193.76 68.16 194.427 67.44C194.747 67.4667 195 67.6 195.187 67.84C195.4 68.08 195.507 68.36 195.507 68.68C195.507 70.3067 194.733 71.8933 193.187 73.44C191.667 74.96 190 76.0133 188.187 76.6C185.333 76.6 182.96 75.9067 181.067 74.52C179.173 73.1333 178.227 71.16 178.227 68.6C178.227 66.76 179 65.2267 180.547 64C182.093 62.7733 183.853 62.16 185.827 62.16V62C184.013 61.8933 182.493 61.3867 181.267 60.48C180.067 59.5733 179.467 58.32 179.467 56.72C180.427 55.0133 181.693 53.48 183.267 52.12C184.867 50.76 186.573 49.84 188.387 49.36C190.28 49.36 192.147 49.6133 193.987 50.12C194.413 49.9067 194.96 49.4933 195.627 48.88L196.467 49.44C194.707 51.5733 193.627 54.12 193.227 57.08H192.187C192.187 55.6133 192.12 54.3733 191.987 53.36ZM210.174 56.52C210.174 56.0933 209.814 55.8 209.094 55.64L209.254 54.96C210.054 55.0933 211.094 55.16 212.374 55.16C213.681 55.16 215.108 55.0533 216.654 54.84L216.814 55.88C216.121 56.12 215.241 56.32 214.174 56.48L207.534 66.48C207.534 69.9467 207.668 72.68 207.934 74.68C209.108 74.8133 210.201 75.0133 211.214 75.28L211.094 76.28C209.708 76.0933 208.108 76 206.294 76C204.508 76 202.934 76.1067 201.574 76.32L201.414 75.28C201.921 75.12 202.828 74.92 204.134 74.68C204.374 73.24 204.494 71.0667 204.494 68.16V67.32C201.401 61.08 199.441 57.4533 198.614 56.44C197.868 56.36 197.041 56.1733 196.134 55.88L196.294 54.84C197.361 55.0533 198.894 55.16 200.894 55.16C202.894 55.16 204.534 55.0533 205.814 54.84L205.974 55.84C204.721 56.1333 203.668 56.3333 202.814 56.44C203.721 59.2133 204.988 62.1333 206.614 65.2C208.988 60.5867 210.174 57.6933 210.174 56.52ZM220.568 66.12C220.648 68.4933 221.088 70.3467 221.888 71.68C222.688 73.0133 224.048 73.68 225.968 73.68C227.888 73.68 229.661 72.8667 231.288 71.24L231.848 71.8C230.061 74.0667 227.915 75.6267 225.408 76.48C222.821 76.48 220.795 75.6667 219.328 74.04C217.861 72.3867 217.128 70.1733 217.128 67.4C217.128 64.6 217.995 61.9733 219.728 59.52C221.461 57.0667 223.675 55.4533 226.368 54.68C228.315 54.68 230.515 54.88 232.968 55.28L232.928 56.16C232.421 56.16 231.941 56.2533 231.488 56.44C230.981 57.64 230.648 59.0667 230.488 60.72H229.488C229.275 59.8133 229.168 58.88 229.168 57.92C228.155 57.4133 226.955 57.16 225.568 57.16C224.181 57.16 223.035 57.5333 222.128 58.28C221.221 59.9333 220.701 61.9067 220.568 64.2C221.688 64.3867 222.888 64.48 224.168 64.48C226.381 64.48 227.715 64.0133 228.168 63.08L229.008 63.2C228.768 64 228.648 64.7867 228.648 65.56C228.648 66.3333 228.741 67.28 228.928 68.4L227.968 68.56C227.675 67.76 227.461 66.9333 227.328 66.08C226.261 65.9733 225.195 65.92 224.128 65.92C223.088 65.92 221.901 65.9867 220.568 66.12ZM237.698 72.96C238.924 73.4667 240.138 73.72 241.338 73.72C242.538 73.72 243.498 73.44 244.218 72.88C244.938 72.32 245.298 71.52 245.298 70.48C245.298 69.4133 243.791 68.0933 240.778 66.52C239.631 65.9333 238.578 65.2267 237.618 64.4C236.684 63.5467 236.218 62.7067 236.218 61.88C236.218 60.4667 236.964 59.04 238.458 57.6C239.951 56.16 241.484 55.1867 243.058 54.68C245.031 54.68 246.818 54.88 248.418 55.28V56C247.298 57.12 246.671 58.6533 246.538 60.6H245.538C245.538 59.8533 245.471 58.92 245.338 57.8C244.404 57.3733 243.404 57.16 242.338 57.16C241.271 57.16 240.378 57.4 239.658 57.88C238.964 58.3333 238.618 59 238.618 59.88C238.618 60.4933 239.084 61.16 240.018 61.88C240.978 62.6 242.018 63.24 243.138 63.8C244.258 64.36 245.284 65.0533 246.218 65.88C247.178 66.7067 247.658 67.5333 247.658 68.36C247.658 69.96 246.951 71.56 245.538 73.16C244.124 74.7333 242.564 75.84 240.858 76.48C239.178 76.48 237.604 76.28 236.138 75.88C235.711 76.0667 235.271 76.3733 234.818 76.8L234.098 76.28C235.591 74.6533 236.418 72.64 236.578 70.24H237.578C237.578 71.1733 237.618 72.08 237.698 72.96Z" fill="#FAF9F6"/>
<path d="M46.1335 380V371.624L46.3015 372.8L39.5095 363.2H42.6295L47.8135 370.64L47.2135 370.568L51.8935 363.2H54.8695L48.3655 373.064L48.7255 371.432V380H46.1335ZM63.6535 380.24C62.4695 380.24 61.3735 380.024 60.3655 379.592C59.3735 379.16 58.5015 378.56 57.7495 377.792C57.0135 377.008 56.4375 376.096 56.0215 375.056C55.6215 374 55.4215 372.848 55.4215 371.6C55.4215 370.352 55.6215 369.208 56.0215 368.168C56.4375 367.112 57.0135 366.2 57.7495 365.432C58.5015 364.648 59.3735 364.04 60.3655 363.608C61.3735 363.176 62.4695 362.96 63.6535 362.96C64.8375 362.96 65.9255 363.176 66.9175 363.608C67.9255 364.04 68.7975 364.648 69.5335 365.432C70.2855 366.216 70.8615 367.136 71.2615 368.192C71.6775 369.232 71.8855 370.368 71.8855 371.6C71.8855 372.832 71.6775 373.976 71.2615 375.032C70.8615 376.072 70.2855 376.984 69.5335 377.768C68.7975 378.552 67.9255 379.16 66.9175 379.592C65.9255 380.024 64.8375 380.24 63.6535 380.24ZM63.6535 377.72C64.4695 377.72 65.2135 377.568 65.8855 377.264C66.5735 376.96 67.1655 376.536 67.6615 375.992C68.1575 375.432 68.5415 374.784 68.8135 374.048C69.1015 373.296 69.2455 372.48 69.2455 371.6C69.2455 370.72 69.1015 369.912 68.8135 369.176C68.5415 368.424 68.1575 367.776 67.6615 367.232C67.1655 366.672 66.5735 366.24 65.8855 365.936C65.2135 365.632 64.4695 365.48 63.6535 365.48C62.8375 365.48 62.0855 365.632 61.3975 365.936C60.7255 366.24 60.1335 366.664 59.6215 367.208C59.1255 367.752 58.7415 368.4 58.4695 369.152C58.1975 369.888 58.0615 370.704 58.0615 371.6C58.0615 372.48 58.1975 373.296 58.4695 374.048C58.7415 374.8 59.1255 375.448 59.6215 375.992C60.1335 376.536 60.7255 376.96 61.3975 377.264C62.0855 377.568 62.8375 377.72 63.6535 377.72ZM81.923 380.144C80.627 380.144 79.467 379.864 78.443 379.304C77.419 378.728 76.611 377.944 76.019 376.952C75.443 375.944 75.155 374.808 75.155 373.544V363.176H77.747V373.328C77.747 374.144 77.939 374.88 78.323 375.536C78.707 376.176 79.211 376.688 79.835 377.072C80.475 377.456 81.171 377.648 81.923 377.648C82.723 377.648 83.443 377.456 84.083 377.072C84.739 376.688 85.259 376.176 85.643 375.536C86.027 374.88 86.219 374.144 86.219 373.328V363.176H88.691V373.544C88.691 374.808 88.395 375.944 87.803 376.952C87.227 377.944 86.427 378.728 85.403 379.304C84.379 379.864 83.219 380.144 81.923 380.144ZM99.8872 380V363.2H102.479V377.504H110.351V380H99.8872ZM120.818 380.24C119.634 380.24 118.538 380.024 117.53 379.592C116.538 379.16 115.666 378.56 114.914 377.792C114.178 377.008 113.602 376.096 113.186 375.056C112.786 374 112.586 372.848 112.586 371.6C112.586 370.352 112.786 369.208 113.186 368.168C113.602 367.112 114.178 366.2 114.914 365.432C115.666 364.648 116.538 364.04 117.53 363.608C118.538 363.176 119.634 362.96 120.818 362.96C122.002 362.96 123.09 363.176 124.082 363.608C125.09 364.04 125.962 364.648 126.698 365.432C127.45 366.216 128.026 367.136 128.426 368.192C128.842 369.232 129.05 370.368 129.05 371.6C129.05 372.832 128.842 373.976 128.426 375.032C128.026 376.072 127.45 376.984 126.698 377.768C125.962 378.552 125.09 379.16 124.082 379.592C123.09 380.024 122.002 380.24 120.818 380.24ZM120.818 377.72C121.634 377.72 122.378 377.568 123.05 377.264C123.738 376.96 124.33 376.536 124.826 375.992C125.322 375.432 125.706 374.784 125.978 374.048C126.266 373.296 126.41 372.48 126.41 371.6C126.41 370.72 126.266 369.912 125.978 369.176C125.706 368.424 125.322 367.776 124.826 367.232C124.33 366.672 123.738 366.24 123.05 365.936C122.378 365.632 121.634 365.48 120.818 365.48C120.002 365.48 119.25 365.632 118.562 365.936C117.89 366.24 117.298 366.664 116.786 367.208C116.29 367.752 115.906 368.4 115.634 369.152C115.362 369.888 115.226 370.704 115.226 371.6C115.226 372.48 115.362 373.296 115.634 374.048C115.906 374.8 116.29 375.448 116.786 375.992C117.298 376.536 117.89 376.96 118.562 377.264C119.25 377.568 120.002 377.72 120.818 377.72ZM137.743 380.24C136.831 380.24 135.983 380.12 135.199 379.88C134.431 379.64 133.727 379.28 133.087 378.8C132.463 378.304 131.903 377.696 131.407 376.976L133.183 374.936C133.967 376.056 134.719 376.832 135.439 377.264C136.159 377.696 137.015 377.912 138.007 377.912C138.615 377.912 139.167 377.816 139.663 377.624C140.159 377.432 140.551 377.168 140.839 376.832C141.127 376.496 141.271 376.112 141.271 375.68C141.271 375.392 141.223 375.12 141.127 374.864C141.031 374.608 140.879 374.376 140.671 374.168C140.479 373.96 140.223 373.768 139.903 373.592C139.599 373.416 139.239 373.264 138.823 373.136C138.407 372.992 137.927 372.872 137.383 372.776C136.519 372.6 135.767 372.368 135.127 372.08C134.487 371.792 133.951 371.432 133.519 371C133.087 370.568 132.767 370.08 132.559 369.536C132.351 368.976 132.247 368.352 132.247 367.664C132.247 366.992 132.391 366.368 132.679 365.792C132.983 365.216 133.391 364.72 133.903 364.304C134.431 363.872 135.047 363.544 135.751 363.32C136.455 363.08 137.215 362.96 138.031 362.96C138.895 362.96 139.687 363.072 140.407 363.296C141.127 363.52 141.767 363.856 142.327 364.304C142.887 364.736 143.351 365.272 143.719 365.912L141.895 367.712C141.575 367.184 141.215 366.744 140.815 366.392C140.415 366.024 139.975 365.752 139.495 365.576C139.015 365.384 138.503 365.288 137.959 365.288C137.335 365.288 136.791 365.384 136.327 365.576C135.863 365.768 135.495 366.04 135.223 366.392C134.967 366.728 134.839 367.128 134.839 367.592C134.839 367.928 134.903 368.24 135.031 368.528C135.159 368.8 135.351 369.048 135.607 369.272C135.879 369.48 136.239 369.672 136.687 369.848C137.135 370.008 137.671 370.152 138.295 370.28C139.175 370.472 139.959 370.72 140.647 371.024C141.335 371.312 141.919 371.656 142.399 372.056C142.879 372.456 143.239 372.904 143.479 373.4C143.735 373.896 143.863 374.432 143.863 375.008C143.863 376.08 143.615 377.008 143.119 377.792C142.623 378.576 141.919 379.184 141.007 379.616C140.095 380.032 139.007 380.24 137.743 380.24ZM150.728 380V365.696H146.024V363.2H158.168V365.696H153.32V380H150.728ZM166.338 380L172.842 363.2H175.482L181.938 380H179.178L175.338 369.872C175.29 369.76 175.194 369.488 175.05 369.056C174.922 368.624 174.77 368.144 174.594 367.616C174.418 367.088 174.258 366.608 174.114 366.176C173.97 365.728 173.874 365.44 173.826 365.312L174.378 365.288C174.282 365.56 174.162 365.904 174.018 366.32C173.89 366.736 173.746 367.176 173.586 367.64C173.442 368.104 173.298 368.544 173.154 368.96C173.01 369.36 172.89 369.696 172.794 369.968L168.978 380H166.338ZM169.218 375.824L170.178 373.328H177.81L178.914 375.824H169.218ZM184.895 380V363.2H187.487V377.504H195.359V380H184.895ZM199.262 380V363.2H201.854V377.504H209.726V380H199.262ZM227.388 380.24C226.204 380.24 225.108 380.024 224.1 379.592C223.108 379.16 222.236 378.56 221.484 377.792C220.748 377.008 220.172 376.096 219.756 375.056C219.356 374 219.156 372.848 219.156 371.6C219.156 370.352 219.356 369.208 219.756 368.168C220.172 367.112 220.748 366.2 221.484 365.432C222.236 364.648 223.108 364.04 224.1 363.608C225.108 363.176 226.204 362.96 227.388 362.96C228.572 362.96 229.66 363.176 230.652 363.608C231.66 364.04 232.532 364.648 233.268 365.432C234.02 366.216 234.596 367.136 234.996 368.192C235.412 369.232 235.62 370.368 235.62 371.6C235.62 372.832 235.412 373.976 234.996 375.032C234.596 376.072 234.02 376.984 233.268 377.768C232.532 378.552 231.66 379.16 230.652 379.592C229.66 380.024 228.572 380.24 227.388 380.24ZM227.388 377.72C228.204 377.72 228.948 377.568 229.62 377.264C230.308 376.96 230.9 376.536 231.396 375.992C231.892 375.432 232.276 374.784 232.548 374.048C232.836 373.296 232.98 372.48 232.98 371.6C232.98 370.72 232.836 369.912 232.548 369.176C232.276 368.424 231.892 367.776 231.396 367.232C230.9 366.672 230.308 366.24 229.62 365.936C228.948 365.632 228.204 365.48 227.388 365.48C226.572 365.48 225.82 365.632 225.132 365.936C224.46 366.24 223.868 366.664 223.356 367.208C222.86 367.752 222.476 368.4 222.204 369.152C221.932 369.888 221.796 370.704 221.796 371.6C221.796 372.48 221.932 373.296 222.204 374.048C222.476 374.8 222.86 375.448 223.356 375.992C223.868 376.536 224.46 376.96 225.132 377.264C225.82 377.568 226.572 377.72 227.388 377.72ZM239.129 380V363.2H241.721V380H239.129ZM240.281 372.848V370.352H248.945V372.848H240.281ZM240.281 365.696V363.2H250.025V365.696H240.281ZM264.805 380V371.624L264.973 372.8L258.181 363.2H261.301L266.485 370.64L265.885 370.568L270.565 363.2H273.541L267.037 373.064L267.397 371.432V380H264.805ZM282.325 380.24C281.141 380.24 280.045 380.024 279.037 379.592C278.045 379.16 277.173 378.56 276.421 377.792C275.685 377.008 275.109 376.096 274.693 375.056C274.293 374 274.093 372.848 274.093 371.6C274.093 370.352 274.293 369.208 274.693 368.168C275.109 367.112 275.685 366.2 276.421 365.432C277.173 364.648 278.045 364.04 279.037 363.608C280.045 363.176 281.141 362.96 282.325 362.96C283.509 362.96 284.597 363.176 285.589 363.608C286.597 364.04 287.469 364.648 288.205 365.432C288.957 366.216 289.533 367.136 289.933 368.192C290.349 369.232 290.557 370.368 290.557 371.6C290.557 372.832 290.349 373.976 289.933 375.032C289.533 376.072 288.957 376.984 288.205 377.768C287.469 378.552 286.597 379.16 285.589 379.592C284.597 380.024 283.509 380.24 282.325 380.24ZM282.325 377.72C283.141 377.72 283.885 377.568 284.557 377.264C285.245 376.96 285.837 376.536 286.333 375.992C286.829 375.432 287.213 374.784 287.485 374.048C287.773 373.296 287.917 372.48 287.917 371.6C287.917 370.72 287.773 369.912 287.485 369.176C287.213 368.424 286.829 367.776 286.333 367.232C285.837 366.672 285.245 366.24 284.557 365.936C283.885 365.632 283.141 365.48 282.325 365.48C281.509 365.48 280.757 365.632 280.069 365.936C279.397 366.24 278.805 366.664 278.293 367.208C277.797 367.752 277.413 368.4 277.141 369.152C276.869 369.888 276.733 370.704 276.733 371.6C276.733 372.48 276.869 373.296 277.141 374.048C277.413 374.8 277.797 375.448 278.293 375.992C278.805 376.536 279.397 376.96 280.069 377.264C280.757 377.568 281.509 377.72 282.325 377.72ZM300.595 380.144C299.299 380.144 298.139 379.864 297.115 379.304C296.091 378.728 295.283 377.944 294.691 376.952C294.115 375.944 293.827 374.808 293.827 373.544V363.176H296.419V373.328C296.419 374.144 296.611 374.88 296.995 375.536C297.379 376.176 297.883 376.688 298.507 377.072C299.147 377.456 299.843 377.648 300.595 377.648C301.395 377.648 302.115 377.456 302.755 377.072C303.411 376.688 303.931 376.176 304.315 375.536C304.699 374.88 304.891 374.144 304.891 373.328V363.176H307.363V373.544C307.363 374.808 307.067 375.944 306.475 376.952C305.899 377.944 305.099 378.728 304.075 379.304C303.051 379.864 301.891 380.144 300.595 380.144ZM311.832 380V363.2H318.984C319.944 363.2 320.824 363.44 321.624 363.92C322.44 364.384 323.088 365.024 323.568 365.84C324.048 366.64 324.288 367.544 324.288 368.552C324.288 369.464 324.048 370.312 323.568 371.096C323.088 371.88 322.448 372.512 321.648 372.992C320.848 373.456 319.96 373.688 318.984 373.688H314.424V380H311.832ZM321.816 380L317.544 372.416L320.208 371.816L324.96 380.024L321.816 380ZM314.424 371.192H319.224C319.688 371.192 320.104 371.08 320.472 370.856C320.84 370.616 321.128 370.296 321.336 369.896C321.544 369.48 321.648 369.024 321.648 368.528C321.648 367.968 321.512 367.48 321.24 367.064C320.984 366.632 320.616 366.296 320.136 366.056C319.672 365.816 319.144 365.696 318.552 365.696H314.424V371.192ZM41.6215 415V398.2H48.4615C49.3735 398.2 50.1975 398.432 50.9335 398.896C51.6855 399.344 52.2855 399.96 52.7335 400.744C53.1815 401.528 53.4055 402.4 53.4055 403.36C53.4055 404.32 53.1815 405.192 52.7335 405.976C52.2855 406.76 51.6855 407.392 50.9335 407.872C50.1975 408.336 49.3735 408.568 48.4615 408.568H44.2135V415H41.6215ZM44.2135 406.072H48.4135C48.8455 406.072 49.2375 405.952 49.5895 405.712C49.9415 405.456 50.2215 405.128 50.4295 404.728C50.6535 404.312 50.7655 403.856 50.7655 403.36C50.7655 402.864 50.6535 402.416 50.4295 402.016C50.2215 401.616 49.9415 401.296 49.5895 401.056C49.2375 400.816 48.8455 400.696 48.4135 400.696H44.2135V406.072ZM63.8645 415.24C62.6805 415.24 61.5845 415.024 60.5765 414.592C59.5845 414.16 58.7125 413.56 57.9605 412.792C57.2245 412.008 56.6485 411.096 56.2325 410.056C55.8325 409 55.6325 407.848 55.6325 406.6C55.6325 405.352 55.8325 404.208 56.2325 403.168C56.6485 402.112 57.2245 401.2 57.9605 400.432C58.7125 399.648 59.5845 399.04 60.5765 398.608C61.5845 398.176 62.6805 397.96 63.8645 397.96C65.0485 397.96 66.1365 398.176 67.1285 398.608C68.1365 399.04 69.0085 399.648 69.7445 400.432C70.4965 401.216 71.0725 402.136 71.4725 403.192C71.8885 404.232 72.0965 405.368 72.0965 406.6C72.0965 407.832 71.8885 408.976 71.4725 410.032C71.0725 411.072 70.4965 411.984 69.7445 412.768C69.0085 413.552 68.1365 414.16 67.1285 414.592C66.1365 415.024 65.0485 415.24 63.8645 415.24ZM63.8645 412.72C64.6805 412.72 65.4245 412.568 66.0965 412.264C66.7845 411.96 67.3765 411.536 67.8725 410.992C68.3685 410.432 68.7525 409.784 69.0245 409.048C69.3125 408.296 69.4565 407.48 69.4565 406.6C69.4565 405.72 69.3125 404.912 69.0245 404.176C68.7525 403.424 68.3685 402.776 67.8725 402.232C67.3765 401.672 66.7845 401.24 66.0965 400.936C65.4245 400.632 64.6805 400.48 63.8645 400.48C63.0485 400.48 62.2965 400.632 61.6085 400.936C60.9365 401.24 60.3445 401.664 59.8325 402.208C59.3365 402.752 58.9525 403.4 58.6805 404.152C58.4085 404.888 58.2725 405.704 58.2725 406.6C58.2725 407.48 58.4085 408.296 58.6805 409.048C58.9525 409.8 59.3365 410.448 59.8325 410.992C60.3445 411.536 60.9365 411.96 61.6085 412.264C62.2965 412.568 63.0485 412.72 63.8645 412.72ZM74.6303 415V412.6H77.3423V400.6H74.6303V398.2H82.6463V400.6H79.9343V412.6H82.6463V415H74.6303ZM86.7153 415V398.2H89.0433L99.3153 411.952L98.9313 412.168C98.8673 411.768 98.8113 411.336 98.7633 410.872C98.7153 410.392 98.6673 409.888 98.6193 409.36C98.5873 408.816 98.5553 408.248 98.5233 407.656C98.5073 407.048 98.4913 406.416 98.4753 405.76C98.4593 405.104 98.4513 404.424 98.4513 403.72V398.2H101.043V415H98.6673L88.5633 401.752L88.8273 401.416C88.9073 402.392 88.9713 403.224 89.0193 403.912C89.0833 404.584 89.1313 405.16 89.1633 405.64C89.2113 406.104 89.2433 406.488 89.2593 406.792C89.2753 407.08 89.2833 407.32 89.2833 407.512C89.2993 407.704 89.3073 407.872 89.3073 408.016V415H86.7153ZM108.939 415V400.696H104.235V398.2H116.379V400.696H111.531V415H108.939ZM124.759 415.24C123.847 415.24 122.999 415.12 122.215 414.88C121.447 414.64 120.743 414.28 120.103 413.8C119.479 413.304 118.919 412.696 118.423 411.976L120.199 409.936C120.983 411.056 121.735 411.832 122.455 412.264C123.175 412.696 124.031 412.912 125.023 412.912C125.631 412.912 126.183 412.816 126.679 412.624C127.175 412.432 127.567 412.168 127.855 411.832C128.143 411.496 128.287 411.112 128.287 410.68C128.287 410.392 128.239 410.12 128.143 409.864C128.047 409.608 127.895 409.376 127.687 409.168C127.495 408.96 127.239 408.768 126.919 408.592C126.615 408.416 126.255 408.264 125.839 408.136C125.423 407.992 124.943 407.872 124.399 407.776C123.535 407.6 122.783 407.368 122.143 407.08C121.503 406.792 120.967 406.432 120.535 406C120.103 405.568 119.783 405.08 119.575 404.536C119.367 403.976 119.263 403.352 119.263 402.664C119.263 401.992 119.407 401.368 119.695 400.792C119.999 400.216 120.407 399.72 120.919 399.304C121.447 398.872 122.063 398.544 122.767 398.32C123.471 398.08 124.231 397.96 125.047 397.96C125.911 397.96 126.703 398.072 127.423 398.296C128.143 398.52 128.783 398.856 129.343 399.304C129.903 399.736 130.367 400.272 130.735 400.912L128.911 402.712C128.591 402.184 128.231 401.744 127.831 401.392C127.431 401.024 126.991 400.752 126.511 400.576C126.031 400.384 125.519 400.288 124.975 400.288C124.351 400.288 123.807 400.384 123.343 400.576C122.879 400.768 122.511 401.04 122.239 401.392C121.983 401.728 121.855 402.128 121.855 402.592C121.855 402.928 121.919 403.24 122.047 403.528C122.175 403.8 122.367 404.048 122.623 404.272C122.895 404.48 123.255 404.672 123.703 404.848C124.151 405.008 124.687 405.152 125.311 405.28C126.191 405.472 126.975 405.72 127.663 406.024C128.351 406.312 128.935 406.656 129.415 407.056C129.895 407.456 130.255 407.904 130.495 408.4C130.751 408.896 130.879 409.432 130.879 410.008C130.879 411.08 130.631 412.008 130.135 412.792C129.639 413.576 128.935 414.184 128.023 414.616C127.111 415.032 126.023 415.24 124.759 415.24ZM134.287 409.216C134.175 408.208 134.071 407.168 133.975 406.096C133.895 405.008 133.831 403.936 133.783 402.88C133.735 401.824 133.711 400.824 133.711 399.88V398.2H136.303V399.88C136.303 400.872 136.279 401.912 136.231 403C136.183 404.088 136.111 405.168 136.015 406.24C135.935 407.296 135.839 408.288 135.727 409.216H134.287ZM134.935 415.264C134.407 415.264 133.999 415.112 133.711 414.808C133.423 414.488 133.279 414.04 133.279 413.464C133.279 412.936 133.431 412.504 133.735 412.168C134.039 411.832 134.439 411.664 134.935 411.664C135.463 411.664 135.871 411.824 136.159 412.144C136.447 412.448 136.591 412.888 136.591 413.464C136.591 413.992 136.439 414.424 136.135 414.76C135.831 415.096 135.431 415.264 134.935 415.264Z" fill="#FAF9F6"/>
<path d="M137.695 181.064C139.751 182.583 140.854 183.884 141.499 184.366C141.761 184.612 142.629 185.448 142.751 185.611C142.954 185.934 143.325 186.181 143.876 187.054C144.591 187.926 145.345 188.715 145.954 189.546C146.667 190.518 147.378 191.619 147.868 192.543C148.256 193.274 148.591 194.281 149.111 195.197C149.558 195.987 149.914 197.063 150.374 198.075C150.861 199.148 151.091 199.8 151.351 200.505C151.717 201.499 151.942 202.21 152.186 203.344C152.531 204.943 152.846 205.757 152.632 209.08C152.531 210.659 152.523 211.956 152.388 213.228C152.286 214.184 152.433 216.046 151.428 219.211C150.695 221.518 150.312 222.902 149.024 225.345C148.331 226.659 147.323 228.345 145.6 231.221C145.033 232.169 144.392 233.432 143.317 234.767C142.505 235.776 141.663 236.567 140.666 237.543C139.406 238.777 138.207 239.986 137.206 240.821C135.823 241.975 133.574 243.827 132.076 244.606C131.137 245.094 130.164 245.664 128.918 246.125C127.542 246.635 125.488 247.418 122.192 248.07C120.455 248.414 118.091 248.677 115.125 249.143C114.355 249.264 112.862 249.203 110.865 249.325C109.873 249.386 107.92 249.59 105.177 249.384C103.556 249.263 102.69 249.26 102.007 249.141C100.125 248.816 97.6362 248.091 96.0977 247.559C94.1043 246.871 93.1363 246.45 92.0253 246C90.0637 245.206 87.7695 243.945 85.6906 242.697C84.4073 241.926 82.9166 241.108 81.925 240.308C81.0658 239.614 79.1965 238.165 78.0952 237.126C76.9054 236.004 75.3589 234.63 74.4896 233.519C73.7765 232.608 73.15 231.864 72.33 230.702C71.1218 228.991 69.4603 227.091 68.1543 224.563C67.7901 223.858 67.1352 222.884 66.3167 220.945C65.3005 218.539 64.6515 216.636 64.4076 215.505C64.1638 214.373 63.8666 213.113 63.8387 211.322C63.7984 208.732 63.8699 207.086 63.9004 206.677C64.0037 205.293 64.1824 204.008 64.3294 202.984C64.5329 201.567 64.8962 199.472 65.68 196.749C66.1328 195.176 66.7378 193.25 67.5182 191.296C68.2985 189.341 69.1656 187.381 70.0225 185.978C71.4641 183.617 72.551 182.236 73.8138 181.082C75.8298 179.239 77.5722 177.832 78.2033 177.303C78.5883 176.981 79.3478 176.614 80.2004 175.986C80.6661 175.644 82.4466 174.564 85.1376 173.33C86.4533 172.726 86.9322 172.498 87.5374 172.279C88.6569 171.874 90.6545 171.206 94.3952 170.799C96.8274 170.535 100.296 170.193 102.55 170.236C105.812 170.298 107.074 170.386 108.679 170.604C110.047 170.79 112.467 171.151 114.529 171.559C116.591 171.967 118.257 172.37 119.549 172.815C121.781 173.582 123.276 174.046 126.03 175.279C128.287 176.289 132.175 178.062 134.178 179.059C136.359 180.143 136.746 180.363 137.695 181.064Z" fill="#F2EB5C"/>
<path d="M94.277 174.019C84.3329 175.386 72.0582 190.178 70.5044 197.481C71.996 204.814 83.2452 207.787 88.6834 208.357C89.5535 194.56 98.3685 185.62 102.667 182.875C101.424 177.655 96.5558 174.796 94.277 174.019Z" fill="#FEFEF6"/>
<path d="M123.646 222.905C122.03 230.238 114.686 238.39 111.216 241.55C135.952 244.284 142.654 220.833 142.913 208.765C138.811 218.212 128.359 222.128 123.646 222.905Z" fill="#B47933"/>
<path d="M108.817 179.583L108.84 179.556C109.139 179.158 109.533 178.664 109.633 178.531C109.83 178.235 110.193 177.608 110.639 177.081C111.151 176.685 111.633 176.09 112.288 175.713C112.833 175.399 113.44 174.83 114.184 174.707C115.383 174.511 117.032 174.549 117.564 174.808C118.174 175.106 118.775 175.433 118.997 176.079C119.195 176.657 119.389 178.78 119.226 180.069L119.225 180.08C119.127 180.857 119.003 181.839 118.814 182.692C118.566 183.813 118.44 184.484 118.286 185.099C118.006 186.221 117.756 187.059 117.544 187.802C117.28 188.728 116.996 189.972 116.604 191.248C116.356 192.057 115.719 193.894 115.302 195.419C115.003 196.515 114.539 198.104 114.178 199.537C113.584 201.894 113.063 203.827 112.911 204.621C112.664 205.909 112.409 207.557 112.12 208.89C111.938 209.731 111.721 210.799 111.328 212.022C111.014 212.999 110.663 214.192 110.405 215.055C110.124 215.999 109.87 217.201 109.614 218.023C109.299 219.036 108.959 220.691 108.624 221.932C108.278 223.218 107.899 224.188 107.785 225.344C107.685 226.35 107.452 227.344 107.24 228.427C107.059 229.349 107.049 230.017 106.844 231.132C106.596 232.485 106.407 233.394 106.284 234.297C106.136 235.385 105.853 236.567 105.591 237.775C105.409 238.616 105.323 239.508 104.981 240.363C104.717 241.022 104.764 241.767 103.33 243.795C102.539 244.914 101.746 245.969 100.905 245.9C99.668 245.798 98.6712 245.284 97.9883 244.71C97.1652 244.017 96.8031 243.533 96.3744 242.996C95.9782 242.5 95.4294 241.677 95.1052 240.703C94.8584 239.962 94.6144 239.394 94.4295 238.279C94.2985 237.488 94.2293 236.816 93.9844 235.855C93.7702 235.015 93.6262 234.226 93.5066 233.218C93.3745 232.105 93.3513 230.511 93.0115 229.029C92.781 228.024 92.7429 227.229 92.6 225.616C92.5505 225.058 92.2563 222.998 92.5347 220.218C92.7177 218.391 93.0731 216.963 93.3597 215.179C93.5744 213.842 93.8229 212.737 94.2505 210.808C94.6308 209.092 95.162 207.684 95.7017 205.433C96.081 203.851 96.3455 202.651 96.6736 201.546C96.9377 200.656 97.1654 200.01 97.6796 198.694C98.0615 197.716 98.6991 195.928 99.345 194.853C99.5423 194.525 100.27 192.951 101.508 190.957C102.015 190.139 102.27 189.852 102.73 189.024C103.636 187.393 104.407 185.998 104.819 185.405C105.082 185.028 105.362 184.427 106.061 183.37C107.733 180.838 108.203 180.293 108.817 179.583Z" fill="#DF913E"/>
<path d="M98.4809 238.131C99.1024 238.908 100.236 243 100.495 245.123C100.754 244.45 100.806 242.948 100.967 241.239C101.118 239.63 101.683 238.727 101.899 238.287C102.204 237.665 103.018 236.733 102.521 235.49C102.023 234.247 102.003 233.211 102.055 232.849C102.158 232.02 102.521 229.71 103.142 227.1C103.919 223.837 105.784 223.371 106.716 222.438C107.648 221.506 107.648 219.797 105.939 215.136C104.572 211.407 106.509 207.367 107.648 205.813C108.891 203.949 111.595 200.002 112.465 199.132C113.335 198.262 112.931 196.698 112.62 196.024C112.413 195.817 111.905 194.781 111.533 192.295C111.066 189.188 112.776 185.303 113.397 183.594C113.894 182.227 115.158 181.367 115.728 181.108C115.987 181.108 116.442 180.829 116.194 179.71C115.945 178.591 116.09 177.069 116.194 176.447C115.324 177.441 114.174 177.897 113.708 178.001C113.19 178.208 112.247 178.809 112.62 179.555C112.993 180.3 112.361 181.626 111.999 182.196C109.72 185.148 104.789 191.301 103.298 192.295C101.806 193.29 101.64 195.921 101.744 197.112C101.899 198.873 102.055 203.451 101.433 207.678C100.812 211.904 97.2379 216.689 95.5288 218.554C95.1662 219.124 94.814 220.512 96.3056 221.506C97.7973 222.501 98.1702 224.821 98.1702 225.857C98.1702 225.857 98.947 233.936 98.4809 234.868C98.0148 235.801 97.8744 237.373 98.4809 238.131Z" fill="#0E151B"/>
<path d="M93.1931 170.543C93.9389 164.825 92.2609 161.324 91.3286 160.288C140.676 152.084 165.443 179.658 171.658 194.471C170.788 197.081 167.67 198.251 166.22 198.51C162.242 194.408 153.479 194.108 149.595 194.471C134.927 171.351 105.882 168.885 93.1931 170.543Z" fill="#8EB44D" stroke="black"/>
<path d="M66.0255 159.449C74.0174 157.469 85.1231 158.896 89.7745 160.443C91.931 162.176 92.1612 168.119 91.9498 170.543C86.4949 169.924 77.1783 177.913 73.1612 181.73C70.3703 176.284 63.4355 173.065 60.3169 172.137C59.0483 168.052 63.594 161.977 66.0255 159.449Z" fill="#8EB44D" stroke="black"/>
<path d="M48.7551 174.582C50.8682 172.594 56.4889 173.184 59.4411 173.184C66.8991 175.546 71.1461 180.487 72.3373 182.662C68.8569 188.255 65.1849 198.821 63.2686 204.259C56.6806 208.237 48.5079 208.299 45.245 207.833C43.8466 206.072 40.7998 201.898 40.6755 196.801C40.5202 190.431 46.1137 177.068 48.7551 174.582Z" fill="#8EB44D" stroke="black"/>
<path d="M42.8514 210.941C42.7271 210.071 43.4211 209.128 44.2498 208.455C51.4593 210.692 59.891 207.522 63.2056 205.658C63.0813 212.246 68.2294 222.905 70.3529 227.721C68.9856 230.207 60.7714 233.729 56.8352 235.179C54.3492 234.558 51.4488 232.434 50.3094 231.45C45.182 221.04 43.0068 212.028 42.8514 210.941Z" fill="#8EB44D" stroke="black"/>
<path d="M95.8345 258.33C85.7662 258.206 66.1059 242.899 57.3013 235.338C64.3864 233.349 69.4724 230.159 71.1298 228.812C75.9775 233.784 83.3527 238.701 86.6673 240.462C93.2553 243.321 98.0098 247.35 99.5636 249.008C100.061 252.364 97.2847 256.621 95.8345 258.33Z" fill="#8EB44D" stroke="black"/>
<path d="M96.9219 258.797C97.792 257.305 99.874 251.856 100.806 249.319C108.14 249.07 119.451 248.438 123.491 247.92C128.96 249.785 137.216 256.777 141.204 260.195C141.577 264.173 137.423 270.139 135.3 272.625C129.085 273.868 107.021 263.872 96.9219 258.797Z" fill="#8EB44D" stroke="black"/>
<path d="M153.012 258.175C145.43 260.91 130.897 252.167 124.578 247.454C157.145 231.792 155.239 206.331 150.215 195.558C159.041 193.943 164.769 197.164 166.53 198.977C174.982 207.553 182.171 226.168 184.709 234.402C186.314 239.323 187.661 249.101 180.203 248.852C170.88 248.542 162.49 250.406 160.315 253.203C158.574 255.44 154.721 257.45 153.012 258.175Z" fill="#8EB44D" stroke="black"/>
<path d="M99.4077 166.814C134.958 162.588 152.65 181.212 157.052 191.053C153.696 188.815 149.646 189.292 148.04 189.81C142.323 172.035 113.236 167.073 99.4077 166.814Z" fill="#52783B"/>
<path d="M68.6436 171.786C74.1128 163.209 83.4561 165.83 87.4441 168.212C78.7431 167.839 73.8746 173.547 72.528 176.447C69.1719 175.329 68.54 172.874 68.6436 171.786Z" fill="#52783B"/>
<path d="M61.9624 195.092C60.3051 197.63 54.4422 201.774 44.2495 198.045C46.8391 203.794 54.0071 211.252 61.9624 195.092Z" fill="#52783B"/>
<path d="M48.1339 214.359C50.8789 218.865 58.3266 227.659 66.1576 226.789C62.4285 231.968 53.6032 236.733 48.1339 214.359Z" fill="#52783B"/>
<path d="M63.9823 238.598C71.0778 242.689 87.4441 250.531 96.1452 249.163C97.9061 254.291 93.9388 259.356 63.9823 238.598Z" fill="#52783B"/>
<path d="M102.982 259.107C111.527 261.593 130.452 265.385 137.786 260.661C138.822 265.167 133.311 271.165 102.982 259.107Z" fill="#52783B"/>
<path d="M169.327 235.18C156.524 248.604 138.097 249.578 130.483 248.386C141.67 255.099 150.579 254.394 153.634 253.203C155.447 252.478 159.228 250.562 159.849 248.697C160.471 246.833 162.076 245.434 162.802 244.968C167.898 241.736 177.562 244.554 181.757 246.367C174.175 242.016 170.311 237.096 169.327 235.18Z" fill="#52783B"/>
<path d="M166.065 227.411C162.584 224.676 158.71 217.363 157.208 214.048C157.208 217.404 155.136 223.423 154.101 226.012C156.587 228.996 163.112 228.188 166.065 227.411Z" fill="#52783B"/>
<path d="M257.003 183.55C254.889 185.069 253.756 186.37 253.093 186.852C252.824 187.098 251.932 187.934 251.806 188.097C251.598 188.42 251.216 188.667 250.65 189.539C249.914 190.412 249.139 191.201 248.513 192.032C247.781 193.004 247.05 194.105 246.546 195.029C246.147 195.76 245.803 196.766 245.269 197.683C244.808 198.473 244.443 199.549 243.97 200.561C243.469 201.634 243.233 202.286 242.966 202.991C242.589 203.984 242.358 204.696 242.107 205.83C241.753 207.429 241.429 208.243 241.648 211.565C241.753 213.144 241.761 214.442 241.9 215.713C242.004 216.669 241.853 218.531 242.886 221.697C243.64 224.004 244.034 225.387 245.358 227.831C246.07 229.145 247.106 230.831 248.877 233.707C249.461 234.655 250.119 235.917 251.224 237.253C252.059 238.262 252.924 239.053 253.949 240.029C255.245 241.263 256.477 242.472 257.506 243.307C258.928 244.461 261.24 246.313 262.78 247.092C263.745 247.58 264.745 248.15 266.026 248.611C267.441 249.121 269.552 249.904 272.94 250.556C274.725 250.9 277.156 251.163 280.205 251.629C280.996 251.75 282.531 251.688 284.584 251.811C285.603 251.872 287.611 252.076 290.431 251.87C292.098 251.749 292.988 251.745 293.69 251.627C295.624 251.301 298.183 250.577 299.764 250.045C301.813 249.357 302.808 248.936 303.951 248.486C305.967 247.691 308.325 246.431 310.462 245.183C311.782 244.412 313.314 243.594 314.333 242.794C315.217 242.1 317.138 240.65 318.27 239.612C319.493 238.49 321.083 237.115 321.977 236.005C322.71 235.094 323.354 234.35 324.197 233.188C325.439 231.477 327.147 229.576 328.489 227.049C328.864 226.344 329.537 225.37 330.378 223.431C331.423 221.025 332.09 219.122 332.341 217.991C332.591 216.859 332.897 215.599 332.926 213.807C332.967 211.218 332.894 209.572 332.862 209.162C332.756 207.779 332.572 206.493 332.421 205.47C332.212 204.052 331.839 201.958 331.033 199.235C330.567 197.661 329.945 195.736 329.143 193.781C328.341 191.827 327.45 189.867 326.569 188.464C325.087 186.103 323.97 184.722 322.672 183.568C320.599 181.725 318.808 180.318 318.159 179.789C317.763 179.466 316.983 179.1 316.106 178.472C315.628 178.129 313.797 177.05 311.031 175.816C309.678 175.212 309.186 174.984 308.564 174.765C307.413 174.36 305.36 173.692 301.514 173.285C299.014 173.021 295.449 172.679 293.132 172.722C289.778 172.784 288.481 172.872 286.831 173.09C285.425 173.276 282.937 173.637 280.818 174.045C278.698 174.453 276.985 174.856 275.657 175.3C273.362 176.068 271.825 176.532 268.994 177.765C266.674 178.775 262.678 180.548 260.619 181.544C258.377 182.629 257.979 182.849 257.003 183.55Z" fill="#F2EB5C"/>
<path d="M290.357 183.479L290.336 183.45C290.069 183.031 289.713 182.508 289.624 182.368C289.45 182.057 289.136 181.404 288.732 180.845C288.252 180.411 287.817 179.781 287.193 179.354C286.674 178.999 286.112 178.385 285.38 178.206C284.2 177.918 282.553 177.829 282.002 178.047C281.371 178.297 280.746 178.578 280.476 179.204C280.234 179.766 279.877 181.867 279.941 183.165L279.941 183.176C279.98 183.958 280.028 184.946 280.151 185.812C280.312 186.949 280.386 187.627 280.492 188.252C280.685 189.392 280.87 190.247 281.025 191.004C281.217 191.947 281.405 193.21 281.697 194.512C281.883 195.338 282.377 197.218 282.675 198.771C282.89 199.886 283.23 201.506 283.48 202.963C283.891 205.359 284.262 207.326 284.353 208.129C284.5 209.432 284.629 211.095 284.814 212.446C284.931 213.299 285.065 214.381 285.363 215.63C285.601 216.628 285.86 217.845 286.051 218.725C286.259 219.687 286.42 220.906 286.612 221.744C286.848 222.778 287.061 224.455 287.299 225.719C287.545 227.027 287.848 228.023 287.874 229.185C287.897 230.195 288.052 231.204 288.181 232.3C288.29 233.233 288.249 233.9 288.367 235.028C288.511 236.396 288.63 237.316 288.683 238.226C288.748 239.323 288.939 240.523 289.107 241.747C289.224 242.6 289.241 243.496 289.517 244.374C289.729 245.052 289.625 245.791 290.9 247.923C291.603 249.099 292.312 250.212 293.155 250.208C294.397 250.201 295.43 249.765 296.155 249.245C297.029 248.618 297.427 248.163 297.896 247.66C298.329 247.196 298.939 246.418 299.337 245.471C299.64 244.751 299.927 244.203 300.197 243.106C300.388 242.328 300.509 241.663 300.827 240.724C301.105 239.903 301.309 239.127 301.506 238.131C301.723 237.032 301.868 235.444 302.321 233.992C302.628 233.008 302.727 232.218 302.993 230.621C303.085 230.068 303.537 228.038 303.472 225.244C303.43 223.408 303.185 221.957 303.037 220.156C302.925 218.807 302.762 217.687 302.484 215.73C302.236 213.99 301.815 212.545 301.45 210.26C301.193 208.653 301.021 207.436 300.779 206.309C300.584 205.402 300.406 204.741 299.995 203.388C299.689 202.384 299.19 200.552 298.629 199.431C298.457 199.089 297.852 197.464 296.771 195.381C296.328 194.526 296.097 194.221 295.702 193.36C294.923 191.664 294.262 190.214 293.896 189.591C293.663 189.195 293.429 188.574 292.814 187.466C291.342 184.814 290.914 184.234 290.357 183.479Z" fill="#DF913E"/>
<path d="M296.168 242.649C295.489 243.375 294.044 247.368 293.623 249.465C293.417 248.774 293.48 247.273 293.451 245.556C293.423 243.94 292.93 242.997 292.748 242.541C292.491 241.898 291.752 240.906 292.343 239.705C292.934 238.504 293.034 237.473 293.01 237.107C292.971 236.273 292.787 233.942 292.367 231.292C291.843 227.979 290.02 227.371 289.162 226.37C288.304 225.369 288.435 223.665 290.497 219.148C292.146 215.535 290.525 211.359 289.508 209.722C288.412 207.768 286.019 203.625 285.219 202.691C284.418 201.757 284.941 200.228 285.302 199.581C285.525 199.39 286.11 198.396 286.673 195.946C287.376 192.883 285.97 188.879 285.482 187.128C285.091 185.726 283.897 184.772 283.349 184.47C283.09 184.45 282.657 184.136 282.991 183.04C283.325 181.944 283.297 180.414 283.242 179.787C284.033 180.845 285.144 181.388 285.601 181.527C286.102 181.773 286.995 182.444 286.566 183.159C286.137 183.874 286.665 185.245 286.983 185.841C289.029 188.959 293.473 195.472 294.883 196.578C296.294 197.684 296.258 200.32 296.063 201.5C295.773 203.244 295.267 207.797 295.562 212.058C295.857 216.32 299.053 221.365 300.614 223.355C300.932 223.951 301.176 225.362 299.613 226.239C298.049 227.116 297.499 229.401 297.42 230.434C297.42 230.434 296.025 238.43 296.418 239.395C296.812 240.361 296.831 241.939 296.168 242.649Z" fill="#0E151B"/>
<path d="M302.328 173.806C301.583 168.088 303.273 164.685 304.206 163.649C254.858 155.445 230.091 183.019 223.876 197.831C224.746 200.442 227.864 201.612 229.314 201.871C233.292 197.769 242.055 197.469 245.939 197.831C260.607 174.711 289.639 172.149 302.328 173.806Z" fill="#8EB44D" stroke="black"/>
<path d="M329.509 162.81C321.517 160.829 310.412 162.257 305.76 163.804C303.604 165.537 303.373 171.479 303.585 173.903C309.04 173.285 318.356 181.274 322.373 185.091C325.164 179.644 332.099 176.426 335.218 175.497C336.486 171.413 331.941 165.337 329.509 162.81Z" fill="#8EB44D" stroke="black"/>
<path d="M346.78 177.943C344.666 175.954 339.046 176.545 336.094 176.545C328.636 178.907 324.389 183.848 323.197 186.023C326.678 191.616 330.35 202.182 332.266 207.62C338.854 211.598 347.027 211.66 350.29 211.194C351.688 209.433 354.735 205.258 354.859 200.162C355.015 193.792 349.421 180.429 346.78 177.943Z" fill="#8EB44D" stroke="black"/>
<path d="M352.684 214.301C352.808 213.431 352.114 212.488 351.285 211.815C344.076 214.053 335.644 210.883 332.33 209.018C332.454 215.606 328.07 226.789 325.947 231.606C327.314 234.092 334.764 237.09 338.7 238.54C341.186 237.918 344.086 235.795 345.226 234.811C350.353 224.401 352.528 215.389 352.684 214.301Z" fill="#8EB44D" stroke="black"/>
<path d="M299.688 261.749C309.756 261.624 330.408 246.47 339.212 238.908C332.127 236.92 327.041 233.729 325.384 232.383C320.536 237.355 313.161 242.272 309.846 244.033C303.258 246.892 297.357 250.769 295.804 252.426C295.306 255.782 298.238 260.04 299.688 261.749Z" fill="#8EB44D" stroke="black"/>
<path d="M298.613 262.157C297.743 260.665 295.661 255.217 294.728 252.679C287.395 252.43 276.381 251.856 272.342 251.338C266.872 253.203 258.319 260.137 254.331 263.555C253.958 267.533 258.111 273.499 260.235 275.985C266.45 277.229 288.513 267.233 298.613 262.157Z" fill="#8EB44D" stroke="black"/>
<path d="M242.522 261.536C250.105 264.27 264.637 255.528 270.956 250.815C238.389 235.153 240.295 209.692 245.319 198.919C236.494 197.303 230.765 200.525 229.004 202.337C220.552 210.914 213.363 229.528 210.825 237.763C209.22 242.683 207.873 252.462 215.331 252.213C224.654 251.902 233.044 253.767 235.22 256.564C236.96 258.801 240.813 260.811 242.522 261.536Z" fill="#8EB44D" stroke="black"/>
<path d="M296.127 170.174C260.577 165.948 242.885 184.573 238.482 194.413C241.839 192.176 245.889 192.652 247.494 193.17C253.212 175.395 282.298 170.433 296.127 170.174Z" fill="#52783B"/>
<path d="M326.891 175.146C321.421 166.57 312.078 169.19 308.09 171.573C316.791 171.2 321.66 176.907 323.006 179.808C326.362 178.689 326.994 176.234 326.891 175.146Z" fill="#52783B"/>
<path d="M333.572 198.453C335.229 200.991 341.092 205.134 351.285 201.405C348.695 207.154 341.527 214.612 333.572 198.453Z" fill="#52783B"/>
<path d="M347.4 217.719C344.655 222.225 337.208 231.02 329.377 230.15C333.106 235.329 341.931 240.094 347.4 217.719Z" fill="#52783B"/>
<path d="M331.552 241.958C324.456 246.05 308.09 253.891 299.389 252.524C297.628 257.651 301.595 262.716 331.552 241.958Z" fill="#52783B"/>
<path d="M292.552 262.468C284.007 264.954 265.082 268.745 257.748 264.022C256.712 268.527 262.223 274.525 292.552 262.468Z" fill="#52783B"/>
<path d="M226.207 238.54C239.01 251.964 257.437 252.938 265.051 251.747C253.864 258.459 244.956 257.755 241.9 256.563C240.087 255.838 236.306 253.922 235.685 252.058C235.063 250.193 233.458 248.795 232.733 248.329C227.636 245.097 217.972 247.914 213.777 249.727C221.359 245.376 225.223 240.456 226.207 238.54Z" fill="#52783B"/>
<path d="M229.47 230.771C232.951 228.037 236.825 220.724 238.327 217.409C238.327 220.765 240.398 226.783 241.434 229.373C238.948 232.356 232.422 231.548 229.47 230.771Z" fill="#52783B"/>
<path d="M326.879 211.873C324.02 214.608 318.23 213.53 315.692 212.65C317.805 225.453 311.29 235.594 307.768 239.064C322.684 237.324 326.724 220.212 326.879 211.873Z" fill="#B47933"/>
<path d="M273.739 198.51C264.914 200.126 255.353 198.562 251.676 197.578C244.466 213.613 254.99 232.538 261.154 239.996C257.3 218.367 267.938 203.327 273.739 198.51Z" fill="#FEFEF6"/>
</svg>
