<svg width="395" height="491" viewBox="0 0 395 491" fill="none" xmlns="http://www.w3.org/2000/svg">
<rect width="394.099" height="490.871" rx="20" fill="#202020" fill-opacity="0.5"/>
<path d="M51.2 73.36C52.4533 73.36 53.76 72.9867 55.12 72.24V68.96C55.12 68.3467 55.0667 67.4533 54.96 66.28C54.0267 66.0133 52.8133 65.7467 51.32 65.48L51.44 64.64C52.0533 64.72 52.64 64.76 53.2 64.76C55.5467 64.76 57.6933 64.1067 59.64 62.8L60 63.52C59.3867 64 58.9067 64.48 58.56 64.96C58.0533 69.6 57.7867 73.9333 57.76 77.96C56.9867 79.3733 55.7067 80.7333 53.92 82.04C52.16 83.3467 50.5467 84 49.08 84C48.68 84 48.3467 83.8933 48.08 83.68C47.8133 83.4667 47.68 83.1733 47.68 82.8C48.4533 82.2133 49.1067 81.5333 49.64 80.76L49.92 80.72C50.5067 81.1733 51.1867 81.4 51.96 81.4C52.7333 81.4 53.2667 81.32 53.56 81.16C54.6533 79.6933 55.2 77.2933 55.2 73.96C53.7333 75.1067 52.1067 75.9867 50.32 76.6C47.12 76.6 44.7067 75.6 43.08 73.6C41.48 71.5733 40.68 68.7867 40.68 65.24C40.68 61.6667 41.6533 58.36 43.6 55.32C45.5733 52.2533 48.2133 50.2667 51.52 49.36C54.2933 49.36 57.08 49.6133 59.88 50.12L59.84 51C59.1733 51 58.5333 51.12 57.92 51.36C57.2 53.04 56.76 54.92 56.6 57H55.6C55.36 55.9067 55.24 54.6667 55.24 53.28C53.9867 52.5867 52.4533 52.24 50.64 52.24C48.8267 52.24 47.3733 52.6933 46.28 53.6C44.92 55.92 44.24 58.8667 44.24 62.44C44.24 69.72 46.56 73.36 51.2 73.36ZM71.7856 76.48C69.1456 76.48 67.0123 75.6533 65.3856 74C63.759 72.32 62.9456 70.08 62.9456 67.28C62.9456 64.48 63.799 61.8533 65.5056 59.4C67.2123 56.9467 69.439 55.3733 72.1856 54.68C74.9323 54.68 77.0256 55.4667 78.4656 57.04C79.9056 58.5867 80.6256 60.8 80.6256 63.68C80.6256 66.56 79.839 69.16 78.2656 71.48C76.719 73.8 74.559 75.4667 71.7856 76.48ZM71.1056 57.12C69.9056 57.12 68.8656 57.4533 67.9856 58.12C66.8923 59.9867 66.3456 62.3333 66.3456 65.16C66.3456 68.4133 67.2523 70.9067 69.0656 72.64C70.0256 73.5733 71.159 74.04 72.4656 74.04C73.7723 74.04 74.8256 73.6933 75.6256 73C76.6923 71.1333 77.2256 68.8533 77.2256 66.16C77.2256 63.4667 76.7456 61.2933 75.7856 59.64C74.8256 57.96 73.2656 57.12 71.1056 57.12ZM84.0403 55.24L93.2403 54.96C95.6403 54.96 97.4403 55.32 98.6403 56.04C99.8403 56.7333 100.44 58.0133 100.44 59.88C100.44 61.16 100.04 62.2933 99.2403 63.28C98.467 64.2667 97.4403 65 96.1603 65.48L100.64 74.64C101.547 74.8 102.4 74.9867 103.2 75.2L103.04 76.28C101.92 76.0933 100.654 76 99.2403 76C97.8536 76 96.7603 76.0667 95.9603 76.2L95.8003 75.56C96.147 75.2133 96.3203 74.64 96.3203 73.84C96.3203 72.2133 95.387 69.6 93.5203 66C92.9603 65.8933 92.307 65.84 91.5603 65.84L91.6403 64.68H92.0403C95.187 64.68 96.7603 63.24 96.7603 60.36C96.7603 57.6933 95.4136 56.36 92.7203 56.36C91.8136 56.36 91.0003 56.5067 90.2803 56.8C90.0936 58.56 90.0003 61.5733 90.0003 65.84C90.0003 70.1067 90.1203 73.0533 90.3603 74.68C91.5336 74.8133 92.627 75.0133 93.6403 75.28L93.5203 76.28C92.1336 76.0933 90.5736 76 88.8403 76C87.1336 76 85.6003 76.1067 84.2403 76.32L84.0803 75.28C84.827 75.04 85.667 74.84 86.6003 74.68C86.867 72.68 87.0003 69.5733 87.0003 65.36C87.0003 61.12 86.8803 58.1867 86.6403 56.56C85.6003 56.2133 84.7336 56.04 84.0403 56.04V55.24ZM114.135 73.68C115.282 73.68 116.415 73.3467 117.535 72.68L117.335 68.4C116.588 68.16 115.682 67.9467 114.615 67.76L114.735 66.92C115.375 66.9733 115.842 67 116.135 67C117.975 67 119.642 66.5067 121.135 65.52L121.535 66.24C121.215 66.5333 120.922 66.84 120.655 67.16C120.282 70.7867 120.042 73.7733 119.935 76.12H119.095C118.882 75.1333 118.562 74.32 118.135 73.68C116.588 75.04 115.028 75.9733 113.455 76.48C110.868 76.48 108.842 75.6667 107.375 74.04C105.908 72.3867 105.175 70.1733 105.175 67.4C105.175 64.6 106.042 61.9733 107.775 59.52C109.508 57.0667 111.722 55.4533 114.415 54.68C116.362 54.68 118.562 54.88 121.015 55.28L120.975 56.16C120.468 56.16 119.988 56.2533 119.535 56.44C119.028 57.64 118.695 59.0667 118.535 60.72H117.535C117.322 59.8133 117.215 58.88 117.215 57.92C116.202 57.4133 115.002 57.16 113.615 57.16C112.228 57.16 111.082 57.5333 110.175 58.28C109.108 60.2267 108.575 62.5333 108.575 65.2C108.575 67.84 108.962 69.92 109.735 71.44C110.535 72.9333 112.002 73.68 114.135 73.68ZM133.583 76.48C130.943 76.48 128.809 75.6533 127.183 74C125.556 72.32 124.743 70.08 124.743 67.28C124.743 64.48 125.596 61.8533 127.303 59.4C129.009 56.9467 131.236 55.3733 133.983 54.68C136.729 54.68 138.823 55.4667 140.263 57.04C141.703 58.5867 142.423 60.8 142.423 63.68C142.423 66.56 141.636 69.16 140.063 71.48C138.516 73.8 136.356 75.4667 133.583 76.48ZM132.903 57.12C131.703 57.12 130.663 57.4533 129.783 58.12C128.689 59.9867 128.143 62.3333 128.143 65.16C128.143 68.4133 129.049 70.9067 130.863 72.64C131.823 73.5733 132.956 74.04 134.263 74.04C135.569 74.04 136.623 73.6933 137.423 73C138.489 71.1333 139.023 68.8533 139.023 66.16C139.023 63.4667 138.543 61.2933 137.583 59.64C136.623 57.96 135.063 57.12 132.903 57.12ZM155.477 76.28C154.091 76.0933 152.531 76 150.797 76C149.091 76 147.557 76.1067 146.197 76.32L146.037 75.28C146.891 75.0133 147.691 74.8133 148.437 74.68C148.677 72.6 148.797 69.88 148.797 66.52V64.64C148.797 61.0667 148.664 58.32 148.397 56.4C147.677 56.32 146.811 56.1067 145.797 55.76L145.917 54.72C147.437 55.0133 149.024 55.16 150.677 55.16C152.357 55.16 153.557 55.0667 154.277 54.88L154.357 55.56C153.637 55.7467 153.277 56.0533 153.277 56.48C153.277 56.8 153.584 57.48 154.197 58.52C154.837 59.5333 155.451 60.52 156.037 61.48C157.797 64.28 159.877 67.72 162.277 71.8L162.397 71.72V66.84C162.397 63.2667 162.211 60.5867 161.837 58.8C161.464 56.9867 160.824 55.9333 159.917 55.64L159.997 54.96C160.691 55.0933 161.731 55.16 163.117 55.16C164.504 55.16 165.931 55.0133 167.397 54.72L167.517 55.76C166.424 56.1067 165.504 56.32 164.757 56.4C164.491 58.5333 164.357 61.28 164.357 64.64V66.52C164.357 70.5733 164.491 73.32 164.757 74.76C165.877 74.9467 166.771 75.16 167.437 75.4L167.317 76.44C165.984 76.1467 164.731 76 163.557 76C162.384 76 161.477 76.0533 160.837 76.16C160.837 75.5733 160.424 74.5867 159.597 73.2C158.797 71.8133 158.064 70.5867 157.397 69.52C155.237 66.0267 153.117 62.48 151.037 58.88L150.877 58.96V64.32C150.877 69.6267 151.277 73.08 152.077 74.68C153.277 74.8133 154.451 75.0133 155.597 75.28L155.477 76.28ZM175.439 51.36C175.439 52.6933 174.986 54.0533 174.079 55.44C173.172 56.8267 172.106 57.9333 170.879 58.76L170.479 58.36C171.039 57.6933 171.546 56.88 171.999 55.92C172.452 54.9333 172.692 54.08 172.719 53.36C172.026 52.72 171.492 52.0533 171.119 51.36C171.279 51.04 171.586 50.68 172.039 50.28C172.492 49.8533 172.906 49.5467 173.279 49.36C173.626 49.5733 174.026 49.8933 174.479 50.32C174.932 50.72 175.252 51.0667 175.439 51.36ZM181.995 72.96C183.221 73.4667 184.435 73.72 185.635 73.72C186.835 73.72 187.795 73.44 188.515 72.88C189.235 72.32 189.595 71.52 189.595 70.48C189.595 69.4133 188.088 68.0933 185.075 66.52C183.928 65.9333 182.875 65.2267 181.915 64.4C180.981 63.5467 180.515 62.7067 180.515 61.88C180.515 60.4667 181.261 59.04 182.755 57.6C184.248 56.16 185.781 55.1867 187.355 54.68C189.328 54.68 191.115 54.88 192.715 55.28V56C191.595 57.12 190.968 58.6533 190.835 60.6H189.835C189.835 59.8533 189.768 58.92 189.635 57.8C188.701 57.3733 187.701 57.16 186.635 57.16C185.568 57.16 184.675 57.4 183.955 57.88C183.261 58.3333 182.915 59 182.915 59.88C182.915 60.4933 183.381 61.16 184.315 61.88C185.275 62.6 186.315 63.24 187.435 63.8C188.555 64.36 189.581 65.0533 190.515 65.88C191.475 66.7067 191.955 67.5333 191.955 68.36C191.955 69.96 191.248 71.56 189.835 73.16C188.421 74.7333 186.861 75.84 185.155 76.48C183.475 76.48 181.901 76.28 180.435 75.88C180.008 76.0667 179.568 76.3733 179.115 76.8L178.395 76.28C179.888 74.6533 180.715 72.64 180.875 70.24H181.875C181.875 71.1733 181.915 72.08 181.995 72.96ZM213.778 73.36C215.031 73.36 216.338 72.9867 217.698 72.24V68.96C217.698 68.3467 217.645 67.4533 217.538 66.28C216.605 66.0133 215.391 65.7467 213.898 65.48L214.018 64.64C214.631 64.72 215.218 64.76 215.778 64.76C218.125 64.76 220.271 64.1067 222.218 62.8L222.578 63.52C221.965 64 221.485 64.48 221.138 64.96C220.631 69.6 220.365 73.9333 220.338 77.96C219.565 79.3733 218.285 80.7333 216.498 82.04C214.738 83.3467 213.125 84 211.658 84C211.258 84 210.925 83.8933 210.658 83.68C210.391 83.4667 210.258 83.1733 210.258 82.8C211.031 82.2133 211.685 81.5333 212.218 80.76L212.498 80.72C213.085 81.1733 213.765 81.4 214.538 81.4C215.311 81.4 215.845 81.32 216.138 81.16C217.231 79.6933 217.778 77.2933 217.778 73.96C216.311 75.1067 214.685 75.9867 212.898 76.6C209.698 76.6 207.285 75.6 205.658 73.6C204.058 71.5733 203.258 68.7867 203.258 65.24C203.258 61.6667 204.231 58.36 206.178 55.32C208.151 52.2533 210.791 50.2667 214.098 49.36C216.871 49.36 219.658 49.6133 222.458 50.12L222.418 51C221.751 51 221.111 51.12 220.498 51.36C219.778 53.04 219.338 54.92 219.178 57H218.178C217.938 55.9067 217.818 54.6667 217.818 53.28C216.565 52.5867 215.031 52.24 213.218 52.24C211.405 52.24 209.951 52.6933 208.858 53.6C207.498 55.92 206.818 58.8667 206.818 62.44C206.818 69.72 209.138 73.36 213.778 73.36ZM228.164 54.72C230.67 55.0133 233.204 55.16 235.764 55.16C238.324 55.16 240.844 55.0133 243.324 54.72L243.484 55.76C242.684 56.08 241.857 56.32 241.004 56.48C240.71 58.6667 240.564 61.7067 240.564 65.6C240.564 69.4933 240.71 72.5333 241.004 74.72C241.537 74.8 242.524 75 243.964 75.32L243.804 76.32C242.524 76.1067 240.884 76 238.884 76C236.884 76 235.35 76.1067 234.284 76.32L234.124 75.28C235.03 74.9867 236.057 74.7733 237.204 74.64C237.364 73.0933 237.484 70.9467 237.564 68.2C236.31 68.0667 235.057 68 233.804 68C232.55 68 231.457 68.0667 230.524 68.2C229.99 70.3867 229.724 71.9067 229.724 72.76C229.724 74.0667 230.19 74.9867 231.124 75.52L230.964 76.2C230.35 76.0667 229.19 76 227.484 76C225.777 76 224.43 76.1067 223.444 76.32L223.284 75.28C223.924 75.04 224.804 74.8267 225.924 74.64L231.124 56.4C229.95 56.2133 228.924 56 228.044 55.76L228.164 54.72ZM230.844 66.32C231.884 66.48 233.03 66.56 234.284 66.56C235.564 66.56 236.657 66.48 237.564 66.32C237.564 61.3867 237.457 58.2 237.244 56.76C236.337 56.7067 235.657 56.68 235.204 56.68C234.777 56.68 234.11 56.7067 233.204 56.76L230.844 66.32ZM258.61 55.52C259.783 55.52 260.81 55.12 261.69 54.32L262.53 54.96C261.783 55.6267 260.93 56.7867 259.97 58.44L251.29 73.44L251.41 73.52H256.21C257.41 73.52 258.277 73.32 258.81 72.92C258.943 72.04 259.01 71.12 259.01 70.16H260.05C260.21 72.5867 261.037 74.56 262.53 76.08L261.73 76.64C261.623 76.48 261.41 76.2933 261.09 76.08C258.05 75.5733 254.37 75.32 250.05 75.32C248.263 75.32 246.997 75.76 246.25 76.64L245.41 75.96C246.61 74.76 247.597 73.52 248.37 72.24L257.45 57.44L257.37 57.36H253.05C251.743 57.36 250.623 57.56 249.69 57.96C249.53 58.8933 249.263 59.7867 248.89 60.64L247.93 60.52C247.983 59.72 248.01 58.9867 248.01 58.32C248.01 57.6533 247.903 56.9067 247.69 56.08C247.263 55.84 246.81 55.6667 246.33 55.56L246.41 54.68C246.863 54.68 248.557 54.8267 251.49 55.12C254.45 55.3867 256.823 55.52 258.61 55.52ZM268.107 66.12C268.187 68.4933 268.627 70.3467 269.427 71.68C270.227 73.0133 271.587 73.68 273.507 73.68C275.427 73.68 277.201 72.8667 278.827 71.24L279.387 71.8C277.601 74.0667 275.454 75.6267 272.947 76.48C270.361 76.48 268.334 75.6667 266.867 74.04C265.401 72.3867 264.667 70.1733 264.667 67.4C264.667 64.6 265.534 61.9733 267.267 59.52C269.001 57.0667 271.214 55.4533 273.907 54.68C275.854 54.68 278.054 54.88 280.507 55.28L280.467 56.16C279.961 56.16 279.481 56.2533 279.027 56.44C278.521 57.64 278.187 59.0667 278.027 60.72H277.027C276.814 59.8133 276.707 58.88 276.707 57.92C275.694 57.4133 274.494 57.16 273.107 57.16C271.721 57.16 270.574 57.5333 269.667 58.28C268.761 59.9333 268.241 61.9067 268.107 64.2C269.227 64.3867 270.427 64.48 271.707 64.48C273.921 64.48 275.254 64.0133 275.707 63.08L276.547 63.2C276.307 64 276.187 64.7867 276.187 65.56C276.187 66.3333 276.281 67.28 276.467 68.4L275.507 68.56C275.214 67.76 275.001 66.9333 274.867 66.08C273.801 65.9733 272.734 65.92 271.667 65.92C270.627 65.92 269.441 65.9867 268.107 66.12Z" fill="#FAF9F6"/>
<path d="M40.08 379.36V377.2H52.104V379.36H40.08ZM44.808 383.992V372.4H47.328V383.992H44.808ZM55.4117 385L54.6197 383.032L59.7557 377.248C60.0277 376.96 60.3077 376.632 60.5957 376.264C60.8997 375.88 61.1877 375.488 61.4597 375.088C61.7317 374.688 61.9477 374.296 62.1077 373.912C62.2837 373.512 62.3717 373.136 62.3717 372.784C62.3717 372.272 62.2677 371.84 62.0597 371.488C61.8677 371.12 61.5797 370.84 61.1957 370.648C60.8277 370.456 60.3797 370.36 59.8517 370.36C59.3877 370.36 58.9317 370.496 58.4837 370.768C58.0357 371.04 57.6277 371.424 57.2597 371.92C56.8917 372.416 56.6037 372.992 56.3957 373.648L54.4037 372.4C54.6757 371.472 55.0837 370.68 55.6277 370.024C56.1877 369.352 56.8517 368.84 57.6197 368.488C58.4037 368.136 59.2517 367.96 60.1637 367.96C61.1077 367.96 61.9477 368.16 62.6837 368.56C63.4197 368.944 63.9957 369.488 64.4117 370.192C64.8277 370.88 65.0357 371.68 65.0357 372.592C65.0357 372.96 64.9957 373.336 64.9157 373.72C64.8357 374.104 64.7077 374.504 64.5317 374.92C64.3557 375.32 64.1317 375.744 63.8597 376.192C63.5877 376.624 63.2597 377.08 62.8757 377.56C62.5077 378.04 62.0837 378.544 61.6037 379.072L57.7877 383.224L57.3077 382.504H65.5637V385H55.4117ZM80.4227 390.52C79.5267 390.52 78.6307 390.376 77.7347 390.088C76.8547 389.816 76.1427 389.456 75.5987 389.008L76.5107 387.088C76.8307 387.328 77.2067 387.536 77.6387 387.712C78.0707 387.904 78.5267 388.048 79.0067 388.144C79.4867 388.256 79.9587 388.312 80.4227 388.312C81.3027 388.312 82.0387 388.168 82.6307 387.88C83.2227 387.592 83.6707 387.168 83.9747 386.608C84.2787 386.048 84.4307 385.352 84.4307 384.52V382.096L84.6947 382.264C84.6147 382.76 84.3507 383.24 83.9027 383.704C83.4707 384.152 82.9267 384.52 82.2707 384.808C81.6147 385.096 80.9427 385.24 80.2547 385.24C79.0547 385.24 77.9827 384.96 77.0387 384.4C76.1107 383.824 75.3747 383.048 74.8307 382.072C74.2867 381.08 74.0147 379.952 74.0147 378.688C74.0147 377.424 74.2787 376.304 74.8067 375.328C75.3507 374.336 76.0867 373.56 77.0147 373C77.9587 372.424 79.0147 372.136 80.1827 372.136C80.6627 372.136 81.1267 372.2 81.5747 372.328C82.0227 372.44 82.4387 372.608 82.8227 372.832C83.2067 373.04 83.5507 373.272 83.8547 373.528C84.1587 373.784 84.4067 374.056 84.5987 374.344C84.7907 374.632 84.9107 374.904 84.9587 375.16L84.4307 375.352V372.4H86.9027V384.232C86.9027 385.24 86.7507 386.128 86.4467 386.896C86.1587 387.68 85.7347 388.336 85.1747 388.864C84.6147 389.408 83.9347 389.816 83.1347 390.088C82.3347 390.376 81.4307 390.52 80.4227 390.52ZM80.5187 382.96C81.3027 382.96 81.9987 382.776 82.6067 382.408C83.2147 382.04 83.6867 381.536 84.0227 380.896C84.3587 380.256 84.5267 379.52 84.5267 378.688C84.5267 377.856 84.3507 377.12 83.9987 376.48C83.6627 375.824 83.1907 375.312 82.5827 374.944C81.9907 374.576 81.3027 374.392 80.5187 374.392C79.7507 374.392 79.0627 374.584 78.4547 374.968C77.8627 375.336 77.3907 375.848 77.0387 376.504C76.7027 377.144 76.5347 377.872 76.5347 378.688C76.5347 379.504 76.7027 380.24 77.0387 380.896C77.3907 381.536 77.8627 382.04 78.4547 382.408C79.0627 382.776 79.7507 382.96 80.5187 382.96ZM96.2486 385.24C94.9526 385.24 93.8006 384.968 92.7926 384.424C91.8006 383.864 91.0166 383.104 90.4406 382.144C89.8806 381.184 89.6006 380.08 89.6006 378.832C89.6006 377.84 89.7606 376.936 90.0806 376.12C90.4006 375.304 90.8406 374.6 91.4006 374.008C91.9766 373.4 92.6566 372.936 93.4406 372.616C94.2406 372.28 95.1046 372.112 96.0326 372.112C96.8486 372.112 97.6086 372.272 98.3126 372.592C99.0166 372.896 99.6246 373.32 100.137 373.864C100.665 374.408 101.065 375.056 101.337 375.808C101.625 376.544 101.761 377.352 101.745 378.232L101.721 379.288H91.4246L90.8726 377.32H99.5846L99.2246 377.728V377.152C99.1766 376.624 99.0006 376.152 98.6966 375.736C98.3926 375.32 98.0086 374.992 97.5446 374.752C97.0806 374.512 96.5766 374.392 96.0326 374.392C95.1686 374.392 94.4406 374.56 93.8486 374.896C93.2566 375.216 92.8086 375.696 92.5046 376.336C92.2006 376.96 92.0486 377.736 92.0486 378.664C92.0486 379.544 92.2326 380.312 92.6006 380.968C92.9686 381.608 93.4886 382.104 94.1606 382.456C94.8326 382.808 95.6086 382.984 96.4886 382.984C97.1126 382.984 97.6886 382.88 98.2166 382.672C98.7606 382.464 99.3446 382.088 99.9686 381.544L101.217 383.296C100.833 383.68 100.361 384.016 99.8006 384.304C99.2566 384.592 98.6726 384.824 98.0486 385C97.4406 385.16 96.8406 385.24 96.2486 385.24ZM104.383 385V372.4H106.879V375.088L106.423 375.376C106.551 374.96 106.751 374.56 107.023 374.176C107.311 373.792 107.655 373.456 108.055 373.168C108.471 372.864 108.911 372.624 109.375 372.448C109.855 372.272 110.343 372.184 110.839 372.184C111.559 372.184 112.191 372.304 112.735 372.544C113.279 372.784 113.727 373.144 114.079 373.624C114.431 374.104 114.687 374.704 114.847 375.424L114.463 375.328L114.631 374.92C114.807 374.552 115.047 374.208 115.351 373.888C115.671 373.552 116.031 373.256 116.431 373C116.831 372.744 117.255 372.544 117.703 372.4C118.151 372.256 118.591 372.184 119.023 372.184C119.967 372.184 120.743 372.376 121.351 372.76C121.975 373.144 122.439 373.728 122.743 374.512C123.063 375.296 123.223 376.272 123.223 377.44V385H120.727V377.584C120.727 376.864 120.631 376.28 120.439 375.832C120.263 375.368 119.991 375.024 119.623 374.8C119.255 374.576 118.783 374.464 118.207 374.464C117.759 374.464 117.335 374.544 116.935 374.704C116.551 374.848 116.215 375.056 115.927 375.328C115.639 375.6 115.415 375.92 115.255 376.288C115.095 376.64 115.015 377.032 115.015 377.464V385H112.519V377.536C112.519 376.88 112.423 376.328 112.231 375.88C112.039 375.416 111.759 375.064 111.391 374.824C111.023 374.584 110.575 374.464 110.047 374.464C109.599 374.464 109.183 374.544 108.799 374.704C108.415 374.848 108.079 375.056 107.791 375.328C107.503 375.584 107.279 375.896 107.119 376.264C106.959 376.616 106.879 377 106.879 377.416V385H104.383ZM130.733 385.24C129.677 385.24 128.725 385.056 127.877 384.688C127.029 384.32 126.325 383.776 125.765 383.056L127.445 381.616C127.925 382.176 128.445 382.584 129.005 382.84C129.581 383.08 130.229 383.2 130.949 383.2C131.237 383.2 131.501 383.168 131.741 383.104C131.997 383.024 132.213 382.912 132.389 382.768C132.581 382.624 132.725 382.456 132.821 382.264C132.917 382.056 132.965 381.832 132.965 381.592C132.965 381.176 132.813 380.84 132.509 380.584C132.349 380.472 132.093 380.352 131.741 380.224C131.405 380.08 130.965 379.936 130.421 379.792C129.493 379.552 128.733 379.28 128.141 378.976C127.549 378.672 127.093 378.328 126.773 377.944C126.533 377.64 126.357 377.312 126.245 376.96C126.133 376.592 126.077 376.192 126.077 375.76C126.077 375.232 126.189 374.752 126.413 374.32C126.653 373.872 126.973 373.488 127.373 373.168C127.789 372.832 128.269 372.576 128.813 372.4C129.373 372.224 129.965 372.136 130.589 372.136C131.181 372.136 131.765 372.216 132.341 372.376C132.933 372.536 133.477 372.768 133.973 373.072C134.469 373.376 134.885 373.736 135.221 374.152L133.805 375.712C133.501 375.408 133.165 375.144 132.797 374.92C132.445 374.68 132.085 374.496 131.717 374.368C131.349 374.24 131.013 374.176 130.709 374.176C130.373 374.176 130.069 374.208 129.797 374.272C129.525 374.336 129.293 374.432 129.101 374.56C128.925 374.688 128.789 374.848 128.693 375.04C128.597 375.232 128.549 375.448 128.549 375.688C128.565 375.896 128.613 376.096 128.693 376.288C128.789 376.464 128.917 376.616 129.077 376.744C129.253 376.872 129.517 377.008 129.869 377.152C130.221 377.296 130.669 377.432 131.213 377.56C132.013 377.768 132.669 378 133.181 378.256C133.709 378.496 134.125 378.776 134.429 379.096C134.749 379.4 134.973 379.752 135.101 380.152C135.229 380.552 135.293 381 135.293 381.496C135.293 382.216 135.085 382.864 134.669 383.44C134.269 384 133.725 384.44 133.037 384.76C132.349 385.08 131.581 385.24 130.733 385.24ZM138.401 389.296L137.489 388.192C138.049 387.872 138.505 387.504 138.857 387.088C139.209 386.672 139.385 386.312 139.385 386.008C139.385 385.848 139.345 385.688 139.265 385.528C139.185 385.384 139.017 385.176 138.761 384.904C138.441 384.6 138.233 384.344 138.137 384.136C138.041 383.928 137.993 383.704 137.993 383.464C137.993 383.08 138.129 382.776 138.401 382.552C138.673 382.312 139.025 382.192 139.457 382.192C139.857 382.192 140.217 382.312 140.537 382.552C140.873 382.776 141.129 383.096 141.305 383.512C141.497 383.912 141.593 384.376 141.593 384.904C141.593 385.384 141.513 385.848 141.353 386.296C141.193 386.744 140.969 387.16 140.681 387.544C140.393 387.928 140.057 388.272 139.673 388.576C139.289 388.88 138.865 389.12 138.401 389.296ZM157.766 385.24C157.222 385.24 156.678 385.152 156.134 384.976C155.606 384.8 155.118 384.568 154.67 384.28C154.238 383.976 153.87 383.648 153.566 383.296C153.278 382.928 153.086 382.56 152.99 382.192L153.614 381.856V384.928H151.142V367.24H153.614V375.28L153.23 375.064C153.31 374.696 153.486 374.344 153.758 374.008C154.03 373.656 154.374 373.344 154.79 373.072C155.222 372.784 155.686 372.56 156.182 372.4C156.678 372.224 157.182 372.136 157.694 372.136C158.83 372.136 159.838 372.416 160.718 372.976C161.598 373.536 162.294 374.312 162.806 375.304C163.318 376.28 163.574 377.4 163.574 378.664C163.574 379.928 163.318 381.056 162.806 382.048C162.31 383.04 161.622 383.824 160.742 384.4C159.862 384.96 158.87 385.24 157.766 385.24ZM157.358 382.984C158.094 382.984 158.75 382.8 159.326 382.432C159.902 382.048 160.358 381.536 160.694 380.896C161.03 380.24 161.198 379.496 161.198 378.664C161.198 377.848 161.03 377.12 160.694 376.48C160.374 375.824 159.926 375.312 159.35 374.944C158.774 374.576 158.11 374.392 157.358 374.392C156.606 374.392 155.942 374.576 155.366 374.944C154.79 375.312 154.334 375.824 153.998 376.48C153.662 377.12 153.494 377.848 153.494 378.664C153.494 379.496 153.662 380.24 153.998 380.896C154.334 381.536 154.79 382.048 155.366 382.432C155.942 382.8 156.606 382.984 157.358 382.984ZM170.675 385.24C169.779 385.24 168.995 385.032 168.323 384.616C167.667 384.2 167.155 383.616 166.787 382.864C166.435 382.112 166.259 381.216 166.259 380.176V372.4H168.731V379.504C168.731 380.24 168.843 380.88 169.067 381.424C169.307 381.952 169.643 382.36 170.075 382.648C170.523 382.936 171.059 383.08 171.683 383.08C172.147 383.08 172.571 383.008 172.955 382.864C173.339 382.704 173.667 382.488 173.939 382.216C174.227 381.944 174.451 381.616 174.611 381.232C174.771 380.848 174.851 380.432 174.851 379.984V372.4H177.323V385H174.851V382.36L175.283 382.072C175.091 382.664 174.763 383.2 174.299 383.68C173.851 384.16 173.315 384.544 172.691 384.832C172.067 385.104 171.395 385.24 170.675 385.24ZM182.351 385V369.184H184.823V385H182.351ZM179.735 374.8V372.4H187.751V374.8H179.735ZM198.84 390.52L201.384 384.64L201.408 386.608L195.12 372.4H198L201.936 381.664C202.016 381.824 202.112 382.072 202.224 382.408C202.336 382.728 202.432 383.048 202.512 383.368L201.888 383.512C202.016 383.176 202.136 382.84 202.248 382.504C202.376 382.168 202.496 381.832 202.608 381.496L205.896 372.4H208.824L203.64 385L201.504 390.52H198.84ZM216.103 385.24C214.871 385.24 213.767 384.96 212.791 384.4C211.831 383.824 211.071 383.048 210.511 382.072C209.951 381.08 209.671 379.952 209.671 378.688C209.671 377.424 209.951 376.304 210.511 375.328C211.071 374.336 211.831 373.56 212.791 373C213.767 372.424 214.871 372.136 216.103 372.136C217.319 372.136 218.407 372.424 219.367 373C220.343 373.56 221.111 374.336 221.671 375.328C222.231 376.304 222.511 377.424 222.511 378.688C222.511 379.952 222.231 381.08 221.671 382.072C221.111 383.048 220.343 383.824 219.367 384.4C218.407 384.96 217.319 385.24 216.103 385.24ZM216.103 382.984C216.855 382.984 217.527 382.8 218.119 382.432C218.711 382.048 219.175 381.536 219.511 380.896C219.847 380.24 220.007 379.504 219.991 378.688C220.007 377.856 219.847 377.12 219.511 376.48C219.175 375.824 218.711 375.312 218.119 374.944C217.527 374.576 216.855 374.392 216.103 374.392C215.351 374.392 214.671 374.584 214.063 374.968C213.471 375.336 213.007 375.848 212.671 376.504C212.335 377.144 212.175 377.872 212.191 378.688C212.175 379.504 212.335 380.24 212.671 380.896C213.007 381.536 213.471 382.048 214.063 382.432C214.671 382.8 215.351 382.984 216.103 382.984ZM229.621 385.24C228.725 385.24 227.941 385.032 227.269 384.616C226.613 384.2 226.101 383.616 225.733 382.864C225.381 382.112 225.205 381.216 225.205 380.176V372.4H227.677V379.504C227.677 380.24 227.789 380.88 228.013 381.424C228.253 381.952 228.589 382.36 229.021 382.648C229.469 382.936 230.005 383.08 230.629 383.08C231.093 383.08 231.517 383.008 231.901 382.864C232.285 382.704 232.613 382.488 232.885 382.216C233.173 381.944 233.397 381.616 233.557 381.232C233.717 380.848 233.797 380.432 233.797 379.984V372.4H236.269V385H233.797V382.36L234.229 382.072C234.037 382.664 233.709 383.2 233.245 383.68C232.797 384.16 232.261 384.544 231.637 384.832C231.013 385.104 230.341 385.24 229.621 385.24ZM251.814 385.24C250.646 385.24 249.598 384.952 248.67 384.376C247.758 383.8 247.03 383.016 246.486 382.024C245.958 381.032 245.694 379.92 245.694 378.688C245.694 377.456 245.958 376.344 246.486 375.352C247.03 374.36 247.758 373.576 248.67 373C249.598 372.424 250.646 372.136 251.814 372.136C252.934 372.136 253.95 372.368 254.862 372.832C255.79 373.28 256.494 373.896 256.974 374.68L255.606 376.36C255.35 375.992 255.022 375.656 254.622 375.352C254.222 375.048 253.798 374.808 253.35 374.632C252.902 374.456 252.47 374.368 252.054 374.368C251.286 374.368 250.598 374.56 249.99 374.944C249.398 375.312 248.926 375.824 248.574 376.48C248.222 377.136 248.046 377.872 248.046 378.688C248.046 379.504 248.23 380.24 248.598 380.896C248.966 381.536 249.454 382.048 250.062 382.432C250.67 382.816 251.342 383.008 252.078 383.008C252.51 383.008 252.926 382.936 253.326 382.792C253.742 382.648 254.142 382.432 254.526 382.144C254.91 381.856 255.27 381.504 255.606 381.088L256.974 382.768C256.462 383.488 255.726 384.08 254.766 384.544C253.822 385.008 252.838 385.24 251.814 385.24ZM264.154 385.24C263.114 385.24 262.162 384.952 261.298 384.376C260.45 383.8 259.77 383.016 259.258 382.024C258.746 381.032 258.49 379.912 258.49 378.664C258.49 377.4 258.746 376.28 259.258 375.304C259.786 374.312 260.49 373.536 261.37 372.976C262.266 372.416 263.266 372.136 264.37 372.136C265.026 372.136 265.626 372.232 266.17 372.424C266.714 372.616 267.186 372.888 267.586 373.24C268.002 373.576 268.338 373.968 268.594 374.416C268.866 374.864 269.034 375.344 269.098 375.856L268.546 375.664V372.4H271.042V385H268.546V382L269.122 381.832C269.026 382.264 268.826 382.688 268.522 383.104C268.234 383.504 267.858 383.864 267.394 384.184C266.946 384.504 266.442 384.76 265.882 384.952C265.338 385.144 264.762 385.24 264.154 385.24ZM264.802 382.96C265.554 382.96 266.218 382.776 266.794 382.408C267.37 382.04 267.818 381.536 268.138 380.896C268.474 380.24 268.642 379.496 268.642 378.664C268.642 377.848 268.474 377.12 268.138 376.48C267.818 375.84 267.37 375.336 266.794 374.968C266.218 374.6 265.554 374.416 264.802 374.416C264.066 374.416 263.41 374.6 262.834 374.968C262.274 375.336 261.826 375.84 261.49 376.48C261.17 377.12 261.01 377.848 261.01 378.664C261.01 379.496 261.17 380.24 261.49 380.896C261.826 381.536 262.274 382.04 262.834 382.408C263.41 382.776 264.066 382.96 264.802 382.96ZM274.494 385V372.4H276.966V374.992L276.534 375.28C276.694 374.72 277.006 374.208 277.47 373.744C277.934 373.264 278.486 372.88 279.126 372.592C279.766 372.288 280.422 372.136 281.094 372.136C282.054 372.136 282.854 372.328 283.494 372.712C284.134 373.08 284.614 373.648 284.934 374.416C285.254 375.184 285.414 376.152 285.414 377.32V385H282.942V377.488C282.942 376.768 282.846 376.176 282.654 375.712C282.462 375.232 282.166 374.888 281.766 374.68C281.366 374.456 280.87 374.36 280.278 374.392C279.798 374.392 279.358 374.472 278.958 374.632C278.558 374.776 278.206 374.984 277.902 375.256C277.614 375.528 277.382 375.848 277.206 376.216C277.046 376.568 276.966 376.952 276.966 377.368V385H275.742C275.534 385 275.326 385 275.118 385C274.91 385 274.702 385 274.494 385ZM288.767 385V372.4H291.239V374.992L290.807 375.28C290.967 374.72 291.279 374.208 291.743 373.744C292.207 373.264 292.759 372.88 293.399 372.592C294.039 372.288 294.695 372.136 295.367 372.136C296.327 372.136 297.127 372.328 297.767 372.712C298.407 373.08 298.887 373.648 299.207 374.416C299.527 375.184 299.687 376.152 299.687 377.32V385H297.215V377.488C297.215 376.768 297.119 376.176 296.927 375.712C296.735 375.232 296.439 374.888 296.039 374.68C295.639 374.456 295.143 374.36 294.551 374.392C294.071 374.392 293.631 374.472 293.231 374.632C292.831 374.776 292.479 374.984 292.175 375.256C291.887 375.528 291.655 375.848 291.479 376.216C291.319 376.568 291.239 376.952 291.239 377.368V385H290.015C289.807 385 289.599 385 289.391 385C289.183 385 288.975 385 288.767 385ZM308.705 385.24C307.473 385.24 306.369 384.96 305.393 384.4C304.433 383.824 303.673 383.048 303.113 382.072C302.553 381.08 302.273 379.952 302.273 378.688C302.273 377.424 302.553 376.304 303.113 375.328C303.673 374.336 304.433 373.56 305.393 373C306.369 372.424 307.473 372.136 308.705 372.136C309.921 372.136 311.009 372.424 311.969 373C312.945 373.56 313.713 374.336 314.273 375.328C314.833 376.304 315.113 377.424 315.113 378.688C315.113 379.952 314.833 381.08 314.273 382.072C313.713 383.048 312.945 383.824 311.969 384.4C311.009 384.96 309.921 385.24 308.705 385.24ZM308.705 382.984C309.457 382.984 310.129 382.8 310.721 382.432C311.313 382.048 311.777 381.536 312.113 380.896C312.449 380.24 312.609 379.504 312.593 378.688C312.609 377.856 312.449 377.12 312.113 376.48C311.777 375.824 311.313 375.312 310.721 374.944C310.129 374.576 309.457 374.392 308.705 374.392C307.953 374.392 307.273 374.584 306.665 374.968C306.073 375.336 305.609 375.848 305.273 376.504C304.937 377.144 304.777 377.872 304.793 378.688C304.777 379.504 304.937 380.24 305.273 380.896C305.609 381.536 306.073 382.048 306.665 382.432C307.273 382.8 307.953 382.984 308.705 382.984ZM319.366 385V369.184H321.838V385H319.366ZM316.75 374.8V372.4H324.766V374.8H316.75ZM46.368 425.52C45.472 425.52 44.576 425.376 43.68 425.088C42.8 424.816 42.088 424.456 41.544 424.008L42.456 422.088C42.776 422.328 43.152 422.536 43.584 422.712C44.016 422.904 44.472 423.048 44.952 423.144C45.432 423.256 45.904 423.312 46.368 423.312C47.248 423.312 47.984 423.168 48.576 422.88C49.168 422.592 49.616 422.168 49.92 421.608C50.224 421.048 50.376 420.352 50.376 419.52V417.096L50.64 417.264C50.56 417.76 50.296 418.24 49.848 418.704C49.416 419.152 48.872 419.52 48.216 419.808C47.56 420.096 46.888 420.24 46.2 420.24C45 420.24 43.928 419.96 42.984 419.4C42.056 418.824 41.32 418.048 40.776 417.072C40.232 416.08 39.96 414.952 39.96 413.688C39.96 412.424 40.224 411.304 40.752 410.328C41.296 409.336 42.032 408.56 42.96 408C43.904 407.424 44.96 407.136 46.128 407.136C46.608 407.136 47.072 407.2 47.52 407.328C47.968 407.44 48.384 407.608 48.768 407.832C49.152 408.04 49.496 408.272 49.8 408.528C50.104 408.784 50.352 409.056 50.544 409.344C50.736 409.632 50.856 409.904 50.904 410.16L50.376 410.352V407.4H52.848V419.232C52.848 420.24 52.696 421.128 52.392 421.896C52.104 422.68 51.68 423.336 51.12 423.864C50.56 424.408 49.88 424.816 49.08 425.088C48.28 425.376 47.376 425.52 46.368 425.52ZM46.464 417.96C47.248 417.96 47.944 417.776 48.552 417.408C49.16 417.04 49.632 416.536 49.968 415.896C50.304 415.256 50.472 414.52 50.472 413.688C50.472 412.856 50.296 412.12 49.944 411.48C49.608 410.824 49.136 410.312 48.528 409.944C47.936 409.576 47.248 409.392 46.464 409.392C45.696 409.392 45.008 409.584 44.4 409.968C43.808 410.336 43.336 410.848 42.984 411.504C42.648 412.144 42.48 412.872 42.48 413.688C42.48 414.504 42.648 415.24 42.984 415.896C43.336 416.536 43.808 417.04 44.4 417.408C45.008 417.776 45.696 417.96 46.464 417.96ZM61.1619 420.24C60.1219 420.24 59.1699 419.952 58.3059 419.376C57.4579 418.8 56.7779 418.016 56.2659 417.024C55.7539 416.032 55.4979 414.912 55.4979 413.664C55.4979 412.4 55.7539 411.28 56.2659 410.304C56.7939 409.312 57.4979 408.536 58.3779 407.976C59.2739 407.416 60.2739 407.136 61.3779 407.136C62.0339 407.136 62.6339 407.232 63.1779 407.424C63.7219 407.616 64.1939 407.888 64.5939 408.24C65.0099 408.576 65.3459 408.968 65.6019 409.416C65.8739 409.864 66.0419 410.344 66.1059 410.856L65.5539 410.664V407.4H68.0499V420H65.5539V417L66.1299 416.832C66.0339 417.264 65.8339 417.688 65.5299 418.104C65.2419 418.504 64.8659 418.864 64.4019 419.184C63.9539 419.504 63.4499 419.76 62.8899 419.952C62.3459 420.144 61.7699 420.24 61.1619 420.24ZM61.8099 417.96C62.5619 417.96 63.2259 417.776 63.8019 417.408C64.3779 417.04 64.8259 416.536 65.1459 415.896C65.4819 415.24 65.6499 414.496 65.6499 413.664C65.6499 412.848 65.4819 412.12 65.1459 411.48C64.8259 410.84 64.3779 410.336 63.8019 409.968C63.2259 409.6 62.5619 409.416 61.8099 409.416C61.0739 409.416 60.4179 409.6 59.8419 409.968C59.2819 410.336 58.8339 410.84 58.4979 411.48C58.1779 412.12 58.0179 412.848 58.0179 413.664C58.0179 414.496 58.1779 415.24 58.4979 415.896C58.8339 416.536 59.2819 417.04 59.8419 417.408C60.4179 417.776 61.0739 417.96 61.8099 417.96ZM71.9094 420V407.4H74.3814V420H71.9094ZM73.1094 404.616C72.5814 404.616 72.1734 404.48 71.8854 404.208C71.5974 403.936 71.4534 403.552 71.4534 403.056C71.4534 402.592 71.5974 402.216 71.8854 401.928C72.1894 401.64 72.5974 401.496 73.1094 401.496C73.6374 401.496 74.0454 401.632 74.3334 401.904C74.6214 402.176 74.7654 402.56 74.7654 403.056C74.7654 403.52 74.6134 403.896 74.3094 404.184C74.0214 404.472 73.6214 404.616 73.1094 404.616ZM78.1811 420V407.4H80.6531V409.992L80.2211 410.28C80.3811 409.72 80.6931 409.208 81.1571 408.744C81.6211 408.264 82.1731 407.88 82.8131 407.592C83.4531 407.288 84.1091 407.136 84.7811 407.136C85.7411 407.136 86.5411 407.328 87.1811 407.712C87.8211 408.08 88.3011 408.648 88.6211 409.416C88.9411 410.184 89.1011 411.152 89.1011 412.32V420H86.6291V412.488C86.6291 411.768 86.5331 411.176 86.3411 410.712C86.1491 410.232 85.8531 409.888 85.4531 409.68C85.0531 409.456 84.5571 409.36 83.9651 409.392C83.4851 409.392 83.0451 409.472 82.6451 409.632C82.2451 409.776 81.8931 409.984 81.5891 410.256C81.3011 410.528 81.0691 410.848 80.8931 411.216C80.7331 411.568 80.6531 411.952 80.6531 412.368V420H79.4291C79.2211 420 79.0131 420 78.8051 420C78.5971 420 78.3891 420 78.1811 420ZM104.845 420.24C103.613 420.24 102.509 419.96 101.533 419.4C100.573 418.824 99.8131 418.048 99.2531 417.072C98.6931 416.08 98.4131 414.952 98.4131 413.688C98.4131 412.424 98.6931 411.304 99.2531 410.328C99.8131 409.336 100.573 408.56 101.533 408C102.509 407.424 103.613 407.136 104.845 407.136C106.061 407.136 107.149 407.424 108.109 408C109.085 408.56 109.853 409.336 110.413 410.328C110.973 411.304 111.253 412.424 111.253 413.688C111.253 414.952 110.973 416.08 110.413 417.072C109.853 418.048 109.085 418.824 108.109 419.4C107.149 419.96 106.061 420.24 104.845 420.24ZM104.845 417.984C105.597 417.984 106.269 417.8 106.861 417.432C107.453 417.048 107.917 416.536 108.253 415.896C108.589 415.24 108.749 414.504 108.733 413.688C108.749 412.856 108.589 412.12 108.253 411.48C107.917 410.824 107.453 410.312 106.861 409.944C106.269 409.576 105.597 409.392 104.845 409.392C104.093 409.392 103.413 409.584 102.805 409.968C102.213 410.336 101.749 410.848 101.413 411.504C101.077 412.144 100.917 412.872 100.933 413.688C100.917 414.504 101.077 415.24 101.413 415.896C101.749 416.536 102.213 417.048 102.805 417.432C103.413 417.8 104.093 417.984 104.845 417.984ZM113.947 420V407.4H116.443V411.36L116.203 410.4C116.379 409.792 116.675 409.24 117.091 408.744C117.523 408.248 118.011 407.856 118.555 407.568C119.115 407.28 119.691 407.136 120.283 407.136C120.555 407.136 120.811 407.16 121.051 407.208C121.307 407.256 121.507 407.312 121.651 407.376L121.003 410.064C120.811 409.984 120.595 409.92 120.355 409.872C120.131 409.808 119.907 409.776 119.683 409.776C119.251 409.776 118.835 409.864 118.435 410.04C118.051 410.2 117.707 410.432 117.403 410.736C117.115 411.024 116.883 411.368 116.707 411.768C116.531 412.152 116.443 412.576 116.443 413.04V420H113.947ZM130.401 420V402.24H132.873V420H130.401ZM141.806 420.24C140.574 420.24 139.47 419.96 138.494 419.4C137.534 418.824 136.774 418.048 136.214 417.072C135.654 416.08 135.374 414.952 135.374 413.688C135.374 412.424 135.654 411.304 136.214 410.328C136.774 409.336 137.534 408.56 138.494 408C139.47 407.424 140.574 407.136 141.806 407.136C143.022 407.136 144.11 407.424 145.07 408C146.046 408.56 146.814 409.336 147.374 410.328C147.934 411.304 148.214 412.424 148.214 413.688C148.214 414.952 147.934 416.08 147.374 417.072C146.814 418.048 146.046 418.824 145.07 419.4C144.11 419.96 143.022 420.24 141.806 420.24ZM141.806 417.984C142.558 417.984 143.23 417.8 143.822 417.432C144.414 417.048 144.878 416.536 145.214 415.896C145.55 415.24 145.71 414.504 145.694 413.688C145.71 412.856 145.55 412.12 145.214 411.48C144.878 410.824 144.414 410.312 143.822 409.944C143.23 409.576 142.558 409.392 141.806 409.392C141.054 409.392 140.374 409.584 139.766 409.968C139.174 410.336 138.71 410.848 138.374 411.504C138.038 412.144 137.878 412.872 137.894 413.688C137.878 414.504 138.038 415.24 138.374 415.896C138.71 416.536 139.174 417.048 139.766 417.432C140.374 417.8 141.054 417.984 141.806 417.984ZM155.108 420.24C154.052 420.24 153.1 420.056 152.252 419.688C151.404 419.32 150.7 418.776 150.14 418.056L151.82 416.616C152.3 417.176 152.82 417.584 153.38 417.84C153.956 418.08 154.604 418.2 155.324 418.2C155.612 418.2 155.876 418.168 156.116 418.104C156.372 418.024 156.588 417.912 156.764 417.768C156.956 417.624 157.1 417.456 157.196 417.264C157.292 417.056 157.34 416.832 157.34 416.592C157.34 416.176 157.188 415.84 156.884 415.584C156.724 415.472 156.468 415.352 156.116 415.224C155.78 415.08 155.34 414.936 154.796 414.792C153.868 414.552 153.108 414.28 152.516 413.976C151.924 413.672 151.468 413.328 151.148 412.944C150.908 412.64 150.732 412.312 150.62 411.96C150.508 411.592 150.452 411.192 150.452 410.76C150.452 410.232 150.564 409.752 150.788 409.32C151.028 408.872 151.348 408.488 151.748 408.168C152.164 407.832 152.644 407.576 153.188 407.4C153.748 407.224 154.34 407.136 154.964 407.136C155.556 407.136 156.14 407.216 156.716 407.376C157.308 407.536 157.852 407.768 158.348 408.072C158.844 408.376 159.26 408.736 159.596 409.152L158.18 410.712C157.876 410.408 157.54 410.144 157.172 409.92C156.82 409.68 156.46 409.496 156.092 409.368C155.724 409.24 155.388 409.176 155.084 409.176C154.748 409.176 154.444 409.208 154.172 409.272C153.9 409.336 153.668 409.432 153.476 409.56C153.3 409.688 153.164 409.848 153.068 410.04C152.972 410.232 152.924 410.448 152.924 410.688C152.94 410.896 152.988 411.096 153.068 411.288C153.164 411.464 153.292 411.616 153.452 411.744C153.628 411.872 153.892 412.008 154.244 412.152C154.596 412.296 155.044 412.432 155.588 412.56C156.388 412.768 157.044 413 157.556 413.256C158.084 413.496 158.5 413.776 158.804 414.096C159.124 414.4 159.348 414.752 159.476 415.152C159.604 415.552 159.668 416 159.668 416.496C159.668 417.216 159.46 417.864 159.044 418.44C158.644 419 158.1 419.44 157.412 419.76C156.724 420.08 155.956 420.24 155.108 420.24ZM168.272 420.24C166.976 420.24 165.824 419.968 164.816 419.424C163.824 418.864 163.04 418.104 162.464 417.144C161.904 416.184 161.624 415.08 161.624 413.832C161.624 412.84 161.784 411.936 162.104 411.12C162.424 410.304 162.864 409.6 163.424 409.008C164 408.4 164.68 407.936 165.464 407.616C166.264 407.28 167.128 407.112 168.056 407.112C168.872 407.112 169.632 407.272 170.336 407.592C171.04 407.896 171.648 408.32 172.16 408.864C172.688 409.408 173.088 410.056 173.36 410.808C173.648 411.544 173.784 412.352 173.768 413.232L173.744 414.288H163.448L162.896 412.32H171.608L171.248 412.728V412.152C171.2 411.624 171.024 411.152 170.72 410.736C170.416 410.32 170.032 409.992 169.568 409.752C169.104 409.512 168.6 409.392 168.056 409.392C167.192 409.392 166.464 409.56 165.872 409.896C165.28 410.216 164.832 410.696 164.528 411.336C164.224 411.96 164.072 412.736 164.072 413.664C164.072 414.544 164.256 415.312 164.624 415.968C164.992 416.608 165.512 417.104 166.184 417.456C166.856 417.808 167.632 417.984 168.512 417.984C169.136 417.984 169.712 417.88 170.24 417.672C170.784 417.464 171.368 417.088 171.992 416.544L173.24 418.296C172.856 418.68 172.384 419.016 171.824 419.304C171.28 419.592 170.696 419.824 170.072 420C169.464 420.16 168.864 420.24 168.272 420.24ZM188.821 425.52C187.925 425.52 187.029 425.376 186.133 425.088C185.253 424.816 184.541 424.456 183.997 424.008L184.909 422.088C185.229 422.328 185.605 422.536 186.037 422.712C186.469 422.904 186.925 423.048 187.405 423.144C187.885 423.256 188.357 423.312 188.821 423.312C189.701 423.312 190.437 423.168 191.029 422.88C191.621 422.592 192.069 422.168 192.373 421.608C192.677 421.048 192.829 420.352 192.829 419.52V417.096L193.093 417.264C193.013 417.76 192.749 418.24 192.301 418.704C191.869 419.152 191.325 419.52 190.669 419.808C190.013 420.096 189.341 420.24 188.653 420.24C187.453 420.24 186.381 419.96 185.437 419.4C184.509 418.824 183.773 418.048 183.229 417.072C182.685 416.08 182.413 414.952 182.413 413.688C182.413 412.424 182.677 411.304 183.205 410.328C183.749 409.336 184.485 408.56 185.413 408C186.357 407.424 187.413 407.136 188.581 407.136C189.061 407.136 189.525 407.2 189.973 407.328C190.421 407.44 190.837 407.608 191.221 407.832C191.605 408.04 191.949 408.272 192.253 408.528C192.557 408.784 192.805 409.056 192.997 409.344C193.189 409.632 193.309 409.904 193.357 410.16L192.829 410.352V407.4H195.301V419.232C195.301 420.24 195.149 421.128 194.845 421.896C194.557 422.68 194.133 423.336 193.573 423.864C193.013 424.408 192.333 424.816 191.533 425.088C190.733 425.376 189.829 425.52 188.821 425.52ZM188.917 417.96C189.701 417.96 190.397 417.776 191.005 417.408C191.613 417.04 192.085 416.536 192.421 415.896C192.757 415.256 192.925 414.52 192.925 413.688C192.925 412.856 192.749 412.12 192.397 411.48C192.061 410.824 191.589 410.312 190.981 409.944C190.389 409.576 189.701 409.392 188.917 409.392C188.149 409.392 187.461 409.584 186.853 409.968C186.261 410.336 185.789 410.848 185.437 411.504C185.101 412.144 184.933 412.872 184.933 413.688C184.933 414.504 185.101 415.24 185.437 415.896C185.789 416.536 186.261 417.04 186.853 417.408C187.461 417.776 188.149 417.96 188.917 417.96ZM204.647 420.24C203.351 420.24 202.199 419.968 201.191 419.424C200.199 418.864 199.415 418.104 198.839 417.144C198.279 416.184 197.999 415.08 197.999 413.832C197.999 412.84 198.159 411.936 198.479 411.12C198.799 410.304 199.239 409.6 199.799 409.008C200.375 408.4 201.055 407.936 201.839 407.616C202.639 407.28 203.503 407.112 204.431 407.112C205.247 407.112 206.007 407.272 206.711 407.592C207.415 407.896 208.023 408.32 208.535 408.864C209.063 409.408 209.463 410.056 209.735 410.808C210.023 411.544 210.159 412.352 210.143 413.232L210.119 414.288H199.823L199.271 412.32H207.983L207.623 412.728V412.152C207.575 411.624 207.399 411.152 207.095 410.736C206.791 410.32 206.407 409.992 205.943 409.752C205.479 409.512 204.975 409.392 204.431 409.392C203.567 409.392 202.839 409.56 202.247 409.896C201.655 410.216 201.207 410.696 200.903 411.336C200.599 411.96 200.447 412.736 200.447 413.664C200.447 414.544 200.631 415.312 200.999 415.968C201.367 416.608 201.887 417.104 202.559 417.456C203.231 417.808 204.007 417.984 204.887 417.984C205.511 417.984 206.087 417.88 206.615 417.672C207.159 417.464 207.743 417.088 208.367 416.544L209.615 418.296C209.231 418.68 208.759 419.016 208.199 419.304C207.655 419.592 207.071 419.824 206.447 420C205.839 420.16 205.239 420.24 204.647 420.24ZM212.782 420V407.4H215.278V410.088L214.822 410.376C214.95 409.96 215.15 409.56 215.422 409.176C215.71 408.792 216.054 408.456 216.454 408.168C216.87 407.864 217.31 407.624 217.774 407.448C218.254 407.272 218.742 407.184 219.238 407.184C219.958 407.184 220.59 407.304 221.134 407.544C221.678 407.784 222.126 408.144 222.478 408.624C222.83 409.104 223.086 409.704 223.246 410.424L222.862 410.328L223.03 409.92C223.206 409.552 223.446 409.208 223.75 408.888C224.07 408.552 224.43 408.256 224.83 408C225.23 407.744 225.654 407.544 226.102 407.4C226.55 407.256 226.99 407.184 227.422 407.184C228.366 407.184 229.142 407.376 229.75 407.76C230.374 408.144 230.838 408.728 231.142 409.512C231.462 410.296 231.622 411.272 231.622 412.44V420H229.126V412.584C229.126 411.864 229.03 411.28 228.838 410.832C228.662 410.368 228.39 410.024 228.022 409.8C227.654 409.576 227.182 409.464 226.606 409.464C226.158 409.464 225.734 409.544 225.334 409.704C224.95 409.848 224.614 410.056 224.326 410.328C224.038 410.6 223.814 410.92 223.654 411.288C223.494 411.64 223.414 412.032 223.414 412.464V420H220.918V412.536C220.918 411.88 220.822 411.328 220.63 410.88C220.438 410.416 220.158 410.064 219.79 409.824C219.422 409.584 218.974 409.464 218.446 409.464C217.998 409.464 217.582 409.544 217.198 409.704C216.814 409.848 216.478 410.056 216.19 410.328C215.902 410.584 215.678 410.896 215.518 411.264C215.358 411.616 215.278 412 215.278 412.416V420H212.782ZM239.131 420.24C238.075 420.24 237.123 420.056 236.275 419.688C235.427 419.32 234.723 418.776 234.163 418.056L235.843 416.616C236.323 417.176 236.843 417.584 237.403 417.84C237.979 418.08 238.627 418.2 239.347 418.2C239.635 418.2 239.899 418.168 240.139 418.104C240.395 418.024 240.611 417.912 240.787 417.768C240.979 417.624 241.123 417.456 241.219 417.264C241.315 417.056 241.363 416.832 241.363 416.592C241.363 416.176 241.211 415.84 240.907 415.584C240.747 415.472 240.491 415.352 240.139 415.224C239.803 415.08 239.363 414.936 238.819 414.792C237.891 414.552 237.131 414.28 236.539 413.976C235.947 413.672 235.491 413.328 235.171 412.944C234.931 412.64 234.755 412.312 234.643 411.96C234.531 411.592 234.475 411.192 234.475 410.76C234.475 410.232 234.587 409.752 234.811 409.32C235.051 408.872 235.371 408.488 235.771 408.168C236.187 407.832 236.667 407.576 237.211 407.4C237.771 407.224 238.363 407.136 238.987 407.136C239.579 407.136 240.163 407.216 240.739 407.376C241.331 407.536 241.875 407.768 242.371 408.072C242.867 408.376 243.283 408.736 243.619 409.152L242.203 410.712C241.899 410.408 241.563 410.144 241.195 409.92C240.843 409.68 240.483 409.496 240.115 409.368C239.747 409.24 239.411 409.176 239.107 409.176C238.771 409.176 238.467 409.208 238.195 409.272C237.923 409.336 237.691 409.432 237.499 409.56C237.323 409.688 237.187 409.848 237.091 410.04C236.995 410.232 236.947 410.448 236.947 410.688C236.963 410.896 237.011 411.096 237.091 411.288C237.187 411.464 237.315 411.616 237.475 411.744C237.651 411.872 237.915 412.008 238.267 412.152C238.619 412.296 239.067 412.432 239.611 412.56C240.411 412.768 241.067 413 241.579 413.256C242.107 413.496 242.523 413.776 242.827 414.096C243.147 414.4 243.371 414.752 243.499 415.152C243.627 415.552 243.691 416 243.691 416.496C243.691 417.216 243.483 417.864 243.067 418.44C242.667 419 242.123 419.44 241.435 419.76C240.747 420.08 239.979 420.24 239.131 420.24ZM253.142 420V407.4H255.614V409.992L255.182 410.28C255.342 409.72 255.654 409.208 256.118 408.744C256.582 408.264 257.134 407.88 257.774 407.592C258.414 407.288 259.07 407.136 259.742 407.136C260.702 407.136 261.502 407.328 262.142 407.712C262.782 408.08 263.262 408.648 263.582 409.416C263.902 410.184 264.062 411.152 264.062 412.32V420H261.59V412.488C261.59 411.768 261.494 411.176 261.302 410.712C261.11 410.232 260.814 409.888 260.414 409.68C260.014 409.456 259.518 409.36 258.926 409.392C258.446 409.392 258.006 409.472 257.606 409.632C257.206 409.776 256.854 409.984 256.55 410.256C256.262 410.528 256.03 410.848 255.854 411.216C255.694 411.568 255.614 411.952 255.614 412.368V420H254.39C254.182 420 253.974 420 253.766 420C253.558 420 253.35 420 253.142 420ZM273.296 420.24C272 420.24 270.848 419.968 269.84 419.424C268.848 418.864 268.064 418.104 267.488 417.144C266.928 416.184 266.648 415.08 266.648 413.832C266.648 412.84 266.808 411.936 267.128 411.12C267.448 410.304 267.888 409.6 268.448 409.008C269.024 408.4 269.704 407.936 270.488 407.616C271.288 407.28 272.152 407.112 273.08 407.112C273.896 407.112 274.656 407.272 275.36 407.592C276.064 407.896 276.672 408.32 277.184 408.864C277.712 409.408 278.112 410.056 278.384 410.808C278.672 411.544 278.808 412.352 278.792 413.232L278.768 414.288H268.472L267.92 412.32H276.632L276.272 412.728V412.152C276.224 411.624 276.048 411.152 275.744 410.736C275.44 410.32 275.056 409.992 274.592 409.752C274.128 409.512 273.624 409.392 273.08 409.392C272.216 409.392 271.488 409.56 270.896 409.896C270.304 410.216 269.856 410.696 269.552 411.336C269.248 411.96 269.096 412.736 269.096 413.664C269.096 414.544 269.28 415.312 269.648 415.968C270.016 416.608 270.536 417.104 271.208 417.456C271.88 417.808 272.656 417.984 273.536 417.984C274.16 417.984 274.736 417.88 275.264 417.672C275.808 417.464 276.392 417.088 277.016 416.544L278.264 418.296C277.88 418.68 277.408 419.016 276.848 419.304C276.304 419.592 275.72 419.824 275.096 420C274.488 420.16 273.888 420.24 273.296 420.24ZM289.784 420L285.704 414.696L285.344 414.24L280.04 407.4H283.16L287.168 412.632L287.576 413.16L292.808 420H289.784ZM280.064 420L285.032 413.52L286.496 415.272L282.992 420H280.064ZM287.72 413.904L286.352 412.176L289.448 407.4H292.376L287.72 413.904ZM296.444 420V404.184H298.916V420H296.444ZM293.828 409.8V407.4H301.844V409.8H293.828ZM312.382 420V404.184H314.854V420H312.382ZM309.766 409.8V407.4H317.782V409.8H309.766ZM324.449 420.24C323.553 420.24 322.769 420.032 322.097 419.616C321.441 419.2 320.929 418.616 320.561 417.864C320.209 417.112 320.033 416.216 320.033 415.176V407.4H322.505V414.504C322.505 415.24 322.617 415.88 322.841 416.424C323.081 416.952 323.417 417.36 323.849 417.648C324.297 417.936 324.833 418.08 325.457 418.08C325.921 418.08 326.345 418.008 326.729 417.864C327.113 417.704 327.441 417.488 327.713 417.216C328.001 416.944 328.225 416.616 328.385 416.232C328.545 415.848 328.625 415.432 328.625 414.984V407.4H331.097V420H328.625V417.36L329.057 417.072C328.865 417.664 328.537 418.2 328.073 418.68C327.625 419.16 327.089 419.544 326.465 419.832C325.841 420.104 325.169 420.24 324.449 420.24ZM334.564 420V407.4H337.06V411.36L336.82 410.4C336.996 409.792 337.292 409.24 337.708 408.744C338.14 408.248 338.628 407.856 339.172 407.568C339.732 407.28 340.308 407.136 340.9 407.136C341.172 407.136 341.428 407.16 341.668 407.208C341.924 407.256 342.124 407.312 342.268 407.376L341.62 410.064C341.428 409.984 341.212 409.92 340.972 409.872C340.748 409.808 340.524 409.776 340.3 409.776C339.868 409.776 339.452 409.864 339.052 410.04C338.668 410.2 338.324 410.432 338.02 410.736C337.732 411.024 337.5 411.368 337.324 411.768C337.148 412.152 337.06 412.576 337.06 413.04V420H334.564ZM344.244 420V407.4H346.716V409.992L346.284 410.28C346.444 409.72 346.756 409.208 347.22 408.744C347.684 408.264 348.236 407.88 348.876 407.592C349.516 407.288 350.172 407.136 350.844 407.136C351.804 407.136 352.604 407.328 353.244 407.712C353.884 408.08 354.364 408.648 354.684 409.416C355.004 410.184 355.164 411.152 355.164 412.32V420H352.692V412.488C352.692 411.768 352.596 411.176 352.404 410.712C352.212 410.232 351.916 409.888 351.516 409.68C351.116 409.456 350.62 409.36 350.028 409.392C349.548 409.392 349.108 409.472 348.708 409.632C348.308 409.776 347.956 409.984 347.652 410.256C347.364 410.528 347.132 410.848 346.956 411.216C346.796 411.568 346.716 411.952 346.716 412.368V420H345.492C345.284 420 345.076 420 344.868 420C344.66 420 344.452 420 344.244 420Z" fill="#FAF9F6"/>
<path d="M137.023 190.583C139.079 192.102 140.181 193.403 140.827 193.885C141.088 194.131 141.956 194.967 142.078 195.13C142.281 195.453 142.653 195.7 143.203 196.572C143.919 197.445 144.673 198.234 145.282 199.065C145.994 200.036 146.705 201.138 147.195 202.062C147.583 202.793 147.918 203.799 148.438 204.716C148.886 205.506 149.241 206.582 149.701 207.594C150.189 208.667 150.418 209.319 150.678 210.024C151.045 211.017 151.269 211.729 151.514 212.863C151.859 214.462 152.173 215.276 151.96 218.598C151.859 220.177 151.85 221.475 151.716 222.746C151.614 223.702 151.761 225.564 150.755 228.73C150.023 231.037 149.639 232.42 148.351 234.864C147.659 236.178 146.65 237.864 144.928 240.74C144.36 241.688 143.72 242.95 142.645 244.286C141.833 245.294 140.991 246.086 139.994 247.062C138.733 248.296 137.535 249.505 136.534 250.34C135.151 251.494 132.901 253.346 131.404 254.125C130.465 254.613 129.491 255.183 128.246 255.644C126.869 256.154 124.815 256.937 121.52 257.589C119.783 257.933 117.419 258.196 114.452 258.662C113.683 258.783 112.189 258.721 110.193 258.844C109.201 258.904 107.248 259.109 104.505 258.903C102.883 258.782 102.018 258.778 101.335 258.66C99.4526 258.334 96.9639 257.61 95.4254 257.078C93.4319 256.39 92.4639 255.969 91.353 255.519C89.3913 254.724 87.0972 253.464 85.0182 252.216C83.7349 251.445 82.2442 250.627 81.2526 249.826C80.3934 249.133 78.5241 247.683 77.4228 246.645C76.233 245.523 74.6866 244.148 73.8173 243.038C73.1041 242.127 72.4777 241.383 71.6576 240.221C70.4495 238.51 68.7879 236.609 67.482 234.081C67.1177 233.377 66.4629 232.403 65.6444 230.464C64.6281 228.057 63.9791 226.155 63.7353 225.024C63.4914 223.892 63.1942 222.632 63.1663 220.84C63.126 218.251 63.1975 216.605 63.2281 216.195C63.3313 214.812 63.5101 213.526 63.657 212.503C63.8605 211.085 64.2238 208.991 65.0076 206.268C65.4604 204.694 66.0654 202.769 66.8458 200.814C67.6262 198.86 68.4932 196.9 69.3501 195.497C70.7917 193.136 71.8786 191.755 73.1414 190.601C75.1574 188.758 76.8998 187.351 77.531 186.822C77.916 186.499 78.6754 186.133 79.5281 185.505C79.9937 185.162 81.7743 184.083 84.4652 182.849C85.7809 182.245 86.2598 182.017 86.865 181.798C87.9845 181.393 89.9821 180.725 93.7228 180.318C96.155 180.054 99.6233 179.712 101.877 179.755C105.14 179.817 106.401 179.905 108.007 180.123C109.374 180.309 111.794 180.67 113.856 181.078C115.918 181.486 117.584 181.889 118.877 182.333C121.109 183.101 122.604 183.565 125.358 184.798C127.615 185.808 131.503 187.581 133.506 188.577C135.686 189.662 136.073 189.882 137.023 190.583Z" fill="#F2EB5C" stroke="#52783B" stroke-linecap="round"/>
<path d="M93.6046 183.538C83.6605 184.905 71.3858 199.697 69.832 206.999C71.3236 214.333 82.5729 217.306 88.011 217.876C88.8812 204.078 97.6962 195.139 101.995 192.394C100.752 187.173 95.8834 184.314 93.6046 183.538Z" fill="#FEFEF6"/>
<path d="M122.974 232.423C121.358 239.757 114.014 247.909 110.544 251.069C135.28 253.803 141.982 230.352 142.241 218.284C138.139 227.731 127.687 231.647 122.974 232.423Z" fill="#B47933"/>
<path d="M108.144 189.101L108.168 189.074C108.466 188.677 108.861 188.183 108.961 188.05C109.158 187.754 109.521 187.127 109.967 186.6C110.479 186.204 110.961 185.609 111.616 185.232C112.16 184.918 112.768 184.348 113.512 184.226C114.71 184.029 116.359 184.068 116.892 184.327C117.502 184.625 118.103 184.952 118.325 185.598C118.523 186.176 118.717 188.298 118.554 189.588L118.553 189.599C118.454 190.375 118.33 191.357 118.142 192.211C117.894 193.332 117.767 194.002 117.614 194.618C117.334 195.74 117.084 196.578 116.872 197.321C116.608 198.247 116.324 199.491 115.932 200.767C115.684 201.576 115.046 203.412 114.63 204.938C114.331 206.034 113.867 207.623 113.506 209.056C112.912 211.413 112.391 213.346 112.239 214.14C111.992 215.427 111.736 217.076 111.448 218.408C111.266 219.25 111.049 220.318 110.656 221.541C110.342 222.518 109.991 223.711 109.733 224.574C109.452 225.517 109.197 226.72 108.942 227.541C108.627 228.554 108.286 230.21 107.952 231.451C107.606 232.737 107.227 233.707 107.112 234.863C107.012 235.869 106.78 236.862 106.568 237.946C106.387 238.868 106.376 239.536 106.172 240.651C105.924 242.004 105.735 242.913 105.612 243.816C105.463 244.904 105.18 246.086 104.919 247.294C104.737 248.135 104.651 249.027 104.309 249.881C104.045 250.541 104.092 251.286 102.657 253.314C101.866 254.432 101.073 255.488 100.233 255.419C98.9956 255.317 97.9989 254.803 97.3159 254.229C96.4929 253.536 96.1308 253.052 95.702 252.515C95.3058 252.019 94.7571 251.196 94.4328 250.222C94.186 249.48 93.942 248.912 93.7572 247.798C93.6261 247.007 93.5569 246.334 93.312 245.374C93.0979 244.534 92.9538 243.744 92.8342 242.737C92.7022 241.624 92.679 240.029 92.3391 238.547C92.1086 237.542 92.0706 236.747 91.9276 235.135C91.8781 234.577 91.5839 232.517 91.8623 229.737C92.0453 227.909 92.4007 226.482 92.6873 224.697C92.902 223.361 93.1506 222.256 93.5781 220.327C93.9585 218.611 94.4897 217.203 95.0293 214.952C95.4087 213.37 95.6731 212.17 96.0012 211.064C96.2654 210.175 96.4931 209.529 97.0073 208.212C97.3891 207.235 98.0268 205.447 98.6726 204.372C98.87 204.043 99.598 202.47 100.836 200.476C101.343 199.658 101.597 199.371 102.057 198.543C102.963 196.912 103.734 195.517 104.147 194.924C104.41 194.547 104.69 193.946 105.388 192.888C107.06 190.357 107.531 189.812 108.144 189.101Z" fill="#DF913E"/>
<path d="M97.8085 247.65C98.4301 248.427 99.5639 252.519 99.8228 254.642C100.082 253.969 100.134 252.467 100.295 250.758C100.446 249.149 101.011 248.246 101.227 247.806C101.532 247.184 102.346 246.252 101.848 245.009C101.351 243.766 101.33 242.73 101.382 242.367C101.486 241.539 101.848 239.229 102.47 236.618C103.247 233.356 105.111 232.889 106.043 231.957C106.976 231.025 106.976 229.316 105.267 224.654C103.899 220.925 105.836 216.886 106.976 215.332C108.219 213.467 110.922 209.521 111.792 208.651C112.663 207.781 112.259 206.217 111.948 205.543C111.741 205.336 111.233 204.3 110.86 201.814C110.394 198.707 112.103 194.822 112.725 193.113C113.222 191.746 114.486 190.886 115.055 190.627C115.314 190.627 115.77 190.347 115.521 189.229C115.273 188.11 115.418 186.587 115.521 185.966C114.651 186.96 113.502 187.416 113.035 187.52C112.518 187.727 111.575 188.328 111.948 189.073C112.321 189.819 111.689 191.145 111.326 191.715C109.047 194.667 104.117 200.82 102.625 201.814C101.134 202.809 100.968 205.44 101.071 206.631C101.227 208.392 101.382 212.97 100.761 217.196C100.139 221.423 96.5655 226.208 94.8564 228.073C94.4939 228.642 94.1417 230.031 95.6333 231.025C97.1249 232.019 97.4978 234.34 97.4978 235.375C97.4978 235.375 98.2747 243.455 97.8085 244.387C97.3424 245.32 97.2021 246.892 97.8085 247.65Z" fill="#0E151B"/>
<path d="M92.5208 180.061C93.2666 174.344 91.5885 170.843 90.6562 169.807C140.004 161.603 164.771 189.177 170.986 203.989C170.116 206.6 166.998 207.77 165.548 208.029C161.57 203.927 152.884 204.637 149 205C134.332 181.88 105.21 178.404 92.5208 180.061Z" fill="#8EB44D" stroke="#52783B"/>
<path d="M65.3528 168.968C73.3448 166.988 85.8486 168.453 90.5 170C92.6565 171.733 92.7114 177.576 92.5 180C87.0451 179.381 75.5171 188.183 71.5 192C68.7091 186.554 62.1185 183.428 58.9999 182.5C57.7313 178.415 62.9213 171.495 65.3528 168.968Z" fill="#8EB44D" stroke="#52783B"/>
<path d="M48.0827 184.101C50.1959 182.112 55.8166 182.703 58.7687 182.703C66.2268 185.065 70.4737 190.005 71.665 192.181C68.1845 197.774 64.9163 209.562 63 215C56.412 218.978 47.2629 218.466 44 218C42.6016 216.239 40.1275 211.416 40.0032 206.32C39.8478 199.95 45.4413 186.587 48.0827 184.101Z" fill="#8EB44D" stroke="#52783B"/>
<path d="M42.179 220.46C42.0547 219.589 42.7487 218.647 43.5774 217.974C50.7869 220.211 59.2186 217.041 62.5332 215.177C62.4089 221.765 67.8765 233.183 70 238C68.6327 240.486 60.099 243.248 56.1628 244.698C53.6768 244.077 50.7764 241.953 49.637 240.969C44.5096 230.559 42.3344 221.547 42.179 220.46Z" fill="#8EB44D" stroke="#52783B"/>
<path d="M95.1622 267.849C85.0938 267.725 65.4336 252.418 56.6289 244.857C63.7141 242.868 68.8 239.677 70.4574 238.331C75.3051 243.303 82.6803 248.22 85.995 249.981C92.5829 252.84 97.3375 256.869 98.8912 258.527C99.3884 261.883 96.6124 266.14 95.1622 267.849Z" fill="#8EB44D" stroke="#52783B"/>
<path d="M96.2495 268.315C97.1196 266.824 99.2017 261.375 100.134 258.837C107.468 258.589 118.779 257.957 122.819 257.439C128.288 259.303 136.544 266.295 140.532 269.714C140.905 273.691 136.751 279.658 134.627 282.144C128.412 283.387 106.349 273.391 96.2495 268.315Z" fill="#8EB44D" stroke="#52783B"/>
<path d="M152.34 267.694C144.757 270.428 130.224 261.686 123.906 256.973C156.473 241.311 154.567 215.85 149.543 205.077C158.368 203.461 164.096 206.683 165.857 208.496C174.31 217.072 181.499 235.686 184.036 243.921C185.642 248.842 186.989 258.62 179.53 258.371C170.208 258.061 161.818 259.925 159.642 262.722C157.902 264.959 154.049 266.969 152.34 267.694Z" fill="#8EB44D" stroke="#52783B"/>
<path d="M98.7354 176.333C134.285 172.107 151.978 190.731 156.38 200.571C153.024 198.334 148.974 198.811 147.368 199.328C141.65 181.553 112.564 176.592 98.7354 176.333Z" fill="#52783B"/>
<path d="M67.9712 181.305C73.4405 172.728 82.7838 175.349 86.7717 177.731C78.0707 177.358 73.2022 183.066 71.8556 185.966C68.4995 184.847 67.8676 182.392 67.9712 181.305Z" fill="#52783B"/>
<path d="M61.29 204.611C59.6327 207.149 53.7698 211.292 43.5771 207.563C46.1668 213.312 53.3348 220.77 61.29 204.611Z" fill="#52783B"/>
<path d="M47.4616 223.878C50.2065 228.384 57.6542 237.178 65.4852 236.308C61.7562 241.487 52.9308 246.252 47.4616 223.878Z" fill="#52783B"/>
<path d="M63.3099 248.117C70.4054 252.208 86.7717 260.049 95.4728 258.682C97.2337 263.81 93.2665 268.875 63.3099 248.117Z" fill="#52783B"/>
<path d="M102.309 268.626C110.855 271.112 129.78 274.903 137.114 270.18C138.149 274.686 132.639 280.683 102.309 268.626Z" fill="#52783B"/>
<path d="M168.655 244.698C155.852 258.123 137.424 259.096 129.811 257.905C140.998 264.618 149.906 263.913 152.962 262.722C154.775 261.997 158.556 260.081 159.177 258.216C159.799 256.352 161.404 254.953 162.129 254.487C167.226 251.255 176.89 254.073 181.085 255.885C173.503 251.535 169.639 246.615 168.655 244.698Z" fill="#52783B"/>
<path d="M165.392 236.929C161.912 234.195 158.038 226.882 156.536 223.567C156.536 226.923 154.464 232.942 153.428 235.531C155.914 238.514 162.44 237.706 165.392 236.929Z" fill="#52783B"/>
<path d="M256.331 193.069C254.217 194.588 253.084 195.889 252.421 196.37C252.152 196.617 251.259 197.452 251.134 197.615C250.925 197.939 250.543 198.185 249.977 199.058C249.242 199.931 248.467 200.72 247.841 201.551C247.108 202.522 246.377 203.624 245.874 204.547C245.475 205.279 245.131 206.285 244.596 207.202C244.136 207.992 243.771 209.068 243.298 210.08C242.796 211.152 242.561 211.804 242.293 212.51C241.917 213.503 241.686 214.215 241.434 215.349C241.08 216.948 240.756 217.762 240.976 221.084C241.08 222.663 241.089 223.961 241.227 225.232C241.331 226.188 241.181 228.05 242.214 231.215C242.967 233.522 243.362 234.906 244.685 237.35C245.397 238.664 246.434 240.35 248.205 243.226C248.788 244.174 249.447 245.436 250.552 246.771C251.386 247.78 252.252 248.572 253.277 249.548C254.573 250.781 255.804 251.991 256.834 252.826C258.255 253.979 260.568 255.832 262.107 256.61C263.072 257.098 264.073 257.668 265.353 258.13C266.768 258.64 268.88 259.422 272.268 260.075C274.053 260.419 276.483 260.682 279.533 261.148C280.324 261.269 281.859 261.207 283.911 261.33C284.931 261.39 286.939 261.595 289.759 261.389C291.425 261.268 292.315 261.264 293.017 261.146C294.952 260.82 297.51 260.095 299.092 259.564C301.141 258.875 302.136 258.454 303.278 258.005C305.295 257.21 307.653 255.95 309.79 254.701C311.109 253.931 312.642 253.113 313.661 252.312C314.544 251.619 316.466 250.169 317.598 249.131C318.821 248.009 320.411 246.634 321.304 245.524C322.037 244.613 322.681 243.868 323.524 242.707C324.766 240.995 326.474 239.095 327.817 236.567C328.191 235.862 328.865 234.888 329.706 232.95C330.751 230.543 331.418 228.641 331.668 227.509C331.919 226.378 332.225 225.117 332.253 223.326C332.295 220.737 332.221 219.091 332.19 218.681C332.084 217.298 331.9 216.012 331.749 214.989C331.54 213.571 331.166 211.477 330.36 208.754C329.895 207.18 329.273 205.255 328.471 203.3C327.669 201.346 326.777 199.386 325.897 197.982C324.415 195.622 323.297 194.241 321.999 193.086C319.927 191.244 318.136 189.837 317.487 189.308C317.091 188.985 316.31 188.619 315.434 187.991C314.955 187.648 313.125 186.569 310.359 185.335C309.006 184.731 308.514 184.503 307.892 184.284C306.741 183.879 304.687 183.21 300.842 182.804C298.342 182.539 294.777 182.198 292.459 182.24C289.106 182.302 287.809 182.39 286.158 182.609C284.753 182.795 282.265 183.156 280.145 183.564C278.026 183.971 276.313 184.375 274.985 184.819C272.69 185.587 271.153 186.051 268.322 187.284C266.002 188.294 262.006 190.067 259.946 191.063C257.705 192.148 257.307 192.368 256.331 193.069Z" fill="#F2EB5C" stroke="#52783B" stroke-linecap="round"/>
<path d="M289.685 192.998L289.664 192.969C289.396 192.55 289.041 192.027 288.952 191.887C288.778 191.576 288.464 190.923 288.06 190.364C287.58 189.929 287.144 189.3 286.521 188.873C286.002 188.518 285.44 187.904 284.707 187.725C283.527 187.437 281.88 187.348 281.33 187.566C280.698 187.816 280.074 188.096 279.804 188.723C279.561 189.284 279.205 191.386 279.269 192.684L279.269 192.694C279.307 193.477 279.356 194.465 279.478 195.331C279.64 196.468 279.714 197.146 279.82 197.771C280.013 198.911 280.198 199.766 280.352 200.523C280.545 201.466 280.732 202.729 281.025 204.031C281.21 204.857 281.705 206.737 282.003 208.29C282.217 209.405 282.558 211.025 282.808 212.482C283.219 214.878 283.59 216.845 283.681 217.648C283.828 218.951 283.957 220.614 284.142 221.965C284.259 222.817 284.393 223.899 284.691 225.149C284.929 226.147 285.188 227.363 285.378 228.244C285.586 229.206 285.748 230.424 285.94 231.263C286.176 232.297 286.388 233.974 286.626 235.237C286.873 236.546 287.176 237.542 287.202 238.704C287.224 239.714 287.38 240.723 287.508 241.819C287.617 242.752 287.577 243.419 287.695 244.547C287.838 245.914 287.958 246.835 288.011 247.745C288.075 248.842 288.267 250.042 288.434 251.266C288.551 252.119 288.569 253.015 288.844 253.893C289.057 254.57 288.953 255.309 290.228 257.442C290.93 258.618 291.64 259.731 292.483 259.726C293.725 259.72 294.758 259.284 295.483 258.764C296.357 258.137 296.755 257.681 297.224 257.179C297.657 256.715 298.267 255.936 298.665 254.99C298.968 254.27 299.255 253.722 299.525 252.625C299.716 251.847 299.837 251.181 300.155 250.243C300.433 249.422 300.637 248.645 300.833 247.65C301.05 246.55 301.196 244.962 301.649 243.511C301.955 242.526 302.054 241.737 302.321 240.14C302.413 239.587 302.864 237.556 302.8 234.763C302.758 232.927 302.513 231.476 302.364 229.675C302.253 228.326 302.09 227.205 301.812 225.249C301.564 223.509 301.143 222.064 300.777 219.779C300.52 218.172 300.349 216.955 300.107 215.828C299.911 214.92 299.734 214.259 299.322 212.907C299.017 211.903 298.518 210.071 297.957 208.95C297.785 208.607 297.18 206.982 296.099 204.899C295.656 204.045 295.424 203.739 295.029 202.879C294.251 201.183 293.589 199.733 293.224 199.11C292.991 198.714 292.757 198.093 292.142 196.985C290.669 194.332 290.242 193.753 289.685 192.998Z" fill="#DF913E"/>
<path d="M295.496 252.167C294.816 252.894 293.372 256.887 292.951 258.984C292.744 258.293 292.808 256.791 292.778 255.075C292.751 253.459 292.257 252.516 292.076 252.06C291.819 251.417 291.079 250.425 291.671 249.224C292.262 248.022 292.362 246.991 292.338 246.626C292.298 245.792 292.114 243.461 291.695 240.81C291.171 237.498 289.347 236.89 288.489 235.889C287.631 234.888 287.763 233.183 289.825 228.667C291.474 225.054 289.853 220.877 288.836 219.241C287.74 217.286 285.347 213.144 284.546 212.21C283.745 211.275 284.268 209.747 284.63 209.099C284.852 208.909 285.438 207.915 286 205.465C286.704 202.402 285.298 198.398 284.809 196.646C284.418 195.245 283.224 194.291 282.676 193.989C282.418 193.969 281.985 193.655 282.319 192.559C282.653 191.462 282.625 189.933 282.569 189.305C283.36 190.364 284.472 190.906 284.929 191.045C285.429 191.292 286.323 191.963 285.894 192.678C285.465 193.393 285.993 194.764 286.311 195.359C288.356 198.478 292.8 204.991 294.211 206.097C295.622 207.203 295.585 209.839 295.391 211.019C295.101 212.762 294.594 217.315 294.89 221.577C295.185 225.838 298.381 230.884 299.942 232.874C300.259 233.47 300.504 234.881 298.941 235.758C297.377 236.635 296.827 238.92 296.748 239.953C296.748 239.953 295.353 247.949 295.746 248.914C296.139 249.879 296.159 251.458 295.496 252.167Z" fill="#0E151B"/>
<path d="M301.656 183.325C300.91 177.607 302.601 174.203 303.533 173.168C254.186 164.964 229.419 192.538 223.204 207.35C224.074 209.961 227.192 211.131 228.642 211.39C232.619 207.288 240.616 208.137 244.5 208.5C259.168 185.38 288.967 181.667 301.656 183.325Z" fill="#8EB44D" stroke="#52783B"/>
<path d="M328.837 172.329C320.845 170.348 308.151 171.953 303.5 173.5C301.343 175.233 301.789 181.076 302 183.5C307.455 182.881 318.483 191.684 322.5 195.5C325.291 190.054 331.881 186.929 335 186C336.268 181.915 331.268 174.856 328.837 172.329Z" fill="#8EB44D" stroke="#52783B"/>
<path d="M346.107 187.462C343.994 185.473 338.373 186.064 335.421 186.064C327.963 188.425 323.716 193.366 322.525 195.542C326.005 201.135 329.677 211.701 331.594 217.139C338.182 221.117 346.354 221.179 349.617 220.713C351.016 218.952 354.062 214.777 354.187 209.681C354.342 203.31 348.749 189.948 346.107 187.462Z" fill="#8EB44D" stroke="#52783B"/>
<path d="M352.011 223.82C352.136 222.95 351.442 222.007 350.613 221.334C343.5 222.5 334.815 219.865 331.5 218C331.624 224.588 327.398 236.308 325.274 241.124C326.641 243.61 334.091 246.608 338.028 248.059C340.514 247.437 343.414 245.314 344.553 244.33C349.681 233.919 351.856 224.908 352.011 223.82Z" fill="#8EB44D" stroke="#52783B"/>
<path d="M299.016 271.267C309.084 271.143 329.735 255.989 338.54 248.427C331.455 246.438 326.369 243.248 324.712 241.901C319.864 246.873 312.489 251.791 309.174 253.551C302.586 256.41 296.554 259.843 295 261.5C294.503 264.856 297.565 269.558 299.016 271.267Z" fill="#8EB44D" stroke="#52783B"/>
<path d="M298.5 271.5C297.06 270.324 295 264.5 294.5 261.5C287.166 261.251 275.709 261.375 271.669 260.857C266.2 262.722 257.646 269.656 253.658 273.074C253.285 277.052 257.439 283.018 259.563 285.504C265.778 286.747 288.401 276.576 298.5 271.5Z" fill="#8EB44D" stroke="#52783B"/>
<path d="M241.85 271.054C249.432 273.789 263.965 265.047 270.284 260.333C237.717 244.672 239.623 219.211 244.647 208.438C235.821 206.822 230.093 210.043 228.332 211.856C219.88 220.433 212.691 239.047 210.153 247.282C208.548 252.202 207.201 261.98 214.659 261.732C223.982 261.421 232.372 263.286 234.547 266.082C236.287 268.32 240.141 270.329 241.85 271.054Z" fill="#8EB44D" stroke="#52783B"/>
<path d="M295.455 179.693C259.905 175.467 242.212 194.091 237.81 203.932C241.166 201.694 245.216 202.171 246.822 202.689C252.54 184.914 281.626 179.952 295.455 179.693Z" fill="#52783B"/>
<path d="M326.218 184.665C320.749 176.088 311.406 178.709 307.418 181.092C316.119 180.719 320.987 186.426 322.334 189.326C325.69 188.208 326.322 185.753 326.218 184.665Z" fill="#52783B"/>
<path d="M332.899 207.972C334.557 210.509 340.42 214.653 350.612 210.924C348.023 216.673 340.855 224.131 332.899 207.972Z" fill="#52783B"/>
<path d="M346.728 227.238C343.983 231.744 336.535 240.538 328.704 239.668C332.433 244.848 341.259 249.612 346.728 227.238Z" fill="#52783B"/>
<path d="M330.88 251.477C323.784 255.569 307.418 263.41 298.717 262.043C296.956 267.17 300.923 272.235 330.88 251.477Z" fill="#52783B"/>
<path d="M291.88 271.987C283.334 274.473 264.41 278.264 257.076 273.54C256.04 278.046 261.551 284.044 291.88 271.987Z" fill="#52783B"/>
<path d="M225.534 248.059C238.337 261.483 256.765 262.457 264.379 261.266C253.191 267.978 244.283 267.274 241.227 266.082C239.415 265.357 235.634 263.441 235.012 261.576C234.391 259.712 232.785 258.313 232.06 257.847C226.964 254.616 217.3 257.433 213.104 259.246C220.687 254.895 224.55 249.975 225.534 248.059Z" fill="#52783B"/>
<path d="M228.798 240.29C232.278 237.555 236.152 230.242 237.654 226.928C237.654 230.284 239.726 236.302 240.762 238.892C238.276 241.875 231.75 241.067 228.798 240.29Z" fill="#52783B"/>
<path d="M326.207 221.392C323.348 224.126 317.558 223.049 315.02 222.169C317.133 234.972 310.618 245.113 307.096 248.583C322.012 246.842 326.052 229.73 326.207 221.392Z" fill="#B47933"/>
<path d="M273.067 208.029C264.241 209.645 254.68 208.081 251.003 207.097C243.794 223.132 254.318 242.057 260.481 249.515C256.628 227.886 267.266 212.846 273.067 208.029Z" fill="#FEFEF6"/>
</svg>
