<svg width="395" height="491" viewBox="0 0 395 491" fill="none" xmlns="http://www.w3.org/2000/svg">
<rect width="394.619" height="491" rx="20" fill="#202020" fill-opacity="0.5"/>
<g filter="url(#filter0_d_337_37)">
<path d="M128.692 134.909C178.653 91.5029 237.511 116.823 260.695 134.909C267.091 139.461 272.229 142.02 276.614 142.02C280.038 142.02 282.119 143.224 282.544 143.831C284.85 146.259 288.625 152.279 285.275 156.94C281.925 161.601 283.988 166.25 284.251 167.83C284.778 169.674 284.453 170.518 295.313 171.781C306.399 173.07 312.465 177.029 314.225 179.517C315.196 180.61 317.174 184.361 317.32 190.624C317.466 196.887 312.647 199.424 310.219 199.91C306.213 200.577 297.037 204.498 292.376 214.84C287.715 225.181 298.688 237.963 304.757 243.061C306.578 244.336 310.037 247.941 309.309 252.165C308.58 256.389 305.364 256.474 303.846 255.988C302.633 255.624 299.914 253.476 298.748 247.795C297.583 242.114 293.286 238.631 291.283 237.599C287.763 235.717 280.942 234.686 281.816 245.61C282.689 256.535 278.053 259.994 275.625 260.358C275.504 269.765 275.807 291.456 277.992 302.963C280.177 314.47 273.44 316.74 269.799 316.437C267.25 316.315 263.098 312.431 266.885 297.865C270.673 283.299 268.949 266.791 267.614 260.358C265.672 260.54 261.787 259.156 261.787 252.165C261.787 245.173 259.238 243.547 257.964 243.607C256.993 243.243 254.031 243.025 249.953 245.064C244.855 247.613 245.583 272.011 245.765 282.571C245.911 291.019 242.548 290.097 240.849 288.58C240.303 288.155 239.429 284.683 240.303 274.196C241.177 263.708 237.632 260.965 235.751 260.904C233.505 260.419 229.123 261.378 229.56 269.098C229.997 276.818 227.558 278.141 226.283 277.837C224.826 278.019 222.132 276.854 223.006 270.736C223.88 264.619 221.306 262.482 219.91 262.179C218.939 261.693 216.415 261.705 214.084 265.638C211.754 269.571 212.142 289.368 212.628 298.776C212.749 301.689 213.465 309.846 215.359 319.168C217.252 328.49 213.113 330.214 210.807 329.91C207.651 329.607 201.849 327.507 203.888 321.535C205.927 315.563 206.437 308.972 206.437 306.423C206.498 299.504 206.583 284.319 206.437 278.93C206.291 273.54 203.463 272.071 202.067 272.011C199.579 271.404 194.857 272.156 195.877 280.022C196.896 287.888 192.903 291.189 190.779 291.857C190.779 308.122 190.852 342.073 191.143 347.753C191.434 353.434 193.935 364.444 195.148 369.238C195.695 371.848 195.258 377.723 189.14 380.345C183.022 382.967 180.765 377.431 180.4 374.336C180.036 371.12 179.891 363.703 182.221 359.77C184.552 355.838 184.892 348.907 184.77 345.933V291.857C182.525 289.854 178.288 283.372 179.308 273.467C180.328 263.563 176.091 259.266 173.846 258.355C170.204 256.899 163.468 256.316 165.652 265.638C167.837 274.96 166.563 288.094 165.652 293.495C165.046 296.227 164.378 303.546 166.563 310.975C168.748 318.403 166.866 320.624 165.652 320.807C164.621 321.171 162.084 321.571 160.19 320.26C158.297 318.949 158.673 312.31 159.098 309.154C159.948 303.085 161.246 285.885 159.644 265.638C158.042 245.392 151.451 245.914 148.355 248.705C146.717 250.183 144.946 252.874 143.986 254.532C141.983 257.991 139.98 263.817 137.795 267.277C135.319 271.792 136.763 278.383 137.795 281.114C143.767 295.243 141.619 301.325 139.798 302.599C137.552 304.723 132.151 308.061 128.509 304.42C124.868 300.778 126.992 290.522 128.509 285.848C130.209 279.415 132.697 266.184 129.056 264.728C125.414 263.271 124.018 254.046 123.776 249.616C120.28 225.436 112.244 228.859 108.663 233.593C106.054 236.749 101.963 245.719 106.479 256.352C110.994 266.986 106.418 271.707 103.565 272.739C102.23 273.285 98.613 273.54 94.8258 270.19C91.0387 266.84 92.6409 259.569 93.9155 256.352C101.344 229.26 95.7969 218.117 92.0947 215.932C88.696 213.383 81.0611 209.814 77.7109 215.932C74.3607 222.05 70.3673 222.851 68.7893 222.487C66.4831 221.637 63.7277 218.736 71.1563 213.929C78.5849 209.123 79.7138 200.881 79.3496 197.361C79.0462 192.748 80.1508 183.122 86.9967 181.52C93.8427 179.918 96.5253 172.72 97.0108 169.321C97.4963 166.287 97.2657 158.615 92.4589 152.206C87.6522 145.797 87.6643 138.611 88.2712 135.82C89.485 132.482 94.4617 128.027 104.658 136.912C114.854 145.797 124.929 139.279 128.692 134.909Z" fill="#C12026"/>
<path d="M114.673 117.066C114.527 112.988 117.525 112.09 119.042 112.15C122.32 112.15 124.505 113.243 124.505 117.43C124.505 120.781 121.834 121.618 120.499 121.618C118.618 121.8 114.818 121.145 114.673 117.066Z" fill="#C12026"/>
<path d="M76.0729 158.579C80.8797 159.599 84.7518 168.836 86.087 173.327C82.8825 170.851 77.1047 170.596 74.6164 170.778C72.9777 170.778 69.227 170.05 67.3334 167.137C65.4398 164.223 66.3016 162.403 66.9692 161.856C68.001 160.339 71.2662 157.559 76.0729 158.579Z" fill="#C12026"/>
<path d="M67.6978 238.327C66.9695 233.666 71.6427 232.015 74.0703 231.773C77.1657 231.773 80.4428 233.047 80.4428 238.327C80.4428 242.551 76.1945 243.85 74.0703 243.972C72.2496 244.032 68.4261 242.988 67.6978 238.327Z" fill="#C12026"/>
<path d="M306.032 221.759C305.45 218.991 307.974 217.692 309.309 217.389C310.766 217.389 313.315 217.389 313.861 220.666C314.298 223.288 311.98 224.429 310.766 224.672C309.431 224.854 306.615 224.526 306.032 221.759Z" fill="#C12026"/>
<path d="M300.023 160.036C299.44 154.792 303.664 152.874 305.849 152.571C308.216 152.571 313.132 153.117 312.95 158.761C312.804 163.277 309.369 164.77 307.67 164.952C305.364 165.498 300.605 165.28 300.023 160.036Z" fill="#C12026"/>
<path d="M280.724 121.436C278.102 125.369 277.204 132.664 277.083 135.82C280.542 132.725 284.365 132.179 286.732 131.997C288.626 131.851 290.92 130.237 291.83 129.448C292.134 129.326 292.85 128.355 293.287 125.442C293.724 122.529 291.527 120.587 290.374 119.98C288.25 118.827 283.346 117.504 280.724 121.436Z" fill="#C12026"/>
<rect x="51.9604" y="174.467" width="10.1118" height="33.4953" rx="5.0559" fill="#202020"/>
<rect x="88.9312" y="181.103" width="10.1118" height="26.8594" transform="rotate(90 88.9312 181.103)" fill="#202020"/>
<rect x="88.9312" y="191.214" width="10.1118" height="26.8594" transform="rotate(90 88.9312 191.214)" fill="#202020"/>
<rect x="88.9312" y="167.831" width="10.1118" height="46.767" rx="5.0559" fill="#202020"/>
<path d="M293.853 174.532L99.043 181.338V191.388H342.923L293.853 174.532Z" fill="#202020"/>
<path d="M293.853 207.717L99.043 200.911V190.861H342.923L293.853 207.717Z" fill="#202020"/>
<g filter="url(#filter1_d_337_37)">
<path d="M119.466 184.712C119.362 184.608 119.31 184.465 119.31 184.283C119.31 184.153 119.31 184.048 119.31 183.97C119.336 183.866 119.362 183.749 119.388 183.619C119.519 183.02 119.584 182.421 119.584 181.822C119.584 181.197 119.61 180.585 119.662 179.986C119.688 179.621 119.701 179.257 119.701 178.892C119.727 178.528 119.74 178.163 119.74 177.798C119.74 175.637 119.675 173.488 119.545 171.353C119.414 169.192 119.349 167.017 119.349 164.83C119.349 163.319 119.375 161.809 119.427 160.298C119.48 158.762 119.519 157.225 119.545 155.689C119.779 155.559 120.065 155.507 120.404 155.533C120.743 155.559 121.016 155.442 121.224 155.181C121.355 155.155 121.485 155.155 121.615 155.181C121.745 155.181 121.875 155.181 122.006 155.181C122.292 155.181 122.565 155.09 122.826 154.908C123.086 154.725 123.373 154.569 123.685 154.439C123.841 154.491 123.946 154.517 123.998 154.517C124.076 154.491 124.154 154.478 124.232 154.478C124.31 154.478 124.48 154.569 124.74 154.751C125 154.934 125.287 155.142 125.599 155.376C125.912 155.611 126.198 155.832 126.459 156.041C126.745 156.249 126.927 156.379 127.006 156.431C127.657 156.926 128.23 157.473 128.724 158.072C129.245 158.645 129.753 159.231 130.248 159.83C130.716 160.429 131.224 161.041 131.771 161.666C132.318 162.264 132.852 162.824 133.373 163.345C133.555 163.554 133.737 163.736 133.92 163.892C134.128 164.048 134.323 164.231 134.506 164.439C134.584 164.543 134.649 164.66 134.701 164.791C134.779 164.895 134.857 165.012 134.935 165.142C135.091 165.324 135.274 165.481 135.482 165.611C135.69 165.741 135.886 165.897 136.068 166.08C136.198 166.184 136.394 166.392 136.654 166.705C136.914 167.017 137.045 167.251 137.045 167.408C137.045 167.512 137.019 167.603 136.966 167.681C136.914 167.759 136.862 167.85 136.81 167.955C136.784 168.033 136.771 168.15 136.771 168.306C136.771 168.462 136.758 168.567 136.732 168.619C136.472 168.827 136.328 168.957 136.302 169.009C136.276 169.061 136.237 169.113 136.185 169.166C136.107 169.27 136.003 169.361 135.873 169.439C135.769 169.491 135.69 169.582 135.638 169.712C135.586 169.791 135.56 169.869 135.56 169.947C135.586 170.025 135.573 170.116 135.521 170.22C135.391 170.507 135.183 170.78 134.896 171.041C134.61 171.301 134.362 171.587 134.154 171.9C133.868 172.369 133.581 172.837 133.295 173.306C133.008 173.775 132.683 174.231 132.318 174.673C132.162 174.882 131.993 175.09 131.81 175.298C131.654 175.481 131.498 175.676 131.341 175.884C131.211 176.041 131.094 176.21 130.99 176.392C130.886 176.548 130.769 176.731 130.638 176.939C130.352 177.304 130.078 177.668 129.818 178.033C129.558 178.371 129.284 178.723 128.998 179.087C128.685 179.53 128.347 179.973 127.982 180.416C127.618 180.832 127.292 181.262 127.006 181.705C126.719 182.173 126.42 182.603 126.107 182.994C125.795 183.384 125.456 183.762 125.091 184.126C124.987 184.205 124.857 184.322 124.701 184.478C124.545 184.634 124.388 184.712 124.232 184.712C124.128 184.712 124.037 184.673 123.959 184.595C123.907 184.517 123.815 184.478 123.685 184.478C123.659 184.478 123.581 184.491 123.451 184.517C123.321 184.543 123.164 184.569 122.982 184.595L122.279 184.673C121.862 184.882 121.563 184.973 121.381 184.947C121.198 184.947 121.016 184.96 120.834 184.986C120.73 185.012 120.638 185.051 120.56 185.103C120.508 185.155 120.443 185.181 120.365 185.181C120.183 185.181 120.039 185.09 119.935 184.908C119.831 184.751 119.675 184.686 119.466 184.712ZM131.185 167.837C131.185 167.707 131.055 167.525 130.795 167.291C130.56 167.056 130.378 166.887 130.248 166.783C130.065 166.626 129.844 166.483 129.584 166.353C129.349 166.197 129.154 166.028 128.998 165.845C128.868 165.689 128.737 165.533 128.607 165.376C128.503 165.194 128.386 165.025 128.256 164.869C127.787 164.348 127.305 163.827 126.81 163.306C126.341 162.785 125.925 162.212 125.56 161.587C125.326 161.431 125.105 161.249 124.896 161.041C124.688 160.832 124.44 160.663 124.154 160.533C124.102 160.689 124.076 160.858 124.076 161.041C124.102 161.197 124.115 161.353 124.115 161.509C124.115 162.108 124.089 162.694 124.037 163.267C123.985 163.84 123.959 164.413 123.959 164.986C123.959 166.392 123.985 167.785 124.037 169.166C124.115 170.52 124.154 171.887 124.154 173.267C124.154 173.788 124.154 174.309 124.154 174.83C124.18 175.35 124.232 175.871 124.31 176.392C124.258 176.548 124.232 176.692 124.232 176.822C124.232 176.952 124.258 177.121 124.31 177.33C124.519 177.199 124.688 177.043 124.818 176.861C124.974 176.653 125.118 176.457 125.248 176.275C125.69 175.702 126.12 175.129 126.537 174.556C126.98 173.957 127.422 173.358 127.865 172.759C128.151 172.369 128.438 171.991 128.724 171.626C129.037 171.236 129.336 170.832 129.623 170.416C129.701 170.311 129.818 170.129 129.974 169.869C130.157 169.608 130.326 169.348 130.482 169.087C130.664 168.801 130.821 168.541 130.951 168.306C131.107 168.072 131.185 167.916 131.185 167.837ZM144.974 174.009C145.026 174.139 145.209 174.413 145.521 174.83C145.86 175.246 146.237 175.702 146.654 176.197C147.071 176.692 147.461 177.173 147.826 177.642C148.216 178.085 148.49 178.41 148.646 178.619C148.933 178.983 149.206 179.348 149.466 179.712C149.753 180.051 150.013 180.416 150.248 180.806L150.951 181.978C151.159 182.238 151.341 182.46 151.498 182.642C151.68 182.824 151.823 183.072 151.927 183.384C151.98 183.593 152.006 183.736 152.006 183.814C152.006 183.996 151.94 184.126 151.81 184.205C151.602 184.205 151.485 184.231 151.459 184.283C151.459 184.361 151.407 184.426 151.302 184.478C151.198 184.53 151.029 184.556 150.795 184.556C150.586 184.582 150.417 184.595 150.287 184.595C150.052 184.595 149.753 184.582 149.388 184.556C149.05 184.556 148.776 184.595 148.568 184.673C148.516 184.699 148.438 184.738 148.334 184.791C148.23 184.843 148.151 184.869 148.099 184.869C147.891 184.869 147.735 184.83 147.631 184.751C147.552 184.699 147.435 184.66 147.279 184.634C147.071 184.4 146.888 184.166 146.732 183.931C146.602 183.671 146.446 183.41 146.263 183.15C146.081 182.968 145.899 182.811 145.716 182.681C145.534 182.525 145.378 182.356 145.248 182.173C144.857 181.6 144.453 181.041 144.037 180.494C143.62 179.947 143.19 179.413 142.748 178.892C142.539 178.606 142.318 178.345 142.084 178.111C141.849 177.876 141.628 177.616 141.42 177.33C141.211 177.069 141.016 176.796 140.834 176.509C140.651 176.197 140.469 175.897 140.287 175.611C140.131 175.376 139.922 175.077 139.662 174.712C139.401 174.322 139.115 173.944 138.802 173.58C138.49 173.189 138.177 172.824 137.865 172.486C137.552 172.147 137.292 171.887 137.084 171.705C137.058 171.548 136.993 171.431 136.888 171.353C136.784 171.249 136.667 171.158 136.537 171.08C136.485 170.949 136.433 170.832 136.381 170.728C136.302 170.598 136.263 170.468 136.263 170.337C136.263 170.155 136.302 169.986 136.381 169.83C136.433 169.725 136.472 169.634 136.498 169.556C136.498 169.452 136.524 169.348 136.576 169.244C136.706 168.957 136.875 168.684 137.084 168.423C137.318 168.137 137.5 167.837 137.631 167.525C137.683 167.447 137.709 167.369 137.709 167.291C137.709 167.186 137.735 167.095 137.787 167.017C137.839 166.809 137.943 166.639 138.099 166.509C138.282 166.353 138.425 166.184 138.529 166.001C138.659 165.793 138.776 165.585 138.881 165.376C139.011 165.142 139.141 164.895 139.271 164.634C139.662 163.983 140.065 163.358 140.482 162.759C140.925 162.134 141.368 161.509 141.81 160.884C142.149 160.363 142.474 159.869 142.787 159.4C143.125 158.905 143.464 158.41 143.802 157.916C143.985 157.681 144.18 157.408 144.388 157.095C144.597 156.783 144.818 156.47 145.052 156.158C145.313 155.845 145.573 155.559 145.834 155.298C146.094 155.038 146.355 154.83 146.615 154.673C147.006 154.647 147.266 154.738 147.396 154.947C147.526 155.129 147.722 155.22 147.982 155.22C148.321 155.298 148.542 155.403 148.646 155.533C148.75 155.663 148.868 155.793 148.998 155.923C149.362 155.923 149.649 155.988 149.857 156.119C150.091 156.249 150.313 156.444 150.521 156.705C150.443 156.991 150.326 157.251 150.17 157.486C150.013 157.694 149.87 157.916 149.74 158.15C149.532 158.254 149.375 158.397 149.271 158.58C149.193 158.762 149.063 158.905 148.881 159.009C148.62 159.452 148.347 159.882 148.06 160.298C147.774 160.689 147.487 161.08 147.201 161.47C147.045 161.705 146.875 161.913 146.693 162.095C146.537 162.278 146.394 162.473 146.263 162.681C146.211 162.759 146.159 162.85 146.107 162.955C146.081 163.033 146.042 163.111 145.99 163.189C145.677 163.684 145.339 164.153 144.974 164.595C144.61 165.012 144.271 165.481 143.959 166.001C143.855 166.184 143.763 166.379 143.685 166.587C143.633 166.77 143.555 166.952 143.451 167.134C143.347 167.291 143.19 167.499 142.982 167.759C142.8 168.02 142.618 168.306 142.435 168.619C142.253 168.905 142.084 169.192 141.927 169.478C141.797 169.738 141.732 169.96 141.732 170.142C141.758 170.272 141.914 170.533 142.201 170.923C142.513 171.288 142.852 171.692 143.216 172.134C143.607 172.551 143.972 172.955 144.31 173.345C144.649 173.71 144.87 173.931 144.974 174.009ZM147.552 166.9C147.735 167.291 147.93 167.629 148.138 167.916C148.216 168.02 148.308 168.111 148.412 168.189C148.516 168.267 148.594 168.371 148.646 168.501C148.698 168.554 148.75 168.671 148.802 168.853C148.855 169.009 148.907 169.126 148.959 169.205C149.037 169.413 149.193 169.647 149.427 169.908C149.662 170.168 149.779 170.403 149.779 170.611C149.779 170.741 149.753 170.884 149.701 171.041C149.649 171.197 149.61 171.34 149.584 171.47C149.558 171.626 149.545 171.796 149.545 171.978C149.545 172.134 149.493 172.278 149.388 172.408C149.258 172.538 149.115 172.616 148.959 172.642C148.802 172.668 148.659 172.733 148.529 172.837C148.477 172.889 148.399 172.981 148.295 173.111C148.19 173.241 148.086 173.384 147.982 173.541C147.878 173.697 147.774 173.853 147.67 174.009C147.591 174.139 147.552 174.244 147.552 174.322C147.24 174.348 147.032 174.361 146.927 174.361C146.849 174.335 146.758 174.335 146.654 174.361C146.524 174.231 146.381 174.126 146.224 174.048C146.094 173.944 145.925 173.853 145.716 173.775C145.664 173.567 145.547 173.332 145.365 173.072C145.183 172.785 145.026 172.551 144.896 172.369L144.623 172.017C144.232 171.47 143.868 170.949 143.529 170.455C143.216 169.934 142.982 169.361 142.826 168.736C143.321 168.371 143.698 168.098 143.959 167.916C144.245 167.733 144.545 167.564 144.857 167.408C145.17 167.251 145.469 167.108 145.756 166.978C146.068 166.822 146.355 166.639 146.615 166.431C146.823 166.431 146.966 166.444 147.045 166.47C147.123 166.496 147.175 166.522 147.201 166.548C147.227 166.574 147.253 166.626 147.279 166.705C147.331 166.757 147.422 166.822 147.552 166.9ZM162.279 154.673C162.409 155.142 162.539 155.611 162.67 156.08C162.8 156.522 162.956 156.965 163.138 157.408C163.529 157.46 163.763 157.499 163.841 157.525C163.946 157.551 164.063 157.59 164.193 157.642C164.48 158.319 164.649 159.048 164.701 159.83C164.779 160.585 164.883 161.327 165.013 162.056C165.508 162.707 165.86 163.41 166.068 164.166C166.302 164.895 166.563 165.637 166.849 166.392C166.927 166.653 166.98 166.822 167.006 166.9C167.032 166.952 167.045 167.004 167.045 167.056C167.201 167.499 167.357 167.955 167.513 168.423C167.67 168.892 167.839 169.348 168.021 169.791C168.099 170.025 168.177 170.259 168.256 170.494C168.36 170.702 168.451 170.91 168.529 171.119C168.607 171.379 168.672 171.653 168.724 171.939C168.802 172.199 168.881 172.46 168.959 172.72C169.141 173.241 169.336 173.762 169.545 174.283C169.753 174.804 169.961 175.324 170.17 175.845C170.248 176.028 170.391 176.431 170.599 177.056C170.834 177.681 171.068 178.345 171.302 179.048C171.537 179.725 171.745 180.363 171.927 180.962C172.136 181.535 172.24 181.887 172.24 182.017C172.24 182.225 172.253 182.447 172.279 182.681C172.331 182.889 172.37 183.111 172.396 183.345C172.292 183.606 172.162 183.749 172.006 183.775C171.849 183.801 171.706 183.788 171.576 183.736C171.446 183.788 171.315 183.84 171.185 183.892C171.081 183.944 170.977 183.996 170.873 184.048C170.795 184.074 170.73 184.113 170.677 184.166C170.625 184.218 170.56 184.244 170.482 184.244C170.17 184.244 169.961 184.27 169.857 184.322C169.779 184.4 169.649 184.439 169.466 184.439C169.232 184.361 169.076 184.348 168.998 184.4C168.946 184.478 168.894 184.53 168.841 184.556C168.737 184.608 168.62 184.634 168.49 184.634C168.36 184.634 168.23 184.647 168.099 184.673C168.047 184.569 167.995 184.465 167.943 184.361C167.917 184.257 167.865 184.139 167.787 184.009C167.5 183.593 167.292 183.189 167.162 182.798C167.058 182.408 166.966 182.095 166.888 181.861C166.758 181.574 166.641 181.288 166.537 181.001C166.459 180.715 166.355 180.429 166.224 180.142C166.068 180.194 165.925 180.259 165.795 180.337C165.664 180.389 165.56 180.468 165.482 180.572C165.17 180.572 165.013 180.611 165.013 180.689C165.013 180.767 164.987 180.845 164.935 180.923C164.779 180.975 164.649 181.028 164.545 181.08C164.466 181.132 164.323 181.145 164.115 181.119C163.985 181.249 163.855 181.366 163.724 181.47C163.594 181.548 163.425 181.6 163.216 181.626C163.008 181.835 162.787 182.017 162.552 182.173C162.344 182.304 162.097 182.33 161.81 182.251C161.446 182.33 161.081 182.408 160.716 182.486C160.352 182.538 159.987 182.564 159.623 182.564C159.206 182.434 158.946 182.317 158.841 182.212C158.737 182.108 158.581 182.056 158.373 182.056C158.399 181.692 158.321 181.444 158.138 181.314C158.138 181.236 158.138 181.119 158.138 180.962C158.164 180.78 158.203 180.663 158.256 180.611C158.594 180.455 158.789 180.285 158.841 180.103C158.894 179.921 159.037 179.804 159.271 179.751C159.323 179.647 159.375 179.556 159.427 179.478C159.506 179.374 159.571 179.27 159.623 179.166C159.753 179.113 159.857 179.074 159.935 179.048C160.039 179.022 160.118 178.944 160.17 178.814C160.3 178.814 160.495 178.736 160.756 178.58C161.016 178.397 161.185 178.254 161.263 178.15C161.472 178.072 161.602 178.007 161.654 177.955C161.706 177.876 161.771 177.811 161.849 177.759C162.11 177.785 162.279 177.759 162.357 177.681C162.565 177.785 162.8 177.837 163.06 177.837C163.164 177.837 163.256 177.837 163.334 177.837C163.412 177.811 163.503 177.798 163.607 177.798C163.815 177.59 164.076 177.46 164.388 177.408C164.727 177.33 165 177.186 165.209 176.978C165.131 176.77 165.065 176.522 165.013 176.236C164.961 175.923 164.87 175.676 164.74 175.494C164.688 175.155 164.597 174.83 164.466 174.517C164.362 174.205 164.271 173.905 164.193 173.619C163.907 172.525 163.568 171.457 163.177 170.416C162.787 169.374 162.461 168.306 162.201 167.212C162.149 167.082 162.084 166.952 162.006 166.822C161.953 166.666 161.901 166.522 161.849 166.392C161.719 166.705 161.654 166.887 161.654 166.939C161.654 166.965 161.628 167.004 161.576 167.056C161.55 167.186 161.524 167.304 161.498 167.408C161.472 167.486 161.433 167.59 161.381 167.72C161.302 167.929 161.224 168.163 161.146 168.423C161.094 168.658 161.042 168.879 160.99 169.087C160.86 169.53 160.743 169.999 160.638 170.494C160.534 170.962 160.417 171.431 160.287 171.9C160.026 172.707 159.753 173.514 159.466 174.322C159.206 175.103 158.946 175.897 158.685 176.705C158.633 177.069 158.568 177.356 158.49 177.564C158.438 177.746 158.373 177.942 158.295 178.15C158.243 178.332 158.19 178.514 158.138 178.697C158.112 178.879 158.099 179.022 158.099 179.126C157.735 179.96 157.422 180.806 157.162 181.666C156.927 182.525 156.628 183.358 156.263 184.166C156.159 184.218 156.068 184.283 155.99 184.361C155.912 184.439 155.821 184.478 155.716 184.478C155.508 184.478 155.391 184.426 155.365 184.322C155.365 184.218 155.313 184.166 155.209 184.166C155.105 184.166 155.013 184.192 154.935 184.244C154.857 184.27 154.779 184.309 154.701 184.361C154.571 184.309 154.414 184.27 154.232 184.244C154.076 184.244 153.959 184.192 153.881 184.087C153.698 184.218 153.516 184.283 153.334 184.283C153.125 184.283 152.917 184.218 152.709 184.087C152.552 184.139 152.396 184.166 152.24 184.166C152.162 184.166 152.071 184.153 151.966 184.126C151.862 184.1 151.784 184.061 151.732 184.009C151.706 183.905 151.693 183.801 151.693 183.697C151.693 183.593 151.693 183.475 151.693 183.345C151.693 183.085 151.667 182.889 151.615 182.759C152.084 181.431 152.539 180.09 152.982 178.736C153.425 177.356 153.868 175.962 154.31 174.556C154.545 173.905 154.766 173.267 154.974 172.642C155.209 172.017 155.43 171.379 155.638 170.728C155.743 170.363 155.834 170.025 155.912 169.712C155.99 169.374 156.094 169.048 156.224 168.736C156.433 168.059 156.641 167.382 156.849 166.705C157.084 166.001 157.292 165.311 157.474 164.634C157.578 164.556 157.644 164.465 157.67 164.361C157.696 164.257 157.735 164.139 157.787 164.009L157.748 163.501C157.93 163.241 158.047 163.02 158.099 162.837C158.177 162.629 158.23 162.421 158.256 162.212C158.386 161.9 158.503 161.561 158.607 161.197C158.711 160.832 158.789 160.494 158.841 160.181C158.894 159.764 158.92 159.296 158.92 158.775C158.946 158.228 159.024 157.772 159.154 157.408C159.206 157.304 159.245 157.238 159.271 157.212C159.323 157.16 159.349 157.069 159.349 156.939C159.401 156.887 159.453 156.835 159.506 156.783C159.584 156.705 159.636 156.626 159.662 156.548C159.792 156.34 159.831 156.158 159.779 156.001C159.753 155.845 159.74 155.676 159.74 155.494C159.974 155.363 160.078 155.246 160.052 155.142C160.026 155.038 160.013 154.934 160.013 154.83C160.013 154.699 160.091 154.582 160.248 154.478C160.43 154.348 160.547 154.218 160.599 154.087C160.756 154.113 160.912 154.139 161.068 154.166C161.224 154.166 161.381 154.153 161.537 154.126C161.719 154.465 161.94 154.634 162.201 154.634L162.279 154.673ZM190.521 156.314C190.469 156.418 190.443 156.522 190.443 156.626C190.469 156.731 190.482 156.848 190.482 156.978C190.43 157.291 190.43 157.447 190.482 157.447C190.534 157.447 190.56 157.473 190.56 157.525L190.287 157.916C190.287 158.072 190.248 158.215 190.17 158.345C190.118 158.475 190.105 158.632 190.131 158.814C190.052 158.944 189.974 159.074 189.896 159.205C189.844 159.335 189.753 159.465 189.623 159.595H189.115C188.828 159.595 188.516 159.621 188.177 159.673C187.865 159.699 187.552 159.712 187.24 159.712C187.188 159.712 187.123 159.712 187.045 159.712C186.966 159.686 186.888 159.673 186.81 159.673C186.758 159.673 186.693 159.686 186.615 159.712C186.537 159.712 186.446 159.712 186.341 159.712C185.951 159.712 185.56 159.699 185.17 159.673C184.805 159.621 184.414 159.595 183.998 159.595C183.894 159.595 183.789 159.595 183.685 159.595C183.581 159.595 183.464 159.608 183.334 159.634C183.308 160.077 183.282 160.533 183.256 161.001C183.256 161.444 183.256 161.9 183.256 162.369C183.256 162.499 183.243 162.642 183.216 162.798C183.19 162.929 183.177 163.059 183.177 163.189C183.151 163.528 183.125 163.853 183.099 164.166C183.099 164.478 183.099 164.804 183.099 165.142C183.099 165.871 183.099 166.6 183.099 167.33C183.125 168.059 183.151 168.801 183.177 169.556C183.203 169.947 183.23 170.324 183.256 170.689C183.282 171.054 183.295 171.431 183.295 171.822C183.295 172.707 183.282 173.593 183.256 174.478C183.23 175.337 183.216 176.21 183.216 177.095C183.216 177.382 183.203 177.655 183.177 177.916C183.151 178.15 183.138 178.41 183.138 178.697C183.138 179.296 183.151 179.895 183.177 180.494C183.203 181.093 183.216 181.692 183.216 182.291C183.216 182.577 183.203 182.863 183.177 183.15C183.177 183.436 183.177 183.723 183.177 184.009C183.047 184.218 182.956 184.4 182.904 184.556C182.852 184.712 182.696 184.791 182.435 184.791C182.253 184.738 182.162 184.673 182.162 184.595C182.188 184.543 182.175 184.491 182.123 184.439C181.888 184.413 181.706 184.426 181.576 184.478C181.472 184.556 181.341 184.621 181.185 184.673C181.107 184.647 181.016 184.634 180.912 184.634C180.834 184.634 180.756 184.634 180.677 184.634C180.625 184.634 180.573 184.647 180.521 184.673C180.469 184.725 180.352 184.751 180.17 184.751C180.013 184.778 179.922 184.751 179.896 184.673C179.87 184.595 179.792 184.556 179.662 184.556C179.532 184.634 179.375 184.686 179.193 184.712C179.037 184.764 178.881 184.791 178.724 184.791C178.568 184.686 178.49 184.582 178.49 184.478C178.516 184.4 178.503 184.309 178.451 184.205C178.425 184.153 178.373 184.087 178.295 184.009C178.243 183.905 178.19 183.827 178.138 183.775C178.19 183.41 178.23 183.085 178.256 182.798C178.282 182.512 178.295 182.199 178.295 181.861C178.295 181.184 178.269 180.52 178.216 179.869C178.164 179.218 178.138 178.554 178.138 177.876C178.138 177.668 178.164 177.447 178.216 177.212C178.269 176.978 178.295 176.731 178.295 176.47C178.243 176.262 178.23 176.145 178.256 176.119C178.282 176.067 178.295 176.014 178.295 175.962C178.295 175.806 178.282 175.65 178.256 175.494C178.256 175.337 178.256 175.181 178.256 175.025C178.256 174.712 178.256 174.4 178.256 174.087C178.282 173.775 178.295 173.462 178.295 173.15C178.295 173.02 178.282 172.889 178.256 172.759C178.256 172.603 178.256 172.46 178.256 172.33C178.23 172.095 178.216 171.848 178.216 171.587C178.243 171.327 178.256 171.067 178.256 170.806C178.256 169.556 178.23 168.319 178.177 167.095C178.151 165.871 178.138 164.634 178.138 163.384C178.138 162.759 178.164 162.147 178.216 161.548C178.295 160.923 178.334 160.298 178.334 159.673C178.334 159.595 178.308 159.491 178.256 159.361C178.203 159.231 178.151 159.139 178.099 159.087C177.969 159.087 177.839 159.087 177.709 159.087C177.605 159.061 177.487 159.048 177.357 159.048C177.071 159.048 176.797 159.087 176.537 159.166C176.042 159.192 175.56 159.231 175.091 159.283C174.649 159.309 174.193 159.335 173.724 159.361C173.412 159.335 173.216 159.335 173.138 159.361C173.086 159.361 173.021 159.361 172.943 159.361C172.735 159.361 172.578 159.309 172.474 159.205V158.697C172.318 158.384 172.253 158.215 172.279 158.189C172.305 158.163 172.318 158.124 172.318 158.072C172.318 157.994 172.253 157.916 172.123 157.837C171.966 157.733 171.888 157.577 171.888 157.369C171.862 157.16 171.81 157.004 171.732 156.9C171.654 156.796 171.615 156.692 171.615 156.587C171.615 156.405 171.654 156.197 171.732 155.962C171.966 155.832 172.188 155.741 172.396 155.689C172.631 155.637 172.891 155.572 173.177 155.494C173.334 155.442 173.477 155.389 173.607 155.337C173.737 155.285 173.881 155.246 174.037 155.22C174.219 155.194 174.401 155.181 174.584 155.181C174.766 155.181 174.948 155.168 175.131 155.142C175.521 155.064 175.925 154.999 176.341 154.947C176.784 154.895 177.201 154.869 177.591 154.869C177.956 154.869 178.321 154.921 178.685 155.025C179.05 155.103 179.375 155.142 179.662 155.142C180.078 155.142 180.469 155.168 180.834 155.22C181.224 155.272 181.628 155.298 182.045 155.298C182.097 155.298 182.175 155.324 182.279 155.376C182.409 155.403 182.552 155.416 182.709 155.416H186.498C186.706 155.468 186.849 155.481 186.927 155.455C187.032 155.429 187.123 155.416 187.201 155.416C187.409 155.416 187.605 155.429 187.787 155.455C187.969 155.481 188.164 155.494 188.373 155.494C188.555 155.494 188.698 155.481 188.802 155.455C189.011 155.481 189.206 155.546 189.388 155.65C189.571 155.728 189.779 155.767 190.013 155.767C190.118 155.845 190.196 155.949 190.248 156.08C190.3 156.184 190.391 156.262 190.521 156.314ZM209.232 155.337C209.545 155.259 209.766 155.233 209.896 155.259C210.026 155.259 210.157 155.272 210.287 155.298C210.443 155.403 210.573 155.533 210.677 155.689C210.677 156.236 210.664 156.783 210.638 157.33C210.638 157.85 210.638 158.384 210.638 158.931C210.638 159.921 210.651 160.91 210.677 161.9C210.703 162.889 210.703 163.879 210.677 164.869C210.73 165.103 210.743 165.233 210.716 165.259C210.69 165.285 210.677 165.324 210.677 165.376C210.677 166.366 210.703 167.343 210.756 168.306C210.808 169.27 210.834 170.246 210.834 171.236V176.431C210.834 177.551 210.86 178.658 210.912 179.751C210.99 180.845 211.029 181.939 211.029 183.033C211.029 183.137 210.964 183.28 210.834 183.462C210.782 183.671 210.703 183.84 210.599 183.97C210.365 183.996 210.144 183.957 209.935 183.853C209.831 183.853 209.753 183.892 209.701 183.97C209.675 184.022 209.623 184.074 209.545 184.126C209.336 184.126 209.167 184.179 209.037 184.283C208.907 184.387 208.75 184.439 208.568 184.439C208.412 184.439 208.256 184.413 208.099 184.361C207.969 184.335 207.813 184.322 207.631 184.322C207.578 184.322 207.5 184.361 207.396 184.439C207.292 184.543 207.214 184.608 207.162 184.634C207.032 184.634 206.914 184.647 206.81 184.673C206.706 184.725 206.589 184.751 206.459 184.751C206.328 184.647 206.263 184.491 206.263 184.283C206.289 184.074 206.211 183.944 206.029 183.892C206.029 183.762 206.029 183.619 206.029 183.462C206.055 183.306 206.068 183.15 206.068 182.994C206.068 181.978 206.042 180.962 205.99 179.947C205.938 178.905 205.899 177.876 205.873 176.861C205.847 176.418 205.834 175.988 205.834 175.572C205.86 175.129 205.873 174.686 205.873 174.244C205.873 174.009 205.873 173.775 205.873 173.541C205.873 173.306 205.847 173.085 205.795 172.876C205.638 172.85 205.495 172.876 205.365 172.955C205.261 173.007 205.144 173.033 205.013 173.033C204.466 173.215 204.102 173.397 203.92 173.58C203.763 173.58 203.633 173.606 203.529 173.658C203.425 173.71 203.308 173.762 203.177 173.814C202.969 173.866 202.761 173.918 202.552 173.97C202.37 173.996 202.175 174.048 201.966 174.126C201.836 174.179 201.706 174.231 201.576 174.283C201.446 174.335 201.315 174.387 201.185 174.439C200.899 174.543 200.612 174.647 200.326 174.751C200.039 174.83 199.753 174.921 199.466 175.025C199.18 175.077 198.933 175.155 198.724 175.259C198.516 175.363 198.308 175.468 198.099 175.572C197.917 176.796 197.813 177.968 197.787 179.087C197.787 180.181 197.826 181.275 197.904 182.369C197.852 182.525 197.826 182.707 197.826 182.916C197.826 183.098 197.787 183.254 197.709 183.384C197.422 183.462 197.227 183.475 197.123 183.423C197.045 183.345 196.953 183.28 196.849 183.228C196.745 183.254 196.654 183.306 196.576 183.384C196.524 183.462 196.472 183.528 196.42 183.58C196.211 183.58 196.042 183.632 195.912 183.736C195.808 183.814 195.703 183.879 195.599 183.931C195.521 183.957 195.443 183.957 195.365 183.931C195.287 183.905 195.196 183.918 195.091 183.97C194.831 183.97 194.701 183.944 194.701 183.892C194.727 183.814 194.701 183.775 194.623 183.775C194.519 183.775 194.44 183.827 194.388 183.931C194.362 184.009 194.297 184.074 194.193 184.126C194.089 184.179 193.972 184.218 193.841 184.244C193.711 184.244 193.581 184.27 193.451 184.322C193.321 184.192 193.256 184.048 193.256 183.892C193.256 183.736 193.19 183.593 193.06 183.462C193.008 183.098 192.969 182.746 192.943 182.408C192.943 182.043 192.904 181.679 192.826 181.314C192.878 180.585 192.891 179.999 192.865 179.556C192.865 179.113 192.865 178.658 192.865 178.189C192.865 177.772 192.852 177.356 192.826 176.939C192.8 176.522 192.774 176.106 192.748 175.689C192.696 174.934 192.644 174.166 192.591 173.384C192.565 172.603 192.552 171.822 192.552 171.041C192.552 170.389 192.578 169.751 192.631 169.126C192.709 168.501 192.748 167.863 192.748 167.212C192.748 166.77 192.748 166.34 192.748 165.923C192.774 165.481 192.787 165.038 192.787 164.595C192.787 164.231 192.774 163.879 192.748 163.541C192.748 163.176 192.748 162.824 192.748 162.486C192.748 162.095 192.774 161.718 192.826 161.353C192.878 160.962 192.904 160.585 192.904 160.22C192.904 159.778 192.878 159.348 192.826 158.931C192.774 158.488 192.748 158.046 192.748 157.603C192.748 157.473 192.761 157.356 192.787 157.251C192.813 157.121 192.826 156.991 192.826 156.861C192.8 156.574 192.813 156.405 192.865 156.353C192.917 156.275 192.969 156.184 193.021 156.08C193.151 156.054 193.295 156.014 193.451 155.962C193.607 155.91 193.75 155.91 193.881 155.962C194.037 155.806 194.245 155.728 194.506 155.728C194.792 155.728 195 155.637 195.131 155.455C195.313 155.481 195.43 155.494 195.482 155.494C195.56 155.468 195.625 155.455 195.677 155.455C195.912 155.507 196.029 155.507 196.029 155.455C196.055 155.376 196.107 155.337 196.185 155.337C196.315 155.337 196.511 155.35 196.771 155.376C197.058 155.376 197.253 155.429 197.357 155.533C197.618 156.913 197.761 158.319 197.787 159.751C197.813 161.184 197.826 162.603 197.826 164.009C197.826 164.374 197.839 164.751 197.865 165.142C197.891 165.507 197.878 165.871 197.826 166.236C197.826 166.392 197.813 166.548 197.787 166.705C197.761 166.835 197.748 166.978 197.748 167.134C197.748 167.577 197.722 168.046 197.67 168.541C197.618 169.009 197.591 169.465 197.591 169.908C197.904 170.09 198.164 170.155 198.373 170.103C198.607 170.025 198.828 169.947 199.037 169.869C199.297 169.791 199.532 169.712 199.74 169.634C199.974 169.53 200.209 169.439 200.443 169.361C200.651 169.257 200.873 169.179 201.107 169.126C201.368 169.048 201.602 168.983 201.81 168.931C202.487 168.697 203.151 168.41 203.802 168.072C204.453 167.733 205.118 167.46 205.795 167.251C205.743 165.819 205.716 164.4 205.716 162.994C205.716 161.561 205.716 160.142 205.716 158.736C205.716 158.345 205.716 157.942 205.716 157.525C205.716 157.108 205.743 156.705 205.795 156.314C205.821 156.21 205.847 156.132 205.873 156.08C205.925 156.001 205.951 155.897 205.951 155.767C206.029 155.637 206.12 155.546 206.224 155.494C206.328 155.442 206.407 155.363 206.459 155.259C206.511 155.311 206.563 155.363 206.615 155.416C206.693 155.442 206.771 155.468 206.849 155.494C207.058 155.442 207.175 155.403 207.201 155.376C207.253 155.35 207.305 155.324 207.357 155.298C207.487 155.246 207.657 155.22 207.865 155.22C208.073 155.22 208.243 155.22 208.373 155.22H208.841L209.232 155.337ZM245.716 156.314C245.664 156.418 245.638 156.522 245.638 156.626C245.664 156.731 245.677 156.848 245.677 156.978C245.625 157.291 245.625 157.447 245.677 157.447C245.73 157.447 245.756 157.473 245.756 157.525L245.482 157.916C245.482 158.072 245.443 158.215 245.365 158.345C245.313 158.475 245.3 158.632 245.326 158.814C245.248 158.944 245.17 159.074 245.091 159.205C245.039 159.335 244.948 159.465 244.818 159.595H244.31C244.024 159.595 243.711 159.621 243.373 159.673C243.06 159.699 242.748 159.712 242.435 159.712C242.383 159.712 242.318 159.712 242.24 159.712C242.162 159.686 242.084 159.673 242.006 159.673C241.953 159.673 241.888 159.686 241.81 159.712C241.732 159.712 241.641 159.712 241.537 159.712C241.146 159.712 240.756 159.699 240.365 159.673C240 159.621 239.61 159.595 239.193 159.595C239.089 159.595 238.985 159.595 238.881 159.595C238.776 159.595 238.659 159.608 238.529 159.634C238.503 160.077 238.477 160.533 238.451 161.001C238.451 161.444 238.451 161.9 238.451 162.369C238.451 162.499 238.438 162.642 238.412 162.798C238.386 162.929 238.373 163.059 238.373 163.189C238.347 163.528 238.321 163.853 238.295 164.166C238.295 164.478 238.295 164.804 238.295 165.142C238.295 165.871 238.295 166.6 238.295 167.33C238.321 168.059 238.347 168.801 238.373 169.556C238.399 169.947 238.425 170.324 238.451 170.689C238.477 171.054 238.49 171.431 238.49 171.822C238.49 172.707 238.477 173.593 238.451 174.478C238.425 175.337 238.412 176.21 238.412 177.095C238.412 177.382 238.399 177.655 238.373 177.916C238.347 178.15 238.334 178.41 238.334 178.697C238.334 179.296 238.347 179.895 238.373 180.494C238.399 181.093 238.412 181.692 238.412 182.291C238.412 182.577 238.399 182.863 238.373 183.15C238.373 183.436 238.373 183.723 238.373 184.009C238.243 184.218 238.151 184.4 238.099 184.556C238.047 184.712 237.891 184.791 237.631 184.791C237.448 184.738 237.357 184.673 237.357 184.595C237.383 184.543 237.37 184.491 237.318 184.439C237.084 184.413 236.901 184.426 236.771 184.478C236.667 184.556 236.537 184.621 236.381 184.673C236.302 184.647 236.211 184.634 236.107 184.634C236.029 184.634 235.951 184.634 235.873 184.634C235.821 184.634 235.769 184.647 235.716 184.673C235.664 184.725 235.547 184.751 235.365 184.751C235.209 184.778 235.118 184.751 235.091 184.673C235.065 184.595 234.987 184.556 234.857 184.556C234.727 184.634 234.571 184.686 234.388 184.712C234.232 184.764 234.076 184.791 233.92 184.791C233.763 184.686 233.685 184.582 233.685 184.478C233.711 184.4 233.698 184.309 233.646 184.205C233.62 184.153 233.568 184.087 233.49 184.009C233.438 183.905 233.386 183.827 233.334 183.775C233.386 183.41 233.425 183.085 233.451 182.798C233.477 182.512 233.49 182.199 233.49 181.861C233.49 181.184 233.464 180.52 233.412 179.869C233.36 179.218 233.334 178.554 233.334 177.876C233.334 177.668 233.36 177.447 233.412 177.212C233.464 176.978 233.49 176.731 233.49 176.47C233.438 176.262 233.425 176.145 233.451 176.119C233.477 176.067 233.49 176.014 233.49 175.962C233.49 175.806 233.477 175.65 233.451 175.494C233.451 175.337 233.451 175.181 233.451 175.025C233.451 174.712 233.451 174.4 233.451 174.087C233.477 173.775 233.49 173.462 233.49 173.15C233.49 173.02 233.477 172.889 233.451 172.759C233.451 172.603 233.451 172.46 233.451 172.33C233.425 172.095 233.412 171.848 233.412 171.587C233.438 171.327 233.451 171.067 233.451 170.806C233.451 169.556 233.425 168.319 233.373 167.095C233.347 165.871 233.334 164.634 233.334 163.384C233.334 162.759 233.36 162.147 233.412 161.548C233.49 160.923 233.529 160.298 233.529 159.673C233.529 159.595 233.503 159.491 233.451 159.361C233.399 159.231 233.347 159.139 233.295 159.087C233.164 159.087 233.034 159.087 232.904 159.087C232.8 159.061 232.683 159.048 232.552 159.048C232.266 159.048 231.993 159.087 231.732 159.166C231.237 159.192 230.756 159.231 230.287 159.283C229.844 159.309 229.388 159.335 228.92 159.361C228.607 159.335 228.412 159.335 228.334 159.361C228.282 159.361 228.216 159.361 228.138 159.361C227.93 159.361 227.774 159.309 227.67 159.205V158.697C227.513 158.384 227.448 158.215 227.474 158.189C227.5 158.163 227.513 158.124 227.513 158.072C227.513 157.994 227.448 157.916 227.318 157.837C227.162 157.733 227.084 157.577 227.084 157.369C227.058 157.16 227.006 157.004 226.927 156.9C226.849 156.796 226.81 156.692 226.81 156.587C226.81 156.405 226.849 156.197 226.927 155.962C227.162 155.832 227.383 155.741 227.591 155.689C227.826 155.637 228.086 155.572 228.373 155.494C228.529 155.442 228.672 155.389 228.802 155.337C228.933 155.285 229.076 155.246 229.232 155.22C229.414 155.194 229.597 155.181 229.779 155.181C229.961 155.181 230.144 155.168 230.326 155.142C230.716 155.064 231.12 154.999 231.537 154.947C231.98 154.895 232.396 154.869 232.787 154.869C233.151 154.869 233.516 154.921 233.881 155.025C234.245 155.103 234.571 155.142 234.857 155.142C235.274 155.142 235.664 155.168 236.029 155.22C236.42 155.272 236.823 155.298 237.24 155.298C237.292 155.298 237.37 155.324 237.474 155.376C237.605 155.403 237.748 155.416 237.904 155.416H241.693C241.901 155.468 242.045 155.481 242.123 155.455C242.227 155.429 242.318 155.416 242.396 155.416C242.605 155.416 242.8 155.429 242.982 155.455C243.164 155.481 243.36 155.494 243.568 155.494C243.75 155.494 243.894 155.481 243.998 155.455C244.206 155.481 244.401 155.546 244.584 155.65C244.766 155.728 244.974 155.767 245.209 155.767C245.313 155.845 245.391 155.949 245.443 156.08C245.495 156.184 245.586 156.262 245.716 156.314ZM266.537 168.736C266.485 168.84 266.433 168.944 266.381 169.048C266.328 169.126 266.289 169.218 266.263 169.322C266.368 169.426 266.459 169.543 266.537 169.673C266.641 169.778 266.693 169.895 266.693 170.025C266.693 170.129 266.667 170.233 266.615 170.337C266.589 170.416 266.589 170.494 266.615 170.572C266.511 170.754 266.394 170.923 266.263 171.08C266.159 171.236 266.081 171.405 266.029 171.587C265.925 171.692 265.834 171.796 265.756 171.9C265.703 172.004 265.651 172.108 265.599 172.212C265.469 172.264 265.378 172.356 265.326 172.486C265.3 172.59 265.235 172.681 265.131 172.759C265.105 172.863 264.974 173.111 264.74 173.501C264.506 173.892 264.245 174.309 263.959 174.751C263.672 175.194 263.399 175.624 263.138 176.041C262.878 176.457 262.696 176.731 262.591 176.861C262.539 176.991 262.474 177.095 262.396 177.173C262.344 177.251 262.279 177.343 262.201 177.447C262.149 177.525 262.11 177.616 262.084 177.72C262.058 177.798 262.019 177.863 261.966 177.916C261.914 178.02 261.849 178.111 261.771 178.189C261.719 178.267 261.667 178.371 261.615 178.501C261.355 178.84 261.094 179.244 260.834 179.712C260.573 180.181 260.326 180.598 260.091 180.962C259.961 181.171 259.831 181.379 259.701 181.587C259.597 181.796 259.48 182.004 259.349 182.212C259.219 182.421 259.089 182.616 258.959 182.798C258.828 182.981 258.698 183.176 258.568 183.384C258.36 183.541 258.177 183.736 258.021 183.97C257.865 184.179 257.683 184.361 257.474 184.517C257.136 184.517 256.927 184.361 256.849 184.048C256.511 183.97 256.341 183.97 256.341 184.048C256.341 184.126 256.341 184.192 256.341 184.244C256.237 184.296 256.159 184.374 256.107 184.478C256.081 184.582 256.016 184.66 255.912 184.712C255.703 184.66 255.521 184.569 255.365 184.439C255.235 184.335 255.039 184.296 254.779 184.322C254.675 184.166 254.558 184.035 254.427 183.931C254.297 183.801 254.18 183.671 254.076 183.541C254.024 183.384 253.946 183.254 253.841 183.15C253.763 183.046 253.685 182.942 253.607 182.837C253.529 182.707 253.451 182.59 253.373 182.486C253.295 182.382 253.216 182.278 253.138 182.173C252.956 181.939 252.774 181.718 252.591 181.509C252.435 181.275 252.292 181.041 252.162 180.806C251.953 180.494 251.745 180.181 251.537 179.869C251.355 179.53 251.159 179.205 250.951 178.892C250.847 178.736 250.743 178.58 250.638 178.423C250.534 178.267 250.443 178.111 250.365 177.955C250.313 177.824 250.235 177.668 250.131 177.486C250.052 177.304 249.948 177.186 249.818 177.134C249.766 176.926 249.675 176.77 249.545 176.666C249.414 176.561 249.284 176.431 249.154 176.275C248.972 176.067 248.802 175.845 248.646 175.611C248.49 175.35 248.334 175.09 248.177 174.83C247.657 174.1 247.162 173.384 246.693 172.681C246.25 171.978 245.808 171.249 245.365 170.494C245.495 170.077 245.56 169.764 245.56 169.556C245.56 169.348 245.625 169.179 245.756 169.048C245.756 168.944 245.782 168.788 245.834 168.58C246.172 168.007 246.498 167.486 246.81 167.017C247.097 166.574 247.292 166.21 247.396 165.923C247.526 165.637 247.657 165.337 247.787 165.025C247.917 164.947 248.021 164.856 248.099 164.751C248.177 164.621 248.282 164.504 248.412 164.4C248.464 164.113 248.581 163.879 248.763 163.697C248.946 163.488 249.063 163.241 249.115 162.955C249.349 162.772 249.48 162.564 249.506 162.33C249.844 162.095 250.052 161.783 250.131 161.392C250.339 161.184 250.508 160.949 250.638 160.689C250.795 160.429 250.938 160.155 251.068 159.869C251.381 159.608 251.628 159.27 251.81 158.853C251.966 158.749 252.084 158.606 252.162 158.423C252.24 158.241 252.344 158.085 252.474 157.955C252.683 157.616 252.839 157.343 252.943 157.134C253.073 156.9 253.203 156.666 253.334 156.431C253.516 156.431 253.633 156.366 253.685 156.236C253.737 156.106 253.841 156.054 253.998 156.08C253.998 155.845 254.063 155.637 254.193 155.455C254.245 155.429 254.323 155.403 254.427 155.376C254.532 155.324 254.584 155.272 254.584 155.22C254.532 154.908 254.545 154.725 254.623 154.673C254.701 154.621 254.766 154.569 254.818 154.517C255.105 154.569 255.3 154.608 255.404 154.634C255.508 154.66 255.677 154.751 255.912 154.908C256.172 154.908 256.355 154.96 256.459 155.064C256.563 155.168 256.68 155.246 256.81 155.298C256.914 155.403 256.993 155.507 257.045 155.611C257.123 155.715 257.227 155.793 257.357 155.845C257.565 156.132 257.787 156.444 258.021 156.783C258.256 157.121 258.477 157.434 258.685 157.72C258.972 158.111 259.258 158.488 259.545 158.853C259.857 159.192 260.144 159.569 260.404 159.986C260.482 160.116 260.625 160.35 260.834 160.689C261.042 161.001 261.276 161.34 261.537 161.705C261.797 162.069 262.032 162.408 262.24 162.72C262.448 163.007 262.591 163.176 262.67 163.228C262.748 163.358 262.917 163.606 263.177 163.97C263.438 164.335 263.711 164.725 263.998 165.142C264.31 165.533 264.61 165.91 264.896 166.275C265.183 166.639 265.378 166.874 265.482 166.978C265.769 167.369 265.977 167.694 266.107 167.955C266.263 168.189 266.407 168.449 266.537 168.736ZM257.591 176.08C257.878 175.689 258.099 175.337 258.256 175.025C258.412 174.712 258.568 174.4 258.724 174.087C258.985 173.775 259.141 173.554 259.193 173.423C259.245 173.293 259.31 173.163 259.388 173.033C259.597 172.72 259.805 172.408 260.013 172.095C260.248 171.783 260.43 171.444 260.56 171.08C260.716 170.975 260.834 170.845 260.912 170.689C260.99 170.533 261.107 170.389 261.263 170.259C261.107 169.712 260.925 169.296 260.716 169.009C260.508 168.697 260.3 168.397 260.091 168.111C260.013 167.981 259.935 167.85 259.857 167.72C259.779 167.59 259.701 167.46 259.623 167.33C259.519 167.251 259.427 167.173 259.349 167.095C259.297 167.017 259.232 166.939 259.154 166.861C259.102 166.731 259.024 166.561 258.92 166.353C258.815 166.223 258.711 166.106 258.607 166.001C258.503 165.897 258.412 165.767 258.334 165.611C258.23 165.507 258.099 165.363 257.943 165.181C257.787 164.999 257.618 164.804 257.435 164.595C257.279 164.361 257.136 164.153 257.006 163.97C256.875 163.762 256.771 163.593 256.693 163.462C256.641 163.332 256.589 163.228 256.537 163.15C256.511 163.046 256.472 162.942 256.42 162.837C256.289 162.655 256.159 162.499 256.029 162.369C255.899 162.212 255.769 162.043 255.638 161.861C255.56 161.913 255.482 161.952 255.404 161.978C255.352 161.978 255.3 162.004 255.248 162.056C255.065 162.395 254.857 162.707 254.623 162.994C254.414 163.28 254.206 163.593 253.998 163.931C253.815 164.244 253.633 164.569 253.451 164.908C253.269 165.22 253.086 165.533 252.904 165.845C252.774 166.028 252.644 166.21 252.513 166.392C252.409 166.548 252.292 166.731 252.162 166.939C252.032 167.121 251.914 167.317 251.81 167.525C251.732 167.707 251.628 167.889 251.498 168.072C251.289 168.332 251.12 168.567 250.99 168.775C250.86 168.983 250.73 169.231 250.599 169.517C250.677 169.673 250.795 169.895 250.951 170.181C251.133 170.442 251.315 170.715 251.498 171.001C251.68 171.262 251.836 171.509 251.966 171.744C252.123 171.978 252.214 172.134 252.24 172.212C252.448 172.395 252.618 172.603 252.748 172.837C252.878 173.046 253.047 173.254 253.256 173.462C253.36 173.671 253.477 173.853 253.607 174.009C253.737 174.166 253.868 174.335 253.998 174.517C254.128 174.699 254.297 174.973 254.506 175.337C254.714 175.676 254.922 176.028 255.131 176.392C255.339 176.757 255.547 177.095 255.756 177.408C255.964 177.72 256.133 177.916 256.263 177.994C256.524 177.707 256.732 177.395 256.888 177.056C257.071 176.692 257.305 176.366 257.591 176.08ZM123.568 226.712C123.464 226.608 123.412 226.465 123.412 226.283C123.412 226.153 123.412 226.048 123.412 225.97C123.438 225.866 123.464 225.749 123.49 225.619C123.62 225.02 123.685 224.421 123.685 223.822C123.685 223.197 123.711 222.585 123.763 221.986C123.789 221.621 123.802 221.257 123.802 220.892C123.828 220.528 123.841 220.163 123.841 219.798C123.841 217.637 123.776 215.488 123.646 213.353C123.516 211.192 123.451 209.017 123.451 206.83C123.451 205.319 123.477 203.809 123.529 202.298C123.581 200.762 123.62 199.225 123.646 197.689C123.881 197.559 124.167 197.507 124.506 197.533C124.844 197.559 125.118 197.442 125.326 197.181C125.456 197.155 125.586 197.155 125.716 197.181C125.847 197.181 125.977 197.181 126.107 197.181C126.394 197.181 126.667 197.09 126.927 196.908C127.188 196.725 127.474 196.569 127.787 196.439C127.943 196.491 128.047 196.517 128.099 196.517C128.177 196.491 128.256 196.478 128.334 196.478C128.412 196.478 128.581 196.569 128.841 196.751C129.102 196.934 129.388 197.142 129.701 197.376C130.013 197.611 130.3 197.832 130.56 198.041C130.847 198.249 131.029 198.379 131.107 198.431C131.758 198.926 132.331 199.473 132.826 200.072C133.347 200.645 133.855 201.231 134.349 201.83C134.818 202.429 135.326 203.041 135.873 203.666C136.42 204.264 136.953 204.824 137.474 205.345C137.657 205.554 137.839 205.736 138.021 205.892C138.23 206.048 138.425 206.231 138.607 206.439C138.685 206.543 138.75 206.66 138.802 206.791C138.881 206.895 138.959 207.012 139.037 207.142C139.193 207.324 139.375 207.481 139.584 207.611C139.792 207.741 139.987 207.897 140.17 208.08C140.3 208.184 140.495 208.392 140.756 208.705C141.016 209.017 141.146 209.251 141.146 209.408C141.146 209.512 141.12 209.603 141.068 209.681C141.016 209.759 140.964 209.85 140.912 209.955C140.886 210.033 140.873 210.15 140.873 210.306C140.873 210.462 140.86 210.567 140.834 210.619C140.573 210.827 140.43 210.957 140.404 211.009C140.378 211.061 140.339 211.113 140.287 211.166C140.209 211.27 140.105 211.361 139.974 211.439C139.87 211.491 139.792 211.582 139.74 211.712C139.688 211.791 139.662 211.869 139.662 211.947C139.688 212.025 139.675 212.116 139.623 212.22C139.493 212.507 139.284 212.78 138.998 213.041C138.711 213.301 138.464 213.587 138.256 213.9C137.969 214.369 137.683 214.837 137.396 215.306C137.11 215.775 136.784 216.231 136.42 216.673C136.263 216.882 136.094 217.09 135.912 217.298C135.756 217.481 135.599 217.676 135.443 217.884C135.313 218.041 135.196 218.21 135.091 218.392C134.987 218.548 134.87 218.731 134.74 218.939C134.453 219.304 134.18 219.668 133.92 220.033C133.659 220.371 133.386 220.723 133.099 221.087C132.787 221.53 132.448 221.973 132.084 222.416C131.719 222.832 131.394 223.262 131.107 223.705C130.821 224.173 130.521 224.603 130.209 224.994C129.896 225.384 129.558 225.762 129.193 226.126C129.089 226.205 128.959 226.322 128.802 226.478C128.646 226.634 128.49 226.712 128.334 226.712C128.23 226.712 128.138 226.673 128.06 226.595C128.008 226.517 127.917 226.478 127.787 226.478C127.761 226.478 127.683 226.491 127.552 226.517C127.422 226.543 127.266 226.569 127.084 226.595L126.381 226.673C125.964 226.882 125.664 226.973 125.482 226.947C125.3 226.947 125.118 226.96 124.935 226.986C124.831 227.012 124.74 227.051 124.662 227.103C124.61 227.155 124.545 227.181 124.466 227.181C124.284 227.181 124.141 227.09 124.037 226.908C123.933 226.751 123.776 226.686 123.568 226.712ZM135.287 209.837C135.287 209.707 135.157 209.525 134.896 209.291C134.662 209.056 134.48 208.887 134.349 208.783C134.167 208.626 133.946 208.483 133.685 208.353C133.451 208.197 133.256 208.028 133.099 207.845C132.969 207.689 132.839 207.533 132.709 207.376C132.605 207.194 132.487 207.025 132.357 206.869C131.888 206.348 131.407 205.827 130.912 205.306C130.443 204.785 130.026 204.212 129.662 203.587C129.427 203.431 129.206 203.249 128.998 203.041C128.789 202.832 128.542 202.663 128.256 202.533C128.203 202.689 128.177 202.858 128.177 203.041C128.203 203.197 128.216 203.353 128.216 203.509C128.216 204.108 128.19 204.694 128.138 205.267C128.086 205.84 128.06 206.413 128.06 206.986C128.06 208.392 128.086 209.785 128.138 211.166C128.216 212.52 128.256 213.887 128.256 215.267C128.256 215.788 128.256 216.309 128.256 216.83C128.282 217.35 128.334 217.871 128.412 218.392C128.36 218.548 128.334 218.692 128.334 218.822C128.334 218.952 128.36 219.121 128.412 219.33C128.62 219.199 128.789 219.043 128.92 218.861C129.076 218.653 129.219 218.457 129.349 218.275C129.792 217.702 130.222 217.129 130.638 216.556C131.081 215.957 131.524 215.358 131.966 214.759C132.253 214.369 132.539 213.991 132.826 213.626C133.138 213.236 133.438 212.832 133.724 212.416C133.802 212.311 133.92 212.129 134.076 211.869C134.258 211.608 134.427 211.348 134.584 211.087C134.766 210.801 134.922 210.541 135.052 210.306C135.209 210.072 135.287 209.916 135.287 209.837ZM160.716 222.494C160.69 222.884 160.769 223.184 160.951 223.392C161.159 223.574 161.328 223.809 161.459 224.095C161.407 224.46 161.446 224.746 161.576 224.955C161.498 225.111 161.42 225.293 161.341 225.501C161.263 225.684 161.146 225.84 160.99 225.97C160.573 226.153 160.326 226.309 160.248 226.439C160.17 226.569 160.013 226.634 159.779 226.634C159.649 226.764 159.506 226.895 159.349 227.025C159.193 227.181 159.05 227.324 158.92 227.455C158.789 227.403 158.698 227.337 158.646 227.259C158.594 227.181 158.516 227.077 158.412 226.947C158.151 226.869 157.917 226.725 157.709 226.517C157.5 226.335 157.318 226.126 157.162 225.892C157.006 225.632 156.849 225.371 156.693 225.111C156.563 224.824 156.446 224.564 156.341 224.33C155.977 223.653 155.599 222.975 155.209 222.298C154.844 221.595 154.466 220.905 154.076 220.228C153.868 219.889 153.659 219.551 153.451 219.212C153.269 218.848 153.073 218.483 152.865 218.119C152.813 218.067 152.761 218.014 152.709 217.962C152.657 217.884 152.605 217.806 152.552 217.728C152.37 217.468 152.227 217.181 152.123 216.869C152.045 216.53 151.862 216.257 151.576 216.048C151.081 215.996 150.625 216.074 150.209 216.283C149.818 216.465 149.466 216.712 149.154 217.025C149.18 217.207 149.193 217.376 149.193 217.533C149.193 217.689 149.193 217.845 149.193 218.001C149.193 218.6 149.167 219.173 149.115 219.72C149.063 220.267 149.037 220.84 149.037 221.439C149.037 221.699 149.05 221.973 149.076 222.259C149.102 222.52 149.141 222.78 149.193 223.041C149.115 223.327 149.076 223.639 149.076 223.978C149.076 224.16 149.089 224.33 149.115 224.486C149.167 224.642 149.193 224.811 149.193 224.994C149.193 225.254 149.102 225.436 148.92 225.541C148.763 225.619 148.711 225.775 148.763 226.009C148.451 226.139 148.151 226.27 147.865 226.4C147.578 226.53 147.279 226.621 146.966 226.673C146.836 226.699 146.706 226.699 146.576 226.673C146.446 226.673 146.328 226.699 146.224 226.751C146.094 226.804 145.99 226.895 145.912 227.025C145.834 227.181 145.73 227.259 145.599 227.259C145.443 227.259 145.352 227.194 145.326 227.064C145.3 226.96 145.248 226.869 145.17 226.791C145.039 226.738 144.935 226.712 144.857 226.712C144.779 226.712 144.701 226.673 144.623 226.595C144.649 226.361 144.597 226.192 144.466 226.087C144.336 225.957 144.271 225.71 144.271 225.345C144.271 225.059 144.284 224.785 144.31 224.525C144.362 224.264 144.388 223.991 144.388 223.705C144.388 223.47 144.349 223.262 144.271 223.08C144.219 222.871 144.167 222.65 144.115 222.416C144.089 222.311 144.089 222.207 144.115 222.103C144.141 221.999 144.154 221.895 144.154 221.791C144.154 221.322 144.128 220.853 144.076 220.384C144.05 219.889 144.037 219.408 144.037 218.939C144.037 218.757 144.037 218.587 144.037 218.431C144.037 218.275 144.05 218.119 144.076 217.962C144.128 217.806 144.167 217.676 144.193 217.572C144.245 217.468 144.271 217.337 144.271 217.181C144.271 216.686 144.219 216.205 144.115 215.736C144.011 215.241 143.959 214.759 143.959 214.291C143.959 214.03 143.959 213.77 143.959 213.509C143.985 213.223 143.998 212.949 143.998 212.689C143.998 211.934 143.985 211.192 143.959 210.462C143.933 209.733 143.92 209.004 143.92 208.275C143.92 207.754 143.933 207.246 143.959 206.751C143.985 206.231 143.998 205.71 143.998 205.189C143.998 204.538 143.972 203.9 143.92 203.275C143.868 202.624 143.841 201.96 143.841 201.283C143.841 201.048 143.828 200.892 143.802 200.814C143.776 200.736 143.737 200.697 143.685 200.697C143.633 200.671 143.568 200.658 143.49 200.658C143.438 200.632 143.386 200.58 143.334 200.501C143.334 200.345 143.399 200.241 143.529 200.189C143.659 200.111 143.724 199.889 143.724 199.525C143.724 199.317 143.698 199.108 143.646 198.9C143.62 198.692 143.607 198.483 143.607 198.275C143.607 197.962 143.672 197.65 143.802 197.337C143.933 197.025 144.05 196.725 144.154 196.439C144.466 196.413 144.675 196.413 144.779 196.439C144.909 196.465 145.039 196.452 145.17 196.4C145.248 196.686 145.417 196.843 145.677 196.869C145.938 196.869 146.172 196.895 146.381 196.947C146.615 196.973 146.836 197.038 147.045 197.142C147.279 197.22 147.5 197.259 147.709 197.259C147.761 197.416 147.865 197.533 148.021 197.611C148.203 197.663 148.386 197.715 148.568 197.767C148.776 197.741 148.933 197.65 149.037 197.494C149.167 197.337 149.336 197.259 149.545 197.259C149.701 197.259 149.883 197.376 150.091 197.611C150.3 197.819 150.456 197.988 150.56 198.119C150.664 198.197 150.86 198.366 151.146 198.626C151.433 198.887 151.745 199.16 152.084 199.447C152.422 199.707 152.735 199.968 153.021 200.228C153.308 200.462 153.49 200.593 153.568 200.619C154.636 201.686 155.625 202.663 156.537 203.548C157.474 204.408 158.49 205.189 159.584 205.892C159.61 205.97 159.636 206.035 159.662 206.087C159.714 206.139 159.766 206.205 159.818 206.283C159.818 206.491 159.779 206.647 159.701 206.751C159.623 206.856 159.584 206.986 159.584 207.142C159.584 207.22 159.597 207.298 159.623 207.376C159.675 207.455 159.701 207.533 159.701 207.611C159.727 207.715 159.727 207.819 159.701 207.923C159.701 208.001 159.701 208.093 159.701 208.197C159.701 208.457 159.779 208.692 159.935 208.9C160.118 209.108 160.209 209.343 160.209 209.603C160.157 209.837 160.052 209.981 159.896 210.033C159.74 210.085 159.61 210.15 159.506 210.228C159.453 210.28 159.401 210.345 159.349 210.423C159.323 210.501 159.284 210.567 159.232 210.619C158.659 210.879 158.243 211.126 157.982 211.361C157.722 211.569 157.448 211.778 157.162 211.986C157.084 212.038 156.953 212.129 156.771 212.259C156.589 212.363 156.407 212.481 156.224 212.611C156.042 212.715 155.873 212.832 155.716 212.962C155.586 213.093 155.521 213.197 155.521 213.275C155.521 213.457 155.625 213.718 155.834 214.056C156.068 214.369 156.237 214.616 156.341 214.798C156.628 215.267 156.888 215.736 157.123 216.205C157.357 216.647 157.618 217.09 157.904 217.533C158.425 218.34 158.907 219.16 159.349 219.994C159.818 220.827 160.274 221.66 160.716 222.494ZM154.349 207.962C153.75 207.207 153.099 206.53 152.396 205.931C151.719 205.306 151.068 204.655 150.443 203.978L150.013 203.9C149.857 203.639 149.675 203.418 149.466 203.236C149.284 203.028 149.089 202.819 148.881 202.611C148.907 202.897 148.92 203.171 148.92 203.431C148.92 203.692 148.92 203.965 148.92 204.251C148.92 205.085 148.894 205.905 148.841 206.712C148.815 207.494 148.802 208.288 148.802 209.095C148.802 209.903 148.841 210.671 148.92 211.4C149.466 211.4 149.961 211.244 150.404 210.931C150.586 210.801 150.756 210.671 150.912 210.541C151.068 210.384 151.237 210.241 151.42 210.111C151.628 209.981 151.862 209.824 152.123 209.642C152.409 209.46 152.683 209.278 152.943 209.095C153.23 208.913 153.49 208.731 153.724 208.548C153.985 208.34 154.193 208.145 154.349 207.962ZM171.654 196.673C171.784 197.142 171.914 197.611 172.045 198.08C172.175 198.522 172.331 198.965 172.513 199.408C172.904 199.46 173.138 199.499 173.216 199.525C173.321 199.551 173.438 199.59 173.568 199.642C173.855 200.319 174.024 201.048 174.076 201.83C174.154 202.585 174.258 203.327 174.388 204.056C174.883 204.707 175.235 205.41 175.443 206.166C175.677 206.895 175.938 207.637 176.224 208.392C176.302 208.653 176.355 208.822 176.381 208.9C176.407 208.952 176.42 209.004 176.42 209.056C176.576 209.499 176.732 209.955 176.888 210.423C177.045 210.892 177.214 211.348 177.396 211.791C177.474 212.025 177.552 212.259 177.631 212.494C177.735 212.702 177.826 212.91 177.904 213.119C177.982 213.379 178.047 213.653 178.099 213.939C178.177 214.199 178.256 214.46 178.334 214.72C178.516 215.241 178.711 215.762 178.92 216.283C179.128 216.804 179.336 217.324 179.545 217.845C179.623 218.028 179.766 218.431 179.974 219.056C180.209 219.681 180.443 220.345 180.677 221.048C180.912 221.725 181.12 222.363 181.302 222.962C181.511 223.535 181.615 223.887 181.615 224.017C181.615 224.225 181.628 224.447 181.654 224.681C181.706 224.889 181.745 225.111 181.771 225.345C181.667 225.606 181.537 225.749 181.381 225.775C181.224 225.801 181.081 225.788 180.951 225.736C180.821 225.788 180.69 225.84 180.56 225.892C180.456 225.944 180.352 225.996 180.248 226.048C180.17 226.074 180.105 226.113 180.052 226.166C180 226.218 179.935 226.244 179.857 226.244C179.545 226.244 179.336 226.27 179.232 226.322C179.154 226.4 179.024 226.439 178.841 226.439C178.607 226.361 178.451 226.348 178.373 226.4C178.321 226.478 178.269 226.53 178.216 226.556C178.112 226.608 177.995 226.634 177.865 226.634C177.735 226.634 177.605 226.647 177.474 226.673C177.422 226.569 177.37 226.465 177.318 226.361C177.292 226.257 177.24 226.139 177.162 226.009C176.875 225.593 176.667 225.189 176.537 224.798C176.433 224.408 176.341 224.095 176.263 223.861C176.133 223.574 176.016 223.288 175.912 223.001C175.834 222.715 175.73 222.429 175.599 222.142C175.443 222.194 175.3 222.259 175.17 222.337C175.039 222.389 174.935 222.468 174.857 222.572C174.545 222.572 174.388 222.611 174.388 222.689C174.388 222.767 174.362 222.845 174.31 222.923C174.154 222.975 174.024 223.028 173.92 223.08C173.841 223.132 173.698 223.145 173.49 223.119C173.36 223.249 173.23 223.366 173.099 223.47C172.969 223.548 172.8 223.6 172.591 223.626C172.383 223.835 172.162 224.017 171.927 224.173C171.719 224.304 171.472 224.33 171.185 224.251C170.821 224.33 170.456 224.408 170.091 224.486C169.727 224.538 169.362 224.564 168.998 224.564C168.581 224.434 168.321 224.317 168.216 224.212C168.112 224.108 167.956 224.056 167.748 224.056C167.774 223.692 167.696 223.444 167.513 223.314C167.513 223.236 167.513 223.119 167.513 222.962C167.539 222.78 167.578 222.663 167.631 222.611C167.969 222.455 168.164 222.285 168.216 222.103C168.269 221.921 168.412 221.804 168.646 221.751C168.698 221.647 168.75 221.556 168.802 221.478C168.881 221.374 168.946 221.27 168.998 221.166C169.128 221.113 169.232 221.074 169.31 221.048C169.414 221.022 169.493 220.944 169.545 220.814C169.675 220.814 169.87 220.736 170.131 220.58C170.391 220.397 170.56 220.254 170.638 220.15C170.847 220.072 170.977 220.007 171.029 219.955C171.081 219.876 171.146 219.811 171.224 219.759C171.485 219.785 171.654 219.759 171.732 219.681C171.94 219.785 172.175 219.837 172.435 219.837C172.539 219.837 172.631 219.837 172.709 219.837C172.787 219.811 172.878 219.798 172.982 219.798C173.19 219.59 173.451 219.46 173.763 219.408C174.102 219.33 174.375 219.186 174.584 218.978C174.506 218.77 174.44 218.522 174.388 218.236C174.336 217.923 174.245 217.676 174.115 217.494C174.063 217.155 173.972 216.83 173.841 216.517C173.737 216.205 173.646 215.905 173.568 215.619C173.282 214.525 172.943 213.457 172.552 212.416C172.162 211.374 171.836 210.306 171.576 209.212C171.524 209.082 171.459 208.952 171.381 208.822C171.328 208.666 171.276 208.522 171.224 208.392C171.094 208.705 171.029 208.887 171.029 208.939C171.029 208.965 171.003 209.004 170.951 209.056C170.925 209.186 170.899 209.304 170.873 209.408C170.847 209.486 170.808 209.59 170.756 209.72C170.677 209.929 170.599 210.163 170.521 210.423C170.469 210.658 170.417 210.879 170.365 211.087C170.235 211.53 170.118 211.999 170.013 212.494C169.909 212.962 169.792 213.431 169.662 213.9C169.401 214.707 169.128 215.514 168.841 216.322C168.581 217.103 168.321 217.897 168.06 218.705C168.008 219.069 167.943 219.356 167.865 219.564C167.813 219.746 167.748 219.942 167.67 220.15C167.618 220.332 167.565 220.514 167.513 220.697C167.487 220.879 167.474 221.022 167.474 221.126C167.11 221.96 166.797 222.806 166.537 223.666C166.302 224.525 166.003 225.358 165.638 226.166C165.534 226.218 165.443 226.283 165.365 226.361C165.287 226.439 165.196 226.478 165.091 226.478C164.883 226.478 164.766 226.426 164.74 226.322C164.74 226.218 164.688 226.166 164.584 226.166C164.48 226.166 164.388 226.192 164.31 226.244C164.232 226.27 164.154 226.309 164.076 226.361C163.946 226.309 163.789 226.27 163.607 226.244C163.451 226.244 163.334 226.192 163.256 226.087C163.073 226.218 162.891 226.283 162.709 226.283C162.5 226.283 162.292 226.218 162.084 226.087C161.927 226.139 161.771 226.166 161.615 226.166C161.537 226.166 161.446 226.153 161.341 226.126C161.237 226.1 161.159 226.061 161.107 226.009C161.081 225.905 161.068 225.801 161.068 225.697C161.068 225.593 161.068 225.475 161.068 225.345C161.068 225.085 161.042 224.889 160.99 224.759C161.459 223.431 161.914 222.09 162.357 220.736C162.8 219.356 163.243 217.962 163.685 216.556C163.92 215.905 164.141 215.267 164.349 214.642C164.584 214.017 164.805 213.379 165.013 212.728C165.118 212.363 165.209 212.025 165.287 211.712C165.365 211.374 165.469 211.048 165.599 210.736C165.808 210.059 166.016 209.382 166.224 208.705C166.459 208.001 166.667 207.311 166.849 206.634C166.953 206.556 167.019 206.465 167.045 206.361C167.071 206.257 167.11 206.139 167.162 206.009L167.123 205.501C167.305 205.241 167.422 205.02 167.474 204.837C167.552 204.629 167.605 204.421 167.631 204.212C167.761 203.9 167.878 203.561 167.982 203.197C168.086 202.832 168.164 202.494 168.216 202.181C168.269 201.764 168.295 201.296 168.295 200.775C168.321 200.228 168.399 199.772 168.529 199.408C168.581 199.304 168.62 199.238 168.646 199.212C168.698 199.16 168.724 199.069 168.724 198.939C168.776 198.887 168.828 198.835 168.881 198.783C168.959 198.705 169.011 198.626 169.037 198.548C169.167 198.34 169.206 198.158 169.154 198.001C169.128 197.845 169.115 197.676 169.115 197.494C169.349 197.363 169.453 197.246 169.427 197.142C169.401 197.038 169.388 196.934 169.388 196.83C169.388 196.699 169.466 196.582 169.623 196.478C169.805 196.348 169.922 196.218 169.974 196.087C170.131 196.113 170.287 196.139 170.443 196.166C170.599 196.166 170.756 196.153 170.912 196.126C171.094 196.465 171.315 196.634 171.576 196.634L171.654 196.673ZM204.271 211.283C204.323 211.465 204.427 211.66 204.584 211.869C204.74 212.077 204.818 212.233 204.818 212.337C204.61 212.832 204.453 213.223 204.349 213.509C204.245 213.77 204.076 214.004 203.841 214.212C203.841 214.291 203.763 214.46 203.607 214.72C203.451 214.981 203.269 215.267 203.06 215.58C202.878 215.866 202.683 216.153 202.474 216.439C202.292 216.699 202.175 216.882 202.123 216.986C201.993 217.194 201.888 217.403 201.81 217.611C201.732 217.793 201.641 217.975 201.537 218.158C201.302 218.574 201.055 218.965 200.795 219.33C200.56 219.694 200.339 220.098 200.131 220.541C200 220.671 199.883 220.814 199.779 220.97C199.675 221.126 199.558 221.27 199.427 221.4C199.115 221.973 198.75 222.507 198.334 223.001C197.943 223.496 197.578 224.043 197.24 224.642C197.526 224.929 197.67 225.293 197.67 225.736C197.67 225.97 197.605 226.1 197.474 226.126C197.344 226.126 197.227 226.153 197.123 226.205C196.862 226.387 196.628 226.491 196.42 226.517C196.211 226.543 196.042 226.556 195.912 226.556C195.625 226.556 195.313 226.543 194.974 226.517C194.636 226.517 194.349 226.543 194.115 226.595C194.037 226.621 193.946 226.66 193.841 226.712C193.737 226.791 193.659 226.83 193.607 226.83C193.399 226.83 193.243 226.791 193.138 226.712C193.06 226.66 192.943 226.608 192.787 226.556C192.578 226.322 192.383 226.074 192.201 225.814C192.045 225.554 191.875 225.293 191.693 225.033C191.537 224.85 191.368 224.694 191.185 224.564C191.003 224.408 190.834 224.225 190.677 224.017C190.261 223.418 189.831 222.845 189.388 222.298C188.972 221.751 188.542 221.205 188.099 220.658C187.891 220.371 187.657 220.098 187.396 219.837C187.162 219.577 186.94 219.317 186.732 219.056C186.524 218.77 186.328 218.47 186.146 218.158C185.964 217.845 185.769 217.546 185.56 217.259C185.404 216.999 185.183 216.686 184.896 216.322C184.61 215.931 184.31 215.541 183.998 215.15C183.685 214.759 183.36 214.395 183.021 214.056C182.709 213.692 182.435 213.418 182.201 213.236C182.201 213.054 182.149 212.923 182.045 212.845C181.94 212.767 181.823 212.676 181.693 212.572C181.641 212.442 181.576 212.324 181.498 212.22C181.42 212.09 181.381 211.947 181.381 211.791C181.381 211.608 181.42 211.439 181.498 211.283C181.55 211.179 181.576 211.087 181.576 211.009C181.602 210.905 181.641 210.801 181.693 210.697C181.823 210.358 182.006 210.059 182.24 209.798C182.5 209.538 182.696 209.238 182.826 208.9C182.852 208.796 182.865 208.705 182.865 208.626C182.865 208.522 182.891 208.418 182.943 208.314C183.021 208.132 183.138 207.975 183.295 207.845C183.451 207.689 183.594 207.52 183.724 207.337C183.855 207.103 183.985 206.869 184.115 206.634C184.245 206.4 184.375 206.166 184.506 205.931C184.87 205.332 185.274 204.759 185.716 204.212C186.159 203.639 186.576 203.08 186.966 202.533C187.331 202.012 187.67 201.504 187.982 201.009C188.295 200.488 188.633 199.968 188.998 199.447C189.18 199.186 189.388 198.9 189.623 198.587C189.857 198.249 190.091 197.923 190.326 197.611C190.586 197.298 190.847 197.012 191.107 196.751C191.368 196.465 191.628 196.257 191.888 196.126C192.331 196.074 192.618 196.153 192.748 196.361C192.878 196.543 193.06 196.634 193.295 196.634C193.659 196.712 193.907 196.83 194.037 196.986C194.167 197.142 194.297 197.285 194.427 197.416C194.766 197.416 195.052 197.481 195.287 197.611C195.521 197.741 195.756 197.936 195.99 198.197C195.886 198.483 195.743 198.744 195.56 198.978C195.404 199.212 195.261 199.46 195.131 199.72C194.922 199.798 194.766 199.929 194.662 200.111C194.584 200.293 194.453 200.449 194.271 200.58C193.985 201.022 193.698 201.465 193.412 201.908C193.125 202.324 192.839 202.728 192.552 203.119C192.422 203.275 192.279 203.405 192.123 203.509C191.966 203.587 191.823 203.718 191.693 203.9C191.641 203.978 191.602 204.069 191.576 204.173C191.55 204.251 191.511 204.33 191.459 204.408C191.146 204.903 190.795 205.384 190.404 205.853C190.013 206.322 189.675 206.817 189.388 207.337C189.258 207.52 189.154 207.715 189.076 207.923C188.998 208.106 188.907 208.288 188.802 208.47C188.698 208.653 188.542 208.887 188.334 209.173C188.151 209.434 187.956 209.707 187.748 209.994C187.565 210.28 187.396 210.567 187.24 210.853C187.11 211.139 187.045 211.374 187.045 211.556C187.071 211.686 187.24 211.947 187.552 212.337C187.865 212.728 188.216 213.145 188.607 213.587C188.998 214.03 189.362 214.46 189.701 214.876C190.065 215.267 190.287 215.501 190.365 215.58C190.417 215.71 190.612 215.996 190.951 216.439C191.289 216.856 191.667 217.324 192.084 217.845C192.526 218.34 192.956 218.822 193.373 219.291C193.789 219.759 194.076 220.098 194.232 220.306L194.545 220.814C194.597 220.788 194.727 220.606 194.935 220.267C195.17 219.929 195.404 219.551 195.638 219.134C195.873 218.718 196.081 218.327 196.263 217.962C196.472 217.598 196.602 217.363 196.654 217.259C196.732 217.181 196.862 216.973 197.045 216.634C197.227 216.296 197.422 215.931 197.631 215.541C197.865 215.15 198.06 214.785 198.216 214.447C198.399 214.108 198.503 213.887 198.529 213.783H198.06C197.644 213.783 197.227 213.809 196.81 213.861C196.42 213.887 196.016 213.965 195.599 214.095C195.417 214.069 195.261 214.017 195.131 213.939C195 213.861 194.844 213.783 194.662 213.705C194.584 213.444 194.545 213.262 194.545 213.158C194.571 213.054 194.571 212.975 194.545 212.923C194.519 212.819 194.48 212.741 194.427 212.689C194.401 212.637 194.388 212.559 194.388 212.455C194.388 212.272 194.362 212.129 194.31 212.025C194.258 211.895 194.206 211.751 194.154 211.595C194.154 211.491 194.154 211.387 194.154 211.283C194.18 211.179 194.167 211.087 194.115 211.009C194.167 210.541 194.128 210.202 193.998 209.994C193.998 209.629 194.05 209.395 194.154 209.291C194.258 209.186 194.336 209.03 194.388 208.822C194.623 208.9 194.818 208.887 194.974 208.783C195.157 208.653 195.339 208.587 195.521 208.587C195.938 208.587 196.276 208.522 196.537 208.392C196.771 208.366 197.006 208.353 197.24 208.353C197.5 208.353 197.748 208.327 197.982 208.275C198.112 208.249 198.216 208.223 198.295 208.197C198.399 208.171 198.516 208.145 198.646 208.119C198.802 208.093 198.972 208.08 199.154 208.08C199.336 208.08 199.506 208.08 199.662 208.08C200.078 208.028 200.495 208.001 200.912 208.001C201.328 207.975 201.745 207.949 202.162 207.923C202.292 207.975 202.409 208.014 202.513 208.041C202.644 208.067 202.761 208.106 202.865 208.158C202.943 208.21 203.008 208.275 203.06 208.353C203.112 208.405 203.203 208.444 203.334 208.47C203.464 208.6 203.555 208.731 203.607 208.861C203.555 209.095 203.568 209.264 203.646 209.369C203.516 209.499 203.438 209.681 203.412 209.916C203.412 210.124 203.399 210.319 203.373 210.501C203.555 210.554 203.711 210.697 203.841 210.931C203.972 211.166 204.063 211.283 204.115 211.283H204.271ZM226.185 210.736C226.133 210.84 226.081 210.944 226.029 211.048C225.977 211.126 225.938 211.218 225.912 211.322C226.016 211.426 226.107 211.543 226.185 211.673C226.289 211.778 226.341 211.895 226.341 212.025C226.341 212.129 226.315 212.233 226.263 212.337C226.237 212.416 226.237 212.494 226.263 212.572C226.159 212.754 226.042 212.923 225.912 213.08C225.808 213.236 225.73 213.405 225.677 213.587C225.573 213.692 225.482 213.796 225.404 213.9C225.352 214.004 225.3 214.108 225.248 214.212C225.118 214.264 225.026 214.356 224.974 214.486C224.948 214.59 224.883 214.681 224.779 214.759C224.753 214.863 224.623 215.111 224.388 215.501C224.154 215.892 223.894 216.309 223.607 216.751C223.321 217.194 223.047 217.624 222.787 218.041C222.526 218.457 222.344 218.731 222.24 218.861C222.188 218.991 222.123 219.095 222.045 219.173C221.993 219.251 221.927 219.343 221.849 219.447C221.797 219.525 221.758 219.616 221.732 219.72C221.706 219.798 221.667 219.863 221.615 219.916C221.563 220.02 221.498 220.111 221.42 220.189C221.368 220.267 221.315 220.371 221.263 220.501C221.003 220.84 220.743 221.244 220.482 221.712C220.222 222.181 219.974 222.598 219.74 222.962C219.61 223.171 219.48 223.379 219.349 223.587C219.245 223.796 219.128 224.004 218.998 224.212C218.868 224.421 218.737 224.616 218.607 224.798C218.477 224.981 218.347 225.176 218.216 225.384C218.008 225.541 217.826 225.736 217.67 225.97C217.513 226.179 217.331 226.361 217.123 226.517C216.784 226.517 216.576 226.361 216.498 226.048C216.159 225.97 215.99 225.97 215.99 226.048C215.99 226.126 215.99 226.192 215.99 226.244C215.886 226.296 215.808 226.374 215.756 226.478C215.73 226.582 215.664 226.66 215.56 226.712C215.352 226.66 215.17 226.569 215.013 226.439C214.883 226.335 214.688 226.296 214.427 226.322C214.323 226.166 214.206 226.035 214.076 225.931C213.946 225.801 213.828 225.671 213.724 225.541C213.672 225.384 213.594 225.254 213.49 225.15C213.412 225.046 213.334 224.942 213.256 224.837C213.177 224.707 213.099 224.59 213.021 224.486C212.943 224.382 212.865 224.278 212.787 224.173C212.605 223.939 212.422 223.718 212.24 223.509C212.084 223.275 211.94 223.041 211.81 222.806C211.602 222.494 211.394 222.181 211.185 221.869C211.003 221.53 210.808 221.205 210.599 220.892C210.495 220.736 210.391 220.58 210.287 220.423C210.183 220.267 210.091 220.111 210.013 219.955C209.961 219.824 209.883 219.668 209.779 219.486C209.701 219.304 209.597 219.186 209.466 219.134C209.414 218.926 209.323 218.77 209.193 218.666C209.063 218.561 208.933 218.431 208.802 218.275C208.62 218.067 208.451 217.845 208.295 217.611C208.138 217.35 207.982 217.09 207.826 216.83C207.305 216.1 206.81 215.384 206.341 214.681C205.899 213.978 205.456 213.249 205.013 212.494C205.144 212.077 205.209 211.764 205.209 211.556C205.209 211.348 205.274 211.179 205.404 211.048C205.404 210.944 205.43 210.788 205.482 210.58C205.821 210.007 206.146 209.486 206.459 209.017C206.745 208.574 206.94 208.21 207.045 207.923C207.175 207.637 207.305 207.337 207.435 207.025C207.565 206.947 207.67 206.856 207.748 206.751C207.826 206.621 207.93 206.504 208.06 206.4C208.112 206.113 208.23 205.879 208.412 205.697C208.594 205.488 208.711 205.241 208.763 204.955C208.998 204.772 209.128 204.564 209.154 204.33C209.493 204.095 209.701 203.783 209.779 203.392C209.987 203.184 210.157 202.949 210.287 202.689C210.443 202.429 210.586 202.155 210.716 201.869C211.029 201.608 211.276 201.27 211.459 200.853C211.615 200.749 211.732 200.606 211.81 200.423C211.888 200.241 211.993 200.085 212.123 199.955C212.331 199.616 212.487 199.343 212.591 199.134C212.722 198.9 212.852 198.666 212.982 198.431C213.164 198.431 213.282 198.366 213.334 198.236C213.386 198.106 213.49 198.054 213.646 198.08C213.646 197.845 213.711 197.637 213.841 197.455C213.894 197.429 213.972 197.403 214.076 197.376C214.18 197.324 214.232 197.272 214.232 197.22C214.18 196.908 214.193 196.725 214.271 196.673C214.349 196.621 214.414 196.569 214.466 196.517C214.753 196.569 214.948 196.608 215.052 196.634C215.157 196.66 215.326 196.751 215.56 196.908C215.821 196.908 216.003 196.96 216.107 197.064C216.211 197.168 216.328 197.246 216.459 197.298C216.563 197.403 216.641 197.507 216.693 197.611C216.771 197.715 216.875 197.793 217.006 197.845C217.214 198.132 217.435 198.444 217.67 198.783C217.904 199.121 218.125 199.434 218.334 199.72C218.62 200.111 218.907 200.488 219.193 200.853C219.506 201.192 219.792 201.569 220.052 201.986C220.131 202.116 220.274 202.35 220.482 202.689C220.69 203.001 220.925 203.34 221.185 203.705C221.446 204.069 221.68 204.408 221.888 204.72C222.097 205.007 222.24 205.176 222.318 205.228C222.396 205.358 222.565 205.606 222.826 205.97C223.086 206.335 223.36 206.725 223.646 207.142C223.959 207.533 224.258 207.91 224.545 208.275C224.831 208.639 225.026 208.874 225.131 208.978C225.417 209.369 225.625 209.694 225.756 209.955C225.912 210.189 226.055 210.449 226.185 210.736ZM217.24 218.08C217.526 217.689 217.748 217.337 217.904 217.025C218.06 216.712 218.216 216.4 218.373 216.087C218.633 215.775 218.789 215.554 218.841 215.423C218.894 215.293 218.959 215.163 219.037 215.033C219.245 214.72 219.453 214.408 219.662 214.095C219.896 213.783 220.078 213.444 220.209 213.08C220.365 212.975 220.482 212.845 220.56 212.689C220.638 212.533 220.756 212.389 220.912 212.259C220.756 211.712 220.573 211.296 220.365 211.009C220.157 210.697 219.948 210.397 219.74 210.111C219.662 209.981 219.584 209.85 219.506 209.72C219.427 209.59 219.349 209.46 219.271 209.33C219.167 209.251 219.076 209.173 218.998 209.095C218.946 209.017 218.881 208.939 218.802 208.861C218.75 208.731 218.672 208.561 218.568 208.353C218.464 208.223 218.36 208.106 218.256 208.001C218.151 207.897 218.06 207.767 217.982 207.611C217.878 207.507 217.748 207.363 217.591 207.181C217.435 206.999 217.266 206.804 217.084 206.595C216.927 206.361 216.784 206.153 216.654 205.97C216.524 205.762 216.42 205.593 216.341 205.462C216.289 205.332 216.237 205.228 216.185 205.15C216.159 205.046 216.12 204.942 216.068 204.837C215.938 204.655 215.808 204.499 215.677 204.369C215.547 204.212 215.417 204.043 215.287 203.861C215.209 203.913 215.131 203.952 215.052 203.978C215 203.978 214.948 204.004 214.896 204.056C214.714 204.395 214.506 204.707 214.271 204.994C214.063 205.28 213.855 205.593 213.646 205.931C213.464 206.244 213.282 206.569 213.099 206.908C212.917 207.22 212.735 207.533 212.552 207.845C212.422 208.028 212.292 208.21 212.162 208.392C212.058 208.548 211.94 208.731 211.81 208.939C211.68 209.121 211.563 209.317 211.459 209.525C211.381 209.707 211.276 209.889 211.146 210.072C210.938 210.332 210.769 210.567 210.638 210.775C210.508 210.983 210.378 211.231 210.248 211.517C210.326 211.673 210.443 211.895 210.599 212.181C210.782 212.442 210.964 212.715 211.146 213.001C211.328 213.262 211.485 213.509 211.615 213.744C211.771 213.978 211.862 214.134 211.888 214.212C212.097 214.395 212.266 214.603 212.396 214.837C212.526 215.046 212.696 215.254 212.904 215.462C213.008 215.671 213.125 215.853 213.256 216.009C213.386 216.166 213.516 216.335 213.646 216.517C213.776 216.699 213.946 216.973 214.154 217.337C214.362 217.676 214.571 218.028 214.779 218.392C214.987 218.757 215.196 219.095 215.404 219.408C215.612 219.72 215.782 219.916 215.912 219.994C216.172 219.707 216.381 219.395 216.537 219.056C216.719 218.692 216.953 218.366 217.24 218.08ZM241.537 197.103C241.953 197.051 242.266 197.09 242.474 197.22C242.709 197.324 242.943 197.389 243.177 197.416C243.308 197.442 243.438 197.455 243.568 197.455C243.724 197.429 243.881 197.416 244.037 197.416C244.375 197.416 244.636 197.455 244.818 197.533C245.026 197.611 245.235 197.78 245.443 198.041C245.495 198.093 245.56 198.171 245.638 198.275C245.743 198.353 245.795 198.431 245.795 198.509C245.795 198.718 245.743 198.9 245.638 199.056C245.534 199.212 245.482 199.434 245.482 199.72C245.482 200.163 245.534 200.606 245.638 201.048C245.743 201.465 245.808 201.895 245.834 202.337C245.964 203.952 246.029 205.58 246.029 207.22C246.055 208.835 246.068 210.436 246.068 212.025C246.068 212.233 246.055 212.429 246.029 212.611C246.029 212.767 245.977 212.91 245.873 213.041V213.548C245.847 214.225 245.86 214.916 245.912 215.619C245.964 216.296 245.99 216.973 245.99 217.65C245.99 218.249 245.951 218.848 245.873 219.447C245.821 220.046 245.795 220.658 245.795 221.283C245.795 221.856 245.834 222.416 245.912 222.962C245.99 223.509 246.029 224.069 246.029 224.642C245.899 224.876 245.821 225.059 245.795 225.189C245.769 225.319 245.716 225.436 245.638 225.541C245.56 225.593 245.469 225.606 245.365 225.58C245.287 225.554 245.222 225.58 245.17 225.658C245.039 225.814 244.948 225.996 244.896 226.205C244.844 226.413 244.714 226.582 244.506 226.712C244.453 227.077 244.31 227.35 244.076 227.533C243.868 227.741 243.711 228.001 243.607 228.314C243.295 228.34 243.073 228.327 242.943 228.275C242.839 228.223 242.722 228.171 242.591 228.119C242.565 227.676 242.565 227.35 242.591 227.142C242.644 226.96 242.67 226.764 242.67 226.556C242.67 226.296 242.605 226.1 242.474 225.97C242.344 225.84 242.253 225.671 242.201 225.462C241.914 225.28 241.719 225.163 241.615 225.111C241.511 225.033 241.42 224.942 241.341 224.837C241.185 224.629 241.055 224.408 240.951 224.173C240.847 223.939 240.73 223.718 240.599 223.509C240.235 222.91 239.857 222.298 239.466 221.673C239.102 221.048 238.698 220.436 238.256 219.837C238.177 219.707 238.086 219.59 237.982 219.486C237.878 219.382 237.787 219.264 237.709 219.134C237.266 218.431 236.849 217.715 236.459 216.986C236.068 216.257 235.612 215.567 235.091 214.916C234.883 214.655 234.727 214.369 234.623 214.056C234.519 213.718 234.362 213.431 234.154 213.197C234.128 213.327 234.115 213.47 234.115 213.626C234.115 213.783 234.115 213.926 234.115 214.056C234.115 214.942 234.128 215.827 234.154 216.712C234.206 217.572 234.232 218.444 234.232 219.33C234.232 219.512 234.206 219.681 234.154 219.837C234.128 219.968 234.115 220.124 234.115 220.306C234.115 220.567 234.128 220.814 234.154 221.048C234.18 221.283 234.193 221.517 234.193 221.751C234.193 222.038 234.18 222.311 234.154 222.572C234.154 222.832 234.141 223.093 234.115 223.353C234.063 223.692 233.998 224.017 233.92 224.33C233.841 224.616 233.802 224.916 233.802 225.228C233.802 225.41 233.815 225.58 233.841 225.736C233.894 225.892 233.92 226.035 233.92 226.166C233.737 226.452 233.503 226.595 233.216 226.595C232.956 226.595 232.735 226.699 232.552 226.908C232.396 226.882 232.266 226.895 232.162 226.947C232.084 226.999 232.006 227.025 231.927 227.025C231.823 227.025 231.732 227.012 231.654 226.986C231.602 226.96 231.537 226.947 231.459 226.947C231.328 226.947 231.198 227.012 231.068 227.142C230.938 227.272 230.808 227.337 230.677 227.337C230.599 227.337 230.456 227.285 230.248 227.181C230.065 227.077 229.857 226.947 229.623 226.791C229.414 226.66 229.219 226.517 229.037 226.361C228.855 226.231 228.763 226.126 228.763 226.048C228.737 225.918 228.724 225.736 228.724 225.501C228.724 225.189 228.737 224.889 228.763 224.603C228.815 224.291 228.868 223.978 228.92 223.666C228.998 222.78 229.037 221.908 229.037 221.048C229.037 220.163 229.037 219.278 229.037 218.392C229.037 218.028 229.037 217.663 229.037 217.298C229.063 216.934 229.076 216.569 229.076 216.205C229.076 215.345 229.037 214.486 228.959 213.626C228.907 212.741 228.881 211.869 228.881 211.009C228.881 210.41 228.907 209.824 228.959 209.251C229.011 208.653 229.037 208.067 229.037 207.494C229.037 207.051 229.024 206.621 228.998 206.205C228.972 205.788 228.959 205.358 228.959 204.916C228.933 204.629 228.933 204.33 228.959 204.017C228.985 203.679 228.998 203.366 228.998 203.08C228.998 202.741 228.946 202.429 228.841 202.142C228.763 201.83 228.724 201.543 228.724 201.283C228.724 201.126 228.75 200.983 228.802 200.853C228.881 200.697 228.92 200.541 228.92 200.384C228.92 200.176 228.881 199.968 228.802 199.759C228.75 199.551 228.724 199.343 228.724 199.134C228.724 198.926 228.75 198.731 228.802 198.548C228.855 198.366 228.881 198.171 228.881 197.962C229.245 197.78 229.571 197.689 229.857 197.689C230.144 197.689 230.352 197.793 230.482 198.001C230.482 198.47 230.508 198.835 230.56 199.095C230.612 199.33 230.651 199.577 230.677 199.837C230.677 199.994 230.664 200.176 230.638 200.384C230.638 200.593 230.651 200.801 230.677 201.009C230.703 201.192 230.756 201.348 230.834 201.478C230.938 201.608 231.107 201.673 231.341 201.673C231.394 201.804 231.459 201.921 231.537 202.025C231.615 202.129 231.667 202.259 231.693 202.416C231.849 202.311 231.94 202.168 231.966 201.986C231.993 201.804 231.993 201.634 231.966 201.478C232.097 201.53 232.214 201.556 232.318 201.556C232.422 201.53 232.526 201.543 232.631 201.595C232.683 201.96 232.748 202.285 232.826 202.572C232.904 202.832 232.93 203.145 232.904 203.509C233.425 203.9 233.868 204.46 234.232 205.189C234.623 205.892 234.987 206.53 235.326 207.103C235.508 207.389 235.716 207.663 235.951 207.923C236.211 208.158 236.407 208.444 236.537 208.783C236.745 208.913 236.914 209.082 237.045 209.291C237.175 209.499 237.292 209.707 237.396 209.916C237.917 210.827 238.49 211.712 239.115 212.572C239.74 213.431 240.391 214.278 241.068 215.111C241.094 214.929 241.107 214.759 241.107 214.603C241.107 214.421 241.107 214.238 241.107 214.056L241.068 210.541C241.068 210.332 241.055 210.137 241.029 209.955C241.029 209.772 241.016 209.577 240.99 209.369C240.938 208.692 240.925 208.028 240.951 207.376C240.977 206.725 240.977 206.061 240.951 205.384C240.899 204.681 240.86 203.965 240.834 203.236C240.834 202.507 240.808 201.778 240.756 201.048C240.73 200.606 240.703 200.163 240.677 199.72C240.651 199.278 240.638 198.835 240.638 198.392C240.638 197.845 240.69 197.35 240.795 196.908C240.847 196.856 240.899 196.817 240.951 196.791C241.029 196.738 241.12 196.712 241.224 196.712C241.381 196.712 241.485 196.843 241.537 197.103ZM258.256 197.455C258.308 197.559 258.36 197.637 258.412 197.689C258.49 197.715 258.542 197.793 258.568 197.923C258.75 198.054 258.894 198.158 258.998 198.236C259.102 198.288 259.167 198.392 259.193 198.548C259.427 198.731 259.558 198.848 259.584 198.9C259.636 198.952 259.675 199.017 259.701 199.095C259.831 199.199 259.948 199.291 260.052 199.369C260.183 199.447 260.274 199.564 260.326 199.72C260.534 199.903 260.664 200.046 260.716 200.15C260.769 200.254 260.808 200.371 260.834 200.501C260.73 200.684 260.521 200.931 260.209 201.244C259.896 201.556 259.545 201.895 259.154 202.259C258.763 202.598 258.386 202.936 258.021 203.275C257.657 203.587 257.37 203.835 257.162 204.017C257.11 204.121 257.045 204.212 256.966 204.291C256.888 204.369 256.823 204.46 256.771 204.564C256.615 204.694 256.472 204.837 256.341 204.994C256.211 205.124 256.055 205.228 255.873 205.306C255.612 205.671 255.248 206.035 254.779 206.4C254.31 206.738 253.998 207.077 253.841 207.416C253.868 207.494 253.92 207.572 253.998 207.65C254.102 207.728 254.18 207.793 254.232 207.845C254.44 208.054 254.688 208.249 254.974 208.431C255.261 208.587 255.508 208.77 255.716 208.978C255.925 209.16 256.133 209.343 256.341 209.525C256.55 209.681 256.758 209.85 256.966 210.033C257.071 210.137 257.201 210.293 257.357 210.501C257.618 210.71 257.865 210.905 258.099 211.087C258.36 211.244 258.607 211.426 258.841 211.634C259.336 212.051 259.818 212.481 260.287 212.923C260.756 213.34 261.25 213.757 261.771 214.173L262.084 214.525C262.084 214.733 262.136 214.981 262.24 215.267C262.37 215.528 262.487 215.749 262.591 215.931C262.539 216.192 262.539 216.361 262.591 216.439C262.67 216.491 262.735 216.543 262.787 216.595C262.761 217.09 262.774 217.416 262.826 217.572C262.383 217.962 261.966 218.327 261.576 218.666C261.211 218.978 260.886 219.291 260.599 219.603C260.365 219.889 260.118 220.15 259.857 220.384C259.623 220.593 259.362 220.827 259.076 221.087C258.92 221.296 258.789 221.439 258.685 221.517C258.503 221.699 258.321 221.843 258.138 221.947C257.826 222.233 257.513 222.507 257.201 222.767C256.914 223.028 256.628 223.288 256.341 223.548C256.133 223.731 255.938 223.913 255.756 224.095C255.573 224.251 255.391 224.434 255.209 224.642C255.052 224.798 254.87 224.981 254.662 225.189C254.48 225.397 254.284 225.567 254.076 225.697C253.998 225.853 253.894 225.996 253.763 226.126C253.633 226.231 253.516 226.348 253.412 226.478C253.23 226.582 253.06 226.686 252.904 226.791C252.748 226.895 252.565 226.999 252.357 227.103C252.149 226.947 251.94 226.804 251.732 226.673C251.55 226.543 251.341 226.452 251.107 226.4C250.951 226.27 250.834 226.139 250.756 226.009C250.677 225.879 250.534 225.788 250.326 225.736C250.274 225.658 250.209 225.58 250.131 225.501C250.078 225.397 250.026 225.293 249.974 225.189C249.662 225.163 249.414 224.968 249.232 224.603C249.284 224.447 249.349 224.33 249.427 224.251C249.532 224.173 249.558 224.03 249.506 223.822C249.662 223.561 249.844 223.34 250.052 223.158C250.287 222.949 250.508 222.741 250.716 222.533C250.951 222.324 251.159 222.116 251.341 221.908C251.55 221.673 251.771 221.452 252.006 221.244C252.136 221.113 252.266 220.996 252.396 220.892C252.526 220.762 252.67 220.632 252.826 220.501C253.112 220.215 253.399 219.955 253.685 219.72C253.998 219.46 254.31 219.186 254.623 218.9C255.039 218.483 255.469 218.093 255.912 217.728C256.355 217.337 256.758 216.908 257.123 216.439C257.097 216.335 257.058 216.27 257.006 216.244C256.953 216.192 256.914 216.126 256.888 216.048C256.472 215.658 256.055 215.28 255.638 214.916C255.248 214.525 254.818 214.186 254.349 213.9C254.193 213.744 254.089 213.613 254.037 213.509C253.568 213.171 253.112 212.793 252.67 212.376C252.253 211.96 251.784 211.608 251.263 211.322C251.159 211.192 251.029 211.087 250.873 211.009C250.743 210.905 250.612 210.814 250.482 210.736C250.404 210.606 250.313 210.501 250.209 210.423C250.131 210.319 250.026 210.241 249.896 210.189C249.688 210.007 249.545 209.863 249.466 209.759C249.414 209.629 249.31 209.551 249.154 209.525C249.102 209.395 249.011 209.291 248.881 209.212C248.776 209.134 248.659 209.043 248.529 208.939C248.477 208.783 248.399 208.653 248.295 208.548C248.269 208.34 248.282 208.197 248.334 208.119C248.386 208.014 248.425 207.936 248.451 207.884C248.425 207.728 248.36 207.611 248.256 207.533C248.125 207.455 248.06 207.324 248.06 207.142C248.06 207.038 248.099 206.973 248.177 206.947C248.23 206.895 248.269 206.83 248.295 206.751L248.412 206.166C248.62 206.009 248.789 205.827 248.92 205.619C249.076 205.384 249.271 205.202 249.506 205.072C249.766 204.681 250.091 204.356 250.482 204.095C250.612 203.887 250.769 203.718 250.951 203.587C251.159 203.457 251.328 203.288 251.459 203.08C251.667 202.949 251.836 202.806 251.966 202.65C252.123 202.494 252.305 202.35 252.513 202.22C252.565 202.116 252.618 202.038 252.67 201.986C252.748 201.908 252.8 201.83 252.826 201.751C253.529 201.074 254.141 200.488 254.662 199.994C255.209 199.499 255.769 199.004 256.341 198.509C256.498 198.379 256.654 198.236 256.81 198.08C256.966 197.923 257.136 197.78 257.318 197.65C257.37 197.598 257.435 197.572 257.513 197.572C257.591 197.572 257.67 197.546 257.748 197.494C258.06 197.494 258.23 197.481 258.256 197.455Z" fill="#F5F5F5"/>
</g>
</g>
<defs>
<filter id="filter0_d_337_37" x="51.9604" y="110.942" width="298.963" height="278.087" filterUnits="userSpaceOnUse" color-interpolation-filters="sRGB">
<feFlood flood-opacity="0" result="BackgroundImageFix"/>
<feColorMatrix in="SourceAlpha" type="matrix" values="0 0 0 0 0 0 0 0 0 0 0 0 0 0 0 0 0 0 127 0" result="hardAlpha"/>
<feOffset dx="4" dy="4"/>
<feGaussianBlur stdDeviation="2"/>
<feComposite in2="hardAlpha" operator="out"/>
<feColorMatrix type="matrix" values="0 0 0 0 0 0 0 0 0 0 0 0 0 0 0 0 0 0 0.25 0"/>
<feBlend mode="normal" in2="BackgroundImageFix" result="effect1_dropShadow_337_37"/>
<feBlend mode="normal" in="SourceGraphic" in2="effect1_dropShadow_337_37" result="shape"/>
</filter>
<filter id="filter1_d_337_37" x="119.31" y="154.087" width="155.383" height="82.2656" filterUnits="userSpaceOnUse" color-interpolation-filters="sRGB">
<feFlood flood-opacity="0" result="BackgroundImageFix"/>
<feColorMatrix in="SourceAlpha" type="matrix" values="0 0 0 0 0 0 0 0 0 0 0 0 0 0 0 0 0 0 127 0" result="hardAlpha"/>
<feOffset dx="4" dy="4"/>
<feGaussianBlur stdDeviation="2"/>
<feComposite in2="hardAlpha" operator="out"/>
<feColorMatrix type="matrix" values="0 0 0 0 0 0 0 0 0 0 0 0 0 0 0 0 0 0 0.5 0"/>
<feBlend mode="normal" in2="BackgroundImageFix" result="effect1_dropShadow_337_37"/>
<feBlend mode="normal" in="SourceGraphic" in2="effect1_dropShadow_337_37" result="shape"/>
</filter>
</defs>
</svg>
