<svg width="1200" height="750" viewBox="0 0 1200 750" fill="none" xmlns="http://www.w3.org/2000/svg">
<rect width="1200" height="740" fill="#5F1114"/>
<path d="M-1 326L0 677.5H1200V385C1194.5 389.833 1179.2 404 1162 422C1144.8 440 1141.83 461.5 1142.5 470L1118 476C1106.33 468.833 1073.1 460 1033.5 482C993.9 504 971.333 497.167 965 491C961.333 488 956.2 477.5 965 459.5C973.8 441.5 970 426 967 420.5C966.167 429.167 961.5 446.4 949.5 446C937.5 445.6 934.5 431.5 934.5 424.5C934.5 421.333 932.7 409.8 925.5 389C918.3 368.2 927.5 349.333 933 342.5C919 349.167 892 367.8 896 389C900 410.2 896.667 424.833 894.5 429.5C891.5 436.5 880.8 449 862 443C843.2 437 840.5 413.167 841.5 402C842.167 396.167 843.1 372.6 841.5 325C839.9 277.4 801.5 250.833 782.5 243.5C789.5 256.5 795.5 290.5 792.5 321C790.1 345.4 773.833 354.833 766 356.5C761 357.667 748.5 358.4 738.5 352C728.5 345.6 737.333 323 743 312.5C699.8 336.1 698.667 366.333 703.5 378.5C706.667 386.167 711.1 407.9 703.5 433.5C695.9 459.1 675.333 468.5 666 470C654.333 472.5 628 471.9 616 449.5C604 427.1 611 408.167 616 401.5C620 395.833 628.6 378.2 631 353C633.4 327.8 607.667 310.833 594.5 305.5C600 323.5 601.5 351.5 571.5 368.5C547.5 382.1 539.833 411.5 539 424.5C527.4 407.7 531.167 376.167 534.5 362.5C495.5 395 506 441.5 511 477.5C515 506.3 501.667 527.167 494.5 534C425.5 530.833 294.4 515.8 322 481C349.6 446.2 347.5 421 348 412C348 403.333 350.2 379.1 335 355.5C319.8 331.9 333.333 300 342 287C308.5 288.5 293 328 298 367C302 398.2 288.333 413 281 416.5C271.5 423.667 249 434.3 235 419.5C221 404.7 244.167 370.667 257.5 355.5C209.5 371.9 199.5 410.333 200.5 427.5C201.333 439.333 198.1 466.7 178.5 481.5C154 500 118.5 473.5 112.5 465.5C106.5 457.5 101 422.5 142.5 361C175.7 311.8 164.667 270.167 155 255.5C155.5 301.5 137 319.5 129.5 325.5C122 331.5 104.5 340 90.5 319.5C76.5 299 89 269.5 99 249C109 228.5 115.5 204 109.5 170.5C104.7 143.7 65.1667 124.333 46 118C75.6 170 57 197 44 204C29.3333 210.833 8.4 231.9 12 265.5C15.6 299.1 2 317.167 -1 326Z" fill="#F44913"/>
<path d="M624.5 245.5C640.9 263.1 638 277.167 634.5 282C644.167 274.167 660.7 254.3 649.5 237.5C638.3 220.7 641.333 214.333 644 210C630.833 216.667 608.1 227.9 624.5 245.5Z" fill="#F44913"/>
<path d="M0 335V677H1200V414C1188 422.8 1188.67 436.333 1190.5 442C1191.83 446.833 1193 459.2 1187 470C1179.5 483.5 1163 479 1150.5 472C1138 465 1140 448 1146.5 418.5C1151.7 394.9 1139.67 374.333 1133 367C1128.5 362.167 1116.5 348.1 1104.5 330.5C1092.5 312.9 1109.5 287.167 1119.5 276.5C1105.33 281.5 1073.6 295.3 1060 310.5C1043 329.5 1047.5 352.5 1062.5 388.5C1074.5 417.3 1067.5 436.167 1062.5 442C1057.5 449.667 1042.5 460.4 1022.5 442C1002.5 423.6 1002.83 395 1005.5 383C979.9 417.8 999.5 460.5 1012.5 477.5C1018 482.667 1029.2 501 1030 533C1030.8 565 1010.67 575.667 1000.5 577C994.167 577.5 979 577.1 969 571.5C959 565.9 952.5 537.833 950.5 524.5C949.5 518 945 500.6 935 483C925 465.4 909.167 459.333 902.5 458.5C915.5 470 923 486 922 502.5C921 519 903 522.5 880.5 512.5C862.5 504.5 862.333 485.833 864.5 477.5C866 471.667 868.1 453.5 864.5 427.5C860.9 401.5 839.667 393.667 829.5 393C846.5 435 837.5 438 822.5 458.5C810.5 474.9 807.833 490.667 808 496.5L787.5 573L771.5 582C771.5 567.167 767 534 749 520C731 506 726.167 494.167 726 490C719.167 499.5 707.5 523.8 715.5 545C723.5 566.2 719.5 576.167 716.5 578.5L720.5 606.5L667 603.5L656.5 578.5C654.5 566 659 516.5 665 490C669.8 468.8 652.667 445.5 643.5 436.5C649.5 467.3 640 481.333 634.5 484.5C634.5 476 629.5 449.5 602.5 432C580.9 418 585.5 394.5 590.5 384.5C540.5 395.5 555 435.5 564 466C573 496.5 550.5 511.5 537 516.5C523.5 521.5 503 514.5 488 494C473 473.5 481 451.5 485.5 421.5C489.1 397.5 465 381.5 452.5 376.5C466.5 397.7 453 408.667 444.5 411.5C437.167 413.5 420 410.8 410 384C400 357.2 413.5 325.833 421.5 313.5C410.667 319.167 385.6 334.4 372 350C355 369.5 357 411 358 419.5C359 428 355 450.5 347 460.5C339 470.5 326.5 475 311.5 469.5C299.5 465.1 300.167 453.333 302 448C304.333 441 307.3 422.7 300.5 405.5C293.7 388.3 277.667 383.333 270.5 383C289 404 283.5 418 274.5 425C267.3 430.6 265.167 444.333 265 450.5C264.667 456.667 260.9 468.4 248.5 466C236.1 463.6 233.667 450.667 234 444.5C226 449.5 226 468.5 233.5 476C239.5 482 239.333 492.167 238.5 496.5C236.833 503.167 223.1 512.2 181.5 495C139.9 477.8 130.167 431.833 130.5 411C109 419.5 105.5 458.5 108.5 476C111.5 493.5 99.5 499 86 498C72.5 497 69.5 484.5 68 457C66.5 429.5 51.5 418.5 21.5 391C-2.5 369 4.16667 336.833 10.5 323.5C4.1 324.7 0.833333 331.667 0 335Z" fill="#FE9017"/>
<path d="M519.443 429.485C519.987 428.397 523.748 413.172 525.56 405.695C571.78 405.129 664.287 405.22 664.559 410.113C664.899 416.231 668.638 425.747 669.317 428.465C669.861 430.64 671.13 432.317 671.696 432.883C680.532 440.02 686.65 452.935 687.329 454.974C687.873 456.605 688.689 457.693 689.029 458.032C695.282 463.47 703.189 474.572 706.361 479.443C719.955 474.821 735.815 459.845 742.045 452.935C745.104 450.442 752.717 446.002 758.698 448.177C766.175 450.896 776.37 465.849 778.749 469.927C780.652 473.19 782.714 475.365 783.507 476.045C784.753 477.064 788.129 480.938 791.664 488.279C795.198 495.62 794.043 501.987 793.023 504.252C791.55 507.877 787.789 516.147 784.527 520.225C780.449 525.323 770.253 517.167 767.534 513.088C765.359 509.826 766.628 507.424 767.534 506.631C771.612 503.369 773.991 496.889 774.671 494.057C773.991 496.436 768.214 503.573 766.175 505.951C764.543 507.855 763.003 507.651 762.436 507.311C759.151 505.498 752.309 500.922 751.221 497.115C750.134 493.309 752.128 491.225 753.26 490.658C754.167 490.205 756.115 488.959 756.659 487.6C757.339 485.9 758.018 483.521 758.698 481.482C759.378 479.443 759.038 478.424 757.339 477.404C755.979 476.588 754.733 477.291 754.28 477.744C747.143 484.654 732.258 499.562 729.811 503.912C726.752 509.35 716.557 516.147 711.459 518.866C706.361 521.585 701.603 521.585 697.525 521.245C693.447 520.905 682.232 510.37 680.532 508.67C678.833 506.971 679.513 506.631 678.493 505.272C677.628 504.118 663.54 493.037 662.52 492.018C661.501 490.998 659.801 490.998 658.782 491.678C657.966 492.221 648.926 496.889 644.508 499.154C613.808 500.061 552.069 501.873 550.709 501.873C549.01 501.873 535.416 495.756 532.017 493.037C529.299 490.862 527.486 491.225 526.92 491.678C521.255 496.096 509.655 505.476 508.568 507.651C507.48 509.826 501.997 514.901 499.392 517.167C497.239 518.979 491.643 522.4 486.477 521.585C481.312 520.769 472.77 516.487 469.145 514.448C466.766 513.088 460.921 508.466 456.57 500.854C452.22 493.241 439.578 482.049 433.8 477.404C433.347 477.177 432.169 476.86 431.082 477.404C429.994 477.948 429.722 478.99 429.722 479.443C429.949 482.275 431.218 488.415 434.48 490.318C437.743 492.221 437.426 495.643 436.859 497.115C435.047 498.361 430.47 501.805 426.664 505.612C422.857 509.418 416.468 499.947 413.749 494.736C414.565 499.902 417.941 504.366 419.527 505.951C423.061 509.486 421.906 512.182 420.886 513.088C417.941 515.807 411.098 521.381 407.292 521.924C402.534 522.604 398.116 510.709 396.077 505.612C394.038 500.514 395.397 493.037 396.077 489.978C396.757 486.92 400.495 480.463 403.214 477.744C405.389 475.569 407.745 472.759 408.651 471.627C412.503 466.189 421.09 454.498 424.624 451.235C428.159 447.973 433.347 447.157 435.5 447.157C437.426 447.044 443.112 448.992 450.453 457.693C457.794 466.393 475.036 475.818 482.739 479.443C485.798 471.966 495.313 461.431 498.032 459.392C500.207 457.761 500.978 456.22 501.091 455.654C502.994 448.313 512.306 437.415 516.724 432.883C517.404 432.204 518.899 430.573 519.443 429.485Z" fill="#C73A33" stroke="#000600" stroke-linecap="round"/>
<path d="M644.168 601.79C606.105 625.715 567.815 611.759 553.428 601.79C557.778 554.21 547.31 456.9 541.533 414.192L531.677 341.124C529.865 329.682 526.512 303.604 527.599 290.826C528.687 278.047 537.115 271.228 541.193 269.415C556.147 261.531 585.94 264.544 598.968 267.036C612.675 264.204 643.08 261.531 655.043 273.493C667.006 285.456 667.504 302.947 666.258 310.197C663.2 334.893 655.519 395.024 649.266 437.981C643.013 480.939 643.262 565.086 644.168 601.79Z" fill="#93281E" stroke="#000600" stroke-linecap="round"/>
<path d="M563.963 545.034C565.594 565.969 562.151 594.313 560.225 605.868C594.21 622.181 626.836 612.665 638.051 605.188C635.332 595.332 632.613 569.504 633.293 545.034C633.837 525.459 642.355 466.416 646.547 439.341L599.308 422.008L551.049 438.321C560.565 499.834 561.924 518.866 563.963 545.034Z" fill="#DFA55C" stroke="#000600" stroke-linecap="round"/>
<path d="M555.467 466.869C567.701 473.892 602.23 483.725 642.469 466.869" stroke="black" stroke-linecap="round"/>
<path d="M558.866 494.397C570.534 500.74 602.843 509.622 638.731 494.397" stroke="black" stroke-linecap="round"/>
<path d="M561.924 521.924C573.593 528.268 604.61 537.15 635.332 521.924" stroke="black" stroke-linecap="round"/>
<path d="M564.303 549.113C574.385 555.456 602.298 564.338 633.293 549.113" stroke="black" stroke-linecap="round"/>
<path d="M563.624 574.601C574.046 581.172 602.706 590.371 633.973 574.601" stroke="black" stroke-linecap="round"/>
<path d="M431.082 532.46C423.469 532.732 411.824 523.511 406.953 518.866C408.584 511.253 413.75 509.803 416.129 510.03C416.355 510.483 418.1 512.953 423.265 519.206C429.723 527.022 428.363 524.643 431.762 528.382C434.481 531.372 432.441 532.347 431.082 532.46Z" fill="#FBD6C3" stroke="#000600" stroke-linecap="round"/>
<path d="M446.035 516.147C438.422 515.875 428.589 507.424 424.625 503.233C425.168 496.436 430.742 494.736 433.461 494.736C434.276 496.911 438.105 501.76 439.918 503.912C440.937 505.159 443.996 508.534 448.074 512.069C452.152 515.603 448.414 516.26 446.035 516.147Z" fill="#FBD6C3" stroke="#000600" stroke-linecap="round"/>
<path d="M758.698 532.46C767.67 531.916 777.39 523.171 781.129 518.866C781.401 511.525 775.351 509.916 772.292 510.03C767.398 517.914 763.003 522.604 761.417 523.964C760.737 524.546 758.766 526.071 756.319 529.061C753.872 532.052 756.886 532.573 758.698 532.46Z" fill="#FBD6C3" stroke="#000600" stroke-linecap="round"/>
<path d="M741.706 516.147C750.678 515.603 759.944 507.311 763.456 503.233C764.544 497.523 758.472 495.19 755.3 494.736C748.774 504.796 744.764 508.33 743.405 509.35C742.725 510.03 741.298 510.981 739.667 513.428C738.035 515.875 740.346 516.26 741.706 516.147Z" fill="#FBD6C3" stroke="#000600" stroke-linecap="round"/>
<path d="M402.874 511.729C404.46 509.35 408.516 504.524 412.05 504.252C409.784 503.573 404.777 504.116 402.874 511.729Z" fill="#69110B"/>
<path d="M429.042 490.658C426.89 491.225 422.177 493.513 420.546 498.135C420.319 495.076 421.702 489.299 429.042 490.658Z" fill="#69110B"/>
<path d="M420.886 471.627C423.492 471.287 428.567 472.102 428.023 478.084C427.91 476.951 426.324 474.073 420.886 471.627Z" fill="#69110B"/>
<path d="M410.691 484.201C411.71 480.463 413.749 472.306 414.429 468.228C412.616 472.533 408.923 481.958 408.652 485.221C408.38 488.483 412.05 493.377 414.089 495.076C410.011 490.454 410.237 485.674 410.691 484.201Z" fill="#69110B"/>
<path d="M776.71 504.252C779.315 503.799 784.662 504.592 785.206 511.389C784.866 509.916 782.691 506.427 776.71 504.252Z" fill="#69110B"/>
<path d="M759.378 490.658C762.437 490.205 768.554 491.134 768.554 498.475C767.534 496.436 764.272 492.018 759.378 490.658Z" fill="#69110B"/>
<path d="M760.057 478.084C759.944 475.478 761.281 470.539 767.534 471.627C765.835 472.08 761.96 474.006 760.057 478.084Z" fill="#69110B"/>
<path d="M779.429 487.26C781.06 484.541 776.257 473.213 773.651 467.888C774.331 471.173 776.03 478.763 777.39 482.842C778.749 486.92 776.144 492.244 774.671 494.397C775.577 493.15 777.798 489.979 779.429 487.26Z" fill="#69110B"/>
<path d="M573.819 483.182C571.372 478.56 561.924 452.255 557.506 439.681L598.968 427.446L639.07 438.661C638.39 442.399 621.738 484.201 620.718 486.24C619.699 488.279 616.98 489.299 615.281 489.639C613.921 489.911 612.222 490.432 611.542 490.658C596.249 496.436 584.694 490.998 583.335 490.318C582.247 489.775 580.389 489.412 579.596 489.299C578.69 489.186 576.266 487.804 573.819 483.182Z" fill="#BD3F31" stroke="#000600" stroke-linecap="round"/>
<path d="M593.19 484.541C573.887 476.385 568.834 448.97 568.721 436.282L599.308 426.087L626.836 436.962C622.078 473.666 614.261 478.763 608.484 483.521C603.862 487.328 596.362 485.787 593.19 484.541Z" fill="#591919" stroke="#000600" stroke-linecap="round"/>
<path d="M636.353 455.314C634.178 451.779 633.634 442.966 633.634 439.001L643.829 439.681C642.742 447.565 641.337 452.708 640.771 454.294C640.204 456.107 638.528 458.848 636.353 455.314Z" fill="#F9D4C1" stroke="#000600" stroke-linecap="round"/>
<path d="M575.858 445.118C578.849 441.312 587.753 439.001 591.831 438.321C592.624 438.208 594.55 438.117 595.909 438.661C597.609 439.341 599.308 438.661 600.327 438.321C601.143 438.049 602.706 437.981 603.386 437.981C611.271 438.525 618.226 443.872 620.718 446.478C620.379 449.083 619.019 454.362 616.3 454.634C613.582 454.906 612.222 456.786 611.882 457.693C610.749 461.318 608.008 469.655 606.105 474.006C603.726 479.443 601.347 479.443 596.249 479.443C591.151 479.443 586.393 472.306 586.054 464.83C585.782 458.848 581.862 455.54 579.936 454.634C577.331 453.048 572.867 448.925 575.858 445.118Z" fill="#D54053" stroke="#000600" stroke-linecap="round"/>
<path d="M558.526 455.993C556.623 453.003 555.014 444.099 554.448 440.02L564.643 438.661C564.371 447.089 563.171 452.595 562.604 454.294C562.038 456.107 560.429 458.984 558.526 455.993Z" fill="#F9D4C1" stroke="#000600" stroke-linecap="round"/>
<path d="M580.956 448.517C579.053 446.342 577.897 439.001 577.558 435.602L586.054 433.223C585.51 440.292 584.694 444.778 584.355 446.138C584.015 447.837 582.859 450.692 580.956 448.517Z" fill="#F9D4C1" stroke="#000600" stroke-linecap="round"/>
<path d="M617.66 448.857C616.3 446.41 615.734 438.095 615.621 434.243L624.117 436.622C623.845 442.875 622.191 447.157 621.398 448.517C620.718 449.65 619.019 451.303 617.66 448.857Z" fill="#F9D4C1" stroke="#000600" stroke-linecap="round"/>
<path d="M584.354 460.411C582.179 463.13 581.182 471.287 580.956 475.025L587.073 479.103C587.753 479.443 589.18 479.715 589.452 478.084C589.724 476.452 588.659 468.341 588.092 464.49C587.753 461.997 586.529 457.693 584.354 460.411Z" fill="#F9D4C1" stroke="#000600" stroke-linecap="round"/>
<path d="M609.504 463.81C609.957 461.318 611.407 457.217 613.582 460.751C615.757 464.286 616.527 471.513 616.641 474.685C615.621 475.705 608.484 482.162 608.144 477.404C607.872 473.598 608.937 466.755 609.504 463.81Z" fill="#F9D4C1" stroke="#000600" stroke-linecap="round"/>
<path d="M706.022 481.822C701.037 481.596 690.117 484.949 686.311 500.174C688.576 495.076 695.69 484.269 706.022 481.822Z" fill="#69110B"/>
<path d="M482.399 481.822C488.63 482.842 501.227 488.211 501.77 501.533C500.638 496.889 495.177 486.444 482.399 481.822Z" fill="#69110B"/>
<path d="M529.638 358.796C532.085 356.893 532.924 352.112 533.037 349.96L535.416 347.241L658.782 344.522L664.22 349.62C664.333 351.659 665.307 356.281 668.298 358.456C672.036 361.175 681.892 372.39 685.97 378.507C690.048 384.625 690.388 391.082 685.29 397.879C680.193 404.676 661.161 413.172 657.762 414.192C655.044 415.007 654.59 417.024 654.704 417.93C657.694 433.971 650.512 439.114 646.547 439.681C631.594 441.72 607.804 431.524 603.726 430.505C600.463 429.689 597.156 430.165 595.909 430.505C553.428 443.419 552.069 440.02 547.651 437.981C543.233 435.942 542.553 424.727 542.893 419.969C543.165 416.163 541.42 414.532 540.514 414.192C538.248 413.512 531.949 411.269 524.881 407.735C516.044 403.317 506.868 395.5 509.587 384.285C512.306 373.07 526.58 361.175 529.638 358.796Z" fill="#C73A33" stroke="#000600" stroke-linecap="round"/>
<path d="M571.44 429.825C580.276 424.274 600.463 414.871 610.523 421.668C606.558 420.309 593.19 420.037 571.44 429.825Z" fill="#5C1606"/>
<path d="M562.944 392.441C554.787 396.248 559.545 407.395 562.944 412.493C559.545 400.258 558.865 398.559 565.323 394.141C570.488 390.606 579.483 395.613 583.335 398.559C581.296 395.84 573.139 387.683 562.944 392.441Z" fill="#66160F"/>
<path d="M550.03 364.913C545.136 359.748 544.819 353.019 545.272 350.3L550.71 348.94L571.101 355.397C575.406 359.816 583.743 368.992 582.656 370.351C581.296 372.05 569.401 373.07 565.323 373.07C562.061 373.07 559.886 372.617 559.206 372.39C558.186 372.05 554.924 370.079 550.03 364.913Z" fill="#EB892E" stroke="#000600" stroke-linecap="round"/>
<path d="M635.672 391.422C628.06 387.615 620.719 395.047 618 399.238C621.059 397.539 625.477 390.062 635.672 393.801C643.829 396.791 641.336 407.735 639.071 412.832C646.208 402.297 645.188 396.18 635.672 391.422Z" fill="#66160F"/>
<path d="M552.748 380.207C550.573 379.391 544.818 372.164 542.213 368.652C544.705 371.257 550.233 376.876 552.408 378.508C554.583 380.139 559.659 379.414 561.924 378.847C594.006 370.963 621.285 376.015 630.914 379.527C632.485 380.1 636.352 381.498 641.789 381.226C647.227 380.954 651.985 375.222 653.684 372.39C651.985 378.508 647.567 381.226 643.489 382.246C640.226 383.062 633.746 381.679 630.914 380.886C608.076 373.818 572.233 377.941 557.166 380.886C556.6 381 554.923 381.022 552.748 380.207Z" fill="#66160F"/>
<path d="M640.09 371.71C650.15 366.273 652.664 355.058 652.664 350.3L640.09 349.96L621.058 361.515L614.261 370.011C615.077 370.827 617.32 371.257 618.339 371.37C622.418 371.937 631.254 373.07 633.973 373.07C636.691 373.07 639.184 372.163 640.09 371.71Z" fill="#EB892E" stroke="#000600" stroke-linecap="round"/>
<path d="M542.213 379.187C535.688 375.109 526.58 379.074 522.841 381.566C532.085 378.032 538.248 378.734 540.174 379.527C536.775 383.265 534.396 388.363 533.377 390.402C532.357 392.441 533.037 395.5 537.455 397.539C540.989 399.17 542.779 400.938 543.232 401.617C545.679 405.226 543.346 412.863 542.553 415.211C542.439 415.778 542.349 416.775 542.893 417.59C543.436 418.406 545.158 416.004 545.271 415.551C548.806 403.045 543.572 398.105 540.514 397.199C538.701 396.746 535.008 395.092 534.736 392.101C534.464 389.111 539.607 382.246 542.213 379.187Z" fill="#66160F"/>
<path d="M655.884 379.245C662.409 375.167 671.517 379.132 675.256 381.624C666.012 378.09 659.849 378.792 657.923 379.585C661.322 383.323 663.701 388.421 664.72 390.46C665.74 392.499 665.06 395.558 660.642 397.597C657.108 399.228 655.318 400.996 654.865 401.675C652.418 405.284 654.59 412.523 655.383 414.871C655.496 415.438 655.247 416.095 654.703 416.911C654.159 417.726 652.939 416.062 652.826 415.609C649.291 403.103 654.525 398.164 657.584 397.257C659.396 396.804 663.089 395.15 663.361 392.16C663.633 389.169 658.49 382.304 655.884 379.245Z" fill="#66160F"/>
<path d="M574.839 415.551C568.313 416.095 566.229 406.262 566.002 401.277C566.002 399.102 567.135 398.559 567.702 398.559C571.78 398.83 574.612 401.617 575.518 402.977C578.011 406.942 581.364 415.007 574.839 415.551Z" fill="#341614" stroke="#000600" stroke-linecap="round"/>
<path d="M621.059 408.414C621.874 404.608 627.516 400.484 630.235 398.898C632.953 397.539 633.86 399.691 633.973 400.937C634.199 402.977 633.837 408.21 630.574 412.832C627.312 417.454 623.777 416.344 622.418 415.211C621.625 414.531 620.243 412.22 621.059 408.414Z" fill="#341614" stroke="#000600" stroke-linecap="round"/>
<path d="M537.455 328.549C537.455 329.637 536.549 330.588 536.096 330.928C527.124 339.9 530.318 347.354 533.037 349.96C533.581 350.232 534.85 350.3 535.416 350.3C550.913 349.484 559.092 352.452 561.245 354.038C566.229 357.776 577.965 366.613 585.034 372.05C592.103 377.488 596.816 374.996 598.288 373.07C602.095 376.876 607.125 375.109 609.164 373.749C616.187 368.425 631.39 356.961 636.012 353.698C641.789 349.62 660.481 350.3 662.18 350.3C663.54 350.3 664.106 349.847 664.22 349.62C669.385 341.192 664.333 333.874 661.161 331.268C660.594 330.815 659.394 329.637 659.122 328.549C658.85 327.462 659.008 325.604 659.122 324.811C662.656 322.908 663.087 319.033 662.86 317.334C661.954 312.803 659.394 302.856 656.403 299.322C653.412 295.788 647.454 298.076 644.848 299.662C633.429 292.049 608.597 298.756 597.609 303.06C567.702 292.457 554.561 296.377 551.729 299.662C544.932 295.856 541.193 298.302 540.174 300.002C538.361 304.533 534.6 314.547 534.057 318.354C533.513 322.16 536.096 324.244 537.455 324.811V328.549Z" fill="#C73A33"/>
<path d="M533.037 349.96C533.037 349.96 533.037 349.96 533.037 349.96ZM533.037 349.96C530.318 347.354 527.124 339.9 536.096 330.928C536.549 330.588 537.455 329.637 537.455 328.549C537.455 327.462 537.455 325.604 537.455 324.811C536.096 324.244 533.513 322.16 534.057 318.354C534.6 314.547 538.361 304.533 540.174 300.002C541.193 298.302 544.932 295.856 551.729 299.662C554.561 296.377 567.702 292.457 597.609 303.06C608.597 298.756 633.429 292.049 644.848 299.662C647.454 298.076 653.412 295.788 656.403 299.322C659.394 302.856 661.954 312.803 662.86 317.334C663.087 319.033 662.656 322.908 659.122 324.811C659.008 325.604 658.85 327.462 659.122 328.549C659.394 329.637 660.594 330.815 661.161 331.268C664.333 333.874 669.385 341.192 664.22 349.62C664.106 349.847 663.54 350.3 662.18 350.3C660.481 350.3 641.789 349.62 636.012 353.698C631.39 356.961 616.187 368.425 609.164 373.749C607.125 375.109 602.095 376.876 598.288 373.07C596.816 374.996 592.103 377.488 585.034 372.05C577.965 366.613 566.229 357.776 561.245 354.038C559.092 352.452 550.913 349.484 535.416 350.3C534.85 350.3 533.581 350.232 533.037 349.96Z" stroke="#000600" stroke-linecap="round"/>
<path d="M562.944 367.292C558.866 364.03 561.245 358.003 562.944 355.398L577.558 366.613C573.14 372.39 568.042 371.371 562.944 367.292Z" fill="#713A37" stroke="#000600" stroke-linecap="round"/>
<path d="M566.342 365.253C563.623 363.35 564.983 359.476 566.002 357.776L574.499 364.234C573.819 365.933 569.741 367.632 566.342 365.253Z" fill="#341711" stroke="#000600" stroke-linecap="round"/>
<path d="M635.331 366.952C639.138 361.515 636.578 356.53 634.652 354.718L620.038 365.593C622.757 370.691 630.573 373.749 635.331 366.952Z" fill="#713A37" stroke="#000600" stroke-linecap="round"/>
<path d="M630.913 365.593C627.651 368.312 624.343 365.14 623.097 363.214L631.253 357.097C632.499 358.796 634.176 362.874 630.913 365.593Z" fill="#341711" stroke="#000600" stroke-linecap="round"/>
<path d="M497.353 273.833C505.509 279.543 533.15 295.47 545.951 302.721C544.32 320.121 538.475 320.846 535.756 319.033C518.763 309.178 504.49 293.884 500.411 289.466C496.333 285.048 487.157 266.696 497.353 273.833Z" fill="#FBD6C3" stroke="#000600" stroke-linecap="round"/>
<path d="M590.472 269.075C589.384 273.697 595.23 274.4 598.289 274.173C606.173 274.717 607.691 271.681 607.465 270.095C607.125 262.618 600.667 241.887 599.648 239.168C598.861 237.069 598.289 238.262 597.949 239.168C596.249 243.587 591.831 263.298 590.472 269.075Z" fill="#FBD6C3" stroke="#000600" stroke-linecap="round"/>
<path d="M587.413 302.041C586.597 306.119 594.323 308.725 598.288 309.518C607.532 307.614 609.39 303.967 609.163 302.381C608.144 291.505 601.007 266.017 599.647 262.278C598.588 259.365 597.495 261.032 596.929 262.278C592.511 271.454 588.432 296.943 587.413 302.041Z" fill="#FBD6C3" stroke="#000600" stroke-linecap="round"/>
<path d="M698.205 273.833C676.183 289.059 656.63 299.435 649.606 302.721C650.694 319.577 657.083 320.393 660.142 318.694C672.376 311.897 694.807 292.865 700.584 280.97C705.206 271.454 700.924 272.247 698.205 273.833Z" fill="#FBD6C3" stroke="#000600" stroke-linecap="round"/>
<path d="M539.154 330.928C540.514 329.116 544.456 326.51 549.35 330.588C547.311 330.248 542.417 329.841 539.154 330.928Z" fill="#66160F"/>
<path d="M547.651 319.033C545.385 322.772 539.834 328.481 535.756 321.412C537.455 322.885 542.213 324.471 547.651 319.033Z" fill="#66160F"/>
<path d="M543.912 299.662C547.197 299.209 553.564 299.73 552.748 305.439C552.522 303.967 550.437 300.749 543.912 299.662Z" fill="#66160F"/>
<path d="M643.148 305.439C643.035 303.287 644.304 299.186 650.285 300.002C648.813 300.228 645.323 301.633 643.148 305.439Z" fill="#66160F"/>
<path d="M648.247 319.033C650.399 321.299 655.792 324.879 660.142 321.073C658.329 324.471 653.413 328.821 648.247 319.033Z" fill="#66160F"/>
<path d="M649.606 330.928C651.759 329.002 656.743 326.578 659.462 332.288C657.989 331.155 653.957 329.297 649.606 330.928Z" fill="#66160F"/>
<path d="M561.245 336.026C567.589 337.499 583.335 343.978 595.57 358.116C589.793 353.132 574.839 341.735 561.245 336.026Z" fill="#66160F"/>
<path d="M597.609 361.515C598.628 362.987 600.192 366.884 598.288 370.691C597.949 368.425 597.337 363.418 597.609 361.515Z" fill="#66160F"/>
<path d="M557.166 329.909C562.49 330.815 576.266 336.026 588.772 349.62C581.182 343.842 564.235 331.812 557.166 329.909Z" fill="#66160F"/>
<path d="M610.183 349.62C615.734 343.729 629.554 331.608 640.429 330.249C634.085 333.307 619.155 341.464 610.183 349.62Z" fill="#66160F"/>
<path d="M603.046 358.116C608.144 352.112 622.078 339.357 637.031 336.366C631.593 338.405 617.184 345.61 603.046 358.116Z" fill="#66160F"/>
<path d="M597.269 347.921L598.289 314.955C598.968 319.713 598.968 329.501 598.968 331.948C598.968 334.395 599.421 333.647 599.648 332.967C600.192 328.889 601.234 325.151 601.687 323.791C601.347 327.869 599.761 341.463 599.308 347.921C599.308 348.374 599.104 349.28 598.289 349.28C597.473 349.28 597.269 348.374 597.269 347.921Z" fill="#66160F"/>
<path d="M561.584 382.925C572.459 379.753 601.211 375.313 629.214 382.925C617.999 381.226 588.772 378.847 561.584 382.925Z" fill="#66160F"/>
<path d="M517.404 443.419C517.335 443.483 517.265 443.549 517.192 443.617C514.838 445.943 508.704 455.69 505.849 460.411C507.709 453.767 514.051 446.582 517.192 443.617C517.267 443.543 517.337 443.477 517.404 443.419Z" fill="#A42627"/>
<path d="M671.356 444.099C674.755 447.157 681.824 454.77 682.911 460.751C680.419 456.56 674.619 447.361 671.356 444.099Z" fill="#A42627"/>
<path d="M0.000185534 574.5L0 750H598.5H1200V498.5C1192 490.9 1196.67 480.667 1200 476.5V470C1175.5 478.5 1159.5 503.5 1170.5 521.5C1179.3 535.9 1178.5 548.167 1177 552.5C1174.83 560.333 1167.4 573.3 1155 562.5C1142.6 551.7 1141.83 532.333 1143 524C1132.2 548 1139.83 571.333 1145 580C1148.67 586 1156.1 600.4 1156.5 610C1157 622 1153 631 1145 634.5C1137 638 1128.5 636 1121 632C1113.5 628 1111.5 620 1110 596.5C1108.8 577.7 1092.5 571 1084.5 570C1094 579.5 1095.5 585.5 1095.5 590C1095.5 594.5 1094 599.5 1089 602.5C1084 605.5 1076 603.5 1068.5 594.5C1061 585.5 1063 580.5 1064 558.5C1064.8 540.9 1052.33 536.167 1046 536C1052 553 1049.5 557 1035.5 578C1024.3 594.8 1030.83 606.333 1035.5 610C1037.83 611.833 1042.3 617.7 1041.5 626.5C1040.5 637.5 1034 641.5 1023.5 641.5C1013 641.5 1010 632.5 1010 626.5C1010 621.7 1008.67 617.167 1008 615.5C1006.5 612.333 1001.6 605 994 601C986.4 597 985.167 590 985.5 587C972.7 597.8 975.833 610.5 979 615.5C981.5 618.833 985 628.7 979 641.5C973 654.3 960.833 650.833 955.5 647.5C950 644.167 941.3 631.4 950.5 607C959.7 582.6 948 564.833 941 559C945.4 574.6 938.833 583.167 935 585.5C934.833 583 933.7 576.6 930.5 571C926.5 564 927 565.5 914.5 552.5C904.5 542.1 907.667 532.833 910.5 529.5C882 537.5 889 555 891.5 561C894 567 895.5 571.5 896 580.5C896.5 589.5 892.5 598.5 879.5 601C866.5 603.5 856 594.5 850.5 585C845 575.5 849 566 852.5 548C855.3 533.6 840 526.333 832 524.5C834 528.5 835 529 836.5 534.5C837.7 538.9 834.667 541.667 833 542.5C830.333 544 822.4 544.3 812 533.5C801.6 522.7 810 499.667 815.5 489.5C783.9 493.9 778.333 518.333 779.5 530C780 535 780.4 548.2 778 561C775 577 767 578 758 577C749 576 749.5 567.5 749.5 549.5C749.5 535.1 738.833 529.167 733.5 528C736 533.667 739.5 546 733.5 550C727.5 554 727.667 562 728.5 565.5C728.833 568.5 727.8 574.6 721 575C714.2 575.4 711.167 567.167 710.5 563C708 565 708 575 710.5 579C713 583 713 589.5 713 590L713 590.023C713.007 590.813 713.125 603.842 681.5 590.5C655.9 579.7 651.5 554.667 652.5 543.5C639.7 547.5 639.167 566.833 640.5 576C641.167 581.667 640 592.9 630 592.5C620 592.1 618.833 579 619.5 572.5C620.167 567.333 616.9 553.3 598.5 538.5C580.1 523.7 580.833 504.667 583.5 497C563.5 502.2 559.5 517.5 560 524.5C560 531 562.3 547.2 571.5 560C580.7 572.8 573 584 568 588C563.333 592.167 552.3 598.3 545.5 589.5C538.7 580.7 536.667 567.5 536.5 562C530 574 530 589.5 534 602.5C538 615.5 532 622.5 521 624.5C512.2 626.1 507.667 606.5 506.5 596.5C505.334 590.167 501.2 575.7 494 568.5C486.8 561.3 487.334 547.167 488.5 541C479 544 475.5 555.5 478 563.5C480 569.9 476.167 575.5 474 577.5C470.5 580.5 461.7 584.7 454.5 577.5C445.5 568.5 450 558.5 452 546C454 533.5 452 520 434 505C419.6 493 429 477 435.5 470.5C410.3 470.9 401.667 487 400.5 495C399.334 503.167 398.9 523 406.5 537C414.1 551 404.334 561.5 398.5 565C396.667 566.5 391 567.6 383 560C375 552.4 373 538.167 373 532C370.834 534.833 366.4 542.9 366 552.5C365.5 564.5 377 583 385 595.5C393 608 387.5 621.5 384 629C380.5 636.5 372 637 358.5 636.5C347.7 636.1 343 618.333 342 609.5C341.167 603.833 338.2 590.4 333 582C327.8 573.6 319.834 571.5 316.5 571.5C318.834 575.333 324.2 584.7 327 591.5C329.8 598.3 325.834 602 323.5 603C320.5 604.167 312.1 604.7 302.5 597.5C292.9 590.3 293.5 571.167 295 562.5C296.6 540.1 282.667 533.833 275.5 533.5C283.9 546.3 280 559.5 277 564.5C273.667 569.833 266.6 582.2 265 589C263 597.5 265 608 269 613.5C272.2 617.9 272.667 625 272.5 628C272.667 631.833 269.4 640.1 255 642.5C240.6 644.9 241 635.833 243 631C244.667 625.833 244.5 613.3 230.5 604.5C216.5 595.7 215.334 587.833 216.5 585C212.834 588.833 206.7 601 211.5 619C216.3 637 210.834 644.5 207.5 646C203.667 648.167 193.1 650.7 181.5 643.5C169.9 636.3 175.334 615.833 179.5 606.5C182.667 598.667 187.6 581.6 182 576C176.4 570.4 174.334 561.667 174 558C172.334 558.667 169.4 562.3 171 571.5C172.6 580.7 168.334 584.667 166 585.5C166.4 577.9 164.167 573 163 571.5C161.167 568.833 155.1 561.6 145.5 554C135.9 546.4 137.834 534.167 140 529C137 530.833 129.5 536 123.5 542C117.5 548 121.334 560.167 124 565.5C125.667 569 128.6 578.3 127 587.5C125.4 596.7 116.667 600.333 112.5 601C108.5 601.667 97.8002 601 87.0002 593C76.2002 585 77.8335 573.667 80.0002 569C82.3335 563.833 85.8002 550.7 81.0002 539.5C76.2002 528.3 68.3335 523.833 65.0002 523C66.0002 529.5 66.1002 542.7 58.5002 543.5C49.0002 544.5 47.0002 539 39.5002 528C33.5002 519.2 40.3335 499 44.5002 490C8.00019 502.5 9.00019 525 10.5002 545C11.7002 561 4.00019 571.333 0.000185534 574.5Z" fill="#FFD217"/>
<path d="M116.5 500C120.9 493.6 120.333 488.667 119.5 487C128 490.5 134.5 504 126 509.5C119.2 513.9 118.833 519.333 119.5 521.5C116 518.5 111 508 116.5 500Z" fill="#FFD217"/>
<path d="M313.5 522C309.1 515.2 315.334 509.167 319 507C316.5 518 319 517.5 327 523.5C333.4 528.3 325.333 534.5 320.5 537C321.5 528 319 530.5 313.5 522Z" fill="#FFD217"/>
<path d="M220 302.5C210 288.9 222.167 280.167 229.5 277.5C226 290 228 287.5 244.5 304.5C257.7 318.1 240 327.833 229.5 331C237 322 232.5 319.5 220 302.5Z" fill="#FE9017"/>
<path d="M175.5 156.5C197.9 151.7 201.833 134.5 201 126.5C224.2 153.3 207 165 195.5 167.5C173.5 172.3 172 192.833 174 202.5C162.5 188 147.5 162.5 175.5 156.5Z" fill="#F44913"/>
<path d="M450.145 263C462.545 251 459.311 240 456.145 236C469.645 236 486.645 264.5 472.145 275.5C460.545 284.3 458.311 297.167 458.645 302.5C450.645 294.333 437.745 275 450.145 263Z" fill="#FE9017"/>
<path d="M870.5 261.5C859.3 248.7 871.833 240.167 879.5 237.5C875.5 239.5 871.3 247.4 886.5 263C901.7 278.6 882.167 285.833 870.5 287.5C875.166 284.167 881.7 274.3 870.5 261.5Z" fill="#FE9017"/>
<path d="M998 322.5C1016.4 314.5 1015.33 299.833 1012.5 293.5C1022.17 301.833 1036.9 320.9 1018.5 330.5C1000.1 340.1 1002.83 353.833 1006.5 359.5C997.5 358 975 332.5 998 322.5Z" fill="#F44913"/>
<path d="M708.5 464C708.36 464.076 708.216 464.158 708.069 464.245C706.154 465.56 705.304 469.541 715 477C725.4 485 714.667 491.333 708 493.5C714 483.5 708.5 486 703 478C698.768 471.844 704.373 466.429 708.069 464.245C708.208 464.149 708.353 464.068 708.5 464Z" fill="#FFD217"/>
<path d="M885 500.5C891.8 495.3 889.833 488.333 888 485.5C899.5 492 903 505 895.5 509C889.5 512.2 888 519 888 522C884.167 517 878.2 505.7 885 500.5Z" fill="#FFD217"/>
</svg>
