<svg width="395" height="491" viewBox="0 0 395 491" fill="none" xmlns="http://www.w3.org/2000/svg">
<rect width="394.099" height="490.871" rx="20" fill="#202020" fill-opacity="0.5"/>
<path d="M52 51.96C52 53.64 53.04 57.72 55.12 64.2L56.4 68.2L56.68 68.12C56.7067 67.56 58.36 62.0667 61.64 51.64C61.64 51.3733 61.4933 51.12 61.2 50.88C60.9067 50.6133 60.6 50.44 60.28 50.36L60.4 49.8C61.7333 49.9067 63.56 49.96 65.88 49.96C68.2 49.96 70.0533 49.8533 71.44 49.64L71.64 50.64C70.36 51.04 69.0667 51.32 67.76 51.48C67.6267 52.12 67.56 53.2667 67.56 54.92C67.56 56.5467 67.7733 59.8267 68.2 64.76C68.6533 69.6933 69.0667 72.9733 69.44 74.6C70.8533 74.7333 72.32 74.9867 73.84 75.36L73.72 76.32C71.7467 76.1067 69.6133 76 67.32 76C65.0267 76 63.1733 76.1067 61.76 76.32L61.6 75.32C62.8 74.9467 64.08 74.6667 65.44 74.48C65.44 71.9467 65.2933 68.4533 65 64C64.7067 59.5467 64.3333 55.7333 63.88 52.56L63.76 52.52C59.9467 63.08 57.9467 69.5067 57.76 71.8C56.0267 72.84 54.7333 73.8533 53.88 74.84L53.4 74.52C53.4533 73.9333 53.48 73.4933 53.48 73.2C53.48 70.08 51.7333 63.1867 48.24 52.52L48.08 52.56L46.84 61.32C46.3067 65.1333 46.04 68.5733 46.04 71.64C46.04 72.6267 46.1467 73.44 46.36 74.08C46.6 74.72 47.0667 75.2267 47.76 75.6L47.6 76.16C46.7733 76.0533 45.36 76 43.36 76C41.3867 76 39.6133 76.1067 38.04 76.32L37.88 75.32C39.08 74.9467 40.36 74.6667 41.72 74.48L46.2 52.16C43.0533 52.16 41.04 52.5867 40.16 53.44C39.9733 53.8133 39.88 54.4 39.88 55.2C39.88 56 40.0133 56.5467 40.28 56.84L40.24 57.12C39.5733 57.52 38.9067 58.08 38.24 58.8C37.92 58.7733 37.6667 58.64 37.48 58.4C37.2667 58.16 37.16 57.88 37.16 57.56C37.16 56.2533 37.9467 54.6933 39.52 52.88C41.0933 51.0667 42.56 49.92 43.92 49.44C44.1333 49.44 45.0933 49.5333 46.8 49.72C48.5067 49.88 49.8267 49.96 50.76 49.96C51.72 49.96 52.6267 49.88 53.48 49.72L53.64 50.72C52.5467 51.1467 52 51.56 52 51.96ZM77.8903 54.72C80.397 55.0133 82.9303 55.16 85.4903 55.16C88.0503 55.16 90.5703 55.0133 93.0503 54.72L93.2103 55.76C92.4103 56.08 91.5836 56.32 90.7303 56.48C90.437 58.6667 90.2903 61.7067 90.2903 65.6C90.2903 69.4933 90.437 72.5333 90.7303 74.72C91.2636 74.8 92.2503 75 93.6903 75.32L93.5303 76.32C92.2503 76.1067 90.6103 76 88.6103 76C86.6103 76 85.077 76.1067 84.0103 76.32L83.8503 75.28C84.757 74.9867 85.7836 74.7733 86.9303 74.64C87.0903 73.0933 87.2103 70.9467 87.2903 68.2C86.037 68.0667 84.7836 68 83.5303 68C82.277 68 81.1836 68.0667 80.2503 68.2C79.717 70.3867 79.4503 71.9067 79.4503 72.76C79.4503 74.0667 79.917 74.9867 80.8503 75.52L80.6903 76.2C80.077 76.0667 78.917 76 77.2103 76C75.5036 76 74.157 76.1067 73.1703 76.32L73.0103 75.28C73.6503 75.04 74.5303 74.8267 75.6503 74.64L80.8503 56.4C79.677 56.2133 78.6503 56 77.7703 55.76L77.8903 54.72ZM80.5703 66.32C81.6103 66.48 82.757 66.56 84.0103 66.56C85.2903 66.56 86.3836 66.48 87.2903 66.32C87.2903 61.3867 87.1836 58.2 86.9703 56.76C86.0636 56.7067 85.3836 56.68 84.9303 56.68C84.5036 56.68 83.837 56.7067 82.9303 56.76L80.5703 66.32ZM105.737 73.68C106.883 73.68 108.017 73.3467 109.137 72.68L108.937 68.4C108.19 68.16 107.283 67.9467 106.217 67.76L106.337 66.92C106.977 66.9733 107.443 67 107.737 67C109.577 67 111.243 66.5067 112.737 65.52L113.137 66.24C112.817 66.5333 112.523 66.84 112.257 67.16C111.883 70.7867 111.643 73.7733 111.537 76.12H110.697C110.483 75.1333 110.163 74.32 109.737 73.68C108.19 75.04 106.63 75.9733 105.057 76.48C102.47 76.48 100.443 75.6667 98.9766 74.04C97.5099 72.3867 96.7766 70.1733 96.7766 67.4C96.7766 64.6 97.6432 61.9733 99.3766 59.52C101.11 57.0667 103.323 55.4533 106.017 54.68C107.963 54.68 110.163 54.88 112.617 55.28L112.577 56.16C112.07 56.16 111.59 56.2533 111.137 56.44C110.63 57.64 110.297 59.0667 110.137 60.72H109.137C108.923 59.8133 108.817 58.88 108.817 57.92C107.803 57.4133 106.603 57.16 105.217 57.16C103.83 57.16 102.683 57.5333 101.777 58.28C100.71 60.2267 100.177 62.5333 100.177 65.2C100.177 67.84 100.563 69.92 101.337 71.44C102.137 72.9333 103.603 73.68 105.737 73.68ZM122.664 56.48C122.451 57.92 122.344 60.8667 122.344 65.32C122.344 69.7733 122.464 72.8933 122.704 74.68C123.904 74.8133 125.011 75.0133 126.024 75.28L125.904 76.28C124.517 76.0933 122.957 76 121.224 76C119.517 76 117.984 76.1067 116.624 76.32L116.464 75.28C117.211 75.04 118.051 74.84 118.984 74.68C119.224 72.76 119.344 70.04 119.344 66.52V64.64C119.344 61.12 119.211 58.4 118.944 56.48C118.011 56.32 117.171 56.12 116.424 55.88L116.584 54.84C117.944 55.0533 119.477 55.16 121.184 55.16C122.917 55.16 124.477 55.0667 125.864 54.88L125.984 55.88C124.971 56.1467 123.864 56.3467 122.664 56.48ZM137.768 73.68C139.608 73.68 141.341 72.8667 142.968 71.24L143.528 71.8C141.741 74.0667 139.594 75.6267 137.088 76.48C134.501 76.48 132.474 75.6667 131.008 74.04C129.541 72.3867 128.808 70.1733 128.808 67.4C128.808 64.6 129.674 61.9733 131.408 59.52C133.141 57.0667 135.354 55.4533 138.048 54.68C139.994 54.68 142.194 54.88 144.648 55.28L144.608 56.16C144.101 56.16 143.621 56.2533 143.168 56.44C142.661 57.64 142.328 59.0667 142.168 60.72H141.168C140.954 59.8133 140.848 58.88 140.848 57.92C139.834 57.4133 138.634 57.16 137.248 57.16C135.861 57.16 134.714 57.5333 133.808 58.28C132.768 60.1733 132.248 62.4667 132.248 65.16C132.248 69.3467 133.141 71.9733 134.928 73.04C135.701 73.4667 136.648 73.68 137.768 73.68ZM171.727 51.96C171.727 53.64 172.767 57.72 174.847 64.2L176.127 68.2L176.407 68.12C176.433 67.56 178.087 62.0667 181.367 51.64C181.367 51.3733 181.22 51.12 180.927 50.88C180.633 50.6133 180.327 50.44 180.007 50.36L180.127 49.8C181.46 49.9067 183.287 49.96 185.607 49.96C187.927 49.96 189.78 49.8533 191.167 49.64L191.367 50.64C190.087 51.04 188.793 51.32 187.487 51.48C187.353 52.12 187.287 53.2667 187.287 54.92C187.287 56.5467 187.5 59.8267 187.927 64.76C188.38 69.6933 188.793 72.9733 189.167 74.6C190.58 74.7333 192.047 74.9867 193.567 75.36L193.447 76.32C191.473 76.1067 189.34 76 187.047 76C184.753 76 182.9 76.1067 181.487 76.32L181.327 75.32C182.527 74.9467 183.807 74.6667 185.167 74.48C185.167 71.9467 185.02 68.4533 184.727 64C184.433 59.5467 184.06 55.7333 183.607 52.56L183.487 52.52C179.673 63.08 177.673 69.5067 177.487 71.8C175.753 72.84 174.46 73.8533 173.607 74.84L173.127 74.52C173.18 73.9333 173.207 73.4933 173.207 73.2C173.207 70.08 171.46 63.1867 167.967 52.52L167.807 52.56L166.567 61.32C166.033 65.1333 165.767 68.5733 165.767 71.64C165.767 72.6267 165.873 73.44 166.087 74.08C166.327 74.72 166.793 75.2267 167.487 75.6L167.327 76.16C166.5 76.0533 165.087 76 163.087 76C161.113 76 159.34 76.1067 157.767 76.32L157.607 75.32C158.807 74.9467 160.087 74.6667 161.447 74.48L165.927 52.16C162.78 52.16 160.767 52.5867 159.887 53.44C159.7 53.8133 159.607 54.4 159.607 55.2C159.607 56 159.74 56.5467 160.007 56.84L159.967 57.12C159.3 57.52 158.633 58.08 157.967 58.8C157.647 58.7733 157.393 58.64 157.207 58.4C156.993 58.16 156.887 57.88 156.887 57.56C156.887 56.2533 157.673 54.6933 159.247 52.88C160.82 51.0667 162.287 49.92 163.647 49.44C163.86 49.44 164.82 49.5333 166.527 49.72C168.233 49.88 169.553 49.96 170.487 49.96C171.447 49.96 172.353 49.88 173.207 49.72L173.367 50.72C172.273 51.1467 171.727 51.56 171.727 51.96ZM201.297 56.48C201.084 57.92 200.977 60.8667 200.977 65.32C200.977 69.7733 201.097 72.8933 201.337 74.68C202.537 74.8133 203.644 75.0133 204.657 75.28L204.537 76.28C203.15 76.0933 201.59 76 199.857 76C198.15 76 196.617 76.1067 195.257 76.32L195.097 75.28C195.844 75.04 196.684 74.84 197.617 74.68C197.857 72.76 197.977 70.04 197.977 66.52V64.64C197.977 61.12 197.844 58.4 197.577 56.48C196.644 56.32 195.804 56.12 195.057 55.88L195.217 54.84C196.577 55.0533 198.11 55.16 199.817 55.16C201.55 55.16 203.11 55.0667 204.497 54.88L204.617 55.88C203.604 56.1467 202.497 56.3467 201.297 56.48ZM207.361 55.24L216.561 54.96C218.961 54.96 220.761 55.32 221.961 56.04C223.161 56.7333 223.761 58.0133 223.761 59.88C223.761 61.16 223.361 62.2933 222.561 63.28C221.787 64.2667 220.761 65 219.481 65.48L223.961 74.64C224.867 74.8 225.721 74.9867 226.521 75.2L226.361 76.28C225.241 76.0933 223.974 76 222.561 76C221.174 76 220.081 76.0667 219.281 76.2L219.121 75.56C219.467 75.2133 219.641 74.64 219.641 73.84C219.641 72.2133 218.707 69.6 216.841 66C216.281 65.8933 215.627 65.84 214.881 65.84L214.961 64.68H215.361C218.507 64.68 220.081 63.24 220.081 60.36C220.081 57.6933 218.734 56.36 216.041 56.36C215.134 56.36 214.321 56.5067 213.601 56.8C213.414 58.56 213.321 61.5733 213.321 65.84C213.321 70.1067 213.441 73.0533 213.681 74.68C214.854 74.8133 215.947 75.0133 216.961 75.28L216.841 76.28C215.454 76.0933 213.894 76 212.161 76C210.454 76 208.921 76.1067 207.561 76.32L207.401 75.28C208.147 75.04 208.987 74.84 209.921 74.68C210.187 72.68 210.321 69.5733 210.321 65.36C210.321 61.12 210.201 58.1867 209.961 56.56C208.921 56.2133 208.054 56.04 207.361 56.04V55.24ZM228.415 55.24L237.615 54.96C240.015 54.96 241.815 55.32 243.015 56.04C244.215 56.7333 244.815 58.0133 244.815 59.88C244.815 61.16 244.415 62.2933 243.615 63.28C242.842 64.2667 241.815 65 240.535 65.48L245.015 74.64C245.922 74.8 246.775 74.9867 247.575 75.2L247.415 76.28C246.295 76.0933 245.029 76 243.615 76C242.229 76 241.135 76.0667 240.335 76.2L240.175 75.56C240.522 75.2133 240.695 74.64 240.695 73.84C240.695 72.2133 239.762 69.6 237.895 66C237.335 65.8933 236.682 65.84 235.935 65.84L236.015 64.68H236.415C239.562 64.68 241.135 63.24 241.135 60.36C241.135 57.6933 239.789 56.36 237.095 56.36C236.189 56.36 235.375 56.5067 234.655 56.8C234.469 58.56 234.375 61.5733 234.375 65.84C234.375 70.1067 234.495 73.0533 234.735 74.68C235.909 74.8133 237.002 75.0133 238.015 75.28L237.895 76.28C236.509 76.0933 234.949 76 233.215 76C231.509 76 229.975 76.1067 228.615 76.32L228.455 75.28C229.202 75.04 230.042 74.84 230.975 74.68C231.242 72.68 231.375 69.5733 231.375 65.36C231.375 61.12 231.255 58.1867 231.015 56.56C229.975 56.2133 229.109 56.04 228.415 56.04V55.24ZM258.27 76.48C255.63 76.48 253.497 75.6533 251.87 74C250.243 72.32 249.43 70.08 249.43 67.28C249.43 64.48 250.283 61.8533 251.99 59.4C253.697 56.9467 255.923 55.3733 258.67 54.68C261.417 54.68 263.51 55.4667 264.95 57.04C266.39 58.5867 267.11 60.8 267.11 63.68C267.11 66.56 266.323 69.16 264.75 71.48C263.203 73.8 261.043 75.4667 258.27 76.48ZM257.59 57.12C256.39 57.12 255.35 57.4533 254.47 58.12C253.377 59.9867 252.83 62.3333 252.83 65.16C252.83 68.4133 253.737 70.9067 255.55 72.64C256.51 73.5733 257.643 74.04 258.95 74.04C260.257 74.04 261.31 73.6933 262.11 73C263.177 71.1333 263.71 68.8533 263.71 66.16C263.71 63.4667 263.23 61.2933 262.27 59.64C261.31 57.96 259.75 57.12 257.59 57.12ZM270.525 55.24L279.725 54.96C282.125 54.96 283.925 55.32 285.125 56.04C286.325 56.7333 286.925 58.0133 286.925 59.88C286.925 61.16 286.525 62.2933 285.725 63.28C284.951 64.2667 283.925 65 282.645 65.48L287.125 74.64C288.031 74.8 288.885 74.9867 289.685 75.2L289.525 76.28C288.405 76.0933 287.138 76 285.725 76C284.338 76 283.245 76.0667 282.445 76.2L282.285 75.56C282.631 75.2133 282.805 74.64 282.805 73.84C282.805 72.2133 281.871 69.6 280.005 66C279.445 65.8933 278.791 65.84 278.045 65.84L278.125 64.68H278.525C281.671 64.68 283.245 63.24 283.245 60.36C283.245 57.6933 281.898 56.36 279.205 56.36C278.298 56.36 277.485 56.5067 276.765 56.8C276.578 58.56 276.485 61.5733 276.485 65.84C276.485 70.1067 276.605 73.0533 276.845 74.68C278.018 74.8133 279.111 75.0133 280.125 75.28L280.005 76.28C278.618 76.0933 277.058 76 275.325 76C273.618 76 272.085 76.1067 270.725 76.32L270.565 75.28C271.311 75.04 272.151 74.84 273.085 74.68C273.351 72.68 273.485 69.5733 273.485 65.36C273.485 61.12 273.365 58.1867 273.125 56.56C272.085 56.2133 271.218 56.04 270.525 56.04V55.24Z" fill="#FAF9F6"/>
<path d="M41.6215 385V368.2H48.1975C49.3975 368.2 50.4775 368.4 51.4375 368.8C52.4135 369.2 53.2455 369.776 53.9335 370.528C54.6215 371.28 55.1495 372.168 55.5175 373.192C55.8855 374.216 56.0695 375.352 56.0695 376.6C56.0695 377.848 55.8855 378.992 55.5175 380.032C55.1495 381.056 54.6215 381.944 53.9335 382.696C53.2615 383.432 52.4375 384 51.4615 384.4C50.4855 384.8 49.3975 385 48.1975 385H41.6215ZM44.2135 382.768L44.1415 382.504H48.0775C48.9255 382.504 49.6775 382.368 50.3335 382.096C51.0055 381.824 51.5655 381.44 52.0135 380.944C52.4775 380.432 52.8295 379.808 53.0695 379.072C53.3095 378.336 53.4295 377.512 53.4295 376.6C53.4295 375.688 53.3095 374.872 53.0695 374.152C52.8295 373.416 52.4775 372.792 52.0135 372.28C51.5495 371.768 50.9895 371.376 50.3335 371.104C49.6775 370.832 48.9255 370.696 48.0775 370.696H44.0695L44.2135 370.48V382.768ZM64.6147 385.24C63.3827 385.24 62.2787 384.96 61.3027 384.4C60.3427 383.824 59.5827 383.048 59.0227 382.072C58.4627 381.08 58.1827 379.952 58.1827 378.688C58.1827 377.424 58.4627 376.304 59.0227 375.328C59.5827 374.336 60.3427 373.56 61.3027 373C62.2787 372.424 63.3827 372.136 64.6147 372.136C65.8307 372.136 66.9187 372.424 67.8787 373C68.8547 373.56 69.6227 374.336 70.1827 375.328C70.7427 376.304 71.0227 377.424 71.0227 378.688C71.0227 379.952 70.7427 381.08 70.1827 382.072C69.6227 383.048 68.8547 383.824 67.8787 384.4C66.9187 384.96 65.8307 385.24 64.6147 385.24ZM64.6147 382.984C65.3667 382.984 66.0387 382.8 66.6307 382.432C67.2227 382.048 67.6867 381.536 68.0227 380.896C68.3587 380.24 68.5187 379.504 68.5027 378.688C68.5187 377.856 68.3587 377.12 68.0227 376.48C67.6867 375.824 67.2227 375.312 66.6307 374.944C66.0387 374.576 65.3667 374.392 64.6147 374.392C63.8627 374.392 63.1827 374.584 62.5747 374.968C61.9827 375.336 61.5187 375.848 61.1827 376.504C60.8467 377.144 60.6867 377.872 60.7027 378.688C60.6867 379.504 60.8467 380.24 61.1827 380.896C61.5187 381.536 61.9827 382.048 62.5747 382.432C63.1827 382.8 63.8627 382.984 64.6147 382.984ZM78.1323 385.24C77.2363 385.24 76.4523 385.032 75.7803 384.616C75.1243 384.2 74.6123 383.616 74.2443 382.864C73.8923 382.112 73.7163 381.216 73.7163 380.176V372.4H76.1883V379.504C76.1883 380.24 76.3003 380.88 76.5243 381.424C76.7643 381.952 77.1003 382.36 77.5323 382.648C77.9803 382.936 78.5163 383.08 79.1403 383.08C79.6043 383.08 80.0283 383.008 80.4123 382.864C80.7963 382.704 81.1243 382.488 81.3963 382.216C81.6843 381.944 81.9083 381.616 82.0683 381.232C82.2283 380.848 82.3083 380.432 82.3083 379.984V372.4H84.7803V385H82.3083V382.36L82.7403 382.072C82.5483 382.664 82.2203 383.2 81.7563 383.68C81.3083 384.16 80.7723 384.544 80.1483 384.832C79.5243 385.104 78.8523 385.24 78.1323 385.24ZM94.8715 385.24C94.3275 385.24 93.7835 385.152 93.2395 384.976C92.7115 384.8 92.2235 384.568 91.7755 384.28C91.3435 383.976 90.9755 383.648 90.6715 383.296C90.3835 382.928 90.1915 382.56 90.0955 382.192L90.7195 381.856V384.928H88.2475V367.24H90.7195V375.28L90.3355 375.064C90.4155 374.696 90.5915 374.344 90.8635 374.008C91.1355 373.656 91.4795 373.344 91.8955 373.072C92.3275 372.784 92.7915 372.56 93.2875 372.4C93.7835 372.224 94.2875 372.136 94.7995 372.136C95.9355 372.136 96.9435 372.416 97.8235 372.976C98.7035 373.536 99.3995 374.312 99.9115 375.304C100.424 376.28 100.68 377.4 100.68 378.664C100.68 379.928 100.424 381.056 99.9115 382.048C99.4155 383.04 98.7275 383.824 97.8475 384.4C96.9675 384.96 95.9755 385.24 94.8715 385.24ZM94.4635 382.984C95.1995 382.984 95.8555 382.8 96.4315 382.432C97.0075 382.048 97.4635 381.536 97.7995 380.896C98.1355 380.24 98.3035 379.496 98.3035 378.664C98.3035 377.848 98.1355 377.12 97.7995 376.48C97.4795 375.824 97.0315 375.312 96.4555 374.944C95.8795 374.576 95.2155 374.392 94.4635 374.392C93.7115 374.392 93.0475 374.576 92.4715 374.944C91.8955 375.312 91.4395 375.824 91.1035 376.48C90.7675 377.12 90.5995 377.848 90.5995 378.664C90.5995 379.496 90.7675 380.24 91.1035 380.896C91.4395 381.536 91.8955 382.048 92.4715 382.432C93.0475 382.8 93.7115 382.984 94.4635 382.984ZM103.413 385V367.24H105.885V385H103.413ZM115.034 385.24C113.738 385.24 112.586 384.968 111.578 384.424C110.586 383.864 109.802 383.104 109.226 382.144C108.666 381.184 108.386 380.08 108.386 378.832C108.386 377.84 108.546 376.936 108.866 376.12C109.186 375.304 109.626 374.6 110.186 374.008C110.762 373.4 111.442 372.936 112.226 372.616C113.026 372.28 113.89 372.112 114.818 372.112C115.634 372.112 116.394 372.272 117.098 372.592C117.802 372.896 118.41 373.32 118.922 373.864C119.45 374.408 119.85 375.056 120.122 375.808C120.41 376.544 120.546 377.352 120.53 378.232L120.506 379.288H110.21L109.658 377.32H118.37L118.01 377.728V377.152C117.962 376.624 117.786 376.152 117.482 375.736C117.178 375.32 116.794 374.992 116.33 374.752C115.866 374.512 115.362 374.392 114.818 374.392C113.954 374.392 113.226 374.56 112.634 374.896C112.042 375.216 111.594 375.696 111.29 376.336C110.986 376.96 110.834 377.736 110.834 378.664C110.834 379.544 111.018 380.312 111.386 380.968C111.754 381.608 112.274 382.104 112.946 382.456C113.618 382.808 114.394 382.984 115.274 382.984C115.898 382.984 116.474 382.88 117.002 382.672C117.546 382.464 118.13 382.088 118.754 381.544L120.002 383.296C119.618 383.68 119.146 384.016 118.586 384.304C118.042 384.592 117.458 384.824 116.834 385C116.226 385.16 115.626 385.24 115.034 385.24ZM131.503 385V369.184H133.975V385H131.503ZM128.887 374.8V372.4H136.903V374.8H128.887ZM139.154 385V367.24H141.626V374.992L141.194 375.28C141.354 374.72 141.666 374.208 142.13 373.744C142.594 373.264 143.146 372.88 143.786 372.592C144.426 372.288 145.082 372.136 145.754 372.136C146.714 372.136 147.514 372.328 148.154 372.712C148.794 373.08 149.274 373.648 149.594 374.416C149.914 375.184 150.074 376.152 150.074 377.32V385H147.602V377.488C147.602 376.768 147.506 376.176 147.314 375.712C147.122 375.232 146.826 374.888 146.426 374.68C146.026 374.456 145.53 374.36 144.938 374.392C144.458 374.392 144.018 374.472 143.618 374.632C143.218 374.776 142.866 374.984 142.562 375.256C142.274 375.528 142.042 375.848 141.866 376.216C141.706 376.568 141.626 376.952 141.626 377.368V385H140.402C140.194 385 139.986 385 139.778 385C139.57 385 139.362 385 139.154 385ZM159.307 385.24C158.011 385.24 156.859 384.968 155.851 384.424C154.859 383.864 154.075 383.104 153.499 382.144C152.939 381.184 152.659 380.08 152.659 378.832C152.659 377.84 152.819 376.936 153.139 376.12C153.459 375.304 153.899 374.6 154.459 374.008C155.035 373.4 155.715 372.936 156.499 372.616C157.299 372.28 158.163 372.112 159.091 372.112C159.907 372.112 160.667 372.272 161.371 372.592C162.075 372.896 162.683 373.32 163.195 373.864C163.723 374.408 164.123 375.056 164.395 375.808C164.683 376.544 164.819 377.352 164.803 378.232L164.779 379.288H154.483L153.931 377.32H162.643L162.283 377.728V377.152C162.235 376.624 162.059 376.152 161.755 375.736C161.451 375.32 161.067 374.992 160.603 374.752C160.139 374.512 159.635 374.392 159.091 374.392C158.227 374.392 157.499 374.56 156.907 374.896C156.315 375.216 155.867 375.696 155.563 376.336C155.259 376.96 155.107 377.736 155.107 378.664C155.107 379.544 155.291 380.312 155.659 380.968C156.027 381.608 156.547 382.104 157.219 382.456C157.891 382.808 158.667 382.984 159.547 382.984C160.171 382.984 160.747 382.88 161.275 382.672C161.819 382.464 162.403 382.088 163.027 381.544L164.275 383.296C163.891 383.68 163.419 384.016 162.859 384.304C162.315 384.592 161.731 384.824 161.107 385C160.499 385.16 159.899 385.24 159.307 385.24ZM178.344 385L173.016 372.4H175.68L179.52 381.832L179.064 382.048L183.168 372.4H185.712L180.12 385H178.344ZM192.471 385.24C191.431 385.24 190.479 384.952 189.615 384.376C188.767 383.8 188.087 383.016 187.575 382.024C187.063 381.032 186.807 379.912 186.807 378.664C186.807 377.4 187.063 376.28 187.575 375.304C188.103 374.312 188.807 373.536 189.687 372.976C190.583 372.416 191.583 372.136 192.687 372.136C193.343 372.136 193.943 372.232 194.487 372.424C195.031 372.616 195.503 372.888 195.903 373.24C196.319 373.576 196.655 373.968 196.911 374.416C197.183 374.864 197.351 375.344 197.415 375.856L196.863 375.664V372.4H199.359V385H196.863V382L197.439 381.832C197.343 382.264 197.143 382.688 196.839 383.104C196.551 383.504 196.175 383.864 195.711 384.184C195.263 384.504 194.759 384.76 194.199 384.952C193.655 385.144 193.079 385.24 192.471 385.24ZM193.119 382.96C193.871 382.96 194.535 382.776 195.111 382.408C195.687 382.04 196.135 381.536 196.455 380.896C196.791 380.24 196.959 379.496 196.959 378.664C196.959 377.848 196.791 377.12 196.455 376.48C196.135 375.84 195.687 375.336 195.111 374.968C194.535 374.6 193.871 374.416 193.119 374.416C192.383 374.416 191.727 374.6 191.151 374.968C190.591 375.336 190.143 375.84 189.807 376.48C189.487 377.12 189.327 377.848 189.327 378.664C189.327 379.496 189.487 380.24 189.807 380.896C190.143 381.536 190.591 382.04 191.151 382.408C191.727 382.776 192.383 382.96 193.119 382.96ZM202.858 385V367.24H205.33V385H202.858ZM213.132 385.24C212.236 385.24 211.452 385.032 210.78 384.616C210.124 384.2 209.612 383.616 209.244 382.864C208.892 382.112 208.716 381.216 208.716 380.176V372.4H211.188V379.504C211.188 380.24 211.3 380.88 211.524 381.424C211.764 381.952 212.1 382.36 212.532 382.648C212.98 382.936 213.516 383.08 214.14 383.08C214.604 383.08 215.028 383.008 215.412 382.864C215.796 382.704 216.124 382.488 216.396 382.216C216.684 381.944 216.908 381.616 217.068 381.232C217.228 380.848 217.308 380.432 217.308 379.984V372.4H219.78V385H217.308V382.36L217.74 382.072C217.548 382.664 217.22 383.2 216.756 383.68C216.308 384.16 215.772 384.544 215.148 384.832C214.524 385.104 213.852 385.24 213.132 385.24ZM229.128 385.24C227.832 385.24 226.68 384.968 225.672 384.424C224.68 383.864 223.896 383.104 223.32 382.144C222.76 381.184 222.48 380.08 222.48 378.832C222.48 377.84 222.64 376.936 222.96 376.12C223.28 375.304 223.72 374.6 224.28 374.008C224.856 373.4 225.536 372.936 226.32 372.616C227.12 372.28 227.984 372.112 228.912 372.112C229.728 372.112 230.488 372.272 231.192 372.592C231.896 372.896 232.504 373.32 233.016 373.864C233.544 374.408 233.944 375.056 234.216 375.808C234.504 376.544 234.64 377.352 234.624 378.232L234.6 379.288H224.304L223.752 377.32H232.464L232.104 377.728V377.152C232.056 376.624 231.88 376.152 231.576 375.736C231.272 375.32 230.888 374.992 230.424 374.752C229.96 374.512 229.456 374.392 228.912 374.392C228.048 374.392 227.32 374.56 226.728 374.896C226.136 375.216 225.688 375.696 225.384 376.336C225.08 376.96 224.928 377.736 224.928 378.664C224.928 379.544 225.112 380.312 225.48 380.968C225.848 381.608 226.368 382.104 227.04 382.456C227.712 382.808 228.488 382.984 229.368 382.984C229.992 382.984 230.568 382.88 231.096 382.672C231.64 382.464 232.224 382.088 232.848 381.544L234.096 383.296C233.712 383.68 233.24 384.016 232.68 384.304C232.136 384.592 231.552 384.824 230.928 385C230.32 385.16 229.72 385.24 229.128 385.24ZM249.701 385.24C248.469 385.24 247.365 384.96 246.389 384.4C245.429 383.824 244.669 383.048 244.109 382.072C243.549 381.08 243.269 379.952 243.269 378.688C243.269 377.424 243.549 376.304 244.109 375.328C244.669 374.336 245.429 373.56 246.389 373C247.365 372.424 248.469 372.136 249.701 372.136C250.917 372.136 252.005 372.424 252.965 373C253.941 373.56 254.709 374.336 255.269 375.328C255.829 376.304 256.109 377.424 256.109 378.688C256.109 379.952 255.829 381.08 255.269 382.072C254.709 383.048 253.941 383.824 252.965 384.4C252.005 384.96 250.917 385.24 249.701 385.24ZM249.701 382.984C250.453 382.984 251.125 382.8 251.717 382.432C252.309 382.048 252.773 381.536 253.109 380.896C253.445 380.24 253.605 379.504 253.589 378.688C253.605 377.856 253.445 377.12 253.109 376.48C252.773 375.824 252.309 375.312 251.717 374.944C251.125 374.576 250.453 374.392 249.701 374.392C248.949 374.392 248.269 374.584 247.661 374.968C247.069 375.336 246.605 375.848 246.269 376.504C245.933 377.144 245.773 377.872 245.789 378.688C245.773 379.504 245.933 380.24 246.269 380.896C246.605 381.536 247.069 382.048 247.661 382.432C248.269 382.8 248.949 382.984 249.701 382.984ZM259.701 385V370.984C259.701 370.264 259.861 369.624 260.181 369.064C260.501 368.504 260.941 368.064 261.501 367.744C262.061 367.424 262.709 367.264 263.445 367.264C263.957 367.264 264.437 367.36 264.885 367.552C265.333 367.744 265.693 368 265.965 368.32L265.125 370.216C264.917 370.024 264.685 369.872 264.429 369.76C264.189 369.632 263.957 369.568 263.733 369.568C263.397 369.568 263.109 369.624 262.869 369.736C262.645 369.832 262.477 369.992 262.365 370.216C262.253 370.424 262.197 370.68 262.197 370.984V385H260.949C260.741 385 260.533 385 260.325 385C260.117 385 259.909 385 259.701 385ZM257.685 374.896V372.616H265.173V374.896H257.685ZM276.042 385V369.184H278.514V385H276.042ZM273.426 374.8V372.4H281.442V374.8H273.426ZM283.693 385V367.24H286.165V374.992L285.733 375.28C285.893 374.72 286.205 374.208 286.669 373.744C287.133 373.264 287.685 372.88 288.325 372.592C288.965 372.288 289.621 372.136 290.293 372.136C291.253 372.136 292.053 372.328 292.693 372.712C293.333 373.08 293.813 373.648 294.133 374.416C294.453 375.184 294.613 376.152 294.613 377.32V385H292.141V377.488C292.141 376.768 292.045 376.176 291.853 375.712C291.661 375.232 291.365 374.888 290.965 374.68C290.565 374.456 290.069 374.36 289.477 374.392C288.997 374.392 288.557 374.472 288.157 374.632C287.757 374.776 287.405 374.984 287.101 375.256C286.813 375.528 286.581 375.848 286.405 376.216C286.245 376.568 286.165 376.952 286.165 377.368V385H284.941C284.733 385 284.525 385 284.317 385C284.109 385 283.901 385 283.693 385ZM303.846 385.24C302.55 385.24 301.398 384.968 300.39 384.424C299.398 383.864 298.614 383.104 298.038 382.144C297.478 381.184 297.198 380.08 297.198 378.832C297.198 377.84 297.358 376.936 297.678 376.12C297.998 375.304 298.438 374.6 298.998 374.008C299.574 373.4 300.254 372.936 301.038 372.616C301.838 372.28 302.702 372.112 303.63 372.112C304.446 372.112 305.206 372.272 305.91 372.592C306.614 372.896 307.222 373.32 307.734 373.864C308.262 374.408 308.662 375.056 308.934 375.808C309.222 376.544 309.358 377.352 309.342 378.232L309.318 379.288H299.022L298.47 377.32H307.182L306.822 377.728V377.152C306.774 376.624 306.598 376.152 306.294 375.736C305.99 375.32 305.606 374.992 305.142 374.752C304.678 374.512 304.174 374.392 303.63 374.392C302.766 374.392 302.038 374.56 301.446 374.896C300.854 375.216 300.406 375.696 300.102 376.336C299.798 376.96 299.646 377.736 299.646 378.664C299.646 379.544 299.83 380.312 300.198 380.968C300.566 381.608 301.086 382.104 301.758 382.456C302.43 382.808 303.206 382.984 304.086 382.984C304.71 382.984 305.286 382.88 305.814 382.672C306.358 382.464 306.942 382.088 307.566 381.544L308.814 383.296C308.43 383.68 307.958 384.016 307.398 384.304C306.854 384.592 306.27 384.824 305.646 385C305.038 385.16 304.438 385.24 303.846 385.24ZM46.6375 425.52C45.7415 425.52 44.8455 425.376 43.9495 425.088C43.0695 424.816 42.3575 424.456 41.8135 424.008L42.7255 422.088C43.0455 422.328 43.4215 422.536 43.8535 422.712C44.2855 422.904 44.7415 423.048 45.2215 423.144C45.7015 423.256 46.1735 423.312 46.6375 423.312C47.5175 423.312 48.2535 423.168 48.8455 422.88C49.4375 422.592 49.8855 422.168 50.1895 421.608C50.4935 421.048 50.6455 420.352 50.6455 419.52V417.096L50.9095 417.264C50.8295 417.76 50.5655 418.24 50.1175 418.704C49.6855 419.152 49.1415 419.52 48.4855 419.808C47.8295 420.096 47.1575 420.24 46.4695 420.24C45.2695 420.24 44.1975 419.96 43.2535 419.4C42.3255 418.824 41.5895 418.048 41.0455 417.072C40.5015 416.08 40.2295 414.952 40.2295 413.688C40.2295 412.424 40.4935 411.304 41.0215 410.328C41.5655 409.336 42.3015 408.56 43.2295 408C44.1735 407.424 45.2295 407.136 46.3975 407.136C46.8775 407.136 47.3415 407.2 47.7895 407.328C48.2375 407.44 48.6535 407.608 49.0375 407.832C49.4215 408.04 49.7655 408.272 50.0695 408.528C50.3735 408.784 50.6215 409.056 50.8135 409.344C51.0055 409.632 51.1255 409.904 51.1735 410.16L50.6455 410.352V407.4H53.1175V419.232C53.1175 420.24 52.9655 421.128 52.6615 421.896C52.3735 422.68 51.9495 423.336 51.3895 423.864C50.8295 424.408 50.1495 424.816 49.3495 425.088C48.5495 425.376 47.6455 425.52 46.6375 425.52ZM46.7335 417.96C47.5175 417.96 48.2135 417.776 48.8215 417.408C49.4295 417.04 49.9015 416.536 50.2375 415.896C50.5735 415.256 50.7415 414.52 50.7415 413.688C50.7415 412.856 50.5655 412.12 50.2135 411.48C49.8775 410.824 49.4055 410.312 48.7975 409.944C48.2055 409.576 47.5175 409.392 46.7335 409.392C45.9655 409.392 45.2775 409.584 44.6695 409.968C44.0775 410.336 43.6055 410.848 43.2535 411.504C42.9175 412.144 42.7495 412.872 42.7495 413.688C42.7495 414.504 42.9175 415.24 43.2535 415.896C43.6055 416.536 44.0775 417.04 44.6695 417.408C45.2775 417.776 45.9655 417.96 46.7335 417.96ZM62.4635 420.24C61.1675 420.24 60.0155 419.968 59.0075 419.424C58.0155 418.864 57.2315 418.104 56.6555 417.144C56.0955 416.184 55.8155 415.08 55.8155 413.832C55.8155 412.84 55.9755 411.936 56.2955 411.12C56.6155 410.304 57.0555 409.6 57.6155 409.008C58.1915 408.4 58.8715 407.936 59.6555 407.616C60.4555 407.28 61.3195 407.112 62.2475 407.112C63.0635 407.112 63.8235 407.272 64.5275 407.592C65.2315 407.896 65.8395 408.32 66.3515 408.864C66.8795 409.408 67.2795 410.056 67.5515 410.808C67.8395 411.544 67.9755 412.352 67.9595 413.232L67.9355 414.288H57.6395L57.0875 412.32H65.7995L65.4395 412.728V412.152C65.3915 411.624 65.2155 411.152 64.9115 410.736C64.6075 410.32 64.2235 409.992 63.7595 409.752C63.2955 409.512 62.7915 409.392 62.2475 409.392C61.3835 409.392 60.6555 409.56 60.0635 409.896C59.4715 410.216 59.0235 410.696 58.7195 411.336C58.4155 411.96 58.2635 412.736 58.2635 413.664C58.2635 414.544 58.4475 415.312 58.8155 415.968C59.1835 416.608 59.7035 417.104 60.3755 417.456C61.0475 417.808 61.8235 417.984 62.7035 417.984C63.3275 417.984 63.9035 417.88 64.4315 417.672C64.9755 417.464 65.5595 417.088 66.1835 416.544L67.4315 418.296C67.0475 418.68 66.5755 419.016 66.0155 419.304C65.4715 419.592 64.8875 419.824 64.2635 420C63.6555 420.16 63.0555 420.24 62.4635 420.24ZM70.598 420V407.4H73.094V410.088L72.638 410.376C72.766 409.96 72.966 409.56 73.238 409.176C73.526 408.792 73.87 408.456 74.27 408.168C74.686 407.864 75.126 407.624 75.59 407.448C76.07 407.272 76.558 407.184 77.054 407.184C77.774 407.184 78.406 407.304 78.95 407.544C79.494 407.784 79.942 408.144 80.294 408.624C80.646 409.104 80.902 409.704 81.062 410.424L80.678 410.328L80.846 409.92C81.022 409.552 81.262 409.208 81.566 408.888C81.886 408.552 82.246 408.256 82.646 408C83.046 407.744 83.47 407.544 83.918 407.4C84.366 407.256 84.806 407.184 85.238 407.184C86.182 407.184 86.958 407.376 87.566 407.76C88.19 408.144 88.654 408.728 88.958 409.512C89.278 410.296 89.438 411.272 89.438 412.44V420H86.942V412.584C86.942 411.864 86.846 411.28 86.654 410.832C86.478 410.368 86.206 410.024 85.838 409.8C85.47 409.576 84.998 409.464 84.422 409.464C83.974 409.464 83.55 409.544 83.15 409.704C82.766 409.848 82.43 410.056 82.142 410.328C81.854 410.6 81.63 410.92 81.47 411.288C81.31 411.64 81.23 412.032 81.23 412.464V420H78.734V412.536C78.734 411.88 78.638 411.328 78.446 410.88C78.254 410.416 77.974 410.064 77.606 409.824C77.238 409.584 76.79 409.464 76.262 409.464C75.814 409.464 75.398 409.544 75.014 409.704C74.63 409.848 74.294 410.056 74.006 410.328C73.718 410.584 73.494 410.896 73.334 411.264C73.174 411.616 73.094 412 73.094 412.416V420H70.598ZM104.826 420.24C103.658 420.24 102.61 419.952 101.682 419.376C100.77 418.8 100.042 418.016 99.4981 417.024C98.9701 416.032 98.7061 414.92 98.7061 413.688C98.7061 412.456 98.9701 411.344 99.4981 410.352C100.042 409.36 100.77 408.576 101.682 408C102.61 407.424 103.658 407.136 104.826 407.136C105.946 407.136 106.962 407.368 107.874 407.832C108.802 408.28 109.506 408.896 109.986 409.68L108.618 411.36C108.362 410.992 108.034 410.656 107.634 410.352C107.234 410.048 106.81 409.808 106.362 409.632C105.914 409.456 105.482 409.368 105.066 409.368C104.298 409.368 103.61 409.56 103.002 409.944C102.41 410.312 101.938 410.824 101.586 411.48C101.234 412.136 101.058 412.872 101.058 413.688C101.058 414.504 101.242 415.24 101.61 415.896C101.978 416.536 102.466 417.048 103.074 417.432C103.682 417.816 104.354 418.008 105.09 418.008C105.522 418.008 105.938 417.936 106.338 417.792C106.754 417.648 107.154 417.432 107.538 417.144C107.922 416.856 108.282 416.504 108.618 416.088L109.986 417.768C109.474 418.488 108.738 419.08 107.778 419.544C106.834 420.008 105.85 420.24 104.826 420.24ZM117.166 420.24C116.126 420.24 115.174 419.952 114.31 419.376C113.462 418.8 112.782 418.016 112.27 417.024C111.758 416.032 111.502 414.912 111.502 413.664C111.502 412.4 111.758 411.28 112.27 410.304C112.798 409.312 113.502 408.536 114.382 407.976C115.278 407.416 116.278 407.136 117.382 407.136C118.038 407.136 118.638 407.232 119.182 407.424C119.726 407.616 120.198 407.888 120.598 408.24C121.014 408.576 121.35 408.968 121.606 409.416C121.878 409.864 122.046 410.344 122.11 410.856L121.558 410.664V407.4H124.054V420H121.558V417L122.134 416.832C122.038 417.264 121.838 417.688 121.534 418.104C121.246 418.504 120.87 418.864 120.406 419.184C119.958 419.504 119.454 419.76 118.894 419.952C118.35 420.144 117.774 420.24 117.166 420.24ZM117.814 417.96C118.566 417.96 119.23 417.776 119.806 417.408C120.382 417.04 120.83 416.536 121.15 415.896C121.486 415.24 121.654 414.496 121.654 413.664C121.654 412.848 121.486 412.12 121.15 411.48C120.83 410.84 120.382 410.336 119.806 409.968C119.23 409.6 118.566 409.416 117.814 409.416C117.078 409.416 116.422 409.6 115.846 409.968C115.286 410.336 114.838 410.84 114.502 411.48C114.182 412.12 114.022 412.848 114.022 413.664C114.022 414.496 114.182 415.24 114.502 415.896C114.838 416.536 115.286 417.04 115.846 417.408C116.422 417.776 117.078 417.96 117.814 417.96ZM127.505 420V407.4H130.001V411.36L129.761 410.4C129.937 409.792 130.233 409.24 130.649 408.744C131.081 408.248 131.569 407.856 132.113 407.568C132.673 407.28 133.249 407.136 133.841 407.136C134.113 407.136 134.369 407.16 134.609 407.208C134.865 407.256 135.065 407.312 135.209 407.376L134.561 410.064C134.369 409.984 134.153 409.92 133.913 409.872C133.689 409.808 133.465 409.776 133.241 409.776C132.809 409.776 132.393 409.864 131.993 410.04C131.609 410.2 131.265 410.432 130.961 410.736C130.673 411.024 130.441 411.368 130.265 411.768C130.089 412.152 130.001 412.576 130.001 413.04V420H127.505ZM141.902 420.24C140.75 420.24 139.718 419.96 138.806 419.4C137.91 418.824 137.198 418.048 136.67 417.072C136.142 416.08 135.878 414.952 135.878 413.688C135.878 412.424 136.134 411.304 136.646 410.328C137.174 409.336 137.886 408.56 138.782 408C139.678 407.424 140.694 407.136 141.83 407.136C142.454 407.136 143.054 407.24 143.63 407.448C144.222 407.64 144.75 407.912 145.214 408.264C145.678 408.6 146.038 408.976 146.294 409.392C146.566 409.792 146.702 410.2 146.702 410.616L145.982 410.664V402.24H148.454V420H145.982V417H146.462C146.462 417.384 146.334 417.768 146.078 418.152C145.822 418.52 145.478 418.864 145.046 419.184C144.63 419.504 144.142 419.76 143.582 419.952C143.038 420.144 142.478 420.24 141.902 420.24ZM142.238 418.104C142.99 418.104 143.654 417.912 144.23 417.528C144.806 417.144 145.254 416.624 145.574 415.968C145.91 415.296 146.078 414.536 146.078 413.688C146.078 412.84 145.91 412.088 145.574 411.432C145.254 410.76 144.806 410.232 144.23 409.848C143.654 409.464 142.99 409.272 142.238 409.272C141.486 409.272 140.822 409.464 140.246 409.848C139.67 410.232 139.214 410.76 138.878 411.432C138.558 412.088 138.398 412.84 138.398 413.688C138.398 414.536 138.558 415.296 138.878 415.968C139.214 416.624 139.67 417.144 140.246 417.528C140.822 417.912 141.486 418.104 142.238 418.104ZM158.583 420V407.4H161.055V409.992L160.623 410.28C160.783 409.72 161.095 409.208 161.559 408.744C162.023 408.264 162.575 407.88 163.215 407.592C163.855 407.288 164.511 407.136 165.183 407.136C166.143 407.136 166.943 407.328 167.583 407.712C168.223 408.08 168.703 408.648 169.023 409.416C169.343 410.184 169.503 411.152 169.503 412.32V420H167.031V412.488C167.031 411.768 166.935 411.176 166.743 410.712C166.551 410.232 166.255 409.888 165.855 409.68C165.455 409.456 164.959 409.36 164.367 409.392C163.887 409.392 163.447 409.472 163.047 409.632C162.647 409.776 162.295 409.984 161.991 410.256C161.703 410.528 161.471 410.848 161.295 411.216C161.135 411.568 161.055 411.952 161.055 412.368V420H159.831C159.623 420 159.415 420 159.207 420C158.999 420 158.791 420 158.583 420ZM178.737 420.24C177.441 420.24 176.289 419.968 175.281 419.424C174.289 418.864 173.505 418.104 172.929 417.144C172.369 416.184 172.089 415.08 172.089 413.832C172.089 412.84 172.249 411.936 172.569 411.12C172.889 410.304 173.329 409.6 173.889 409.008C174.465 408.4 175.145 407.936 175.929 407.616C176.729 407.28 177.593 407.112 178.521 407.112C179.337 407.112 180.097 407.272 180.801 407.592C181.505 407.896 182.113 408.32 182.625 408.864C183.153 409.408 183.553 410.056 183.825 410.808C184.113 411.544 184.249 412.352 184.233 413.232L184.209 414.288H173.913L173.361 412.32H182.073L181.713 412.728V412.152C181.665 411.624 181.489 411.152 181.185 410.736C180.881 410.32 180.497 409.992 180.033 409.752C179.569 409.512 179.065 409.392 178.521 409.392C177.657 409.392 176.929 409.56 176.337 409.896C175.745 410.216 175.297 410.696 174.993 411.336C174.689 411.96 174.537 412.736 174.537 413.664C174.537 414.544 174.721 415.312 175.089 415.968C175.457 416.608 175.977 417.104 176.649 417.456C177.321 417.808 178.097 417.984 178.977 417.984C179.601 417.984 180.177 417.88 180.705 417.672C181.249 417.464 181.833 417.088 182.457 416.544L183.705 418.296C183.321 418.68 182.849 419.016 182.289 419.304C181.745 419.592 181.161 419.824 180.537 420C179.929 420.16 179.329 420.24 178.737 420.24ZM195.225 420L191.145 414.696L190.785 414.24L185.481 407.4H188.601L192.609 412.632L193.017 413.16L198.249 420H195.225ZM185.505 420L190.473 413.52L191.937 415.272L188.433 420H185.505ZM193.161 413.904L191.793 412.176L194.889 407.4H197.817L193.161 413.904ZM201.886 420V404.184H204.358V420H201.886ZM199.27 409.8V407.4H207.286V409.8H199.27ZM217.823 420V404.184H220.295V420H217.823ZM215.207 409.8V407.4H223.223V409.8H215.207ZM229.89 420.24C228.994 420.24 228.21 420.032 227.538 419.616C226.882 419.2 226.37 418.616 226.002 417.864C225.65 417.112 225.474 416.216 225.474 415.176V407.4H227.946V414.504C227.946 415.24 228.058 415.88 228.282 416.424C228.522 416.952 228.858 417.36 229.29 417.648C229.738 417.936 230.274 418.08 230.898 418.08C231.362 418.08 231.786 418.008 232.17 417.864C232.554 417.704 232.882 417.488 233.154 417.216C233.442 416.944 233.666 416.616 233.826 416.232C233.986 415.848 234.066 415.432 234.066 414.984V407.4H236.538V420H234.066V417.36L234.498 417.072C234.306 417.664 233.978 418.2 233.514 418.68C233.066 419.16 232.53 419.544 231.906 419.832C231.282 420.104 230.61 420.24 229.89 420.24ZM240.005 420V407.4H242.501V411.36L242.261 410.4C242.437 409.792 242.733 409.24 243.149 408.744C243.581 408.248 244.069 407.856 244.613 407.568C245.173 407.28 245.749 407.136 246.341 407.136C246.613 407.136 246.869 407.16 247.109 407.208C247.365 407.256 247.565 407.312 247.709 407.376L247.061 410.064C246.869 409.984 246.653 409.92 246.413 409.872C246.189 409.808 245.965 409.776 245.741 409.776C245.309 409.776 244.893 409.864 244.493 410.04C244.109 410.2 243.765 410.432 243.461 410.736C243.173 411.024 242.941 411.368 242.765 411.768C242.589 412.152 242.501 412.576 242.501 413.04V420H240.005ZM249.685 420V407.4H252.157V409.992L251.725 410.28C251.885 409.72 252.197 409.208 252.661 408.744C253.125 408.264 253.677 407.88 254.317 407.592C254.957 407.288 255.613 407.136 256.285 407.136C257.245 407.136 258.045 407.328 258.685 407.712C259.325 408.08 259.805 408.648 260.125 409.416C260.445 410.184 260.605 411.152 260.605 412.32V420H258.133V412.488C258.133 411.768 258.037 411.176 257.845 410.712C257.653 410.232 257.357 409.888 256.957 409.68C256.557 409.456 256.061 409.36 255.469 409.392C254.989 409.392 254.549 409.472 254.149 409.632C253.749 409.776 253.397 409.984 253.093 410.256C252.805 410.528 252.573 410.848 252.397 411.216C252.237 411.568 252.157 411.952 252.157 412.368V420H250.933C250.725 420 250.517 420 250.309 420C250.101 420 249.893 420 249.685 420Z" fill="#FAF9F6"/>
<ellipse cx="197.287" cy="240.515" rx="61.2869" ry="88.0259" fill="#ECAB2C"/>
<path d="M201.546 159.351C198.328 160.676 194.211 159.903 192.554 159.351V154.855L199.89 154.382C201.783 155.486 204.764 158.026 201.546 159.351Z" fill="#B97A0A"/>
<ellipse cx="197.287" cy="245.484" rx="47.5624" ry="67.4392" fill="#A1DCFF"/>
<path d="M218.583 185.381L150.434 254.24C150.434 260.108 153.431 270.882 154.93 275.536L231.361 199.105C228.143 193.426 221.502 187.589 218.583 185.381Z" fill="#5EBEF7"/>
<path d="M240.353 217.562L164.396 293.993C169.317 300.619 175.438 305.272 177.883 306.771L244.376 240.278C244.565 232.706 241.773 221.979 240.353 217.562Z" fill="#5EBEF7"/>
<path d="M150.908 163.138C154.504 165.031 158.243 163.926 159.663 163.138C164.474 165.031 173.861 169.337 172.914 171.42C171.731 174.022 167.708 178.992 161.083 181.121C154.457 183.251 146.648 179.465 141.679 176.625C136.71 173.786 138.452 166.826 140.023 164.557C142.153 161.481 146.412 160.771 150.908 163.138Z" fill="#D78E0C"/>
<path d="M167.945 177.335C167.235 177.887 164.254 178.234 158.007 175.206C151.794 172.193 152.4 166.591 153.493 164.125C155.56 164.536 158.468 163.638 159.663 163.137C164.475 164.794 173.861 168.722 172.914 171.183C171.968 173.644 169.207 176.31 167.945 177.335Z" fill="#B97A0A"/>
<path d="M171.967 153.436C175.186 156.275 183.562 149.728 187.348 146.1C189.715 147.993 194.305 152.536 193.737 155.565C193.027 159.351 190.661 164.321 186.402 167.633C182.142 170.946 173.624 171.183 170.311 170.946C166.998 170.709 163.449 168.58 160.846 165.504C158.243 162.427 159.663 159.115 161.082 156.275C162.502 153.436 167.945 149.886 171.967 153.436Z" fill="#D78E0C"/>
<path d="M243.241 163.138C239.645 165.031 235.906 163.926 234.486 163.138C229.675 165.031 220.288 169.337 221.235 171.42C222.418 174.022 226.441 178.992 233.066 181.121C239.692 183.251 247.501 179.465 252.47 176.625C257.439 173.786 255.697 166.826 254.126 164.557C251.996 161.481 247.737 160.771 243.241 163.138Z" fill="#D78E0C"/>
<path d="M226.204 177.335C226.914 177.887 229.895 178.234 236.142 175.206C242.355 172.193 241.749 166.591 240.656 164.125C238.589 164.536 235.681 163.638 234.486 163.137C229.674 164.794 220.288 168.722 221.235 171.183C222.181 173.644 224.942 176.31 226.204 177.335Z" fill="#B97A0A"/>
<path d="M222.181 153.436C218.963 156.275 210.586 149.728 206.8 146.1C204.434 147.993 199.843 152.536 200.411 155.565C201.121 159.351 203.487 164.321 207.747 167.633C212.006 170.946 220.525 171.183 223.838 170.946C227.15 170.709 230.7 168.58 233.303 165.504C235.906 162.427 234.486 159.115 233.066 156.275C231.646 153.436 226.204 149.886 222.181 153.436Z" fill="#D78E0C"/>
<path d="M177.173 140.894C181.338 139.758 185.534 143.576 187.112 145.627C193.106 146.652 205.616 147.946 207.698 144.917C210.301 141.131 214.797 140.184 217.637 141.131C220.476 142.077 223.079 142.077 224.736 141.841C226.392 141.604 228.522 139.001 229.232 137.818C229.942 136.635 230.888 132.849 227.102 128.353C224.073 124.756 219.372 123.857 217.4 123.857C217.873 119.834 214.324 117.468 212.431 116.758C210.538 116.048 207.935 116.048 204.859 116.522C201.783 116.995 198.943 120.544 197.997 121.964C197.239 123.1 196.419 122.437 196.104 121.964C194.92 120.071 190.188 117.231 188.295 116.522C186.402 115.812 182.852 115.575 179.54 117.468C176.889 118.982 176.542 122.832 176.7 124.567C174.807 124.646 170.548 125.088 168.655 126.223C166.288 127.643 164.159 130.483 163.922 133.795C163.685 137.108 165.342 139.948 167.708 141.368C170.074 142.787 171.967 142.314 177.173 140.894Z" fill="#D78E0C"/>
<path d="M177.883 127.88C176.747 126.744 176.621 125.198 176.7 124.567L174.097 124.804C174.334 126.144 175.138 129.157 176.463 130.483C178.12 132.139 180.723 132.139 182.143 132.376C183.562 132.612 184.509 133.086 186.165 135.688C187.49 137.771 187.506 140.184 187.348 141.131C187.979 140.5 189.289 138.859 189.478 137.345C189.715 135.452 189.005 133.795 187.112 131.429C185.597 129.536 183.01 129.221 181.906 129.299C181.038 129.299 179.019 129.016 177.883 127.88Z" fill="#B97A0A"/>
<path d="M216.261 127.88C217.397 126.744 217.479 124.488 217.4 123.857L220.24 124.33C220.003 125.671 219.006 129.157 217.681 130.483C216.024 132.139 213.421 132.139 212.002 132.376C210.582 132.612 209.635 133.085 207.979 135.688C206.654 137.771 206.638 140.184 206.796 141.131C206.165 140.5 204.855 138.859 204.666 137.345C204.43 135.452 205.139 133.795 207.032 131.429C208.547 129.536 211.134 129.221 212.238 129.299C213.106 129.299 215.125 129.015 216.261 127.88Z" fill="#B97A0A"/>
<circle cx="197.287" cy="145.154" r="11.1216" fill="#ECAB2C"/>
<circle cx="197.287" cy="145.154" r="7.80875" fill="#D78E0C"/>
</svg>
