<svg width="395" height="491" viewBox="0 0 395 491" fill="none" xmlns="http://www.w3.org/2000/svg">
<rect width="394.099" height="490.871" rx="20" fill="#202020" fill-opacity="0.5"/>
<path d="M52 51.96C52 53.64 53.04 57.72 55.12 64.2L56.4 68.2L56.68 68.12C56.7067 67.56 58.36 62.0667 61.64 51.64C61.64 51.3733 61.4933 51.12 61.2 50.88C60.9067 50.6133 60.6 50.44 60.28 50.36L60.4 49.8C61.7333 49.9067 63.56 49.96 65.88 49.96C68.2 49.96 70.0533 49.8533 71.44 49.64L71.64 50.64C70.36 51.04 69.0667 51.32 67.76 51.48C67.6267 52.12 67.56 53.2667 67.56 54.92C67.56 56.5467 67.7733 59.8267 68.2 64.76C68.6533 69.6933 69.0667 72.9733 69.44 74.6C70.8533 74.7333 72.32 74.9867 73.84 75.36L73.72 76.32C71.7467 76.1067 69.6133 76 67.32 76C65.0267 76 63.1733 76.1067 61.76 76.32L61.6 75.32C62.8 74.9467 64.08 74.6667 65.44 74.48C65.44 71.9467 65.2933 68.4533 65 64C64.7067 59.5467 64.3333 55.7333 63.88 52.56L63.76 52.52C59.9467 63.08 57.9467 69.5067 57.76 71.8C56.0267 72.84 54.7333 73.8533 53.88 74.84L53.4 74.52C53.4533 73.9333 53.48 73.4933 53.48 73.2C53.48 70.08 51.7333 63.1867 48.24 52.52L48.08 52.56L46.84 61.32C46.3067 65.1333 46.04 68.5733 46.04 71.64C46.04 72.6267 46.1467 73.44 46.36 74.08C46.6 74.72 47.0667 75.2267 47.76 75.6L47.6 76.16C46.7733 76.0533 45.36 76 43.36 76C41.3867 76 39.6133 76.1067 38.04 76.32L37.88 75.32C39.08 74.9467 40.36 74.6667 41.72 74.48L46.2 52.16C43.0533 52.16 41.04 52.5867 40.16 53.44C39.9733 53.8133 39.88 54.4 39.88 55.2C39.88 56 40.0133 56.5467 40.28 56.84L40.24 57.12C39.5733 57.52 38.9067 58.08 38.24 58.8C37.92 58.7733 37.6667 58.64 37.48 58.4C37.2667 58.16 37.16 57.88 37.16 57.56C37.16 56.2533 37.9467 54.6933 39.52 52.88C41.0933 51.0667 42.56 49.92 43.92 49.44C44.1333 49.44 45.0933 49.5333 46.8 49.72C48.5067 49.88 49.8267 49.96 50.76 49.96C51.72 49.96 52.6267 49.88 53.48 49.72L53.64 50.72C52.5467 51.1467 52 51.56 52 51.96ZM77.8903 54.72C80.397 55.0133 82.9303 55.16 85.4903 55.16C88.0503 55.16 90.5703 55.0133 93.0503 54.72L93.2103 55.76C92.4103 56.08 91.5836 56.32 90.7303 56.48C90.437 58.6667 90.2903 61.7067 90.2903 65.6C90.2903 69.4933 90.437 72.5333 90.7303 74.72C91.2636 74.8 92.2503 75 93.6903 75.32L93.5303 76.32C92.2503 76.1067 90.6103 76 88.6103 76C86.6103 76 85.077 76.1067 84.0103 76.32L83.8503 75.28C84.757 74.9867 85.7836 74.7733 86.9303 74.64C87.0903 73.0933 87.2103 70.9467 87.2903 68.2C86.037 68.0667 84.7836 68 83.5303 68C82.277 68 81.1836 68.0667 80.2503 68.2C79.717 70.3867 79.4503 71.9067 79.4503 72.76C79.4503 74.0667 79.917 74.9867 80.8503 75.52L80.6903 76.2C80.077 76.0667 78.917 76 77.2103 76C75.5036 76 74.157 76.1067 73.1703 76.32L73.0103 75.28C73.6503 75.04 74.5303 74.8267 75.6503 74.64L80.8503 56.4C79.677 56.2133 78.6503 56 77.7703 55.76L77.8903 54.72ZM80.5703 66.32C81.6103 66.48 82.757 66.56 84.0103 66.56C85.2903 66.56 86.3836 66.48 87.2903 66.32C87.2903 61.3867 87.1836 58.2 86.9703 56.76C86.0636 56.7067 85.3836 56.68 84.9303 56.68C84.5036 56.68 83.837 56.7067 82.9303 56.76L80.5703 66.32ZM105.737 73.68C106.883 73.68 108.017 73.3467 109.137 72.68L108.937 68.4C108.19 68.16 107.283 67.9467 106.217 67.76L106.337 66.92C106.977 66.9733 107.443 67 107.737 67C109.577 67 111.243 66.5067 112.737 65.52L113.137 66.24C112.817 66.5333 112.523 66.84 112.257 67.16C111.883 70.7867 111.643 73.7733 111.537 76.12H110.697C110.483 75.1333 110.163 74.32 109.737 73.68C108.19 75.04 106.63 75.9733 105.057 76.48C102.47 76.48 100.443 75.6667 98.9766 74.04C97.5099 72.3867 96.7766 70.1733 96.7766 67.4C96.7766 64.6 97.6432 61.9733 99.3766 59.52C101.11 57.0667 103.323 55.4533 106.017 54.68C107.963 54.68 110.163 54.88 112.617 55.28L112.577 56.16C112.07 56.16 111.59 56.2533 111.137 56.44C110.63 57.64 110.297 59.0667 110.137 60.72H109.137C108.923 59.8133 108.817 58.88 108.817 57.92C107.803 57.4133 106.603 57.16 105.217 57.16C103.83 57.16 102.683 57.5333 101.777 58.28C100.71 60.2267 100.177 62.5333 100.177 65.2C100.177 67.84 100.563 69.92 101.337 71.44C102.137 72.9333 103.603 73.68 105.737 73.68ZM122.664 56.48C122.451 57.92 122.344 60.8667 122.344 65.32C122.344 69.7733 122.464 72.8933 122.704 74.68C123.904 74.8133 125.011 75.0133 126.024 75.28L125.904 76.28C124.517 76.0933 122.957 76 121.224 76C119.517 76 117.984 76.1067 116.624 76.32L116.464 75.28C117.211 75.04 118.051 74.84 118.984 74.68C119.224 72.76 119.344 70.04 119.344 66.52V64.64C119.344 61.12 119.211 58.4 118.944 56.48C118.011 56.32 117.171 56.12 116.424 55.88L116.584 54.84C117.944 55.0533 119.477 55.16 121.184 55.16C122.917 55.16 124.477 55.0667 125.864 54.88L125.984 55.88C124.971 56.1467 123.864 56.3467 122.664 56.48ZM137.768 73.68C139.608 73.68 141.341 72.8667 142.968 71.24L143.528 71.8C141.741 74.0667 139.594 75.6267 137.088 76.48C134.501 76.48 132.474 75.6667 131.008 74.04C129.541 72.3867 128.808 70.1733 128.808 67.4C128.808 64.6 129.674 61.9733 131.408 59.52C133.141 57.0667 135.354 55.4533 138.048 54.68C139.994 54.68 142.194 54.88 144.648 55.28L144.608 56.16C144.101 56.16 143.621 56.2533 143.168 56.44C142.661 57.64 142.328 59.0667 142.168 60.72H141.168C140.954 59.8133 140.848 58.88 140.848 57.92C139.834 57.4133 138.634 57.16 137.248 57.16C135.861 57.16 134.714 57.5333 133.808 58.28C132.768 60.1733 132.248 62.4667 132.248 65.16C132.248 69.3467 133.141 71.9733 134.928 73.04C135.701 73.4667 136.648 73.68 137.768 73.68ZM170.927 73.36C172.18 73.36 173.487 72.9867 174.847 72.24V68.96C174.847 68.3467 174.793 67.4533 174.687 66.28C173.753 66.0133 172.54 65.7467 171.047 65.48L171.167 64.64C171.78 64.72 172.367 64.76 172.927 64.76C175.273 64.76 177.42 64.1067 179.367 62.8L179.727 63.52C179.113 64 178.633 64.48 178.287 64.96C177.78 69.6 177.513 73.9333 177.487 77.96C176.713 79.3733 175.433 80.7333 173.647 82.04C171.887 83.3467 170.273 84 168.807 84C168.407 84 168.073 83.8933 167.807 83.68C167.54 83.4667 167.407 83.1733 167.407 82.8C168.18 82.2133 168.833 81.5333 169.367 80.76L169.647 80.72C170.233 81.1733 170.913 81.4 171.687 81.4C172.46 81.4 172.993 81.32 173.287 81.16C174.38 79.6933 174.927 77.2933 174.927 73.96C173.46 75.1067 171.833 75.9867 170.047 76.6C166.847 76.6 164.433 75.6 162.807 73.6C161.207 71.5733 160.407 68.7867 160.407 65.24C160.407 61.6667 161.38 58.36 163.327 55.32C165.3 52.2533 167.94 50.2667 171.247 49.36C174.02 49.36 176.807 49.6133 179.607 50.12L179.567 51C178.9 51 178.26 51.12 177.647 51.36C176.927 53.04 176.487 54.92 176.327 57H175.327C175.087 55.9067 174.967 54.6667 174.967 53.28C173.713 52.5867 172.18 52.24 170.367 52.24C168.553 52.24 167.1 52.6933 166.007 53.6C164.647 55.92 163.967 58.8667 163.967 62.44C163.967 69.72 166.287 73.36 170.927 73.36ZM186.232 66.12C186.312 68.4933 186.752 70.3467 187.552 71.68C188.352 73.0133 189.712 73.68 191.632 73.68C193.552 73.68 195.326 72.8667 196.952 71.24L197.512 71.8C195.726 74.0667 193.579 75.6267 191.072 76.48C188.486 76.48 186.459 75.6667 184.992 74.04C183.526 72.3867 182.792 70.1733 182.792 67.4C182.792 64.6 183.659 61.9733 185.392 59.52C187.126 57.0667 189.339 55.4533 192.032 54.68C193.979 54.68 196.179 54.88 198.632 55.28L198.592 56.16C198.086 56.16 197.606 56.2533 197.152 56.44C196.646 57.64 196.312 59.0667 196.152 60.72H195.152C194.939 59.8133 194.832 58.88 194.832 57.92C193.819 57.4133 192.619 57.16 191.232 57.16C189.846 57.16 188.699 57.5333 187.792 58.28C186.886 59.9333 186.366 61.9067 186.232 64.2C187.352 64.3867 188.552 64.48 189.832 64.48C192.046 64.48 193.379 64.0133 193.832 63.08L194.672 63.2C194.432 64 194.312 64.7867 194.312 65.56C194.312 66.3333 194.406 67.28 194.592 68.4L193.632 68.56C193.339 67.76 193.126 66.9333 192.992 66.08C191.926 65.9733 190.859 65.92 189.792 65.92C188.752 65.92 187.566 65.9867 186.232 66.12ZM211.002 73.76C211.002 72.1067 210.589 69.64 209.762 66.36C208.935 63.0533 208.015 59.8533 207.002 56.76L206.842 56.8L205.842 64.24C205.415 67.3067 205.202 70.0667 205.202 72.52C205.202 74.0133 205.669 75.0133 206.602 75.52L206.442 76.2C205.642 76.0667 204.589 76 203.282 76C202.002 76 200.589 76.1067 199.042 76.32L198.882 75.28C199.789 74.9867 200.642 74.7733 201.442 74.64L205.162 56.4C203.775 56.16 202.749 55.9467 202.082 55.76L202.202 54.72C204.122 55.0133 205.895 55.16 207.522 55.16C209.175 55.16 210.455 55.0667 211.362 54.88L211.442 55.56C210.722 55.7467 210.362 56.0533 210.362 56.48C210.362 57.0667 211.189 60.4533 212.842 66.64L213.722 69.64L214.002 69.56C214.002 68.8667 215.215 64.52 217.642 56.52C217.642 56.0667 217.282 55.7467 216.562 55.56L216.642 54.88C217.549 55.0667 218.829 55.16 220.482 55.16C222.162 55.16 223.949 55.0133 225.842 54.72L225.962 55.76C225.242 55.9467 224.322 56.1467 223.202 56.36C223.122 57 223.082 57.9467 223.082 59.2C223.082 60.4267 223.255 62.96 223.602 66.8C223.949 70.64 224.269 73.28 224.562 74.72C225.549 74.8533 226.562 75.04 227.602 75.28L227.482 76.28C226.095 76.0933 224.549 76 222.842 76C221.162 76 219.642 76.1067 218.282 76.32L218.122 75.28C219.002 75.0133 219.949 74.8133 220.962 74.68C220.882 68.3867 220.455 62.4533 219.682 56.88H219.562C216.815 64.9867 215.349 70.24 215.162 72.64C214.602 72.8267 213.949 73.1733 213.202 73.68C212.455 74.16 211.882 74.64 211.482 75.12L211.002 74.8V73.76ZM232.307 72.96C233.534 73.4667 234.747 73.72 235.947 73.72C237.147 73.72 238.107 73.44 238.827 72.88C239.547 72.32 239.907 71.52 239.907 70.48C239.907 69.4133 238.401 68.0933 235.387 66.52C234.241 65.9333 233.187 65.2267 232.227 64.4C231.294 63.5467 230.827 62.7067 230.827 61.88C230.827 60.4667 231.574 59.04 233.067 57.6C234.561 56.16 236.094 55.1867 237.667 54.68C239.641 54.68 241.427 54.88 243.027 55.28V56C241.907 57.12 241.281 58.6533 241.147 60.6H240.147C240.147 59.8533 240.081 58.92 239.947 57.8C239.014 57.3733 238.014 57.16 236.947 57.16C235.881 57.16 234.987 57.4 234.267 57.88C233.574 58.3333 233.227 59 233.227 59.88C233.227 60.4933 233.694 61.16 234.627 61.88C235.587 62.6 236.627 63.24 237.747 63.8C238.867 64.36 239.894 65.0533 240.827 65.88C241.787 66.7067 242.267 67.5333 242.267 68.36C242.267 69.96 241.561 71.56 240.147 73.16C238.734 74.7333 237.174 75.84 235.467 76.48C233.787 76.48 232.214 76.28 230.747 75.88C230.321 76.0667 229.881 76.3733 229.427 76.8L228.707 76.28C230.201 74.6533 231.027 72.64 231.187 70.24H232.187C232.187 71.1733 232.227 72.08 232.307 72.96ZM256.783 73.76C256.783 72.1067 256.37 69.64 255.543 66.36C254.716 63.0533 253.796 59.8533 252.783 56.76L252.623 56.8L251.623 64.24C251.196 67.3067 250.983 70.0667 250.983 72.52C250.983 74.0133 251.45 75.0133 252.383 75.52L252.223 76.2C251.423 76.0667 250.37 76 249.063 76C247.783 76 246.37 76.1067 244.823 76.32L244.663 75.28C245.57 74.9867 246.423 74.7733 247.223 74.64L250.943 56.4C249.556 56.16 248.53 55.9467 247.863 55.76L247.983 54.72C249.903 55.0133 251.676 55.16 253.303 55.16C254.956 55.16 256.236 55.0667 257.143 54.88L257.223 55.56C256.503 55.7467 256.143 56.0533 256.143 56.48C256.143 57.0667 256.97 60.4533 258.623 66.64L259.503 69.64L259.783 69.56C259.783 68.8667 260.996 64.52 263.423 56.52C263.423 56.0667 263.063 55.7467 262.343 55.56L262.423 54.88C263.33 55.0667 264.61 55.16 266.263 55.16C267.943 55.16 269.73 55.0133 271.623 54.72L271.743 55.76C271.023 55.9467 270.103 56.1467 268.983 56.36C268.903 57 268.863 57.9467 268.863 59.2C268.863 60.4267 269.036 62.96 269.383 66.8C269.73 70.64 270.05 73.28 270.343 74.72C271.33 74.8533 272.343 75.04 273.383 75.28L273.263 76.28C271.876 76.0933 270.33 76 268.623 76C266.943 76 265.423 76.1067 264.063 76.32L263.903 75.28C264.783 75.0133 265.73 74.8133 266.743 74.68C266.663 68.3867 266.236 62.4533 265.463 56.88H265.343C262.596 64.9867 261.13 70.24 260.943 72.64C260.383 72.8267 259.73 73.1733 258.983 73.68C258.236 74.16 257.663 74.64 257.263 75.12L256.783 74.8V73.76ZM281.648 56.48C281.435 57.92 281.328 60.8667 281.328 65.32C281.328 69.7733 281.448 72.8933 281.688 74.68C282.888 74.8133 283.995 75.0133 285.008 75.28L284.888 76.28C283.502 76.0933 281.942 76 280.208 76C278.502 76 276.968 76.1067 275.608 76.32L275.448 75.28C276.195 75.04 277.035 74.84 277.968 74.68C278.208 72.76 278.328 70.04 278.328 66.52V64.64C278.328 61.12 278.195 58.4 277.928 56.48C276.995 56.32 276.155 56.12 275.408 55.88L275.568 54.84C276.928 55.0533 278.462 55.16 280.168 55.16C281.902 55.16 283.462 55.0667 284.848 54.88L284.968 55.88C283.955 56.1467 282.848 56.3467 281.648 56.48ZM300.792 57.32C299.859 56.8667 298.966 56.64 298.112 56.64C297.259 56.64 296.686 56.6933 296.392 56.8C296.179 58.24 296.072 61.0267 296.072 65.16C296.072 69.2933 296.219 72.4667 296.512 74.68C297.712 74.8133 298.819 75.0133 299.832 75.28L299.712 76.28C298.326 76.0933 296.726 76 294.912 76C293.126 76 291.552 76.1067 290.192 76.32L290.032 75.28C290.566 75.12 291.486 74.92 292.792 74.68C293.032 72.76 293.152 70.04 293.152 66.52V64.64C293.152 62.7733 293.006 60.16 292.712 56.8C292.419 56.6933 291.872 56.64 291.072 56.64C290.272 56.64 289.419 56.8267 288.512 57.2C288.246 58.0267 288.059 59.1333 287.952 60.52H286.912C286.912 58.3333 286.552 56.64 285.832 55.44L286.032 54.76C288.086 55.0267 290.966 55.16 294.672 55.16C298.379 55.16 301.366 55.0133 303.632 54.72L303.872 55.48C303.206 56.2267 302.752 56.96 302.512 57.68C302.272 58.3733 302.126 59.32 302.072 60.52H301.072C300.886 59.64 300.792 58.5733 300.792 57.32ZM317.579 54.84C318.939 55.0533 320.472 55.16 322.179 55.16C323.912 55.16 325.472 55.0667 326.859 54.88L326.979 55.88C325.965 56.1467 324.859 56.3467 323.659 56.48C323.392 58.1333 323.259 60.8533 323.259 64.64V66.52C323.259 70.36 323.392 73.08 323.659 74.68C324.859 74.8133 325.965 75.0133 326.979 75.28L326.859 76.28C325.472 76.0933 323.912 76 322.179 76C320.472 76 318.939 76.1067 317.579 76.32L317.419 75.28C318.165 75.04 319.005 74.84 319.939 74.68C320.152 71.6667 320.272 68.6533 320.299 65.64C318.592 65.48 317.019 65.4 315.579 65.4C314.139 65.4 312.579 65.48 310.899 65.64C310.899 70.04 311.019 73.0533 311.259 74.68C312.459 74.8133 313.565 75.0133 314.579 75.28L314.459 76.28C313.072 76.0933 311.512 76 309.779 76C308.072 76 306.539 76.1067 305.179 76.32L305.019 75.28C305.765 75.04 306.605 74.84 307.539 74.68C307.779 72.76 307.899 70.04 307.899 66.52V64.64C307.899 61.12 307.765 58.4 307.499 56.48C306.565 56.32 305.725 56.12 304.979 55.88L305.139 54.84C306.499 55.0533 308.032 55.16 309.739 55.16C311.472 55.16 313.032 55.0667 314.419 54.88L314.539 55.88C313.525 56.1467 312.419 56.3467 311.219 56.48C311.005 58.0267 310.899 60.4133 310.899 63.64C312.392 63.8533 313.992 63.96 315.699 63.96C317.432 63.96 318.965 63.8667 320.299 63.68C320.272 61.4133 320.152 59.0133 319.939 56.48C319.005 56.32 318.165 56.12 317.419 55.88L317.579 54.84Z" fill="#FAF9F6"/>
<path d="M41.6215 385V368.2H48.7735C49.7335 368.2 50.6135 368.44 51.4135 368.92C52.2295 369.384 52.8775 370.024 53.3575 370.84C53.8375 371.64 54.0775 372.544 54.0775 373.552C54.0775 374.464 53.8375 375.312 53.3575 376.096C52.8775 376.88 52.2375 377.512 51.4375 377.992C50.6375 378.456 49.7495 378.688 48.7735 378.688H44.2135V385H41.6215ZM51.6055 385L47.3335 377.416L49.9975 376.816L54.7495 385.024L51.6055 385ZM44.2135 376.192H49.0135C49.4775 376.192 49.8935 376.08 50.2615 375.856C50.6295 375.616 50.9175 375.296 51.1255 374.896C51.3335 374.48 51.4375 374.024 51.4375 373.528C51.4375 372.968 51.3015 372.48 51.0295 372.064C50.7735 371.632 50.4055 371.296 49.9255 371.056C49.4615 370.816 48.9335 370.696 48.3415 370.696H44.2135V376.192ZM63.0963 385.24C61.8003 385.24 60.6483 384.968 59.6403 384.424C58.6483 383.864 57.8643 383.104 57.2883 382.144C56.7283 381.184 56.4483 380.08 56.4483 378.832C56.4483 377.84 56.6083 376.936 56.9283 376.12C57.2483 375.304 57.6883 374.6 58.2483 374.008C58.8243 373.4 59.5043 372.936 60.2883 372.616C61.0883 372.28 61.9523 372.112 62.8803 372.112C63.6963 372.112 64.4563 372.272 65.1603 372.592C65.8643 372.896 66.4723 373.32 66.9843 373.864C67.5123 374.408 67.9123 375.056 68.1843 375.808C68.4723 376.544 68.6083 377.352 68.5923 378.232L68.5683 379.288H58.2723L57.7203 377.32H66.4323L66.0723 377.728V377.152C66.0243 376.624 65.8483 376.152 65.5443 375.736C65.2403 375.32 64.8563 374.992 64.3923 374.752C63.9283 374.512 63.4243 374.392 62.8803 374.392C62.0163 374.392 61.2883 374.56 60.6963 374.896C60.1043 375.216 59.6563 375.696 59.3523 376.336C59.0483 376.96 58.8963 377.736 58.8963 378.664C58.8963 379.544 59.0803 380.312 59.4483 380.968C59.8163 381.608 60.3363 382.104 61.0083 382.456C61.6803 382.808 62.4563 382.984 63.3363 382.984C63.9603 382.984 64.5363 382.88 65.0643 382.672C65.6083 382.464 66.1923 382.088 66.8163 381.544L68.0643 383.296C67.6803 383.68 67.2083 384.016 66.6483 384.304C66.1043 384.592 65.5203 384.824 64.8963 385C64.2883 385.16 63.6883 385.24 63.0963 385.24ZM70.8228 379.36V376.912H77.7348V379.36H70.8228ZM80.7241 385V372.4H83.2201V376.36L82.9801 375.4C83.1561 374.792 83.4521 374.24 83.8681 373.744C84.3001 373.248 84.7881 372.856 85.3321 372.568C85.8921 372.28 86.4681 372.136 87.0601 372.136C87.3321 372.136 87.5881 372.16 87.8281 372.208C88.0841 372.256 88.2841 372.312 88.4281 372.376L87.7801 375.064C87.5881 374.984 87.3721 374.92 87.1321 374.872C86.9081 374.808 86.6841 374.776 86.4601 374.776C86.0281 374.776 85.6121 374.864 85.2121 375.04C84.8281 375.2 84.4841 375.432 84.1801 375.736C83.8921 376.024 83.6601 376.368 83.4841 376.768C83.3081 377.152 83.2201 377.576 83.2201 378.04V385H80.7241ZM95.5287 385.24C94.2967 385.24 93.1927 384.96 92.2167 384.4C91.2567 383.824 90.4967 383.048 89.9367 382.072C89.3767 381.08 89.0967 379.952 89.0967 378.688C89.0967 377.424 89.3767 376.304 89.9367 375.328C90.4967 374.336 91.2567 373.56 92.2167 373C93.1927 372.424 94.2967 372.136 95.5287 372.136C96.7447 372.136 97.8327 372.424 98.7927 373C99.7687 373.56 100.537 374.336 101.097 375.328C101.657 376.304 101.937 377.424 101.937 378.688C101.937 379.952 101.657 381.08 101.097 382.072C100.537 383.048 99.7687 383.824 98.7927 384.4C97.8327 384.96 96.7447 385.24 95.5287 385.24ZM95.5287 382.984C96.2807 382.984 96.9527 382.8 97.5447 382.432C98.1367 382.048 98.6007 381.536 98.9367 380.896C99.2727 380.24 99.4327 379.504 99.4167 378.688C99.4327 377.856 99.2727 377.12 98.9367 376.48C98.6007 375.824 98.1367 375.312 97.5447 374.944C96.9527 374.576 96.2807 374.392 95.5287 374.392C94.7767 374.392 94.0967 374.584 93.4887 374.968C92.8967 375.336 92.4327 375.848 92.0967 376.504C91.7607 377.144 91.6007 377.872 91.6167 378.688C91.6007 379.504 91.7607 380.24 92.0967 380.896C92.4327 381.536 92.8967 382.048 93.4887 382.432C94.0967 382.8 94.7767 382.984 95.5287 382.984ZM104.678 385V367.24H107.15V385H104.678ZM110.702 385V367.24H113.174V385H110.702ZM124.964 385V369.184H127.436V385H124.964ZM122.348 374.8V372.4H130.364V374.8H122.348ZM132.615 385V367.24H135.087V374.992L134.655 375.28C134.815 374.72 135.127 374.208 135.591 373.744C136.055 373.264 136.607 372.88 137.247 372.592C137.887 372.288 138.543 372.136 139.215 372.136C140.175 372.136 140.975 372.328 141.615 372.712C142.255 373.08 142.735 373.648 143.055 374.416C143.375 375.184 143.535 376.152 143.535 377.32V385H141.063V377.488C141.063 376.768 140.967 376.176 140.775 375.712C140.583 375.232 140.287 374.888 139.887 374.68C139.487 374.456 138.991 374.36 138.399 374.392C137.919 374.392 137.479 374.472 137.079 374.632C136.679 374.776 136.327 374.984 136.023 375.256C135.735 375.528 135.503 375.848 135.327 376.216C135.167 376.568 135.087 376.952 135.087 377.368V385H133.863C133.655 385 133.447 385 133.239 385C133.031 385 132.823 385 132.615 385ZM152.768 385.24C151.472 385.24 150.32 384.968 149.312 384.424C148.32 383.864 147.536 383.104 146.96 382.144C146.4 381.184 146.12 380.08 146.12 378.832C146.12 377.84 146.28 376.936 146.6 376.12C146.92 375.304 147.36 374.6 147.92 374.008C148.496 373.4 149.176 372.936 149.96 372.616C150.76 372.28 151.624 372.112 152.552 372.112C153.368 372.112 154.128 372.272 154.832 372.592C155.536 372.896 156.144 373.32 156.656 373.864C157.184 374.408 157.584 375.056 157.856 375.808C158.144 376.544 158.28 377.352 158.264 378.232L158.24 379.288H147.944L147.392 377.32H156.104L155.744 377.728V377.152C155.696 376.624 155.52 376.152 155.216 375.736C154.912 375.32 154.528 374.992 154.064 374.752C153.6 374.512 153.096 374.392 152.552 374.392C151.688 374.392 150.96 374.56 150.368 374.896C149.776 375.216 149.328 375.696 149.024 376.336C148.72 376.96 148.568 377.736 148.568 378.664C148.568 379.544 148.752 380.312 149.12 380.968C149.488 381.608 150.008 382.104 150.68 382.456C151.352 382.808 152.128 382.984 153.008 382.984C153.632 382.984 154.208 382.88 154.736 382.672C155.28 382.464 155.864 382.088 156.488 381.544L157.736 383.296C157.352 383.68 156.88 384.016 156.32 384.304C155.776 384.592 155.192 384.824 154.568 385C153.96 385.16 153.36 385.24 152.768 385.24ZM173.029 385.24C171.861 385.24 170.813 384.952 169.885 384.376C168.973 383.8 168.245 383.016 167.701 382.024C167.173 381.032 166.909 379.92 166.909 378.688C166.909 377.456 167.173 376.344 167.701 375.352C168.245 374.36 168.973 373.576 169.885 373C170.813 372.424 171.861 372.136 173.029 372.136C174.149 372.136 175.165 372.368 176.077 372.832C177.005 373.28 177.709 373.896 178.189 374.68L176.821 376.36C176.565 375.992 176.237 375.656 175.837 375.352C175.437 375.048 175.013 374.808 174.565 374.632C174.117 374.456 173.685 374.368 173.269 374.368C172.501 374.368 171.813 374.56 171.205 374.944C170.613 375.312 170.141 375.824 169.789 376.48C169.437 377.136 169.261 377.872 169.261 378.688C169.261 379.504 169.445 380.24 169.813 380.896C170.181 381.536 170.669 382.048 171.277 382.432C171.885 382.816 172.557 383.008 173.293 383.008C173.725 383.008 174.141 382.936 174.541 382.792C174.957 382.648 175.357 382.432 175.741 382.144C176.125 381.856 176.485 381.504 176.821 381.088L178.189 382.768C177.677 383.488 176.941 384.08 175.981 384.544C175.037 385.008 174.053 385.24 173.029 385.24ZM184.937 385.24C184.041 385.24 183.257 385.032 182.585 384.616C181.929 384.2 181.417 383.616 181.049 382.864C180.697 382.112 180.521 381.216 180.521 380.176V372.4H182.993V379.504C182.993 380.24 183.105 380.88 183.329 381.424C183.569 381.952 183.905 382.36 184.337 382.648C184.785 382.936 185.321 383.08 185.945 383.08C186.409 383.08 186.833 383.008 187.217 382.864C187.601 382.704 187.929 382.488 188.201 382.216C188.489 381.944 188.713 381.616 188.873 381.232C189.033 380.848 189.113 380.432 189.113 379.984V372.4H191.585V385H189.113V382.36L189.545 382.072C189.353 382.664 189.025 383.2 188.561 383.68C188.113 384.16 187.577 384.544 186.953 384.832C186.329 385.104 185.657 385.24 184.937 385.24ZM195.052 385V372.4H197.548V376.36L197.308 375.4C197.484 374.792 197.78 374.24 198.196 373.744C198.628 373.248 199.116 372.856 199.66 372.568C200.22 372.28 200.796 372.136 201.388 372.136C201.66 372.136 201.916 372.16 202.156 372.208C202.412 372.256 202.612 372.312 202.756 372.376L202.108 375.064C201.916 374.984 201.7 374.92 201.46 374.872C201.236 374.808 201.012 374.776 200.788 374.776C200.356 374.776 199.94 374.864 199.54 375.04C199.156 375.2 198.812 375.432 198.508 375.736C198.22 376.024 197.988 376.368 197.812 376.768C197.636 377.152 197.548 377.576 197.548 378.04V385H195.052ZM204.732 385V372.4H207.228V376.36L206.988 375.4C207.164 374.792 207.46 374.24 207.876 373.744C208.308 373.248 208.796 372.856 209.34 372.568C209.9 372.28 210.476 372.136 211.068 372.136C211.34 372.136 211.596 372.16 211.836 372.208C212.092 372.256 212.292 372.312 212.436 372.376L211.788 375.064C211.596 374.984 211.38 374.92 211.14 374.872C210.916 374.808 210.692 374.776 210.468 374.776C210.036 374.776 209.62 374.864 209.22 375.04C208.836 375.2 208.492 375.432 208.188 375.736C207.9 376.024 207.668 376.368 207.492 376.768C207.316 377.152 207.228 377.576 207.228 378.04V385H204.732ZM219.753 385.24C218.457 385.24 217.305 384.968 216.297 384.424C215.305 383.864 214.521 383.104 213.945 382.144C213.385 381.184 213.105 380.08 213.105 378.832C213.105 377.84 213.265 376.936 213.585 376.12C213.905 375.304 214.345 374.6 214.905 374.008C215.481 373.4 216.161 372.936 216.945 372.616C217.745 372.28 218.609 372.112 219.537 372.112C220.353 372.112 221.113 372.272 221.817 372.592C222.521 372.896 223.129 373.32 223.641 373.864C224.169 374.408 224.569 375.056 224.841 375.808C225.129 376.544 225.265 377.352 225.249 378.232L225.225 379.288H214.929L214.377 377.32H223.089L222.729 377.728V377.152C222.681 376.624 222.505 376.152 222.201 375.736C221.897 375.32 221.513 374.992 221.049 374.752C220.585 374.512 220.081 374.392 219.537 374.392C218.673 374.392 217.945 374.56 217.353 374.896C216.761 375.216 216.313 375.696 216.009 376.336C215.705 376.96 215.553 377.736 215.553 378.664C215.553 379.544 215.737 380.312 216.105 380.968C216.473 381.608 216.993 382.104 217.665 382.456C218.337 382.808 219.113 382.984 219.993 382.984C220.617 382.984 221.193 382.88 221.721 382.672C222.265 382.464 222.849 382.088 223.473 381.544L224.721 383.296C224.337 383.68 223.865 384.016 223.305 384.304C222.761 384.592 222.177 384.824 221.553 385C220.945 385.16 220.345 385.24 219.753 385.24ZM227.935 385V372.4H230.407V374.992L229.975 375.28C230.135 374.72 230.447 374.208 230.911 373.744C231.375 373.264 231.927 372.88 232.567 372.592C233.207 372.288 233.863 372.136 234.535 372.136C235.495 372.136 236.295 372.328 236.935 372.712C237.575 373.08 238.055 373.648 238.375 374.416C238.695 375.184 238.855 376.152 238.855 377.32V385H236.383V377.488C236.383 376.768 236.287 376.176 236.095 375.712C235.903 375.232 235.607 374.888 235.207 374.68C234.807 374.456 234.311 374.36 233.719 374.392C233.239 374.392 232.799 374.472 232.399 374.632C231.999 374.776 231.647 374.984 231.343 375.256C231.055 375.528 230.823 375.848 230.647 376.216C230.487 376.568 230.407 376.952 230.407 377.368V385H229.183C228.975 385 228.767 385 228.559 385C228.351 385 228.143 385 227.935 385ZM243.768 385V369.184H246.24V385H243.768ZM241.152 374.8V372.4H249.168V374.8H241.152ZM263.786 390.52C262.89 390.52 261.994 390.376 261.098 390.088C260.218 389.816 259.506 389.456 258.962 389.008L259.874 387.088C260.194 387.328 260.57 387.536 261.002 387.712C261.434 387.904 261.89 388.048 262.37 388.144C262.85 388.256 263.322 388.312 263.786 388.312C264.666 388.312 265.402 388.168 265.994 387.88C266.586 387.592 267.034 387.168 267.338 386.608C267.642 386.048 267.794 385.352 267.794 384.52V382.096L268.058 382.264C267.978 382.76 267.714 383.24 267.266 383.704C266.834 384.152 266.29 384.52 265.634 384.808C264.978 385.096 264.306 385.24 263.618 385.24C262.418 385.24 261.346 384.96 260.402 384.4C259.474 383.824 258.738 383.048 258.194 382.072C257.65 381.08 257.378 379.952 257.378 378.688C257.378 377.424 257.642 376.304 258.17 375.328C258.714 374.336 259.45 373.56 260.378 373C261.322 372.424 262.378 372.136 263.546 372.136C264.026 372.136 264.49 372.2 264.938 372.328C265.386 372.44 265.802 372.608 266.186 372.832C266.57 373.04 266.914 373.272 267.218 373.528C267.522 373.784 267.77 374.056 267.962 374.344C268.154 374.632 268.274 374.904 268.322 375.16L267.794 375.352V372.4H270.266V384.232C270.266 385.24 270.114 386.128 269.81 386.896C269.522 387.68 269.098 388.336 268.538 388.864C267.978 389.408 267.298 389.816 266.498 390.088C265.698 390.376 264.794 390.52 263.786 390.52ZM263.882 382.96C264.666 382.96 265.362 382.776 265.97 382.408C266.578 382.04 267.05 381.536 267.386 380.896C267.722 380.256 267.89 379.52 267.89 378.688C267.89 377.856 267.714 377.12 267.362 376.48C267.026 375.824 266.554 375.312 265.946 374.944C265.354 374.576 264.666 374.392 263.882 374.392C263.114 374.392 262.426 374.584 261.818 374.968C261.226 375.336 260.754 375.848 260.402 376.504C260.066 377.144 259.898 377.872 259.898 378.688C259.898 379.504 260.066 380.24 260.402 380.896C260.754 381.536 261.226 382.04 261.818 382.408C262.426 382.776 263.114 382.96 263.882 382.96ZM279.612 385.24C278.316 385.24 277.164 384.968 276.156 384.424C275.164 383.864 274.38 383.104 273.804 382.144C273.244 381.184 272.964 380.08 272.964 378.832C272.964 377.84 273.124 376.936 273.444 376.12C273.764 375.304 274.204 374.6 274.764 374.008C275.34 373.4 276.02 372.936 276.804 372.616C277.604 372.28 278.468 372.112 279.396 372.112C280.212 372.112 280.972 372.272 281.676 372.592C282.38 372.896 282.988 373.32 283.5 373.864C284.028 374.408 284.428 375.056 284.7 375.808C284.988 376.544 285.124 377.352 285.108 378.232L285.084 379.288H274.788L274.236 377.32H282.948L282.588 377.728V377.152C282.54 376.624 282.364 376.152 282.06 375.736C281.756 375.32 281.372 374.992 280.908 374.752C280.444 374.512 279.94 374.392 279.396 374.392C278.532 374.392 277.804 374.56 277.212 374.896C276.62 375.216 276.172 375.696 275.868 376.336C275.564 376.96 275.412 377.736 275.412 378.664C275.412 379.544 275.596 380.312 275.964 380.968C276.332 381.608 276.852 382.104 277.524 382.456C278.196 382.808 278.972 382.984 279.852 382.984C280.476 382.984 281.052 382.88 281.58 382.672C282.124 382.464 282.708 382.088 283.332 381.544L284.58 383.296C284.196 383.68 283.724 384.016 283.164 384.304C282.62 384.592 282.036 384.824 281.412 385C280.804 385.16 280.204 385.24 279.612 385.24ZM287.746 385V372.4H290.242V375.088L289.786 375.376C289.914 374.96 290.114 374.56 290.386 374.176C290.674 373.792 291.018 373.456 291.418 373.168C291.834 372.864 292.274 372.624 292.738 372.448C293.218 372.272 293.706 372.184 294.202 372.184C294.922 372.184 295.554 372.304 296.098 372.544C296.642 372.784 297.09 373.144 297.442 373.624C297.794 374.104 298.05 374.704 298.21 375.424L297.826 375.328L297.994 374.92C298.17 374.552 298.41 374.208 298.714 373.888C299.034 373.552 299.394 373.256 299.794 373C300.194 372.744 300.618 372.544 301.066 372.4C301.514 372.256 301.954 372.184 302.386 372.184C303.33 372.184 304.106 372.376 304.714 372.76C305.338 373.144 305.802 373.728 306.106 374.512C306.426 375.296 306.586 376.272 306.586 377.44V385H304.09V377.584C304.09 376.864 303.994 376.28 303.802 375.832C303.626 375.368 303.354 375.024 302.986 374.8C302.618 374.576 302.146 374.464 301.57 374.464C301.122 374.464 300.698 374.544 300.298 374.704C299.914 374.848 299.578 375.056 299.29 375.328C299.002 375.6 298.778 375.92 298.618 376.288C298.458 376.64 298.378 377.032 298.378 377.464V385H295.882V377.536C295.882 376.88 295.786 376.328 295.594 375.88C295.402 375.416 295.122 375.064 294.754 374.824C294.386 374.584 293.938 374.464 293.41 374.464C292.962 374.464 292.546 374.544 292.162 374.704C291.778 374.848 291.442 375.056 291.154 375.328C290.866 375.584 290.642 375.896 290.482 376.264C290.322 376.616 290.242 377 290.242 377.416V385H287.746ZM46.3495 420.24C45.1815 420.24 44.1335 419.952 43.2055 419.376C42.2935 418.8 41.5655 418.016 41.0215 417.024C40.4935 416.032 40.2295 414.92 40.2295 413.688C40.2295 412.456 40.4935 411.344 41.0215 410.352C41.5655 409.36 42.2935 408.576 43.2055 408C44.1335 407.424 45.1815 407.136 46.3495 407.136C47.4695 407.136 48.4855 407.368 49.3975 407.832C50.3255 408.28 51.0295 408.896 51.5095 409.68L50.1415 411.36C49.8855 410.992 49.5575 410.656 49.1575 410.352C48.7575 410.048 48.3335 409.808 47.8855 409.632C47.4375 409.456 47.0055 409.368 46.5895 409.368C45.8215 409.368 45.1335 409.56 44.5255 409.944C43.9335 410.312 43.4615 410.824 43.1095 411.48C42.7575 412.136 42.5815 412.872 42.5815 413.688C42.5815 414.504 42.7655 415.24 43.1335 415.896C43.5015 416.536 43.9895 417.048 44.5975 417.432C45.2055 417.816 45.8775 418.008 46.6135 418.008C47.0455 418.008 47.4615 417.936 47.8615 417.792C48.2775 417.648 48.6775 417.432 49.0615 417.144C49.4455 416.856 49.8055 416.504 50.1415 416.088L51.5095 417.768C50.9975 418.488 50.2615 419.08 49.3015 419.544C48.3575 420.008 47.3735 420.24 46.3495 420.24ZM58.6893 420.24C57.6493 420.24 56.6973 419.952 55.8333 419.376C54.9853 418.8 54.3053 418.016 53.7933 417.024C53.2813 416.032 53.0253 414.912 53.0253 413.664C53.0253 412.4 53.2813 411.28 53.7933 410.304C54.3213 409.312 55.0253 408.536 55.9053 407.976C56.8013 407.416 57.8013 407.136 58.9053 407.136C59.5613 407.136 60.1613 407.232 60.7053 407.424C61.2493 407.616 61.7213 407.888 62.1213 408.24C62.5373 408.576 62.8733 408.968 63.1293 409.416C63.4013 409.864 63.5693 410.344 63.6333 410.856L63.0813 410.664V407.4H65.5773V420H63.0813V417L63.6573 416.832C63.5613 417.264 63.3613 417.688 63.0573 418.104C62.7693 418.504 62.3933 418.864 61.9293 419.184C61.4813 419.504 60.9773 419.76 60.4173 419.952C59.8733 420.144 59.2973 420.24 58.6893 420.24ZM59.3373 417.96C60.0893 417.96 60.7533 417.776 61.3293 417.408C61.9053 417.04 62.3533 416.536 62.6733 415.896C63.0093 415.24 63.1773 414.496 63.1773 413.664C63.1773 412.848 63.0093 412.12 62.6733 411.48C62.3533 410.84 61.9053 410.336 61.3293 409.968C60.7533 409.6 60.0893 409.416 59.3373 409.416C58.6013 409.416 57.9453 409.6 57.3693 409.968C56.8093 410.336 56.3613 410.84 56.0253 411.48C55.7053 412.12 55.5453 412.848 55.5453 413.664C55.5453 414.496 55.7053 415.24 56.0253 415.896C56.3613 416.536 56.8093 417.04 57.3693 417.408C57.9453 417.776 58.6013 417.96 59.3373 417.96ZM69.0288 420V407.4H71.5248V411.36L71.2848 410.4C71.4608 409.792 71.7568 409.24 72.1728 408.744C72.6048 408.248 73.0928 407.856 73.6368 407.568C74.1968 407.28 74.7728 407.136 75.3648 407.136C75.6368 407.136 75.8928 407.16 76.1328 407.208C76.3888 407.256 76.5888 407.312 76.7328 407.376L76.0848 410.064C75.8928 409.984 75.6768 409.92 75.4368 409.872C75.2128 409.808 74.9888 409.776 74.7648 409.776C74.3328 409.776 73.9168 409.864 73.5168 410.04C73.1328 410.2 72.7888 410.432 72.4848 410.736C72.1968 411.024 71.9648 411.368 71.7888 411.768C71.6128 412.152 71.5248 412.576 71.5248 413.04V420H69.0288ZM83.4254 420.24C82.2734 420.24 81.2414 419.96 80.3294 419.4C79.4334 418.824 78.7214 418.048 78.1934 417.072C77.6654 416.08 77.4014 414.952 77.4014 413.688C77.4014 412.424 77.6574 411.304 78.1694 410.328C78.6974 409.336 79.4094 408.56 80.3054 408C81.2014 407.424 82.2174 407.136 83.3534 407.136C83.9774 407.136 84.5774 407.24 85.1534 407.448C85.7454 407.64 86.2734 407.912 86.7374 408.264C87.2014 408.6 87.5614 408.976 87.8174 409.392C88.0894 409.792 88.2254 410.2 88.2254 410.616L87.5054 410.664V402.24H89.9774V420H87.5054V417H87.9854C87.9854 417.384 87.8574 417.768 87.6014 418.152C87.3454 418.52 87.0014 418.864 86.5694 419.184C86.1534 419.504 85.6654 419.76 85.1054 419.952C84.5614 420.144 84.0014 420.24 83.4254 420.24ZM83.7614 418.104C84.5134 418.104 85.1774 417.912 85.7534 417.528C86.3294 417.144 86.7774 416.624 87.0974 415.968C87.4334 415.296 87.6014 414.536 87.6014 413.688C87.6014 412.84 87.4334 412.088 87.0974 411.432C86.7774 410.76 86.3294 410.232 85.7534 409.848C85.1774 409.464 84.5134 409.272 83.7614 409.272C83.0094 409.272 82.3454 409.464 81.7694 409.848C81.1934 410.232 80.7374 410.76 80.4014 411.432C80.0814 412.088 79.9214 412.84 79.9214 413.688C79.9214 414.536 80.0814 415.296 80.4014 415.968C80.7374 416.624 81.1934 417.144 81.7694 417.528C82.3454 417.912 83.0094 418.104 83.7614 418.104ZM93.7643 424.296L92.8523 423.192C93.4123 422.872 93.8683 422.504 94.2203 422.088C94.5723 421.672 94.7483 421.312 94.7483 421.008C94.7483 420.848 94.7083 420.688 94.6283 420.528C94.5483 420.384 94.3803 420.176 94.1243 419.904C93.8043 419.6 93.5963 419.344 93.5003 419.136C93.4043 418.928 93.3563 418.704 93.3563 418.464C93.3563 418.08 93.4923 417.776 93.7643 417.552C94.0363 417.312 94.3883 417.192 94.8203 417.192C95.2203 417.192 95.5803 417.312 95.9003 417.552C96.2363 417.776 96.4923 418.096 96.6683 418.512C96.8603 418.912 96.9563 419.376 96.9563 419.904C96.9563 420.384 96.8763 420.848 96.7163 421.296C96.5563 421.744 96.3323 422.16 96.0443 422.544C95.7563 422.928 95.4203 423.272 95.0363 423.576C94.6523 423.88 94.2283 424.12 93.7643 424.296ZM108.065 420V404.184H110.537V420H108.065ZM105.449 409.8V407.4H113.465V409.8H105.449ZM115.716 420V402.24H118.188V409.992L117.756 410.28C117.916 409.72 118.228 409.208 118.692 408.744C119.156 408.264 119.708 407.88 120.348 407.592C120.988 407.288 121.644 407.136 122.316 407.136C123.276 407.136 124.076 407.328 124.716 407.712C125.356 408.08 125.836 408.648 126.156 409.416C126.476 410.184 126.636 411.152 126.636 412.32V420H124.164V412.488C124.164 411.768 124.068 411.176 123.876 410.712C123.684 410.232 123.388 409.888 122.988 409.68C122.588 409.456 122.092 409.36 121.5 409.392C121.02 409.392 120.58 409.472 120.18 409.632C119.78 409.776 119.428 409.984 119.124 410.256C118.836 410.528 118.604 410.848 118.428 411.216C118.268 411.568 118.188 411.952 118.188 412.368V420H116.964C116.756 420 116.548 420 116.34 420C116.132 420 115.924 420 115.716 420ZM135.87 420.24C134.574 420.24 133.422 419.968 132.414 419.424C131.422 418.864 130.638 418.104 130.062 417.144C129.502 416.184 129.222 415.08 129.222 413.832C129.222 412.84 129.382 411.936 129.702 411.12C130.022 410.304 130.462 409.6 131.022 409.008C131.598 408.4 132.278 407.936 133.062 407.616C133.862 407.28 134.726 407.112 135.654 407.112C136.47 407.112 137.23 407.272 137.934 407.592C138.638 407.896 139.246 408.32 139.758 408.864C140.286 409.408 140.686 410.056 140.958 410.808C141.246 411.544 141.382 412.352 141.366 413.232L141.342 414.288H131.046L130.494 412.32H139.206L138.846 412.728V412.152C138.798 411.624 138.622 411.152 138.318 410.736C138.014 410.32 137.63 409.992 137.166 409.752C136.702 409.512 136.198 409.392 135.654 409.392C134.79 409.392 134.062 409.56 133.47 409.896C132.878 410.216 132.43 410.696 132.126 411.336C131.822 411.96 131.67 412.736 131.67 413.664C131.67 414.544 131.854 415.312 132.222 415.968C132.59 416.608 133.11 417.104 133.782 417.456C134.454 417.808 135.23 417.984 136.11 417.984C136.734 417.984 137.31 417.88 137.838 417.672C138.382 417.464 138.966 417.088 139.59 416.544L140.838 418.296C140.454 418.68 139.982 419.016 139.422 419.304C138.878 419.592 138.294 419.824 137.67 420C137.062 420.16 136.462 420.24 135.87 420.24ZM144.052 420V407.4H146.524V409.992L146.092 410.28C146.252 409.72 146.564 409.208 147.028 408.744C147.492 408.264 148.044 407.88 148.684 407.592C149.324 407.288 149.98 407.136 150.652 407.136C151.612 407.136 152.412 407.328 153.052 407.712C153.692 408.08 154.172 408.648 154.492 409.416C154.812 410.184 154.972 411.152 154.972 412.32V420H152.5V412.488C152.5 411.768 152.404 411.176 152.212 410.712C152.02 410.232 151.724 409.888 151.324 409.68C150.924 409.456 150.428 409.36 149.836 409.392C149.356 409.392 148.916 409.472 148.516 409.632C148.116 409.776 147.764 409.984 147.46 410.256C147.172 410.528 146.94 410.848 146.764 411.216C146.604 411.568 146.524 411.952 146.524 412.368V420H145.3C145.092 420 144.884 420 144.676 420C144.468 420 144.26 420 144.052 420ZM169.9 420.24C168.86 420.24 167.908 419.952 167.044 419.376C166.196 418.8 165.516 418.016 165.004 417.024C164.492 416.032 164.236 414.912 164.236 413.664C164.236 412.4 164.492 411.28 165.004 410.304C165.532 409.312 166.236 408.536 167.116 407.976C168.012 407.416 169.012 407.136 170.116 407.136C170.772 407.136 171.372 407.232 171.916 407.424C172.46 407.616 172.932 407.888 173.332 408.24C173.748 408.576 174.084 408.968 174.34 409.416C174.612 409.864 174.78 410.344 174.844 410.856L174.292 410.664V407.4H176.788V420H174.292V417L174.868 416.832C174.772 417.264 174.572 417.688 174.268 418.104C173.98 418.504 173.604 418.864 173.14 419.184C172.692 419.504 172.188 419.76 171.628 419.952C171.084 420.144 170.508 420.24 169.9 420.24ZM170.548 417.96C171.3 417.96 171.964 417.776 172.54 417.408C173.116 417.04 173.564 416.536 173.884 415.896C174.22 415.24 174.388 414.496 174.388 413.664C174.388 412.848 174.22 412.12 173.884 411.48C173.564 410.84 173.116 410.336 172.54 409.968C171.964 409.6 171.3 409.416 170.548 409.416C169.812 409.416 169.156 409.6 168.58 409.968C168.02 410.336 167.572 410.84 167.236 411.48C166.916 412.12 166.756 412.848 166.756 413.664C166.756 414.496 166.916 415.24 167.236 415.896C167.572 416.536 168.02 417.04 168.58 417.408C169.156 417.776 169.812 417.96 170.548 417.96ZM180.24 425.28V407.4H182.736V410.28L182.352 410.064C182.448 409.584 182.72 409.128 183.168 408.696C183.616 408.248 184.16 407.888 184.8 407.616C185.456 407.328 186.128 407.184 186.816 407.184C187.952 407.184 188.96 407.464 189.84 408.024C190.72 408.584 191.416 409.352 191.928 410.328C192.44 411.304 192.696 412.424 192.696 413.688C192.696 414.936 192.44 416.056 191.928 417.048C191.432 418.024 190.744 418.8 189.864 419.376C188.984 419.936 187.992 420.216 186.888 420.216C186.152 420.216 185.44 420.072 184.752 419.784C184.064 419.48 183.48 419.096 183 418.632C182.52 418.168 182.224 417.688 182.112 417.192L182.736 416.856V425.28H180.24ZM186.48 417.936C187.216 417.936 187.872 417.752 188.448 417.384C189.024 417.016 189.48 416.512 189.816 415.872C190.152 415.232 190.32 414.504 190.32 413.688C190.32 412.872 190.152 412.152 189.816 411.528C189.496 410.888 189.048 410.384 188.472 410.016C187.896 409.648 187.232 409.464 186.48 409.464C185.728 409.464 185.064 409.648 184.488 410.016C183.912 410.368 183.456 410.864 183.12 411.504C182.784 412.144 182.616 412.872 182.616 413.688C182.616 414.504 182.784 415.232 183.12 415.872C183.456 416.512 183.912 417.016 184.488 417.384C185.064 417.752 185.728 417.936 186.48 417.936ZM195.38 425.28V407.4H197.876V410.28L197.492 410.064C197.588 409.584 197.86 409.128 198.308 408.696C198.756 408.248 199.3 407.888 199.94 407.616C200.596 407.328 201.268 407.184 201.956 407.184C203.092 407.184 204.1 407.464 204.98 408.024C205.86 408.584 206.556 409.352 207.068 410.328C207.58 411.304 207.836 412.424 207.836 413.688C207.836 414.936 207.58 416.056 207.068 417.048C206.572 418.024 205.884 418.8 205.004 419.376C204.124 419.936 203.132 420.216 202.028 420.216C201.292 420.216 200.58 420.072 199.892 419.784C199.204 419.48 198.62 419.096 198.14 418.632C197.66 418.168 197.364 417.688 197.252 417.192L197.876 416.856V425.28H195.38ZM201.62 417.936C202.356 417.936 203.012 417.752 203.588 417.384C204.164 417.016 204.62 416.512 204.956 415.872C205.292 415.232 205.46 414.504 205.46 413.688C205.46 412.872 205.292 412.152 204.956 411.528C204.636 410.888 204.188 410.384 203.612 410.016C203.036 409.648 202.372 409.464 201.62 409.464C200.868 409.464 200.204 409.648 199.628 410.016C199.052 410.368 198.596 410.864 198.26 411.504C197.924 412.144 197.756 412.872 197.756 413.688C197.756 414.504 197.924 415.232 198.26 415.872C198.596 416.512 199.052 417.016 199.628 417.384C200.204 417.752 200.868 417.936 201.62 417.936ZM210.569 420V402.24H213.041V420H210.569ZM218.305 425.52L220.849 419.64L220.873 421.608L214.585 407.4H217.465L221.401 416.664C221.481 416.824 221.577 417.072 221.689 417.408C221.801 417.728 221.897 418.048 221.977 418.368L221.353 418.512C221.481 418.176 221.601 417.84 221.713 417.504C221.841 417.168 221.961 416.832 222.073 416.496L225.361 407.4H228.289L223.105 420L220.969 425.52H218.305ZM237.273 420V407.4H239.745V420H237.273ZM238.473 404.616C237.945 404.616 237.537 404.48 237.249 404.208C236.961 403.936 236.817 403.552 236.817 403.056C236.817 402.592 236.961 402.216 237.249 401.928C237.553 401.64 237.961 401.496 238.473 401.496C239.001 401.496 239.409 401.632 239.697 401.904C239.985 402.176 240.129 402.56 240.129 403.056C240.129 403.52 239.977 403.896 239.673 404.184C239.385 404.472 238.985 404.616 238.473 404.616ZM245.104 420V404.184H247.576V420H245.104ZM242.488 409.8V407.4H250.504V409.8H242.488ZM257.424 420.24C256.368 420.24 255.416 420.056 254.568 419.688C253.72 419.32 253.016 418.776 252.456 418.056L254.136 416.616C254.616 417.176 255.136 417.584 255.696 417.84C256.272 418.08 256.92 418.2 257.64 418.2C257.928 418.2 258.192 418.168 258.432 418.104C258.688 418.024 258.904 417.912 259.08 417.768C259.272 417.624 259.416 417.456 259.512 417.264C259.608 417.056 259.656 416.832 259.656 416.592C259.656 416.176 259.504 415.84 259.2 415.584C259.04 415.472 258.784 415.352 258.432 415.224C258.096 415.08 257.656 414.936 257.112 414.792C256.184 414.552 255.424 414.28 254.832 413.976C254.24 413.672 253.784 413.328 253.464 412.944C253.224 412.64 253.048 412.312 252.936 411.96C252.824 411.592 252.768 411.192 252.768 410.76C252.768 410.232 252.88 409.752 253.104 409.32C253.344 408.872 253.664 408.488 254.064 408.168C254.48 407.832 254.96 407.576 255.504 407.4C256.064 407.224 256.656 407.136 257.28 407.136C257.872 407.136 258.456 407.216 259.032 407.376C259.624 407.536 260.168 407.768 260.664 408.072C261.16 408.376 261.576 408.736 261.912 409.152L260.496 410.712C260.192 410.408 259.856 410.144 259.488 409.92C259.136 409.68 258.776 409.496 258.408 409.368C258.04 409.24 257.704 409.176 257.4 409.176C257.064 409.176 256.76 409.208 256.488 409.272C256.216 409.336 255.984 409.432 255.792 409.56C255.616 409.688 255.48 409.848 255.384 410.04C255.288 410.232 255.24 410.448 255.24 410.688C255.256 410.896 255.304 411.096 255.384 411.288C255.48 411.464 255.608 411.616 255.768 411.744C255.944 411.872 256.208 412.008 256.56 412.152C256.912 412.296 257.36 412.432 257.904 412.56C258.704 412.768 259.36 413 259.872 413.256C260.4 413.496 260.816 413.776 261.12 414.096C261.44 414.4 261.664 414.752 261.792 415.152C261.92 415.552 261.984 416 261.984 416.496C261.984 417.216 261.776 417.864 261.36 418.44C260.96 419 260.416 419.44 259.728 419.76C259.04 420.08 258.272 420.24 257.424 420.24ZM275.563 420L270.235 407.4H272.899L276.739 416.832L276.283 417.048L280.387 407.4H282.931L277.339 420H275.563ZM289.689 420.24C288.649 420.24 287.697 419.952 286.833 419.376C285.985 418.8 285.305 418.016 284.793 417.024C284.281 416.032 284.025 414.912 284.025 413.664C284.025 412.4 284.281 411.28 284.793 410.304C285.321 409.312 286.025 408.536 286.905 407.976C287.801 407.416 288.801 407.136 289.905 407.136C290.561 407.136 291.161 407.232 291.705 407.424C292.249 407.616 292.721 407.888 293.121 408.24C293.537 408.576 293.873 408.968 294.129 409.416C294.401 409.864 294.569 410.344 294.633 410.856L294.081 410.664V407.4H296.577V420H294.081V417L294.657 416.832C294.561 417.264 294.361 417.688 294.057 418.104C293.769 418.504 293.393 418.864 292.929 419.184C292.481 419.504 291.977 419.76 291.417 419.952C290.873 420.144 290.297 420.24 289.689 420.24ZM290.337 417.96C291.089 417.96 291.753 417.776 292.329 417.408C292.905 417.04 293.353 416.536 293.673 415.896C294.009 415.24 294.177 414.496 294.177 413.664C294.177 412.848 294.009 412.12 293.673 411.48C293.353 410.84 292.905 410.336 292.329 409.968C291.753 409.6 291.089 409.416 290.337 409.416C289.601 409.416 288.945 409.6 288.369 409.968C287.809 410.336 287.361 410.84 287.025 411.48C286.705 412.12 286.545 412.848 286.545 413.664C286.545 414.496 286.705 415.24 287.025 415.896C287.361 416.536 287.809 417.04 288.369 417.408C288.945 417.776 289.601 417.96 290.337 417.96ZM300.077 420V402.24H302.549V420H300.077ZM310.351 420.24C309.455 420.24 308.671 420.032 307.999 419.616C307.343 419.2 306.831 418.616 306.463 417.864C306.111 417.112 305.935 416.216 305.935 415.176V407.4H308.407V414.504C308.407 415.24 308.519 415.88 308.743 416.424C308.983 416.952 309.319 417.36 309.751 417.648C310.199 417.936 310.735 418.08 311.359 418.08C311.823 418.08 312.247 418.008 312.631 417.864C313.015 417.704 313.343 417.488 313.615 417.216C313.903 416.944 314.127 416.616 314.287 416.232C314.447 415.848 314.527 415.432 314.527 414.984V407.4H316.999V420H314.527V417.36L314.959 417.072C314.767 417.664 314.439 418.2 313.975 418.68C313.527 419.16 312.991 419.544 312.367 419.832C311.743 420.104 311.071 420.24 310.351 420.24ZM326.346 420.24C325.05 420.24 323.898 419.968 322.89 419.424C321.898 418.864 321.114 418.104 320.538 417.144C319.978 416.184 319.698 415.08 319.698 413.832C319.698 412.84 319.858 411.936 320.178 411.12C320.498 410.304 320.938 409.6 321.498 409.008C322.074 408.4 322.754 407.936 323.538 407.616C324.338 407.28 325.202 407.112 326.13 407.112C326.946 407.112 327.706 407.272 328.41 407.592C329.114 407.896 329.722 408.32 330.234 408.864C330.762 409.408 331.162 410.056 331.434 410.808C331.722 411.544 331.858 412.352 331.842 413.232L331.818 414.288H321.522L320.97 412.32H329.682L329.322 412.728V412.152C329.274 411.624 329.098 411.152 328.794 410.736C328.49 410.32 328.106 409.992 327.642 409.752C327.178 409.512 326.674 409.392 326.13 409.392C325.266 409.392 324.538 409.56 323.946 409.896C323.354 410.216 322.906 410.696 322.602 411.336C322.298 411.96 322.146 412.736 322.146 413.664C322.146 414.544 322.33 415.312 322.698 415.968C323.066 416.608 323.586 417.104 324.258 417.456C324.93 417.808 325.706 417.984 326.586 417.984C327.21 417.984 327.786 417.88 328.314 417.672C328.858 417.464 329.442 417.088 330.066 416.544L331.314 418.296C330.93 418.68 330.458 419.016 329.898 419.304C329.354 419.592 328.77 419.824 328.146 420C327.538 420.16 326.938 420.24 326.346 420.24Z" fill="#FAF9F6"/>
<path d="M268.357 230.439L310.707 241.457L311.052 248.171L301.755 247.999L273.694 244.212L268.357 230.439Z" fill="#CCCCCC" stroke="#505055"/>
<path d="M325.684 176.039L325.339 158.307L177.287 193.254L168.507 283.807V305.499L311.051 261.599V241.457C298.518 246.277 285.285 242.777 280.235 240.424C276.792 238.703 270.216 232.918 271.455 223.553C273.005 211.847 279.546 204.96 286.605 197.73C293.663 190.499 321.208 180.17 323.446 179.309C325.236 178.621 325.684 176.842 325.684 176.039Z" fill="#999999" stroke="#505055"/>
<path d="M122.887 175.694L280.064 144.19L325.512 158.479L177.287 193.082L122.887 175.694Z" fill="#CCCCCC" stroke="#505055"/>
<path d="M279.892 144.018L124.608 175.522L129.773 177.932L279.892 146.944L319.487 159.684L324.824 158.134L279.892 144.018Z" fill="#E4E4E4"/>
<path d="M178.149 236.809L176.599 192.91L122.543 175.866V220.971L178.149 236.809Z" fill="#CCCCCC" stroke="#505055"/>
<path d="M48 206.338C48.9641 197.11 100.507 187.114 126.158 183.269C127.591 183.051 129.165 183.178 129.773 183.269C135.799 184.13 160.417 193.771 164.032 195.664C166.924 197.179 166.27 198.132 165.581 198.419C125.917 211.916 70.667 209.322 48 206.338Z" fill="#CCCCCC" stroke="#505055"/>
<path d="M48.5 206C64.3382 197.048 112.669 187.427 133.5 184.5C132.26 181.057 119.1 183.671 113.247 184.991C102.573 187.057 78.1276 192.187 65.7324 196.181C53.3373 200.175 48.5574 204.623 48.5 206Z" fill="#E4E4E4"/>
<path d="M165.581 198.419C125.917 211.916 70.667 209.322 48 206.338C49.8937 219.249 70.3801 224.07 103.089 228.546C135.799 233.022 161.105 228.718 163.688 228.546C165.754 228.408 166.155 226.652 166.098 225.791L165.581 198.419Z" fill="#CCCCCC" stroke="#505055"/>
<path d="M88.4561 207.37C108.977 207.095 147.375 199.058 163.5 195.5L166 197.5C164.5 199.5 151.063 202.321 146.3 203.411C140.102 204.444 124.815 206.751 113.246 207.715C101.678 208.679 91.8991 207.887 88.4561 207.37Z" fill="#E4E4E4"/>
<path d="M155.423 230.095L178.32 236.809C192.505 235.845 197.716 247.769 198.978 253.852C199.437 256.894 198.737 264.595 192.264 271.068C185.791 277.541 173.729 282.258 168.507 283.807L168.163 305.499L149.053 299.129L149.398 277.61C161.931 275.131 164.605 272.215 164.375 271.068C164.031 270.15 162.482 268.279 159.038 268.141C155.595 268.003 141.077 271.412 134.248 273.134L135.625 294.309L117.377 287.939L116.688 267.625C153.874 259.774 149.513 239.678 142.684 230.611C144.474 230.474 151.923 230.21 155.423 230.095Z" fill="#CCCCCC" stroke="#505055"/>
<path d="M134.249 273.134L135.626 294.309L149.198 290.177L149.399 277.61C161.931 275.131 164.606 272.216 164.376 271.068C164.032 270.15 162.482 268.279 159.039 268.141C155.596 268.004 141.078 271.412 134.249 273.134Z" fill="#999999" stroke="#505055"/>
<path d="M117.206 267.625L134.594 273.478" stroke="#505055"/>
<path d="M122.887 175.694L280.064 144.19L325.512 158.479L177.287 193.082L122.887 175.694Z" stroke="#505055"/>
<path d="M149.743 277.61L168.68 283.807" stroke="#505055"/>
<path d="M195.019 135.41L279.203 252.131L254.068 255.057C227.04 220.512 172.777 151.179 171.951 150.215C171.124 149.251 171.033 147.748 171.09 147.117C172.811 136.615 186.584 133 190.027 133C192.781 133 194.503 134.607 195.019 135.41Z" fill="#CCCCCC" stroke="#505055"/>
<path d="M210.17 156.413C214.703 166.513 224.424 188.124 227.041 193.771C229.658 199.417 241.33 213.224 246.839 219.422C249.651 222.406 257.512 229.648 266.464 234.743" stroke="#626262"/>
<path d="M195.019 135.41L279.203 252.131L254.068 255.057C227.04 220.512 172.777 151.179 171.951 150.215C171.124 149.251 171.033 147.748 171.09 147.117C172.811 136.615 186.584 133 190.027 133C192.781 133 194.503 134.607 195.019 135.41Z" stroke="#505055"/>
<path d="M182.108 134.721C186.527 139.657 196.328 151.661 200.185 160.2C204.041 168.739 216.711 188.089 222.565 196.697C228.705 204.788 243.361 223.312 252.864 232.677C262.367 242.042 267.024 249.434 268 251.5" stroke="#626262"/>
<path d="M228.763 281.053C232.068 271.55 241.961 258.615 246.495 253.336C247.193 252.509 250.573 251.844 252.176 251.614C263.538 249.893 306.749 254.024 311.397 254.713C315.115 255.264 319.373 256.664 321.037 257.295C325.858 259.912 336.933 274.568 341.868 281.569C342.098 282.2 342.419 283.773 341.868 285.012C341.179 286.562 325.858 304.466 323.448 307.048C321.519 309.114 319.201 310.434 318.283 310.835C306.576 314.451 261.128 316 254.242 316C248.733 316 246.437 315.311 245.978 314.967C240.641 312.557 229.968 289.66 228.763 286.734C227.799 284.392 228.361 281.971 228.763 281.053Z" fill="#F5F5F5" stroke="#505055"/>
<path d="M285.917 294.653C289.36 291.898 296.074 291.554 299 291.726C301.852 291.726 308.985 294.653 310.879 297.752C312.773 300.85 310.018 303.261 307.78 305.326C305.542 307.392 300.205 307.909 294.697 307.909C289.188 307.909 285.056 304.81 284.195 303.949C283.334 303.088 281.613 298.096 285.917 294.653Z" fill="#CCCCCC" stroke="#505055"/>
<path d="M172.983 142.296C176.082 145.108 184.208 153.417 191.92 164.16C201.561 177.588 218.088 204.1 221.531 213.396" stroke="#626262"/>
<path d="M273.25 286.447C273.377 286.692 273.679 286.788 273.924 286.661C274.169 286.534 274.265 286.233 274.138 285.987L273.694 286.217L273.25 286.447ZM248.043 252.475L247.68 252.819C253.702 259.185 267.225 274.808 273.25 286.447L273.694 286.217L274.138 285.987C268.043 274.214 254.434 258.504 248.406 252.131L248.043 252.475Z" fill="#505055"/>
<path d="M278.515 287.078C286.606 286.103 309.365 284.634 335.67 286.562" stroke="#505055" stroke-linecap="round"/>
<path d="M249.937 315.312C254.757 311.524 265.809 301.195 271.456 290.177" stroke="#505055" stroke-linecap="round"/>
<path d="M256.134 267.797C254.757 265.042 248.904 259.533 247.698 258.673C246.734 257.984 246.952 257.238 247.182 256.951C247.526 256.435 248.093 256.485 248.215 256.607C248.387 256.779 251.142 259.189 252.519 260.566C253.621 261.668 255.732 264.354 256.651 265.559C257.167 266.305 258.372 268.072 259.061 269.174C259.749 270.276 261.184 272.273 261.815 273.134C262.905 274.396 265.086 277.128 265.086 277.954C265.086 278.78 264.742 278.413 264.57 278.126C262.917 275.647 260.782 273.421 259.921 272.617C259.118 271.929 257.236 270 256.134 267.797Z" fill="#020202"/>
<path d="M238.231 298.44C237.129 296.512 234.214 291.095 232.894 288.627C232.205 287.078 232.966 287.494 233.238 287.767C233.583 288.111 237.37 293.62 237.714 294.308C238.059 294.997 239.092 297.063 239.952 298.096C240.813 299.129 242.879 302.4 243.912 304.81C244.945 307.22 246.494 309.286 247.355 310.319C248.044 311.145 248.79 310.893 249.077 310.663C250.282 309.458 252.967 306.6 254.069 304.81C255.171 303.019 258.775 298.899 260.439 297.063C261.127 296.26 262.78 294.205 263.882 292.415C265.259 290.177 267.669 287.594 268.186 287.594C268.599 287.594 268.128 288.283 267.841 288.627C266.579 290.062 263.744 293.585 262.505 296.202C260.955 299.473 250.454 312.04 249.937 312.385C249.421 312.729 248.904 313.073 247.355 312.729C246.116 312.454 244.199 309.63 243.395 308.253C242.133 305.785 239.333 300.368 238.231 298.44Z" fill="#020202"/>
<path d="M278.86 267.969C278.343 267.969 276.45 267.797 276.278 266.936C276.106 266.076 278.686 266.247 278.86 266.247C281.442 266.592 280.754 267.625 280.581 267.797C280.409 267.969 279.376 267.969 278.86 267.969Z" fill="#020202"/>
<path d="M281.614 261.943C281.477 261.53 282.819 260.968 283.508 260.738C284.885 260.222 285.057 261.255 285.057 261.599C285.057 261.943 284.369 262.288 284.024 262.46L284.024 262.46C283.68 262.632 281.786 262.46 281.614 261.943Z" fill="#020202"/>
<path d="M282.474 256.779C283.3 256.09 286.835 256.263 288.499 256.435C290.336 256.722 294.146 257.399 294.697 257.812C295.386 258.328 294.869 259.361 293.492 259.534C292.115 259.706 285.917 259.189 284.023 259.017C282.13 258.845 281.441 257.64 282.474 256.779Z" fill="#020202"/>
<path d="M314.15 259.361C314.288 258.948 315.929 258.845 316.733 258.845C317.594 258.845 318.11 259.361 317.938 259.878C317.766 260.394 316.905 260.394 316.044 260.394C315.183 260.394 313.978 259.878 314.15 259.361Z" fill="#020202"/>
<path d="M288.501 296.547C284.369 298.199 285.352 303.049 286.5 305C285.984 305.115 285.092 304.672 284.541 304.121C283.852 303.433 282.819 301.539 283.336 298.44C283.852 295.341 286.779 293.448 290.739 292.243C294.698 291.038 299.863 292.071 302.273 292.243C304.683 292.415 310.536 297.407 311.053 298.44C311.466 299.267 311.516 299.943 311 300C309.072 297.108 301.986 295.341 299.174 294.997C297.338 294.825 292.632 294.894 288.501 296.547Z" fill="#666666"/>
<path d="M48 206.338C48.9641 197.11 100.507 187.114 126.158 183.269C127.591 183.051 129.165 183.178 129.773 183.269C135.799 184.13 160.417 193.771 164.032 195.664C166.924 197.179 166.27 198.132 165.581 198.419C125.917 211.916 70.667 209.322 48 206.338Z" stroke="#505055"/>
<path d="M285.917 294.653C289.36 291.898 296.074 291.554 299 291.726C301.852 291.726 308.985 294.653 310.879 297.752C312.773 300.85 310.018 303.261 307.78 305.326C305.542 307.392 300.205 307.909 294.697 307.909C289.188 307.909 285.056 304.81 284.195 303.949C283.334 303.088 281.613 298.096 285.917 294.653Z" stroke="#505055"/>
<path d="M310.191 257.467C310.054 257.054 311.167 256.836 311.741 256.779C313.29 256.607 313.29 257.467 313.29 257.64C313.29 257.984 312.257 257.984 311.913 257.984C311.569 257.984 310.364 257.984 310.191 257.467Z" fill="#020202"/>
</svg>
