<svg width="395" height="491" viewBox="0 0 395 491" fill="none" xmlns="http://www.w3.org/2000/svg">
<rect width="394.099" height="490.871" rx="20" fill="#202020" fill-opacity="0.5"/>
<path d="M52 51.96C52 53.64 53.04 57.72 55.12 64.2L56.4 68.2L56.68 68.12C56.7067 67.56 58.36 62.0667 61.64 51.64C61.64 51.3733 61.4933 51.12 61.2 50.88C60.9067 50.6133 60.6 50.44 60.28 50.36L60.4 49.8C61.7333 49.9067 63.56 49.96 65.88 49.96C68.2 49.96 70.0533 49.8533 71.44 49.64L71.64 50.64C70.36 51.04 69.0667 51.32 67.76 51.48C67.6267 52.12 67.56 53.2667 67.56 54.92C67.56 56.5467 67.7733 59.8267 68.2 64.76C68.6533 69.6933 69.0667 72.9733 69.44 74.6C70.8533 74.7333 72.32 74.9867 73.84 75.36L73.72 76.32C71.7467 76.1067 69.6133 76 67.32 76C65.0267 76 63.1733 76.1067 61.76 76.32L61.6 75.32C62.8 74.9467 64.08 74.6667 65.44 74.48C65.44 71.9467 65.2933 68.4533 65 64C64.7067 59.5467 64.3333 55.7333 63.88 52.56L63.76 52.52C59.9467 63.08 57.9467 69.5067 57.76 71.8C56.0267 72.84 54.7333 73.8533 53.88 74.84L53.4 74.52C53.4533 73.9333 53.48 73.4933 53.48 73.2C53.48 70.08 51.7333 63.1867 48.24 52.52L48.08 52.56L46.84 61.32C46.3067 65.1333 46.04 68.5733 46.04 71.64C46.04 72.6267 46.1467 73.44 46.36 74.08C46.6 74.72 47.0667 75.2267 47.76 75.6L47.6 76.16C46.7733 76.0533 45.36 76 43.36 76C41.3867 76 39.6133 76.1067 38.04 76.32L37.88 75.32C39.08 74.9467 40.36 74.6667 41.72 74.48L46.2 52.16C43.0533 52.16 41.04 52.5867 40.16 53.44C39.9733 53.8133 39.88 54.4 39.88 55.2C39.88 56 40.0133 56.5467 40.28 56.84L40.24 57.12C39.5733 57.52 38.9067 58.08 38.24 58.8C37.92 58.7733 37.6667 58.64 37.48 58.4C37.2667 58.16 37.16 57.88 37.16 57.56C37.16 56.2533 37.9467 54.6933 39.52 52.88C41.0933 51.0667 42.56 49.92 43.92 49.44C44.1333 49.44 45.0933 49.5333 46.8 49.72C48.5067 49.88 49.8267 49.96 50.76 49.96C51.72 49.96 52.6267 49.88 53.48 49.72L53.64 50.72C52.5467 51.1467 52 51.56 52 51.96ZM81.5703 56.48C81.357 57.92 81.2503 60.8667 81.2503 65.32C81.2503 69.7733 81.3703 72.8933 81.6103 74.68C82.8103 74.8133 83.917 75.0133 84.9303 75.28L84.8103 76.28C83.4236 76.0933 81.8636 76 80.1303 76C78.4236 76 76.8903 76.1067 75.5303 76.32L75.3703 75.28C76.117 75.04 76.957 74.84 77.8903 74.68C78.1303 72.76 78.2503 70.04 78.2503 66.52V64.64C78.2503 61.12 78.117 58.4 77.8503 56.48C76.917 56.32 76.077 56.12 75.3303 55.88L75.4903 54.84C76.8503 55.0533 78.3836 55.16 80.0903 55.16C81.8236 55.16 83.3836 55.0667 84.7703 54.88L84.8903 55.88C83.877 56.1467 82.7703 56.3467 81.5703 56.48ZM97.9941 73.76C97.9941 72.1067 97.5807 69.64 96.7541 66.36C95.9274 63.0533 95.0074 59.8533 93.9941 56.76L93.8341 56.8L92.8341 64.24C92.4074 67.3067 92.1941 70.0667 92.1941 72.52C92.1941 74.0133 92.6607 75.0133 93.5941 75.52L93.4341 76.2C92.6341 76.0667 91.5807 76 90.2741 76C88.9941 76 87.5807 76.1067 86.0341 76.32L85.8741 75.28C86.7807 74.9867 87.6341 74.7733 88.4341 74.64L92.1541 56.4C90.7674 56.16 89.7407 55.9467 89.0741 55.76L89.1941 54.72C91.1141 55.0133 92.8874 55.16 94.5141 55.16C96.1674 55.16 97.4474 55.0667 98.3541 54.88L98.4341 55.56C97.7141 55.7467 97.3541 56.0533 97.3541 56.48C97.3541 57.0667 98.1807 60.4533 99.8341 66.64L100.714 69.64L100.994 69.56C100.994 68.8667 102.207 64.52 104.634 56.52C104.634 56.0667 104.274 55.7467 103.554 55.56L103.634 54.88C104.541 55.0667 105.821 55.16 107.474 55.16C109.154 55.16 110.941 55.0133 112.834 54.72L112.954 55.76C112.234 55.9467 111.314 56.1467 110.194 56.36C110.114 57 110.074 57.9467 110.074 59.2C110.074 60.4267 110.247 62.96 110.594 66.8C110.941 70.64 111.261 73.28 111.554 74.72C112.541 74.8533 113.554 75.04 114.594 75.28L114.474 76.28C113.087 76.0933 111.541 76 109.834 76C108.154 76 106.634 76.1067 105.274 76.32L105.114 75.28C105.994 75.0133 106.941 74.8133 107.954 74.68C107.874 68.3867 107.447 62.4533 106.674 56.88H106.554C103.807 64.9867 102.341 70.24 102.154 72.64C101.594 72.8267 100.941 73.1733 100.194 73.68C99.4474 74.16 98.8741 74.64 98.4741 75.12L97.9941 74.8V73.76ZM122.859 56.48C122.646 57.92 122.539 60.8667 122.539 65.32C122.539 69.7733 122.659 72.8933 122.899 74.68C124.099 74.8133 125.206 75.0133 126.219 75.28L126.099 76.28C124.713 76.0933 123.153 76 121.419 76C119.713 76 118.179 76.1067 116.819 76.32L116.659 75.28C117.406 75.04 118.246 74.84 119.179 74.68C119.419 72.76 119.539 70.04 119.539 66.52V64.64C119.539 61.12 119.406 58.4 119.139 56.48C118.206 56.32 117.366 56.12 116.619 55.88L116.779 54.84C118.139 55.0533 119.673 55.16 121.379 55.16C123.113 55.16 124.673 55.0667 126.059 54.88L126.179 55.88C125.166 56.1467 124.059 56.3467 122.859 56.48ZM137.963 73.68C139.803 73.68 141.536 72.8667 143.163 71.24L143.723 71.8C141.936 74.0667 139.79 75.6267 137.283 76.48C134.696 76.48 132.67 75.6667 131.203 74.04C129.736 72.3867 129.003 70.1733 129.003 67.4C129.003 64.6 129.87 61.9733 131.603 59.52C133.336 57.0667 135.55 55.4533 138.243 54.68C140.19 54.68 142.39 54.88 144.843 55.28L144.803 56.16C144.296 56.16 143.816 56.2533 143.363 56.44C142.856 57.64 142.523 59.0667 142.363 60.72H141.363C141.15 59.8133 141.043 58.88 141.043 57.92C140.03 57.4133 138.83 57.16 137.443 57.16C136.056 57.16 134.91 57.5333 134.003 58.28C132.963 60.1733 132.443 62.4667 132.443 65.16C132.443 69.3467 133.336 71.9733 135.123 73.04C135.896 73.4667 136.843 73.68 137.963 73.68Z" fill="#FAF9F6"/>
<path d="M40.5415 379.36V376.912H47.4535V379.36H40.5415ZM55.5068 385C54.6748 385 53.8988 384.856 53.1788 384.568C52.4748 384.264 51.8588 383.848 51.3308 383.32C50.8188 382.792 50.4108 382.168 50.1068 381.448C49.8188 380.728 49.6748 379.936 49.6748 379.072C49.6748 378.64 49.7308 378.16 49.8428 377.632C49.9708 377.088 50.1548 376.496 50.3948 375.856C50.6508 375.216 50.9548 374.544 51.3068 373.84C51.6588 373.12 52.0668 372.376 52.5308 371.608L54.7148 367.912H57.2348L57.3308 368.152L54.6908 372.592C54.2108 373.408 53.7788 374.184 53.3948 374.92C53.0268 375.656 52.7148 376.352 52.4588 377.008C52.2028 377.648 52.0108 378.232 51.8828 378.76L51.3068 376.288C51.6108 375.792 51.9388 375.36 52.2908 374.992C52.6428 374.608 53.0188 374.288 53.4188 374.032C53.8348 373.776 54.2668 373.584 54.7148 373.456C55.1628 373.328 55.6268 373.264 56.1068 373.264C57.0348 373.264 57.8828 373.52 58.6508 374.032C59.4348 374.528 60.0588 375.192 60.5228 376.024C61.0028 376.856 61.2428 377.768 61.2428 378.76C61.2428 379.96 60.9948 381.032 60.4988 381.976C60.0188 382.904 59.3468 383.64 58.4828 384.184C57.6188 384.728 56.6268 385 55.5068 385ZM55.5068 382.6C56.1308 382.6 56.6828 382.456 57.1628 382.168C57.6588 381.864 58.0428 381.448 58.3148 380.92C58.6028 380.376 58.7468 379.76 58.7468 379.072C58.7468 378.48 58.6028 377.928 58.3148 377.416C58.0268 376.888 57.6428 376.464 57.1628 376.144C56.6828 375.824 56.1468 375.664 55.5548 375.664C54.8988 375.664 54.3148 375.816 53.8028 376.12C53.2908 376.424 52.8908 376.832 52.6028 377.344C52.3148 377.856 52.1708 378.424 52.1708 379.048C52.1708 379.72 52.3148 380.328 52.6028 380.872C52.8908 381.4 53.2828 381.824 53.7788 382.144C54.2748 382.448 54.8508 382.6 55.5068 382.6ZM70.4808 385V372.4H72.9768V375.088L72.5208 375.376C72.6488 374.96 72.8488 374.56 73.1208 374.176C73.4088 373.792 73.7528 373.456 74.1528 373.168C74.5688 372.864 75.0088 372.624 75.4728 372.448C75.9528 372.272 76.4408 372.184 76.9368 372.184C77.6568 372.184 78.2888 372.304 78.8328 372.544C79.3768 372.784 79.8248 373.144 80.1768 373.624C80.5288 374.104 80.7848 374.704 80.9448 375.424L80.5608 375.328L80.7288 374.92C80.9048 374.552 81.1448 374.208 81.4488 373.888C81.7688 373.552 82.1288 373.256 82.5288 373C82.9288 372.744 83.3528 372.544 83.8008 372.4C84.2488 372.256 84.6888 372.184 85.1208 372.184C86.0648 372.184 86.8408 372.376 87.4488 372.76C88.0728 373.144 88.5368 373.728 88.8408 374.512C89.1608 375.296 89.3208 376.272 89.3208 377.44V385H86.8248V377.584C86.8248 376.864 86.7288 376.28 86.5368 375.832C86.3608 375.368 86.0888 375.024 85.7208 374.8C85.3528 374.576 84.8808 374.464 84.3048 374.464C83.8568 374.464 83.4328 374.544 83.0328 374.704C82.6488 374.848 82.3128 375.056 82.0248 375.328C81.7368 375.6 81.5128 375.92 81.3528 376.288C81.1928 376.64 81.1128 377.032 81.1128 377.464V385H78.6168V377.536C78.6168 376.88 78.5208 376.328 78.3288 375.88C78.1368 375.416 77.8568 375.064 77.4888 374.824C77.1208 374.584 76.6728 374.464 76.1448 374.464C75.6968 374.464 75.2808 374.544 74.8968 374.704C74.5128 374.848 74.1768 375.056 73.8888 375.328C73.6008 375.584 73.3768 375.896 73.2168 376.264C73.0568 376.616 72.9768 377 72.9768 377.416V385H70.4808ZM97.4783 385.24C96.4383 385.24 95.4863 384.952 94.6223 384.376C93.7743 383.8 93.0943 383.016 92.5823 382.024C92.0703 381.032 91.8143 379.912 91.8143 378.664C91.8143 377.4 92.0703 376.28 92.5823 375.304C93.1103 374.312 93.8143 373.536 94.6943 372.976C95.5903 372.416 96.5903 372.136 97.6943 372.136C98.3503 372.136 98.9503 372.232 99.4943 372.424C100.038 372.616 100.51 372.888 100.91 373.24C101.326 373.576 101.662 373.968 101.918 374.416C102.19 374.864 102.358 375.344 102.422 375.856L101.87 375.664V372.4H104.366V385H101.87V382L102.446 381.832C102.35 382.264 102.15 382.688 101.846 383.104C101.558 383.504 101.182 383.864 100.718 384.184C100.27 384.504 99.7663 384.76 99.2063 384.952C98.6623 385.144 98.0863 385.24 97.4783 385.24ZM98.1263 382.96C98.8783 382.96 99.5423 382.776 100.118 382.408C100.694 382.04 101.142 381.536 101.462 380.896C101.798 380.24 101.966 379.496 101.966 378.664C101.966 377.848 101.798 377.12 101.462 376.48C101.142 375.84 100.694 375.336 100.118 374.968C99.5423 374.6 98.8783 374.416 98.1263 374.416C97.3903 374.416 96.7343 374.6 96.1583 374.968C95.5983 375.336 95.1503 375.84 94.8143 376.48C94.4943 377.12 94.3343 377.848 94.3343 378.664C94.3343 379.496 94.4943 380.24 94.8143 380.896C95.1503 381.536 95.5983 382.04 96.1583 382.408C96.7343 382.776 97.3903 382.96 98.1263 382.96ZM113.458 390.52C112.562 390.52 111.666 390.376 110.77 390.088C109.89 389.816 109.178 389.456 108.634 389.008L109.546 387.088C109.866 387.328 110.242 387.536 110.674 387.712C111.106 387.904 111.562 388.048 112.042 388.144C112.522 388.256 112.994 388.312 113.458 388.312C114.338 388.312 115.074 388.168 115.666 387.88C116.258 387.592 116.706 387.168 117.01 386.608C117.314 386.048 117.466 385.352 117.466 384.52V382.096L117.73 382.264C117.65 382.76 117.386 383.24 116.938 383.704C116.506 384.152 115.962 384.52 115.306 384.808C114.65 385.096 113.978 385.24 113.29 385.24C112.09 385.24 111.018 384.96 110.074 384.4C109.146 383.824 108.41 383.048 107.866 382.072C107.322 381.08 107.05 379.952 107.05 378.688C107.05 377.424 107.314 376.304 107.842 375.328C108.386 374.336 109.122 373.56 110.05 373C110.994 372.424 112.05 372.136 113.218 372.136C113.698 372.136 114.162 372.2 114.61 372.328C115.058 372.44 115.474 372.608 115.858 372.832C116.242 373.04 116.586 373.272 116.89 373.528C117.194 373.784 117.442 374.056 117.634 374.344C117.826 374.632 117.946 374.904 117.994 375.16L117.466 375.352V372.4H119.938V384.232C119.938 385.24 119.786 386.128 119.482 386.896C119.194 387.68 118.77 388.336 118.21 388.864C117.65 389.408 116.97 389.816 116.17 390.088C115.37 390.376 114.466 390.52 113.458 390.52ZM113.554 382.96C114.338 382.96 115.034 382.776 115.642 382.408C116.25 382.04 116.722 381.536 117.058 380.896C117.394 380.256 117.562 379.52 117.562 378.688C117.562 377.856 117.386 377.12 117.034 376.48C116.698 375.824 116.226 375.312 115.618 374.944C115.026 374.576 114.338 374.392 113.554 374.392C112.786 374.392 112.098 374.584 111.49 374.968C110.898 375.336 110.426 375.848 110.074 376.504C109.738 377.144 109.57 377.872 109.57 378.688C109.57 379.504 109.738 380.24 110.074 380.896C110.426 381.536 110.898 382.04 111.49 382.408C112.098 382.776 112.786 382.96 113.554 382.96ZM123.812 385V372.4H126.284V385H123.812ZM125.012 369.616C124.484 369.616 124.076 369.48 123.788 369.208C123.5 368.936 123.356 368.552 123.356 368.056C123.356 367.592 123.5 367.216 123.788 366.928C124.092 366.64 124.5 366.496 125.012 366.496C125.54 366.496 125.948 366.632 126.236 366.904C126.524 367.176 126.668 367.56 126.668 368.056C126.668 368.52 126.516 368.896 126.212 369.184C125.924 369.472 125.524 369.616 125.012 369.616ZM135.435 385.24C134.267 385.24 133.219 384.952 132.291 384.376C131.379 383.8 130.651 383.016 130.107 382.024C129.579 381.032 129.315 379.92 129.315 378.688C129.315 377.456 129.579 376.344 130.107 375.352C130.651 374.36 131.379 373.576 132.291 373C133.219 372.424 134.267 372.136 135.435 372.136C136.555 372.136 137.571 372.368 138.483 372.832C139.411 373.28 140.115 373.896 140.595 374.68L139.227 376.36C138.971 375.992 138.643 375.656 138.243 375.352C137.843 375.048 137.419 374.808 136.971 374.632C136.523 374.456 136.091 374.368 135.675 374.368C134.907 374.368 134.219 374.56 133.611 374.944C133.019 375.312 132.547 375.824 132.195 376.48C131.843 377.136 131.667 377.872 131.667 378.688C131.667 379.504 131.851 380.24 132.219 380.896C132.587 381.536 133.075 382.048 133.683 382.432C134.291 382.816 134.963 383.008 135.699 383.008C136.131 383.008 136.547 382.936 136.947 382.792C137.363 382.648 137.763 382.432 138.147 382.144C138.531 381.856 138.891 381.504 139.227 381.088L140.595 382.768C140.083 383.488 139.347 384.08 138.387 384.544C137.443 385.008 136.459 385.24 135.435 385.24ZM155.294 390.52C154.398 390.52 153.502 390.376 152.606 390.088C151.726 389.816 151.014 389.456 150.47 389.008L151.382 387.088C151.702 387.328 152.078 387.536 152.51 387.712C152.942 387.904 153.398 388.048 153.878 388.144C154.358 388.256 154.83 388.312 155.294 388.312C156.174 388.312 156.91 388.168 157.502 387.88C158.094 387.592 158.542 387.168 158.846 386.608C159.15 386.048 159.302 385.352 159.302 384.52V382.096L159.566 382.264C159.486 382.76 159.222 383.24 158.774 383.704C158.342 384.152 157.798 384.52 157.142 384.808C156.486 385.096 155.814 385.24 155.126 385.24C153.926 385.24 152.854 384.96 151.91 384.4C150.982 383.824 150.246 383.048 149.702 382.072C149.158 381.08 148.886 379.952 148.886 378.688C148.886 377.424 149.15 376.304 149.678 375.328C150.222 374.336 150.958 373.56 151.886 373C152.83 372.424 153.886 372.136 155.054 372.136C155.534 372.136 155.998 372.2 156.446 372.328C156.894 372.44 157.31 372.608 157.694 372.832C158.078 373.04 158.422 373.272 158.726 373.528C159.03 373.784 159.278 374.056 159.47 374.344C159.662 374.632 159.782 374.904 159.83 375.16L159.302 375.352V372.4H161.774V384.232C161.774 385.24 161.622 386.128 161.318 386.896C161.03 387.68 160.606 388.336 160.046 388.864C159.486 389.408 158.806 389.816 158.006 390.088C157.206 390.376 156.302 390.52 155.294 390.52ZM155.39 382.96C156.174 382.96 156.87 382.776 157.478 382.408C158.086 382.04 158.558 381.536 158.894 380.896C159.23 380.256 159.398 379.52 159.398 378.688C159.398 377.856 159.222 377.12 158.87 376.48C158.534 375.824 158.062 375.312 157.454 374.944C156.862 374.576 156.174 374.392 155.39 374.392C154.622 374.392 153.934 374.584 153.326 374.968C152.734 375.336 152.262 375.848 151.91 376.504C151.574 377.144 151.406 377.872 151.406 378.688C151.406 379.504 151.574 380.24 151.91 380.896C152.262 381.536 152.734 382.04 153.326 382.408C153.934 382.776 154.622 382.96 155.39 382.96ZM171.12 385.24C169.824 385.24 168.672 384.968 167.664 384.424C166.672 383.864 165.888 383.104 165.312 382.144C164.752 381.184 164.472 380.08 164.472 378.832C164.472 377.84 164.632 376.936 164.952 376.12C165.272 375.304 165.712 374.6 166.272 374.008C166.848 373.4 167.528 372.936 168.312 372.616C169.112 372.28 169.976 372.112 170.904 372.112C171.72 372.112 172.48 372.272 173.184 372.592C173.888 372.896 174.496 373.32 175.008 373.864C175.536 374.408 175.936 375.056 176.208 375.808C176.496 376.544 176.632 377.352 176.616 378.232L176.592 379.288H166.296L165.744 377.32H174.456L174.096 377.728V377.152C174.048 376.624 173.872 376.152 173.568 375.736C173.264 375.32 172.88 374.992 172.416 374.752C171.952 374.512 171.448 374.392 170.904 374.392C170.04 374.392 169.312 374.56 168.72 374.896C168.128 375.216 167.68 375.696 167.376 376.336C167.072 376.96 166.92 377.736 166.92 378.664C166.92 379.544 167.104 380.312 167.472 380.968C167.84 381.608 168.36 382.104 169.032 382.456C169.704 382.808 170.48 382.984 171.36 382.984C171.984 382.984 172.56 382.88 173.088 382.672C173.632 382.464 174.216 382.088 174.84 381.544L176.088 383.296C175.704 383.68 175.232 384.016 174.672 384.304C174.128 384.592 173.544 384.824 172.92 385C172.312 385.16 171.712 385.24 171.12 385.24ZM179.254 385V372.4H181.75V375.088L181.294 375.376C181.422 374.96 181.622 374.56 181.894 374.176C182.182 373.792 182.526 373.456 182.926 373.168C183.342 372.864 183.782 372.624 184.246 372.448C184.726 372.272 185.214 372.184 185.71 372.184C186.43 372.184 187.062 372.304 187.606 372.544C188.15 372.784 188.598 373.144 188.95 373.624C189.302 374.104 189.558 374.704 189.718 375.424L189.334 375.328L189.502 374.92C189.678 374.552 189.918 374.208 190.222 373.888C190.542 373.552 190.902 373.256 191.302 373C191.702 372.744 192.126 372.544 192.574 372.4C193.022 372.256 193.462 372.184 193.894 372.184C194.838 372.184 195.614 372.376 196.222 372.76C196.846 373.144 197.31 373.728 197.614 374.512C197.934 375.296 198.094 376.272 198.094 377.44V385H195.598V377.584C195.598 376.864 195.502 376.28 195.31 375.832C195.134 375.368 194.862 375.024 194.494 374.8C194.126 374.576 193.654 374.464 193.078 374.464C192.63 374.464 192.206 374.544 191.806 374.704C191.422 374.848 191.086 375.056 190.798 375.328C190.51 375.6 190.286 375.92 190.126 376.288C189.966 376.64 189.886 377.032 189.886 377.464V385H187.39V377.536C187.39 376.88 187.294 376.328 187.102 375.88C186.91 375.416 186.63 375.064 186.262 374.824C185.894 374.584 185.446 374.464 184.918 374.464C184.47 374.464 184.054 374.544 183.67 374.704C183.286 374.848 182.95 375.056 182.662 375.328C182.374 375.584 182.15 375.896 181.99 376.264C181.83 376.616 181.75 377 181.75 377.416V385H179.254ZM205.604 385.24C204.548 385.24 203.596 385.056 202.748 384.688C201.9 384.32 201.196 383.776 200.636 383.056L202.316 381.616C202.796 382.176 203.316 382.584 203.876 382.84C204.452 383.08 205.1 383.2 205.82 383.2C206.108 383.2 206.372 383.168 206.612 383.104C206.868 383.024 207.084 382.912 207.26 382.768C207.452 382.624 207.596 382.456 207.692 382.264C207.788 382.056 207.836 381.832 207.836 381.592C207.836 381.176 207.684 380.84 207.38 380.584C207.22 380.472 206.964 380.352 206.612 380.224C206.276 380.08 205.836 379.936 205.292 379.792C204.364 379.552 203.604 379.28 203.012 378.976C202.42 378.672 201.964 378.328 201.644 377.944C201.404 377.64 201.228 377.312 201.116 376.96C201.004 376.592 200.948 376.192 200.948 375.76C200.948 375.232 201.06 374.752 201.284 374.32C201.524 373.872 201.844 373.488 202.244 373.168C202.66 372.832 203.14 372.576 203.684 372.4C204.244 372.224 204.836 372.136 205.46 372.136C206.052 372.136 206.636 372.216 207.212 372.376C207.804 372.536 208.348 372.768 208.844 373.072C209.34 373.376 209.756 373.736 210.092 374.152L208.676 375.712C208.372 375.408 208.036 375.144 207.668 374.92C207.316 374.68 206.956 374.496 206.588 374.368C206.22 374.24 205.884 374.176 205.58 374.176C205.244 374.176 204.94 374.208 204.668 374.272C204.396 374.336 204.164 374.432 203.972 374.56C203.796 374.688 203.66 374.848 203.564 375.04C203.468 375.232 203.42 375.448 203.42 375.688C203.436 375.896 203.484 376.096 203.564 376.288C203.66 376.464 203.788 376.616 203.948 376.744C204.124 376.872 204.388 377.008 204.74 377.152C205.092 377.296 205.54 377.432 206.084 377.56C206.884 377.768 207.54 378 208.052 378.256C208.58 378.496 208.996 378.776 209.3 379.096C209.62 379.4 209.844 379.752 209.972 380.152C210.1 380.552 210.164 381 210.164 381.496C210.164 382.216 209.956 382.864 209.54 383.44C209.14 384 208.596 384.44 207.908 384.76C207.22 385.08 206.452 385.24 205.604 385.24Z" fill="#FAF9F6"/>
<path d="M256.917 189.33C253.496 197.355 257.026 210.49 259.384 213.669L227.315 203.638C222.217 197.224 226.273 189.714 227.973 186.863C238.936 185.986 260.337 181.304 256.917 189.33Z" fill="#986BA4"/>
<path d="M252.641 184.889C249.22 192.915 244.747 202.322 245.076 208.9L227.315 203.637C222.217 197.224 226.273 189.713 227.973 186.863C238.936 185.986 256.062 176.864 252.641 184.889Z" fill="#7C4390"/>
<path d="M240.635 207.584C239.21 204.405 238.842 192.605 242 188" stroke="#4A1E5B" stroke-width="2" stroke-linecap="round"/>
<path d="M253.134 211.531C250.996 209.887 248.71 202.499 252 192.5" stroke="#4A1E5B" stroke-width="2" stroke-linecap="round"/>
<path d="M227.315 203.637C223.763 198.375 225.835 191.468 227.315 188.672L192.779 190.974L135.22 222.221L127.49 242.778L138.18 263.335L239.32 242.12C236.799 231.485 230.868 208.9 227.315 203.637Z" fill="#633C59"/>
<path d="M147.06 247.876C149.296 253.138 158.297 255.55 162.518 256.099L192.943 250.178C206.318 242.12 231.689 224.687 226.163 219.425C220.637 214.162 210.923 213.395 206.757 213.669C177.418 214.458 160.106 225.619 155.118 231.101C151.5 234.5 144.823 242.613 147.06 247.876Z" fill="#806A67"/>
<path d="M99.6967 251.987C99.4336 251.33 98.8744 247.218 98.71 245.245C111.998 235.377 128.751 228.744 135.384 226.661C127.227 236.397 134.068 252.755 138.508 259.552L118.938 256.099L99.6967 251.987Z" fill="#966BA0"/>
<path d="M238.991 131.441C200.442 129.599 145.305 150.957 122.556 161.865L152.816 201.335L266.948 165.319L269.744 157.425L244.747 130.783L238.991 131.441Z" fill="#BA8E66"/>
<path d="M255.437 162.359C249.911 142.756 240.307 133.689 236.195 131.605L242.445 131.112L259.384 144.104L265.633 162.03L255.437 162.359Z" fill="#934F59"/>
<path d="M279.119 183.409C282.145 180.515 288.109 176.995 290.631 175.68L274.185 166.799L178.307 195.414L143.278 215.807L142.62 225.017C201.035 187.126 257.959 181.49 279.119 183.409Z" fill="#C992D5"/>
<path d="M226.492 203.473C234.255 204.789 266.236 216.027 281.749 221.234C271.718 226.333 237.182 238.831 237.346 238.173C237.478 237.647 230.165 214.821 226.492 203.473Z" fill="#FCBC53"/>
<path d="M258.89 231.56L244.747 208.735L235.373 205.775L226.328 203.308L237.403 239.16L258.89 231.56Z" fill="#D17657"/>
<path d="M93.611 170.582C88.0853 176.765 89.0063 193.331 90.1575 200.842L142.948 218.767C220.703 175.088 273.8 171.842 290.63 175.68C277.802 139.499 247.707 123.218 242.444 121.574C237.181 119.929 222.216 122.067 219.256 124.863C216.888 127.099 215.364 131.003 214.815 132.757C219.528 131.971 232.825 131.501 239.06 131.28L239.155 131.277C252.838 138.25 262.288 154.575 265.303 161.865C229.518 161.208 177.265 185.492 155.611 197.717C135.613 166.799 119.54 158.85 114.004 158.741C109.509 160.111 99.1368 164.398 93.611 170.582Z" fill="#FDBC56"/>
<path d="M102.821 170.746C128.871 163.51 146.676 196.456 152.322 213.833L143.277 218.438L90.1578 200.841C87.0332 185.711 90.8158 171.568 94.5983 169.595C94.5983 173.015 100.025 171.733 102.821 170.746Z" fill="#D47654"/>
<path d="M107.097 171.897C80.521 188.738 90.4322 227.813 98.7099 245.245C112.13 230.904 134.013 221.728 143.278 218.932C135.778 185.383 116.033 173.597 107.097 171.897Z" fill="#7D415A"/>
<path d="M103.643 240.64C89.1709 189.856 106.165 176.393 116.471 176.009C132.258 184.034 141.249 207.749 143.441 218.768C123.707 224.688 108.467 235.926 103.643 240.64Z" fill="#95515E"/>
<path d="M89.8294 204.953C89.9609 198.506 98.2166 189.658 102.328 186.04C93.7763 202.223 99.7516 228.963 103.808 240.311C103.019 240.969 100.08 243.874 98.71 245.245C89.0071 221.234 89.6649 213.011 89.8294 204.953Z" fill="#976B60"/>
<path d="M106.604 195.415C97.9208 203.44 101.122 228.909 103.808 240.476C116.833 229.951 131.711 222.934 137.522 220.906C133.411 205.447 117.458 185.383 106.604 195.415Z" fill="#BA8E66"/>
<path d="M159.065 257.086C150.514 259.717 141.359 259.498 137.851 259.06L152.158 265.967L273.198 229.951L282.737 221.564L275.165 219.016C226.321 238.751 169.755 253.797 159.065 257.086Z" fill="#C992D5"/>
<path d="M167.123 259.717C161.203 261.691 157.639 261.745 156.598 261.526L154.46 272.874L160.38 296.226C161.586 302.695 164.163 316.52 164.821 320.073C165.479 323.625 170.796 331.201 173.372 334.545C213.171 320.292 293.327 291.622 295.563 290.964C297.8 290.306 296.934 288.826 296.221 288.168C294.083 286.249 289.413 282.083 287.834 280.767C286.255 279.452 285.203 276.93 284.874 275.834C283.448 262.622 280.96 236.068 282.407 235.542C283.854 235.016 283.339 226.168 282.736 221.563C240.964 240.311 174.524 257.25 167.123 259.717Z" fill="#FEBD57"/>
<path d="M99.6962 251.987C99.3673 249.849 99.2028 246.889 98.7094 245.245V247.547V250.507C97.6569 250.507 97.0649 251.384 96.9004 251.823C96.2426 256.263 97.8871 261.526 98.7094 261.855C99.3673 262.118 99.751 263.28 99.8606 263.828L102.163 296.555C100.847 298.967 97.7885 304.087 96.0782 305.271C94.3678 306.455 95.3655 307.519 96.0782 307.902L162.518 335.367C167.386 314.579 163.121 288.551 160.381 278.136C155.447 273.531 155.447 270.078 156.434 266.953C157.223 264.453 156.763 262.293 156.434 261.526C140.777 260.342 112.085 254.673 99.6962 251.987Z" fill="#D07755"/>
<path d="M173.373 334.545C168.374 337.044 163.889 336.08 162.354 335.367C163.144 333.788 164.164 324.02 164.657 319.744C165.315 322.375 170.851 331.036 173.373 334.545Z" fill="#FFF088"/>
<path d="M273.163 239.16C258.564 246.427 199.676 266.632 172.057 275.826L175.838 316.125C180.441 314.672 245.379 291.737 277.273 280.45C277.667 273.844 274.697 250.171 273.163 239.16Z" fill="#AF8668"/>
<path d="M151.007 181.107C134.43 163.214 125.571 160.824 123.214 161.866L155.776 197.717L171.728 189.165C168.439 187.85 166.466 188.014 160.71 187.027C156.105 186.238 152.323 182.752 151.007 181.107Z" fill="#9A595F"/>
<path d="M100.354 263.5C101.497 263.848 104.411 264.73 106.933 265.473" stroke="#A45534" stroke-linecap="round"/>
<path d="M102.656 296.391C103.798 296.739 106.978 297.757 109.5 298.5" stroke="#A45534" stroke-linecap="round"/>
<path d="M151.665 278.592C155.381 279.455 164.595 280.211 171.729 276.327" stroke="#A45534" stroke-linecap="round"/>
<path d="M154.625 315.797L164.76 319.744L175.675 315.797" stroke="#A45534" stroke-linecap="round"/>
<path d="M132.094 234.226C136.096 233.185 145.744 230.411 152.322 227.648C158.9 224.885 204.509 210.38 226.492 203.473" stroke="#3D1925" stroke-width="2" stroke-linecap="round"/>
<path d="M151.336 278.301C141.995 277.117 118.17 269.146 107.426 265.309C107.031 266.493 108.906 288.168 109.893 298.858L154.296 316.126C153.638 314.152 152.048 290.087 151.336 278.301Z" fill="#774355"/>
<path d="M277.638 279.945L284.874 277.314" stroke="#A45534" stroke-linecap="round"/>
<path d="M273.5 239.5C274.957 238.873 278.766 237.589 281.585 236.2" stroke="#A45534" stroke-linecap="round"/>
<path d="M142.455 225.181C131.141 225.839 108.468 239.05 98.71 245.245C111.209 231.595 135.767 220.522 145.909 217.123C143.804 218.175 142.729 222.934 142.455 225.181Z" fill="#966BA0"/>
<path d="M242.61 128.81C232.084 125.126 230.549 122.341 231.098 121.409C227.973 121.793 220.737 123.054 218.763 125.356C216.643 127.829 215.145 131.112 214.816 132.757C218.106 132.099 232.633 131.441 239.32 131.441C254.187 139.466 261.686 154.465 265.304 161.865C268.725 161.734 269.909 161.537 269.909 159.892C268.923 152.491 255.766 133.414 242.61 128.81Z" fill="#D47650"/>
<path d="M178.635 323.69C178.109 321.848 184.336 319.086 187.516 317.934C191.298 316.728 198.995 314.843 199.521 316.948C200.177 319.573 193.794 321.871 189.682 323.351L189.653 323.361C185.542 324.842 179.293 325.993 178.635 323.69Z" fill="#FEF189"/>
<path d="M204.454 315.632C203.928 314.316 205.332 313.22 206.099 312.836C206.976 312.562 208.895 312.343 209.553 313.659C210.21 314.974 208.511 316.071 207.579 316.454C206.757 316.728 204.981 316.948 204.454 315.632Z" fill="#FEF189"/>
<path d="M259.218 295.075C257.377 293.496 265.358 290.47 269.579 289.155C273.362 287.839 281.091 285.767 281.749 288.003C282.407 290.24 275.883 292.663 272.539 293.595C268.867 294.746 261.06 296.654 259.218 295.075Z" fill="#FEF189"/>
<path d="M170.412 267.446C169.491 265.736 171.563 264.541 172.714 264.157C173.866 263.773 176.332 263.565 176.99 265.802C177.648 268.038 175.291 269.036 174.03 269.255C173.208 269.365 171.333 269.157 170.412 267.446Z" fill="#FEF189"/>
<path d="M181.102 264.157C179.523 261.263 187.79 258.346 192.12 257.25C195.19 256.373 201.593 255.013 202.645 256.592C203.698 258.171 197.493 261.197 194.258 262.513C190.531 264.267 182.68 267.052 181.102 264.157Z" fill="#FEF189"/>
<path d="M111.372 163.674C114.53 161.964 120.911 165.374 123.706 167.292C132.258 174.134 131.765 176.941 130.449 177.489C129.901 177.653 128.377 177.522 126.667 175.68C124.529 173.377 118.444 169.43 113.675 167.292C109.859 165.582 110.55 164.168 111.372 163.674Z" fill="#FEF189"/>
<path d="M138.343 187.192C136.238 186.534 134.286 184.286 133.574 183.245C132.258 181.271 134.067 179.956 135.712 180.778C137.027 181.436 138.343 183.354 138.836 184.231C139.549 185.492 140.448 187.849 138.343 187.192Z" fill="#FEF189"/>
<path d="M151.828 207.913C150.644 206.334 157.584 201.993 161.202 200.019C166.958 196.458 172.057 194.921 173.043 195.908C173.833 196.697 167.561 200.841 164.327 202.815C160.654 205.172 153.013 209.492 151.828 207.913Z" fill="#FEF189"/>
<path d="M232.741 175.186C233.267 174.397 236.359 172.994 237.839 172.391C240.141 171.364 242.773 173.706 240.306 174.857C238.332 175.778 234.989 176.118 233.563 176.173C233.07 176.173 232.215 175.976 232.741 175.186Z" fill="#FEF189"/>
<path d="M244.911 171.239C244.779 169.003 252.311 167.238 256.094 166.635C261.027 165.584 267.77 165.648 268.263 167.457C268.658 168.904 261.192 170.801 257.409 171.568C253.298 172.391 245.042 173.476 244.911 171.239Z" fill="#FEF189"/>
<path d="M261.027 143.94C258.528 141.571 258.67 140.431 259.054 140.157C262.508 136.704 275.993 155.78 277.637 160.056C279.282 164.332 275.993 162.194 274.842 160.056C273.691 157.918 264.152 146.9 261.027 143.94Z" fill="#FEF189"/>
<path d="M160.71 157.919C163.835 158.851 171.071 161.537 175.018 164.826" stroke="#505055" stroke-width="5" stroke-linecap="round"/>
<path d="M223.111 139C221.905 141.796 219.395 148.341 219 152.157" stroke="#505055" stroke-width="5" stroke-linecap="round"/>
<path d="M162.847 170.088C164.426 167.983 167.562 168.882 168.932 169.595C173.932 173.147 170.029 176.995 167.452 178.475C166.466 178.914 164.064 179.364 162.354 177.653C160.216 175.515 160.874 172.719 162.847 170.088Z" fill="#505055"/>
<path d="M227.479 157.096C224.716 154.991 226.565 151.011 227.972 149.86C229.178 148.873 232.248 147.656 234.879 150.682C237.511 153.708 235.756 156.219 234.55 157.096C233.344 157.973 230.242 159.201 227.479 157.096Z" fill="#505055"/>
<path d="M108.577 243.765C106.735 243.896 102.876 249.411 101.177 252.152L99.8612 251.823C99.598 251.165 98.8744 247.218 98.71 245.245C109.498 236.693 127.764 229.238 135.384 226.661C128.016 234.818 133.246 250.124 136.864 256.592C131.93 256.099 130.614 251.33 129.628 248.698C128.641 246.067 125.845 243.929 124.365 242.778C123.181 241.857 122.885 242.504 122.885 242.942C123.017 245.442 121.734 247.163 121.076 247.712C121.076 250.869 123.707 254.948 125.023 256.592H124.53C120.912 251.658 119.596 245.08 119.103 241.791C118.576 241.528 117.129 241.222 116.636 241.462C111.242 244.093 112.524 251.713 113.84 254.948L111.209 254.454C109.367 252.744 108.687 246.451 108.577 243.765Z" fill="#7C4390"/>
<path d="M110.5 239C109.294 242.508 107.947 248.632 111.5 253.5" stroke="#4A1E5B" stroke-width="2" stroke-linecap="round"/>
<path d="M124.5 256C124.336 255.671 116.402 244.847 121.5 233.5" stroke="#4A1E5B" stroke-width="2" stroke-linecap="round"/>
<path d="M198.297 200.25C196.982 198.014 198.188 195.81 198.955 194.988C200.106 193.672 201.422 193.672 202.409 195.975C203.395 198.277 203.231 201.237 203.066 203.375C202.935 205.085 202.025 204.746 201.586 204.362C201.038 203.923 199.613 202.487 198.297 200.25Z" fill="#FFDDA0"/>
<path d="M200.107 194.166C199.998 195.481 199.417 198.408 197.969 199.593C197.22 198.539 197.877 194.921 200.107 194.166Z" fill="#D98B99"/>
<path d="M267.627 213.63C265.916 215.34 265.379 220.702 265.324 223.169C265.261 224.417 266.175 224.785 266.64 224.813C269.271 224.813 272.012 223.717 273.054 223.169C273.767 222.84 275.192 221.656 275.192 219.551C275.192 216.919 273.547 214.781 272.232 213.301C270.916 211.821 269.765 211.492 267.627 213.63Z" fill="#FFDDA0"/>
<path d="M268.449 220.661C267.397 219.608 267.436 215.617 267.6 213.753C265.791 215.234 265.325 222.141 265.325 222.799C265.325 223.456 264.996 224.608 266.64 224.936C268.285 225.265 270.587 224.279 273.054 223.292C275.028 222.502 275.275 220.167 275.165 219.016C273.027 221.647 269.765 221.976 268.449 220.661Z" fill="#D98B99"/>
<path d="M218.763 216.958C200.344 214.853 189.928 230.334 187.023 238.337C185.049 241.243 183.142 247.382 191.299 248.698C199.456 250.014 215.419 245.848 222.381 243.6C227.643 245.409 237.511 254.619 252.476 262.841C264.449 269.42 269.415 263.499 270.402 259.717C271.992 252.59 271.191 234.654 255.272 219.918C239.353 205.183 224.299 211.805 218.763 216.958Z" fill="#DC91EE"/>
<path d="M212.842 230.115C212.974 235.377 217.173 239.982 219.256 241.627L222.545 243.6C206.757 248.731 195.19 249.137 191.463 248.698L187.022 238.173C187.954 235.377 191.627 228.306 198.863 222.385C206.099 216.465 215.144 216.3 218.763 216.958C223.696 213.011 231.426 209.064 241.622 211.86C249.779 214.097 256.313 220.467 258.561 223.372C256.423 221.727 252.641 219.425 246.556 217.452C241.688 215.873 240.69 218.329 240.8 219.754C240.909 221.07 241.721 224.721 244.089 228.799C246.457 232.878 247.816 237.077 248.2 238.666C239.78 227.352 229.562 224.194 225.505 224.03C221.229 223.865 212.71 224.852 212.842 230.115Z" fill="#B15AD4"/>
<path d="M261.021 218.194C259.837 218.852 258.225 221.099 257.567 222.141L262.501 227.897C262.94 227.952 264.179 227.732 265.626 226.417C267.435 224.772 265.626 221.483 264.639 219.838C263.652 218.194 262.501 217.372 261.021 218.194Z" fill="#FFDDA0"/>
<path d="M261.186 223.785C259.475 222.733 259.157 220.715 259.212 219.838L257.403 222.141L262.501 227.897C263.488 227.897 263.653 227.732 264.804 227.074C266.469 226.123 266.613 224.772 266.284 223.621C265.297 223.895 262.896 224.838 261.186 223.785Z" fill="#D98B99"/>
<path d="M189.982 253.139L183.897 254.948C178.141 254.29 177.483 251.988 177.812 249.356C178.141 246.725 182.582 240.476 184.555 238.996C186.134 237.811 187.844 238.173 188.502 238.502C189.489 239.05 191.528 241.035 191.791 244.587C192.054 248.139 190.695 251.768 189.982 253.139Z" fill="#FFDDA0"/>
<path d="M182.911 250.507C180.411 250.113 180.664 245.354 180.773 243.436C178.307 246.889 177.571 249.177 177.978 251.823C178.307 253.961 182.089 254.783 183.898 254.948L189.983 253.139C190.904 251.297 191.628 248.698 191.628 247.876C190.476 249.85 186.036 251.001 182.911 250.507Z" fill="#D98B99"/>
<path d="M177.039 256.819L171.941 258.299C170.845 257.751 168.751 256.161 169.146 254.188C169.639 251.721 174.079 247.116 175.395 245.965C176.447 245.044 177.478 245.472 177.862 245.801C178.465 246.294 179.638 247.906 179.506 250.405C179.375 252.905 177.807 255.723 177.039 256.819Z" fill="#FFDDA0"/>
<path d="M173.257 254.023C171.81 252.971 172.763 249.528 173.421 247.938C172.106 249.364 169.212 252.418 169.097 254.619C168.993 256.592 170.96 257.908 172.057 258.401L176.875 256.984C178.19 255.536 179.183 252.755 179.457 251.494C178.032 252.81 174.704 255.076 173.257 254.023Z" fill="#D98B99"/>
<path d="M219 217C224.811 217.713 238.465 223.043 248.201 238.831" stroke="#4A1E5B" stroke-linecap="round"/>
<path d="M196.725 243.765C198.314 239.05 205.16 232.185 222 243.5" stroke="#4A1E5B" stroke-linecap="round"/>
<path d="M235.199 230.244C236.844 229.915 238.982 231.724 239.311 231.889C241.153 233.336 241.942 234.684 242.106 235.178C242.326 235.835 242.304 236.987 240.462 236.329C238.62 235.671 236.405 233.752 235.528 232.875C234.87 232.108 233.884 230.507 235.199 230.244Z" fill="#FDE5F2"/>
<path d="M256.25 231.889C255.066 229.257 253.015 226.297 252.138 225.146C251.316 224.011 251.645 222.186 253.783 223.501C255.921 224.817 258.717 228.764 259.539 230.244C260.361 231.724 262.663 236.822 262.992 238.302C263.321 239.782 263.486 240.44 262.992 242.578C262.499 244.716 260.854 242.249 260.361 240.605C259.868 238.96 257.73 235.178 256.25 231.889Z" fill="#FDE5F2"/>
<path d="M264.308 254.583C263.519 253.794 263.541 250.637 263.65 249.156C263.701 248.048 264.801 247.183 265.624 249.321C266.282 251.031 265.898 253.323 265.624 254.255C265.514 254.693 265.097 255.373 264.308 254.583Z" fill="#FDE5F2"/>
<path d="M189.979 202.038C188.4 200.065 191.185 197.817 192.774 196.94C196.327 195.098 197.763 196.611 198.037 197.598C198.64 199.462 199.813 203.946 199.682 206.972C199.55 209.998 197.434 208.891 196.393 207.959C194.912 206.808 191.557 204.012 189.979 202.038Z" fill="#FFDDA0"/>
<path d="M193.433 200.723C192.907 203.091 193.323 204.999 193.597 205.657C191.624 203.683 188.006 201.71 190.144 199.078C191.854 196.973 194.368 196.182 195.41 196.073C194.971 196.621 193.959 198.355 193.433 200.723Z" fill="#D98B99"/>
<path d="M181.647 207.54C179.673 204.119 182.469 200.852 184.113 199.646C188.324 196.62 190.363 199.7 190.856 201.619C191.24 203.264 191.909 207.441 191.514 210.993C191.119 214.545 188.718 214.227 187.567 213.624C186.416 213.021 183.62 210.96 181.647 207.54Z" fill="#FFDDA0"/>
<path d="M184.113 202.264C182.666 205.159 183.181 208.843 183.62 210.323C182.418 209.052 181.591 207.308 181.317 206.705C180.769 205.608 180.396 202.791 183.291 200.291C186.185 197.791 188.174 198.21 188.996 198.868C188.009 198.813 185.56 199.37 184.113 202.264Z" fill="#D98B99"/>
<path d="M169.774 212.69C167.669 208.612 171.309 205.29 173.392 204.139C177.01 202.001 181.944 201.014 182.273 209.401C182.536 216.111 181.506 219.433 180.957 220.255C180.245 221.352 178.392 223.216 176.682 221.9C174.544 220.255 172.406 217.789 169.774 212.69Z" fill="#FFDDA0"/>
<path d="M174.05 209.073C171.814 212.099 172.351 216.254 172.899 217.953C169.775 213.513 168.952 210.882 169.117 209.73C169.281 208.579 170.103 205.619 174.544 203.481C178.096 201.771 180.225 203.089 180.773 203.966C179.512 204.405 176.287 206.047 174.05 209.073Z" fill="#D98B99"/>
<path d="M157.643 218.976C155.407 215.424 159.233 211.576 161.426 210.096C166.162 206.938 169.21 209.438 170.142 211.082C170.69 212.014 171.786 214.766 171.786 218.318C171.786 221.871 171.238 226.048 170.964 227.693C170.8 228.679 169.484 230.159 166.853 228.844C163.564 227.199 160.439 223.417 157.643 218.976Z" fill="#FFDDA0"/>
<path d="M162.247 209.602C166.019 207.377 169.097 209.229 170.083 210.874C166.959 210.38 162.576 212.563 161.261 215.523C160.208 217.891 161.699 223.088 162.576 225.39C160.822 223.417 157.248 219.075 156.985 217.496C156.656 215.523 157.585 212.354 162.247 209.602Z" fill="#D98B99"/>
<path d="M268.748 183.738C268.09 177.818 271.982 176.338 274.01 176.338C277.464 176.338 279.931 177.489 279.931 179.462C279.931 181.436 278.615 186.863 276.477 191.303C274.767 194.855 272.804 194.099 272.037 193.277C271.215 192.564 269.406 189.659 268.748 183.738Z" fill="#FFDDA0"/>
<path d="M271.634 185.876C271.371 189.297 273.169 192.673 274.1 193.934C270.647 195.25 269.167 187.52 268.673 185.054C268.18 182.587 268.345 179.791 269.989 178.146C271.634 176.502 273.527 175.68 277.309 176.666C280.335 177.456 280.27 180.12 279.612 181.6C277.901 178.969 275.471 179.407 274.594 179.955C273.717 180.504 271.897 182.455 271.634 185.876Z" fill="#D98B99"/>
<path d="M257.119 183.36C255.935 179.414 260.244 177.879 262.546 177.605C264.684 177.35 267.48 176.782 269.124 179.578C270.44 181.815 269.782 185.882 269.289 187.636C268.521 189.939 266.361 194.28 263.862 193.228C260.737 191.912 258.599 188.294 257.119 183.36Z" fill="#FFDDA0"/>
<path d="M261.395 181.058C258.895 183.031 260.134 188.568 261.066 191.09C258.928 189.116 257.777 185.169 257.119 183.36C256.593 181.913 257.229 180.455 257.612 179.907C258.051 179.304 259.877 177.818 263.204 177.44C266.643 177.049 268.1 177.982 268.795 179.084C267.37 178.92 263.894 179.084 261.395 181.058Z" fill="#D98B99"/>
<path d="M247.238 184.146C246.317 181.12 249.924 179.377 251.842 178.883C254.145 178.225 257.105 178.883 257.927 181.843C258.585 184.212 258.201 187.654 257.927 189.08C257.434 191.601 255.756 196.217 252.994 194.507C249.54 192.369 248.389 187.928 247.238 184.146Z" fill="#FFDDA0"/>
<path d="M251.513 184.31C250.066 188.125 252.116 192.807 253.322 194.671C249.77 193.092 247.676 186.667 247.073 183.652C246.909 182.611 247.501 180.231 251.185 179.047C254.868 177.863 256.776 179.541 257.27 180.528C255.954 180.199 252.961 180.495 251.513 184.31Z" fill="#D98B99"/>
<path d="M244.884 193.548C243.239 192.232 239.621 186.641 238.634 184.503C237.845 182.792 240.827 181.817 242.417 181.543C243.733 181.378 247.022 180.227 247.68 184.503C248.206 187.924 247.68 190.971 247.351 192.068C247.077 193 246.2 194.6 244.884 193.548Z" fill="#FFDDA0"/>
<path d="M242.582 184.832C242.319 186.674 243.788 191.191 244.555 193.219C242.28 191.139 239.156 185.712 238.635 184.503C238.344 183.828 238.169 182.694 241.623 181.707C244.386 180.918 245.734 181.271 246.227 181.765C245.186 182.039 242.845 182.99 242.582 184.832Z" fill="#D98B99"/>
<path d="M235.084 186.922C233.768 184.29 235.194 183.084 236.071 182.81C237.65 182.284 238.483 182.81 238.702 183.139C240.018 185.277 239.524 189.224 239.524 191.691C239.524 193.664 238.757 193.171 238.373 192.678C237.825 191.855 236.4 189.553 235.084 186.922Z" fill="#FFDDA0"/>
<path d="M237.057 185.935C236.531 187.645 236.908 189.933 237.182 190.81C236.579 189.768 235.36 187.358 234.919 186.593C234.222 185.383 234.261 183.468 236.07 182.81C237.518 182.284 238.498 182.587 238.991 183.409C238.662 183.574 237.584 184.225 237.057 185.935Z" fill="#D98B99"/>
</svg>
