<svg width="395" height="491" viewBox="0 0 395 491" fill="none" xmlns="http://www.w3.org/2000/svg">
<rect width="394.099" height="490.871" rx="20" fill="#202020" fill-opacity="0.5"/>
<path d="M52 51.96C52 53.64 53.04 57.72 55.12 64.2L56.4 68.2L56.68 68.12C56.7067 67.56 58.36 62.0667 61.64 51.64C61.64 51.3733 61.4933 51.12 61.2 50.88C60.9067 50.6133 60.6 50.44 60.28 50.36L60.4 49.8C61.7333 49.9067 63.56 49.96 65.88 49.96C68.2 49.96 70.0533 49.8533 71.44 49.64L71.64 50.64C70.36 51.04 69.0667 51.32 67.76 51.48C67.6267 52.12 67.56 53.2667 67.56 54.92C67.56 56.5467 67.7733 59.8267 68.2 64.76C68.6533 69.6933 69.0667 72.9733 69.44 74.6C70.8533 74.7333 72.32 74.9867 73.84 75.36L73.72 76.32C71.7467 76.1067 69.6133 76 67.32 76C65.0267 76 63.1733 76.1067 61.76 76.32L61.6 75.32C62.8 74.9467 64.08 74.6667 65.44 74.48C65.44 71.9467 65.2933 68.4533 65 64C64.7067 59.5467 64.3333 55.7333 63.88 52.56L63.76 52.52C59.9467 63.08 57.9467 69.5067 57.76 71.8C56.0267 72.84 54.7333 73.8533 53.88 74.84L53.4 74.52C53.4533 73.9333 53.48 73.4933 53.48 73.2C53.48 70.08 51.7333 63.1867 48.24 52.52L48.08 52.56L46.84 61.32C46.3067 65.1333 46.04 68.5733 46.04 71.64C46.04 72.6267 46.1467 73.44 46.36 74.08C46.6 74.72 47.0667 75.2267 47.76 75.6L47.6 76.16C46.7733 76.0533 45.36 76 43.36 76C41.3867 76 39.6133 76.1067 38.04 76.32L37.88 75.32C39.08 74.9467 40.36 74.6667 41.72 74.48L46.2 52.16C43.0533 52.16 41.04 52.5867 40.16 53.44C39.9733 53.8133 39.88 54.4 39.88 55.2C39.88 56 40.0133 56.5467 40.28 56.84L40.24 57.12C39.5733 57.52 38.9067 58.08 38.24 58.8C37.92 58.7733 37.6667 58.64 37.48 58.4C37.2667 58.16 37.16 57.88 37.16 57.56C37.16 56.2533 37.9467 54.6933 39.52 52.88C41.0933 51.0667 42.56 49.92 43.92 49.44C44.1333 49.44 45.0933 49.5333 46.8 49.72C48.5067 49.88 49.8267 49.96 50.76 49.96C51.72 49.96 52.6267 49.88 53.48 49.72L53.64 50.72C52.5467 51.1467 52 51.56 52 51.96ZM81.5703 56.48C81.357 57.92 81.2503 60.8667 81.2503 65.32C81.2503 69.7733 81.3703 72.8933 81.6103 74.68C82.8103 74.8133 83.917 75.0133 84.9303 75.28L84.8103 76.28C83.4236 76.0933 81.8636 76 80.1303 76C78.4236 76 76.8903 76.1067 75.5303 76.32L75.3703 75.28C76.117 75.04 76.957 74.84 77.8903 74.68C78.1303 72.76 78.2503 70.04 78.2503 66.52V64.64C78.2503 61.12 78.117 58.4 77.8503 56.48C76.917 56.32 76.077 56.12 75.3303 55.88L75.4903 54.84C76.8503 55.0533 78.3836 55.16 80.0903 55.16C81.8236 55.16 83.3836 55.0667 84.7703 54.88L84.8903 55.88C83.877 56.1467 82.7703 56.3467 81.5703 56.48ZM97.9941 73.76C97.9941 72.1067 97.5807 69.64 96.7541 66.36C95.9274 63.0533 95.0074 59.8533 93.9941 56.76L93.8341 56.8L92.8341 64.24C92.4074 67.3067 92.1941 70.0667 92.1941 72.52C92.1941 74.0133 92.6607 75.0133 93.5941 75.52L93.4341 76.2C92.6341 76.0667 91.5807 76 90.2741 76C88.9941 76 87.5807 76.1067 86.0341 76.32L85.8741 75.28C86.7807 74.9867 87.6341 74.7733 88.4341 74.64L92.1541 56.4C90.7674 56.16 89.7407 55.9467 89.0741 55.76L89.1941 54.72C91.1141 55.0133 92.8874 55.16 94.5141 55.16C96.1674 55.16 97.4474 55.0667 98.3541 54.88L98.4341 55.56C97.7141 55.7467 97.3541 56.0533 97.3541 56.48C97.3541 57.0667 98.1807 60.4533 99.8341 66.64L100.714 69.64L100.994 69.56C100.994 68.8667 102.207 64.52 104.634 56.52C104.634 56.0667 104.274 55.7467 103.554 55.56L103.634 54.88C104.541 55.0667 105.821 55.16 107.474 55.16C109.154 55.16 110.941 55.0133 112.834 54.72L112.954 55.76C112.234 55.9467 111.314 56.1467 110.194 56.36C110.114 57 110.074 57.9467 110.074 59.2C110.074 60.4267 110.247 62.96 110.594 66.8C110.941 70.64 111.261 73.28 111.554 74.72C112.541 74.8533 113.554 75.04 114.594 75.28L114.474 76.28C113.087 76.0933 111.541 76 109.834 76C108.154 76 106.634 76.1067 105.274 76.32L105.114 75.28C105.994 75.0133 106.941 74.8133 107.954 74.68C107.874 68.3867 107.447 62.4533 106.674 56.88H106.554C103.807 64.9867 102.341 70.24 102.154 72.64C101.594 72.8267 100.941 73.1733 100.194 73.68C99.4474 74.16 98.8741 74.64 98.4741 75.12L97.9941 74.8V73.76ZM122.859 56.48C122.646 57.92 122.539 60.8667 122.539 65.32C122.539 69.7733 122.659 72.8933 122.899 74.68C124.099 74.8133 125.206 75.0133 126.219 75.28L126.099 76.28C124.713 76.0933 123.153 76 121.419 76C119.713 76 118.179 76.1067 116.819 76.32L116.659 75.28C117.406 75.04 118.246 74.84 119.179 74.68C119.419 72.76 119.539 70.04 119.539 66.52V64.64C119.539 61.12 119.406 58.4 119.139 56.48C118.206 56.32 117.366 56.12 116.619 55.88L116.779 54.84C118.139 55.0533 119.673 55.16 121.379 55.16C123.113 55.16 124.673 55.0667 126.059 54.88L126.179 55.88C125.166 56.1467 124.059 56.3467 122.859 56.48ZM137.963 73.68C139.803 73.68 141.536 72.8667 143.163 71.24L143.723 71.8C141.936 74.0667 139.79 75.6267 137.283 76.48C134.696 76.48 132.67 75.6667 131.203 74.04C129.736 72.3867 129.003 70.1733 129.003 67.4C129.003 64.6 129.87 61.9733 131.603 59.52C133.336 57.0667 135.55 55.4533 138.243 54.68C140.19 54.68 142.39 54.88 144.843 55.28L144.803 56.16C144.296 56.16 143.816 56.2533 143.363 56.44C142.856 57.64 142.523 59.0667 142.363 60.72H141.363C141.15 59.8133 141.043 58.88 141.043 57.92C140.03 57.4133 138.83 57.16 137.443 57.16C136.056 57.16 134.91 57.5333 134.003 58.28C132.963 60.1733 132.443 62.4667 132.443 65.16C132.443 69.3467 133.336 71.9733 135.123 73.04C135.896 73.4667 136.843 73.68 137.963 73.68Z" fill="#FAF9F6"/>
<path d="M40.5415 379.36V376.912H47.4535V379.36H40.5415ZM55.5068 385C54.6748 385 53.8988 384.856 53.1788 384.568C52.4748 384.264 51.8588 383.848 51.3308 383.32C50.8188 382.792 50.4108 382.168 50.1068 381.448C49.8188 380.728 49.6748 379.936 49.6748 379.072C49.6748 378.64 49.7308 378.16 49.8428 377.632C49.9708 377.088 50.1548 376.496 50.3948 375.856C50.6508 375.216 50.9548 374.544 51.3068 373.84C51.6588 373.12 52.0668 372.376 52.5308 371.608L54.7148 367.912H57.2348L57.3308 368.152L54.6908 372.592C54.2108 373.408 53.7788 374.184 53.3948 374.92C53.0268 375.656 52.7148 376.352 52.4588 377.008C52.2028 377.648 52.0108 378.232 51.8828 378.76L51.3068 376.288C51.6108 375.792 51.9388 375.36 52.2908 374.992C52.6428 374.608 53.0188 374.288 53.4188 374.032C53.8348 373.776 54.2668 373.584 54.7148 373.456C55.1628 373.328 55.6268 373.264 56.1068 373.264C57.0348 373.264 57.8828 373.52 58.6508 374.032C59.4348 374.528 60.0588 375.192 60.5228 376.024C61.0028 376.856 61.2428 377.768 61.2428 378.76C61.2428 379.96 60.9948 381.032 60.4988 381.976C60.0188 382.904 59.3468 383.64 58.4828 384.184C57.6188 384.728 56.6268 385 55.5068 385ZM55.5068 382.6C56.1308 382.6 56.6828 382.456 57.1628 382.168C57.6588 381.864 58.0428 381.448 58.3148 380.92C58.6028 380.376 58.7468 379.76 58.7468 379.072C58.7468 378.48 58.6028 377.928 58.3148 377.416C58.0268 376.888 57.6428 376.464 57.1628 376.144C56.6828 375.824 56.1468 375.664 55.5548 375.664C54.8988 375.664 54.3148 375.816 53.8028 376.12C53.2908 376.424 52.8908 376.832 52.6028 377.344C52.3148 377.856 52.1708 378.424 52.1708 379.048C52.1708 379.72 52.3148 380.328 52.6028 380.872C52.8908 381.4 53.2828 381.824 53.7788 382.144C54.2748 382.448 54.8508 382.6 55.5068 382.6ZM70.4808 385V372.4H72.9768V375.088L72.5208 375.376C72.6488 374.96 72.8488 374.56 73.1208 374.176C73.4088 373.792 73.7528 373.456 74.1528 373.168C74.5688 372.864 75.0088 372.624 75.4728 372.448C75.9528 372.272 76.4408 372.184 76.9368 372.184C77.6568 372.184 78.2888 372.304 78.8328 372.544C79.3768 372.784 79.8248 373.144 80.1768 373.624C80.5288 374.104 80.7848 374.704 80.9448 375.424L80.5608 375.328L80.7288 374.92C80.9048 374.552 81.1448 374.208 81.4488 373.888C81.7688 373.552 82.1288 373.256 82.5288 373C82.9288 372.744 83.3528 372.544 83.8008 372.4C84.2488 372.256 84.6888 372.184 85.1208 372.184C86.0648 372.184 86.8408 372.376 87.4488 372.76C88.0728 373.144 88.5368 373.728 88.8408 374.512C89.1608 375.296 89.3208 376.272 89.3208 377.44V385H86.8248V377.584C86.8248 376.864 86.7288 376.28 86.5368 375.832C86.3608 375.368 86.0888 375.024 85.7208 374.8C85.3528 374.576 84.8808 374.464 84.3048 374.464C83.8568 374.464 83.4328 374.544 83.0328 374.704C82.6488 374.848 82.3128 375.056 82.0248 375.328C81.7368 375.6 81.5128 375.92 81.3528 376.288C81.1928 376.64 81.1128 377.032 81.1128 377.464V385H78.6168V377.536C78.6168 376.88 78.5208 376.328 78.3288 375.88C78.1368 375.416 77.8568 375.064 77.4888 374.824C77.1208 374.584 76.6728 374.464 76.1448 374.464C75.6968 374.464 75.2808 374.544 74.8968 374.704C74.5128 374.848 74.1768 375.056 73.8888 375.328C73.6008 375.584 73.3768 375.896 73.2168 376.264C73.0568 376.616 72.9768 377 72.9768 377.416V385H70.4808ZM97.4783 385.24C96.4383 385.24 95.4863 384.952 94.6223 384.376C93.7743 383.8 93.0943 383.016 92.5823 382.024C92.0703 381.032 91.8143 379.912 91.8143 378.664C91.8143 377.4 92.0703 376.28 92.5823 375.304C93.1103 374.312 93.8143 373.536 94.6943 372.976C95.5903 372.416 96.5903 372.136 97.6943 372.136C98.3503 372.136 98.9503 372.232 99.4943 372.424C100.038 372.616 100.51 372.888 100.91 373.24C101.326 373.576 101.662 373.968 101.918 374.416C102.19 374.864 102.358 375.344 102.422 375.856L101.87 375.664V372.4H104.366V385H101.87V382L102.446 381.832C102.35 382.264 102.15 382.688 101.846 383.104C101.558 383.504 101.182 383.864 100.718 384.184C100.27 384.504 99.7663 384.76 99.2063 384.952C98.6623 385.144 98.0863 385.24 97.4783 385.24ZM98.1263 382.96C98.8783 382.96 99.5423 382.776 100.118 382.408C100.694 382.04 101.142 381.536 101.462 380.896C101.798 380.24 101.966 379.496 101.966 378.664C101.966 377.848 101.798 377.12 101.462 376.48C101.142 375.84 100.694 375.336 100.118 374.968C99.5423 374.6 98.8783 374.416 98.1263 374.416C97.3903 374.416 96.7343 374.6 96.1583 374.968C95.5983 375.336 95.1503 375.84 94.8143 376.48C94.4943 377.12 94.3343 377.848 94.3343 378.664C94.3343 379.496 94.4943 380.24 94.8143 380.896C95.1503 381.536 95.5983 382.04 96.1583 382.408C96.7343 382.776 97.3903 382.96 98.1263 382.96ZM113.458 390.52C112.562 390.52 111.666 390.376 110.77 390.088C109.89 389.816 109.178 389.456 108.634 389.008L109.546 387.088C109.866 387.328 110.242 387.536 110.674 387.712C111.106 387.904 111.562 388.048 112.042 388.144C112.522 388.256 112.994 388.312 113.458 388.312C114.338 388.312 115.074 388.168 115.666 387.88C116.258 387.592 116.706 387.168 117.01 386.608C117.314 386.048 117.466 385.352 117.466 384.52V382.096L117.73 382.264C117.65 382.76 117.386 383.24 116.938 383.704C116.506 384.152 115.962 384.52 115.306 384.808C114.65 385.096 113.978 385.24 113.29 385.24C112.09 385.24 111.018 384.96 110.074 384.4C109.146 383.824 108.41 383.048 107.866 382.072C107.322 381.08 107.05 379.952 107.05 378.688C107.05 377.424 107.314 376.304 107.842 375.328C108.386 374.336 109.122 373.56 110.05 373C110.994 372.424 112.05 372.136 113.218 372.136C113.698 372.136 114.162 372.2 114.61 372.328C115.058 372.44 115.474 372.608 115.858 372.832C116.242 373.04 116.586 373.272 116.89 373.528C117.194 373.784 117.442 374.056 117.634 374.344C117.826 374.632 117.946 374.904 117.994 375.16L117.466 375.352V372.4H119.938V384.232C119.938 385.24 119.786 386.128 119.482 386.896C119.194 387.68 118.77 388.336 118.21 388.864C117.65 389.408 116.97 389.816 116.17 390.088C115.37 390.376 114.466 390.52 113.458 390.52ZM113.554 382.96C114.338 382.96 115.034 382.776 115.642 382.408C116.25 382.04 116.722 381.536 117.058 380.896C117.394 380.256 117.562 379.52 117.562 378.688C117.562 377.856 117.386 377.12 117.034 376.48C116.698 375.824 116.226 375.312 115.618 374.944C115.026 374.576 114.338 374.392 113.554 374.392C112.786 374.392 112.098 374.584 111.49 374.968C110.898 375.336 110.426 375.848 110.074 376.504C109.738 377.144 109.57 377.872 109.57 378.688C109.57 379.504 109.738 380.24 110.074 380.896C110.426 381.536 110.898 382.04 111.49 382.408C112.098 382.776 112.786 382.96 113.554 382.96ZM123.812 385V372.4H126.284V385H123.812ZM125.012 369.616C124.484 369.616 124.076 369.48 123.788 369.208C123.5 368.936 123.356 368.552 123.356 368.056C123.356 367.592 123.5 367.216 123.788 366.928C124.092 366.64 124.5 366.496 125.012 366.496C125.54 366.496 125.948 366.632 126.236 366.904C126.524 367.176 126.668 367.56 126.668 368.056C126.668 368.52 126.516 368.896 126.212 369.184C125.924 369.472 125.524 369.616 125.012 369.616ZM135.435 385.24C134.267 385.24 133.219 384.952 132.291 384.376C131.379 383.8 130.651 383.016 130.107 382.024C129.579 381.032 129.315 379.92 129.315 378.688C129.315 377.456 129.579 376.344 130.107 375.352C130.651 374.36 131.379 373.576 132.291 373C133.219 372.424 134.267 372.136 135.435 372.136C136.555 372.136 137.571 372.368 138.483 372.832C139.411 373.28 140.115 373.896 140.595 374.68L139.227 376.36C138.971 375.992 138.643 375.656 138.243 375.352C137.843 375.048 137.419 374.808 136.971 374.632C136.523 374.456 136.091 374.368 135.675 374.368C134.907 374.368 134.219 374.56 133.611 374.944C133.019 375.312 132.547 375.824 132.195 376.48C131.843 377.136 131.667 377.872 131.667 378.688C131.667 379.504 131.851 380.24 132.219 380.896C132.587 381.536 133.075 382.048 133.683 382.432C134.291 382.816 134.963 383.008 135.699 383.008C136.131 383.008 136.547 382.936 136.947 382.792C137.363 382.648 137.763 382.432 138.147 382.144C138.531 381.856 138.891 381.504 139.227 381.088L140.595 382.768C140.083 383.488 139.347 384.08 138.387 384.544C137.443 385.008 136.459 385.24 135.435 385.24ZM155.294 390.52C154.398 390.52 153.502 390.376 152.606 390.088C151.726 389.816 151.014 389.456 150.47 389.008L151.382 387.088C151.702 387.328 152.078 387.536 152.51 387.712C152.942 387.904 153.398 388.048 153.878 388.144C154.358 388.256 154.83 388.312 155.294 388.312C156.174 388.312 156.91 388.168 157.502 387.88C158.094 387.592 158.542 387.168 158.846 386.608C159.15 386.048 159.302 385.352 159.302 384.52V382.096L159.566 382.264C159.486 382.76 159.222 383.24 158.774 383.704C158.342 384.152 157.798 384.52 157.142 384.808C156.486 385.096 155.814 385.24 155.126 385.24C153.926 385.24 152.854 384.96 151.91 384.4C150.982 383.824 150.246 383.048 149.702 382.072C149.158 381.08 148.886 379.952 148.886 378.688C148.886 377.424 149.15 376.304 149.678 375.328C150.222 374.336 150.958 373.56 151.886 373C152.83 372.424 153.886 372.136 155.054 372.136C155.534 372.136 155.998 372.2 156.446 372.328C156.894 372.44 157.31 372.608 157.694 372.832C158.078 373.04 158.422 373.272 158.726 373.528C159.03 373.784 159.278 374.056 159.47 374.344C159.662 374.632 159.782 374.904 159.83 375.16L159.302 375.352V372.4H161.774V384.232C161.774 385.24 161.622 386.128 161.318 386.896C161.03 387.68 160.606 388.336 160.046 388.864C159.486 389.408 158.806 389.816 158.006 390.088C157.206 390.376 156.302 390.52 155.294 390.52ZM155.39 382.96C156.174 382.96 156.87 382.776 157.478 382.408C158.086 382.04 158.558 381.536 158.894 380.896C159.23 380.256 159.398 379.52 159.398 378.688C159.398 377.856 159.222 377.12 158.87 376.48C158.534 375.824 158.062 375.312 157.454 374.944C156.862 374.576 156.174 374.392 155.39 374.392C154.622 374.392 153.934 374.584 153.326 374.968C152.734 375.336 152.262 375.848 151.91 376.504C151.574 377.144 151.406 377.872 151.406 378.688C151.406 379.504 151.574 380.24 151.91 380.896C152.262 381.536 152.734 382.04 153.326 382.408C153.934 382.776 154.622 382.96 155.39 382.96ZM171.12 385.24C169.824 385.24 168.672 384.968 167.664 384.424C166.672 383.864 165.888 383.104 165.312 382.144C164.752 381.184 164.472 380.08 164.472 378.832C164.472 377.84 164.632 376.936 164.952 376.12C165.272 375.304 165.712 374.6 166.272 374.008C166.848 373.4 167.528 372.936 168.312 372.616C169.112 372.28 169.976 372.112 170.904 372.112C171.72 372.112 172.48 372.272 173.184 372.592C173.888 372.896 174.496 373.32 175.008 373.864C175.536 374.408 175.936 375.056 176.208 375.808C176.496 376.544 176.632 377.352 176.616 378.232L176.592 379.288H166.296L165.744 377.32H174.456L174.096 377.728V377.152C174.048 376.624 173.872 376.152 173.568 375.736C173.264 375.32 172.88 374.992 172.416 374.752C171.952 374.512 171.448 374.392 170.904 374.392C170.04 374.392 169.312 374.56 168.72 374.896C168.128 375.216 167.68 375.696 167.376 376.336C167.072 376.96 166.92 377.736 166.92 378.664C166.92 379.544 167.104 380.312 167.472 380.968C167.84 381.608 168.36 382.104 169.032 382.456C169.704 382.808 170.48 382.984 171.36 382.984C171.984 382.984 172.56 382.88 173.088 382.672C173.632 382.464 174.216 382.088 174.84 381.544L176.088 383.296C175.704 383.68 175.232 384.016 174.672 384.304C174.128 384.592 173.544 384.824 172.92 385C172.312 385.16 171.712 385.24 171.12 385.24ZM179.254 385V372.4H181.75V375.088L181.294 375.376C181.422 374.96 181.622 374.56 181.894 374.176C182.182 373.792 182.526 373.456 182.926 373.168C183.342 372.864 183.782 372.624 184.246 372.448C184.726 372.272 185.214 372.184 185.71 372.184C186.43 372.184 187.062 372.304 187.606 372.544C188.15 372.784 188.598 373.144 188.95 373.624C189.302 374.104 189.558 374.704 189.718 375.424L189.334 375.328L189.502 374.92C189.678 374.552 189.918 374.208 190.222 373.888C190.542 373.552 190.902 373.256 191.302 373C191.702 372.744 192.126 372.544 192.574 372.4C193.022 372.256 193.462 372.184 193.894 372.184C194.838 372.184 195.614 372.376 196.222 372.76C196.846 373.144 197.31 373.728 197.614 374.512C197.934 375.296 198.094 376.272 198.094 377.44V385H195.598V377.584C195.598 376.864 195.502 376.28 195.31 375.832C195.134 375.368 194.862 375.024 194.494 374.8C194.126 374.576 193.654 374.464 193.078 374.464C192.63 374.464 192.206 374.544 191.806 374.704C191.422 374.848 191.086 375.056 190.798 375.328C190.51 375.6 190.286 375.92 190.126 376.288C189.966 376.64 189.886 377.032 189.886 377.464V385H187.39V377.536C187.39 376.88 187.294 376.328 187.102 375.88C186.91 375.416 186.63 375.064 186.262 374.824C185.894 374.584 185.446 374.464 184.918 374.464C184.47 374.464 184.054 374.544 183.67 374.704C183.286 374.848 182.95 375.056 182.662 375.328C182.374 375.584 182.15 375.896 181.99 376.264C181.83 376.616 181.75 377 181.75 377.416V385H179.254ZM205.604 385.24C204.548 385.24 203.596 385.056 202.748 384.688C201.9 384.32 201.196 383.776 200.636 383.056L202.316 381.616C202.796 382.176 203.316 382.584 203.876 382.84C204.452 383.08 205.1 383.2 205.82 383.2C206.108 383.2 206.372 383.168 206.612 383.104C206.868 383.024 207.084 382.912 207.26 382.768C207.452 382.624 207.596 382.456 207.692 382.264C207.788 382.056 207.836 381.832 207.836 381.592C207.836 381.176 207.684 380.84 207.38 380.584C207.22 380.472 206.964 380.352 206.612 380.224C206.276 380.08 205.836 379.936 205.292 379.792C204.364 379.552 203.604 379.28 203.012 378.976C202.42 378.672 201.964 378.328 201.644 377.944C201.404 377.64 201.228 377.312 201.116 376.96C201.004 376.592 200.948 376.192 200.948 375.76C200.948 375.232 201.06 374.752 201.284 374.32C201.524 373.872 201.844 373.488 202.244 373.168C202.66 372.832 203.14 372.576 203.684 372.4C204.244 372.224 204.836 372.136 205.46 372.136C206.052 372.136 206.636 372.216 207.212 372.376C207.804 372.536 208.348 372.768 208.844 373.072C209.34 373.376 209.756 373.736 210.092 374.152L208.676 375.712C208.372 375.408 208.036 375.144 207.668 374.92C207.316 374.68 206.956 374.496 206.588 374.368C206.22 374.24 205.884 374.176 205.58 374.176C205.244 374.176 204.94 374.208 204.668 374.272C204.396 374.336 204.164 374.432 203.972 374.56C203.796 374.688 203.66 374.848 203.564 375.04C203.468 375.232 203.42 375.448 203.42 375.688C203.436 375.896 203.484 376.096 203.564 376.288C203.66 376.464 203.788 376.616 203.948 376.744C204.124 376.872 204.388 377.008 204.74 377.152C205.092 377.296 205.54 377.432 206.084 377.56C206.884 377.768 207.54 378 208.052 378.256C208.58 378.496 208.996 378.776 209.3 379.096C209.62 379.4 209.844 379.752 209.972 380.152C210.1 380.552 210.164 381 210.164 381.496C210.164 382.216 209.956 382.864 209.54 383.44C209.14 384 208.596 384.44 207.908 384.76C207.22 385.08 206.452 385.24 205.604 385.24Z" fill="#FAF9F6"/>
<path d="M258.917 175.33C255.496 183.355 259.026 196.49 261.384 199.669L229.315 189.638C224.217 183.224 228.273 175.714 229.973 172.863C240.936 171.986 262.337 167.304 258.917 175.33Z" fill="#986BA4"/>
<path d="M254.641 170.889C251.22 178.915 246.747 188.322 247.076 194.9L229.315 189.637C224.217 183.224 228.273 175.713 229.973 172.863C240.936 171.986 258.062 162.864 254.641 170.889Z" fill="#7C4390"/>
<path d="M242.635 193.584C241.21 190.405 240.842 178.605 244 174" stroke="#4A1E5B" stroke-width="2" stroke-linecap="round"/>
<path d="M255.134 197.531C252.996 195.887 250.71 188.499 254 178.5" stroke="#4A1E5B" stroke-width="2" stroke-linecap="round"/>
<path d="M229.315 189.637C225.763 184.375 227.835 177.468 229.315 174.672L194.779 176.974L137.22 208.221L129.49 228.778L140.18 249.335L241.32 228.12C238.799 217.485 232.868 194.9 229.315 189.637Z" fill="#633C59"/>
<path d="M149.06 233.876C151.296 239.138 160.297 241.55 164.518 242.099L194.943 236.178C208.318 228.12 233.689 210.687 228.163 205.425C222.637 200.162 212.923 199.395 208.757 199.669C179.418 200.458 162.106 211.619 157.118 217.101C153.5 220.5 146.823 228.613 149.06 233.876Z" fill="#806A67"/>
<path d="M101.697 237.987C101.434 237.33 100.874 233.218 100.71 231.245C113.998 221.377 130.751 214.744 137.384 212.661C129.227 222.397 136.068 238.755 140.508 245.552L120.938 242.099L101.697 237.987Z" fill="#966BA0"/>
<path d="M240.991 117.441C202.442 115.599 147.305 136.957 124.556 147.865L154.816 187.335L268.948 151.319L271.744 143.425L246.747 116.783L240.991 117.441Z" fill="#BA8E66"/>
<path d="M257.437 148.359C251.911 128.756 242.307 119.689 238.195 117.605L244.445 117.112L261.384 130.104L267.633 148.03L257.437 148.359Z" fill="#934F59"/>
<path d="M281.119 169.409C284.145 166.515 290.109 162.995 292.631 161.68L276.185 152.799L180.307 181.414L145.278 201.807L144.62 211.017C203.035 173.126 259.959 167.49 281.119 169.409Z" fill="#C992D5"/>
<path d="M228.492 189.473C236.255 190.789 268.236 202.027 283.749 207.234C273.718 212.333 239.182 224.831 239.346 224.173C239.478 223.647 232.165 200.821 228.492 189.473Z" fill="#FCBC53"/>
<path d="M260.89 217.56L246.747 194.735L237.373 191.775L228.328 189.308L239.403 225.16L260.89 217.56Z" fill="#D17657"/>
<path d="M95.611 156.582C90.0853 162.765 91.0063 179.331 92.1575 186.842L144.948 204.767C222.703 161.088 275.8 157.842 292.63 161.68C279.802 125.499 249.707 109.218 244.444 107.574C239.181 105.929 224.216 108.067 221.256 110.863C218.888 113.099 217.364 117.003 216.815 118.757C221.528 117.971 234.825 117.501 241.06 117.28L241.155 117.277C254.838 124.25 264.288 140.575 267.303 147.865C231.518 147.208 179.265 171.492 157.611 183.717C137.613 152.799 121.54 144.85 116.004 144.741C111.509 146.111 101.137 150.398 95.611 156.582Z" fill="#FDBC56"/>
<path d="M104.821 156.746C130.871 149.51 148.676 182.456 154.322 199.833L145.277 204.438L92.1578 186.841C89.0332 171.711 92.8158 157.568 96.5983 155.595C96.5983 159.015 102.025 157.733 104.821 156.746Z" fill="#D47654"/>
<path d="M109.097 157.897C82.521 174.738 92.4322 213.813 100.71 231.245C114.13 216.904 136.013 207.728 145.278 204.932C137.778 171.383 118.033 159.597 109.097 157.897Z" fill="#7D415A"/>
<path d="M105.643 226.64C91.1709 175.856 108.165 162.393 118.471 162.009C134.258 170.034 143.249 193.749 145.441 204.768C125.707 210.688 110.467 221.926 105.643 226.64Z" fill="#95515E"/>
<path d="M91.8294 190.953C91.9609 184.506 100.217 175.658 104.328 172.04C95.7763 188.223 101.752 214.963 105.808 226.311C105.019 226.969 102.08 229.874 100.71 231.245C91.0071 207.234 91.6649 199.011 91.8294 190.953Z" fill="#976B60"/>
<path d="M108.604 181.415C99.9208 189.44 103.122 214.909 105.808 226.476C118.833 215.951 133.711 208.934 139.522 206.906C135.411 191.447 119.458 171.383 108.604 181.415Z" fill="#BA8E66"/>
<path d="M161.065 243.086C152.514 245.717 143.359 245.498 139.851 245.06L154.158 251.967L275.198 215.951L284.737 207.564L277.165 205.016C228.321 224.751 171.755 239.797 161.065 243.086Z" fill="#C992D5"/>
<path d="M169.123 245.717C163.203 247.691 159.639 247.745 158.598 247.526L156.46 258.874L162.38 282.226C163.586 288.695 166.163 302.52 166.821 306.073C167.479 309.625 172.796 317.201 175.372 320.545C215.171 306.292 295.327 277.622 297.563 276.964C299.8 276.306 298.934 274.826 298.221 274.168C296.083 272.249 291.413 268.083 289.834 266.767C288.255 265.452 287.203 262.93 286.874 261.834C285.448 248.622 282.96 222.068 284.407 221.542C285.854 221.016 285.339 212.168 284.736 207.563C242.964 226.311 176.524 243.25 169.123 245.717Z" fill="#FEBD57"/>
<path d="M101.696 237.987C101.367 235.849 101.203 232.889 100.709 231.245V233.547V236.507C99.6569 236.507 99.0649 237.384 98.9004 237.823C98.2426 242.263 99.8871 247.526 100.709 247.855C101.367 248.118 101.751 249.28 101.861 249.828L104.163 282.555C102.847 284.967 99.7885 290.087 98.0782 291.271C96.3678 292.455 97.3655 293.519 98.0782 293.902L164.518 321.367C169.386 300.579 165.121 274.551 162.381 264.136C157.447 259.531 157.447 256.078 158.434 252.953C159.223 250.453 158.763 248.293 158.434 247.526C142.777 246.342 114.085 240.673 101.696 237.987Z" fill="#D07755"/>
<path d="M175.373 320.545C170.374 323.044 165.889 322.08 164.354 321.367C165.144 319.788 166.164 310.02 166.657 305.744C167.315 308.375 172.851 317.036 175.373 320.545Z" fill="#FFF088"/>
<path d="M275.163 225.16C260.564 232.427 201.676 252.632 174.057 261.826L177.838 302.125C182.441 300.672 247.379 277.737 279.273 266.45C279.667 259.844 276.697 236.171 275.163 225.16Z" fill="#AF8668"/>
<path d="M153.007 167.107C136.43 149.214 127.571 146.824 125.214 147.866L157.776 183.717L173.728 175.165C170.439 173.85 168.466 174.014 162.71 173.027C158.105 172.238 154.323 168.752 153.007 167.107Z" fill="#9A595F"/>
<path d="M102.354 249.5C103.497 249.848 106.411 250.73 108.933 251.473" stroke="#A45534" stroke-linecap="round"/>
<path d="M104.656 282.391C105.798 282.739 108.978 283.757 111.5 284.5" stroke="#A45534" stroke-linecap="round"/>
<path d="M153.665 264.592C157.381 265.455 166.595 266.211 173.729 262.327" stroke="#A45534" stroke-linecap="round"/>
<path d="M156.625 301.797L166.76 305.744L177.675 301.797" stroke="#A45534" stroke-linecap="round"/>
<path d="M134.094 220.226C138.096 219.185 147.744 216.411 154.322 213.648C160.9 210.885 206.509 196.38 228.492 189.473" stroke="#3D1925" stroke-width="2" stroke-linecap="round"/>
<path d="M153.336 264.301C143.995 263.117 120.17 255.146 109.426 251.309C109.031 252.493 110.906 274.168 111.893 284.858L156.296 302.126C155.638 300.152 154.048 276.087 153.336 264.301Z" fill="#774355"/>
<path d="M279.638 265.945L286.874 263.314" stroke="#A45534" stroke-linecap="round"/>
<path d="M275.5 225.5C276.957 224.873 280.766 223.589 283.585 222.2" stroke="#A45534" stroke-linecap="round"/>
<path d="M144.455 211.181C133.141 211.839 110.468 225.05 100.71 231.245C113.209 217.595 137.767 206.522 147.909 203.123C145.804 204.175 144.729 208.934 144.455 211.181Z" fill="#966BA0"/>
<path d="M244.61 114.81C234.084 111.126 232.549 108.341 233.098 107.409C229.973 107.793 222.737 109.054 220.763 111.356C218.643 113.829 217.145 117.112 216.816 118.757C220.106 118.099 234.633 117.441 241.32 117.441C256.187 125.466 263.686 140.465 267.304 147.865C270.725 147.734 271.909 147.537 271.909 145.892C270.923 138.491 257.766 119.414 244.61 114.81Z" fill="#D47650"/>
<path d="M180.635 309.69C180.109 307.848 186.336 305.086 189.516 303.934C193.298 302.728 200.995 300.843 201.521 302.948C202.177 305.573 195.794 307.871 191.682 309.351L191.653 309.361C187.542 310.842 181.293 311.993 180.635 309.69Z" fill="#FEF189"/>
<path d="M206.454 301.632C205.928 300.316 207.332 299.22 208.099 298.836C208.976 298.562 210.895 298.343 211.553 299.659C212.21 300.974 210.511 302.071 209.579 302.454C208.757 302.728 206.981 302.948 206.454 301.632Z" fill="#FEF189"/>
<path d="M261.218 281.075C259.377 279.496 267.358 276.47 271.579 275.155C275.362 273.839 283.091 271.767 283.749 274.003C284.407 276.24 277.883 278.663 274.539 279.595C270.867 280.746 263.06 282.654 261.218 281.075Z" fill="#FEF189"/>
<path d="M172.412 253.446C171.491 251.736 173.563 250.541 174.714 250.157C175.866 249.773 178.332 249.565 178.99 251.802C179.648 254.038 177.291 255.036 176.03 255.255C175.208 255.365 173.333 255.157 172.412 253.446Z" fill="#FEF189"/>
<path d="M183.102 250.157C181.523 247.263 189.79 244.346 194.12 243.25C197.19 242.373 203.593 241.013 204.645 242.592C205.698 244.171 199.493 247.197 196.258 248.513C192.531 250.267 184.68 253.052 183.102 250.157Z" fill="#FEF189"/>
<path d="M113.372 149.674C116.53 147.964 122.911 151.374 125.706 153.292C134.258 160.134 133.765 162.941 132.449 163.489C131.901 163.653 130.377 163.522 128.667 161.68C126.529 159.377 120.444 155.43 115.675 153.292C111.859 151.582 112.55 150.168 113.372 149.674Z" fill="#FEF189"/>
<path d="M140.343 173.192C138.238 172.534 136.286 170.286 135.574 169.245C134.258 167.271 136.067 165.956 137.712 166.778C139.027 167.436 140.343 169.354 140.836 170.231C141.549 171.492 142.448 173.849 140.343 173.192Z" fill="#FEF189"/>
<path d="M153.828 193.913C152.644 192.334 159.584 187.993 163.202 186.019C168.958 182.458 174.057 180.921 175.043 181.908C175.833 182.697 169.561 186.841 166.327 188.815C162.654 191.172 155.013 195.492 153.828 193.913Z" fill="#FEF189"/>
<path d="M234.741 161.186C235.267 160.397 238.359 158.994 239.839 158.391C242.141 157.364 244.773 159.706 242.306 160.857C240.332 161.778 236.989 162.118 235.563 162.173C235.07 162.173 234.215 161.976 234.741 161.186Z" fill="#FEF189"/>
<path d="M246.911 157.239C246.779 155.003 254.311 153.238 258.094 152.635C263.027 151.584 269.77 151.648 270.263 153.457C270.658 154.904 263.192 156.801 259.409 157.568C255.298 158.391 247.042 159.476 246.911 157.239Z" fill="#FEF189"/>
<path d="M263.027 129.94C260.528 127.571 260.67 126.431 261.054 126.157C264.508 122.704 277.993 141.78 279.637 146.056C281.282 150.332 277.993 148.194 276.842 146.056C275.691 143.918 266.152 132.9 263.027 129.94Z" fill="#FEF189"/>
<path d="M162.71 143.919C165.835 144.851 173.071 147.537 177.018 150.826" stroke="#505055" stroke-width="5" stroke-linecap="round"/>
<path d="M225.111 125C223.905 127.796 221.395 134.341 221 138.157" stroke="#505055" stroke-width="5" stroke-linecap="round"/>
<path d="M164.847 156.088C166.426 153.983 169.562 154.882 170.932 155.595C175.932 159.147 172.029 162.995 169.452 164.475C168.466 164.914 166.064 165.364 164.354 163.653C162.216 161.515 162.874 158.719 164.847 156.088Z" fill="#505055"/>
<path d="M229.479 143.096C226.716 140.991 228.565 137.011 229.972 135.86C231.178 134.873 234.248 133.656 236.879 136.682C239.511 139.708 237.756 142.219 236.55 143.096C235.344 143.973 232.242 145.201 229.479 143.096Z" fill="#505055"/>
<path d="M110.577 229.765C108.735 229.896 104.876 235.411 103.177 238.152L101.861 237.823C101.598 237.165 100.874 233.218 100.71 231.245C111.498 222.693 129.764 215.238 137.384 212.661C130.016 220.818 135.246 236.124 138.864 242.592C133.93 242.099 132.614 237.33 131.628 234.698C130.641 232.067 127.845 229.929 126.365 228.778C125.181 227.857 124.885 228.504 124.885 228.942C125.017 231.442 123.734 233.163 123.076 233.712C123.076 236.869 125.707 240.948 127.023 242.592H126.53C122.912 237.658 121.596 231.08 121.103 227.791C120.576 227.528 119.129 227.222 118.636 227.462C113.242 230.093 114.524 237.713 115.84 240.948L113.209 240.454C111.367 238.744 110.687 232.451 110.577 229.765Z" fill="#7C4390"/>
<path d="M112.5 225C111.294 228.508 109.947 234.632 113.5 239.5" stroke="#4A1E5B" stroke-width="2" stroke-linecap="round"/>
<path d="M126.5 242C126.336 241.671 118.402 230.847 123.5 219.5" stroke="#4A1E5B" stroke-width="2" stroke-linecap="round"/>
<path d="M200.297 186.25C198.982 184.014 200.188 181.81 200.955 180.988C202.106 179.672 203.422 179.672 204.409 181.975C205.395 184.277 205.231 187.237 205.066 189.375C204.935 191.085 204.025 190.746 203.586 190.362C203.038 189.923 201.613 188.487 200.297 186.25Z" fill="#FFDDA0"/>
<path d="M202.107 180.166C201.998 181.481 201.417 184.408 199.969 185.593C199.22 184.539 199.877 180.921 202.107 180.166Z" fill="#D98B99"/>
<path d="M269.627 199.63C267.916 201.34 267.379 206.702 267.324 209.169C267.261 210.417 268.175 210.785 268.64 210.813C271.271 210.813 274.012 209.717 275.054 209.169C275.767 208.84 277.192 207.656 277.192 205.551C277.192 202.919 275.547 200.781 274.232 199.301C272.916 197.821 271.765 197.492 269.627 199.63Z" fill="#FFDDA0"/>
<path d="M270.449 206.661C269.397 205.608 269.436 201.617 269.6 199.753C267.791 201.234 267.325 208.141 267.325 208.799C267.325 209.456 266.996 210.608 268.64 210.936C270.285 211.265 272.587 210.279 275.054 209.292C277.028 208.502 277.275 206.167 277.165 205.016C275.027 207.647 271.765 207.976 270.449 206.661Z" fill="#D98B99"/>
<path d="M220.763 202.958C202.344 200.853 191.928 216.334 189.023 224.337C187.049 227.243 185.142 233.382 193.299 234.698C201.456 236.014 217.419 231.848 224.381 229.6C229.643 231.409 239.511 240.619 254.476 248.841C266.449 255.42 271.415 249.499 272.402 245.717C273.992 238.59 273.191 220.654 257.272 205.918C241.353 191.183 226.299 197.805 220.763 202.958Z" fill="#DC91EE"/>
<path d="M214.842 216.115C214.974 221.377 219.173 225.982 221.256 227.627L224.545 229.6C208.757 234.731 197.19 235.137 193.463 234.698L189.022 224.173C189.954 221.377 193.627 214.306 200.863 208.385C208.099 202.465 217.144 202.3 220.763 202.958C225.696 199.011 233.426 195.064 243.622 197.86C251.779 200.097 258.313 206.467 260.561 209.372C258.423 207.727 254.641 205.425 248.556 203.452C243.688 201.873 242.69 204.329 242.8 205.754C242.909 207.07 243.721 210.721 246.089 214.799C248.457 218.878 249.816 223.077 250.2 224.666C241.78 213.352 231.562 210.194 227.505 210.03C223.229 209.865 214.71 210.852 214.842 216.115Z" fill="#B15AD4"/>
<path d="M263.021 204.194C261.837 204.852 260.225 207.099 259.567 208.141L264.501 213.897C264.94 213.952 266.179 213.732 267.626 212.417C269.435 210.772 267.626 207.483 266.639 205.838C265.652 204.194 264.501 203.372 263.021 204.194Z" fill="#FFDDA0"/>
<path d="M263.186 209.785C261.475 208.733 261.157 206.715 261.212 205.838L259.403 208.141L264.501 213.897C265.488 213.897 265.653 213.732 266.804 213.074C268.469 212.123 268.613 210.772 268.284 209.621C267.297 209.895 264.896 210.838 263.186 209.785Z" fill="#D98B99"/>
<path d="M191.982 239.139L185.897 240.948C180.141 240.29 179.483 237.988 179.812 235.356C180.141 232.725 184.582 226.476 186.555 224.996C188.134 223.811 189.844 224.173 190.502 224.502C191.489 225.05 193.528 227.035 193.791 230.587C194.054 234.139 192.695 237.768 191.982 239.139Z" fill="#FFDDA0"/>
<path d="M184.911 236.507C182.411 236.113 182.664 231.354 182.773 229.436C180.307 232.889 179.571 235.177 179.978 237.823C180.307 239.961 184.089 240.783 185.898 240.948L191.983 239.139C192.904 237.297 193.628 234.698 193.628 233.876C192.476 235.85 188.036 237.001 184.911 236.507Z" fill="#D98B99"/>
<path d="M179.039 242.819L173.941 244.299C172.845 243.751 170.751 242.161 171.146 240.188C171.639 237.721 176.079 233.116 177.395 231.965C178.447 231.044 179.478 231.472 179.862 231.801C180.465 232.294 181.638 233.906 181.506 236.405C181.375 238.905 179.807 241.723 179.039 242.819Z" fill="#FFDDA0"/>
<path d="M175.257 240.023C173.81 238.971 174.763 235.528 175.421 233.938C174.106 235.364 171.212 238.418 171.097 240.619C170.993 242.592 172.96 243.908 174.057 244.401L178.875 242.984C180.19 241.536 181.183 238.755 181.457 237.494C180.032 238.81 176.704 241.076 175.257 240.023Z" fill="#D98B99"/>
<path d="M221 203C226.811 203.713 240.465 209.043 250.201 224.831" stroke="#4A1E5B" stroke-linecap="round"/>
<path d="M198.725 229.765C200.314 225.05 207.16 218.185 224 229.5" stroke="#4A1E5B" stroke-linecap="round"/>
<path d="M237.199 216.244C238.844 215.915 240.982 217.724 241.311 217.889C243.153 219.336 243.942 220.684 244.106 221.178C244.326 221.835 244.304 222.987 242.462 222.329C240.62 221.671 238.405 219.752 237.528 218.875C236.87 218.108 235.884 216.507 237.199 216.244Z" fill="#FDE5F2"/>
<path d="M258.25 217.889C257.066 215.257 255.015 212.297 254.138 211.146C253.316 210.011 253.645 208.186 255.783 209.501C257.921 210.817 260.717 214.764 261.539 216.244C262.361 217.724 264.663 222.822 264.992 224.302C265.321 225.782 265.486 226.44 264.992 228.578C264.499 230.716 262.854 228.249 262.361 226.605C261.868 224.96 259.73 221.178 258.25 217.889Z" fill="#FDE5F2"/>
<path d="M266.308 240.583C265.519 239.794 265.541 236.637 265.65 235.156C265.701 234.048 266.801 233.183 267.624 235.321C268.282 237.031 267.898 239.323 267.624 240.255C267.514 240.693 267.097 241.373 266.308 240.583Z" fill="#FDE5F2"/>
<path d="M191.979 188.038C190.4 186.065 193.185 183.817 194.774 182.94C198.327 181.098 199.763 182.611 200.037 183.598C200.64 185.462 201.813 189.946 201.682 192.972C201.55 195.998 199.434 194.891 198.393 193.959C196.912 192.808 193.557 190.012 191.979 188.038Z" fill="#FFDDA0"/>
<path d="M195.433 186.723C194.907 189.091 195.323 190.999 195.597 191.657C193.624 189.683 190.006 187.71 192.144 185.078C193.854 182.973 196.368 182.182 197.41 182.073C196.971 182.621 195.959 184.355 195.433 186.723Z" fill="#D98B99"/>
<path d="M183.647 193.54C181.673 190.119 184.469 186.852 186.113 185.646C190.324 182.62 192.363 185.7 192.856 187.619C193.24 189.264 193.909 193.441 193.514 196.993C193.119 200.545 190.718 200.227 189.567 199.624C188.416 199.021 185.62 196.96 183.647 193.54Z" fill="#FFDDA0"/>
<path d="M186.113 188.264C184.666 191.159 185.181 194.843 185.62 196.323C184.418 195.052 183.591 193.308 183.317 192.705C182.769 191.608 182.396 188.791 185.291 186.291C188.185 183.791 190.174 184.21 190.996 184.868C190.009 184.813 187.56 185.37 186.113 188.264Z" fill="#D98B99"/>
<path d="M171.774 198.69C169.669 194.612 173.309 191.29 175.392 190.139C179.01 188.001 183.944 187.014 184.273 195.401C184.536 202.111 183.506 205.433 182.957 206.255C182.245 207.352 180.392 209.216 178.682 207.9C176.544 206.255 174.406 203.789 171.774 198.69Z" fill="#FFDDA0"/>
<path d="M176.05 195.073C173.814 198.099 174.351 202.254 174.899 203.953C171.775 199.513 170.952 196.882 171.117 195.73C171.281 194.579 172.103 191.619 176.544 189.481C180.096 187.771 182.225 189.089 182.773 189.966C181.512 190.405 178.287 192.047 176.05 195.073Z" fill="#D98B99"/>
<path d="M159.643 204.976C157.407 201.424 161.233 197.576 163.426 196.096C168.162 192.938 171.21 195.438 172.142 197.082C172.69 198.014 173.786 200.766 173.786 204.318C173.786 207.871 173.238 212.048 172.964 213.693C172.8 214.679 171.484 216.159 168.853 214.844C165.564 213.199 162.439 209.417 159.643 204.976Z" fill="#FFDDA0"/>
<path d="M164.247 195.602C168.019 193.377 171.097 195.229 172.083 196.874C168.959 196.38 164.576 198.563 163.261 201.523C162.208 203.891 163.699 209.088 164.576 211.39C162.822 209.417 159.248 205.075 158.985 203.496C158.656 201.523 159.585 198.354 164.247 195.602Z" fill="#D98B99"/>
<path d="M270.748 169.738C270.09 163.818 273.982 162.338 276.01 162.338C279.464 162.338 281.931 163.489 281.931 165.462C281.931 167.436 280.615 172.863 278.477 177.303C276.767 180.855 274.804 180.099 274.037 179.277C273.215 178.564 271.406 175.659 270.748 169.738Z" fill="#FFDDA0"/>
<path d="M273.634 171.876C273.371 175.297 275.169 178.673 276.1 179.934C272.647 181.25 271.167 173.52 270.673 171.054C270.18 168.587 270.345 165.791 271.989 164.146C273.634 162.502 275.527 161.68 279.309 162.666C282.335 163.456 282.27 166.12 281.612 167.6C279.901 164.969 277.471 165.407 276.594 165.955C275.717 166.504 273.897 168.455 273.634 171.876Z" fill="#D98B99"/>
<path d="M259.119 169.36C257.935 165.414 262.244 163.879 264.546 163.605C266.684 163.35 269.48 162.782 271.124 165.578C272.44 167.815 271.782 171.882 271.289 173.636C270.521 175.939 268.361 180.28 265.862 179.228C262.737 177.912 260.599 174.294 259.119 169.36Z" fill="#FFDDA0"/>
<path d="M263.395 167.058C260.895 169.031 262.134 174.568 263.066 177.09C260.928 175.116 259.777 171.169 259.119 169.36C258.593 167.913 259.229 166.455 259.612 165.907C260.051 165.304 261.877 163.818 265.204 163.44C268.643 163.049 270.1 163.982 270.795 165.084C269.37 164.92 265.894 165.084 263.395 167.058Z" fill="#D98B99"/>
<path d="M249.238 170.146C248.317 167.12 251.924 165.377 253.842 164.883C256.145 164.225 259.105 164.883 259.927 167.843C260.585 170.212 260.201 173.654 259.927 175.08C259.434 177.601 257.756 182.217 254.994 180.507C251.54 178.369 250.389 173.928 249.238 170.146Z" fill="#FFDDA0"/>
<path d="M253.513 170.31C252.066 174.125 254.116 178.807 255.322 180.671C251.77 179.092 249.676 172.667 249.073 169.652C248.909 168.611 249.501 166.231 253.185 165.047C256.868 163.863 258.776 165.541 259.27 166.528C257.954 166.199 254.961 166.495 253.513 170.31Z" fill="#D98B99"/>
<path d="M246.884 179.548C245.239 178.232 241.621 172.641 240.634 170.503C239.845 168.792 242.827 167.817 244.417 167.543C245.733 167.378 249.022 166.227 249.68 170.503C250.206 173.924 249.68 176.971 249.351 178.068C249.077 179 248.2 180.6 246.884 179.548Z" fill="#FFDDA0"/>
<path d="M244.582 170.832C244.319 172.674 245.788 177.191 246.555 179.219C244.28 177.139 241.156 171.712 240.635 170.503C240.344 169.828 240.169 168.694 243.623 167.707C246.386 166.918 247.734 167.271 248.227 167.765C247.186 168.039 244.845 168.99 244.582 170.832Z" fill="#D98B99"/>
<path d="M237.084 172.922C235.768 170.29 237.194 169.084 238.071 168.81C239.65 168.284 240.483 168.81 240.702 169.139C242.018 171.277 241.524 175.224 241.524 177.691C241.524 179.664 240.757 179.171 240.373 178.678C239.825 177.855 238.4 175.553 237.084 172.922Z" fill="#FFDDA0"/>
<path d="M239.057 171.935C238.531 173.645 238.908 175.933 239.182 176.81C238.579 175.768 237.36 173.358 236.919 172.593C236.222 171.383 236.261 169.468 238.07 168.81C239.518 168.284 240.498 168.587 240.991 169.409C240.662 169.574 239.584 170.225 239.057 171.935Z" fill="#D98B99"/>
</svg>
