<svg width="395" height="491" viewBox="0 0 395 491" fill="none" xmlns="http://www.w3.org/2000/svg">
<rect width="394.099" height="490.871" rx="20" fill="#202020" fill-opacity="0.5"/>
<path d="M43.72 74.48C44.04 72.2933 44.2 68.7333 44.2 63.8C44.2 58.8667 44.0667 54.96 43.8 52.08C40.8933 52.1333 39.0267 52.56 38.2 53.36C38.0133 53.7333 37.92 54.32 37.92 55.12C37.92 55.92 38.0533 56.4667 38.32 56.76L38.28 57.04C37.6133 57.44 36.9467 58 36.28 58.72C35.96 58.6933 35.7067 58.56 35.52 58.32C35.3067 58.08 35.2 57.8 35.2 57.48C35.2 56.2533 35.9067 54.8 37.32 53.12C38.7067 51.44 40.04 50.28 41.32 49.64C43.5867 49.8533 47.1333 49.96 51.96 49.96C54.52 49.96 56.44 50.4267 57.72 51.36C59.0267 52.2933 59.68 53.9333 59.68 56.28C59.68 58.6267 58.7067 60.5333 56.76 62C54.8133 63.4667 52.5467 64.2 49.96 64.2C49.56 64.2 49.2667 64.1867 49.08 64.16L49.24 62.88H49.72C51.72 62.88 53.2533 62.3733 54.32 61.36C55.3867 60.3467 55.92 58.8933 55.92 57C55.92 55.08 55.4667 53.76 54.56 53.04C53.68 52.32 52.2667 51.96 50.32 51.96C49.3067 51.96 48.4 52 47.6 52.08C47.3867 54.4533 47.28 58.2133 47.28 63.36C47.28 68.48 47.44 72.2267 47.76 74.6C49.1733 74.7333 50.64 74.9867 52.16 75.36L52.04 76.32C50.0667 76.1067 47.92 76 45.6 76C43.3067 76 41.4533 76.1067 40.04 76.32L39.88 75.32C41.08 74.9467 42.36 74.6667 43.72 74.48ZM67.4688 56.48C67.2554 57.92 67.1488 60.8667 67.1488 65.32C67.1488 69.7733 67.2688 72.8933 67.5088 74.68C68.7088 74.8133 69.8154 75.0133 70.8288 75.28L70.7088 76.28C69.3221 76.0933 67.7621 76 66.0288 76C64.3221 76 62.7888 76.1067 61.4288 76.32L61.2688 75.28C62.0154 75.04 62.8554 74.84 63.7888 74.68C64.0288 72.76 64.1488 70.04 64.1488 66.52V64.64C64.1488 61.12 64.0154 58.4 63.7488 56.48C62.8154 56.32 61.9754 56.12 61.2288 55.88L61.3888 54.84C62.7488 55.0533 64.2821 55.16 65.9888 55.16C67.7221 55.16 69.2821 55.0667 70.6688 54.88L70.7888 55.88C69.7754 56.1467 68.6688 56.3467 67.4688 56.48ZM83.1725 76.28C81.7858 76.0933 80.2258 76 78.4925 76C76.7858 76 75.2525 76.1067 73.8925 76.32L73.7325 75.28C74.5858 75.0133 75.3858 74.8133 76.1325 74.68C76.3725 72.6 76.4925 69.88 76.4925 66.52V64.64C76.4925 61.0667 76.3592 58.32 76.0925 56.4C75.3725 56.32 74.5058 56.1067 73.4925 55.76L73.6125 54.72C75.1325 55.0133 76.7192 55.16 78.3725 55.16C80.0525 55.16 81.2525 55.0667 81.9725 54.88L82.0525 55.56C81.3325 55.7467 80.9725 56.0533 80.9725 56.48C80.9725 56.8 81.2792 57.48 81.8925 58.52C82.5325 59.5333 83.1458 60.52 83.7325 61.48C85.4925 64.28 87.5725 67.72 89.9725 71.8L90.0925 71.72V66.84C90.0925 63.2667 89.9058 60.5867 89.5325 58.8C89.1592 56.9867 88.5192 55.9333 87.6125 55.64L87.6925 54.96C88.3858 55.0933 89.4258 55.16 90.8125 55.16C92.1992 55.16 93.6258 55.0133 95.0925 54.72L95.2125 55.76C94.1192 56.1067 93.1992 56.32 92.4525 56.4C92.1858 58.5333 92.0525 61.28 92.0525 64.64V66.52C92.0525 70.5733 92.1858 73.32 92.4525 74.76C93.5725 74.9467 94.4658 75.16 95.1325 75.4L95.0125 76.44C93.6792 76.1467 92.4258 76 91.2525 76C90.0792 76 89.1725 76.0533 88.5325 76.16C88.5325 75.5733 88.1192 74.5867 87.2925 73.2C86.4925 71.8133 85.7592 70.5867 85.0925 69.52C82.9325 66.0267 80.8125 62.48 78.7325 58.88L78.5725 58.96V64.32C78.5725 69.6267 78.9725 73.08 79.7725 74.68C80.9725 74.8133 82.1458 75.0133 83.2925 75.28L83.1725 76.28ZM104.414 64.68V66.32C107.134 63.44 108.894 61.3733 109.694 60.12C110.521 58.84 110.934 57.8533 110.934 57.16C110.934 56.44 110.734 55.9333 110.334 55.64L110.534 54.96C111.121 55.0933 111.961 55.16 113.054 55.16C114.174 55.16 115.534 55.0533 117.134 54.84L117.294 55.88C116.681 56.0933 115.788 56.3067 114.614 56.52C114.374 58.3333 112.828 60.5867 109.974 63.28L115.254 74.64C116.374 74.8267 117.254 75.04 117.894 75.28L117.734 76.32C116.748 76.1067 115.454 76 113.854 76C112.281 76 111.174 76.0667 110.534 76.2L110.334 75.52C110.708 75.1467 110.894 74.5867 110.894 73.84C110.894 72.0533 109.841 69.1467 107.734 65.12C107.201 65.5733 106.094 66.4933 104.414 67.88C104.494 71.1333 104.614 73.4 104.774 74.68C105.974 74.8133 107.081 75.0133 108.094 75.28L107.974 76.28C106.588 76.0933 105.028 76 103.294 76C101.588 76 100.054 76.1067 98.6944 76.32L98.5344 75.28C99.281 75.04 100.121 74.84 101.054 74.68C101.294 72.76 101.414 70.04 101.414 66.52V64.64C101.414 61.12 101.281 58.4 101.014 56.48C100.081 56.32 99.241 56.12 98.4944 55.88L98.6544 54.84C100.014 55.0533 101.548 55.16 103.254 55.16C104.988 55.16 106.548 55.0667 107.934 54.88L108.054 55.88C107.041 56.1467 105.934 56.3467 104.734 56.48C104.521 57.92 104.414 60.6533 104.414 64.68ZM131.19 56.52C131.19 56.0933 130.83 55.8 130.11 55.64L130.27 54.96C131.07 55.0933 132.11 55.16 133.39 55.16C134.697 55.16 136.123 55.0533 137.67 54.84L137.83 55.88C137.137 56.12 136.257 56.32 135.19 56.48L128.55 66.48C128.55 69.9467 128.683 72.68 128.95 74.68C130.123 74.8133 131.217 75.0133 132.23 75.28L132.11 76.28C130.723 76.0933 129.123 76 127.31 76C125.523 76 123.95 76.1067 122.59 76.32L122.43 75.28C122.937 75.12 123.843 74.92 125.15 74.68C125.39 73.24 125.51 71.0667 125.51 68.16V67.32C122.417 61.08 120.457 57.4533 119.63 56.44C118.883 56.36 118.057 56.1733 117.15 55.88L117.31 54.84C118.377 55.0533 119.91 55.16 121.91 55.16C123.91 55.16 125.55 55.0533 126.83 54.84L126.99 55.84C125.737 56.1333 124.683 56.3333 123.83 56.44C124.737 59.2133 126.003 62.1333 127.63 65.2C130.003 60.5867 131.19 57.6933 131.19 56.52ZM155.439 74.48C155.759 72.2933 155.919 68.7333 155.919 63.8C155.919 58.8667 155.785 54.96 155.519 52.08C152.612 52.1333 150.745 52.56 149.919 53.36C149.732 53.7333 149.639 54.32 149.639 55.12C149.639 55.92 149.772 56.4667 150.039 56.76L149.999 57.04C149.332 57.44 148.665 58 147.999 58.72C147.679 58.6933 147.425 58.56 147.239 58.32C147.025 58.08 146.919 57.8 146.919 57.48C146.919 56.2533 147.625 54.8 149.039 53.12C150.425 51.44 151.759 50.28 153.039 49.64C155.305 49.8533 158.852 49.96 163.679 49.96C166.239 49.96 168.159 50.4267 169.439 51.36C170.745 52.2933 171.399 53.9333 171.399 56.28C171.399 58.6267 170.425 60.5333 168.479 62C166.532 63.4667 164.265 64.2 161.679 64.2C161.279 64.2 160.985 64.1867 160.799 64.16L160.959 62.88H161.439C163.439 62.88 164.972 62.3733 166.039 61.36C167.105 60.3467 167.639 58.8933 167.639 57C167.639 55.08 167.185 53.76 166.279 53.04C165.399 52.32 163.985 51.96 162.039 51.96C161.025 51.96 160.119 52 159.319 52.08C159.105 54.4533 158.999 58.2133 158.999 63.36C158.999 68.48 159.159 72.2267 159.479 74.6C160.892 74.7333 162.359 74.9867 163.879 75.36L163.759 76.32C161.785 76.1067 159.639 76 157.319 76C155.025 76 153.172 76.1067 151.759 76.32L151.599 75.32C152.799 74.9467 154.079 74.6667 155.439 74.48ZM172.908 55.24L182.108 54.96C184.508 54.96 186.308 55.32 187.508 56.04C188.708 56.7333 189.308 58.0133 189.308 59.88C189.308 61.16 188.908 62.2933 188.108 63.28C187.334 64.2667 186.308 65 185.028 65.48L189.508 74.64C190.414 74.8 191.268 74.9867 192.068 75.2L191.908 76.28C190.788 76.0933 189.521 76 188.108 76C186.721 76 185.628 76.0667 184.828 76.2L184.668 75.56C185.014 75.2133 185.188 74.64 185.188 73.84C185.188 72.2133 184.254 69.6 182.388 66C181.828 65.8933 181.174 65.84 180.428 65.84L180.508 64.68H180.908C184.054 64.68 185.628 63.24 185.628 60.36C185.628 57.6933 184.281 56.36 181.588 56.36C180.681 56.36 179.868 56.5067 179.148 56.8C178.961 58.56 178.868 61.5733 178.868 65.84C178.868 70.1067 178.988 73.0533 179.228 74.68C180.401 74.8133 181.494 75.0133 182.508 75.28L182.388 76.28C181.001 76.0933 179.441 76 177.708 76C176.001 76 174.468 76.1067 173.108 76.32L172.948 75.28C173.694 75.04 174.534 74.84 175.468 74.68C175.734 72.68 175.868 69.5733 175.868 65.36C175.868 61.12 175.748 58.1867 175.508 56.56C174.468 56.2133 173.601 56.04 172.908 56.04V55.24ZM202.762 76.48C200.122 76.48 197.989 75.6533 196.362 74C194.736 72.32 193.922 70.08 193.922 67.28C193.922 64.48 194.776 61.8533 196.482 59.4C198.189 56.9467 200.416 55.3733 203.162 54.68C205.909 54.68 208.002 55.4667 209.442 57.04C210.882 58.5867 211.602 60.8 211.602 63.68C211.602 66.56 210.816 69.16 209.242 71.48C207.696 73.8 205.536 75.4667 202.762 76.48ZM202.082 57.12C200.882 57.12 199.842 57.4533 198.962 58.12C197.869 59.9867 197.322 62.3333 197.322 65.16C197.322 68.4133 198.229 70.9067 200.042 72.64C201.002 73.5733 202.136 74.04 203.442 74.04C204.749 74.04 205.802 73.6933 206.602 73C207.669 71.1333 208.202 68.8533 208.202 66.16C208.202 63.4667 207.722 61.2933 206.762 59.64C205.802 57.96 204.242 57.12 202.082 57.12ZM225.377 73.76C225.377 72.1067 224.964 69.64 224.137 66.36C223.31 63.0533 222.39 59.8533 221.377 56.76L221.217 56.8L220.217 64.24C219.79 67.3067 219.577 70.0667 219.577 72.52C219.577 74.0133 220.044 75.0133 220.977 75.52L220.817 76.2C220.017 76.0667 218.964 76 217.657 76C216.377 76 214.964 76.1067 213.417 76.32L213.257 75.28C214.164 74.9867 215.017 74.7733 215.817 74.64L219.537 56.4C218.15 56.16 217.124 55.9467 216.457 55.76L216.577 54.72C218.497 55.0133 220.27 55.16 221.897 55.16C223.55 55.16 224.83 55.0667 225.737 54.88L225.817 55.56C225.097 55.7467 224.737 56.0533 224.737 56.48C224.737 57.0667 225.564 60.4533 227.217 66.64L228.097 69.64L228.377 69.56C228.377 68.8667 229.59 64.52 232.017 56.52C232.017 56.0667 231.657 55.7467 230.937 55.56L231.017 54.88C231.924 55.0667 233.204 55.16 234.857 55.16C236.537 55.16 238.324 55.0133 240.217 54.72L240.337 55.76C239.617 55.9467 238.697 56.1467 237.577 56.36C237.497 57 237.457 57.9467 237.457 59.2C237.457 60.4267 237.63 62.96 237.977 66.8C238.324 70.64 238.644 73.28 238.937 74.72C239.924 74.8533 240.937 75.04 241.977 75.28L241.857 76.28C240.47 76.0933 238.924 76 237.217 76C235.537 76 234.017 76.1067 232.657 76.32L232.497 75.28C233.377 75.0133 234.324 74.8133 235.337 74.68C235.257 68.3867 234.83 62.4533 234.057 56.88H233.937C231.19 64.9867 229.724 70.24 229.537 72.64C228.977 72.8267 228.324 73.1733 227.577 73.68C226.83 74.16 226.257 74.64 225.857 75.12L225.377 74.8V73.76ZM250.242 56.48C250.029 57.92 249.922 60.8667 249.922 65.32C249.922 69.7733 250.042 72.8933 250.282 74.68C251.482 74.8133 252.589 75.0133 253.602 75.28L253.482 76.28C252.096 76.0933 250.536 76 248.802 76C247.096 76 245.562 76.1067 244.202 76.32L244.042 75.28C244.789 75.04 245.629 74.84 246.562 74.68C246.802 72.76 246.922 70.04 246.922 66.52V64.64C246.922 61.12 246.789 58.4 246.522 56.48C245.589 56.32 244.749 56.12 244.002 55.88L244.162 54.84C245.522 55.0533 247.056 55.16 248.762 55.16C250.496 55.16 252.056 55.0667 253.442 54.88L253.562 55.88C252.549 56.1467 251.442 56.3467 250.242 56.48ZM259.026 72.96C260.253 73.4667 261.466 73.72 262.666 73.72C263.866 73.72 264.826 73.44 265.546 72.88C266.266 72.32 266.626 71.52 266.626 70.48C266.626 69.4133 265.119 68.0933 262.106 66.52C260.959 65.9333 259.906 65.2267 258.946 64.4C258.013 63.5467 257.546 62.7067 257.546 61.88C257.546 60.4667 258.293 59.04 259.786 57.6C261.279 56.16 262.813 55.1867 264.386 54.68C266.359 54.68 268.146 54.88 269.746 55.28V56C268.626 57.12 267.999 58.6533 267.866 60.6H266.866C266.866 59.8533 266.799 58.92 266.666 57.8C265.733 57.3733 264.733 57.16 263.666 57.16C262.599 57.16 261.706 57.4 260.986 57.88C260.293 58.3333 259.946 59 259.946 59.88C259.946 60.4933 260.413 61.16 261.346 61.88C262.306 62.6 263.346 63.24 264.466 63.8C265.586 64.36 266.613 65.0533 267.546 65.88C268.506 66.7067 268.986 67.5333 268.986 68.36C268.986 69.96 268.279 71.56 266.866 73.16C265.453 74.7333 263.893 75.84 262.186 76.48C260.506 76.48 258.933 76.28 257.466 75.88C257.039 76.0667 256.599 76.3733 256.146 76.8L255.426 76.28C256.919 74.6533 257.746 72.64 257.906 70.24H258.906C258.906 71.1733 258.946 72.08 259.026 72.96ZM276.662 66.12C276.742 68.4933 277.182 70.3467 277.982 71.68C278.782 73.0133 280.142 73.68 282.062 73.68C283.982 73.68 285.755 72.8667 287.382 71.24L287.942 71.8C286.155 74.0667 284.009 75.6267 281.502 76.48C278.915 76.48 276.889 75.6667 275.422 74.04C273.955 72.3867 273.222 70.1733 273.222 67.4C273.222 64.6 274.089 61.9733 275.822 59.52C277.555 57.0667 279.769 55.4533 282.462 54.68C284.409 54.68 286.609 54.88 289.062 55.28L289.022 56.16C288.515 56.16 288.035 56.2533 287.582 56.44C287.075 57.64 286.742 59.0667 286.582 60.72H285.582C285.369 59.8133 285.262 58.88 285.262 57.92C284.249 57.4133 283.049 57.16 281.662 57.16C280.275 57.16 279.129 57.5333 278.222 58.28C277.315 59.9333 276.795 61.9067 276.662 64.2C277.782 64.3867 278.982 64.48 280.262 64.48C282.475 64.48 283.809 64.0133 284.262 63.08L285.102 63.2C284.862 64 284.742 64.7867 284.742 65.56C284.742 66.3333 284.835 67.28 285.022 68.4L284.062 68.56C283.769 67.76 283.555 66.9333 283.422 66.08C282.355 65.9733 281.289 65.92 280.222 65.92C279.182 65.92 277.995 65.9867 276.662 66.12Z" fill="#FAF9F6"/>
<path d="M40.3495 379.36V377.2H52.3735V379.36H40.3495ZM45.0775 383.992V372.4H47.5975V383.992H45.0775ZM60.2412 385C59.4092 385 58.6332 384.856 57.9132 384.568C57.2092 384.264 56.5932 383.848 56.0652 383.32C55.5532 382.792 55.1452 382.168 54.8412 381.448C54.5532 380.728 54.4092 379.936 54.4092 379.072C54.4092 378.64 54.4652 378.16 54.5772 377.632C54.7052 377.088 54.8892 376.496 55.1292 375.856C55.3852 375.216 55.6892 374.544 56.0412 373.84C56.3932 373.12 56.8012 372.376 57.2652 371.608L59.4492 367.912H61.9692L62.0652 368.152L59.4252 372.592C58.9452 373.408 58.5132 374.184 58.1292 374.92C57.7612 375.656 57.4492 376.352 57.1932 377.008C56.9372 377.648 56.7452 378.232 56.6172 378.76L56.0412 376.288C56.3452 375.792 56.6732 375.36 57.0252 374.992C57.3772 374.608 57.7532 374.288 58.1532 374.032C58.5692 373.776 59.0012 373.584 59.4492 373.456C59.8972 373.328 60.3612 373.264 60.8412 373.264C61.7692 373.264 62.6172 373.52 63.3852 374.032C64.1692 374.528 64.7932 375.192 65.2572 376.024C65.7372 376.856 65.9772 377.768 65.9772 378.76C65.9772 379.96 65.7292 381.032 65.2332 381.976C64.7532 382.904 64.0812 383.64 63.2172 384.184C62.3532 384.728 61.3612 385 60.2412 385ZM60.2412 382.6C60.8652 382.6 61.4172 382.456 61.8972 382.168C62.3932 381.864 62.7772 381.448 63.0492 380.92C63.3372 380.376 63.4812 379.76 63.4812 379.072C63.4812 378.48 63.3372 377.928 63.0492 377.416C62.7612 376.888 62.3772 376.464 61.8972 376.144C61.4172 375.824 60.8812 375.664 60.2892 375.664C59.6332 375.664 59.0492 375.816 58.5372 376.12C58.0252 376.424 57.6252 376.832 57.3372 377.344C57.0492 377.856 56.9052 378.424 56.9052 379.048C56.9052 379.72 57.0492 380.328 57.3372 380.872C57.6252 381.4 58.0172 381.824 58.5132 382.144C59.0092 382.448 59.5852 382.6 60.2412 382.6ZM80.9032 390.52C80.0072 390.52 79.1112 390.376 78.2152 390.088C77.3352 389.816 76.6232 389.456 76.0792 389.008L76.9912 387.088C77.3112 387.328 77.6872 387.536 78.1192 387.712C78.5512 387.904 79.0072 388.048 79.4872 388.144C79.9672 388.256 80.4392 388.312 80.9032 388.312C81.7832 388.312 82.5192 388.168 83.1112 387.88C83.7032 387.592 84.1512 387.168 84.4552 386.608C84.7592 386.048 84.9112 385.352 84.9112 384.52V382.096L85.1752 382.264C85.0952 382.76 84.8312 383.24 84.3832 383.704C83.9512 384.152 83.4072 384.52 82.7512 384.808C82.0952 385.096 81.4232 385.24 80.7352 385.24C79.5352 385.24 78.4632 384.96 77.5192 384.4C76.5912 383.824 75.8552 383.048 75.3112 382.072C74.7672 381.08 74.4952 379.952 74.4952 378.688C74.4952 377.424 74.7592 376.304 75.2872 375.328C75.8312 374.336 76.5672 373.56 77.4952 373C78.4392 372.424 79.4952 372.136 80.6632 372.136C81.1432 372.136 81.6072 372.2 82.0552 372.328C82.5032 372.44 82.9192 372.608 83.3032 372.832C83.6872 373.04 84.0312 373.272 84.3352 373.528C84.6392 373.784 84.8872 374.056 85.0792 374.344C85.2712 374.632 85.3912 374.904 85.4392 375.16L84.9112 375.352V372.4H87.3832V384.232C87.3832 385.24 87.2312 386.128 86.9272 386.896C86.6392 387.68 86.2152 388.336 85.6552 388.864C85.0952 389.408 84.4152 389.816 83.6152 390.088C82.8152 390.376 81.9112 390.52 80.9032 390.52ZM80.9992 382.96C81.7832 382.96 82.4792 382.776 83.0872 382.408C83.6952 382.04 84.1672 381.536 84.5032 380.896C84.8392 380.256 85.0072 379.52 85.0072 378.688C85.0072 377.856 84.8312 377.12 84.4792 376.48C84.1432 375.824 83.6712 375.312 83.0632 374.944C82.4712 374.576 81.7832 374.392 80.9992 374.392C80.2312 374.392 79.5432 374.584 78.9352 374.968C78.3432 375.336 77.8712 375.848 77.5192 376.504C77.1832 377.144 77.0152 377.872 77.0152 378.688C77.0152 379.504 77.1832 380.24 77.5192 380.896C77.8712 381.536 78.3432 382.04 78.9352 382.408C79.5432 382.776 80.2312 382.96 80.9992 382.96ZM96.7291 385.24C95.4331 385.24 94.2811 384.968 93.2731 384.424C92.2811 383.864 91.4971 383.104 90.9211 382.144C90.3611 381.184 90.0811 380.08 90.0811 378.832C90.0811 377.84 90.2411 376.936 90.5611 376.12C90.8811 375.304 91.3211 374.6 91.8811 374.008C92.4571 373.4 93.1371 372.936 93.9211 372.616C94.7211 372.28 95.5851 372.112 96.5131 372.112C97.3291 372.112 98.0891 372.272 98.7931 372.592C99.4971 372.896 100.105 373.32 100.617 373.864C101.145 374.408 101.545 375.056 101.817 375.808C102.105 376.544 102.241 377.352 102.225 378.232L102.201 379.288H91.9051L91.3531 377.32H100.065L99.7051 377.728V377.152C99.6571 376.624 99.4811 376.152 99.1771 375.736C98.8731 375.32 98.4891 374.992 98.0251 374.752C97.5611 374.512 97.0571 374.392 96.5131 374.392C95.6491 374.392 94.9211 374.56 94.3291 374.896C93.7371 375.216 93.2891 375.696 92.9851 376.336C92.6811 376.96 92.5291 377.736 92.5291 378.664C92.5291 379.544 92.7131 380.312 93.0811 380.968C93.4491 381.608 93.9691 382.104 94.6411 382.456C95.3131 382.808 96.0891 382.984 96.9691 382.984C97.5931 382.984 98.1691 382.88 98.6971 382.672C99.2411 382.464 99.8251 382.088 100.449 381.544L101.697 383.296C101.313 383.68 100.841 384.016 100.281 384.304C99.7371 384.592 99.1531 384.824 98.5291 385C97.9211 385.16 97.3211 385.24 96.7291 385.24ZM104.864 385V372.4H107.36V375.088L106.904 375.376C107.032 374.96 107.232 374.56 107.504 374.176C107.792 373.792 108.136 373.456 108.536 373.168C108.952 372.864 109.392 372.624 109.856 372.448C110.336 372.272 110.824 372.184 111.32 372.184C112.04 372.184 112.672 372.304 113.216 372.544C113.76 372.784 114.208 373.144 114.56 373.624C114.912 374.104 115.168 374.704 115.328 375.424L114.944 375.328L115.112 374.92C115.288 374.552 115.528 374.208 115.832 373.888C116.152 373.552 116.512 373.256 116.912 373C117.312 372.744 117.736 372.544 118.184 372.4C118.632 372.256 119.072 372.184 119.504 372.184C120.448 372.184 121.224 372.376 121.832 372.76C122.456 373.144 122.92 373.728 123.224 374.512C123.544 375.296 123.704 376.272 123.704 377.44V385H121.208V377.584C121.208 376.864 121.112 376.28 120.92 375.832C120.744 375.368 120.472 375.024 120.104 374.8C119.736 374.576 119.264 374.464 118.688 374.464C118.24 374.464 117.816 374.544 117.416 374.704C117.032 374.848 116.696 375.056 116.408 375.328C116.12 375.6 115.896 375.92 115.736 376.288C115.576 376.64 115.496 377.032 115.496 377.464V385H113V377.536C113 376.88 112.904 376.328 112.712 375.88C112.52 375.416 112.24 375.064 111.872 374.824C111.504 374.584 111.056 374.464 110.528 374.464C110.08 374.464 109.664 374.544 109.28 374.704C108.896 374.848 108.56 375.056 108.272 375.328C107.984 375.584 107.76 375.896 107.6 376.264C107.44 376.616 107.36 377 107.36 377.416V385H104.864ZM131.213 385.24C130.157 385.24 129.205 385.056 128.357 384.688C127.509 384.32 126.805 383.776 126.245 383.056L127.925 381.616C128.405 382.176 128.925 382.584 129.485 382.84C130.061 383.08 130.709 383.2 131.429 383.2C131.717 383.2 131.981 383.168 132.221 383.104C132.477 383.024 132.693 382.912 132.869 382.768C133.061 382.624 133.205 382.456 133.301 382.264C133.397 382.056 133.445 381.832 133.445 381.592C133.445 381.176 133.293 380.84 132.989 380.584C132.829 380.472 132.573 380.352 132.221 380.224C131.885 380.08 131.445 379.936 130.901 379.792C129.973 379.552 129.213 379.28 128.621 378.976C128.029 378.672 127.573 378.328 127.253 377.944C127.013 377.64 126.837 377.312 126.725 376.96C126.613 376.592 126.557 376.192 126.557 375.76C126.557 375.232 126.669 374.752 126.893 374.32C127.133 373.872 127.453 373.488 127.853 373.168C128.269 372.832 128.749 372.576 129.293 372.4C129.853 372.224 130.445 372.136 131.069 372.136C131.661 372.136 132.245 372.216 132.821 372.376C133.413 372.536 133.957 372.768 134.453 373.072C134.949 373.376 135.365 373.736 135.701 374.152L134.285 375.712C133.981 375.408 133.645 375.144 133.277 374.92C132.925 374.68 132.565 374.496 132.197 374.368C131.829 374.24 131.493 374.176 131.189 374.176C130.853 374.176 130.549 374.208 130.277 374.272C130.005 374.336 129.773 374.432 129.581 374.56C129.405 374.688 129.269 374.848 129.173 375.04C129.077 375.232 129.029 375.448 129.029 375.688C129.045 375.896 129.093 376.096 129.173 376.288C129.269 376.464 129.397 376.616 129.557 376.744C129.733 376.872 129.997 377.008 130.349 377.152C130.701 377.296 131.149 377.432 131.693 377.56C132.493 377.768 133.149 378 133.661 378.256C134.189 378.496 134.605 378.776 134.909 379.096C135.229 379.4 135.453 379.752 135.581 380.152C135.709 380.552 135.773 381 135.773 381.496C135.773 382.216 135.565 382.864 135.149 383.44C134.749 384 134.205 384.44 133.517 384.76C132.829 385.08 132.061 385.24 131.213 385.24ZM138.882 389.296L137.97 388.192C138.53 387.872 138.986 387.504 139.338 387.088C139.69 386.672 139.866 386.312 139.866 386.008C139.866 385.848 139.826 385.688 139.746 385.528C139.666 385.384 139.498 385.176 139.242 384.904C138.922 384.6 138.714 384.344 138.618 384.136C138.522 383.928 138.474 383.704 138.474 383.464C138.474 383.08 138.61 382.776 138.882 382.552C139.154 382.312 139.506 382.192 139.938 382.192C140.338 382.192 140.698 382.312 141.018 382.552C141.354 382.776 141.61 383.096 141.786 383.512C141.978 383.912 142.074 384.376 142.074 384.904C142.074 385.384 141.994 385.848 141.834 386.296C141.674 386.744 141.45 387.16 141.162 387.544C140.874 387.928 140.538 388.272 140.154 388.576C139.77 388.88 139.346 389.12 138.882 389.296ZM158.247 385.24C157.703 385.24 157.159 385.152 156.615 384.976C156.087 384.8 155.599 384.568 155.151 384.28C154.719 383.976 154.351 383.648 154.047 383.296C153.759 382.928 153.567 382.56 153.471 382.192L154.095 381.856V384.928H151.623V367.24H154.095V375.28L153.711 375.064C153.791 374.696 153.967 374.344 154.239 374.008C154.511 373.656 154.855 373.344 155.271 373.072C155.703 372.784 156.167 372.56 156.663 372.4C157.159 372.224 157.663 372.136 158.175 372.136C159.311 372.136 160.319 372.416 161.199 372.976C162.079 373.536 162.775 374.312 163.287 375.304C163.799 376.28 164.055 377.4 164.055 378.664C164.055 379.928 163.799 381.056 163.287 382.048C162.791 383.04 162.103 383.824 161.223 384.4C160.343 384.96 159.351 385.24 158.247 385.24ZM157.839 382.984C158.575 382.984 159.231 382.8 159.807 382.432C160.383 382.048 160.839 381.536 161.175 380.896C161.511 380.24 161.679 379.496 161.679 378.664C161.679 377.848 161.511 377.12 161.175 376.48C160.855 375.824 160.407 375.312 159.831 374.944C159.255 374.576 158.591 374.392 157.839 374.392C157.087 374.392 156.423 374.576 155.847 374.944C155.271 375.312 154.815 375.824 154.479 376.48C154.143 377.12 153.975 377.848 153.975 378.664C153.975 379.496 154.143 380.24 154.479 380.896C154.815 381.536 155.271 382.048 155.847 382.432C156.423 382.8 157.087 382.984 157.839 382.984ZM171.156 385.24C170.26 385.24 169.476 385.032 168.804 384.616C168.148 384.2 167.636 383.616 167.268 382.864C166.916 382.112 166.74 381.216 166.74 380.176V372.4H169.212V379.504C169.212 380.24 169.324 380.88 169.548 381.424C169.788 381.952 170.124 382.36 170.556 382.648C171.004 382.936 171.54 383.08 172.164 383.08C172.628 383.08 173.052 383.008 173.436 382.864C173.82 382.704 174.148 382.488 174.42 382.216C174.708 381.944 174.932 381.616 175.092 381.232C175.252 380.848 175.332 380.432 175.332 379.984V372.4H177.804V385H175.332V382.36L175.764 382.072C175.572 382.664 175.244 383.2 174.78 383.68C174.332 384.16 173.796 384.544 173.172 384.832C172.548 385.104 171.876 385.24 171.156 385.24ZM182.831 385V369.184H185.303V385H182.831ZM180.215 374.8V372.4H188.231V374.8H180.215ZM199.32 390.52L201.864 384.64L201.888 386.608L195.6 372.4H198.48L202.416 381.664C202.496 381.824 202.592 382.072 202.704 382.408C202.816 382.728 202.912 383.048 202.992 383.368L202.368 383.512C202.496 383.176 202.616 382.84 202.728 382.504C202.856 382.168 202.976 381.832 203.088 381.496L206.376 372.4H209.304L204.12 385L201.984 390.52H199.32ZM216.583 385.24C215.351 385.24 214.247 384.96 213.271 384.4C212.311 383.824 211.551 383.048 210.991 382.072C210.431 381.08 210.151 379.952 210.151 378.688C210.151 377.424 210.431 376.304 210.991 375.328C211.551 374.336 212.311 373.56 213.271 373C214.247 372.424 215.351 372.136 216.583 372.136C217.799 372.136 218.887 372.424 219.847 373C220.823 373.56 221.591 374.336 222.151 375.328C222.711 376.304 222.991 377.424 222.991 378.688C222.991 379.952 222.711 381.08 222.151 382.072C221.591 383.048 220.823 383.824 219.847 384.4C218.887 384.96 217.799 385.24 216.583 385.24ZM216.583 382.984C217.335 382.984 218.007 382.8 218.599 382.432C219.191 382.048 219.655 381.536 219.991 380.896C220.327 380.24 220.487 379.504 220.471 378.688C220.487 377.856 220.327 377.12 219.991 376.48C219.655 375.824 219.191 375.312 218.599 374.944C218.007 374.576 217.335 374.392 216.583 374.392C215.831 374.392 215.151 374.584 214.543 374.968C213.951 375.336 213.487 375.848 213.151 376.504C212.815 377.144 212.655 377.872 212.671 378.688C212.655 379.504 212.815 380.24 213.151 380.896C213.487 381.536 213.951 382.048 214.543 382.432C215.151 382.8 215.831 382.984 216.583 382.984ZM230.101 385.24C229.205 385.24 228.421 385.032 227.749 384.616C227.093 384.2 226.581 383.616 226.213 382.864C225.861 382.112 225.685 381.216 225.685 380.176V372.4H228.157V379.504C228.157 380.24 228.269 380.88 228.493 381.424C228.733 381.952 229.069 382.36 229.501 382.648C229.949 382.936 230.485 383.08 231.109 383.08C231.573 383.08 231.997 383.008 232.381 382.864C232.765 382.704 233.093 382.488 233.365 382.216C233.653 381.944 233.877 381.616 234.037 381.232C234.197 380.848 234.277 380.432 234.277 379.984V372.4H236.749V385H234.277V382.36L234.709 382.072C234.517 382.664 234.189 383.2 233.725 383.68C233.277 384.16 232.741 384.544 232.117 384.832C231.493 385.104 230.821 385.24 230.101 385.24ZM246.895 385V372.4H249.391V375.088L248.935 375.376C249.063 374.96 249.263 374.56 249.535 374.176C249.823 373.792 250.167 373.456 250.567 373.168C250.983 372.864 251.423 372.624 251.887 372.448C252.367 372.272 252.855 372.184 253.351 372.184C254.071 372.184 254.703 372.304 255.247 372.544C255.791 372.784 256.239 373.144 256.591 373.624C256.943 374.104 257.199 374.704 257.359 375.424L256.975 375.328L257.143 374.92C257.319 374.552 257.559 374.208 257.863 373.888C258.183 373.552 258.543 373.256 258.943 373C259.343 372.744 259.767 372.544 260.215 372.4C260.663 372.256 261.103 372.184 261.535 372.184C262.479 372.184 263.255 372.376 263.863 372.76C264.487 373.144 264.951 373.728 265.255 374.512C265.575 375.296 265.735 376.272 265.735 377.44V385H263.239V377.584C263.239 376.864 263.143 376.28 262.951 375.832C262.775 375.368 262.503 375.024 262.135 374.8C261.767 374.576 261.295 374.464 260.719 374.464C260.271 374.464 259.847 374.544 259.447 374.704C259.063 374.848 258.727 375.056 258.439 375.328C258.151 375.6 257.927 375.92 257.767 376.288C257.607 376.64 257.527 377.032 257.527 377.464V385H255.031V377.536C255.031 376.88 254.935 376.328 254.743 375.88C254.551 375.416 254.271 375.064 253.903 374.824C253.535 374.584 253.087 374.464 252.559 374.464C252.111 374.464 251.695 374.544 251.311 374.704C250.927 374.848 250.591 375.056 250.303 375.328C250.015 375.584 249.791 375.896 249.631 376.264C249.471 376.616 249.391 377 249.391 377.416V385H246.895ZM273.46 385.24C272.564 385.24 271.78 385.032 271.108 384.616C270.452 384.2 269.94 383.616 269.572 382.864C269.22 382.112 269.044 381.216 269.044 380.176V372.4H271.516V379.504C271.516 380.24 271.628 380.88 271.852 381.424C272.092 381.952 272.428 382.36 272.86 382.648C273.308 382.936 273.844 383.08 274.468 383.08C274.932 383.08 275.356 383.008 275.74 382.864C276.124 382.704 276.452 382.488 276.724 382.216C277.012 381.944 277.236 381.616 277.396 381.232C277.556 380.848 277.636 380.432 277.636 379.984V372.4H280.108V385H277.636V382.36L278.068 382.072C277.876 382.664 277.548 383.2 277.084 383.68C276.636 384.16 276.1 384.544 275.476 384.832C274.852 385.104 274.18 385.24 273.46 385.24ZM287.776 385.24C286.72 385.24 285.768 385.056 284.92 384.688C284.072 384.32 283.368 383.776 282.808 383.056L284.488 381.616C284.968 382.176 285.488 382.584 286.048 382.84C286.624 383.08 287.272 383.2 287.992 383.2C288.28 383.2 288.544 383.168 288.784 383.104C289.04 383.024 289.256 382.912 289.432 382.768C289.624 382.624 289.768 382.456 289.864 382.264C289.96 382.056 290.008 381.832 290.008 381.592C290.008 381.176 289.856 380.84 289.552 380.584C289.392 380.472 289.136 380.352 288.784 380.224C288.448 380.08 288.008 379.936 287.464 379.792C286.536 379.552 285.776 379.28 285.184 378.976C284.592 378.672 284.136 378.328 283.816 377.944C283.576 377.64 283.4 377.312 283.288 376.96C283.176 376.592 283.12 376.192 283.12 375.76C283.12 375.232 283.232 374.752 283.456 374.32C283.696 373.872 284.016 373.488 284.416 373.168C284.832 372.832 285.312 372.576 285.856 372.4C286.416 372.224 287.008 372.136 287.632 372.136C288.224 372.136 288.808 372.216 289.384 372.376C289.976 372.536 290.52 372.768 291.016 373.072C291.512 373.376 291.928 373.736 292.264 374.152L290.848 375.712C290.544 375.408 290.208 375.144 289.84 374.92C289.488 374.68 289.128 374.496 288.76 374.368C288.392 374.24 288.056 374.176 287.752 374.176C287.416 374.176 287.112 374.208 286.84 374.272C286.568 374.336 286.336 374.432 286.144 374.56C285.968 374.688 285.832 374.848 285.736 375.04C285.64 375.232 285.592 375.448 285.592 375.688C285.608 375.896 285.656 376.096 285.736 376.288C285.832 376.464 285.96 376.616 286.12 376.744C286.296 376.872 286.56 377.008 286.912 377.152C287.264 377.296 287.712 377.432 288.256 377.56C289.056 377.768 289.712 378 290.224 378.256C290.752 378.496 291.168 378.776 291.472 379.096C291.792 379.4 292.016 379.752 292.144 380.152C292.272 380.552 292.336 381 292.336 381.496C292.336 382.216 292.128 382.864 291.712 383.44C291.312 384 290.768 384.44 290.08 384.76C289.392 385.08 288.624 385.24 287.776 385.24ZM296.62 385V369.184H299.092V385H296.62ZM294.004 374.8V372.4H302.02V374.8H294.004ZM40.9975 425.28V407.4H43.4935V410.28L43.1095 410.064C43.2055 409.584 43.4775 409.128 43.9255 408.696C44.3735 408.248 44.9175 407.888 45.5575 407.616C46.2135 407.328 46.8855 407.184 47.5735 407.184C48.7095 407.184 49.7175 407.464 50.5975 408.024C51.4775 408.584 52.1735 409.352 52.6855 410.328C53.1975 411.304 53.4535 412.424 53.4535 413.688C53.4535 414.936 53.1975 416.056 52.6855 417.048C52.1895 418.024 51.5015 418.8 50.6215 419.376C49.7415 419.936 48.7495 420.216 47.6455 420.216C46.9095 420.216 46.1975 420.072 45.5095 419.784C44.8215 419.48 44.2375 419.096 43.7575 418.632C43.2775 418.168 42.9815 417.688 42.8695 417.192L43.4935 416.856V425.28H40.9975ZM47.2375 417.936C47.9735 417.936 48.6295 417.752 49.2055 417.384C49.7815 417.016 50.2375 416.512 50.5735 415.872C50.9095 415.232 51.0775 414.504 51.0775 413.688C51.0775 412.872 50.9095 412.152 50.5735 411.528C50.2535 410.888 49.8055 410.384 49.2295 410.016C48.6535 409.648 47.9895 409.464 47.2375 409.464C46.4855 409.464 45.8215 409.648 45.2455 410.016C44.6695 410.368 44.2135 410.864 43.8775 411.504C43.5415 412.144 43.3735 412.872 43.3735 413.688C43.3735 414.504 43.5415 415.232 43.8775 415.872C44.2135 416.512 44.6695 417.016 45.2455 417.384C45.8215 417.752 46.4855 417.936 47.2375 417.936ZM56.5462 420V407.4H59.0182V420H56.5462ZM57.7462 404.616C57.2182 404.616 56.8102 404.48 56.5222 404.208C56.2342 403.936 56.0902 403.552 56.0902 403.056C56.0902 402.592 56.2342 402.216 56.5222 401.928C56.8262 401.64 57.2342 401.496 57.7462 401.496C58.2742 401.496 58.6822 401.632 58.9702 401.904C59.2582 402.176 59.4022 402.56 59.4022 403.056C59.4022 403.52 59.2502 403.896 58.9462 404.184C58.6582 404.472 58.2582 404.616 57.7462 404.616ZM68.1698 420.24C67.0018 420.24 65.9538 419.952 65.0258 419.376C64.1138 418.8 63.3858 418.016 62.8418 417.024C62.3138 416.032 62.0498 414.92 62.0498 413.688C62.0498 412.456 62.3138 411.344 62.8418 410.352C63.3858 409.36 64.1138 408.576 65.0258 408C65.9538 407.424 67.0018 407.136 68.1698 407.136C69.2898 407.136 70.3058 407.368 71.2178 407.832C72.1458 408.28 72.8498 408.896 73.3298 409.68L71.9618 411.36C71.7058 410.992 71.3778 410.656 70.9778 410.352C70.5778 410.048 70.1538 409.808 69.7058 409.632C69.2578 409.456 68.8258 409.368 68.4098 409.368C67.6418 409.368 66.9538 409.56 66.3458 409.944C65.7538 410.312 65.2818 410.824 64.9298 411.48C64.5778 412.136 64.4018 412.872 64.4018 413.688C64.4018 414.504 64.5858 415.24 64.9538 415.896C65.3218 416.536 65.8098 417.048 66.4178 417.432C67.0258 417.816 67.6978 418.008 68.4338 418.008C68.8658 418.008 69.2818 417.936 69.6818 417.792C70.0978 417.648 70.4978 417.432 70.8818 417.144C71.2658 416.856 71.6258 416.504 71.9618 416.088L73.3298 417.768C72.8178 418.488 72.0818 419.08 71.1218 419.544C70.1778 420.008 69.1938 420.24 68.1698 420.24ZM77.9176 416.064L77.7976 413.376L83.8216 407.4H87.1576L77.9176 416.064ZM75.6616 420V402.24H78.1336V420H75.6616ZM84.1576 420L79.4056 414.456L81.1576 412.848L87.3256 420H84.1576ZM97.5888 420V404.184H100.061V420H97.5888ZM94.9728 409.8V407.4H102.989V409.8H94.9728ZM105.24 420V402.24H107.712V409.992L107.28 410.28C107.44 409.72 107.752 409.208 108.216 408.744C108.68 408.264 109.232 407.88 109.872 407.592C110.512 407.288 111.168 407.136 111.84 407.136C112.8 407.136 113.6 407.328 114.24 407.712C114.88 408.08 115.36 408.648 115.68 409.416C116 410.184 116.16 411.152 116.16 412.32V420H113.688V412.488C113.688 411.768 113.592 411.176 113.4 410.712C113.208 410.232 112.912 409.888 112.512 409.68C112.112 409.456 111.616 409.36 111.024 409.392C110.544 409.392 110.104 409.472 109.704 409.632C109.304 409.776 108.952 409.984 108.648 410.256C108.36 410.528 108.128 410.848 107.952 411.216C107.792 411.568 107.712 411.952 107.712 412.368V420H106.488C106.28 420 106.072 420 105.864 420C105.656 420 105.448 420 105.24 420ZM125.393 420.24C124.097 420.24 122.945 419.968 121.937 419.424C120.945 418.864 120.161 418.104 119.585 417.144C119.025 416.184 118.745 415.08 118.745 413.832C118.745 412.84 118.905 411.936 119.225 411.12C119.545 410.304 119.985 409.6 120.545 409.008C121.121 408.4 121.801 407.936 122.585 407.616C123.385 407.28 124.249 407.112 125.177 407.112C125.993 407.112 126.753 407.272 127.457 407.592C128.161 407.896 128.769 408.32 129.281 408.864C129.809 409.408 130.209 410.056 130.481 410.808C130.769 411.544 130.905 412.352 130.889 413.232L130.865 414.288H120.569L120.017 412.32H128.729L128.369 412.728V412.152C128.321 411.624 128.145 411.152 127.841 410.736C127.537 410.32 127.153 409.992 126.689 409.752C126.225 409.512 125.721 409.392 125.177 409.392C124.313 409.392 123.585 409.56 122.993 409.896C122.401 410.216 121.953 410.696 121.649 411.336C121.345 411.96 121.193 412.736 121.193 413.664C121.193 414.544 121.377 415.312 121.745 415.968C122.113 416.608 122.633 417.104 123.305 417.456C123.977 417.808 124.753 417.984 125.633 417.984C126.257 417.984 126.833 417.88 127.361 417.672C127.905 417.464 128.489 417.088 129.113 416.544L130.361 418.296C129.977 418.68 129.505 419.016 128.945 419.304C128.401 419.592 127.817 419.824 127.193 420C126.585 420.16 125.985 420.24 125.393 420.24ZM146.182 420.24C144.886 420.24 143.734 419.968 142.726 419.424C141.734 418.864 140.95 418.104 140.374 417.144C139.814 416.184 139.534 415.08 139.534 413.832C139.534 412.84 139.694 411.936 140.014 411.12C140.334 410.304 140.774 409.6 141.334 409.008C141.91 408.4 142.59 407.936 143.374 407.616C144.174 407.28 145.038 407.112 145.966 407.112C146.782 407.112 147.542 407.272 148.246 407.592C148.95 407.896 149.558 408.32 150.07 408.864C150.598 409.408 150.998 410.056 151.27 410.808C151.558 411.544 151.694 412.352 151.678 413.232L151.654 414.288H141.358L140.806 412.32H149.518L149.158 412.728V412.152C149.11 411.624 148.934 411.152 148.63 410.736C148.326 410.32 147.942 409.992 147.478 409.752C147.014 409.512 146.51 409.392 145.966 409.392C145.102 409.392 144.374 409.56 143.782 409.896C143.19 410.216 142.742 410.696 142.438 411.336C142.134 411.96 141.982 412.736 141.982 413.664C141.982 414.544 142.166 415.312 142.534 415.968C142.902 416.608 143.422 417.104 144.094 417.456C144.766 417.808 145.542 417.984 146.422 417.984C147.046 417.984 147.622 417.88 148.15 417.672C148.694 417.464 149.278 417.088 149.902 416.544L151.15 418.296C150.766 418.68 150.294 419.016 149.734 419.304C149.19 419.592 148.606 419.824 147.982 420C147.374 420.16 146.774 420.24 146.182 420.24ZM155.733 420V405.984C155.733 405.264 155.893 404.624 156.213 404.064C156.533 403.504 156.973 403.064 157.533 402.744C158.093 402.424 158.741 402.264 159.477 402.264C159.989 402.264 160.469 402.36 160.917 402.552C161.365 402.744 161.725 403 161.997 403.32L161.157 405.216C160.949 405.024 160.717 404.872 160.461 404.76C160.221 404.632 159.989 404.568 159.765 404.568C159.429 404.568 159.141 404.624 158.901 404.736C158.677 404.832 158.509 404.992 158.397 405.216C158.285 405.424 158.229 405.68 158.229 405.984V420H156.981C156.773 420 156.565 420 156.357 420C156.149 420 155.941 420 155.733 420ZM153.717 409.896V407.616H161.205V409.896H153.717ZM165.165 420V405.984C165.165 405.264 165.325 404.624 165.645 404.064C165.965 403.504 166.405 403.064 166.965 402.744C167.525 402.424 168.173 402.264 168.909 402.264C169.421 402.264 169.901 402.36 170.349 402.552C170.797 402.744 171.157 403 171.429 403.32L170.589 405.216C170.381 405.024 170.149 404.872 169.893 404.76C169.653 404.632 169.421 404.568 169.197 404.568C168.861 404.568 168.573 404.624 168.333 404.736C168.109 404.832 167.941 404.992 167.829 405.216C167.717 405.424 167.661 405.68 167.661 405.984V420H166.413C166.205 420 165.997 420 165.789 420C165.581 420 165.373 420 165.165 420ZM163.149 409.896V407.616H170.637V409.896H163.149ZM178.643 420.24C177.347 420.24 176.195 419.968 175.187 419.424C174.195 418.864 173.411 418.104 172.835 417.144C172.275 416.184 171.995 415.08 171.995 413.832C171.995 412.84 172.155 411.936 172.475 411.12C172.795 410.304 173.235 409.6 173.795 409.008C174.371 408.4 175.051 407.936 175.835 407.616C176.635 407.28 177.499 407.112 178.427 407.112C179.243 407.112 180.003 407.272 180.707 407.592C181.411 407.896 182.019 408.32 182.531 408.864C183.059 409.408 183.459 410.056 183.731 410.808C184.019 411.544 184.155 412.352 184.139 413.232L184.115 414.288H173.819L173.267 412.32H181.979L181.619 412.728V412.152C181.571 411.624 181.395 411.152 181.091 410.736C180.787 410.32 180.403 409.992 179.939 409.752C179.475 409.512 178.971 409.392 178.427 409.392C177.563 409.392 176.835 409.56 176.243 409.896C175.651 410.216 175.203 410.696 174.899 411.336C174.595 411.96 174.443 412.736 174.443 413.664C174.443 414.544 174.627 415.312 174.995 415.968C175.363 416.608 175.883 417.104 176.555 417.456C177.227 417.808 178.003 417.984 178.883 417.984C179.507 417.984 180.083 417.88 180.611 417.672C181.155 417.464 181.739 417.088 182.363 416.544L183.611 418.296C183.227 418.68 182.755 419.016 182.195 419.304C181.651 419.592 181.067 419.824 180.443 420C179.835 420.16 179.235 420.24 178.643 420.24ZM192.178 420.24C191.01 420.24 189.962 419.952 189.034 419.376C188.122 418.8 187.394 418.016 186.85 417.024C186.322 416.032 186.058 414.92 186.058 413.688C186.058 412.456 186.322 411.344 186.85 410.352C187.394 409.36 188.122 408.576 189.034 408C189.962 407.424 191.01 407.136 192.178 407.136C193.298 407.136 194.314 407.368 195.226 407.832C196.154 408.28 196.858 408.896 197.338 409.68L195.97 411.36C195.714 410.992 195.386 410.656 194.986 410.352C194.586 410.048 194.162 409.808 193.714 409.632C193.266 409.456 192.834 409.368 192.418 409.368C191.65 409.368 190.962 409.56 190.354 409.944C189.762 410.312 189.29 410.824 188.938 411.48C188.586 412.136 188.41 412.872 188.41 413.688C188.41 414.504 188.594 415.24 188.962 415.896C189.33 416.536 189.818 417.048 190.426 417.432C191.034 417.816 191.706 418.008 192.442 418.008C192.874 418.008 193.29 417.936 193.69 417.792C194.106 417.648 194.506 417.432 194.89 417.144C195.274 416.856 195.634 416.504 195.97 416.088L197.338 417.768C196.826 418.488 196.09 419.08 195.13 419.544C194.186 420.008 193.202 420.24 192.178 420.24ZM201.229 420V404.184H203.701V420H201.229ZM198.613 409.8V407.4H206.629V409.8H198.613ZM215.607 420V407.4H218.079V409.992L217.647 410.28C217.807 409.72 218.119 409.208 218.583 408.744C219.047 408.264 219.599 407.88 220.239 407.592C220.879 407.288 221.535 407.136 222.207 407.136C223.167 407.136 223.967 407.328 224.607 407.712C225.247 408.08 225.727 408.648 226.047 409.416C226.367 410.184 226.527 411.152 226.527 412.32V420H224.055V412.488C224.055 411.768 223.959 411.176 223.767 410.712C223.575 410.232 223.279 409.888 222.879 409.68C222.479 409.456 221.983 409.36 221.391 409.392C220.911 409.392 220.471 409.472 220.071 409.632C219.671 409.776 219.319 409.984 219.015 410.256C218.727 410.528 218.495 410.848 218.319 411.216C218.159 411.568 218.079 411.952 218.079 412.368V420H216.855C216.647 420 216.439 420 216.231 420C216.023 420 215.815 420 215.607 420ZM235.76 420.24C234.464 420.24 233.312 419.968 232.304 419.424C231.312 418.864 230.528 418.104 229.952 417.144C229.392 416.184 229.112 415.08 229.112 413.832C229.112 412.84 229.272 411.936 229.592 411.12C229.912 410.304 230.352 409.6 230.912 409.008C231.488 408.4 232.168 407.936 232.952 407.616C233.752 407.28 234.616 407.112 235.544 407.112C236.36 407.112 237.12 407.272 237.824 407.592C238.528 407.896 239.136 408.32 239.648 408.864C240.176 409.408 240.576 410.056 240.848 410.808C241.136 411.544 241.272 412.352 241.256 413.232L241.232 414.288H230.936L230.384 412.32H239.096L238.736 412.728V412.152C238.688 411.624 238.512 411.152 238.208 410.736C237.904 410.32 237.52 409.992 237.056 409.752C236.592 409.512 236.088 409.392 235.544 409.392C234.68 409.392 233.952 409.56 233.36 409.896C232.768 410.216 232.32 410.696 232.016 411.336C231.712 411.96 231.56 412.736 231.56 413.664C231.56 414.544 231.744 415.312 232.112 415.968C232.48 416.608 233 417.104 233.672 417.456C234.344 417.808 235.12 417.984 236 417.984C236.624 417.984 237.2 417.88 237.728 417.672C238.272 417.464 238.856 417.088 239.48 416.544L240.728 418.296C240.344 418.68 239.872 419.016 239.312 419.304C238.768 419.592 238.184 419.824 237.56 420C236.952 420.16 236.352 420.24 235.76 420.24ZM252.249 420L248.169 414.696L247.809 414.24L242.505 407.4H245.625L249.633 412.632L250.041 413.16L255.273 420H252.249ZM242.529 420L247.497 413.52L248.961 415.272L245.457 420H242.529ZM250.185 413.904L248.817 412.176L251.913 407.4H254.841L250.185 413.904ZM258.909 420V404.184H261.381V420H258.909ZM256.293 409.8V407.4H264.309V409.8H256.293ZM274.847 420V404.184H277.319V420H274.847ZM272.231 409.8V407.4H280.247V409.8H272.231ZM286.914 420.24C286.018 420.24 285.234 420.032 284.562 419.616C283.906 419.2 283.394 418.616 283.026 417.864C282.674 417.112 282.498 416.216 282.498 415.176V407.4H284.97V414.504C284.97 415.24 285.082 415.88 285.306 416.424C285.546 416.952 285.882 417.36 286.314 417.648C286.762 417.936 287.298 418.08 287.922 418.08C288.386 418.08 288.81 418.008 289.194 417.864C289.578 417.704 289.906 417.488 290.178 417.216C290.466 416.944 290.69 416.616 290.85 416.232C291.01 415.848 291.09 415.432 291.09 414.984V407.4H293.562V420H291.09V417.36L291.522 417.072C291.33 417.664 291.002 418.2 290.538 418.68C290.09 419.16 289.554 419.544 288.93 419.832C288.306 420.104 287.634 420.24 286.914 420.24ZM297.029 420V407.4H299.525V411.36L299.285 410.4C299.461 409.792 299.757 409.24 300.173 408.744C300.605 408.248 301.093 407.856 301.637 407.568C302.197 407.28 302.773 407.136 303.365 407.136C303.637 407.136 303.893 407.16 304.133 407.208C304.389 407.256 304.589 407.312 304.733 407.376L304.085 410.064C303.893 409.984 303.677 409.92 303.437 409.872C303.213 409.808 302.989 409.776 302.765 409.776C302.333 409.776 301.917 409.864 301.517 410.04C301.133 410.2 300.789 410.432 300.485 410.736C300.197 411.024 299.965 411.368 299.789 411.768C299.613 412.152 299.525 412.576 299.525 413.04V420H297.029ZM306.708 420V407.4H309.18V409.992L308.748 410.28C308.908 409.72 309.22 409.208 309.684 408.744C310.148 408.264 310.7 407.88 311.34 407.592C311.98 407.288 312.636 407.136 313.308 407.136C314.268 407.136 315.068 407.328 315.708 407.712C316.348 408.08 316.828 408.648 317.148 409.416C317.468 410.184 317.628 411.152 317.628 412.32V420H315.156V412.488C315.156 411.768 315.06 411.176 314.868 410.712C314.676 410.232 314.38 409.888 313.98 409.68C313.58 409.456 313.084 409.36 312.492 409.392C312.012 409.392 311.572 409.472 311.172 409.632C310.772 409.776 310.42 409.984 310.116 410.256C309.828 410.528 309.596 410.848 309.42 411.216C309.26 411.568 309.18 411.952 309.18 412.368V420H307.956C307.748 420 307.54 420 307.332 420C307.124 420 306.916 420 306.708 420Z" fill="#FAF9F6"/>
<path d="M253.332 208.801C247.371 226.32 279.294 296.171 296 328.906L268.232 328.906C260.646 296.758 239.485 238.301 229.852 213.091C225.337 212.639 217.661 209.704 214.049 207.221C210.437 204.738 208.179 201.126 206.599 196.836C205.018 192.547 204.793 182.387 204.793 179.227C204.793 176.698 203.438 173.206 202.761 171.777C199.329 162.566 184.023 138.59 176.799 127.753C175.67 125.345 174.089 119.987 176.799 117.82C179.508 115.652 182.292 115.863 183.346 116.239C189.848 118.768 199.6 134.15 203.664 141.525C204.492 139.418 207.096 135.113 210.888 134.752C214.681 134.391 217.586 135.956 218.564 136.784C219.467 135.053 222.267 131.546 226.24 131.365C230.214 131.185 233.164 133.548 234.142 134.752C235.948 131.14 239.259 127.979 240.689 126.85C243.473 124.593 250.622 121.929 256.944 129.334C263.265 136.739 261.233 164.176 259.427 176.969L260.33 177.195C260.706 175.539 263.084 171.054 269.586 166.358C276.088 161.663 282.078 162.295 284.261 163.198C285.54 163.649 288.054 165.5 287.873 169.293C287.647 174.034 282.229 177.195 279.52 179.452C276.811 181.71 276.359 183.065 272.973 191.192C270.264 197.694 258.75 205.641 253.332 208.801Z" fill="#FFB898" stroke="#C98166" stroke-linecap="round"/>
<path d="M192.827 125.044C185.964 132.449 182.292 131.14 181.313 129.559V131.591L186.054 138.59L195.085 127.979L192.827 125.044Z" fill="#EA9570"/>
<path d="M240.689 126.85C243.474 124.593 250.623 121.929 256.944 129.334C252.052 126.85 241.141 124.999 236.625 137.461C232.11 149.923 233.841 161.015 235.271 165.004C236.023 167.036 238.883 171.099 244.301 171.099C249.719 171.099 252.128 163.725 252.654 160.037C253.633 165.832 252.338 176.653 239.334 173.583C226.331 170.512 225.939 155.597 227.369 148.523C227.971 145.965 229.672 140.035 231.659 136.784C229.175 133.548 223.08 130.327 218.565 143.331C217.737 145.363 216.262 150.916 216.984 156.876C217.887 164.327 219.242 168.842 220.371 170.648C221.499 172.454 223.983 175.163 226.015 176.066C227.64 176.789 226.842 176.454 226.24 176.196C224.058 175.927 219.197 173.989 217.21 168.39C214.727 161.392 214.501 153.716 215.178 149.878C215.72 146.808 216.608 142.879 216.984 141.299C216.382 140.02 214.636 137.461 212.469 137.461C210.302 137.461 207.954 141.525 207.051 143.557C206.599 144.535 205.741 147.62 205.922 152.135C206.148 157.78 207.276 163.649 209.083 167.713C210.889 171.777 215.855 178.55 222.854 178.775L219.467 181.259L211.566 178.775C210.512 181.108 207.276 182.974 202.761 171.777C197.117 157.78 186.055 141.976 178.831 130.688C173.051 121.658 175.82 117.895 177.927 117.143C177.024 118.949 177.476 121.658 180.637 128.205C183.797 134.752 196.214 152.135 198.472 155.07C200.278 157.418 199.977 155.296 199.601 153.942C197.975 145.634 200.88 140.847 202.536 139.493L203.664 141.525C204.492 139.418 207.096 135.113 210.889 134.752C214.682 134.391 217.586 135.956 218.565 136.784C219.468 135.053 222.267 131.546 226.241 131.365C230.214 131.185 233.164 133.548 234.142 134.752C235.948 131.14 239.259 127.979 240.689 126.85Z" fill="#F8A885"/>
<path d="M273.649 189.612C273.107 191.057 272.069 192.773 271.617 193.45C272.294 190.967 273.468 185.368 274.552 182.839C275.636 180.311 277.336 177.948 278.164 177.195C280.422 175.314 285.027 171.551 285.389 170.648C285.84 169.519 286.292 167.939 285.84 166.359C285.389 164.778 282.228 162.746 284.26 163.198C286.292 163.65 287.646 166.133 287.872 168.616C288.098 171.1 286.292 173.583 284.486 175.389C282.679 177.195 279.97 179.001 278.39 180.582C276.81 182.162 274.326 187.806 273.649 189.612Z" fill="#FFC5A5"/>
<path d="M206.599 196.836C205.018 192.547 204.793 182.387 204.793 179.227C204.642 177.722 204.025 174.079 202.761 171.551C204.642 174.185 208.631 178.459 209.534 174.486C211.942 177.722 218.699 182.703 226.466 176.743C228.272 177.044 232.561 177.104 235.27 174.937C235.647 174.636 236.535 174.034 237.076 174.034C237.618 174.034 237.754 174.636 237.754 174.937C237.754 175.313 237.618 176.382 237.076 177.646C236.535 178.911 237.453 178.625 237.979 178.324C239.485 177.646 242.72 176.382 243.623 176.743C244.526 177.104 244 177.345 243.623 177.421C238.747 179.046 235.27 185.322 234.141 188.257C233.238 191.192 232.064 197.965 234.593 201.577C237.754 206.092 243.623 207.221 248.816 206.769C252.97 206.408 253.557 207.974 253.331 208.801C252.97 209.343 252.729 212.489 252.654 213.994C250.02 215.725 244.21 219.322 242.043 219.864C239.876 220.405 239.786 222.196 240.011 223.024C243.804 235.667 265.372 298.88 275.681 328.906H268.231C260.646 296.758 239.485 238.301 229.852 213.091C225.337 212.639 217.661 209.704 214.049 207.221C210.437 204.738 208.179 201.125 206.599 196.836Z" fill="#F5A688"/>
<path d="M206.599 196.836C205.018 192.547 204.793 182.387 204.793 179.227C204.642 177.722 204.025 174.079 202.761 171.551C204.642 174.185 208.631 178.459 209.534 174.486C211.942 177.722 218.699 182.703 226.466 176.743C228.272 177.044 232.561 177.104 235.27 174.937C234.518 176.367 232.2 179.136 228.949 178.775C228.497 178.7 227.459 178.775 226.917 179.678C226.24 180.807 219.919 185.548 212.468 180.807C211.942 180.431 210.888 180.22 210.888 182.387C210.888 185.096 205.018 215.574 242.72 210.607C244.15 210.382 246.152 210.382 242.72 212.188C239.289 213.994 236.926 214.897 236.173 215.123C235.421 215.273 234.232 215.981 235.496 217.606C236.76 219.231 260.254 292.483 271.844 328.906H268.231C260.646 296.758 239.485 238.301 229.852 213.091C225.337 212.639 217.661 209.704 214.049 207.221C210.437 204.738 208.179 201.125 206.599 196.836Z" fill="#E99676"/>
<path d="M236.624 190.515C235.721 190.334 235.947 189.085 236.173 188.483C240.688 178.55 249.192 178.023 252.879 179.001C254.143 179.362 254.309 179.904 254.234 180.13C254.158 180.356 253.647 180.807 252.202 180.807C250.396 180.807 246.783 181.936 243.623 183.291C241.094 184.374 239.559 186.602 239.108 187.58C238.656 188.634 237.527 190.696 236.624 190.515Z" fill="#FFC5A5"/>
<path d="M242.495 168.165C240.87 167.442 242.872 166.509 244.076 166.133C250.171 164.552 250.397 154.619 250.622 152.361C250.803 150.555 251.149 151.458 251.3 152.136C251.45 152.888 251.616 155.612 251.074 160.489C250.532 165.365 247.989 167.638 246.784 168.165C246.032 168.466 244.121 168.887 242.495 168.165Z" fill="#FFC5A5"/>
<path d="M259.427 176.969C253.256 175.238 239.786 174.621 235.271 186" stroke="#C98166" stroke-linecap="round"/>
<path d="M234.142 134.752C232.787 137.01 229.988 143.331 229.627 150.555C229.175 159.586 230.755 164.327 232.11 166.81C233.464 169.293 237.528 172.228 240.689 172.002C243.849 171.777 245.655 171.777 247.461 170.196C249.268 168.616 252.428 165.004 252.654 160.263C252.88 155.522 251.977 144.911 251.299 143.105" stroke="#C98166" stroke-linecap="round"/>
<path d="M237.528 171.325C236.7 173.658 233.419 177.963 226.917 176.518C220.415 175.073 217.435 169.595 216.758 167.036C215.403 163.047 213.552 152.361 216.984 141.525C217.285 140.396 218.022 137.868 218.564 136.784" stroke="#C98166" stroke-linecap="round"/>
<path d="M203.663 141.525C202.76 144.686 201.405 152.677 203.212 159.36C205.018 166.043 208.178 172.379 209.533 174.712C211.866 177.872 218.563 182.659 226.691 176.518" stroke="#C98166" stroke-linecap="round"/>
<path d="M253.332 208.801C247.371 226.32 279.294 296.171 296 328.906L268.232 328.906C260.646 296.758 239.485 238.301 229.852 213.091C225.337 212.639 217.661 209.704 214.049 207.221C210.437 204.738 208.179 201.126 206.599 196.836C205.018 192.547 204.793 182.387 204.793 179.227C204.793 176.698 203.438 173.206 202.761 171.777C199.329 162.566 184.023 138.59 176.799 127.753C175.67 125.345 174.089 119.987 176.799 117.82C179.508 115.652 182.292 115.863 183.346 116.239C189.848 118.768 199.6 134.15 203.664 141.525C204.492 139.418 207.096 135.113 210.888 134.752C214.681 134.391 217.586 135.956 218.564 136.784C219.467 135.053 222.267 131.546 226.24 131.365C230.214 131.185 233.164 133.548 234.142 134.752C235.948 131.14 239.259 127.979 240.689 126.85C243.473 124.593 250.622 121.929 256.944 129.334C263.265 136.739 261.233 164.176 259.427 176.969L260.33 177.195C260.706 175.539 263.084 171.054 269.586 166.358C276.088 161.663 282.078 162.295 284.261 163.198C285.54 163.649 288.054 165.5 287.873 169.293C287.647 174.034 282.229 177.195 279.52 179.452C276.811 181.71 276.359 183.065 272.973 191.192C270.264 197.694 258.75 205.641 253.332 208.801Z" stroke="#C98166" stroke-linecap="round"/>
<path d="M133.678 216.026C136.748 240.95 116.896 301.665 106.586 328.906L132.097 328.906C134.084 279.42 145.718 236.043 151.287 220.541C157.789 220.722 162.725 218.359 164.381 217.155C166.413 215.65 171.199 211.285 174.089 205.867C176.978 200.448 178.905 193.676 179.507 190.967C179.733 189.838 180.229 187.264 180.41 186C180.591 184.736 180.937 183.065 181.087 182.388C181.464 180.582 183.39 173.673 188.086 160.489C193.956 144.008 202.309 136.107 204.566 132.72C206.824 129.334 205.695 125.496 202.986 123.69C200.277 121.884 196.891 123.238 191.698 127.754C187.544 131.366 178.529 147.169 174.54 154.619C173.411 152.587 170.251 148.207 166.639 146.943C163.026 145.679 160.016 146.868 158.963 147.62C157.834 145.137 156.479 142.879 149.932 142.202C144.695 141.66 141.88 143.03 141.128 143.783C140.044 140.712 136.913 139.192 135.484 138.816C134.129 138.515 130.381 138.996 126.227 143.331C122.073 147.666 119.981 157.178 119.455 161.392C119.078 164.026 118.416 169.88 118.777 172.228C119.229 175.163 120.809 179.001 122.841 181.485C124.466 183.471 127.883 185.172 129.388 185.774C129.388 185.925 129.162 186.632 128.259 188.257C127.356 189.883 125.776 189.085 125.099 188.483C121.938 185.925 114.714 180.311 111.101 178.324C107.489 176.337 103.877 176.142 102.523 176.292C101.168 176.443 97.9623 177.105 95.9756 178.55C93.4922 180.356 92.815 182.839 93.0407 185.323C93.2665 187.806 108.167 195.482 111.553 197.062C114.262 198.326 115.692 199.846 116.068 200.448C118.777 204.422 128.937 212.489 133.678 216.026Z" fill="#FBB091" stroke="#C98166"/>
<path d="M106.586 328.906C116.896 301.664 136.748 240.95 133.678 216.026C128.937 212.489 118.777 204.422 116.068 200.448C115.692 199.846 114.262 198.326 111.553 197.062C108.167 195.481 93.2665 187.806 93.0407 185.322C92.815 182.839 93.4922 180.355 95.9756 178.549C96.9776 177.69 102.974 174.937 108.167 176.969C113.359 179.001 122.841 186.677 125.099 188.483C126.905 189.928 127.958 188.934 128.259 188.257L131.167 186.915C131.176 186.91 131.185 186.906 131.194 186.902L131.167 186.915C130.758 187.127 129.474 188.735 127.356 193.675C124.647 199.997 138.644 206.995 140.225 207.672C141.489 208.214 141.955 209.403 142.031 209.93C143.159 229.797 117.197 318.521 115.842 323.036C114.759 326.648 117.046 328.454 118.326 328.906H106.586Z" fill="#F5A688"/>
<path d="M133.678 216.026C136.748 240.95 116.896 301.664 106.586 328.906H114.714C114.036 328.379 112.817 326.694 113.359 324.165C114.036 321.005 140.225 232.958 138.193 213.768C133.075 211.36 122.073 203.835 119.003 192.998C111.628 192.17 96.6982 188.122 95.9756 178.55C93.4922 180.356 92.815 182.839 93.0407 185.322C93.2665 187.806 108.167 195.482 111.553 197.062C114.262 198.326 115.692 199.846 116.068 200.448C118.777 204.422 128.937 212.489 133.678 216.026Z" fill="#E99676"/>
<path d="M165.736 148.072C173.502 152.045 174.842 159.962 174.541 163.424C172.915 156.019 169.047 152.361 167.317 151.458C165.736 150.63 162.485 149.742 162.124 152.813C161.763 155.883 160.092 158.081 159.189 158.908C158.286 153.264 155.577 148.749 150.836 149.201C147.043 149.562 144.59 154.167 143.837 156.425C139.503 146.672 134.205 146.491 132.098 147.62C130.141 148.599 125.957 152.632 124.874 160.94C123.519 171.325 126.228 174.26 128.486 176.292C130.292 177.917 130.593 176.819 130.518 176.066C130.141 172.68 129.208 165.591 128.486 164.327C127.763 163.062 128.185 162.445 128.486 162.295C128.636 162.219 129.298 162.34 130.743 163.424C132.188 164.507 132.549 163.725 132.549 163.198C132.549 161.994 132.459 159.089 132.098 157.102C131.737 155.116 132.399 155.221 132.775 155.522C134.581 157.147 135.334 162.671 135.484 165.23C135.635 167.864 135.529 174.712 133.904 181.033C132.278 187.354 129.464 188.483 128.26 188.257C130.066 185.548 130.969 182.312 131.195 181.033C129.464 180.356 125.46 178.324 123.293 175.615C120.584 172.228 121.713 166.133 122.841 158.231C123.97 150.329 128.937 140.963 133.904 141.073C137.877 141.162 141.806 149.087 143.612 153.039C143.687 151.007 145.508 146.672 149.481 145.588C153.455 144.505 157.759 147.997 159.415 149.878C160.86 147.169 164.231 147.545 165.736 148.072Z" fill="#F5A688"/>
<path d="M122.84 181.485C124.465 183.471 127.882 185.172 129.387 185.774C130.109 184.69 130.892 182.162 131.193 181.033C129.462 180.356 125.459 178.324 123.292 175.615C120.582 172.228 121.711 166.133 122.84 158.231C123.969 150.33 128.936 140.963 133.902 141.073C137.876 141.162 141.804 149.087 143.61 153.039C143.685 151.007 145.506 146.672 149.48 145.589C153.453 144.505 157.758 147.997 159.413 149.878C160.858 147.169 164.23 147.545 165.735 148.072C173.501 152.045 174.84 159.962 174.539 163.424C176.165 160.715 177.023 156.425 177.248 154.619C187.182 131.501 198.545 124.367 202.985 123.69C200.276 121.884 196.89 123.238 191.697 127.754C187.543 131.366 178.528 147.169 174.539 154.619C173.41 152.587 170.25 148.207 166.638 146.943C163.025 145.679 160.015 146.868 158.962 147.62C157.833 145.137 156.478 142.879 149.931 142.202C144.694 141.66 141.879 143.03 141.127 143.783C140.043 140.712 136.912 139.192 135.483 138.816C134.128 138.515 130.38 138.996 126.226 143.331C122.072 147.666 119.98 157.178 119.454 161.392C119.077 164.026 118.415 169.88 118.776 172.228C119.228 175.163 120.808 179.001 122.84 181.485Z" fill="#ED9571"/>
<path d="M158.963 147.62C159.49 150.631 160.092 158.005 158.286 163.424" stroke="#C98166" stroke-linecap="round"/>
<path d="M145 171C145.151 171.452 145.361 172.716 145 174.161" stroke="#C98166" stroke-linecap="round"/>
<path d="M157.835 172.68C157.685 173.432 157.203 175.118 156.48 175.84" stroke="#C98166" stroke-linecap="round"/>
<path d="M170.355 175C170.204 175.677 169.722 177.258 169 178.161" stroke="#C98166" stroke-linecap="round"/>
<path d="M190 143.5C191.129 144.403 193.567 146.299 194.289 146.661" stroke="#C98166" stroke-linecap="round"/>
<path d="M189.562 146.04C190.314 146.717 192.09 148.207 193.174 148.749" stroke="#C98166" stroke-linecap="round"/>
<path d="M189.892 148.749C190.268 149.126 191.246 150.014 192.149 150.555" stroke="#C98166" stroke-linecap="round"/>
<path d="M141.127 143.782C142.181 146.115 144.288 152.677 144.288 160.263" stroke="#C98166" stroke-linecap="round"/>
<path d="M174.54 154.393C175.067 157.102 175.488 163.74 172.96 168.616" stroke="#C98166" stroke-linecap="round"/>
<path d="M129.388 185.774C130.215 183.065 133.632 172.003 133.451 167.487" stroke="#C98166" stroke-linecap="round"/>
<path d="M131.419 167.939C131.645 169.143 132.051 171.596 132.774 172.68" stroke="#C98166" stroke-linecap="round"/>
<path d="M253.5 143C253.5 144.5 252.518 145.679 251.977 146.943" stroke="#C98166" stroke-linecap="round"/>
<path d="M133.678 216.026C136.748 240.95 116.896 301.665 106.586 328.906L132.097 328.906C134.084 279.42 145.718 236.043 151.287 220.541C157.789 220.722 162.725 218.359 164.381 217.155C166.413 215.65 171.199 211.285 174.089 205.867C176.978 200.448 178.905 193.676 179.507 190.967C179.733 189.838 180.229 187.264 180.41 186C180.591 184.736 180.937 183.065 181.087 182.388C181.464 180.582 183.39 173.673 188.086 160.489C193.956 144.008 202.309 136.107 204.566 132.72C206.824 129.334 205.695 125.496 202.986 123.69C200.277 121.884 196.891 123.238 191.698 127.754C187.544 131.366 178.529 147.169 174.54 154.619C173.411 152.587 170.251 148.207 166.639 146.943C163.026 145.679 160.016 146.868 158.963 147.62C157.834 145.137 156.479 142.879 149.932 142.202C144.695 141.66 141.88 143.03 141.128 143.783C140.044 140.712 136.913 139.192 135.484 138.816C134.129 138.515 130.381 138.996 126.227 143.331C122.073 147.666 119.981 157.178 119.455 161.392C119.078 164.026 118.416 169.88 118.777 172.228C119.229 175.163 120.809 179.001 122.841 181.485C124.466 183.471 127.883 185.172 129.388 185.774C129.388 185.925 129.162 186.632 128.259 188.257C127.356 189.883 125.776 189.085 125.099 188.483C121.938 185.925 114.714 180.311 111.101 178.324C107.489 176.337 103.877 176.142 102.523 176.292C101.168 176.443 97.9623 177.105 95.9756 178.55C93.4922 180.356 92.815 182.839 93.0407 185.323C93.2665 187.806 108.167 195.482 111.553 197.062C114.262 198.326 115.692 199.846 116.068 200.448C118.777 204.422 128.937 212.489 133.678 216.026Z" stroke="#C98166"/>
</svg>
