<svg width="395" height="491" viewBox="0 0 395 491" fill="none" xmlns="http://www.w3.org/2000/svg">
<rect width="394.099" height="490.871" rx="20" fill="#202020" fill-opacity="0.5"/>
<path d="M43.72 74.48C44.04 72.2933 44.2 68.7333 44.2 63.8C44.2 58.8667 44.0667 54.96 43.8 52.08C40.8933 52.1333 39.0267 52.56 38.2 53.36C38.0133 53.7333 37.92 54.32 37.92 55.12C37.92 55.92 38.0533 56.4667 38.32 56.76L38.28 57.04C37.6133 57.44 36.9467 58 36.28 58.72C35.96 58.6933 35.7067 58.56 35.52 58.32C35.3067 58.08 35.2 57.8 35.2 57.48C35.2 56.2533 35.9067 54.8 37.32 53.12C38.7067 51.44 40.04 50.28 41.32 49.64C43.5867 49.8533 47.1333 49.96 51.96 49.96C54.52 49.96 56.44 50.4267 57.72 51.36C59.0267 52.2933 59.68 53.9333 59.68 56.28C59.68 58.6267 58.7067 60.5333 56.76 62C54.8133 63.4667 52.5467 64.2 49.96 64.2C49.56 64.2 49.2667 64.1867 49.08 64.16L49.24 62.88H49.72C51.72 62.88 53.2533 62.3733 54.32 61.36C55.3867 60.3467 55.92 58.8933 55.92 57C55.92 55.08 55.4667 53.76 54.56 53.04C53.68 52.32 52.2667 51.96 50.32 51.96C49.3067 51.96 48.4 52 47.6 52.08C47.3867 54.4533 47.28 58.2133 47.28 63.36C47.28 68.48 47.44 72.2267 47.76 74.6C49.1733 74.7333 50.64 74.9867 52.16 75.36L52.04 76.32C50.0667 76.1067 47.92 76 45.6 76C43.3067 76 41.4533 76.1067 40.04 76.32L39.88 75.32C41.08 74.9467 42.36 74.6667 43.72 74.48ZM69.9888 76.48C67.3488 76.48 65.2154 75.6533 63.5888 74C61.9621 72.32 61.1488 70.08 61.1488 67.28C61.1488 64.48 62.0021 61.8533 63.7088 59.4C65.4154 56.9467 67.6421 55.3733 70.3888 54.68C73.1354 54.68 75.2288 55.4667 76.6688 57.04C78.1088 58.5867 78.8288 60.8 78.8288 63.68C78.8288 66.56 78.0421 69.16 76.4688 71.48C74.9221 73.8 72.7621 75.4667 69.9888 76.48ZM69.3088 57.12C68.1088 57.12 67.0688 57.4533 66.1888 58.12C65.0954 59.9867 64.5488 62.3333 64.5488 65.16C64.5488 68.4133 65.4554 70.9067 67.2688 72.64C68.2288 73.5733 69.3621 74.04 70.6688 74.04C71.9754 74.04 73.0288 73.6933 73.8288 73C74.8954 71.1333 75.4288 68.8533 75.4288 66.16C75.4288 63.4667 74.9488 61.2933 73.9888 59.64C73.0288 57.96 71.4688 57.12 69.3088 57.12ZM88.5234 56.48C88.3101 57.92 88.2034 60.8667 88.2034 65.32C88.2034 69.7733 88.3234 72.8933 88.5634 74.68C89.7634 74.8133 90.8701 75.0133 91.8834 75.28L91.7634 76.28C90.3768 76.0933 88.8168 76 87.0834 76C85.3768 76 83.8434 76.1067 82.4834 76.32L82.3234 75.28C83.0701 75.04 83.9101 74.84 84.8434 74.68C85.0834 72.76 85.2034 70.04 85.2034 66.52V64.64C85.2034 61.12 85.0701 58.4 84.8034 56.48C83.8701 56.32 83.0301 56.12 82.2834 55.88L82.4434 54.84C83.8034 55.0533 85.3368 55.16 87.0434 55.16C88.7768 55.16 90.3368 55.0667 91.7234 54.88L91.8434 55.88C90.8301 56.1467 89.7234 56.3467 88.5234 56.48ZM97.3072 72.96C98.5339 73.4667 99.7472 73.72 100.947 73.72C102.147 73.72 103.107 73.44 103.827 72.88C104.547 72.32 104.907 71.52 104.907 70.48C104.907 69.4133 103.401 68.0933 100.387 66.52C99.2405 65.9333 98.1872 65.2267 97.2272 64.4C96.2939 63.5467 95.8272 62.7067 95.8272 61.88C95.8272 60.4667 96.5739 59.04 98.0672 57.6C99.5605 56.16 101.094 55.1867 102.667 54.68C104.641 54.68 106.427 54.88 108.027 55.28V56C106.907 57.12 106.281 58.6533 106.147 60.6H105.147C105.147 59.8533 105.081 58.92 104.947 57.8C104.014 57.3733 103.014 57.16 101.947 57.16C100.881 57.16 99.9872 57.4 99.2672 57.88C98.5739 58.3333 98.2272 59 98.2272 59.88C98.2272 60.4933 98.6939 61.16 99.6272 61.88C100.587 62.6 101.627 63.24 102.747 63.8C103.867 64.36 104.894 65.0533 105.827 65.88C106.787 66.7067 107.267 67.5333 107.267 68.36C107.267 69.96 106.561 71.56 105.147 73.16C103.734 74.7333 102.174 75.84 100.467 76.48C98.7872 76.48 97.2139 76.28 95.7472 75.88C95.3205 76.0667 94.8805 76.3733 94.4272 76.8L93.7072 76.28C95.2005 74.6533 96.0272 72.64 96.1872 70.24H97.1872C97.1872 71.1733 97.2272 72.08 97.3072 72.96ZM120.223 76.48C117.583 76.48 115.45 75.6533 113.823 74C112.196 72.32 111.383 70.08 111.383 67.28C111.383 64.48 112.236 61.8533 113.943 59.4C115.65 56.9467 117.876 55.3733 120.623 54.68C123.37 54.68 125.463 55.4667 126.903 57.04C128.343 58.5867 129.063 60.8 129.063 63.68C129.063 66.56 128.276 69.16 126.703 71.48C125.156 73.8 122.996 75.4667 120.223 76.48ZM119.543 57.12C118.343 57.12 117.303 57.4533 116.423 58.12C115.33 59.9867 114.783 62.3333 114.783 65.16C114.783 68.4133 115.69 70.9067 117.503 72.64C118.463 73.5733 119.596 74.04 120.903 74.04C122.21 74.04 123.263 73.6933 124.063 73C125.13 71.1333 125.663 68.8533 125.663 66.16C125.663 63.4667 125.183 61.2933 124.223 59.64C123.263 57.96 121.703 57.12 119.543 57.12ZM142.118 76.28C140.731 76.0933 139.171 76 137.438 76C135.731 76 134.198 76.1067 132.838 76.32L132.678 75.28C133.531 75.0133 134.331 74.8133 135.078 74.68C135.318 72.6 135.438 69.88 135.438 66.52V64.64C135.438 61.0667 135.304 58.32 135.038 56.4C134.318 56.32 133.451 56.1067 132.438 55.76L132.558 54.72C134.078 55.0133 135.664 55.16 137.318 55.16C138.998 55.16 140.198 55.0667 140.918 54.88L140.998 55.56C140.278 55.7467 139.918 56.0533 139.918 56.48C139.918 56.8 140.224 57.48 140.838 58.52C141.478 59.5333 142.091 60.52 142.678 61.48C144.438 64.28 146.518 67.72 148.918 71.8L149.038 71.72V66.84C149.038 63.2667 148.851 60.5867 148.478 58.8C148.104 56.9867 147.464 55.9333 146.558 55.64L146.638 54.96C147.331 55.0933 148.371 55.16 149.758 55.16C151.144 55.16 152.571 55.0133 154.038 54.72L154.158 55.76C153.064 56.1067 152.144 56.32 151.398 56.4C151.131 58.5333 150.998 61.28 150.998 64.64V66.52C150.998 70.5733 151.131 73.32 151.398 74.76C152.518 74.9467 153.411 75.16 154.078 75.4L153.958 76.44C152.624 76.1467 151.371 76 150.198 76C149.024 76 148.118 76.0533 147.478 76.16C147.478 75.5733 147.064 74.5867 146.238 73.2C145.438 71.8133 144.704 70.5867 144.038 69.52C141.878 66.0267 139.758 62.48 137.678 58.88L137.518 58.96V64.32C137.518 69.6267 137.918 73.08 138.718 74.68C139.918 74.8133 141.091 75.0133 142.238 75.28L142.118 76.28ZM163.307 75.52C163.307 73.1733 163.814 71.1467 164.827 69.44C165.867 67.7333 166.947 66.88 168.067 66.88C168.361 66.88 168.654 66.9733 168.947 67.16L169.067 67.44C168.721 68.1067 168.507 68.9467 168.427 69.96L168.187 70.12C168.081 70.0667 167.881 70.04 167.587 70.04C167.294 70.04 166.854 70.2 166.267 70.52C165.707 70.84 165.267 71.16 164.947 71.48C164.761 71.8533 164.667 72.28 164.667 72.76C164.667 74.0133 165.507 75.0933 167.187 76C168.894 76.88 170.534 77.32 172.107 77.32C175.387 77.32 177.027 75.4533 177.027 71.72C177.027 70.3067 175.681 68.5333 172.987 66.4C171.867 65.4933 170.747 64.5867 169.627 63.68C166.934 61.5467 165.587 59.6933 165.587 58.12C165.587 56.2533 166.427 54.52 168.107 52.92C169.787 51.2933 171.694 50.1067 173.827 49.36C176.121 49.36 178.294 49.5867 180.347 50.04V50.84C178.961 52.12 178.187 54.0933 178.027 56.76H177.027C177.027 55.3467 176.961 54.1067 176.827 53.04C175.681 52.5067 174.427 52.24 173.067 52.24C171.734 52.24 170.601 52.5333 169.667 53.12C168.734 53.68 168.267 54.4 168.267 55.28C168.267 56.16 168.654 57.0533 169.427 57.96C170.227 58.84 171.187 59.7067 172.307 60.56C173.427 61.3867 174.534 62.24 175.627 63.12C176.747 63.9733 177.694 64.9067 178.467 65.92C179.267 66.9067 179.667 67.8667 179.667 68.8C179.667 71.4667 178.934 73.84 177.467 75.92C176.001 78 174.001 79.56 171.467 80.6C168.134 80.2533 165.467 79.32 163.467 77.8C163.361 77.0533 163.307 76.2933 163.307 75.52ZM183.181 55.24L192.461 54.96C197.288 54.96 199.701 56.7067 199.701 60.2C199.701 62.1467 198.834 63.72 197.101 64.92C195.394 66.12 193.448 66.72 191.261 66.72C190.941 66.72 190.714 66.7067 190.581 66.68L190.741 65.36H191.101C192.754 65.36 193.981 65 194.781 64.28C195.608 63.56 196.021 62.4267 196.021 60.88C196.021 59.3333 195.688 58.2 195.021 57.48C194.381 56.7333 193.341 56.36 191.901 56.36C191.021 56.36 190.194 56.5067 189.421 56.8C189.234 58.56 189.141 61.5467 189.141 65.76C189.141 69.9733 189.261 72.9467 189.501 74.68C190.621 74.8133 191.794 75.0267 193.021 75.32L192.901 76.32C191.594 76.1067 190.021 76 188.181 76C186.341 76 184.741 76.1067 183.381 76.32L183.221 75.28C184.021 75.0133 184.861 74.8133 185.741 74.68C186.008 72.8133 186.141 69.9067 186.141 65.96C186.141 61.9867 186.021 58.92 185.781 56.76C184.848 56.4133 183.981 56.24 183.181 56.24V55.24ZM205.099 66.12C205.179 68.4933 205.619 70.3467 206.419 71.68C207.219 73.0133 208.579 73.68 210.499 73.68C212.419 73.68 214.193 72.8667 215.819 71.24L216.379 71.8C214.593 74.0667 212.446 75.6267 209.939 76.48C207.353 76.48 205.326 75.6667 203.859 74.04C202.393 72.3867 201.659 70.1733 201.659 67.4C201.659 64.6 202.526 61.9733 204.259 59.52C205.993 57.0667 208.206 55.4533 210.899 54.68C212.846 54.68 215.046 54.88 217.499 55.28L217.459 56.16C216.953 56.16 216.473 56.2533 216.019 56.44C215.513 57.64 215.179 59.0667 215.019 60.72H214.019C213.806 59.8133 213.699 58.88 213.699 57.92C212.686 57.4133 211.486 57.16 210.099 57.16C208.713 57.16 207.566 57.5333 206.659 58.28C205.753 59.9333 205.233 61.9067 205.099 64.2C206.219 64.3867 207.419 64.48 208.699 64.48C210.913 64.48 212.246 64.0133 212.699 63.08L213.539 63.2C213.299 64 213.179 64.7867 213.179 65.56C213.179 66.3333 213.273 67.28 213.459 68.4L212.499 68.56C212.206 67.76 211.993 66.9333 211.859 66.08C210.793 65.9733 209.726 65.92 208.659 65.92C207.619 65.92 206.433 65.9867 205.099 66.12ZM234.149 76.44C232.416 76.1467 230.056 76 227.069 76C224.109 76 221.629 76.1333 219.629 76.4L219.509 75.4C220.256 75.1067 221.109 74.8667 222.069 74.68C222.336 73.08 222.469 70.36 222.469 66.52V64.64C222.469 61.3333 222.336 58.6133 222.069 56.48C221.189 56.3467 220.349 56.1467 219.549 55.88L219.709 54.84C221.069 55.0533 222.669 55.16 224.509 55.16C226.349 55.16 227.922 55.0533 229.229 54.84L229.349 55.84C228.149 56.1333 226.962 56.3467 225.789 56.48C225.576 57.92 225.469 60.8933 225.469 65.4C225.469 69.88 225.576 72.8667 225.789 74.36C226.429 74.4667 227.336 74.52 228.509 74.52C229.682 74.52 230.736 74.2933 231.669 73.84C232.042 72.9333 232.229 71.8667 232.229 70.64H233.229C233.336 72.6933 233.709 74.36 234.349 75.64L234.149 76.44ZM250.438 76.44C248.705 76.1467 246.345 76 243.358 76C240.398 76 237.918 76.1333 235.918 76.4L235.798 75.4C236.545 75.1067 237.398 74.8667 238.358 74.68C238.625 73.08 238.758 70.36 238.758 66.52V64.64C238.758 61.3333 238.625 58.6133 238.358 56.48C237.478 56.3467 236.638 56.1467 235.838 55.88L235.998 54.84C237.358 55.0533 238.958 55.16 240.798 55.16C242.638 55.16 244.211 55.0533 245.518 54.84L245.638 55.84C244.438 56.1333 243.251 56.3467 242.078 56.48C241.865 57.92 241.758 60.8933 241.758 65.4C241.758 69.88 241.865 72.8667 242.078 74.36C242.718 74.4667 243.625 74.52 244.798 74.52C245.971 74.52 247.025 74.2933 247.958 73.84C248.331 72.9333 248.518 71.8667 248.518 70.64H249.518C249.625 72.6933 249.998 74.36 250.638 75.64L250.438 76.44Z" fill="#FAF9F6"/>
<path d="M40.5415 379.36V376.912H47.4535V379.36H40.5415ZM57.1628 385V371.464L57.7628 371.608L52.2428 378.352L52.1468 378.064H62.5868V380.44H50.5388L49.4348 378.28L57.6668 368.2H59.6588V385H57.1628ZM72.0042 385V372.4H74.5002V375.088L74.0442 375.376C74.1722 374.96 74.3722 374.56 74.6442 374.176C74.9322 373.792 75.2762 373.456 75.6762 373.168C76.0922 372.864 76.5322 372.624 76.9962 372.448C77.4762 372.272 77.9642 372.184 78.4602 372.184C79.1802 372.184 79.8122 372.304 80.3562 372.544C80.9002 372.784 81.3482 373.144 81.7002 373.624C82.0522 374.104 82.3082 374.704 82.4682 375.424L82.0842 375.328L82.2522 374.92C82.4282 374.552 82.6682 374.208 82.9722 373.888C83.2922 373.552 83.6522 373.256 84.0522 373C84.4522 372.744 84.8762 372.544 85.3242 372.4C85.7722 372.256 86.2122 372.184 86.6442 372.184C87.5882 372.184 88.3642 372.376 88.9722 372.76C89.5962 373.144 90.0602 373.728 90.3642 374.512C90.6842 375.296 90.8442 376.272 90.8442 377.44V385H88.3482V377.584C88.3482 376.864 88.2522 376.28 88.0602 375.832C87.8842 375.368 87.6122 375.024 87.2442 374.8C86.8762 374.576 86.4042 374.464 85.8282 374.464C85.3802 374.464 84.9562 374.544 84.5562 374.704C84.1722 374.848 83.8362 375.056 83.5482 375.328C83.2602 375.6 83.0362 375.92 82.8762 376.288C82.7162 376.64 82.6362 377.032 82.6362 377.464V385H80.1402V377.536C80.1402 376.88 80.0442 376.328 79.8522 375.88C79.6602 375.416 79.3802 375.064 79.0122 374.824C78.6442 374.584 78.1962 374.464 77.6682 374.464C77.2202 374.464 76.8042 374.544 76.4202 374.704C76.0362 374.848 75.7002 375.056 75.4122 375.328C75.1242 375.584 74.9002 375.896 74.7402 376.264C74.5802 376.616 74.5002 377 74.5002 377.416V385H72.0042ZM99.0018 385.24C97.9618 385.24 97.0098 384.952 96.1458 384.376C95.2978 383.8 94.6178 383.016 94.1058 382.024C93.5938 381.032 93.3378 379.912 93.3378 378.664C93.3378 377.4 93.5938 376.28 94.1058 375.304C94.6338 374.312 95.3378 373.536 96.2178 372.976C97.1138 372.416 98.1138 372.136 99.2178 372.136C99.8738 372.136 100.474 372.232 101.018 372.424C101.562 372.616 102.034 372.888 102.434 373.24C102.85 373.576 103.186 373.968 103.442 374.416C103.714 374.864 103.882 375.344 103.946 375.856L103.394 375.664V372.4H105.89V385H103.394V382L103.97 381.832C103.874 382.264 103.674 382.688 103.37 383.104C103.082 383.504 102.706 383.864 102.242 384.184C101.794 384.504 101.29 384.76 100.73 384.952C100.186 385.144 99.6098 385.24 99.0018 385.24ZM99.6498 382.96C100.402 382.96 101.066 382.776 101.642 382.408C102.218 382.04 102.666 381.536 102.986 380.896C103.322 380.24 103.49 379.496 103.49 378.664C103.49 377.848 103.322 377.12 102.986 376.48C102.666 375.84 102.218 375.336 101.642 374.968C101.066 374.6 100.402 374.416 99.6498 374.416C98.9138 374.416 98.2578 374.6 97.6818 374.968C97.1218 375.336 96.6738 375.84 96.3378 376.48C96.0178 377.12 95.8578 377.848 95.8578 378.664C95.8578 379.496 96.0178 380.24 96.3378 380.896C96.6738 381.536 97.1218 382.04 97.6818 382.408C98.2578 382.776 98.9138 382.96 99.6498 382.96ZM114.981 390.52C114.085 390.52 113.189 390.376 112.293 390.088C111.413 389.816 110.701 389.456 110.157 389.008L111.069 387.088C111.389 387.328 111.765 387.536 112.197 387.712C112.629 387.904 113.085 388.048 113.565 388.144C114.045 388.256 114.517 388.312 114.981 388.312C115.861 388.312 116.597 388.168 117.189 387.88C117.781 387.592 118.229 387.168 118.533 386.608C118.837 386.048 118.989 385.352 118.989 384.52V382.096L119.253 382.264C119.173 382.76 118.909 383.24 118.461 383.704C118.029 384.152 117.485 384.52 116.829 384.808C116.173 385.096 115.501 385.24 114.813 385.24C113.613 385.24 112.541 384.96 111.597 384.4C110.669 383.824 109.933 383.048 109.389 382.072C108.845 381.08 108.573 379.952 108.573 378.688C108.573 377.424 108.837 376.304 109.365 375.328C109.909 374.336 110.645 373.56 111.573 373C112.517 372.424 113.573 372.136 114.741 372.136C115.221 372.136 115.685 372.2 116.133 372.328C116.581 372.44 116.997 372.608 117.381 372.832C117.765 373.04 118.109 373.272 118.413 373.528C118.717 373.784 118.965 374.056 119.157 374.344C119.349 374.632 119.469 374.904 119.517 375.16L118.989 375.352V372.4H121.461V384.232C121.461 385.24 121.309 386.128 121.005 386.896C120.717 387.68 120.293 388.336 119.733 388.864C119.173 389.408 118.493 389.816 117.693 390.088C116.893 390.376 115.989 390.52 114.981 390.52ZM115.077 382.96C115.861 382.96 116.557 382.776 117.165 382.408C117.773 382.04 118.245 381.536 118.581 380.896C118.917 380.256 119.085 379.52 119.085 378.688C119.085 377.856 118.909 377.12 118.557 376.48C118.221 375.824 117.749 375.312 117.141 374.944C116.549 374.576 115.861 374.392 115.077 374.392C114.309 374.392 113.621 374.584 113.013 374.968C112.421 375.336 111.949 375.848 111.597 376.504C111.261 377.144 111.093 377.872 111.093 378.688C111.093 379.504 111.261 380.24 111.597 380.896C111.949 381.536 112.421 382.04 113.013 382.408C113.621 382.776 114.309 382.96 115.077 382.96ZM125.335 385V372.4H127.807V385H125.335ZM126.535 369.616C126.007 369.616 125.599 369.48 125.311 369.208C125.023 368.936 124.879 368.552 124.879 368.056C124.879 367.592 125.023 367.216 125.311 366.928C125.615 366.64 126.023 366.496 126.535 366.496C127.063 366.496 127.471 366.632 127.759 366.904C128.047 367.176 128.191 367.56 128.191 368.056C128.191 368.52 128.039 368.896 127.735 369.184C127.447 369.472 127.047 369.616 126.535 369.616ZM136.959 385.24C135.791 385.24 134.743 384.952 133.815 384.376C132.903 383.8 132.175 383.016 131.631 382.024C131.103 381.032 130.839 379.92 130.839 378.688C130.839 377.456 131.103 376.344 131.631 375.352C132.175 374.36 132.903 373.576 133.815 373C134.743 372.424 135.791 372.136 136.959 372.136C138.079 372.136 139.095 372.368 140.007 372.832C140.935 373.28 141.639 373.896 142.119 374.68L140.751 376.36C140.495 375.992 140.167 375.656 139.767 375.352C139.367 375.048 138.943 374.808 138.495 374.632C138.047 374.456 137.615 374.368 137.199 374.368C136.431 374.368 135.743 374.56 135.135 374.944C134.543 375.312 134.071 375.824 133.719 376.48C133.367 377.136 133.191 377.872 133.191 378.688C133.191 379.504 133.375 380.24 133.743 380.896C134.111 381.536 134.599 382.048 135.207 382.432C135.815 382.816 136.487 383.008 137.223 383.008C137.655 383.008 138.071 382.936 138.471 382.792C138.887 382.648 139.287 382.432 139.671 382.144C140.055 381.856 140.415 381.504 140.751 381.088L142.119 382.768C141.607 383.488 140.871 384.08 139.911 384.544C138.967 385.008 137.983 385.24 136.959 385.24ZM156.817 390.52C155.921 390.52 155.025 390.376 154.129 390.088C153.249 389.816 152.537 389.456 151.993 389.008L152.905 387.088C153.225 387.328 153.601 387.536 154.033 387.712C154.465 387.904 154.921 388.048 155.401 388.144C155.881 388.256 156.353 388.312 156.817 388.312C157.697 388.312 158.433 388.168 159.025 387.88C159.617 387.592 160.065 387.168 160.369 386.608C160.673 386.048 160.825 385.352 160.825 384.52V382.096L161.089 382.264C161.009 382.76 160.745 383.24 160.297 383.704C159.865 384.152 159.321 384.52 158.665 384.808C158.009 385.096 157.337 385.24 156.649 385.24C155.449 385.24 154.377 384.96 153.433 384.4C152.505 383.824 151.769 383.048 151.225 382.072C150.681 381.08 150.409 379.952 150.409 378.688C150.409 377.424 150.673 376.304 151.201 375.328C151.745 374.336 152.481 373.56 153.409 373C154.353 372.424 155.409 372.136 156.577 372.136C157.057 372.136 157.521 372.2 157.969 372.328C158.417 372.44 158.833 372.608 159.217 372.832C159.601 373.04 159.945 373.272 160.249 373.528C160.553 373.784 160.801 374.056 160.993 374.344C161.185 374.632 161.305 374.904 161.353 375.16L160.825 375.352V372.4H163.297V384.232C163.297 385.24 163.145 386.128 162.841 386.896C162.553 387.68 162.129 388.336 161.569 388.864C161.009 389.408 160.329 389.816 159.529 390.088C158.729 390.376 157.825 390.52 156.817 390.52ZM156.913 382.96C157.697 382.96 158.393 382.776 159.001 382.408C159.609 382.04 160.081 381.536 160.417 380.896C160.753 380.256 160.921 379.52 160.921 378.688C160.921 377.856 160.745 377.12 160.393 376.48C160.057 375.824 159.585 375.312 158.977 374.944C158.385 374.576 157.697 374.392 156.913 374.392C156.145 374.392 155.457 374.584 154.849 374.968C154.257 375.336 153.785 375.848 153.433 376.504C153.097 377.144 152.929 377.872 152.929 378.688C152.929 379.504 153.097 380.24 153.433 380.896C153.785 381.536 154.257 382.04 154.849 382.408C155.457 382.776 156.145 382.96 156.913 382.96ZM172.643 385.24C171.347 385.24 170.195 384.968 169.187 384.424C168.195 383.864 167.411 383.104 166.835 382.144C166.275 381.184 165.995 380.08 165.995 378.832C165.995 377.84 166.155 376.936 166.475 376.12C166.795 375.304 167.235 374.6 167.795 374.008C168.371 373.4 169.051 372.936 169.835 372.616C170.635 372.28 171.499 372.112 172.427 372.112C173.243 372.112 174.003 372.272 174.707 372.592C175.411 372.896 176.019 373.32 176.531 373.864C177.059 374.408 177.459 375.056 177.731 375.808C178.019 376.544 178.155 377.352 178.139 378.232L178.115 379.288H167.819L167.267 377.32H175.979L175.619 377.728V377.152C175.571 376.624 175.395 376.152 175.091 375.736C174.787 375.32 174.403 374.992 173.939 374.752C173.475 374.512 172.971 374.392 172.427 374.392C171.563 374.392 170.835 374.56 170.243 374.896C169.651 375.216 169.203 375.696 168.899 376.336C168.595 376.96 168.443 377.736 168.443 378.664C168.443 379.544 168.627 380.312 168.995 380.968C169.363 381.608 169.883 382.104 170.555 382.456C171.227 382.808 172.003 382.984 172.883 382.984C173.507 382.984 174.083 382.88 174.611 382.672C175.155 382.464 175.739 382.088 176.363 381.544L177.611 383.296C177.227 383.68 176.755 384.016 176.195 384.304C175.651 384.592 175.067 384.824 174.443 385C173.835 385.16 173.235 385.24 172.643 385.24ZM180.778 385V372.4H183.274V375.088L182.818 375.376C182.946 374.96 183.146 374.56 183.418 374.176C183.706 373.792 184.05 373.456 184.45 373.168C184.866 372.864 185.306 372.624 185.77 372.448C186.25 372.272 186.738 372.184 187.234 372.184C187.954 372.184 188.586 372.304 189.13 372.544C189.674 372.784 190.122 373.144 190.474 373.624C190.826 374.104 191.082 374.704 191.242 375.424L190.858 375.328L191.026 374.92C191.202 374.552 191.442 374.208 191.746 373.888C192.066 373.552 192.426 373.256 192.826 373C193.226 372.744 193.65 372.544 194.098 372.4C194.546 372.256 194.986 372.184 195.418 372.184C196.362 372.184 197.138 372.376 197.746 372.76C198.37 373.144 198.834 373.728 199.138 374.512C199.458 375.296 199.618 376.272 199.618 377.44V385H197.122V377.584C197.122 376.864 197.026 376.28 196.834 375.832C196.658 375.368 196.386 375.024 196.018 374.8C195.65 374.576 195.178 374.464 194.602 374.464C194.154 374.464 193.73 374.544 193.33 374.704C192.946 374.848 192.61 375.056 192.322 375.328C192.034 375.6 191.81 375.92 191.65 376.288C191.49 376.64 191.41 377.032 191.41 377.464V385H188.914V377.536C188.914 376.88 188.818 376.328 188.626 375.88C188.434 375.416 188.154 375.064 187.786 374.824C187.418 374.584 186.97 374.464 186.442 374.464C185.994 374.464 185.578 374.544 185.194 374.704C184.81 374.848 184.474 375.056 184.186 375.328C183.898 375.584 183.674 375.896 183.514 376.264C183.354 376.616 183.274 377 183.274 377.416V385H180.778ZM207.127 385.24C206.071 385.24 205.119 385.056 204.271 384.688C203.423 384.32 202.719 383.776 202.159 383.056L203.839 381.616C204.319 382.176 204.839 382.584 205.399 382.84C205.975 383.08 206.623 383.2 207.343 383.2C207.631 383.2 207.895 383.168 208.135 383.104C208.391 383.024 208.607 382.912 208.783 382.768C208.975 382.624 209.119 382.456 209.215 382.264C209.311 382.056 209.359 381.832 209.359 381.592C209.359 381.176 209.207 380.84 208.903 380.584C208.743 380.472 208.487 380.352 208.135 380.224C207.799 380.08 207.359 379.936 206.815 379.792C205.887 379.552 205.127 379.28 204.535 378.976C203.943 378.672 203.487 378.328 203.167 377.944C202.927 377.64 202.751 377.312 202.639 376.96C202.527 376.592 202.471 376.192 202.471 375.76C202.471 375.232 202.583 374.752 202.807 374.32C203.047 373.872 203.367 373.488 203.767 373.168C204.183 372.832 204.663 372.576 205.207 372.4C205.767 372.224 206.359 372.136 206.983 372.136C207.575 372.136 208.159 372.216 208.735 372.376C209.327 372.536 209.871 372.768 210.367 373.072C210.863 373.376 211.279 373.736 211.615 374.152L210.199 375.712C209.895 375.408 209.559 375.144 209.191 374.92C208.839 374.68 208.479 374.496 208.111 374.368C207.743 374.24 207.407 374.176 207.103 374.176C206.767 374.176 206.463 374.208 206.191 374.272C205.919 374.336 205.687 374.432 205.495 374.56C205.319 374.688 205.183 374.848 205.087 375.04C204.991 375.232 204.943 375.448 204.943 375.688C204.959 375.896 205.007 376.096 205.087 376.288C205.183 376.464 205.311 376.616 205.471 376.744C205.647 376.872 205.911 377.008 206.263 377.152C206.615 377.296 207.063 377.432 207.607 377.56C208.407 377.768 209.063 378 209.575 378.256C210.103 378.496 210.519 378.776 210.823 379.096C211.143 379.4 211.367 379.752 211.495 380.152C211.623 380.552 211.687 381 211.687 381.496C211.687 382.216 211.479 382.864 211.063 383.44C210.663 384 210.119 384.44 209.431 384.76C208.743 385.08 207.975 385.24 207.127 385.24Z" fill="#FAF9F6"/>
<path d="M179.706 196.215V173.945H210.597C210.357 181.368 210.201 197.688 211.495 203.579C213.111 210.942 217.242 216.51 227.658 222.077C238.075 227.645 246.157 235.906 256.394 252.25C266.631 268.593 265.553 283.32 265.733 292.479C265.913 301.639 258.729 312.415 251.365 320.676C245.474 327.286 233.465 329.417 228.197 329.656H169.469C155.676 329.656 147.199 326.543 144.684 324.987C140.134 322.353 130.029 314.031 126.006 301.819C121.983 289.606 124.929 276.016 126.904 270.748C128.341 265.66 133.01 252.824 140.194 242.192C149.174 228.902 159.411 224.951 169.289 217.587C177.191 211.696 179.526 200.885 179.706 196.215Z" fill="#D0E2F6"/>
<path d="M210.597 177.537C195.654 181.56 183.777 179.213 179.706 177.537V173.945H210.597V177.537Z" fill="#A4B4C3"/>
<path d="M184.734 197.293V173.945H205.388V191.007C205.388 196.934 205.747 217.587 221.193 224.592C233.549 230.195 244.181 242.731 247.953 248.298C253.939 257.458 264.548 280.626 259.088 300.023C253.628 319.419 236.937 324.268 229.275 324.268H160.489C142.529 324.268 133.25 307.266 130.855 298.765C129.718 294.395 128.628 281.919 133.37 266.977C139.296 248.298 150.97 237.882 153.484 235.367C155.999 232.853 162.464 228.363 166.056 226.208C169.648 224.053 171.624 222.975 178.089 215.612C183.262 209.721 184.675 200.945 184.734 197.293Z" fill="#A2C0DA"/>
<path d="M184.734 178.794V173.945H205.388V178.794C195.762 180.518 187.608 179.513 184.734 178.794Z" fill="#819AAE"/>
<path d="M171.624 169.455V157.781L218.319 157.422V169.895C214.548 172.589 210.597 175.741 194.074 175.921C180.855 176.064 173.6 171.67 171.624 169.455Z" fill="#A2C0DA"/>
<path d="M178.628 173.586V162.451C180.783 163.169 182.998 163.708 183.836 163.888L184.016 175.023C182.723 174.879 179.885 174.005 178.628 173.586Z" fill="#B8D5E7"/>
<path d="M205.567 175.023V163.888C211.889 163.026 215.745 160.775 216.882 159.757V170.892C212.572 173.909 207.543 174.903 205.567 175.023Z" fill="#7392A6"/>
<ellipse cx="194.972" cy="157.422" rx="23.5273" ry="7.3635" fill="#DFF0FA"/>
<path d="M182.758 157.242L175.754 127.429L217.421 130.482L205.567 159.577C193.354 163.456 185.273 159.637 182.758 157.242Z" fill="#926E4E"/>
<path d="M200.181 160.834L207.185 135.152L213.65 133.536L204.132 159.936C203.413 160.224 201.198 160.655 200.181 160.834Z" fill="#775740"/>
<path d="M185.602 159.152L179.706 131.38L184.555 133.176L187.608 159.936C186.68 159.691 185.902 159.272 185.602 159.152Z" fill="#AA8A72"/>
<ellipse cx="196.585" cy="128.558" rx="21.1029" ry="6.94603" transform="rotate(4.43792 196.585 128.558)" fill="#BF936C"/>
<ellipse cx="180.963" cy="127.429" rx="1.25718" ry="0.71839" fill="#CCA98B"/>
<ellipse cx="205.03" cy="132.817" rx="1.25718" ry="0.71839" fill="#CCA98B"/>
<ellipse cx="211.315" cy="129.405" rx="1.07759" ry="0.538793" fill="#CCA98B"/>
<ellipse cx="195.152" cy="125.813" rx="1.07759" ry="0.538793" fill="#CCA98B"/>
<ellipse cx="191.2" cy="128.686" rx="3.23276" ry="1.25718" fill="#CCA98B"/>
<ellipse cx="199.641" cy="131.021" rx="2.33477" ry="1.07759" fill="#CCA98B"/>
<ellipse cx="205.209" cy="126.172" rx="2.51437" ry="1.25718" fill="#CCA98B"/>
<path d="M181.471 156.099C180.561 155.189 181.442 154.609 182.04 154.189L183.087 157.536C182.728 157.357 182.334 156.962 181.473 156.101L181.471 156.099Z" fill="#A8C8DD"/>
<path d="M217.78 155.626L205.567 159.577L208.8 151.495C214.26 152.645 217.121 154.668 217.78 155.626Z" fill="#B5BFC8"/>
<path d="M153.484 235.367C155.999 232.853 162.464 228.363 166.056 226.208C167.373 225.37 171.193 223.586 175.934 223.155C180.676 222.724 193.834 222.616 199.821 222.616C205.388 222.556 217.457 222.867 221.193 224.591C233.549 230.195 244.181 242.731 247.953 248.298C253.939 257.458 264.548 280.626 259.088 300.022C253.628 319.419 236.937 324.268 229.275 324.268H160.489C142.529 324.268 133.25 307.266 130.855 298.765C129.718 294.395 128.628 281.919 133.37 266.977C139.296 248.298 150.97 237.882 153.484 235.367Z" fill="#C67DFF"/>
<path d="M130.855 298.766C129.718 294.395 128.628 281.919 133.37 266.977C134.507 262.786 138.542 252.322 145.582 243.988C156.119 245.126 180.676 247.293 194.612 246.862C212.033 246.323 224.605 246.323 244.181 243.449C244.72 244.048 246.229 245.856 247.953 248.299C253.939 257.458 264.548 280.626 259.088 300.023C253.628 319.419 236.937 324.268 229.275 324.268H160.489C142.529 324.268 133.25 307.266 130.855 298.766Z" fill="url(#paint0_linear_440_1631)"/>
<path d="M148.995 248.837C151.869 241.653 158.454 235.068 161.388 232.673C162.705 231.536 165.806 229.261 167.673 229.261C170.008 229.261 171.086 231.775 170.906 233.751C170.727 235.727 169.11 237.343 166.237 238.959C163.363 240.576 158.155 246.502 157.077 250.274C156.215 253.291 154.323 254.285 153.485 254.405C148.313 254.836 148.337 250.873 148.995 248.837Z" fill="white"/>
<path d="M173.599 225.31C174.605 222.868 181.681 221.898 185.093 221.718C191.738 221.359 194.971 222.077 194.612 226.029C194.325 229.189 191.26 229.62 189.763 229.441C187.728 229.321 182.938 229.369 180.065 230.518C177.191 231.668 175.275 230.997 174.677 230.518C173.898 229.8 172.593 227.753 173.599 225.31Z" fill="white"/>
<path d="M185.093 239.857C181.358 242.013 176.233 240.755 174.138 239.857C174.198 238.241 175.359 234.901 179.526 234.469C183.692 234.038 184.973 237.882 185.093 239.857Z" fill="#5B189B"/>
<path d="M209.519 235.727C201.473 238.888 195.031 237.164 192.816 235.906C192.816 233.093 194.433 227.537 200.898 227.824C207.364 228.112 209.339 233.212 209.519 235.727Z" fill="#5B189B"/>
<path d="M223.887 239.498C220.439 241.941 214.189 240.636 211.495 239.678C211.555 237.583 212.824 233.392 217.422 233.392C222.02 233.392 223.648 237.463 223.887 239.498Z" fill="#5B189B"/>
<circle cx="196.049" cy="256.919" r="5.20833" fill="#C67DFF"/>
<circle cx="191.02" cy="267.695" r="2.69396" fill="#5B189B"/>
<circle cx="175.396" cy="265.001" r="8.62068" fill="#C67DFF"/>
<circle cx="161.745" cy="279.01" r="3.59195" fill="#5B189B"/>
<circle cx="152.946" cy="270.569" r="2.69396" fill="#5B189B"/>
<circle cx="153.126" cy="297.329" r="11.8534" fill="#5B189B"/>
<circle cx="198.024" cy="285.834" r="12.5718" fill="#C67DFF"/>
<circle cx="228.377" cy="270.569" r="7.00431" fill="#5B189B"/>
<circle cx="235.56" cy="259.433" r="2.69396" fill="#5B189B"/>
<defs>
<linearGradient id="paint0_linear_440_1631" x1="195.238" y1="243.449" x2="195.238" y2="324.268" gradientUnits="userSpaceOnUse">
<stop stop-color="#9F4FE3"/>
<stop offset="1" stop-color="#58189B"/>
</linearGradient>
</defs>
</svg>
