<svg width="395" height="491" viewBox="0 0 395 491" fill="none" xmlns="http://www.w3.org/2000/svg">
<rect width="394.099" height="490.871" rx="20" fill="#202020" fill-opacity="0.5"/>
<path d="M44.24 74.6C44.5867 72.04 44.76 68.3733 44.76 63.6C44.76 58.8 44.6267 54.96 44.36 52.08C41.4533 52.1333 39.5867 52.56 38.76 53.36C38.5733 53.7333 38.48 54.32 38.48 55.12C38.48 55.92 38.6133 56.4667 38.88 56.76L38.84 57.04C38.1733 57.44 37.5067 58 36.84 58.72C36.52 58.6933 36.2667 58.56 36.08 58.32C35.8667 58.08 35.76 57.8 35.76 57.48C35.76 56.2533 36.4667 54.8 37.88 53.12C39.2667 51.44 40.6 50.28 41.88 49.64C44.1467 49.8533 47.4267 49.96 51.72 49.96C54.44 49.96 56.5067 50.3733 57.92 51.2C59.3333 52 60.04 53.5467 60.04 55.84C60.04 59.0933 58.3733 61.36 55.04 62.64L60.64 74.48C62 74.6667 63.28 74.9467 64.48 75.32L64.32 76.32C62.7467 76.1067 61.04 76 59.2 76C57.3867 76 56.0667 76.0533 55.24 76.16L55.08 75.6C55.5333 75.1467 55.76 74.3867 55.76 73.32C55.76 71.1867 54.5067 67.7867 52 63.12C51.3333 62.9867 50.56 62.92 49.68 62.92L49.8 62.04H50.28C52.2 62.04 53.68 61.5733 54.72 60.64C55.76 59.68 56.28 58.3067 56.28 56.52C56.28 54.7067 55.8133 53.4933 54.88 52.88C53.9467 52.2667 52.48 51.96 50.48 51.96C49.5467 51.96 48.7733 52 48.16 52.08C47.9467 54.4533 47.84 58.28 47.84 63.56C47.84 68.84 47.9867 72.48 48.28 74.48C49.64 74.6667 50.92 74.9467 52.12 75.32L51.96 76.32C50.5467 76.1067 48.68 76 46.36 76C44.0667 76 41.9333 76.1067 39.96 76.32L39.84 75.36C41.36 74.9867 42.8267 74.7333 44.24 74.6ZM71.7656 56.48C71.5523 57.92 71.4456 60.8667 71.4456 65.32C71.4456 69.7733 71.5656 72.8933 71.8056 74.68C73.0056 74.8133 74.1123 75.0133 75.1256 75.28L75.0056 76.28C73.619 76.0933 72.059 76 70.3256 76C68.619 76 67.0856 76.1067 65.7256 76.32L65.5656 75.28C66.3123 75.04 67.1523 74.84 68.0856 74.68C68.3256 72.76 68.4456 70.04 68.4456 66.52V64.64C68.4456 61.12 68.3123 58.4 68.0456 56.48C67.1123 56.32 66.2723 56.12 65.5256 55.88L65.6856 54.84C67.0456 55.0533 68.579 55.16 70.2856 55.16C72.019 55.16 73.579 55.0667 74.9656 54.88L75.0856 55.88C74.0723 56.1467 72.9656 56.3467 71.7656 56.48ZM86.8694 73.68C88.7094 73.68 90.4427 72.8667 92.0694 71.24L92.6294 71.8C90.8427 74.0667 88.696 75.6267 86.1894 76.48C83.6027 76.48 81.576 75.6667 80.1094 74.04C78.6427 72.3867 77.9094 70.1733 77.9094 67.4C77.9094 64.6 78.776 61.9733 80.5094 59.52C82.2427 57.0667 84.456 55.4533 87.1494 54.68C89.096 54.68 91.296 54.88 93.7494 55.28L93.7094 56.16C93.2027 56.16 92.7227 56.2533 92.2694 56.44C91.7627 57.64 91.4294 59.0667 91.2694 60.72H90.2694C90.056 59.8133 89.9494 58.88 89.9494 57.92C88.936 57.4133 87.736 57.16 86.3494 57.16C84.9627 57.16 83.816 57.5333 82.9094 58.28C81.8694 60.1733 81.3494 62.4667 81.3494 65.16C81.3494 69.3467 82.2427 71.9733 84.0294 73.04C84.8027 73.4667 85.7494 73.68 86.8694 73.68ZM107.813 54.84C109.173 55.0533 110.706 55.16 112.413 55.16C114.146 55.16 115.706 55.0667 117.093 54.88L117.213 55.88C116.2 56.1467 115.093 56.3467 113.893 56.48C113.626 58.1333 113.493 60.8533 113.493 64.64V66.52C113.493 70.36 113.626 73.08 113.893 74.68C115.093 74.8133 116.2 75.0133 117.213 75.28L117.093 76.28C115.706 76.0933 114.146 76 112.413 76C110.706 76 109.173 76.1067 107.813 76.32L107.653 75.28C108.4 75.04 109.24 74.84 110.173 74.68C110.386 71.6667 110.506 68.6533 110.533 65.64C108.826 65.48 107.253 65.4 105.813 65.4C104.373 65.4 102.813 65.48 101.133 65.64C101.133 70.04 101.253 73.0533 101.493 74.68C102.693 74.8133 103.8 75.0133 104.813 75.28L104.693 76.28C103.306 76.0933 101.746 76 100.013 76C98.3065 76 96.7731 76.1067 95.4131 76.32L95.2531 75.28C95.9998 75.04 96.8398 74.84 97.7731 74.68C98.0131 72.76 98.1331 70.04 98.1331 66.52V64.64C98.1331 61.12 97.9998 58.4 97.7331 56.48C96.7998 56.32 95.9598 56.12 95.2131 55.88L95.3731 54.84C96.7331 55.0533 98.2665 55.16 99.9731 55.16C101.706 55.16 103.266 55.0667 104.653 54.88L104.773 55.88C103.76 56.1467 102.653 56.3467 101.453 56.48C101.24 58.0267 101.133 60.4133 101.133 63.64C102.626 63.8533 104.226 63.96 105.933 63.96C107.666 63.96 109.2 63.8667 110.533 63.68C110.506 61.4133 110.386 59.0133 110.173 56.48C109.24 56.32 108.4 56.12 107.653 55.88L107.813 54.84ZM144.755 73.36C146.008 73.36 147.315 72.9867 148.675 72.24V68.96C148.675 68.3467 148.621 67.4533 148.515 66.28C147.581 66.0133 146.368 65.7467 144.875 65.48L144.995 64.64C145.608 64.72 146.195 64.76 146.755 64.76C149.101 64.76 151.248 64.1067 153.195 62.8L153.555 63.52C152.941 64 152.461 64.48 152.115 64.96C151.608 69.6 151.341 73.9333 151.315 77.96C150.541 79.3733 149.261 80.7333 147.475 82.04C145.715 83.3467 144.101 84 142.635 84C142.235 84 141.901 83.8933 141.635 83.68C141.368 83.4667 141.235 83.1733 141.235 82.8C142.008 82.2133 142.661 81.5333 143.195 80.76L143.475 80.72C144.061 81.1733 144.741 81.4 145.515 81.4C146.288 81.4 146.821 81.32 147.115 81.16C148.208 79.6933 148.755 77.2933 148.755 73.96C147.288 75.1067 145.661 75.9867 143.875 76.6C140.675 76.6 138.261 75.6 136.635 73.6C135.035 71.5733 134.235 68.7867 134.235 65.24C134.235 61.6667 135.208 58.36 137.155 55.32C139.128 52.2533 141.768 50.2667 145.075 49.36C147.848 49.36 150.635 49.6133 153.435 50.12L153.395 51C152.728 51 152.088 51.12 151.475 51.36C150.755 53.04 150.315 54.92 150.155 57H149.155C148.915 55.9067 148.795 54.6667 148.795 53.28C147.541 52.5867 146.008 52.24 144.195 52.24C142.381 52.24 140.928 52.6933 139.835 53.6C138.475 55.92 137.795 58.8667 137.795 62.44C137.795 69.72 140.115 73.36 144.755 73.36ZM160.06 66.12C160.14 68.4933 160.58 70.3467 161.38 71.68C162.18 73.0133 163.54 73.68 165.46 73.68C167.38 73.68 169.154 72.8667 170.78 71.24L171.34 71.8C169.554 74.0667 167.407 75.6267 164.9 76.48C162.314 76.48 160.287 75.6667 158.82 74.04C157.354 72.3867 156.62 70.1733 156.62 67.4C156.62 64.6 157.487 61.9733 159.22 59.52C160.954 57.0667 163.167 55.4533 165.86 54.68C167.807 54.68 170.007 54.88 172.46 55.28L172.42 56.16C171.914 56.16 171.434 56.2533 170.98 56.44C170.474 57.64 170.14 59.0667 169.98 60.72H168.98C168.767 59.8133 168.66 58.88 168.66 57.92C167.647 57.4133 166.447 57.16 165.06 57.16C163.674 57.16 162.527 57.5333 161.62 58.28C160.714 59.9333 160.194 61.9067 160.06 64.2C161.18 64.3867 162.38 64.48 163.66 64.48C165.874 64.48 167.207 64.0133 167.66 63.08L168.5 63.2C168.26 64 168.14 64.7867 168.14 65.56C168.14 66.3333 168.234 67.28 168.42 68.4L167.46 68.56C167.167 67.76 166.954 66.9333 166.82 66.08C165.754 65.9733 164.687 65.92 163.62 65.92C162.58 65.92 161.394 65.9867 160.06 66.12ZM187.55 57.32C186.617 56.8667 185.723 56.64 184.87 56.64C184.017 56.64 183.443 56.6933 183.15 56.8C182.937 58.24 182.83 61.0267 182.83 65.16C182.83 69.2933 182.977 72.4667 183.27 74.68C184.47 74.8133 185.577 75.0133 186.59 75.28L186.47 76.28C185.083 76.0933 183.483 76 181.67 76C179.883 76 178.31 76.1067 176.95 76.32L176.79 75.28C177.323 75.12 178.243 74.92 179.55 74.68C179.79 72.76 179.91 70.04 179.91 66.52V64.64C179.91 62.7733 179.763 60.16 179.47 56.8C179.177 56.6933 178.63 56.64 177.83 56.64C177.03 56.64 176.177 56.8267 175.27 57.2C175.003 58.0267 174.817 59.1333 174.71 60.52H173.67C173.67 58.3333 173.31 56.64 172.59 55.44L172.79 54.76C174.843 55.0267 177.723 55.16 181.43 55.16C185.137 55.16 188.123 55.0133 190.39 54.72L190.63 55.48C189.963 56.2267 189.51 56.96 189.27 57.68C189.03 58.3733 188.883 59.32 188.83 60.52H187.83C187.643 59.64 187.55 58.5733 187.55 57.32ZM209.592 74.6C209.938 72.04 210.112 68.3733 210.112 63.6C210.112 58.8 209.978 54.96 209.712 52.08C206.805 52.1333 204.938 52.56 204.112 53.36C203.925 53.7333 203.832 54.32 203.832 55.12C203.832 55.92 203.965 56.4667 204.232 56.76L204.192 57.04C203.525 57.44 202.858 58 202.192 58.72C201.872 58.6933 201.618 58.56 201.432 58.32C201.218 58.08 201.112 57.8 201.112 57.48C201.112 56.2533 201.818 54.8 203.232 53.12C204.618 51.44 205.952 50.28 207.232 49.64C209.498 49.8533 212.778 49.96 217.072 49.96C219.792 49.96 221.858 50.3733 223.272 51.2C224.685 52 225.392 53.5467 225.392 55.84C225.392 59.0933 223.725 61.36 220.392 62.64L225.992 74.48C227.352 74.6667 228.632 74.9467 229.832 75.32L229.672 76.32C228.098 76.1067 226.392 76 224.552 76C222.738 76 221.418 76.0533 220.592 76.16L220.432 75.6C220.885 75.1467 221.112 74.3867 221.112 73.32C221.112 71.1867 219.858 67.7867 217.352 63.12C216.685 62.9867 215.912 62.92 215.032 62.92L215.152 62.04H215.632C217.552 62.04 219.032 61.5733 220.072 60.64C221.112 59.68 221.632 58.3067 221.632 56.52C221.632 54.7067 221.165 53.4933 220.232 52.88C219.298 52.2667 217.832 51.96 215.832 51.96C214.898 51.96 214.125 52 213.512 52.08C213.298 54.4533 213.192 58.28 213.192 63.56C213.192 68.84 213.338 72.48 213.632 74.48C214.992 74.6667 216.272 74.9467 217.472 75.32L217.312 76.32C215.898 76.1067 214.032 76 211.712 76C209.418 76 207.285 76.1067 205.312 76.32L205.192 75.36C206.712 74.9867 208.178 74.7333 209.592 74.6ZM237.117 56.48C236.904 57.92 236.797 60.8667 236.797 65.32C236.797 69.7733 236.917 72.8933 237.157 74.68C238.357 74.8133 239.464 75.0133 240.477 75.28L240.357 76.28C238.971 76.0933 237.411 76 235.677 76C233.971 76 232.437 76.1067 231.077 76.32L230.917 75.28C231.664 75.04 232.504 74.84 233.437 74.68C233.677 72.76 233.797 70.04 233.797 66.52V64.64C233.797 61.12 233.664 58.4 233.397 56.48C232.464 56.32 231.624 56.12 230.877 55.88L231.037 54.84C232.397 55.0533 233.931 55.16 235.637 55.16C237.371 55.16 238.931 55.0667 240.317 54.88L240.437 55.88C239.424 56.1467 238.317 56.3467 237.117 56.48ZM252.221 73.68C254.061 73.68 255.794 72.8667 257.421 71.24L257.981 71.8C256.194 74.0667 254.048 75.6267 251.541 76.48C248.954 76.48 246.928 75.6667 245.461 74.04C243.994 72.3867 243.261 70.1733 243.261 67.4C243.261 64.6 244.128 61.9733 245.861 59.52C247.594 57.0667 249.808 55.4533 252.501 54.68C254.448 54.68 256.648 54.88 259.101 55.28L259.061 56.16C258.554 56.16 258.074 56.2533 257.621 56.44C257.114 57.64 256.781 59.0667 256.621 60.72H255.621C255.408 59.8133 255.301 58.88 255.301 57.92C254.288 57.4133 253.088 57.16 251.701 57.16C250.314 57.16 249.168 57.5333 248.261 58.28C247.221 60.1733 246.701 62.4667 246.701 65.16C246.701 69.3467 247.594 71.9733 249.381 73.04C250.154 73.4667 251.101 73.68 252.221 73.68ZM273.165 54.84C274.525 55.0533 276.058 55.16 277.765 55.16C279.498 55.16 281.058 55.0667 282.445 54.88L282.565 55.88C281.551 56.1467 280.445 56.3467 279.245 56.48C278.978 58.1333 278.845 60.8533 278.845 64.64V66.52C278.845 70.36 278.978 73.08 279.245 74.68C280.445 74.8133 281.551 75.0133 282.565 75.28L282.445 76.28C281.058 76.0933 279.498 76 277.765 76C276.058 76 274.525 76.1067 273.165 76.32L273.005 75.28C273.751 75.04 274.591 74.84 275.525 74.68C275.738 71.6667 275.858 68.6533 275.885 65.64C274.178 65.48 272.605 65.4 271.165 65.4C269.725 65.4 268.165 65.48 266.485 65.64C266.485 70.04 266.605 73.0533 266.845 74.68C268.045 74.8133 269.151 75.0133 270.165 75.28L270.045 76.28C268.658 76.0933 267.098 76 265.365 76C263.658 76 262.125 76.1067 260.765 76.32L260.605 75.28C261.351 75.04 262.191 74.84 263.125 74.68C263.365 72.76 263.485 70.04 263.485 66.52V64.64C263.485 61.12 263.351 58.4 263.085 56.48C262.151 56.32 261.311 56.12 260.565 55.88L260.725 54.84C262.085 55.0533 263.618 55.16 265.325 55.16C267.058 55.16 268.618 55.0667 270.005 54.88L270.125 55.88C269.111 56.1467 268.005 56.3467 266.805 56.48C266.591 58.0267 266.485 60.4133 266.485 63.64C267.978 63.8533 269.578 63.96 271.285 63.96C273.018 63.96 274.551 63.8667 275.885 63.68C275.858 61.4133 275.738 59.0133 275.525 56.48C274.591 56.32 273.751 56.12 273.005 55.88L273.165 54.84ZM288.771 66.12C288.851 68.4933 289.291 70.3467 290.091 71.68C290.891 73.0133 292.251 73.68 294.171 73.68C296.091 73.68 297.865 72.8667 299.491 71.24L300.051 71.8C298.265 74.0667 296.118 75.6267 293.611 76.48C291.025 76.48 288.998 75.6667 287.531 74.04C286.065 72.3867 285.331 70.1733 285.331 67.4C285.331 64.6 286.198 61.9733 287.931 59.52C289.665 57.0667 291.878 55.4533 294.571 54.68C296.518 54.68 298.718 54.88 301.171 55.28L301.131 56.16C300.625 56.16 300.145 56.2533 299.691 56.44C299.185 57.64 298.851 59.0667 298.691 60.72H297.691C297.478 59.8133 297.371 58.88 297.371 57.92C296.358 57.4133 295.158 57.16 293.771 57.16C292.385 57.16 291.238 57.5333 290.331 58.28C289.425 59.9333 288.905 61.9067 288.771 64.2C289.891 64.3867 291.091 64.48 292.371 64.48C294.585 64.48 295.918 64.0133 296.371 63.08L297.211 63.2C296.971 64 296.851 64.7867 296.851 65.56C296.851 66.3333 296.945 67.28 297.131 68.4L296.171 68.56C295.878 67.76 295.665 66.9333 295.531 66.08C294.465 65.9733 293.398 65.92 292.331 65.92C291.291 65.92 290.105 65.9867 288.771 66.12ZM303.181 55.24L312.381 54.96C314.781 54.96 316.581 55.32 317.781 56.04C318.981 56.7333 319.581 58.0133 319.581 59.88C319.581 61.16 319.181 62.2933 318.381 63.28C317.608 64.2667 316.581 65 315.301 65.48L319.781 74.64C320.688 74.8 321.541 74.9867 322.341 75.2L322.181 76.28C321.061 76.0933 319.794 76 318.381 76C316.994 76 315.901 76.0667 315.101 76.2L314.941 75.56C315.288 75.2133 315.461 74.64 315.461 73.84C315.461 72.2133 314.528 69.6 312.661 66C312.101 65.8933 311.448 65.84 310.701 65.84L310.781 64.68H311.181C314.328 64.68 315.901 63.24 315.901 60.36C315.901 57.6933 314.554 56.36 311.861 56.36C310.954 56.36 310.141 56.5067 309.421 56.8C309.234 58.56 309.141 61.5733 309.141 65.84C309.141 70.1067 309.261 73.0533 309.501 74.68C310.674 74.8133 311.768 75.0133 312.781 75.28L312.661 76.28C311.274 76.0933 309.714 76 307.981 76C306.274 76 304.741 76.1067 303.381 76.32L303.221 75.28C303.968 75.04 304.808 74.84 305.741 74.68C306.008 72.68 306.141 69.5733 306.141 65.36C306.141 61.12 306.021 58.1867 305.781 56.56C304.741 56.2133 303.874 56.04 303.181 56.04V55.24Z" fill="#FAF9F6"/>
<path d="M40.9975 385V382.6H43.7095V370.6H40.9975V368.2H49.0135V370.6H46.3015V382.6H49.0135V385H40.9975ZM53.8265 385V370.984C53.8265 370.264 53.9865 369.624 54.3065 369.064C54.6265 368.504 55.0665 368.064 55.6265 367.744C56.1865 367.424 56.8345 367.264 57.5705 367.264C58.0825 367.264 58.5625 367.36 59.0105 367.552C59.4585 367.744 59.8185 368 60.0905 368.32L59.2505 370.216C59.0425 370.024 58.8105 369.872 58.5545 369.76C58.3145 369.632 58.0825 369.568 57.8585 369.568C57.5225 369.568 57.2345 369.624 56.9945 369.736C56.7705 369.832 56.6025 369.992 56.4905 370.216C56.3785 370.424 56.3225 370.68 56.3225 370.984V385H55.0745C54.8665 385 54.6585 385 54.4505 385C54.2425 385 54.0345 385 53.8265 385ZM51.8105 374.896V372.616H59.2985V374.896H51.8105ZM70.7189 390.52L73.2629 384.64L73.2869 386.608L66.9989 372.4H69.8789L73.8149 381.664C73.8949 381.824 73.9909 382.072 74.1029 382.408C74.2149 382.728 74.3109 383.048 74.3909 383.368L73.7669 383.512C73.8949 383.176 74.0149 382.84 74.1269 382.504C74.2549 382.168 74.3749 381.832 74.4869 381.496L77.7749 372.4H80.7029L75.5189 385L73.3829 390.52H70.7189ZM87.9818 385.24C86.7498 385.24 85.6458 384.96 84.6698 384.4C83.7098 383.824 82.9498 383.048 82.3898 382.072C81.8298 381.08 81.5498 379.952 81.5498 378.688C81.5498 377.424 81.8298 376.304 82.3898 375.328C82.9498 374.336 83.7098 373.56 84.6698 373C85.6458 372.424 86.7498 372.136 87.9818 372.136C89.1978 372.136 90.2858 372.424 91.2458 373C92.2218 373.56 92.9898 374.336 93.5498 375.328C94.1098 376.304 94.3898 377.424 94.3898 378.688C94.3898 379.952 94.1098 381.08 93.5498 382.072C92.9898 383.048 92.2218 383.824 91.2458 384.4C90.2858 384.96 89.1978 385.24 87.9818 385.24ZM87.9818 382.984C88.7338 382.984 89.4058 382.8 89.9978 382.432C90.5898 382.048 91.0538 381.536 91.3898 380.896C91.7258 380.24 91.8858 379.504 91.8698 378.688C91.8858 377.856 91.7258 377.12 91.3898 376.48C91.0538 375.824 90.5898 375.312 89.9978 374.944C89.4058 374.576 88.7338 374.392 87.9818 374.392C87.2298 374.392 86.5498 374.584 85.9418 374.968C85.3498 375.336 84.8858 375.848 84.5498 376.504C84.2138 377.144 84.0538 377.872 84.0698 378.688C84.0538 379.504 84.2138 380.24 84.5498 380.896C84.8858 381.536 85.3498 382.048 85.9418 382.432C86.5498 382.8 87.2298 382.984 87.9818 382.984ZM101.499 385.24C100.603 385.24 99.8195 385.032 99.1475 384.616C98.4915 384.2 97.9795 383.616 97.6115 382.864C97.2595 382.112 97.0835 381.216 97.0835 380.176V372.4H99.5555V379.504C99.5555 380.24 99.6675 380.88 99.8915 381.424C100.131 381.952 100.467 382.36 100.899 382.648C101.347 382.936 101.883 383.08 102.507 383.08C102.971 383.08 103.395 383.008 103.779 382.864C104.163 382.704 104.491 382.488 104.763 382.216C105.051 381.944 105.275 381.616 105.435 381.232C105.595 380.848 105.675 380.432 105.675 379.984V372.4H108.147V385H105.675V382.36L106.107 382.072C105.915 382.664 105.587 383.2 105.123 383.68C104.675 384.16 104.139 384.544 103.515 384.832C102.891 385.104 102.219 385.24 101.499 385.24ZM123.693 385.24C122.525 385.24 121.477 384.952 120.549 384.376C119.637 383.8 118.909 383.016 118.365 382.024C117.837 381.032 117.573 379.92 117.573 378.688C117.573 377.456 117.837 376.344 118.365 375.352C118.909 374.36 119.637 373.576 120.549 373C121.477 372.424 122.525 372.136 123.693 372.136C124.813 372.136 125.829 372.368 126.741 372.832C127.669 373.28 128.373 373.896 128.853 374.68L127.485 376.36C127.229 375.992 126.901 375.656 126.501 375.352C126.101 375.048 125.677 374.808 125.229 374.632C124.781 374.456 124.349 374.368 123.933 374.368C123.165 374.368 122.477 374.56 121.869 374.944C121.277 375.312 120.805 375.824 120.453 376.48C120.101 377.136 119.925 377.872 119.925 378.688C119.925 379.504 120.109 380.24 120.477 380.896C120.845 381.536 121.333 382.048 121.941 382.432C122.549 382.816 123.221 383.008 123.957 383.008C124.389 383.008 124.805 382.936 125.205 382.792C125.621 382.648 126.021 382.432 126.405 382.144C126.789 381.856 127.149 381.504 127.485 381.088L128.853 382.768C128.341 383.488 127.605 384.08 126.645 384.544C125.701 385.008 124.717 385.24 123.693 385.24ZM135.601 385.24C134.705 385.24 133.921 385.032 133.249 384.616C132.593 384.2 132.081 383.616 131.713 382.864C131.361 382.112 131.185 381.216 131.185 380.176V372.4H133.657V379.504C133.657 380.24 133.769 380.88 133.993 381.424C134.233 381.952 134.569 382.36 135.001 382.648C135.449 382.936 135.985 383.08 136.609 383.08C137.073 383.08 137.497 383.008 137.881 382.864C138.265 382.704 138.593 382.488 138.865 382.216C139.153 381.944 139.377 381.616 139.537 381.232C139.697 380.848 139.777 380.432 139.777 379.984V372.4H142.249V385H139.777V382.36L140.209 382.072C140.017 382.664 139.689 383.2 139.225 383.68C138.777 384.16 138.241 384.544 137.617 384.832C136.993 385.104 136.321 385.24 135.601 385.24ZM145.716 385V372.4H148.212V376.36L147.972 375.4C148.148 374.792 148.444 374.24 148.86 373.744C149.292 373.248 149.78 372.856 150.324 372.568C150.884 372.28 151.46 372.136 152.052 372.136C152.324 372.136 152.58 372.16 152.82 372.208C153.076 372.256 153.276 372.312 153.42 372.376L152.772 375.064C152.58 374.984 152.364 374.92 152.124 374.872C151.9 374.808 151.676 374.776 151.452 374.776C151.02 374.776 150.604 374.864 150.204 375.04C149.82 375.2 149.476 375.432 149.172 375.736C148.884 376.024 148.652 376.368 148.476 376.768C148.3 377.152 148.212 377.576 148.212 378.04V385H145.716ZM155.396 385V372.4H157.892V376.36L157.652 375.4C157.828 374.792 158.124 374.24 158.54 373.744C158.972 373.248 159.46 372.856 160.004 372.568C160.564 372.28 161.14 372.136 161.732 372.136C162.004 372.136 162.26 372.16 162.5 372.208C162.756 372.256 162.956 372.312 163.1 372.376L162.452 375.064C162.26 374.984 162.044 374.92 161.804 374.872C161.58 374.808 161.356 374.776 161.132 374.776C160.7 374.776 160.284 374.864 159.884 375.04C159.5 375.2 159.156 375.432 158.852 375.736C158.564 376.024 158.332 376.368 158.156 376.768C157.98 377.152 157.892 377.576 157.892 378.04V385H155.396ZM170.417 385.24C169.121 385.24 167.969 384.968 166.961 384.424C165.969 383.864 165.185 383.104 164.609 382.144C164.049 381.184 163.769 380.08 163.769 378.832C163.769 377.84 163.929 376.936 164.249 376.12C164.569 375.304 165.009 374.6 165.569 374.008C166.145 373.4 166.825 372.936 167.609 372.616C168.409 372.28 169.273 372.112 170.201 372.112C171.017 372.112 171.777 372.272 172.481 372.592C173.185 372.896 173.793 373.32 174.305 373.864C174.833 374.408 175.233 375.056 175.505 375.808C175.793 376.544 175.929 377.352 175.913 378.232L175.889 379.288H165.593L165.041 377.32H173.753L173.393 377.728V377.152C173.345 376.624 173.169 376.152 172.865 375.736C172.561 375.32 172.177 374.992 171.713 374.752C171.249 374.512 170.745 374.392 170.201 374.392C169.337 374.392 168.609 374.56 168.017 374.896C167.425 375.216 166.977 375.696 166.673 376.336C166.369 376.96 166.217 377.736 166.217 378.664C166.217 379.544 166.401 380.312 166.769 380.968C167.137 381.608 167.657 382.104 168.329 382.456C169.001 382.808 169.777 382.984 170.657 382.984C171.281 382.984 171.857 382.88 172.385 382.672C172.929 382.464 173.513 382.088 174.137 381.544L175.385 383.296C175.001 383.68 174.529 384.016 173.969 384.304C173.425 384.592 172.841 384.824 172.217 385C171.609 385.16 171.009 385.24 170.417 385.24ZM178.599 385V372.4H181.071V374.992L180.639 375.28C180.799 374.72 181.111 374.208 181.575 373.744C182.039 373.264 182.591 372.88 183.231 372.592C183.871 372.288 184.527 372.136 185.199 372.136C186.159 372.136 186.959 372.328 187.599 372.712C188.239 373.08 188.719 373.648 189.039 374.416C189.359 375.184 189.519 376.152 189.519 377.32V385H187.047V377.488C187.047 376.768 186.951 376.176 186.759 375.712C186.567 375.232 186.271 374.888 185.871 374.68C185.471 374.456 184.975 374.36 184.383 374.392C183.903 374.392 183.463 374.472 183.063 374.632C182.663 374.776 182.311 374.984 182.007 375.256C181.719 375.528 181.487 375.848 181.311 376.216C181.151 376.568 181.071 376.952 181.071 377.368V385H179.847C179.639 385 179.431 385 179.223 385C179.015 385 178.807 385 178.599 385ZM194.433 385V369.184H196.905V385H194.433ZM191.817 374.8V372.4H199.833V374.8H191.817ZM202.131 385V367.24H204.603V385H202.131ZM209.867 390.52L212.411 384.64L212.435 386.608L206.147 372.4H209.027L212.963 381.664C213.043 381.824 213.139 382.072 213.251 382.408C213.363 382.728 213.459 383.048 213.539 383.368L212.915 383.512C213.043 383.176 213.163 382.84 213.275 382.504C213.403 382.168 213.523 381.832 213.635 381.496L216.923 372.4H219.851L214.667 385L212.531 390.52H209.867ZM228.427 385V367.24H230.899V374.992L230.467 375.28C230.627 374.72 230.939 374.208 231.403 373.744C231.867 373.264 232.419 372.88 233.059 372.592C233.699 372.288 234.355 372.136 235.027 372.136C235.987 372.136 236.787 372.328 237.427 372.712C238.067 373.08 238.547 373.648 238.867 374.416C239.187 375.184 239.347 376.152 239.347 377.32V385H236.875V377.488C236.875 376.768 236.779 376.176 236.587 375.712C236.395 375.232 236.099 374.888 235.699 374.68C235.299 374.456 234.803 374.36 234.211 374.392C233.731 374.392 233.291 374.472 232.891 374.632C232.491 374.776 232.139 374.984 231.835 375.256C231.547 375.528 231.315 375.848 231.139 376.216C230.979 376.568 230.899 376.952 230.899 377.368V385H229.675C229.467 385 229.259 385 229.051 385C228.843 385 228.635 385 228.427 385ZM247.549 385.24C246.509 385.24 245.557 384.952 244.693 384.376C243.845 383.8 243.165 383.016 242.653 382.024C242.141 381.032 241.885 379.912 241.885 378.664C241.885 377.4 242.141 376.28 242.653 375.304C243.181 374.312 243.885 373.536 244.765 372.976C245.661 372.416 246.661 372.136 247.765 372.136C248.421 372.136 249.021 372.232 249.565 372.424C250.109 372.616 250.581 372.888 250.981 373.24C251.397 373.576 251.733 373.968 251.989 374.416C252.261 374.864 252.429 375.344 252.493 375.856L251.941 375.664V372.4H254.437V385H251.941V382L252.517 381.832C252.421 382.264 252.221 382.688 251.917 383.104C251.629 383.504 251.253 383.864 250.789 384.184C250.341 384.504 249.837 384.76 249.277 384.952C248.733 385.144 248.157 385.24 247.549 385.24ZM248.197 382.96C248.949 382.96 249.613 382.776 250.189 382.408C250.765 382.04 251.213 381.536 251.533 380.896C251.869 380.24 252.037 379.496 252.037 378.664C252.037 377.848 251.869 377.12 251.533 376.48C251.213 375.84 250.765 375.336 250.189 374.968C249.613 374.6 248.949 374.416 248.197 374.416C247.461 374.416 246.805 374.6 246.229 374.968C245.669 375.336 245.221 375.84 244.885 376.48C244.565 377.12 244.405 377.848 244.405 378.664C244.405 379.496 244.565 380.24 244.885 380.896C245.221 381.536 245.669 382.04 246.229 382.408C246.805 382.776 247.461 382.96 248.197 382.96ZM261.735 385L256.407 372.4H259.071L262.911 381.832L262.455 382.048L266.559 372.4H269.103L263.511 385H261.735ZM276.893 385.24C275.597 385.24 274.445 384.968 273.437 384.424C272.445 383.864 271.661 383.104 271.085 382.144C270.525 381.184 270.245 380.08 270.245 378.832C270.245 377.84 270.405 376.936 270.725 376.12C271.045 375.304 271.485 374.6 272.045 374.008C272.621 373.4 273.301 372.936 274.085 372.616C274.885 372.28 275.749 372.112 276.677 372.112C277.493 372.112 278.253 372.272 278.957 372.592C279.661 372.896 280.269 373.32 280.781 373.864C281.309 374.408 281.709 375.056 281.981 375.808C282.269 376.544 282.405 377.352 282.389 378.232L282.365 379.288H272.069L271.517 377.32H280.229L279.869 377.728V377.152C279.821 376.624 279.645 376.152 279.341 375.736C279.037 375.32 278.653 374.992 278.189 374.752C277.725 374.512 277.221 374.392 276.677 374.392C275.813 374.392 275.085 374.56 274.493 374.896C273.901 375.216 273.453 375.696 273.149 376.336C272.845 376.96 272.693 377.736 272.693 378.664C272.693 379.544 272.877 380.312 273.245 380.968C273.613 381.608 274.133 382.104 274.805 382.456C275.477 382.808 276.253 382.984 277.133 382.984C277.757 382.984 278.333 382.88 278.861 382.672C279.405 382.464 279.989 382.088 280.613 381.544L281.861 383.296C281.477 383.68 281.005 384.016 280.445 384.304C279.901 384.592 279.317 384.824 278.693 385C278.085 385.16 277.485 385.24 276.893 385.24ZM295.282 383.824V370.192L296.17 370.864L292.858 372.616L292.162 370.36L296.65 367.96H297.898V383.824H295.282ZM292.618 385V382.504H300.634V385H292.618ZM309.346 385.24C308.066 385.24 306.962 384.888 306.034 384.184C305.122 383.48 304.418 382.488 303.922 381.208C303.426 379.912 303.178 378.376 303.178 376.6C303.178 374.824 303.426 373.296 303.922 372.016C304.418 370.72 305.122 369.72 306.034 369.016C306.962 368.312 308.066 367.96 309.346 367.96C310.626 367.96 311.73 368.312 312.658 369.016C313.586 369.72 314.298 370.72 314.794 372.016C315.29 373.296 315.538 374.824 315.538 376.6C315.538 378.376 315.29 379.912 314.794 381.208C314.298 382.488 313.586 383.48 312.658 384.184C311.73 384.888 310.626 385.24 309.346 385.24ZM309.346 382.888C310.514 382.888 311.418 382.344 312.058 381.256C312.698 380.152 313.018 378.6 313.018 376.6C313.018 374.6 312.698 373.056 312.058 371.968C311.418 370.864 310.514 370.312 309.346 370.312C308.178 370.312 307.274 370.864 306.634 371.968C305.994 373.056 305.674 374.6 305.674 376.6C305.674 378.6 305.994 380.152 306.634 381.256C307.274 382.344 308.178 382.888 309.346 382.888ZM330.771 385.24C329.539 385.24 328.435 384.96 327.459 384.4C326.499 383.824 325.739 383.048 325.179 382.072C324.619 381.08 324.339 379.952 324.339 378.688C324.339 377.424 324.619 376.304 325.179 375.328C325.739 374.336 326.499 373.56 327.459 373C328.435 372.424 329.539 372.136 330.771 372.136C331.987 372.136 333.075 372.424 334.035 373C335.011 373.56 335.779 374.336 336.339 375.328C336.899 376.304 337.179 377.424 337.179 378.688C337.179 379.952 336.899 381.08 336.339 382.072C335.779 383.048 335.011 383.824 334.035 384.4C333.075 384.96 331.987 385.24 330.771 385.24ZM330.771 382.984C331.523 382.984 332.195 382.8 332.787 382.432C333.379 382.048 333.843 381.536 334.179 380.896C334.515 380.24 334.675 379.504 334.659 378.688C334.675 377.856 334.515 377.12 334.179 376.48C333.843 375.824 333.379 375.312 332.787 374.944C332.195 374.576 331.523 374.392 330.771 374.392C330.019 374.392 329.339 374.584 328.731 374.968C328.139 375.336 327.675 375.848 327.339 376.504C327.003 377.144 326.843 377.872 326.859 378.688C326.843 379.504 327.003 380.24 327.339 380.896C327.675 381.536 328.139 382.048 328.731 382.432C329.339 382.8 330.019 382.984 330.771 382.984ZM339.873 385V372.4H342.369V376.36L342.129 375.4C342.305 374.792 342.601 374.24 343.017 373.744C343.449 373.248 343.937 372.856 344.481 372.568C345.041 372.28 345.617 372.136 346.209 372.136C346.481 372.136 346.737 372.16 346.977 372.208C347.233 372.256 347.433 372.312 347.577 372.376L346.929 375.064C346.737 374.984 346.521 374.92 346.281 374.872C346.057 374.808 345.833 374.776 345.609 374.776C345.177 374.776 344.761 374.864 344.361 375.04C343.977 375.2 343.633 375.432 343.329 375.736C343.041 376.024 342.809 376.368 342.633 376.768C342.457 377.152 342.369 377.576 342.369 378.04V385H339.873ZM40.9495 420V407.4H43.4455V410.088L42.9895 410.376C43.1175 409.96 43.3175 409.56 43.5895 409.176C43.8775 408.792 44.2215 408.456 44.6215 408.168C45.0375 407.864 45.4775 407.624 45.9415 407.448C46.4215 407.272 46.9095 407.184 47.4055 407.184C48.1255 407.184 48.7575 407.304 49.3015 407.544C49.8455 407.784 50.2935 408.144 50.6455 408.624C50.9975 409.104 51.2535 409.704 51.4135 410.424L51.0295 410.328L51.1975 409.92C51.3735 409.552 51.6135 409.208 51.9175 408.888C52.2375 408.552 52.5975 408.256 52.9975 408C53.3975 407.744 53.8215 407.544 54.2695 407.4C54.7175 407.256 55.1575 407.184 55.5895 407.184C56.5335 407.184 57.3095 407.376 57.9175 407.76C58.5415 408.144 59.0055 408.728 59.3095 409.512C59.6295 410.296 59.7895 411.272 59.7895 412.44V420H57.2935V412.584C57.2935 411.864 57.1975 411.28 57.0055 410.832C56.8295 410.368 56.5575 410.024 56.1895 409.8C55.8215 409.576 55.3495 409.464 54.7735 409.464C54.3255 409.464 53.9015 409.544 53.5015 409.704C53.1175 409.848 52.7815 410.056 52.4935 410.328C52.2055 410.6 51.9815 410.92 51.8215 411.288C51.6615 411.64 51.5815 412.032 51.5815 412.464V420H49.0855V412.536C49.0855 411.88 48.9895 411.328 48.7975 410.88C48.6055 410.416 48.3255 410.064 47.9575 409.824C47.5895 409.584 47.1415 409.464 46.6135 409.464C46.1655 409.464 45.7495 409.544 45.3655 409.704C44.9815 409.848 44.6455 410.056 44.3575 410.328C44.0695 410.584 43.8455 410.896 43.6855 411.264C43.5255 411.616 43.4455 412 43.4455 412.416V420H40.9495ZM68.7631 420.24C67.5311 420.24 66.4271 419.96 65.4511 419.4C64.4911 418.824 63.7311 418.048 63.1711 417.072C62.6111 416.08 62.3311 414.952 62.3311 413.688C62.3311 412.424 62.6111 411.304 63.1711 410.328C63.7311 409.336 64.4911 408.56 65.4511 408C66.4271 407.424 67.5311 407.136 68.7631 407.136C69.9791 407.136 71.0671 407.424 72.0271 408C73.0031 408.56 73.7711 409.336 74.3311 410.328C74.8911 411.304 75.1711 412.424 75.1711 413.688C75.1711 414.952 74.8911 416.08 74.3311 417.072C73.7711 418.048 73.0031 418.824 72.0271 419.4C71.0671 419.96 69.9791 420.24 68.7631 420.24ZM68.7631 417.984C69.5151 417.984 70.1871 417.8 70.7791 417.432C71.3711 417.048 71.8351 416.536 72.1711 415.896C72.5071 415.24 72.6671 414.504 72.6511 413.688C72.6671 412.856 72.5071 412.12 72.1711 411.48C71.8351 410.824 71.3711 410.312 70.7791 409.944C70.1871 409.576 69.5151 409.392 68.7631 409.392C68.0111 409.392 67.3311 409.584 66.7231 409.968C66.1311 410.336 65.6671 410.848 65.3311 411.504C64.9951 412.144 64.8351 412.872 64.8511 413.688C64.8351 414.504 64.9951 415.24 65.3311 415.896C65.6671 416.536 66.1311 417.048 66.7231 417.432C67.3311 417.8 68.0111 417.984 68.7631 417.984ZM77.8647 420V407.4H80.3607V411.36L80.1207 410.4C80.2967 409.792 80.5927 409.24 81.0087 408.744C81.4407 408.248 81.9287 407.856 82.4727 407.568C83.0327 407.28 83.6087 407.136 84.2007 407.136C84.4727 407.136 84.7287 407.16 84.9687 407.208C85.2247 407.256 85.4247 407.312 85.5687 407.376L84.9207 410.064C84.7287 409.984 84.5127 409.92 84.2727 409.872C84.0487 409.808 83.8247 409.776 83.6007 409.776C83.1687 409.776 82.7527 409.864 82.3527 410.04C81.9687 410.2 81.6247 410.432 81.3207 410.736C81.0327 411.024 80.8007 411.368 80.6247 411.768C80.4487 412.152 80.3607 412.576 80.3607 413.04V420H77.8647ZM92.8853 420.24C91.5893 420.24 90.4373 419.968 89.4293 419.424C88.4373 418.864 87.6533 418.104 87.0773 417.144C86.5173 416.184 86.2373 415.08 86.2373 413.832C86.2373 412.84 86.3973 411.936 86.7173 411.12C87.0373 410.304 87.4773 409.6 88.0373 409.008C88.6133 408.4 89.2933 407.936 90.0773 407.616C90.8773 407.28 91.7413 407.112 92.6693 407.112C93.4853 407.112 94.2453 407.272 94.9493 407.592C95.6533 407.896 96.2613 408.32 96.7733 408.864C97.3013 409.408 97.7013 410.056 97.9733 410.808C98.2613 411.544 98.3973 412.352 98.3813 413.232L98.3573 414.288H88.0613L87.5093 412.32H96.2213L95.8613 412.728V412.152C95.8133 411.624 95.6373 411.152 95.3333 410.736C95.0293 410.32 94.6453 409.992 94.1813 409.752C93.7173 409.512 93.2133 409.392 92.6693 409.392C91.8053 409.392 91.0773 409.56 90.4853 409.896C89.8933 410.216 89.4453 410.696 89.1413 411.336C88.8373 411.96 88.6853 412.736 88.6853 413.664C88.6853 414.544 88.8693 415.312 89.2373 415.968C89.6053 416.608 90.1253 417.104 90.7973 417.456C91.4693 417.808 92.2453 417.984 93.1253 417.984C93.7493 417.984 94.3253 417.88 94.8533 417.672C95.3973 417.464 95.9813 417.088 96.6053 416.544L97.8533 418.296C97.4693 418.68 96.9973 419.016 96.4373 419.304C95.8933 419.592 95.3093 419.824 94.6853 420C94.0773 420.16 93.4773 420.24 92.8853 420.24ZM113.434 425.52C112.538 425.52 111.642 425.376 110.746 425.088C109.866 424.816 109.154 424.456 108.61 424.008L109.522 422.088C109.842 422.328 110.218 422.536 110.65 422.712C111.082 422.904 111.538 423.048 112.018 423.144C112.498 423.256 112.97 423.312 113.434 423.312C114.314 423.312 115.05 423.168 115.642 422.88C116.234 422.592 116.682 422.168 116.986 421.608C117.29 421.048 117.442 420.352 117.442 419.52V417.096L117.706 417.264C117.626 417.76 117.362 418.24 116.914 418.704C116.482 419.152 115.938 419.52 115.282 419.808C114.626 420.096 113.954 420.24 113.266 420.24C112.066 420.24 110.994 419.96 110.05 419.4C109.122 418.824 108.386 418.048 107.842 417.072C107.298 416.08 107.026 414.952 107.026 413.688C107.026 412.424 107.29 411.304 107.818 410.328C108.362 409.336 109.098 408.56 110.026 408C110.97 407.424 112.026 407.136 113.194 407.136C113.674 407.136 114.138 407.2 114.586 407.328C115.034 407.44 115.45 407.608 115.834 407.832C116.218 408.04 116.562 408.272 116.866 408.528C117.17 408.784 117.418 409.056 117.61 409.344C117.802 409.632 117.922 409.904 117.97 410.16L117.442 410.352V407.4H119.914V419.232C119.914 420.24 119.762 421.128 119.458 421.896C119.17 422.68 118.746 423.336 118.186 423.864C117.626 424.408 116.946 424.816 116.146 425.088C115.346 425.376 114.442 425.52 113.434 425.52ZM113.53 417.96C114.314 417.96 115.01 417.776 115.618 417.408C116.226 417.04 116.698 416.536 117.034 415.896C117.37 415.256 117.538 414.52 117.538 413.688C117.538 412.856 117.362 412.12 117.01 411.48C116.674 410.824 116.202 410.312 115.594 409.944C115.002 409.576 114.314 409.392 113.53 409.392C112.762 409.392 112.074 409.584 111.466 409.968C110.874 410.336 110.402 410.848 110.05 411.504C109.714 412.144 109.546 412.872 109.546 413.688C109.546 414.504 109.714 415.24 110.05 415.896C110.402 416.536 110.874 417.04 111.466 417.408C112.074 417.776 112.762 417.96 113.53 417.96ZM129.26 420.24C127.964 420.24 126.812 419.968 125.804 419.424C124.812 418.864 124.028 418.104 123.452 417.144C122.892 416.184 122.612 415.08 122.612 413.832C122.612 412.84 122.772 411.936 123.092 411.12C123.412 410.304 123.852 409.6 124.412 409.008C124.988 408.4 125.668 407.936 126.452 407.616C127.252 407.28 128.116 407.112 129.044 407.112C129.86 407.112 130.62 407.272 131.324 407.592C132.028 407.896 132.636 408.32 133.148 408.864C133.676 409.408 134.076 410.056 134.348 410.808C134.636 411.544 134.772 412.352 134.756 413.232L134.732 414.288H124.436L123.884 412.32H132.596L132.236 412.728V412.152C132.188 411.624 132.012 411.152 131.708 410.736C131.404 410.32 131.02 409.992 130.556 409.752C130.092 409.512 129.588 409.392 129.044 409.392C128.18 409.392 127.452 409.56 126.86 409.896C126.268 410.216 125.82 410.696 125.516 411.336C125.212 411.96 125.06 412.736 125.06 413.664C125.06 414.544 125.244 415.312 125.612 415.968C125.98 416.608 126.5 417.104 127.172 417.456C127.844 417.808 128.62 417.984 129.5 417.984C130.124 417.984 130.7 417.88 131.228 417.672C131.772 417.464 132.356 417.088 132.98 416.544L134.228 418.296C133.844 418.68 133.372 419.016 132.812 419.304C132.268 419.592 131.684 419.824 131.06 420C130.452 420.16 129.852 420.24 129.26 420.24ZM137.395 420V407.4H139.891V410.088L139.435 410.376C139.563 409.96 139.763 409.56 140.035 409.176C140.323 408.792 140.667 408.456 141.067 408.168C141.483 407.864 141.923 407.624 142.387 407.448C142.867 407.272 143.355 407.184 143.851 407.184C144.571 407.184 145.203 407.304 145.747 407.544C146.291 407.784 146.739 408.144 147.091 408.624C147.443 409.104 147.699 409.704 147.859 410.424L147.475 410.328L147.643 409.92C147.819 409.552 148.059 409.208 148.363 408.888C148.683 408.552 149.043 408.256 149.443 408C149.843 407.744 150.267 407.544 150.715 407.4C151.163 407.256 151.603 407.184 152.035 407.184C152.979 407.184 153.755 407.376 154.363 407.76C154.987 408.144 155.451 408.728 155.755 409.512C156.075 410.296 156.235 411.272 156.235 412.44V420H153.739V412.584C153.739 411.864 153.643 411.28 153.451 410.832C153.275 410.368 153.003 410.024 152.635 409.8C152.267 409.576 151.795 409.464 151.219 409.464C150.771 409.464 150.347 409.544 149.947 409.704C149.563 409.848 149.227 410.056 148.939 410.328C148.651 410.6 148.427 410.92 148.267 411.288C148.107 411.64 148.027 412.032 148.027 412.464V420H145.531V412.536C145.531 411.88 145.435 411.328 145.243 410.88C145.051 410.416 144.771 410.064 144.403 409.824C144.035 409.584 143.587 409.464 143.059 409.464C142.611 409.464 142.195 409.544 141.811 409.704C141.427 409.848 141.091 410.056 140.803 410.328C140.515 410.584 140.291 410.896 140.131 411.264C139.971 411.616 139.891 412 139.891 412.416V420H137.395ZM163.744 420.24C162.688 420.24 161.736 420.056 160.888 419.688C160.04 419.32 159.336 418.776 158.776 418.056L160.456 416.616C160.936 417.176 161.456 417.584 162.016 417.84C162.592 418.08 163.24 418.2 163.96 418.2C164.248 418.2 164.512 418.168 164.752 418.104C165.008 418.024 165.224 417.912 165.4 417.768C165.592 417.624 165.736 417.456 165.832 417.264C165.928 417.056 165.976 416.832 165.976 416.592C165.976 416.176 165.824 415.84 165.52 415.584C165.36 415.472 165.104 415.352 164.752 415.224C164.416 415.08 163.976 414.936 163.432 414.792C162.504 414.552 161.744 414.28 161.152 413.976C160.56 413.672 160.104 413.328 159.784 412.944C159.544 412.64 159.368 412.312 159.256 411.96C159.144 411.592 159.088 411.192 159.088 410.76C159.088 410.232 159.2 409.752 159.424 409.32C159.664 408.872 159.984 408.488 160.384 408.168C160.8 407.832 161.28 407.576 161.824 407.4C162.384 407.224 162.976 407.136 163.6 407.136C164.192 407.136 164.776 407.216 165.352 407.376C165.944 407.536 166.488 407.768 166.984 408.072C167.48 408.376 167.896 408.736 168.232 409.152L166.816 410.712C166.512 410.408 166.176 410.144 165.808 409.92C165.456 409.68 165.096 409.496 164.728 409.368C164.36 409.24 164.024 409.176 163.72 409.176C163.384 409.176 163.08 409.208 162.808 409.272C162.536 409.336 162.304 409.432 162.112 409.56C161.936 409.688 161.8 409.848 161.704 410.04C161.608 410.232 161.56 410.448 161.56 410.688C161.576 410.896 161.624 411.096 161.704 411.288C161.8 411.464 161.928 411.616 162.088 411.744C162.264 411.872 162.528 412.008 162.88 412.152C163.232 412.296 163.68 412.432 164.224 412.56C165.024 412.768 165.68 413 166.192 413.256C166.72 413.496 167.136 413.776 167.44 414.096C167.76 414.4 167.984 414.752 168.112 415.152C168.24 415.552 168.304 416 168.304 416.496C168.304 417.216 168.096 417.864 167.68 418.44C167.28 419 166.736 419.44 166.048 419.76C165.36 420.08 164.592 420.24 163.744 420.24ZM171.413 424.296L170.501 423.192C171.061 422.872 171.517 422.504 171.869 422.088C172.221 421.672 172.397 421.312 172.397 421.008C172.397 420.848 172.357 420.688 172.277 420.528C172.197 420.384 172.029 420.176 171.773 419.904C171.453 419.6 171.245 419.344 171.149 419.136C171.053 418.928 171.005 418.704 171.005 418.464C171.005 418.08 171.141 417.776 171.413 417.552C171.685 417.312 172.037 417.192 172.469 417.192C172.869 417.192 173.229 417.312 173.549 417.552C173.885 417.776 174.141 418.096 174.317 418.512C174.509 418.912 174.605 419.376 174.605 419.904C174.605 420.384 174.525 420.848 174.365 421.296C174.205 421.744 173.981 422.16 173.693 422.544C173.405 422.928 173.069 423.272 172.685 423.576C172.301 423.88 171.877 424.12 171.413 424.296ZM183.506 414.36V412.2H195.53V414.36H183.506ZM188.234 418.992V407.4H190.754V418.992H188.234ZM201.813 418.824V405.192L202.701 405.864L199.389 407.616L198.693 405.36L203.181 402.96H204.429V418.824H201.813ZM199.149 420V417.504H207.165V420H199.149ZM215.877 420.24C214.597 420.24 213.493 419.888 212.565 419.184C211.653 418.48 210.949 417.488 210.453 416.208C209.957 414.912 209.709 413.376 209.709 411.6C209.709 409.824 209.957 408.296 210.453 407.016C210.949 405.72 211.653 404.72 212.565 404.016C213.493 403.312 214.597 402.96 215.877 402.96C217.157 402.96 218.261 403.312 219.189 404.016C220.117 404.72 220.829 405.72 221.325 407.016C221.821 408.296 222.069 409.824 222.069 411.6C222.069 413.376 221.821 414.912 221.325 416.208C220.829 417.488 220.117 418.48 219.189 419.184C218.261 419.888 217.157 420.24 215.877 420.24ZM215.877 417.888C217.045 417.888 217.949 417.344 218.589 416.256C219.229 415.152 219.549 413.6 219.549 411.6C219.549 409.6 219.229 408.056 218.589 406.968C217.949 405.864 217.045 405.312 215.877 405.312C214.709 405.312 213.805 405.864 213.165 406.968C212.525 408.056 212.205 409.6 212.205 411.6C212.205 413.6 212.525 415.152 213.165 416.256C213.805 417.344 214.709 417.888 215.877 417.888ZM237.278 425.52C236.382 425.52 235.486 425.376 234.59 425.088C233.71 424.816 232.998 424.456 232.454 424.008L233.366 422.088C233.686 422.328 234.062 422.536 234.494 422.712C234.926 422.904 235.382 423.048 235.862 423.144C236.342 423.256 236.814 423.312 237.278 423.312C238.158 423.312 238.894 423.168 239.486 422.88C240.078 422.592 240.526 422.168 240.83 421.608C241.134 421.048 241.286 420.352 241.286 419.52V417.096L241.55 417.264C241.47 417.76 241.206 418.24 240.758 418.704C240.326 419.152 239.782 419.52 239.126 419.808C238.47 420.096 237.798 420.24 237.11 420.24C235.91 420.24 234.838 419.96 233.894 419.4C232.966 418.824 232.23 418.048 231.686 417.072C231.142 416.08 230.87 414.952 230.87 413.688C230.87 412.424 231.134 411.304 231.662 410.328C232.206 409.336 232.942 408.56 233.87 408C234.814 407.424 235.87 407.136 237.038 407.136C237.518 407.136 237.982 407.2 238.43 407.328C238.878 407.44 239.294 407.608 239.678 407.832C240.062 408.04 240.406 408.272 240.71 408.528C241.014 408.784 241.262 409.056 241.454 409.344C241.646 409.632 241.766 409.904 241.814 410.16L241.286 410.352V407.4H243.758V419.232C243.758 420.24 243.606 421.128 243.302 421.896C243.014 422.68 242.59 423.336 242.03 423.864C241.47 424.408 240.79 424.816 239.99 425.088C239.19 425.376 238.286 425.52 237.278 425.52ZM237.374 417.96C238.158 417.96 238.854 417.776 239.462 417.408C240.07 417.04 240.542 416.536 240.878 415.896C241.214 415.256 241.382 414.52 241.382 413.688C241.382 412.856 241.206 412.12 240.854 411.48C240.518 410.824 240.046 410.312 239.438 409.944C238.846 409.576 238.158 409.392 237.374 409.392C236.606 409.392 235.918 409.584 235.31 409.968C234.718 410.336 234.246 410.848 233.894 411.504C233.558 412.144 233.39 412.872 233.39 413.688C233.39 414.504 233.558 415.24 233.894 415.896C234.246 416.536 234.718 417.04 235.31 417.408C235.918 417.776 236.606 417.96 237.374 417.96ZM253.104 420.24C251.808 420.24 250.656 419.968 249.648 419.424C248.656 418.864 247.872 418.104 247.296 417.144C246.736 416.184 246.456 415.08 246.456 413.832C246.456 412.84 246.616 411.936 246.936 411.12C247.256 410.304 247.696 409.6 248.256 409.008C248.832 408.4 249.512 407.936 250.296 407.616C251.096 407.28 251.96 407.112 252.888 407.112C253.704 407.112 254.464 407.272 255.168 407.592C255.872 407.896 256.48 408.32 256.992 408.864C257.52 409.408 257.92 410.056 258.192 410.808C258.48 411.544 258.616 412.352 258.6 413.232L258.576 414.288H248.28L247.728 412.32H256.44L256.08 412.728V412.152C256.032 411.624 255.856 411.152 255.552 410.736C255.248 410.32 254.864 409.992 254.4 409.752C253.936 409.512 253.432 409.392 252.888 409.392C252.024 409.392 251.296 409.56 250.704 409.896C250.112 410.216 249.664 410.696 249.36 411.336C249.056 411.96 248.904 412.736 248.904 413.664C248.904 414.544 249.088 415.312 249.456 415.968C249.824 416.608 250.344 417.104 251.016 417.456C251.688 417.808 252.464 417.984 253.344 417.984C253.968 417.984 254.544 417.88 255.072 417.672C255.616 417.464 256.2 417.088 256.824 416.544L258.072 418.296C257.688 418.68 257.216 419.016 256.656 419.304C256.112 419.592 255.528 419.824 254.904 420C254.296 420.16 253.696 420.24 253.104 420.24ZM261.239 420V407.4H263.735V410.088L263.279 410.376C263.407 409.96 263.607 409.56 263.879 409.176C264.167 408.792 264.511 408.456 264.911 408.168C265.327 407.864 265.767 407.624 266.231 407.448C266.711 407.272 267.199 407.184 267.695 407.184C268.415 407.184 269.047 407.304 269.591 407.544C270.135 407.784 270.583 408.144 270.935 408.624C271.287 409.104 271.543 409.704 271.703 410.424L271.319 410.328L271.487 409.92C271.663 409.552 271.903 409.208 272.207 408.888C272.527 408.552 272.887 408.256 273.287 408C273.687 407.744 274.111 407.544 274.559 407.4C275.007 407.256 275.447 407.184 275.879 407.184C276.823 407.184 277.599 407.376 278.207 407.76C278.831 408.144 279.295 408.728 279.599 409.512C279.919 410.296 280.079 411.272 280.079 412.44V420H277.583V412.584C277.583 411.864 277.487 411.28 277.295 410.832C277.119 410.368 276.847 410.024 276.479 409.8C276.111 409.576 275.639 409.464 275.063 409.464C274.615 409.464 274.191 409.544 273.791 409.704C273.407 409.848 273.071 410.056 272.783 410.328C272.495 410.6 272.271 410.92 272.111 411.288C271.951 411.64 271.871 412.032 271.871 412.464V420H269.375V412.536C269.375 411.88 269.279 411.328 269.087 410.88C268.895 410.416 268.615 410.064 268.247 409.824C267.879 409.584 267.431 409.464 266.903 409.464C266.455 409.464 266.039 409.544 265.655 409.704C265.271 409.848 264.935 410.056 264.647 410.328C264.359 410.584 264.135 410.896 263.975 411.264C263.815 411.616 263.735 412 263.735 412.416V420H261.239ZM287.588 420.24C286.532 420.24 285.58 420.056 284.732 419.688C283.884 419.32 283.18 418.776 282.62 418.056L284.3 416.616C284.78 417.176 285.3 417.584 285.86 417.84C286.436 418.08 287.084 418.2 287.804 418.2C288.092 418.2 288.356 418.168 288.596 418.104C288.852 418.024 289.068 417.912 289.244 417.768C289.436 417.624 289.58 417.456 289.676 417.264C289.772 417.056 289.82 416.832 289.82 416.592C289.82 416.176 289.668 415.84 289.364 415.584C289.204 415.472 288.948 415.352 288.596 415.224C288.26 415.08 287.82 414.936 287.276 414.792C286.348 414.552 285.588 414.28 284.996 413.976C284.404 413.672 283.948 413.328 283.628 412.944C283.388 412.64 283.212 412.312 283.1 411.96C282.988 411.592 282.932 411.192 282.932 410.76C282.932 410.232 283.044 409.752 283.268 409.32C283.508 408.872 283.828 408.488 284.228 408.168C284.644 407.832 285.124 407.576 285.668 407.4C286.228 407.224 286.82 407.136 287.444 407.136C288.036 407.136 288.62 407.216 289.196 407.376C289.788 407.536 290.332 407.768 290.828 408.072C291.324 408.376 291.74 408.736 292.076 409.152L290.66 410.712C290.356 410.408 290.02 410.144 289.652 409.92C289.3 409.68 288.94 409.496 288.572 409.368C288.204 409.24 287.868 409.176 287.564 409.176C287.228 409.176 286.924 409.208 286.652 409.272C286.38 409.336 286.148 409.432 285.956 409.56C285.78 409.688 285.644 409.848 285.548 410.04C285.452 410.232 285.404 410.448 285.404 410.688C285.42 410.896 285.468 411.096 285.548 411.288C285.644 411.464 285.772 411.616 285.932 411.744C286.108 411.872 286.372 412.008 286.724 412.152C287.076 412.296 287.524 412.432 288.068 412.56C288.868 412.768 289.524 413 290.036 413.256C290.564 413.496 290.98 413.776 291.284 414.096C291.604 414.4 291.828 414.752 291.956 415.152C292.084 415.552 292.148 416 292.148 416.496C292.148 417.216 291.94 417.864 291.524 418.44C291.124 419 290.58 419.44 289.892 419.76C289.204 420.08 288.436 420.24 287.588 420.24Z" fill="#FAF9F6"/>
<path d="M134.047 205.975C131.974 213.024 125.236 222.215 122.126 225.93L195.465 269.985L269.84 224.375C267.335 221.179 261.651 212.765 258.955 204.68C256.26 196.594 255.414 184.725 255.327 179.802H248.071C246.776 184.38 242.474 195.661 235.632 204.161C228.791 212.661 222.07 216.859 219.565 217.896H175.251C170.932 215.737 161.102 209.811 156.333 203.384C151.565 196.957 146.572 185.157 144.672 180.061L137.675 181.875C137.329 186.971 136.12 198.927 134.047 205.975Z" fill="#D8911F"/>
<circle cx="139.486" cy="172.805" r="11.9207" fill="#E58F14"/>
<circle cx="252.994" cy="172.805" r="11.9207" fill="#E58F14"/>
<path d="M81.959 188.353C95.4346 211.988 115.043 264.197 123.163 287.347C188.468 267.86 249.368 279.227 271.654 287.347C281.191 249.616 302.406 205.284 311.822 187.835L301.715 181.097C288.326 200.965 256.935 239.353 238.484 233.963C220.032 228.573 207.472 190.081 203.499 171.509L190.023 172.027C182.508 196.387 173.956 231.631 152.706 234.741C135.706 237.228 105.714 201.397 92.8431 183.17L81.959 188.353Z" fill="#FFDC10" stroke="#F4BD2C"/>
<path d="M113.906 251.067C114.113 246.299 109.5 238.714 107.168 235.518C105.699 233.531 102.607 231.216 101.985 237.85C101.207 246.143 106.649 252.363 107.945 253.399C109.241 254.436 113.646 257.027 113.906 251.067Z" fill="#D80B1A" stroke="#C50020"/>
<path d="M187.172 233.186L196.76 217.896L206.867 233.186L196.76 248.476L187.172 233.186Z" fill="#D80B1A" stroke="#C50020"/>
<path d="M279.435 250.84C279.22 245.991 284.001 238.278 286.418 235.028C287.939 233.008 291.144 230.654 291.789 237.4C292.594 245.833 286.955 252.157 285.612 253.212C284.269 254.266 279.704 256.901 279.435 250.84Z" fill="#D80B1A" stroke="#C50020"/>
<path d="M111.064 268.9C110.443 265.57 113.394 264.391 114.948 264.217C173.975 249.233 248.622 257.454 278.567 263.437C280.12 263.957 283.071 265.726 282.45 268.64C281.829 271.553 278.739 271.761 277.272 271.501C220.937 257.558 146.964 265.691 117.018 271.501C115.293 272.022 111.685 272.23 111.064 268.9Z" fill="#FEB82C" stroke="#F8AB0F"/>
<path d="M119.351 286.003C118.786 282.673 121.47 281.494 122.883 281.32C176.56 266.336 244.441 274.557 271.672 280.54C273.085 281.06 275.769 282.829 275.204 285.743C274.639 288.656 271.829 288.865 270.495 288.604C219.266 274.661 151.997 282.795 124.766 288.604C123.197 289.125 119.916 289.333 119.351 286.003Z" fill="#FEB82C" stroke="#F8AB0F"/>
<circle cx="83.5122" cy="177.47" r="14.0122" fill="#FFDC10" stroke="#F4BD2C"/>
<circle cx="196.501" cy="164.512" r="14.0122" fill="#FFDC10" stroke="#F4BD2C"/>
<circle cx="309.488" cy="177.47" r="14.0122" fill="#FFDC10" stroke="#F4BD2C"/>
</svg>
