<svg width="395" height="491" viewBox="0 0 395 491" fill="none" xmlns="http://www.w3.org/2000/svg">
<rect width="394.099" height="490.871" rx="20" fill="#202020" fill-opacity="0.5"/>
<path d="M46.12 74.6C46.6 75.4 47.2667 76.0533 48.12 76.56C49 77.0933 50.0133 77.36 51.16 77.36C52.3333 77.36 53.5067 77.0133 54.68 76.32C55.88 75.6533 56.88 74.8133 57.68 73.8L58.24 74.36C56.2933 77.4 53.6533 79.48 50.32 80.6C48.0267 80.6 46.1467 80.0133 44.68 78.84C43.2133 77.6667 42.1733 76.16 41.56 74.32C40.9733 72.48 40.68 70.2133 40.68 67.52C40.68 64.8267 41.0133 62.28 41.68 59.88C42.3733 57.4533 43.56 55.28 45.24 53.36C46.92 51.4133 49.0133 50.08 51.52 49.36C54.2133 49.36 56.96 49.6133 59.76 50.12L59.72 51C59.0267 51 58.3867 51.12 57.8 51.36C57.1333 52.9333 56.6933 54.8133 56.48 57H55.48C55.24 55.7467 55.12 54.5467 55.12 53.4C53.7067 52.6267 52.1467 52.24 50.44 52.24C48.76 52.24 47.3733 52.7467 46.28 53.76C44.92 56.5067 44.24 60.04 44.24 64.36C44.24 69.1867 44.8667 72.6 46.12 74.6ZM77.3619 64.64V66.52C77.3619 70.1733 77.4952 72.9067 77.7619 74.72C78.9885 74.88 80.0019 75.0667 80.8019 75.28L80.6819 76.28C79.3752 76.0933 78.0285 76 76.6419 76C75.2819 76 74.3485 76.04 73.8419 76.12L73.6819 75.6C73.9219 75.3333 74.0819 74.5733 74.1619 73.32C72.7752 74.76 71.1752 75.8133 69.3619 76.48C64.7752 76.48 62.4819 73.7467 62.4819 68.28C62.4819 67.08 62.5752 65.16 62.7619 62.52C62.9485 59.88 63.0419 58.3333 63.0419 57.88C63.0419 57.4267 62.9619 56.9867 62.8019 56.56V56.52C61.6819 56.3333 60.7885 56.1333 60.1219 55.92L60.2819 54.84C61.8285 55.0533 63.2285 55.16 64.4819 55.16C65.7352 55.16 66.7619 55.0933 67.5619 54.96L67.7219 55.64C66.7619 56.1467 66.2019 57.0667 66.0419 58.4C65.7219 60.96 65.5619 63.5867 65.5619 66.28C65.5619 68.9733 65.8685 70.8933 66.4819 72.04C67.1219 73.16 68.2952 73.72 70.0019 73.72C71.7352 73.72 73.1352 73.2267 74.2019 72.24C74.3085 70.1067 74.3619 67.5867 74.3619 64.68C74.3619 61.7733 74.2552 59.04 74.0419 56.48C72.8419 56.3467 71.7352 56.1467 70.7219 55.88L70.8419 54.88C72.2285 55.0667 73.7752 55.16 75.4819 55.16C77.2152 55.16 78.7619 55.0533 80.1219 54.84L80.2819 55.88C79.5352 56.12 78.6952 56.32 77.7619 56.48C77.4952 58.2667 77.3619 60.9867 77.3619 64.64ZM83.7669 55.24L92.9669 54.96C95.3669 54.96 97.1669 55.32 98.3669 56.04C99.5669 56.7333 100.167 58.0133 100.167 59.88C100.167 61.16 99.7669 62.2933 98.9669 63.28C98.1935 64.2667 97.1669 65 95.8869 65.48L100.367 74.64C101.274 74.8 102.127 74.9867 102.927 75.2L102.767 76.28C101.647 76.0933 100.38 76 98.9669 76C97.5802 76 96.4869 76.0667 95.6869 76.2L95.5269 75.56C95.8735 75.2133 96.0469 74.64 96.0469 73.84C96.0469 72.2133 95.1135 69.6 93.2469 66C92.6869 65.8933 92.0335 65.84 91.2869 65.84L91.3669 64.68H91.7669C94.9135 64.68 96.4869 63.24 96.4869 60.36C96.4869 57.6933 95.1402 56.36 92.4469 56.36C91.5402 56.36 90.7269 56.5067 90.0069 56.8C89.8202 58.56 89.7269 61.5733 89.7269 65.84C89.7269 70.1067 89.8469 73.0533 90.0869 74.68C91.2602 74.8133 92.3535 75.0133 93.3669 75.28L93.2469 76.28C91.8602 76.0933 90.3002 76 88.5669 76C86.8602 76 85.3269 76.1067 83.9669 76.32L83.8069 75.28C84.5535 75.04 85.3935 74.84 86.3269 74.68C86.5935 72.68 86.7269 69.5733 86.7269 65.36C86.7269 61.12 86.6069 58.1867 86.3669 56.56C85.3269 56.2133 84.4602 56.04 83.7669 56.04V55.24ZM107.542 72.96C108.768 73.4667 109.982 73.72 111.182 73.72C112.382 73.72 113.342 73.44 114.062 72.88C114.782 72.32 115.142 71.52 115.142 70.48C115.142 69.4133 113.635 68.0933 110.622 66.52C109.475 65.9333 108.422 65.2267 107.462 64.4C106.528 63.5467 106.062 62.7067 106.062 61.88C106.062 60.4667 106.808 59.04 108.302 57.6C109.795 56.16 111.328 55.1867 112.902 54.68C114.875 54.68 116.662 54.88 118.262 55.28V56C117.142 57.12 116.515 58.6533 116.382 60.6H115.382C115.382 59.8533 115.315 58.92 115.182 57.8C114.248 57.3733 113.248 57.16 112.182 57.16C111.115 57.16 110.222 57.4 109.502 57.88C108.808 58.3333 108.462 59 108.462 59.88C108.462 60.4933 108.928 61.16 109.862 61.88C110.822 62.6 111.862 63.24 112.982 63.8C114.102 64.36 115.128 65.0533 116.062 65.88C117.022 66.7067 117.502 67.5333 117.502 68.36C117.502 69.96 116.795 71.56 115.382 73.16C113.968 74.7333 112.408 75.84 110.702 76.48C109.022 76.48 107.448 76.28 105.982 75.88C105.555 76.0667 105.115 76.3733 104.662 76.8L103.942 76.28C105.435 74.6533 106.262 72.64 106.422 70.24H107.422C107.422 71.1733 107.462 72.08 107.542 72.96ZM125.178 66.12C125.258 68.4933 125.698 70.3467 126.498 71.68C127.298 73.0133 128.658 73.68 130.578 73.68C132.498 73.68 134.271 72.8667 135.898 71.24L136.458 71.8C134.671 74.0667 132.524 75.6267 130.018 76.48C127.431 76.48 125.404 75.6667 123.938 74.04C122.471 72.3867 121.738 70.1733 121.738 67.4C121.738 64.6 122.604 61.9733 124.338 59.52C126.071 57.0667 128.284 55.4533 130.978 54.68C132.924 54.68 135.124 54.88 137.578 55.28L137.538 56.16C137.031 56.16 136.551 56.2533 136.098 56.44C135.591 57.64 135.258 59.0667 135.098 60.72H134.098C133.884 59.8133 133.778 58.88 133.778 57.92C132.764 57.4133 131.564 57.16 130.178 57.16C128.791 57.16 127.644 57.5333 126.738 58.28C125.831 59.9333 125.311 61.9067 125.178 64.2C126.298 64.3867 127.498 64.48 128.778 64.48C130.991 64.48 132.324 64.0133 132.778 63.08L133.618 63.2C133.378 64 133.258 64.7867 133.258 65.56C133.258 66.3333 133.351 67.28 133.538 68.4L132.578 68.56C132.284 67.76 132.071 66.9333 131.938 66.08C130.871 65.9733 129.804 65.92 128.738 65.92C127.698 65.92 126.511 65.9867 125.178 66.12ZM139.307 55.24L148.507 54.96C151.547 54.96 153.881 55.68 155.507 57.12C157.161 58.56 157.987 60.72 157.987 63.6C157.987 66.4533 157.081 69.12 155.267 71.6C153.481 74.08 151.254 75.7067 148.587 76.48C147.894 76.48 146.987 76.3467 145.867 76.08C144.774 75.84 143.867 75.5733 143.147 75.28C142.854 75.6267 142.587 76.12 142.347 76.76L141.507 76.56C142.014 74.1867 142.267 70.84 142.267 66.52C142.267 62.1733 142.147 58.92 141.907 56.76C141.001 56.4133 140.134 56.24 139.307 56.24V55.24ZM153.067 59.24C152.587 58.3333 151.907 57.6267 151.027 57.12C150.174 56.6133 149.227 56.36 148.187 56.36C147.174 56.36 146.294 56.5067 145.547 56.8C145.361 58.5333 145.267 61.3067 145.267 65.12C145.267 68.9067 145.321 71.5333 145.427 73C146.761 73.6133 148.121 73.92 149.507 73.92C150.921 73.92 152.041 73.56 152.867 72.84C153.881 70.92 154.387 68.56 154.387 65.76C154.387 63.1467 153.947 60.9733 153.067 59.24ZM179.045 74.6C179.391 72.04 179.565 68.3733 179.565 63.6C179.565 58.8 179.431 54.96 179.165 52.08C176.258 52.1333 174.391 52.56 173.565 53.36C173.378 53.7333 173.285 54.32 173.285 55.12C173.285 55.92 173.418 56.4667 173.685 56.76L173.645 57.04C172.978 57.44 172.311 58 171.645 58.72C171.325 58.6933 171.071 58.56 170.885 58.32C170.671 58.08 170.565 57.8 170.565 57.48C170.565 56.2533 171.271 54.8 172.685 53.12C174.071 51.44 175.405 50.28 176.685 49.64C178.951 49.8533 182.231 49.96 186.525 49.96C189.245 49.96 191.311 50.3733 192.725 51.2C194.138 52 194.845 53.5467 194.845 55.84C194.845 59.0933 193.178 61.36 189.845 62.64L195.445 74.48C196.805 74.6667 198.085 74.9467 199.285 75.32L199.125 76.32C197.551 76.1067 195.845 76 194.005 76C192.191 76 190.871 76.0533 190.045 76.16L189.885 75.6C190.338 75.1467 190.565 74.3867 190.565 73.32C190.565 71.1867 189.311 67.7867 186.805 63.12C186.138 62.9867 185.365 62.92 184.485 62.92L184.605 62.04H185.085C187.005 62.04 188.485 61.5733 189.525 60.64C190.565 59.68 191.085 58.3067 191.085 56.52C191.085 54.7067 190.618 53.4933 189.685 52.88C188.751 52.2667 187.285 51.96 185.285 51.96C184.351 51.96 183.578 52 182.965 52.08C182.751 54.4533 182.645 58.28 182.645 63.56C182.645 68.84 182.791 72.48 183.085 74.48C184.445 74.6667 185.725 74.9467 186.925 75.32L186.765 76.32C185.351 76.1067 183.485 76 181.165 76C178.871 76 176.738 76.1067 174.765 76.32L174.645 75.36C176.165 74.9867 177.631 74.7333 179.045 74.6ZM217.01 64.64V66.52C217.01 70.1733 217.144 72.9067 217.41 74.72C218.637 74.88 219.65 75.0667 220.45 75.28L220.33 76.28C219.024 76.0933 217.677 76 216.29 76C214.93 76 213.997 76.04 213.49 76.12L213.33 75.6C213.57 75.3333 213.73 74.5733 213.81 73.32C212.424 74.76 210.824 75.8133 209.01 76.48C204.424 76.48 202.13 73.7467 202.13 68.28C202.13 67.08 202.224 65.16 202.41 62.52C202.597 59.88 202.69 58.3333 202.69 57.88C202.69 57.4267 202.61 56.9867 202.45 56.56V56.52C201.33 56.3333 200.437 56.1333 199.77 55.92L199.93 54.84C201.477 55.0533 202.877 55.16 204.13 55.16C205.384 55.16 206.41 55.0933 207.21 54.96L207.37 55.64C206.41 56.1467 205.85 57.0667 205.69 58.4C205.37 60.96 205.21 63.5867 205.21 66.28C205.21 68.9733 205.517 70.8933 206.13 72.04C206.77 73.16 207.944 73.72 209.65 73.72C211.384 73.72 212.784 73.2267 213.85 72.24C213.957 70.1067 214.01 67.5867 214.01 64.68C214.01 61.7733 213.904 59.04 213.69 56.48C212.49 56.3467 211.384 56.1467 210.37 55.88L210.49 54.88C211.877 55.0667 213.424 55.16 215.13 55.16C216.864 55.16 218.41 55.0533 219.77 54.84L219.93 55.88C219.184 56.12 218.344 56.32 217.41 56.48C217.144 58.2667 217.01 60.9867 217.01 64.64ZM233.055 76.28C231.669 76.0933 230.109 76 228.375 76C226.669 76 225.135 76.1067 223.775 76.32L223.615 75.28C224.469 75.0133 225.269 74.8133 226.015 74.68C226.255 72.6 226.375 69.88 226.375 66.52V64.64C226.375 61.0667 226.242 58.32 225.975 56.4C225.255 56.32 224.389 56.1067 223.375 55.76L223.495 54.72C225.015 55.0133 226.602 55.16 228.255 55.16C229.935 55.16 231.135 55.0667 231.855 54.88L231.935 55.56C231.215 55.7467 230.855 56.0533 230.855 56.48C230.855 56.8 231.162 57.48 231.775 58.52C232.415 59.5333 233.029 60.52 233.615 61.48C235.375 64.28 237.455 67.72 239.855 71.8L239.975 71.72V66.84C239.975 63.2667 239.789 60.5867 239.415 58.8C239.042 56.9867 238.402 55.9333 237.495 55.64L237.575 54.96C238.269 55.0933 239.309 55.16 240.695 55.16C242.082 55.16 243.509 55.0133 244.975 54.72L245.095 55.76C244.002 56.1067 243.082 56.32 242.335 56.4C242.069 58.5333 241.935 61.28 241.935 64.64V66.52C241.935 70.5733 242.069 73.32 242.335 74.76C243.455 74.9467 244.349 75.16 245.015 75.4L244.895 76.44C243.562 76.1467 242.309 76 241.135 76C239.962 76 239.055 76.0533 238.415 76.16C238.415 75.5733 238.002 74.5867 237.175 73.2C236.375 71.8133 235.642 70.5867 234.975 69.52C232.815 66.0267 230.695 62.48 228.615 58.88L228.455 58.96V64.32C228.455 69.6267 228.855 73.08 229.655 74.68C230.855 74.8133 232.029 75.0133 233.175 75.28L233.055 76.28ZM251.857 66.12C251.937 68.4933 252.377 70.3467 253.177 71.68C253.977 73.0133 255.337 73.68 257.257 73.68C259.177 73.68 260.951 72.8667 262.577 71.24L263.137 71.8C261.351 74.0667 259.204 75.6267 256.697 76.48C254.111 76.48 252.084 75.6667 250.617 74.04C249.151 72.3867 248.417 70.1733 248.417 67.4C248.417 64.6 249.284 61.9733 251.017 59.52C252.751 57.0667 254.964 55.4533 257.657 54.68C259.604 54.68 261.804 54.88 264.257 55.28L264.217 56.16C263.711 56.16 263.231 56.2533 262.777 56.44C262.271 57.64 261.937 59.0667 261.777 60.72H260.777C260.564 59.8133 260.457 58.88 260.457 57.92C259.444 57.4133 258.244 57.16 256.857 57.16C255.471 57.16 254.324 57.5333 253.417 58.28C252.511 59.9333 251.991 61.9067 251.857 64.2C252.977 64.3867 254.177 64.48 255.457 64.48C257.671 64.48 259.004 64.0133 259.457 63.08L260.297 63.2C260.057 64 259.937 64.7867 259.937 65.56C259.937 66.3333 260.031 67.28 260.217 68.4L259.257 68.56C258.964 67.76 258.751 66.9333 258.617 66.08C257.551 65.9733 256.484 65.92 255.417 65.92C254.377 65.92 253.191 65.9867 251.857 66.12ZM268.987 72.96C270.214 73.4667 271.427 73.72 272.627 73.72C273.827 73.72 274.787 73.44 275.507 72.88C276.227 72.32 276.587 71.52 276.587 70.48C276.587 69.4133 275.08 68.0933 272.067 66.52C270.92 65.9333 269.867 65.2267 268.907 64.4C267.974 63.5467 267.507 62.7067 267.507 61.88C267.507 60.4667 268.254 59.04 269.747 57.6C271.24 56.16 272.774 55.1867 274.347 54.68C276.32 54.68 278.107 54.88 279.707 55.28V56C278.587 57.12 277.96 58.6533 277.827 60.6H276.827C276.827 59.8533 276.76 58.92 276.627 57.8C275.694 57.3733 274.694 57.16 273.627 57.16C272.56 57.16 271.667 57.4 270.947 57.88C270.254 58.3333 269.907 59 269.907 59.88C269.907 60.4933 270.374 61.16 271.307 61.88C272.267 62.6 273.307 63.24 274.427 63.8C275.547 64.36 276.574 65.0533 277.507 65.88C278.467 66.7067 278.947 67.5333 278.947 68.36C278.947 69.96 278.24 71.56 276.827 73.16C275.414 74.7333 273.854 75.84 272.147 76.48C270.467 76.48 268.894 76.28 267.427 75.88C267 76.0667 266.56 76.3733 266.107 76.8L265.387 76.28C266.88 74.6533 267.707 72.64 267.867 70.24H268.867C268.867 71.1733 268.907 72.08 268.987 72.96Z" fill="#FAF9F6"/>
<path d="M40.5415 379.36V376.912H47.4535V379.36H40.5415ZM54.8828 385.168C53.7788 385.168 52.7788 384.92 51.8828 384.424C50.9868 383.912 50.2428 383.184 49.6508 382.24L51.0908 380.632C51.8428 381.464 52.4988 382.032 53.0588 382.336C53.6188 382.64 54.2268 382.792 54.8828 382.792C55.5388 382.792 56.1308 382.648 56.6588 382.36C57.1868 382.072 57.6028 381.68 57.9068 381.184C58.2268 380.688 58.3868 380.136 58.3868 379.528C58.3868 378.888 58.2348 378.32 57.9308 377.824C57.6428 377.312 57.2508 376.912 56.7548 376.624C56.2588 376.32 55.6988 376.168 55.0748 376.168C54.7708 376.168 54.4828 376.192 54.2108 376.24C53.9388 376.272 53.6108 376.36 53.2268 376.504C52.8428 376.648 52.3388 376.872 51.7148 377.176L50.3468 375.328L51.3308 368.2H60.4028V370.6H52.9628L53.4668 370.144L52.6748 375.472L52.0748 374.776C52.2348 374.616 52.5068 374.464 52.8908 374.32C53.2748 374.16 53.6988 374.032 54.1628 373.936C54.6428 373.824 55.0988 373.768 55.5308 373.768C56.5548 373.768 57.4668 374.008 58.2668 374.488C59.0828 374.952 59.7228 375.6 60.1868 376.432C60.6668 377.264 60.9068 378.216 60.9068 379.288C60.9068 380.392 60.6428 381.392 60.1148 382.288C59.5868 383.168 58.8668 383.872 57.9548 384.4C57.0428 384.912 56.0188 385.168 54.8828 385.168ZM70.762 385V372.4H73.258V375.088L72.802 375.376C72.93 374.96 73.13 374.56 73.402 374.176C73.69 373.792 74.034 373.456 74.434 373.168C74.85 372.864 75.29 372.624 75.754 372.448C76.234 372.272 76.722 372.184 77.218 372.184C77.938 372.184 78.57 372.304 79.114 372.544C79.658 372.784 80.106 373.144 80.458 373.624C80.81 374.104 81.066 374.704 81.226 375.424L80.842 375.328L81.01 374.92C81.186 374.552 81.426 374.208 81.73 373.888C82.05 373.552 82.41 373.256 82.81 373C83.21 372.744 83.634 372.544 84.082 372.4C84.53 372.256 84.97 372.184 85.402 372.184C86.346 372.184 87.122 372.376 87.73 372.76C88.354 373.144 88.818 373.728 89.122 374.512C89.442 375.296 89.602 376.272 89.602 377.44V385H87.106V377.584C87.106 376.864 87.01 376.28 86.818 375.832C86.642 375.368 86.37 375.024 86.002 374.8C85.634 374.576 85.162 374.464 84.586 374.464C84.138 374.464 83.714 374.544 83.314 374.704C82.93 374.848 82.594 375.056 82.306 375.328C82.018 375.6 81.794 375.92 81.634 376.288C81.474 376.64 81.394 377.032 81.394 377.464V385H78.898V377.536C78.898 376.88 78.802 376.328 78.61 375.88C78.418 375.416 78.138 375.064 77.77 374.824C77.402 374.584 76.954 374.464 76.426 374.464C75.978 374.464 75.562 374.544 75.178 374.704C74.794 374.848 74.458 375.056 74.17 375.328C73.882 375.584 73.658 375.896 73.498 376.264C73.338 376.616 73.258 377 73.258 377.416V385H70.762ZM97.7596 385.24C96.7196 385.24 95.7676 384.952 94.9036 384.376C94.0556 383.8 93.3756 383.016 92.8636 382.024C92.3516 381.032 92.0956 379.912 92.0956 378.664C92.0956 377.4 92.3516 376.28 92.8636 375.304C93.3916 374.312 94.0956 373.536 94.9756 372.976C95.8716 372.416 96.8716 372.136 97.9756 372.136C98.6316 372.136 99.2316 372.232 99.7756 372.424C100.32 372.616 100.792 372.888 101.192 373.24C101.608 373.576 101.944 373.968 102.2 374.416C102.472 374.864 102.64 375.344 102.704 375.856L102.152 375.664V372.4H104.648V385H102.152V382L102.728 381.832C102.632 382.264 102.432 382.688 102.128 383.104C101.84 383.504 101.464 383.864 101 384.184C100.552 384.504 100.048 384.76 99.4876 384.952C98.9436 385.144 98.3676 385.24 97.7596 385.24ZM98.4076 382.96C99.1596 382.96 99.8236 382.776 100.4 382.408C100.976 382.04 101.424 381.536 101.744 380.896C102.08 380.24 102.248 379.496 102.248 378.664C102.248 377.848 102.08 377.12 101.744 376.48C101.424 375.84 100.976 375.336 100.4 374.968C99.8236 374.6 99.1596 374.416 98.4076 374.416C97.6716 374.416 97.0156 374.6 96.4396 374.968C95.8796 375.336 95.4316 375.84 95.0956 376.48C94.7756 377.12 94.6156 377.848 94.6156 378.664C94.6156 379.496 94.7756 380.24 95.0956 380.896C95.4316 381.536 95.8796 382.04 96.4396 382.408C97.0156 382.776 97.6716 382.96 98.4076 382.96ZM113.739 390.52C112.843 390.52 111.947 390.376 111.051 390.088C110.171 389.816 109.459 389.456 108.915 389.008L109.827 387.088C110.147 387.328 110.523 387.536 110.955 387.712C111.387 387.904 111.843 388.048 112.323 388.144C112.803 388.256 113.275 388.312 113.739 388.312C114.619 388.312 115.355 388.168 115.947 387.88C116.539 387.592 116.987 387.168 117.291 386.608C117.595 386.048 117.747 385.352 117.747 384.52V382.096L118.011 382.264C117.931 382.76 117.667 383.24 117.219 383.704C116.787 384.152 116.243 384.52 115.587 384.808C114.931 385.096 114.259 385.24 113.571 385.24C112.371 385.24 111.299 384.96 110.355 384.4C109.427 383.824 108.691 383.048 108.147 382.072C107.603 381.08 107.331 379.952 107.331 378.688C107.331 377.424 107.595 376.304 108.123 375.328C108.667 374.336 109.403 373.56 110.331 373C111.275 372.424 112.331 372.136 113.499 372.136C113.979 372.136 114.443 372.2 114.891 372.328C115.339 372.44 115.755 372.608 116.139 372.832C116.523 373.04 116.867 373.272 117.171 373.528C117.475 373.784 117.723 374.056 117.915 374.344C118.107 374.632 118.227 374.904 118.275 375.16L117.747 375.352V372.4H120.219V384.232C120.219 385.24 120.067 386.128 119.763 386.896C119.475 387.68 119.051 388.336 118.491 388.864C117.931 389.408 117.251 389.816 116.451 390.088C115.651 390.376 114.747 390.52 113.739 390.52ZM113.835 382.96C114.619 382.96 115.315 382.776 115.923 382.408C116.531 382.04 117.003 381.536 117.339 380.896C117.675 380.256 117.843 379.52 117.843 378.688C117.843 377.856 117.667 377.12 117.315 376.48C116.979 375.824 116.507 375.312 115.899 374.944C115.307 374.576 114.619 374.392 113.835 374.392C113.067 374.392 112.379 374.584 111.771 374.968C111.179 375.336 110.707 375.848 110.355 376.504C110.019 377.144 109.851 377.872 109.851 378.688C109.851 379.504 110.019 380.24 110.355 380.896C110.707 381.536 111.179 382.04 111.771 382.408C112.379 382.776 113.067 382.96 113.835 382.96ZM124.093 385V372.4H126.565V385H124.093ZM125.293 369.616C124.765 369.616 124.357 369.48 124.069 369.208C123.781 368.936 123.637 368.552 123.637 368.056C123.637 367.592 123.781 367.216 124.069 366.928C124.373 366.64 124.781 366.496 125.293 366.496C125.821 366.496 126.229 366.632 126.517 366.904C126.805 367.176 126.949 367.56 126.949 368.056C126.949 368.52 126.797 368.896 126.493 369.184C126.205 369.472 125.805 369.616 125.293 369.616ZM135.717 385.24C134.549 385.24 133.501 384.952 132.573 384.376C131.661 383.8 130.933 383.016 130.389 382.024C129.861 381.032 129.597 379.92 129.597 378.688C129.597 377.456 129.861 376.344 130.389 375.352C130.933 374.36 131.661 373.576 132.573 373C133.501 372.424 134.549 372.136 135.717 372.136C136.837 372.136 137.853 372.368 138.765 372.832C139.693 373.28 140.397 373.896 140.877 374.68L139.509 376.36C139.253 375.992 138.925 375.656 138.525 375.352C138.125 375.048 137.701 374.808 137.253 374.632C136.805 374.456 136.373 374.368 135.957 374.368C135.189 374.368 134.501 374.56 133.893 374.944C133.301 375.312 132.829 375.824 132.477 376.48C132.125 377.136 131.949 377.872 131.949 378.688C131.949 379.504 132.133 380.24 132.501 380.896C132.869 381.536 133.357 382.048 133.965 382.432C134.573 382.816 135.245 383.008 135.981 383.008C136.413 383.008 136.829 382.936 137.229 382.792C137.645 382.648 138.045 382.432 138.429 382.144C138.813 381.856 139.173 381.504 139.509 381.088L140.877 382.768C140.365 383.488 139.629 384.08 138.669 384.544C137.725 385.008 136.741 385.24 135.717 385.24ZM155.575 390.52C154.679 390.52 153.783 390.376 152.887 390.088C152.007 389.816 151.295 389.456 150.751 389.008L151.663 387.088C151.983 387.328 152.359 387.536 152.791 387.712C153.223 387.904 153.679 388.048 154.159 388.144C154.639 388.256 155.111 388.312 155.575 388.312C156.455 388.312 157.191 388.168 157.783 387.88C158.375 387.592 158.823 387.168 159.127 386.608C159.431 386.048 159.583 385.352 159.583 384.52V382.096L159.847 382.264C159.767 382.76 159.503 383.24 159.055 383.704C158.623 384.152 158.079 384.52 157.423 384.808C156.767 385.096 156.095 385.24 155.407 385.24C154.207 385.24 153.135 384.96 152.191 384.4C151.263 383.824 150.527 383.048 149.983 382.072C149.439 381.08 149.167 379.952 149.167 378.688C149.167 377.424 149.431 376.304 149.959 375.328C150.503 374.336 151.239 373.56 152.167 373C153.111 372.424 154.167 372.136 155.335 372.136C155.815 372.136 156.279 372.2 156.727 372.328C157.175 372.44 157.591 372.608 157.975 372.832C158.359 373.04 158.703 373.272 159.007 373.528C159.311 373.784 159.559 374.056 159.751 374.344C159.943 374.632 160.063 374.904 160.111 375.16L159.583 375.352V372.4H162.055V384.232C162.055 385.24 161.903 386.128 161.599 386.896C161.311 387.68 160.887 388.336 160.327 388.864C159.767 389.408 159.087 389.816 158.287 390.088C157.487 390.376 156.583 390.52 155.575 390.52ZM155.671 382.96C156.455 382.96 157.151 382.776 157.759 382.408C158.367 382.04 158.839 381.536 159.175 380.896C159.511 380.256 159.679 379.52 159.679 378.688C159.679 377.856 159.503 377.12 159.151 376.48C158.815 375.824 158.343 375.312 157.735 374.944C157.143 374.576 156.455 374.392 155.671 374.392C154.903 374.392 154.215 374.584 153.607 374.968C153.015 375.336 152.543 375.848 152.191 376.504C151.855 377.144 151.687 377.872 151.687 378.688C151.687 379.504 151.855 380.24 152.191 380.896C152.543 381.536 153.015 382.04 153.607 382.408C154.215 382.776 154.903 382.96 155.671 382.96ZM171.401 385.24C170.105 385.24 168.953 384.968 167.945 384.424C166.953 383.864 166.169 383.104 165.593 382.144C165.033 381.184 164.753 380.08 164.753 378.832C164.753 377.84 164.913 376.936 165.233 376.12C165.553 375.304 165.993 374.6 166.553 374.008C167.129 373.4 167.809 372.936 168.593 372.616C169.393 372.28 170.257 372.112 171.185 372.112C172.001 372.112 172.761 372.272 173.465 372.592C174.169 372.896 174.777 373.32 175.289 373.864C175.817 374.408 176.217 375.056 176.489 375.808C176.777 376.544 176.913 377.352 176.897 378.232L176.873 379.288H166.577L166.025 377.32H174.737L174.377 377.728V377.152C174.329 376.624 174.153 376.152 173.849 375.736C173.545 375.32 173.161 374.992 172.697 374.752C172.233 374.512 171.729 374.392 171.185 374.392C170.321 374.392 169.593 374.56 169.001 374.896C168.409 375.216 167.961 375.696 167.657 376.336C167.353 376.96 167.201 377.736 167.201 378.664C167.201 379.544 167.385 380.312 167.753 380.968C168.121 381.608 168.641 382.104 169.313 382.456C169.985 382.808 170.761 382.984 171.641 382.984C172.265 382.984 172.841 382.88 173.369 382.672C173.913 382.464 174.497 382.088 175.121 381.544L176.369 383.296C175.985 383.68 175.513 384.016 174.953 384.304C174.409 384.592 173.825 384.824 173.201 385C172.593 385.16 171.993 385.24 171.401 385.24ZM179.535 385V372.4H182.031V375.088L181.575 375.376C181.703 374.96 181.903 374.56 182.175 374.176C182.463 373.792 182.807 373.456 183.207 373.168C183.623 372.864 184.063 372.624 184.527 372.448C185.007 372.272 185.495 372.184 185.991 372.184C186.711 372.184 187.343 372.304 187.887 372.544C188.431 372.784 188.879 373.144 189.231 373.624C189.583 374.104 189.839 374.704 189.999 375.424L189.615 375.328L189.783 374.92C189.959 374.552 190.199 374.208 190.503 373.888C190.823 373.552 191.183 373.256 191.583 373C191.983 372.744 192.407 372.544 192.855 372.4C193.303 372.256 193.743 372.184 194.175 372.184C195.119 372.184 195.895 372.376 196.503 372.76C197.127 373.144 197.591 373.728 197.895 374.512C198.215 375.296 198.375 376.272 198.375 377.44V385H195.879V377.584C195.879 376.864 195.783 376.28 195.591 375.832C195.415 375.368 195.143 375.024 194.775 374.8C194.407 374.576 193.935 374.464 193.359 374.464C192.911 374.464 192.487 374.544 192.087 374.704C191.703 374.848 191.367 375.056 191.079 375.328C190.791 375.6 190.567 375.92 190.407 376.288C190.247 376.64 190.167 377.032 190.167 377.464V385H187.671V377.536C187.671 376.88 187.575 376.328 187.383 375.88C187.191 375.416 186.911 375.064 186.543 374.824C186.175 374.584 185.727 374.464 185.199 374.464C184.751 374.464 184.335 374.544 183.951 374.704C183.567 374.848 183.231 375.056 182.943 375.328C182.655 375.584 182.431 375.896 182.271 376.264C182.111 376.616 182.031 377 182.031 377.416V385H179.535ZM205.885 385.24C204.829 385.24 203.877 385.056 203.029 384.688C202.181 384.32 201.477 383.776 200.917 383.056L202.597 381.616C203.077 382.176 203.597 382.584 204.157 382.84C204.733 383.08 205.381 383.2 206.101 383.2C206.389 383.2 206.653 383.168 206.893 383.104C207.149 383.024 207.365 382.912 207.541 382.768C207.733 382.624 207.877 382.456 207.973 382.264C208.069 382.056 208.117 381.832 208.117 381.592C208.117 381.176 207.965 380.84 207.661 380.584C207.501 380.472 207.245 380.352 206.893 380.224C206.557 380.08 206.117 379.936 205.573 379.792C204.645 379.552 203.885 379.28 203.293 378.976C202.701 378.672 202.245 378.328 201.925 377.944C201.685 377.64 201.509 377.312 201.397 376.96C201.285 376.592 201.229 376.192 201.229 375.76C201.229 375.232 201.341 374.752 201.565 374.32C201.805 373.872 202.125 373.488 202.525 373.168C202.941 372.832 203.421 372.576 203.965 372.4C204.525 372.224 205.117 372.136 205.741 372.136C206.333 372.136 206.917 372.216 207.493 372.376C208.085 372.536 208.629 372.768 209.125 373.072C209.621 373.376 210.037 373.736 210.373 374.152L208.957 375.712C208.653 375.408 208.317 375.144 207.949 374.92C207.597 374.68 207.237 374.496 206.869 374.368C206.501 374.24 206.165 374.176 205.861 374.176C205.525 374.176 205.221 374.208 204.949 374.272C204.677 374.336 204.445 374.432 204.253 374.56C204.077 374.688 203.941 374.848 203.845 375.04C203.749 375.232 203.701 375.448 203.701 375.688C203.717 375.896 203.765 376.096 203.845 376.288C203.941 376.464 204.069 376.616 204.229 376.744C204.405 376.872 204.669 377.008 205.021 377.152C205.373 377.296 205.821 377.432 206.365 377.56C207.165 377.768 207.821 378 208.333 378.256C208.861 378.496 209.277 378.776 209.581 379.096C209.901 379.4 210.125 379.752 210.253 380.152C210.381 380.552 210.445 381 210.445 381.496C210.445 382.216 210.237 382.864 209.821 383.44C209.421 384 208.877 384.44 208.189 384.76C207.501 385.08 206.733 385.24 205.885 385.24Z" fill="#FAF9F6"/>
<rect x="41" y="267.836" width="307.211" height="23.8077" rx="11.9039" fill="#BF5E4F"/>
<path d="M209.944 282.944C210.493 281.662 214.751 281.8 216.811 282.028C219.558 282.257 220.703 283.402 220.474 284.089C220.245 284.776 219.558 284.547 218.642 284.318C217.91 284.135 216.201 284.089 215.438 284.089L211.317 284.318C210.63 284.394 209.394 284.226 209.944 282.944Z" fill="#FBE475"/>
<path d="M54.2773 277.221C57.5585 275.542 66.8222 273.329 77.6272 277.908C91.1335 283.631 98.6879 282.028 104.64 279.281C110.592 276.534 120.435 272.872 130.279 276.305C140.123 279.739 142.641 281.571 154.316 277.908C165.991 274.245 171.256 274.932 179.955 278.137C188.654 281.342 191.63 283.86 205.136 279.51C215.941 276.031 222 277.297 223.679 278.366C225.281 279.281 230.226 280.472 237.185 277.908C244.144 275.344 252.141 276.077 255.27 276.763C257.559 277.297 263.19 278.869 267.402 280.884C272.667 283.402 279.535 282.715 284.342 280.655C289.15 278.595 300.367 273.101 310.897 275.619C321.428 278.137 321.428 279.51 330.813 279.053" stroke="#DB7C68" stroke-width="3" stroke-linecap="round" stroke-linejoin="bevel"/>
<path d="M111.278 285.463C114.209 284.181 120.893 284.623 123.869 285.005C126.982 285.371 126.845 286.378 126.387 286.836C126.006 287.141 124.556 287.569 121.809 286.836C119.062 286.104 116.849 286.531 116.086 286.836C115.323 287.141 113.293 287.66 111.278 287.294C109.264 286.928 110.439 285.92 111.278 285.463Z" fill="#FBE475"/>
<path d="M144.014 284.776C147.127 283.494 152.713 283.631 154.544 284.776C154.849 285.005 155.551 285.6 155.918 286.149C156.284 286.699 155.765 286.989 155.46 287.065C155.002 287.141 153.629 287.156 151.797 286.607C149.966 286.058 147.982 286.378 147.219 286.607C146.456 286.76 144.655 286.928 143.556 286.378C142.457 285.829 143.403 285.081 144.014 284.776Z" fill="#FBE475"/>
<path d="M226.883 285.691C230.18 283.677 237.566 283.631 240.847 283.86C242.221 283.929 247.257 284.547 247.257 286.378C247.257 287.843 244.052 287.446 242.45 287.065C241.763 286.912 239.886 286.516 237.871 286.149C235.857 285.783 232.454 286.607 231.004 287.065C229.707 287.446 226.975 288.026 226.425 287.294C225.876 286.561 226.502 285.92 226.883 285.691Z" fill="#FBE475"/>
<path d="M294.415 285.92C297.162 284.638 302.579 285.386 304.945 285.92C306.09 286.149 307.28 287.568 305.632 288.667C303.983 289.766 302.351 288.973 301.74 288.438C301.206 288.057 299.542 287.477 297.162 288.209C294.781 288.942 293.423 288.667 293.041 288.438C292.354 288.133 291.667 287.202 294.415 285.92Z" fill="#FBE475"/>
<path d="M64.1206 256.618C65.4026 260.831 66.0283 266.157 66.1809 268.293L138.062 268.064C136.383 262.341 133.026 248.698 133.026 239.907C133.026 231.117 135.162 220.983 136.23 217.015C126.616 205.34 112.652 202.364 103.266 202.822C93.8802 203.28 82.2053 209.003 76.2533 214.955C70.3014 220.907 68.0122 225.943 68.47 229.148C68.8363 231.712 66.7913 239.221 65.7231 242.654C64.6548 245.554 62.8387 252.406 64.1206 256.618Z" fill="#722A30"/>
<path d="M111.965 209.232C104.639 207.584 103.571 204.272 103.953 202.822C121.167 202.273 132.644 212.055 136.231 217.015C135.864 218.297 135.01 222.433 134.628 224.341C132.431 223.242 127.303 217.931 125.013 215.413C123.716 214.039 119.29 210.88 111.965 209.232Z" fill="#8F4040"/>
<path d="M76.9407 248.606C76.7576 246.958 75.338 245.401 74.6513 244.715C74.3796 244.443 73.8274 244.028 73.278 244.943C72.7286 245.859 73.049 247.156 73.278 247.691C73.6595 248.53 74.6973 250.483 75.7961 251.582C76.8949 252.681 77.1696 252.04 77.1696 251.582C77.1696 251.277 77.1238 250.254 76.9407 248.606Z" fill="#BF5E4F"/>
<path d="M72.1334 252.04C71.584 252.04 71.9045 250.972 72.1334 250.438C72.3623 250.132 72.9115 249.568 73.2778 249.751C73.6441 249.934 73.4304 250.743 73.2778 251.124C73.1253 251.43 72.6828 252.04 72.1334 252.04Z" fill="#BF5E4F"/>
<path d="M83.1209 260.739C81.4726 261.289 76.3296 261.121 73.964 260.968C72.4419 260.892 72.4141 259.868 72.5905 259.366C73.0484 258.145 74.9255 255.749 78.7714 255.932C82.6172 256.115 84.3418 257.992 84.7233 258.908C84.8759 259.289 84.7691 260.19 83.1209 260.739Z" fill="#BF5E4F"/>
<path d="M137.604 243.112C137.604 250.804 140.809 262.952 142.412 268.064L246.571 268.064C249.089 261.884 247.257 238.763 246.342 230.979C245.426 223.196 240.848 199.846 238.787 193.208C236.727 186.569 230.088 176.725 218.185 172.834C206.281 168.942 195.979 168.713 187.738 169.171C179.497 169.629 165.075 175.581 157.063 180.846C149.051 186.111 146.075 195.497 145.159 199.388C144.426 202.502 141.954 214.268 140.809 219.762C139.741 224.341 137.604 235.42 137.604 243.112Z" fill="#722A30"/>
<path d="M153.171 249.064C154.086 249.98 154.621 248.988 154.773 248.377C155.689 244.165 151.339 236.702 149.05 233.497C148.297 232.387 147.821 232.729 147.677 233.04C147.524 233.421 147.173 234.505 146.99 235.787C146.807 237.069 147.371 238.305 147.677 238.763C148.211 239.602 149.554 241.693 150.653 243.341C151.751 244.989 152.026 246.47 152.026 247.004C152.026 247.309 152.255 248.148 153.171 249.064Z" fill="#BF5E4F"/>
<path d="M147.906 248.148C147.356 247.782 147.066 246.47 146.99 245.859C146.914 245.554 146.99 244.898 147.906 244.715C148.822 244.531 149.203 244.944 149.279 245.172C149.508 245.707 149.92 246.958 149.737 247.691C149.508 248.606 148.593 248.606 147.906 248.148Z" fill="#BF5E4F"/>
<path d="M163.702 258.908C162.237 259.274 157.75 259.213 155.689 259.137C152.256 259.137 145.846 259.091 147.677 256.161C149.509 253.23 153.629 253.108 155.46 253.414C160.222 254.146 163.244 256.161 164.159 257.076C164.617 257.534 165.167 258.541 163.702 258.908Z" fill="#BF5E4F"/>
<path d="M231.69 246.317C230.592 245.035 230.775 242.12 231.004 240.823C231.233 238.992 233.293 237.847 233.98 240.365C234.529 242.38 234.208 244.409 233.98 245.172C233.674 246.088 232.789 247.599 231.69 246.317Z" fill="#BF5E4F"/>
<path d="M232.149 224.112C231.782 222.28 233.37 222.28 234.209 222.509C235.674 223.242 234.972 224.341 234.438 224.798C233.828 225.333 232.515 225.943 232.149 224.112Z" fill="#BF5E4F"/>
<path d="M231.004 217.702C229.722 217.885 229.401 214.726 229.401 213.124C229.401 212.055 229.768 210.193 231.233 211.292C232.698 212.391 232.911 214.039 232.835 214.726C232.759 215.642 232.286 217.519 231.004 217.702Z" fill="#BF5E4F"/>
<path d="M224.595 210.147C224.366 212.36 224.412 216.832 226.426 217.015C228.429 217.197 228.143 212.666 228.034 210.188C227.956 208.419 227.525 204.882 226.426 204.882C225.327 204.882 224.748 208.392 224.595 210.147Z" fill="#BF5E4F"/>
<path d="M206.28 176.496C199.32 175.031 191.476 171.002 188.424 169.171C193.689 168.942 206.692 169.262 216.581 172.376C228.943 176.267 233.75 182.906 237.642 190.46C240.755 196.504 244.738 219.839 246.341 230.75L239.931 235.558C238.176 227.851 234.483 211.155 233.75 206.027C233.018 200.899 231.308 197.786 230.545 196.87C229.782 195.878 228.027 193.299 227.111 190.918C226.196 188.537 223.678 186.111 222.533 185.195C220.015 182.906 213.239 177.961 206.28 176.496Z" fill="#8F4040"/>
<path d="M241.305 242.425C242.953 241.143 245.807 238.534 247.028 237.389C247.578 241.784 247.715 253.871 247.715 259.366C247.486 258.679 244.281 257.076 243.365 256.618L243.365 256.618C242.633 256.252 242.45 255.398 242.45 255.016C242.297 252.116 241.809 245.997 241.076 244.715C240.344 243.433 240.924 242.654 241.305 242.425Z" fill="#8F4040"/>
<path d="M249.317 225.485C252.797 250.209 251.53 264.173 250.462 268.065H323.945C325.777 264.768 325.472 260.281 325.09 258.45C324.632 256.161 323.808 250.529 324.174 246.317C324.632 241.052 321.656 229.606 320.283 224.112C319.184 219.717 316.62 215.718 315.475 214.268C306.548 204.882 290.065 202.135 282.74 202.593C275.414 203.051 268.089 206.714 261.679 210.377C256.551 213.307 251.301 221.67 249.317 225.485Z" fill="#722A30"/>
<path d="M292.126 209.232C287.914 208.316 284.114 204.425 282.74 202.593C294.873 202.593 300.596 205.34 305.632 207.401C310.669 209.461 312.729 211.75 315.018 213.81C316.849 215.459 319.139 220.602 320.054 222.967C320.588 225.104 321.886 230.338 322.801 234.184C323.717 238.03 324.099 244.18 324.175 246.775C323.183 246.928 321.062 247.37 320.512 247.92C319.825 248.606 319.139 248.377 319.139 247.691C319.139 247.141 318.681 245.63 318.452 244.944C317.384 241.357 315.064 233.177 314.331 229.148C313.599 225.119 310.821 221.823 309.524 220.678C309.066 220.22 308.196 219.076 308.379 218.16C308.562 217.244 307.693 215.947 307.235 215.413C304.259 212.437 297.391 210.377 292.126 209.232Z" fill="#8F4040"/>
<path d="M319.826 254.1C321.291 253.185 323.336 251.582 324.175 250.896C324.252 252.651 324.542 256.619 325.091 258.45C325.64 260.281 325.167 263.944 324.862 265.546C324.175 265.775 322.39 266.142 320.742 265.775C319.093 265.409 318.834 263.944 318.91 263.257C319.139 261.35 319.505 257.259 319.139 256.161C318.773 255.062 319.444 254.329 319.826 254.1Z" fill="#8F4040"/>
<path d="M312.957 258.45C312.041 257.168 311.965 254.406 312.041 253.185C312.27 249.751 313.643 247.462 315.017 251.353C316.116 254.467 315.627 257.076 315.246 257.992C314.864 258.679 313.872 259.732 312.957 258.45Z" fill="#BF5E4F"/>
<path d="M313.415 244.028C312.865 243.295 313.338 242.044 313.644 241.51C314.102 240.594 314.788 241.052 315.475 241.968C316.024 242.7 315.551 243.494 315.246 243.799C314.865 244.181 313.964 244.761 313.415 244.028Z" fill="#BF5E4F"/>
<path d="M313.187 237.389C312.088 237.023 312.271 235.405 312.5 234.642C312.651 234.138 312.957 233.085 313.873 233.269C314.789 233.452 314.865 234.871 314.789 235.558C314.713 236.321 314.285 237.755 313.187 237.389Z" fill="#BF5E4F"/>
<path d="M307.235 236.702C306.136 235.604 306.777 232.887 307.235 231.666C307.967 229.835 308.913 229.377 309.295 229.377C309.676 229.377 310.485 229.881 310.668 231.895C310.852 233.91 310.287 235.481 309.982 236.016C309.524 236.702 308.333 237.801 307.235 236.702Z" fill="#BF5E4F"/>
<path d="M104.183 217.015V258.221" stroke="#FBE475" stroke-width="3" stroke-linecap="round" stroke-linejoin="bevel"/>
<path d="M109.676 226.172H96.8564L88.6152 236.931L98.6877 248.377H110.592L117.459 236.931L109.676 226.172Z" stroke="#FBE475" stroke-width="3" stroke-linecap="round" stroke-linejoin="bevel"/>
<path d="M88.8438 236.931H117.23" stroke="#FBE475" stroke-width="3" stroke-linecap="round" stroke-linejoin="bevel"/>
<path d="M89.3018 215.871L98.6875 225.943" stroke="#FBE475" stroke-width="3" stroke-linecap="round" stroke-linejoin="bevel"/>
<path d="M119.748 215.413L109.676 225.943" stroke="#FBE475" stroke-width="3" stroke-linecap="round" stroke-linejoin="bevel"/>
<path d="M113.339 222.28L119.978 228.461" stroke="#FBE475" stroke-width="3" stroke-linecap="round" stroke-linejoin="bevel"/>
<path d="M86.3262 226.401L91.8203 232.353" stroke="#FBE475" stroke-width="3" stroke-linecap="round" stroke-linejoin="bevel"/>
<path d="M89.0732 257.992L98.459 248.148" stroke="#FBE475" stroke-width="3" stroke-linecap="round" stroke-linejoin="bevel"/>
<path d="M88.3857 245.401L94.5666 251.353" stroke="#FBE475" stroke-width="3" stroke-linecap="round" stroke-linejoin="bevel"/>
<path d="M110.82 248.606L119.748 257.992" stroke="#FBE475" stroke-width="3" stroke-linecap="round" stroke-linejoin="bevel"/>
<path d="M120.664 244.714L113.797 250.666" stroke="#FBE475" stroke-width="3" stroke-linecap="round" stroke-linejoin="bevel"/>
<path d="M190.257 179.014V253.871" stroke="#F8E480" stroke-width="3" stroke-linecap="round" stroke-linejoin="bevel"/>
<path d="M167.822 183.364L190.028 204.653L212.92 183.364" stroke="#F8E480" stroke-width="3" stroke-linecap="round" stroke-linejoin="bevel"/>
<path d="M167.822 209.69L181.1 196.641" stroke="#F8E480" stroke-width="3" stroke-linecap="round" stroke-linejoin="bevel"/>
<path d="M198.955 196.87L212.004 209.69" stroke="#F8E480" stroke-width="3" stroke-linecap="round" stroke-linejoin="bevel"/>
<path d="M166.448 217.473H213.148" stroke="#F8E480" stroke-width="3" stroke-linecap="round" stroke-linejoin="bevel"/>
<path d="M167.135 221.594L181.557 235.558L167.135 250.437" stroke="#F8E480" stroke-width="3" stroke-linecap="round" stroke-linejoin="bevel"/>
<path d="M212.919 221.823L198.726 235.787L213.605 250.438" stroke="#F8E480" stroke-width="3" stroke-linecap="round" stroke-linejoin="bevel"/>
<path d="M166.677 235.558H214.063" stroke="#F8E480" stroke-width="3" stroke-linecap="round" stroke-linejoin="bevel"/>
<path d="M282.74 217.244V257.305" stroke="#FBE475" stroke-width="3" stroke-linecap="round" stroke-linejoin="bevel"/>
<path d="M289.608 226.401H276.331L268.776 237.618L277.018 247.919H289.608L296.705 237.618L289.608 226.401Z" stroke="#FBE475" stroke-width="3" stroke-linecap="round" stroke-linejoin="bevel"/>
<path d="M269.691 237.389H296.475" stroke="#FBE475" stroke-width="3" stroke-linecap="round" stroke-linejoin="bevel"/>
<path d="M268.547 216.328L277.704 226.172" stroke="#FBE475" stroke-width="3" stroke-linecap="round" stroke-linejoin="bevel"/>
<path d="M298.765 216.1L289.379 226.172" stroke="#FBE475" stroke-width="3" stroke-linecap="round" stroke-linejoin="bevel"/>
<path d="M265.342 227.088L271.98 232.582" stroke="#FBE475" stroke-width="3" stroke-linecap="round" stroke-linejoin="bevel"/>
<path d="M294.873 226.401L298.536 228.461" stroke="#FBE475" stroke-width="3" stroke-linecap="round" stroke-linejoin="bevel"/>
<path d="M268.547 243.799L276.788 248.377L268.776 257.534" stroke="#FBE475" stroke-width="3" stroke-linecap="round" stroke-linejoin="bevel"/>
<path d="M289.379 248.148L298.994 257.534" stroke="#FBE475" stroke-width="3" stroke-linecap="round" stroke-linejoin="bevel"/>
<path d="M299.909 244.714L292.584 250.895" stroke="#FBE475" stroke-width="3" stroke-linecap="round" stroke-linejoin="bevel"/>
<circle cx="128.906" cy="190.918" r="1.83136" fill="#FBE475"/>
<circle cx="134.857" cy="184.966" r="1.83136" fill="#FBE475"/>
<circle cx="140.352" cy="191.376" r="1.83136" fill="#FBE475"/>
<circle cx="134.399" cy="197.328" r="1.83136" fill="#FBE475"/>
<circle cx="252.523" cy="184.966" r="1.83136" fill="#FBE475"/>
<circle cx="258.933" cy="191.376" r="1.83136" fill="#FBE475"/>
<circle cx="252.523" cy="197.328" r="1.83136" fill="#FBE475"/>
<circle cx="246.571" cy="191.376" r="1.83136" fill="#FBE475"/>
<path d="M225.052 192.979C224.136 191.88 225.738 191.147 226.654 190.918C227.799 190.689 227.799 192.063 228.028 193.208C228.211 194.123 227.494 194.352 227.112 194.352C226.807 194.352 225.967 194.077 225.052 192.979Z" fill="#BF5E4F"/>
</svg>
