<svg width="281" height="350" viewBox="0 0 281 350" fill="none" xmlns="http://www.w3.org/2000/svg">
<rect width="281" height="350" rx="20" fill="#202020" fill-opacity="0.5"/>
<path d="M28.352 49.616C28.352 47.7387 28.7573 46.1173 29.568 44.752C30.4 43.3867 31.264 42.704 32.16 42.704C32.3947 42.704 32.6293 42.7787 32.864 42.928L32.96 43.152C32.6827 43.6853 32.512 44.3573 32.448 45.168L32.256 45.296C32.1707 45.2533 32.0107 45.232 31.776 45.232C31.5413 45.232 31.1893 45.36 30.72 45.616C30.272 45.872 29.92 46.128 29.664 46.384C29.5147 46.6827 29.44 47.024 29.44 47.408C29.44 48.4107 30.112 49.2747 31.456 50C32.8213 50.704 34.1333 51.056 35.392 51.056C38.016 51.056 39.328 49.5627 39.328 46.576C39.328 45.4453 38.2507 44.0267 36.096 42.32C35.2 41.5947 34.304 40.8693 33.408 40.144C31.2533 38.4373 30.176 36.9547 30.176 35.696C30.176 34.2027 30.848 32.816 32.192 31.536C33.536 30.2347 35.0613 29.2853 36.768 28.688C38.6027 28.688 40.3413 28.8693 41.984 29.232V29.872C40.8747 30.896 40.256 32.4747 40.128 34.608H39.328C39.328 33.4773 39.2747 32.4853 39.168 31.632C38.2507 31.2053 37.248 30.992 36.16 30.992C35.0933 30.992 34.1867 31.2267 33.44 31.696C32.6933 32.144 32.32 32.72 32.32 33.424C32.32 34.128 32.6293 34.8427 33.248 35.568C33.888 36.272 34.656 36.9653 35.552 37.648C36.448 38.3093 37.3333 38.992 38.208 39.696C39.104 40.3787 39.8613 41.1253 40.48 41.936C41.12 42.7253 41.44 43.4933 41.44 44.24C41.44 46.3733 40.8533 48.272 39.68 49.936C38.5067 51.6 36.9067 52.848 34.88 53.68C32.2133 53.4027 30.08 52.656 28.48 51.44C28.3947 50.8427 28.352 50.2347 28.352 49.616ZM49.275 34.384C49.1043 35.536 49.019 37.8933 49.019 41.456C49.019 45.0187 49.115 47.5147 49.307 48.944C50.267 49.0507 51.1523 49.2107 51.963 49.424L51.867 50.224C50.7577 50.0747 49.5097 50 48.123 50C46.7577 50 45.531 50.0853 44.443 50.256L44.315 49.424C44.9123 49.232 45.5843 49.072 46.331 48.944C46.523 47.408 46.619 45.232 46.619 42.416V40.912C46.619 38.096 46.5123 35.92 46.299 34.384C45.5523 34.256 44.8803 34.096 44.283 33.904L44.411 33.072C45.499 33.2427 46.7257 33.328 48.091 33.328C49.4777 33.328 50.7257 33.2533 51.835 33.104L51.931 33.904C51.1203 34.1173 50.235 34.2773 49.275 34.384ZM65.838 50.352C64.4513 50.1173 62.5633 50 60.174 50C57.806 50 55.822 50.1067 54.222 50.32L54.126 49.52C54.7233 49.2853 55.406 49.0933 56.174 48.944C56.3873 47.664 56.494 45.488 56.494 42.416V40.912C56.494 38.2667 56.3873 36.0907 56.174 34.384C55.47 34.2773 54.798 34.1173 54.158 33.904L54.286 33.072C55.374 33.2427 56.654 33.328 58.126 33.328C59.598 33.328 60.8567 33.2427 61.902 33.072L61.998 33.872C61.038 34.1067 60.0887 34.2773 59.15 34.384C58.9793 35.536 58.894 37.9147 58.894 41.52C58.894 45.104 58.9793 47.4933 59.15 48.688C59.662 48.7733 60.3873 48.816 61.326 48.816C62.2647 48.816 63.1073 48.6347 63.854 48.272C64.1527 47.5467 64.302 46.6933 64.302 45.712H65.102C65.1873 47.3547 65.486 48.688 65.998 49.712L65.838 50.352ZM77.0773 50.192C76.1599 50.064 75.0079 50 73.6213 50C72.2559 50 71.2639 50.0427 70.6453 50.128L70.5493 49.616C70.7413 49.5733 70.9226 49.4667 71.0933 49.296C71.2853 49.104 71.3813 48.9333 71.3813 48.784C71.3813 47.568 70.2613 43.4613 68.0213 36.464C67.7226 35.5253 67.4666 34.8427 67.2533 34.416C66.5493 34.3307 65.7812 34.16 64.9492 33.904L65.0772 33.072C65.9306 33.2427 67.1573 33.328 68.7573 33.328C70.3573 33.328 71.6693 33.2427 72.6933 33.072L72.8213 33.872C71.6693 34.128 70.8799 34.288 70.4533 34.352C70.6026 35.76 71.0399 37.84 71.7653 40.592C72.5119 43.344 73.3119 45.8933 74.1653 48.24C75.5946 45.0613 76.5439 42.6507 77.0133 41.008C77.5039 39.3653 77.7493 37.8613 77.7493 36.496C77.7493 35.1307 77.3119 34.2133 76.4373 33.744L76.5653 33.2C77.2053 33.3067 78.0159 33.36 78.9973 33.36C79.9999 33.36 81.1199 33.2747 82.3573 33.104L82.4853 33.936C81.7599 34.1707 81.0773 34.3413 80.4373 34.448C80.5226 35.088 80.5653 35.6747 80.5653 36.208C80.5653 36.72 80.4799 37.3493 80.3093 38.096C80.1599 38.8213 79.7973 39.824 79.2213 41.104C78.4746 42.6827 77.1306 45.296 75.1892 48.944C75.6159 48.9867 76.2986 49.168 77.2373 49.488L77.0773 50.192ZM86.2545 42.096C86.3185 43.9947 86.6705 45.4773 87.3105 46.544C87.9505 47.6107 89.0385 48.144 90.5745 48.144C92.1105 48.144 93.5292 47.4933 94.8305 46.192L95.2785 46.64C93.8492 48.4533 92.1318 49.7013 90.1265 50.384C88.0572 50.384 86.4358 49.7333 85.2625 48.432C84.0892 47.1093 83.5025 45.3387 83.5025 43.12C83.5025 40.88 84.1958 38.7787 85.5825 36.816C86.9692 34.8533 88.7398 33.5627 90.8945 32.944C92.4518 32.944 94.2118 33.104 96.1745 33.424L96.1425 34.128C95.7372 34.128 95.3532 34.2027 94.9905 34.352C94.5852 35.312 94.3185 36.4533 94.1905 37.776H93.3905C93.2198 37.0507 93.1345 36.304 93.1345 35.536C92.3238 35.1307 91.3638 34.928 90.2545 34.928C89.1452 34.928 88.2278 35.2267 87.5025 35.824C86.7772 37.1467 86.3612 38.7253 86.2545 40.56C87.1505 40.7093 88.1105 40.784 89.1345 40.784C90.9052 40.784 91.9718 40.4107 92.3345 39.664L93.0065 39.76C92.8145 40.4 92.7185 41.0293 92.7185 41.648C92.7185 42.2667 92.7932 43.024 92.9425 43.92L92.1745 44.048C91.9398 43.408 91.7692 42.7467 91.6625 42.064C90.8092 41.9787 89.9558 41.936 89.1025 41.936C88.2705 41.936 87.3212 41.9893 86.2545 42.096ZM97.7823 33.392L105.142 33.168C107.062 33.168 108.502 33.456 109.462 34.032C110.422 34.5867 110.902 35.6107 110.902 37.104C110.902 38.128 110.582 39.0347 109.942 39.824C109.324 40.6133 108.502 41.2 107.478 41.584L111.062 48.912C111.788 49.04 112.47 49.1893 113.11 49.36L112.982 50.224C112.086 50.0747 111.073 50 109.942 50C108.833 50 107.958 50.0533 107.318 50.16L107.19 49.648C107.468 49.3707 107.606 48.912 107.606 48.272C107.606 46.9707 106.86 44.88 105.366 42C104.918 41.9147 104.396 41.872 103.798 41.872L103.862 40.944H104.182C106.7 40.944 107.958 39.792 107.958 37.488C107.958 35.3547 106.881 34.288 104.726 34.288C104.001 34.288 103.35 34.4053 102.774 34.64C102.625 36.048 102.55 38.4587 102.55 41.872C102.55 45.2853 102.646 47.6427 102.838 48.944C103.777 49.0507 104.652 49.2107 105.462 49.424L105.366 50.224C104.257 50.0747 103.009 50 101.622 50C100.257 50 99.0303 50.0853 97.9423 50.256L97.8143 49.424C98.4116 49.232 99.0836 49.072 99.8303 48.944C100.044 47.344 100.15 44.8587 100.15 41.488C100.15 38.096 100.054 35.7493 99.8623 34.448C99.0303 34.1707 98.3369 34.032 97.7823 34.032V33.392ZM124.696 48.88C125.08 49.52 125.613 50.0427 126.296 50.448C127 50.8747 127.811 51.088 128.728 51.088C129.667 51.088 130.605 50.8107 131.544 50.256C132.504 49.7227 133.304 49.0507 133.944 48.24L134.392 48.688C132.835 51.12 130.723 52.784 128.056 53.68C126.221 53.68 124.717 53.2107 123.544 52.272C122.371 51.3333 121.539 50.128 121.048 48.656C120.579 47.184 120.344 45.3707 120.344 43.216C120.344 41.0613 120.611 39.024 121.144 37.104C121.699 35.1627 122.648 33.424 123.992 31.888C125.336 30.3307 127.011 29.264 129.016 28.688C131.171 28.688 133.368 28.8907 135.608 29.296L135.576 30C135.021 30 134.509 30.096 134.04 30.288C133.507 31.5467 133.155 33.0507 132.984 34.8H132.184C131.992 33.7973 131.896 32.8373 131.896 31.92C130.765 31.3013 129.517 30.992 128.152 30.992C126.808 30.992 125.699 31.3973 124.824 32.208C123.736 34.4053 123.192 37.232 123.192 40.688C123.192 44.5493 123.693 47.28 124.696 48.88ZM143.354 50.384C141.242 50.384 139.535 49.7227 138.234 48.4C136.932 47.056 136.282 45.264 136.282 43.024C136.282 40.784 136.964 38.6827 138.33 36.72C139.695 34.7573 141.476 33.4987 143.674 32.944C145.871 32.944 147.546 33.5733 148.698 34.832C149.85 36.0693 150.426 37.84 150.426 40.144C150.426 42.448 149.796 44.528 148.538 46.384C147.3 48.24 145.572 49.5733 143.354 50.384ZM142.81 34.896C141.85 34.896 141.018 35.1627 140.314 35.696C139.439 37.1893 139.002 39.0667 139.002 41.328C139.002 43.9307 139.727 45.9253 141.178 47.312C141.946 48.0587 142.852 48.432 143.898 48.432C144.943 48.432 145.786 48.1547 146.426 47.6C147.279 46.1067 147.706 44.2827 147.706 42.128C147.706 39.9733 147.322 38.2347 146.554 36.912C145.786 35.568 144.538 34.896 142.81 34.896ZM158.181 34.384C158.011 35.536 157.925 37.8933 157.925 41.456C157.925 45.0187 158.021 47.5147 158.213 48.944C159.173 49.0507 160.059 49.2107 160.869 49.424L160.773 50.224C159.664 50.0747 158.416 50 157.029 50C155.664 50 154.437 50.0853 153.349 50.256L153.221 49.424C153.819 49.232 154.491 49.072 155.237 48.944C155.429 47.408 155.525 45.232 155.525 42.416V40.912C155.525 38.096 155.419 35.92 155.205 34.384C154.459 34.256 153.787 34.096 153.189 33.904L153.317 33.072C154.405 33.2427 155.632 33.328 156.997 33.328C158.384 33.328 159.632 33.2533 160.741 33.104L160.837 33.904C160.027 34.1173 159.141 34.2773 158.181 34.384ZM170.744 50.224C169.635 50.0747 168.387 50 167 50C165.635 50 164.408 50.0853 163.32 50.256L163.192 49.424C163.875 49.2107 164.515 49.0507 165.112 48.944C165.304 47.28 165.4 45.104 165.4 42.416V40.912C165.4 38.0533 165.294 35.856 165.08 34.32C164.504 34.256 163.811 34.0853 163 33.808L163.096 32.976C164.312 33.2107 165.582 33.328 166.904 33.328C168.248 33.328 169.208 33.2533 169.784 33.104L169.848 33.648C169.272 33.7973 168.984 34.0427 168.984 34.384C168.984 34.64 169.23 35.184 169.72 36.016C170.232 36.8267 170.723 37.616 171.192 38.384C172.6 40.624 174.264 43.376 176.184 46.64L176.28 46.576V42.672C176.28 39.8133 176.131 37.6693 175.832 36.24C175.534 34.7893 175.022 33.9467 174.296 33.712L174.36 33.168C174.915 33.2747 175.747 33.328 176.856 33.328C177.966 33.328 179.107 33.2107 180.28 32.976L180.376 33.808C179.502 34.0853 178.766 34.256 178.168 34.32C177.955 36.0267 177.848 38.224 177.848 40.912V42.416C177.848 45.6587 177.955 47.856 178.168 49.008C179.064 49.1573 179.779 49.328 180.312 49.52L180.216 50.352C179.15 50.1173 178.147 50 177.208 50C176.27 50 175.544 50.0427 175.032 50.128C175.032 49.6587 174.702 48.8693 174.04 47.76C173.4 46.6507 172.814 45.6693 172.28 44.816C170.552 42.0213 168.856 39.184 167.192 36.304L167.064 36.368V40.656C167.064 44.9013 167.384 47.664 168.024 48.944C168.984 49.0507 169.923 49.2107 170.84 49.424L170.744 50.224Z" fill="#FAF9F6"/>
<path d="M28.72 258.24V256.8H36.736V258.24H28.72ZM31.872 261.328V253.6H33.552V261.328H31.872ZM38.9411 262L38.4131 260.688L41.8371 256.832C42.0185 256.64 42.2051 256.421 42.3971 256.176C42.5998 255.92 42.7918 255.659 42.9731 255.392C43.1545 255.125 43.2985 254.864 43.4051 254.608C43.5225 254.341 43.5811 254.091 43.5811 253.856C43.5811 253.515 43.5118 253.227 43.3731 252.992C43.2451 252.747 43.0531 252.56 42.7971 252.432C42.5518 252.304 42.2531 252.24 41.9011 252.24C41.5918 252.24 41.2878 252.331 40.9891 252.512C40.6905 252.693 40.4185 252.949 40.1731 253.28C39.9278 253.611 39.7358 253.995 39.5971 254.432L38.2691 253.6C38.4505 252.981 38.7225 252.453 39.0851 252.016C39.4585 251.568 39.9011 251.227 40.4131 250.992C40.9358 250.757 41.5011 250.64 42.1091 250.64C42.7385 250.64 43.2985 250.773 43.7891 251.04C44.2798 251.296 44.6638 251.659 44.9411 252.128C45.2185 252.587 45.3571 253.12 45.3571 253.728C45.3571 253.973 45.3305 254.224 45.2771 254.48C45.2238 254.736 45.1385 255.003 45.0211 255.28C44.9038 255.547 44.7545 255.829 44.5731 256.128C44.3918 256.416 44.1731 256.72 43.9171 257.04C43.6718 257.36 43.3891 257.696 43.0691 258.048L40.5251 260.816L40.2051 260.336H45.7091V262H38.9411ZM51.8231 262V253.6H53.4871V255.392L53.1831 255.584C53.2685 255.307 53.4018 255.04 53.5831 254.784C53.7751 254.528 54.0045 254.304 54.2711 254.112C54.5485 253.909 54.8418 253.749 55.1511 253.632C55.4711 253.515 55.7965 253.456 56.1271 253.456C56.6071 253.456 57.0285 253.536 57.3911 253.696C57.7538 253.856 58.0525 254.096 58.2871 254.416C58.5218 254.736 58.6925 255.136 58.7991 255.616L58.5431 255.552L58.6551 255.28C58.7725 255.035 58.9325 254.805 59.1351 254.592C59.3485 254.368 59.5885 254.171 59.8551 254C60.1218 253.829 60.4045 253.696 60.7031 253.6C61.0018 253.504 61.2951 253.456 61.5831 253.456C62.2125 253.456 62.7298 253.584 63.1351 253.84C63.5511 254.096 63.8605 254.485 64.0631 255.008C64.2765 255.531 64.3831 256.181 64.3831 256.96V262H62.7191V257.056C62.7191 256.576 62.6551 256.187 62.5271 255.888C62.4098 255.579 62.2285 255.349 61.9831 255.2C61.7378 255.051 61.4231 254.976 61.0391 254.976C60.7405 254.976 60.4578 255.029 60.1911 255.136C59.9351 255.232 59.7111 255.371 59.5191 255.552C59.3271 255.733 59.1778 255.947 59.0711 256.192C58.9645 256.427 58.9111 256.688 58.9111 256.976V262H57.2471V257.024C57.2471 256.587 57.1831 256.219 57.0551 255.92C56.9271 255.611 56.7405 255.376 56.4951 255.216C56.2498 255.056 55.9511 254.976 55.5991 254.976C55.3005 254.976 55.0231 255.029 54.7671 255.136C54.5111 255.232 54.2871 255.371 54.0951 255.552C53.9031 255.723 53.7538 255.931 53.6471 256.176C53.5405 256.411 53.4871 256.667 53.4871 256.944V262H51.8231ZM69.8215 262.16C69.1282 262.16 68.4935 261.968 67.9175 261.584C67.3522 261.2 66.8988 260.677 66.5575 260.016C66.2162 259.355 66.0455 258.608 66.0455 257.776C66.0455 256.933 66.2162 256.187 66.5575 255.536C66.9095 254.875 67.3788 254.357 67.9655 253.984C68.5628 253.611 69.2295 253.424 69.9655 253.424C70.4028 253.424 70.8028 253.488 71.1655 253.616C71.5282 253.744 71.8428 253.925 72.1095 254.16C72.3868 254.384 72.6108 254.645 72.7815 254.944C72.9628 255.243 73.0748 255.563 73.1175 255.904L72.7495 255.776V253.6H74.4135V262H72.7495V260L73.1335 259.888C73.0695 260.176 72.9362 260.459 72.7335 260.736C72.5415 261.003 72.2908 261.243 71.9815 261.456C71.6828 261.669 71.3468 261.84 70.9735 261.968C70.6108 262.096 70.2268 262.16 69.8215 262.16ZM70.2535 260.64C70.7548 260.64 71.1975 260.517 71.5815 260.272C71.9655 260.027 72.2642 259.691 72.4775 259.264C72.7015 258.827 72.8135 258.331 72.8135 257.776C72.8135 257.232 72.7015 256.747 72.4775 256.32C72.2642 255.893 71.9655 255.557 71.5815 255.312C71.1975 255.067 70.7548 254.944 70.2535 254.944C69.7628 254.944 69.3255 255.067 68.9415 255.312C68.5682 255.557 68.2695 255.893 68.0455 256.32C67.8322 256.747 67.7255 257.232 67.7255 257.776C67.7255 258.331 67.8322 258.827 68.0455 259.264C68.2695 259.691 68.5682 260.027 68.9415 260.272C69.3255 260.517 69.7628 260.64 70.2535 260.64ZM80.4745 265.68C79.8772 265.68 79.2798 265.584 78.6825 265.392C78.0958 265.211 77.6212 264.971 77.2585 264.672L77.8665 263.392C78.0798 263.552 78.3305 263.691 78.6185 263.808C78.9065 263.936 79.2105 264.032 79.5305 264.096C79.8505 264.171 80.1652 264.208 80.4745 264.208C81.0612 264.208 81.5518 264.112 81.9465 263.92C82.3412 263.728 82.6398 263.445 82.8425 263.072C83.0452 262.699 83.1465 262.235 83.1465 261.68V260.064L83.3225 260.176C83.2692 260.507 83.0932 260.827 82.7945 261.136C82.5065 261.435 82.1438 261.68 81.7065 261.872C81.2692 262.064 80.8212 262.16 80.3625 262.16C79.5625 262.16 78.8478 261.973 78.2185 261.6C77.5998 261.216 77.1092 260.699 76.7465 260.048C76.3838 259.387 76.2025 258.635 76.2025 257.792C76.2025 256.949 76.3785 256.203 76.7305 255.552C77.0932 254.891 77.5838 254.373 78.2025 254C78.8318 253.616 79.5358 253.424 80.3145 253.424C80.6345 253.424 80.9438 253.467 81.2425 253.552C81.5412 253.627 81.8185 253.739 82.0745 253.888C82.3305 254.027 82.5598 254.181 82.7625 254.352C82.9652 254.523 83.1305 254.704 83.2585 254.896C83.3865 255.088 83.4665 255.269 83.4985 255.44L83.1465 255.568V253.6H84.7945V261.488C84.7945 262.16 84.6932 262.752 84.4905 263.264C84.2985 263.787 84.0158 264.224 83.6425 264.576C83.2692 264.939 82.8158 265.211 82.2825 265.392C81.7492 265.584 81.1465 265.68 80.4745 265.68ZM80.5385 260.64C81.0612 260.64 81.5252 260.517 81.9305 260.272C82.3358 260.027 82.6505 259.691 82.8745 259.264C83.0985 258.837 83.2105 258.347 83.2105 257.792C83.2105 257.237 83.0932 256.747 82.8585 256.32C82.6345 255.883 82.3198 255.541 81.9145 255.296C81.5198 255.051 81.0612 254.928 80.5385 254.928C80.0265 254.928 79.5678 255.056 79.1625 255.312C78.7678 255.557 78.4532 255.899 78.2185 256.336C77.9945 256.763 77.8825 257.248 77.8825 257.792C77.8825 258.336 77.9945 258.827 78.2185 259.264C78.4532 259.691 78.7678 260.027 79.1625 260.272C79.5678 260.517 80.0265 260.64 80.5385 260.64ZM87.3771 262V253.6H89.0251V262H87.3771ZM88.1771 251.744C87.8251 251.744 87.5531 251.653 87.3611 251.472C87.1691 251.291 87.0731 251.035 87.0731 250.704C87.0731 250.395 87.1691 250.144 87.3611 249.952C87.5638 249.76 87.8358 249.664 88.1771 249.664C88.5291 249.664 88.8011 249.755 88.9931 249.936C89.1851 250.117 89.2811 250.373 89.2811 250.704C89.2811 251.013 89.1798 251.264 88.9771 251.456C88.7851 251.648 88.5185 251.744 88.1771 251.744ZM95.1263 262.16C94.3476 262.16 93.6489 261.968 93.0303 261.584C92.4223 261.2 91.9369 260.677 91.5743 260.016C91.2223 259.355 91.0463 258.613 91.0463 257.792C91.0463 256.971 91.2223 256.229 91.5743 255.568C91.9369 254.907 92.4223 254.384 93.0303 254C93.6489 253.616 94.3476 253.424 95.1263 253.424C95.8729 253.424 96.5503 253.579 97.1583 253.888C97.7769 254.187 98.2463 254.597 98.5663 255.12L97.6543 256.24C97.4836 255.995 97.2649 255.771 96.9983 255.568C96.7316 255.365 96.4489 255.205 96.1503 255.088C95.8516 254.971 95.5636 254.912 95.2863 254.912C94.7743 254.912 94.3156 255.04 93.9103 255.296C93.5156 255.541 93.2009 255.883 92.9663 256.32C92.7316 256.757 92.6143 257.248 92.6143 257.792C92.6143 258.336 92.7369 258.827 92.9823 259.264C93.2276 259.691 93.5529 260.032 93.9583 260.288C94.3636 260.544 94.8116 260.672 95.3023 260.672C95.5903 260.672 95.8676 260.624 96.1343 260.528C96.4116 260.432 96.6783 260.288 96.9343 260.096C97.1903 259.904 97.4303 259.669 97.6543 259.392L98.5663 260.512C98.2249 260.992 97.7343 261.387 97.0943 261.696C96.4649 262.005 95.8089 262.16 95.1263 262.16ZM108.365 265.68C107.768 265.68 107.17 265.584 106.573 265.392C105.986 265.211 105.512 264.971 105.149 264.672L105.757 263.392C105.97 263.552 106.221 263.691 106.509 263.808C106.797 263.936 107.101 264.032 107.421 264.096C107.741 264.171 108.056 264.208 108.365 264.208C108.952 264.208 109.442 264.112 109.837 263.92C110.232 263.728 110.53 263.445 110.733 263.072C110.936 262.699 111.037 262.235 111.037 261.68V260.064L111.213 260.176C111.16 260.507 110.984 260.827 110.685 261.136C110.397 261.435 110.034 261.68 109.597 261.872C109.16 262.064 108.712 262.16 108.253 262.16C107.453 262.16 106.738 261.973 106.109 261.6C105.49 261.216 105 260.699 104.637 260.048C104.274 259.387 104.093 258.635 104.093 257.792C104.093 256.949 104.269 256.203 104.621 255.552C104.984 254.891 105.474 254.373 106.093 254C106.722 253.616 107.426 253.424 108.205 253.424C108.525 253.424 108.834 253.467 109.133 253.552C109.432 253.627 109.709 253.739 109.965 253.888C110.221 254.027 110.45 254.181 110.653 254.352C110.856 254.523 111.021 254.704 111.149 254.896C111.277 255.088 111.357 255.269 111.389 255.44L111.037 255.568V253.6H112.685V261.488C112.685 262.16 112.584 262.752 112.381 263.264C112.189 263.787 111.906 264.224 111.533 264.576C111.16 264.939 110.706 265.211 110.173 265.392C109.64 265.584 109.037 265.68 108.365 265.68ZM108.429 260.64C108.952 260.64 109.416 260.517 109.821 260.272C110.226 260.027 110.541 259.691 110.765 259.264C110.989 258.837 111.101 258.347 111.101 257.792C111.101 257.237 110.984 256.747 110.749 256.32C110.525 255.883 110.21 255.541 109.805 255.296C109.41 255.051 108.952 254.928 108.429 254.928C107.917 254.928 107.458 255.056 107.053 255.312C106.658 255.557 106.344 255.899 106.109 256.336C105.885 256.763 105.773 257.248 105.773 257.792C105.773 258.336 105.885 258.827 106.109 259.264C106.344 259.691 106.658 260.027 107.053 260.272C107.458 260.517 107.917 260.64 108.429 260.64ZM118.916 262.16C118.052 262.16 117.284 261.979 116.612 261.616C115.95 261.243 115.428 260.736 115.044 260.096C114.67 259.456 114.484 258.72 114.484 257.888C114.484 257.227 114.59 256.624 114.804 256.08C115.017 255.536 115.31 255.067 115.684 254.672C116.068 254.267 116.521 253.957 117.044 253.744C117.577 253.52 118.153 253.408 118.772 253.408C119.316 253.408 119.822 253.515 120.292 253.728C120.761 253.931 121.166 254.213 121.508 254.576C121.86 254.939 122.126 255.371 122.308 255.872C122.5 256.363 122.59 256.901 122.58 257.488L122.564 258.192H115.7L115.332 256.88H121.14L120.9 257.152V256.768C120.868 256.416 120.75 256.101 120.548 255.824C120.345 255.547 120.089 255.328 119.78 255.168C119.47 255.008 119.134 254.928 118.772 254.928C118.196 254.928 117.71 255.04 117.316 255.264C116.921 255.477 116.622 255.797 116.42 256.224C116.217 256.64 116.116 257.157 116.116 257.776C116.116 258.363 116.238 258.875 116.484 259.312C116.729 259.739 117.076 260.069 117.524 260.304C117.972 260.539 118.489 260.656 119.076 260.656C119.492 260.656 119.876 260.587 120.228 260.448C120.59 260.309 120.98 260.059 121.396 259.696L122.228 260.864C121.972 261.12 121.657 261.344 121.284 261.536C120.921 261.728 120.532 261.883 120.116 262C119.71 262.107 119.31 262.16 118.916 262.16ZM124.339 262V253.6H126.003V255.392L125.699 255.584C125.784 255.307 125.917 255.04 126.099 254.784C126.291 254.528 126.52 254.304 126.787 254.112C127.064 253.909 127.357 253.749 127.667 253.632C127.987 253.515 128.312 253.456 128.643 253.456C129.123 253.456 129.544 253.536 129.907 253.696C130.269 253.856 130.568 254.096 130.803 254.416C131.037 254.736 131.208 255.136 131.315 255.616L131.059 255.552L131.171 255.28C131.288 255.035 131.448 254.805 131.651 254.592C131.864 254.368 132.104 254.171 132.371 254C132.637 253.829 132.92 253.696 133.219 253.6C133.517 253.504 133.811 253.456 134.099 253.456C134.728 253.456 135.245 253.584 135.651 253.84C136.067 254.096 136.376 254.485 136.579 255.008C136.792 255.531 136.899 256.181 136.899 256.96V262H135.235V257.056C135.235 256.576 135.171 256.187 135.043 255.888C134.925 255.579 134.744 255.349 134.499 255.2C134.253 255.051 133.939 254.976 133.555 254.976C133.256 254.976 132.973 255.029 132.707 255.136C132.451 255.232 132.227 255.371 132.035 255.552C131.843 255.733 131.693 255.947 131.587 256.192C131.48 256.427 131.427 256.688 131.427 256.976V262H129.763V257.024C129.763 256.587 129.699 256.219 129.571 255.92C129.443 255.611 129.256 255.376 129.011 255.216C128.765 255.056 128.467 254.976 128.115 254.976C127.816 254.976 127.539 255.029 127.283 255.136C127.027 255.232 126.803 255.371 126.611 255.552C126.419 255.723 126.269 255.931 126.163 256.176C126.056 256.411 126.003 256.667 126.003 256.944V262H124.339ZM141.905 262.16C141.201 262.16 140.566 262.037 140.001 261.792C139.436 261.547 138.966 261.184 138.593 260.704L139.713 259.744C140.033 260.117 140.38 260.389 140.753 260.56C141.137 260.72 141.569 260.8 142.049 260.8C142.241 260.8 142.417 260.779 142.577 260.736C142.748 260.683 142.892 260.608 143.009 260.512C143.137 260.416 143.233 260.304 143.297 260.176C143.361 260.037 143.393 259.888 143.393 259.728C143.393 259.451 143.292 259.227 143.089 259.056C142.982 258.981 142.812 258.901 142.577 258.816C142.353 258.72 142.06 258.624 141.697 258.528C141.078 258.368 140.572 258.187 140.177 257.984C139.782 257.781 139.478 257.552 139.265 257.296C139.105 257.093 138.988 256.875 138.913 256.64C138.838 256.395 138.801 256.128 138.801 255.84C138.801 255.488 138.876 255.168 139.025 254.88C139.185 254.581 139.398 254.325 139.665 254.112C139.942 253.888 140.262 253.717 140.625 253.6C140.998 253.483 141.393 253.424 141.809 253.424C142.204 253.424 142.593 253.477 142.977 253.584C143.372 253.691 143.734 253.845 144.065 254.048C144.396 254.251 144.673 254.491 144.897 254.768L143.953 255.808C143.75 255.605 143.526 255.429 143.281 255.28C143.046 255.12 142.806 254.997 142.561 254.912C142.316 254.827 142.092 254.784 141.889 254.784C141.665 254.784 141.462 254.805 141.281 254.848C141.1 254.891 140.945 254.955 140.817 255.04C140.7 255.125 140.609 255.232 140.545 255.36C140.481 255.488 140.449 255.632 140.449 255.792C140.46 255.931 140.492 256.064 140.545 256.192C140.609 256.309 140.694 256.411 140.801 256.496C140.918 256.581 141.094 256.672 141.329 256.768C141.564 256.864 141.862 256.955 142.225 257.04C142.758 257.179 143.196 257.333 143.537 257.504C143.889 257.664 144.166 257.851 144.369 258.064C144.582 258.267 144.732 258.501 144.817 258.768C144.902 259.035 144.945 259.333 144.945 259.664C144.945 260.144 144.806 260.576 144.529 260.96C144.262 261.333 143.9 261.627 143.441 261.84C142.982 262.053 142.47 262.16 141.905 262.16Z" fill="#FAF9F6"/>
<path d="M182.969 200.901C138.357 237.129 102.965 213.236 90.8462 196.761L137.296 201.936L171.713 189.127L182.969 200.901Z" fill="#727778"/>
<path d="M195.132 115.765C223.286 155.616 198.755 189.127 182.969 200.901L170.419 187.962L191.25 159.886L195.132 115.765Z" fill="#717372"/>
<path d="M205.612 168.813L194.484 157.557L197.59 150.052L207.423 160.144C207.319 161.904 206.172 166.657 205.612 168.813Z" fill="#A6AAAB"/>
<path d="M203.412 174.636L191.767 163.12L171.065 188.609L182.969 200.901C194.458 192.31 201.385 179.811 203.412 174.636Z" fill="#A6AAAB"/>
<path d="M163.173 90.5346C201.678 102.335 202.161 135.13 197.59 150.052L76.6138 143.971C78.4252 129.609 115.041 75.7846 163.173 90.5346Z" fill="#D3D6D5"/>
<path d="M107.925 204.782C73.4569 196.398 72.6892 160.748 76.6139 143.971L197.59 150.052C184.004 186.927 151.011 215.263 107.925 204.782Z" fill="#CACCCE"/>
<path d="M129.533 195.596C160.689 194.458 180.295 164.414 186.204 149.535L86.706 144.489C80.7543 171.401 90.5876 197.019 129.533 195.596Z" fill="#ABB1B3"/>
<path d="M163.173 101.662C191.328 111.288 190.258 137.588 186.204 149.535L86.8354 144.618C88.2587 126.763 127.98 89.6289 163.173 101.662Z" fill="#DEDEDE"/>
<path d="M111.677 177.87C109.4 178.698 108.399 177.353 108.184 176.576L127.721 167.519L133.155 169.072C126.945 171.66 113.954 177.042 111.677 177.87Z" fill="#727778"/>
<path d="M150.494 175.412C149.873 181.726 145.75 179.682 143.766 177.87L147 160.274C153.168 152.899 166.356 138.563 169.772 140.219C173.188 141.875 172.231 143.669 171.325 144.359C167.012 147.551 157.791 154.348 155.41 156.004C153.03 157.66 152.348 159.196 152.305 159.756C151.96 162.344 151.115 169.098 150.494 175.412Z" fill="#727778"/>
<path d="M113.618 157.039C114.446 155.383 114.739 153.675 114.782 153.028H115.817L116.464 160.662C113.531 165.665 107.459 175.489 106.631 174.765C105.803 174.04 106.027 172.824 106.243 172.307C108.356 167.907 112.79 158.695 113.618 157.039Z" fill="#FAFAFA"/>
<path d="M114.912 153.675L109.607 145.653L161.491 148.241C159.335 149.837 154.608 153.339 152.952 154.581C151.296 155.823 150.623 157.6 150.494 158.333C150.019 161.956 148.967 170.314 148.553 174.765C148.139 179.216 145.016 178.603 143.507 177.741C139.496 175.024 131.267 169.434 130.439 168.813C129.611 168.192 128.368 168.468 127.851 168.684C122.805 170.797 111.911 175.308 108.702 176.447C105.493 177.586 105.985 174.851 106.632 173.342C109.219 167.908 114.498 156.806 114.912 155.875C115.326 154.943 115.085 154.02 114.912 153.675Z" fill="#CACCCE"/>
<path d="M149.07 120.811C148.656 117.706 147.172 117.188 146.482 117.318L148.164 134.138L151.657 135.173C150.967 131.679 149.484 123.916 149.07 120.811Z" fill="#727778"/>
<path d="M168.478 138.019L149.329 134.138L149.199 135.561C155.237 137.329 167.65 140.633 168.995 139.701C170.341 138.77 169.211 138.192 168.478 138.019Z" fill="#FAFAFA"/>
<path d="M107.926 135.302C103.889 135.923 104.95 139.097 105.985 140.607L123.193 138.019C130.956 133.793 146.353 124.02 145.836 118.741C145.318 113.462 142.515 115.247 141.178 116.8C138.504 120.035 132.613 127.228 130.439 130.127C128.265 133.025 126.169 133.836 125.393 133.879C121.253 134.095 111.963 134.681 107.926 135.302Z" fill="#FAFAFA"/>
<path d="M106.114 140.866L109.608 145.653L161.362 148.241C162.483 147.508 165.528 145.42 168.737 142.936C171.946 140.452 169.556 138.968 167.961 138.537C164.338 137.76 156.368 136.104 153.469 135.69C150.571 135.276 149.588 133.706 149.458 132.973C148.984 130.299 147.802 123.683 146.871 118.611C145.939 113.539 143.032 115.463 141.695 117.059C139.366 119.948 134.087 126.581 131.603 129.997C129.119 133.413 126.859 134.44 126.04 134.526C123.84 134.698 117.785 135.121 111.16 135.431C104.536 135.742 105.036 139.184 106.114 140.866Z" fill="#D3D6D5"/>
<path d="M118.923 106.708C153.392 89.3183 175.465 105.155 182.193 115.247C156.963 90.9227 131.474 103.473 118.923 109.684C106.373 115.894 94.4694 129.35 88.647 144.618C83.9891 156.832 87.31 171.875 89.5527 177.87C82.1 168.14 84.3341 151.562 86.4474 144.489C91.9368 126.116 109.737 111.538 118.923 106.708Z" fill="#5B5F60"/>
</svg>
