<svg width="395" height="491" viewBox="0 0 395 491" fill="none" xmlns="http://www.w3.org/2000/svg">
<path d="M285.696 245.802L270.302 230.229L274.598 219.847L288.202 233.809C288.059 236.243 286.471 242.819 285.696 245.802Z" fill="#A6AAAB"/>
<rect width="394.099" height="490.871" rx="20" fill="#202020" fill-opacity="0.5"/>
<path d="M39.44 75.52C39.44 73.1733 39.9467 71.1467 40.96 69.44C42 67.7333 43.08 66.88 44.2 66.88C44.4933 66.88 44.7867 66.9733 45.08 67.16L45.2 67.44C44.8533 68.1067 44.64 68.9467 44.56 69.96L44.32 70.12C44.2133 70.0667 44.0133 70.04 43.72 70.04C43.4267 70.04 42.9867 70.2 42.4 70.52C41.84 70.84 41.4 71.16 41.08 71.48C40.8933 71.8533 40.8 72.28 40.8 72.76C40.8 74.0133 41.64 75.0933 43.32 76C45.0267 76.88 46.6667 77.32 48.24 77.32C51.52 77.32 53.16 75.4533 53.16 71.72C53.16 70.3067 51.8133 68.5333 49.12 66.4C48 65.4933 46.88 64.5867 45.76 63.68C43.0667 61.5467 41.72 59.6933 41.72 58.12C41.72 56.2533 42.56 54.52 44.24 52.92C45.92 51.2933 47.8267 50.1067 49.96 49.36C52.2533 49.36 54.4267 49.5867 56.48 50.04V50.84C55.0933 52.12 54.32 54.0933 54.16 56.76H53.16C53.16 55.3467 53.0933 54.1067 52.96 53.04C51.8133 52.5067 50.56 52.24 49.2 52.24C47.8667 52.24 46.7333 52.5333 45.8 53.12C44.8667 53.68 44.4 54.4 44.4 55.28C44.4 56.16 44.7867 57.0533 45.56 57.96C46.36 58.84 47.32 59.7067 48.44 60.56C49.56 61.3867 50.6667 62.24 51.76 63.12C52.88 63.9733 53.8267 64.9067 54.6 65.92C55.4 66.9067 55.8 67.8667 55.8 68.8C55.8 71.4667 55.0667 73.84 53.6 75.92C52.1333 78 50.1333 79.56 47.6 80.6C44.2667 80.2533 41.6 79.32 39.6 77.8C39.4933 77.0533 39.44 76.2933 39.44 75.52ZM65.5938 56.48C65.3804 57.92 65.2738 60.8667 65.2738 65.32C65.2738 69.7733 65.3938 72.8933 65.6338 74.68C66.8338 74.8133 67.9404 75.0133 68.9538 75.28L68.8338 76.28C67.4471 76.0933 65.8871 76 64.1538 76C62.4471 76 60.9138 76.1067 59.5538 76.32L59.3938 75.28C60.1404 75.04 60.9804 74.84 61.9138 74.68C62.1538 72.76 62.2738 70.04 62.2738 66.52V64.64C62.2738 61.12 62.1404 58.4 61.8738 56.48C60.9404 56.32 60.1004 56.12 59.3538 55.88L59.5138 54.84C60.8738 55.0533 62.4071 55.16 64.1138 55.16C65.8471 55.16 67.4071 55.0667 68.7938 54.88L68.9138 55.88C67.9004 56.1467 66.7938 56.3467 65.5938 56.48ZM86.2975 76.44C84.5642 76.1467 82.2042 76 79.2175 76C76.2575 76 73.7775 76.1333 71.7775 76.4L71.6575 75.4C72.4042 75.1067 73.2575 74.8667 74.2175 74.68C74.4842 73.08 74.6175 70.36 74.6175 66.52V64.64C74.6175 61.3333 74.4842 58.6133 74.2175 56.48C73.3375 56.3467 72.4975 56.1467 71.6975 55.88L71.8575 54.84C73.2175 55.0533 74.8175 55.16 76.6575 55.16C78.4975 55.16 80.0708 55.0533 81.3775 54.84L81.4975 55.84C80.2975 56.1333 79.1108 56.3467 77.9375 56.48C77.7242 57.92 77.6175 60.8933 77.6175 65.4C77.6175 69.88 77.7242 72.8667 77.9375 74.36C78.5775 74.4667 79.4842 74.52 80.6575 74.52C81.8308 74.52 82.8842 74.2933 83.8175 73.84C84.1908 72.9333 84.3775 71.8667 84.3775 70.64H85.3775C85.4842 72.6933 85.8575 74.36 86.4975 75.64L86.2975 76.44ZM100.347 76.24C99.1999 76.08 97.7599 76 96.0266 76C94.3199 76 93.0799 76.0533 92.3066 76.16L92.1866 75.52C92.4266 75.4667 92.6532 75.3333 92.8666 75.12C93.1066 74.88 93.2266 74.6667 93.2266 74.48C93.2266 72.96 91.8266 67.8267 89.0266 59.08C88.6532 57.9067 88.3332 57.0533 88.0666 56.52C87.1866 56.4133 86.2266 56.2 85.1866 55.88L85.3466 54.84C86.4132 55.0533 87.9466 55.16 89.9466 55.16C91.9466 55.16 93.5866 55.0533 94.8666 54.84L95.0266 55.84C93.5866 56.16 92.5999 56.36 92.0666 56.44C92.2532 58.2 92.7999 60.8 93.7066 64.24C94.6399 67.68 95.6399 70.8667 96.7066 73.8C98.4932 69.8267 99.6799 66.8133 100.267 64.76C100.88 62.7067 101.187 60.8267 101.187 59.12C101.187 57.4133 100.64 56.2667 99.5466 55.68L99.7066 55C100.507 55.1333 101.52 55.2 102.747 55.2C104 55.2 105.4 55.0933 106.947 54.88L107.107 55.92C106.2 56.2133 105.347 56.4267 104.547 56.56C104.653 57.36 104.707 58.0933 104.707 58.76C104.707 59.4 104.6 60.1867 104.387 61.12C104.2 62.0267 103.747 63.28 103.027 64.88C102.093 66.8533 100.413 70.12 97.9866 74.68C98.5199 74.7333 99.3732 74.96 100.547 75.36L100.347 76.24ZM111.818 66.12C111.898 68.4933 112.338 70.3467 113.138 71.68C113.938 73.0133 115.298 73.68 117.218 73.68C119.138 73.68 120.911 72.8667 122.538 71.24L123.098 71.8C121.311 74.0667 119.165 75.6267 116.658 76.48C114.071 76.48 112.045 75.6667 110.578 74.04C109.111 72.3867 108.378 70.1733 108.378 67.4C108.378 64.6 109.245 61.9733 110.978 59.52C112.711 57.0667 114.925 55.4533 117.618 54.68C119.565 54.68 121.765 54.88 124.218 55.28L124.178 56.16C123.671 56.16 123.191 56.2533 122.738 56.44C122.231 57.64 121.898 59.0667 121.738 60.72H120.738C120.525 59.8133 120.418 58.88 120.418 57.92C119.405 57.4133 118.205 57.16 116.818 57.16C115.431 57.16 114.285 57.5333 113.378 58.28C112.471 59.9333 111.951 61.9067 111.818 64.2C112.938 64.3867 114.138 64.48 115.418 64.48C117.631 64.48 118.965 64.0133 119.418 63.08L120.258 63.2C120.018 64 119.898 64.7867 119.898 65.56C119.898 66.3333 119.991 67.28 120.178 68.4L119.218 68.56C118.925 67.76 118.711 66.9333 118.578 66.08C117.511 65.9733 116.445 65.92 115.378 65.92C114.338 65.92 113.151 65.9867 111.818 66.12ZM126.228 55.24L135.428 54.96C137.828 54.96 139.628 55.32 140.828 56.04C142.028 56.7333 142.628 58.0133 142.628 59.88C142.628 61.16 142.228 62.2933 141.428 63.28C140.654 64.2667 139.628 65 138.348 65.48L142.828 74.64C143.734 74.8 144.588 74.9867 145.388 75.2L145.228 76.28C144.108 76.0933 142.841 76 141.428 76C140.041 76 138.948 76.0667 138.148 76.2L137.988 75.56C138.334 75.2133 138.508 74.64 138.508 73.84C138.508 72.2133 137.574 69.6 135.708 66C135.148 65.8933 134.494 65.84 133.748 65.84L133.828 64.68H134.228C137.374 64.68 138.948 63.24 138.948 60.36C138.948 57.6933 137.601 56.36 134.908 56.36C134.001 56.36 133.188 56.5067 132.468 56.8C132.281 58.56 132.188 61.5733 132.188 65.84C132.188 70.1067 132.308 73.0533 132.548 74.68C133.721 74.8133 134.814 75.0133 135.828 75.28L135.708 76.28C134.321 76.0933 132.761 76 131.028 76C129.321 76 127.788 76.1067 126.428 76.32L126.268 75.28C127.014 75.04 127.854 74.84 128.788 74.68C129.054 72.68 129.188 69.5733 129.188 65.36C129.188 61.12 129.068 58.1867 128.828 56.56C127.788 56.2133 126.921 56.04 126.228 56.04V55.24ZM159.87 74.6C160.35 75.4 161.017 76.0533 161.87 76.56C162.75 77.0933 163.763 77.36 164.91 77.36C166.083 77.36 167.257 77.0133 168.43 76.32C169.63 75.6533 170.63 74.8133 171.43 73.8L171.99 74.36C170.043 77.4 167.403 79.48 164.07 80.6C161.777 80.6 159.897 80.0133 158.43 78.84C156.963 77.6667 155.923 76.16 155.31 74.32C154.723 72.48 154.43 70.2133 154.43 67.52C154.43 64.8267 154.763 62.28 155.43 59.88C156.123 57.4533 157.31 55.28 158.99 53.36C160.67 51.4133 162.763 50.08 165.27 49.36C167.963 49.36 170.71 49.6133 173.51 50.12L173.47 51C172.777 51 172.137 51.12 171.55 51.36C170.883 52.9333 170.443 54.8133 170.23 57H169.23C168.99 55.7467 168.87 54.5467 168.87 53.4C167.457 52.6267 165.897 52.24 164.19 52.24C162.51 52.24 161.123 52.7467 160.03 53.76C158.67 56.5067 157.99 60.04 157.99 64.36C157.99 69.1867 158.617 72.6 159.87 74.6ZM183.192 76.48C180.552 76.48 178.419 75.6533 176.792 74C175.165 72.32 174.352 70.08 174.352 67.28C174.352 64.48 175.205 61.8533 176.912 59.4C178.619 56.9467 180.845 55.3733 183.592 54.68C186.339 54.68 188.432 55.4667 189.872 57.04C191.312 58.5867 192.032 60.8 192.032 63.68C192.032 66.56 191.245 69.16 189.672 71.48C188.125 73.8 185.965 75.4667 183.192 76.48ZM182.512 57.12C181.312 57.12 180.272 57.4533 179.392 58.12C178.299 59.9867 177.752 62.3333 177.752 65.16C177.752 68.4133 178.659 70.9067 180.472 72.64C181.432 73.5733 182.565 74.04 183.872 74.04C185.179 74.04 186.232 73.6933 187.032 73C188.099 71.1333 188.632 68.8533 188.632 66.16C188.632 63.4667 188.152 61.2933 187.192 59.64C186.232 57.96 184.672 57.12 182.512 57.12ZM201.727 56.48C201.513 57.92 201.407 60.8667 201.407 65.32C201.407 69.7733 201.527 72.8933 201.767 74.68C202.967 74.8133 204.073 75.0133 205.087 75.28L204.967 76.28C203.58 76.0933 202.02 76 200.287 76C198.58 76 197.047 76.1067 195.687 76.32L195.527 75.28C196.273 75.04 197.113 74.84 198.047 74.68C198.287 72.76 198.407 70.04 198.407 66.52V64.64C198.407 61.12 198.273 58.4 198.007 56.48C197.073 56.32 196.233 56.12 195.487 55.88L195.647 54.84C197.007 55.0533 198.54 55.16 200.247 55.16C201.98 55.16 203.54 55.0667 204.927 54.88L205.047 55.88C204.033 56.1467 202.927 56.3467 201.727 56.48ZM217.43 76.28C216.044 76.0933 214.484 76 212.75 76C211.044 76 209.51 76.1067 208.15 76.32L207.99 75.28C208.844 75.0133 209.644 74.8133 210.39 74.68C210.63 72.6 210.75 69.88 210.75 66.52V64.64C210.75 61.0667 210.617 58.32 210.35 56.4C209.63 56.32 208.764 56.1067 207.75 55.76L207.87 54.72C209.39 55.0133 210.977 55.16 212.63 55.16C214.31 55.16 215.51 55.0667 216.23 54.88L216.31 55.56C215.59 55.7467 215.23 56.0533 215.23 56.48C215.23 56.8 215.537 57.48 216.15 58.52C216.79 59.5333 217.404 60.52 217.99 61.48C219.75 64.28 221.83 67.72 224.23 71.8L224.35 71.72V66.84C224.35 63.2667 224.164 60.5867 223.79 58.8C223.417 56.9867 222.777 55.9333 221.87 55.64L221.95 54.96C222.644 55.0933 223.684 55.16 225.07 55.16C226.457 55.16 227.884 55.0133 229.35 54.72L229.47 55.76C228.377 56.1067 227.457 56.32 226.71 56.4C226.444 58.5333 226.31 61.28 226.31 64.64V66.52C226.31 70.5733 226.444 73.32 226.71 74.76C227.83 74.9467 228.724 75.16 229.39 75.4L229.27 76.44C227.937 76.1467 226.684 76 225.51 76C224.337 76 223.43 76.0533 222.79 76.16C222.79 75.5733 222.377 74.5867 221.55 73.2C220.75 71.8133 220.017 70.5867 219.35 69.52C217.19 66.0267 215.07 62.48 212.99 58.88L212.83 58.96V64.32C212.83 69.6267 213.23 73.08 214.03 74.68C215.23 74.8133 216.404 75.0133 217.55 75.28L217.43 76.28Z" fill="#FAF9F6"/>
<path d="M40.3495 374.36V372.2H52.3735V374.36H40.3495ZM45.0775 378.992V367.4H47.5975V378.992H45.0775ZM55.6812 380L54.8892 378.032L60.0252 372.248C60.2972 371.96 60.5772 371.632 60.8652 371.264C61.1692 370.88 61.4572 370.488 61.7292 370.088C62.0012 369.688 62.2172 369.296 62.3772 368.912C62.5532 368.512 62.6412 368.136 62.6412 367.784C62.6412 367.272 62.5372 366.84 62.3292 366.488C62.1372 366.12 61.8492 365.84 61.4652 365.648C61.0972 365.456 60.6492 365.36 60.1212 365.36C59.6572 365.36 59.2012 365.496 58.7532 365.768C58.3052 366.04 57.8972 366.424 57.5292 366.92C57.1612 367.416 56.8732 367.992 56.6652 368.648L54.6732 367.4C54.9452 366.472 55.3532 365.68 55.8972 365.024C56.4572 364.352 57.1212 363.84 57.8892 363.488C58.6732 363.136 59.5212 362.96 60.4332 362.96C61.3772 362.96 62.2172 363.16 62.9532 363.56C63.6892 363.944 64.2652 364.488 64.6812 365.192C65.0972 365.88 65.3052 366.68 65.3052 367.592C65.3052 367.96 65.2652 368.336 65.1852 368.72C65.1052 369.104 64.9772 369.504 64.8012 369.92C64.6252 370.32 64.4012 370.744 64.1292 371.192C63.8572 371.624 63.5292 372.08 63.1452 372.56C62.7772 373.04 62.3532 373.544 61.8732 374.072L58.0572 378.224L57.5772 377.504H65.8332V380H55.6812ZM75.0042 380V367.4H77.5002V370.088L77.0442 370.376C77.1722 369.96 77.3722 369.56 77.6442 369.176C77.9322 368.792 78.2762 368.456 78.6762 368.168C79.0922 367.864 79.5322 367.624 79.9962 367.448C80.4762 367.272 80.9642 367.184 81.4602 367.184C82.1802 367.184 82.8122 367.304 83.3562 367.544C83.9002 367.784 84.3482 368.144 84.7002 368.624C85.0522 369.104 85.3082 369.704 85.4682 370.424L85.0842 370.328L85.2522 369.92C85.4282 369.552 85.6682 369.208 85.9722 368.888C86.2922 368.552 86.6522 368.256 87.0522 368C87.4522 367.744 87.8762 367.544 88.3242 367.4C88.7722 367.256 89.2122 367.184 89.6442 367.184C90.5882 367.184 91.3642 367.376 91.9722 367.76C92.5962 368.144 93.0602 368.728 93.3642 369.512C93.6842 370.296 93.8442 371.272 93.8442 372.44V380H91.3482V372.584C91.3482 371.864 91.2522 371.28 91.0602 370.832C90.8842 370.368 90.6122 370.024 90.2442 369.8C89.8762 369.576 89.4042 369.464 88.8282 369.464C88.3802 369.464 87.9562 369.544 87.5562 369.704C87.1722 369.848 86.8362 370.056 86.5482 370.328C86.2602 370.6 86.0362 370.92 85.8762 371.288C85.7162 371.64 85.6362 372.032 85.6362 372.464V380H83.1402V372.536C83.1402 371.88 83.0442 371.328 82.8522 370.88C82.6602 370.416 82.3802 370.064 82.0122 369.824C81.6442 369.584 81.1962 369.464 80.6682 369.464C80.2202 369.464 79.8042 369.544 79.4202 369.704C79.0362 369.848 78.7002 370.056 78.4122 370.328C78.1242 370.584 77.9002 370.896 77.7402 371.264C77.5802 371.616 77.5002 372 77.5002 372.416V380H75.0042ZM102.002 380.24C100.962 380.24 100.01 379.952 99.1458 379.376C98.2978 378.8 97.6178 378.016 97.1058 377.024C96.5938 376.032 96.3378 374.912 96.3378 373.664C96.3378 372.4 96.5938 371.28 97.1058 370.304C97.6338 369.312 98.3378 368.536 99.2178 367.976C100.114 367.416 101.114 367.136 102.218 367.136C102.874 367.136 103.474 367.232 104.018 367.424C104.562 367.616 105.034 367.888 105.434 368.24C105.85 368.576 106.186 368.968 106.442 369.416C106.714 369.864 106.882 370.344 106.946 370.856L106.394 370.664V367.4H108.89V380H106.394V377L106.97 376.832C106.874 377.264 106.674 377.688 106.37 378.104C106.082 378.504 105.706 378.864 105.242 379.184C104.794 379.504 104.29 379.76 103.73 379.952C103.186 380.144 102.61 380.24 102.002 380.24ZM102.65 377.96C103.402 377.96 104.066 377.776 104.642 377.408C105.218 377.04 105.666 376.536 105.986 375.896C106.322 375.24 106.49 374.496 106.49 373.664C106.49 372.848 106.322 372.12 105.986 371.48C105.666 370.84 105.218 370.336 104.642 369.968C104.066 369.6 103.402 369.416 102.65 369.416C101.914 369.416 101.258 369.6 100.682 369.968C100.122 370.336 99.6738 370.84 99.3378 371.48C99.0178 372.12 98.8578 372.848 98.8578 373.664C98.8578 374.496 99.0178 375.24 99.3378 375.896C99.6738 376.536 100.122 377.04 100.682 377.408C101.258 377.776 101.914 377.96 102.65 377.96ZM117.981 385.52C117.085 385.52 116.189 385.376 115.293 385.088C114.413 384.816 113.701 384.456 113.157 384.008L114.069 382.088C114.389 382.328 114.765 382.536 115.197 382.712C115.629 382.904 116.085 383.048 116.565 383.144C117.045 383.256 117.517 383.312 117.981 383.312C118.861 383.312 119.597 383.168 120.189 382.88C120.781 382.592 121.229 382.168 121.533 381.608C121.837 381.048 121.989 380.352 121.989 379.52V377.096L122.253 377.264C122.173 377.76 121.909 378.24 121.461 378.704C121.029 379.152 120.485 379.52 119.829 379.808C119.173 380.096 118.501 380.24 117.813 380.24C116.613 380.24 115.541 379.96 114.597 379.4C113.669 378.824 112.933 378.048 112.389 377.072C111.845 376.08 111.573 374.952 111.573 373.688C111.573 372.424 111.837 371.304 112.365 370.328C112.909 369.336 113.645 368.56 114.573 368C115.517 367.424 116.573 367.136 117.741 367.136C118.221 367.136 118.685 367.2 119.133 367.328C119.581 367.44 119.997 367.608 120.381 367.832C120.765 368.04 121.109 368.272 121.413 368.528C121.717 368.784 121.965 369.056 122.157 369.344C122.349 369.632 122.469 369.904 122.517 370.16L121.989 370.352V367.4H124.461V379.232C124.461 380.24 124.309 381.128 124.005 381.896C123.717 382.68 123.293 383.336 122.733 383.864C122.173 384.408 121.493 384.816 120.693 385.088C119.893 385.376 118.989 385.52 117.981 385.52ZM118.077 377.96C118.861 377.96 119.557 377.776 120.165 377.408C120.773 377.04 121.245 376.536 121.581 375.896C121.917 375.256 122.085 374.52 122.085 373.688C122.085 372.856 121.909 372.12 121.557 371.48C121.221 370.824 120.749 370.312 120.141 369.944C119.549 369.576 118.861 369.392 118.077 369.392C117.309 369.392 116.621 369.584 116.013 369.968C115.421 370.336 114.949 370.848 114.597 371.504C114.261 372.144 114.093 372.872 114.093 373.688C114.093 374.504 114.261 375.24 114.597 375.896C114.949 376.536 115.421 377.04 116.013 377.408C116.621 377.776 117.309 377.96 118.077 377.96ZM128.335 380V367.4H130.807V380H128.335ZM129.535 364.616C129.007 364.616 128.599 364.48 128.311 364.208C128.023 363.936 127.879 363.552 127.879 363.056C127.879 362.592 128.023 362.216 128.311 361.928C128.615 361.64 129.023 361.496 129.535 361.496C130.063 361.496 130.471 361.632 130.759 361.904C131.047 362.176 131.191 362.56 131.191 363.056C131.191 363.52 131.039 363.896 130.735 364.184C130.447 364.472 130.047 364.616 129.535 364.616ZM139.959 380.24C138.791 380.24 137.743 379.952 136.815 379.376C135.903 378.8 135.175 378.016 134.631 377.024C134.103 376.032 133.839 374.92 133.839 373.688C133.839 372.456 134.103 371.344 134.631 370.352C135.175 369.36 135.903 368.576 136.815 368C137.743 367.424 138.791 367.136 139.959 367.136C141.079 367.136 142.095 367.368 143.007 367.832C143.935 368.28 144.639 368.896 145.119 369.68L143.751 371.36C143.495 370.992 143.167 370.656 142.767 370.352C142.367 370.048 141.943 369.808 141.495 369.632C141.047 369.456 140.615 369.368 140.199 369.368C139.431 369.368 138.743 369.56 138.135 369.944C137.543 370.312 137.071 370.824 136.719 371.48C136.367 372.136 136.191 372.872 136.191 373.688C136.191 374.504 136.375 375.24 136.743 375.896C137.111 376.536 137.599 377.048 138.207 377.432C138.815 377.816 139.487 378.008 140.223 378.008C140.655 378.008 141.071 377.936 141.471 377.792C141.887 377.648 142.287 377.432 142.671 377.144C143.055 376.856 143.415 376.504 143.751 376.088L145.119 377.768C144.607 378.488 143.871 379.08 142.911 379.544C141.967 380.008 140.983 380.24 139.959 380.24ZM159.817 385.52C158.921 385.52 158.025 385.376 157.129 385.088C156.249 384.816 155.537 384.456 154.993 384.008L155.905 382.088C156.225 382.328 156.601 382.536 157.033 382.712C157.465 382.904 157.921 383.048 158.401 383.144C158.881 383.256 159.353 383.312 159.817 383.312C160.697 383.312 161.433 383.168 162.025 382.88C162.617 382.592 163.065 382.168 163.369 381.608C163.673 381.048 163.825 380.352 163.825 379.52V377.096L164.089 377.264C164.009 377.76 163.745 378.24 163.297 378.704C162.865 379.152 162.321 379.52 161.665 379.808C161.009 380.096 160.337 380.24 159.649 380.24C158.449 380.24 157.377 379.96 156.433 379.4C155.505 378.824 154.769 378.048 154.225 377.072C153.681 376.08 153.409 374.952 153.409 373.688C153.409 372.424 153.673 371.304 154.201 370.328C154.745 369.336 155.481 368.56 156.409 368C157.353 367.424 158.409 367.136 159.577 367.136C160.057 367.136 160.521 367.2 160.969 367.328C161.417 367.44 161.833 367.608 162.217 367.832C162.601 368.04 162.945 368.272 163.249 368.528C163.553 368.784 163.801 369.056 163.993 369.344C164.185 369.632 164.305 369.904 164.353 370.16L163.825 370.352V367.4H166.297V379.232C166.297 380.24 166.145 381.128 165.841 381.896C165.553 382.68 165.129 383.336 164.569 383.864C164.009 384.408 163.329 384.816 162.529 385.088C161.729 385.376 160.825 385.52 159.817 385.52ZM159.913 377.96C160.697 377.96 161.393 377.776 162.001 377.408C162.609 377.04 163.081 376.536 163.417 375.896C163.753 375.256 163.921 374.52 163.921 373.688C163.921 372.856 163.745 372.12 163.393 371.48C163.057 370.824 162.585 370.312 161.977 369.944C161.385 369.576 160.697 369.392 159.913 369.392C159.145 369.392 158.457 369.584 157.849 369.968C157.257 370.336 156.785 370.848 156.433 371.504C156.097 372.144 155.929 372.872 155.929 373.688C155.929 374.504 156.097 375.24 156.433 375.896C156.785 376.536 157.257 377.04 157.849 377.408C158.457 377.776 159.145 377.96 159.913 377.96ZM175.643 380.24C174.347 380.24 173.195 379.968 172.187 379.424C171.195 378.864 170.411 378.104 169.835 377.144C169.275 376.184 168.995 375.08 168.995 373.832C168.995 372.84 169.155 371.936 169.475 371.12C169.795 370.304 170.235 369.6 170.795 369.008C171.371 368.4 172.051 367.936 172.835 367.616C173.635 367.28 174.499 367.112 175.427 367.112C176.243 367.112 177.003 367.272 177.707 367.592C178.411 367.896 179.019 368.32 179.531 368.864C180.059 369.408 180.459 370.056 180.731 370.808C181.019 371.544 181.155 372.352 181.139 373.232L181.115 374.288H170.819L170.267 372.32H178.979L178.619 372.728V372.152C178.571 371.624 178.395 371.152 178.091 370.736C177.787 370.32 177.403 369.992 176.939 369.752C176.475 369.512 175.971 369.392 175.427 369.392C174.563 369.392 173.835 369.56 173.243 369.896C172.651 370.216 172.203 370.696 171.899 371.336C171.595 371.96 171.443 372.736 171.443 373.664C171.443 374.544 171.627 375.312 171.995 375.968C172.363 376.608 172.883 377.104 173.555 377.456C174.227 377.808 175.003 377.984 175.883 377.984C176.507 377.984 177.083 377.88 177.611 377.672C178.155 377.464 178.739 377.088 179.363 376.544L180.611 378.296C180.227 378.68 179.755 379.016 179.195 379.304C178.651 379.592 178.067 379.824 177.443 380C176.835 380.16 176.235 380.24 175.643 380.24ZM183.778 380V367.4H186.274V370.088L185.818 370.376C185.946 369.96 186.146 369.56 186.418 369.176C186.706 368.792 187.05 368.456 187.45 368.168C187.866 367.864 188.306 367.624 188.77 367.448C189.25 367.272 189.738 367.184 190.234 367.184C190.954 367.184 191.586 367.304 192.13 367.544C192.674 367.784 193.122 368.144 193.474 368.624C193.826 369.104 194.082 369.704 194.242 370.424L193.858 370.328L194.026 369.92C194.202 369.552 194.442 369.208 194.746 368.888C195.066 368.552 195.426 368.256 195.826 368C196.226 367.744 196.65 367.544 197.098 367.4C197.546 367.256 197.986 367.184 198.418 367.184C199.362 367.184 200.138 367.376 200.746 367.76C201.37 368.144 201.834 368.728 202.138 369.512C202.458 370.296 202.618 371.272 202.618 372.44V380H200.122V372.584C200.122 371.864 200.026 371.28 199.834 370.832C199.658 370.368 199.386 370.024 199.018 369.8C198.65 369.576 198.178 369.464 197.602 369.464C197.154 369.464 196.73 369.544 196.33 369.704C195.946 369.848 195.61 370.056 195.322 370.328C195.034 370.6 194.81 370.92 194.65 371.288C194.49 371.64 194.41 372.032 194.41 372.464V380H191.914V372.536C191.914 371.88 191.818 371.328 191.626 370.88C191.434 370.416 191.154 370.064 190.786 369.824C190.418 369.584 189.97 369.464 189.442 369.464C188.994 369.464 188.578 369.544 188.194 369.704C187.81 369.848 187.474 370.056 187.186 370.328C186.898 370.584 186.674 370.896 186.514 371.264C186.354 371.616 186.274 372 186.274 372.416V380H183.778ZM210.127 380.24C209.071 380.24 208.119 380.056 207.271 379.688C206.423 379.32 205.719 378.776 205.159 378.056L206.839 376.616C207.319 377.176 207.839 377.584 208.399 377.84C208.975 378.08 209.623 378.2 210.343 378.2C210.631 378.2 210.895 378.168 211.135 378.104C211.391 378.024 211.607 377.912 211.783 377.768C211.975 377.624 212.119 377.456 212.215 377.264C212.311 377.056 212.359 376.832 212.359 376.592C212.359 376.176 212.207 375.84 211.903 375.584C211.743 375.472 211.487 375.352 211.135 375.224C210.799 375.08 210.359 374.936 209.815 374.792C208.887 374.552 208.127 374.28 207.535 373.976C206.943 373.672 206.487 373.328 206.167 372.944C205.927 372.64 205.751 372.312 205.639 371.96C205.527 371.592 205.471 371.192 205.471 370.76C205.471 370.232 205.583 369.752 205.807 369.32C206.047 368.872 206.367 368.488 206.767 368.168C207.183 367.832 207.663 367.576 208.207 367.4C208.767 367.224 209.359 367.136 209.983 367.136C210.575 367.136 211.159 367.216 211.735 367.376C212.327 367.536 212.871 367.768 213.367 368.072C213.863 368.376 214.279 368.736 214.615 369.152L213.199 370.712C212.895 370.408 212.559 370.144 212.191 369.92C211.839 369.68 211.479 369.496 211.111 369.368C210.743 369.24 210.407 369.176 210.103 369.176C209.767 369.176 209.463 369.208 209.191 369.272C208.919 369.336 208.687 369.432 208.495 369.56C208.319 369.688 208.183 369.848 208.087 370.04C207.991 370.232 207.943 370.448 207.943 370.688C207.959 370.896 208.007 371.096 208.087 371.288C208.183 371.464 208.311 371.616 208.471 371.744C208.647 371.872 208.911 372.008 209.263 372.152C209.615 372.296 210.063 372.432 210.607 372.56C211.407 372.768 212.063 373 212.575 373.256C213.103 373.496 213.519 373.776 213.823 374.096C214.143 374.4 214.367 374.752 214.495 375.152C214.623 375.552 214.687 376 214.687 376.496C214.687 377.216 214.479 377.864 214.063 378.44C213.663 379 213.119 379.44 212.431 379.76C211.743 380.08 210.975 380.24 210.127 380.24Z" fill="#FAF9F6"/>
<path d="M254.371 290.194C192.652 340.314 143.689 307.259 126.923 284.466L191.184 291.626L238.798 273.905L254.371 290.194Z" fill="#727778"/>
<path d="M271.197 172.412C310.147 227.544 276.209 273.905 254.371 290.194L237.008 272.294L265.827 233.451L271.197 172.412Z" fill="#717372"/>
<path d="M282.652 253.857L266.542 237.926L237.902 273.189L254.37 290.194C270.266 278.308 279.848 261.017 282.652 253.857Z" fill="#A6AAAB"/>
<path d="M226.985 137.506C280.255 153.831 280.924 199.202 274.599 219.847L107.233 211.434C109.739 191.565 160.397 117.1 226.985 137.506Z" fill="#D3D6D5"/>
<path d="M150.551 295.564C102.865 283.965 101.803 234.644 107.233 211.434L274.598 219.847C255.803 270.862 210.158 310.063 150.551 295.564Z" fill="#CACCCE"/>
<path d="M180.443 282.855C223.547 281.28 250.671 239.716 258.846 219.131L121.194 212.15C112.96 249.382 126.564 284.824 180.443 282.855Z" fill="#ABB1B3"/>
<path d="M226.983 152.901C265.934 166.218 264.454 202.603 258.846 219.131L121.373 212.329C123.342 187.627 178.295 136.254 226.983 152.901Z" fill="#DEDEDE"/>
<path d="M155.741 258.332C152.591 259.477 151.207 257.616 150.908 256.542L177.937 244.012L185.455 246.16C176.863 249.74 158.892 257.186 155.741 258.332Z" fill="#727778"/>
<path d="M209.443 254.931C208.584 263.666 202.879 260.838 200.135 258.332L204.61 233.988C213.142 223.785 231.388 203.952 236.114 206.243C240.84 208.534 239.515 211.016 238.262 211.971C232.295 216.386 219.538 225.79 216.245 228.081C212.951 230.372 212.008 232.496 211.949 233.272C211.471 236.852 210.302 246.196 209.443 254.931Z" fill="#727778"/>
<path d="M158.426 229.513C159.571 227.222 159.977 224.859 160.037 223.964H161.469L162.364 234.525C158.306 241.446 149.905 255.038 148.76 254.036C147.614 253.034 147.924 251.351 148.223 250.635C151.146 244.549 157.28 231.804 158.426 229.513Z" fill="#FAFAFA"/>
<path d="M160.217 224.859L152.878 213.761L224.657 217.341C221.674 219.548 215.134 224.393 212.843 226.112C210.552 227.83 209.621 230.288 209.442 231.303C208.786 236.315 207.33 247.878 206.757 254.036C206.184 260.193 201.864 259.346 199.776 258.153C194.227 254.394 182.843 246.661 181.697 245.802C180.551 244.943 178.833 245.325 178.117 245.623C171.136 248.547 156.064 254.788 151.625 256.363C147.186 257.938 147.866 254.155 148.761 252.067C152.341 244.549 159.644 229.191 160.217 227.902C160.79 226.613 160.456 225.336 160.217 224.859Z" fill="#CACCCE"/>
<path d="M207.472 179.393C206.899 175.097 204.846 174.381 203.892 174.56L206.219 197.83L211.052 199.262C210.097 194.429 208.044 183.689 207.472 179.393Z" fill="#727778"/>
<path d="M234.322 203.2L207.83 197.83L207.651 199.799C216.005 202.245 233.177 206.815 235.038 205.527C236.9 204.238 235.337 203.438 234.322 203.2Z" fill="#FAFAFA"/>
<path d="M150.552 199.441C144.967 200.3 146.435 204.692 147.867 206.78L171.674 203.2C182.414 197.353 203.715 183.832 202.999 176.529C202.283 169.226 198.405 171.696 196.555 173.844C192.856 178.319 184.705 188.271 181.698 192.281C178.691 196.29 175.791 197.412 174.717 197.472C168.989 197.77 156.137 198.582 150.552 199.441Z" fill="#FAFAFA"/>
<path d="M148.045 207.138L152.878 213.761L224.479 217.341C226.03 216.326 230.242 213.438 234.682 210.002C239.121 206.565 235.815 204.512 233.608 203.916C228.596 202.842 217.569 200.55 213.56 199.978C209.55 199.405 208.19 197.233 208.011 196.219C207.354 192.519 205.719 183.366 204.431 176.35C203.142 169.333 199.12 171.994 197.271 174.202C194.049 178.199 186.745 187.376 183.309 192.102C179.872 196.827 176.745 198.247 175.611 198.367C172.568 198.605 164.191 199.19 155.026 199.62C145.862 200.049 146.554 204.811 148.045 207.138Z" fill="#D3D6D5"/>
<path d="M165.766 159.882C213.452 135.824 243.989 157.734 253.297 171.696C218.392 138.044 183.129 155.407 165.766 163.999C148.403 172.591 131.935 191.207 123.88 212.329C117.436 229.227 122.03 250.038 125.133 258.332C114.823 244.871 117.913 221.935 120.837 212.15C128.431 186.732 153.057 166.564 165.766 159.882Z" fill="#5B5F60"/>
</svg>
