<svg width="395" height="491" viewBox="0 0 395 491" fill="none" xmlns="http://www.w3.org/2000/svg">
<path d="M285.696 245.802L270.302 230.229L274.598 219.847L288.202 233.809C288.059 236.243 286.471 242.819 285.696 245.802Z" fill="#A6AAAB"/>
<rect width="394.099" height="490.871" rx="20" fill="#202020" fill-opacity="0.5"/>
<path d="M39.44 75.52C39.44 73.1733 39.9467 71.1467 40.96 69.44C42 67.7333 43.08 66.88 44.2 66.88C44.4933 66.88 44.7867 66.9733 45.08 67.16L45.2 67.44C44.8533 68.1067 44.64 68.9467 44.56 69.96L44.32 70.12C44.2133 70.0667 44.0133 70.04 43.72 70.04C43.4267 70.04 42.9867 70.2 42.4 70.52C41.84 70.84 41.4 71.16 41.08 71.48C40.8933 71.8533 40.8 72.28 40.8 72.76C40.8 74.0133 41.64 75.0933 43.32 76C45.0267 76.88 46.6667 77.32 48.24 77.32C51.52 77.32 53.16 75.4533 53.16 71.72C53.16 70.3067 51.8133 68.5333 49.12 66.4C48 65.4933 46.88 64.5867 45.76 63.68C43.0667 61.5467 41.72 59.6933 41.72 58.12C41.72 56.2533 42.56 54.52 44.24 52.92C45.92 51.2933 47.8267 50.1067 49.96 49.36C52.2533 49.36 54.4267 49.5867 56.48 50.04V50.84C55.0933 52.12 54.32 54.0933 54.16 56.76H53.16C53.16 55.3467 53.0933 54.1067 52.96 53.04C51.8133 52.5067 50.56 52.24 49.2 52.24C47.8667 52.24 46.7333 52.5333 45.8 53.12C44.8667 53.68 44.4 54.4 44.4 55.28C44.4 56.16 44.7867 57.0533 45.56 57.96C46.36 58.84 47.32 59.7067 48.44 60.56C49.56 61.3867 50.6667 62.24 51.76 63.12C52.88 63.9733 53.8267 64.9067 54.6 65.92C55.4 66.9067 55.8 67.8667 55.8 68.8C55.8 71.4667 55.0667 73.84 53.6 75.92C52.1333 78 50.1333 79.56 47.6 80.6C44.2667 80.2533 41.6 79.32 39.6 77.8C39.4933 77.0533 39.44 76.2933 39.44 75.52ZM65.5938 56.48C65.3804 57.92 65.2738 60.8667 65.2738 65.32C65.2738 69.7733 65.3938 72.8933 65.6338 74.68C66.8338 74.8133 67.9404 75.0133 68.9538 75.28L68.8338 76.28C67.4471 76.0933 65.8871 76 64.1538 76C62.4471 76 60.9138 76.1067 59.5538 76.32L59.3938 75.28C60.1404 75.04 60.9804 74.84 61.9138 74.68C62.1538 72.76 62.2738 70.04 62.2738 66.52V64.64C62.2738 61.12 62.1404 58.4 61.8738 56.48C60.9404 56.32 60.1004 56.12 59.3538 55.88L59.5138 54.84C60.8738 55.0533 62.4071 55.16 64.1138 55.16C65.8471 55.16 67.4071 55.0667 68.7938 54.88L68.9138 55.88C67.9004 56.1467 66.7938 56.3467 65.5938 56.48ZM86.2975 76.44C84.5642 76.1467 82.2042 76 79.2175 76C76.2575 76 73.7775 76.1333 71.7775 76.4L71.6575 75.4C72.4042 75.1067 73.2575 74.8667 74.2175 74.68C74.4842 73.08 74.6175 70.36 74.6175 66.52V64.64C74.6175 61.3333 74.4842 58.6133 74.2175 56.48C73.3375 56.3467 72.4975 56.1467 71.6975 55.88L71.8575 54.84C73.2175 55.0533 74.8175 55.16 76.6575 55.16C78.4975 55.16 80.0708 55.0533 81.3775 54.84L81.4975 55.84C80.2975 56.1333 79.1108 56.3467 77.9375 56.48C77.7242 57.92 77.6175 60.8933 77.6175 65.4C77.6175 69.88 77.7242 72.8667 77.9375 74.36C78.5775 74.4667 79.4842 74.52 80.6575 74.52C81.8308 74.52 82.8842 74.2933 83.8175 73.84C84.1908 72.9333 84.3775 71.8667 84.3775 70.64H85.3775C85.4842 72.6933 85.8575 74.36 86.4975 75.64L86.2975 76.44ZM100.347 76.24C99.1999 76.08 97.7599 76 96.0266 76C94.3199 76 93.0799 76.0533 92.3066 76.16L92.1866 75.52C92.4266 75.4667 92.6532 75.3333 92.8666 75.12C93.1066 74.88 93.2266 74.6667 93.2266 74.48C93.2266 72.96 91.8266 67.8267 89.0266 59.08C88.6532 57.9067 88.3332 57.0533 88.0666 56.52C87.1866 56.4133 86.2266 56.2 85.1866 55.88L85.3466 54.84C86.4132 55.0533 87.9466 55.16 89.9466 55.16C91.9466 55.16 93.5866 55.0533 94.8666 54.84L95.0266 55.84C93.5866 56.16 92.5999 56.36 92.0666 56.44C92.2532 58.2 92.7999 60.8 93.7066 64.24C94.6399 67.68 95.6399 70.8667 96.7066 73.8C98.4932 69.8267 99.6799 66.8133 100.267 64.76C100.88 62.7067 101.187 60.8267 101.187 59.12C101.187 57.4133 100.64 56.2667 99.5466 55.68L99.7066 55C100.507 55.1333 101.52 55.2 102.747 55.2C104 55.2 105.4 55.0933 106.947 54.88L107.107 55.92C106.2 56.2133 105.347 56.4267 104.547 56.56C104.653 57.36 104.707 58.0933 104.707 58.76C104.707 59.4 104.6 60.1867 104.387 61.12C104.2 62.0267 103.747 63.28 103.027 64.88C102.093 66.8533 100.413 70.12 97.9866 74.68C98.5199 74.7333 99.3732 74.96 100.547 75.36L100.347 76.24ZM111.818 66.12C111.898 68.4933 112.338 70.3467 113.138 71.68C113.938 73.0133 115.298 73.68 117.218 73.68C119.138 73.68 120.911 72.8667 122.538 71.24L123.098 71.8C121.311 74.0667 119.165 75.6267 116.658 76.48C114.071 76.48 112.045 75.6667 110.578 74.04C109.111 72.3867 108.378 70.1733 108.378 67.4C108.378 64.6 109.245 61.9733 110.978 59.52C112.711 57.0667 114.925 55.4533 117.618 54.68C119.565 54.68 121.765 54.88 124.218 55.28L124.178 56.16C123.671 56.16 123.191 56.2533 122.738 56.44C122.231 57.64 121.898 59.0667 121.738 60.72H120.738C120.525 59.8133 120.418 58.88 120.418 57.92C119.405 57.4133 118.205 57.16 116.818 57.16C115.431 57.16 114.285 57.5333 113.378 58.28C112.471 59.9333 111.951 61.9067 111.818 64.2C112.938 64.3867 114.138 64.48 115.418 64.48C117.631 64.48 118.965 64.0133 119.418 63.08L120.258 63.2C120.018 64 119.898 64.7867 119.898 65.56C119.898 66.3333 119.991 67.28 120.178 68.4L119.218 68.56C118.925 67.76 118.711 66.9333 118.578 66.08C117.511 65.9733 116.445 65.92 115.378 65.92C114.338 65.92 113.151 65.9867 111.818 66.12ZM126.228 55.24L135.428 54.96C137.828 54.96 139.628 55.32 140.828 56.04C142.028 56.7333 142.628 58.0133 142.628 59.88C142.628 61.16 142.228 62.2933 141.428 63.28C140.654 64.2667 139.628 65 138.348 65.48L142.828 74.64C143.734 74.8 144.588 74.9867 145.388 75.2L145.228 76.28C144.108 76.0933 142.841 76 141.428 76C140.041 76 138.948 76.0667 138.148 76.2L137.988 75.56C138.334 75.2133 138.508 74.64 138.508 73.84C138.508 72.2133 137.574 69.6 135.708 66C135.148 65.8933 134.494 65.84 133.748 65.84L133.828 64.68H134.228C137.374 64.68 138.948 63.24 138.948 60.36C138.948 57.6933 137.601 56.36 134.908 56.36C134.001 56.36 133.188 56.5067 132.468 56.8C132.281 58.56 132.188 61.5733 132.188 65.84C132.188 70.1067 132.308 73.0533 132.548 74.68C133.721 74.8133 134.814 75.0133 135.828 75.28L135.708 76.28C134.321 76.0933 132.761 76 131.028 76C129.321 76 127.788 76.1067 126.428 76.32L126.268 75.28C127.014 75.04 127.854 74.84 128.788 74.68C129.054 72.68 129.188 69.5733 129.188 65.36C129.188 61.12 129.068 58.1867 128.828 56.56C127.788 56.2133 126.921 56.04 126.228 56.04V55.24ZM159.87 74.6C160.35 75.4 161.017 76.0533 161.87 76.56C162.75 77.0933 163.763 77.36 164.91 77.36C166.083 77.36 167.257 77.0133 168.43 76.32C169.63 75.6533 170.63 74.8133 171.43 73.8L171.99 74.36C170.043 77.4 167.403 79.48 164.07 80.6C161.777 80.6 159.897 80.0133 158.43 78.84C156.963 77.6667 155.923 76.16 155.31 74.32C154.723 72.48 154.43 70.2133 154.43 67.52C154.43 64.8267 154.763 62.28 155.43 59.88C156.123 57.4533 157.31 55.28 158.99 53.36C160.67 51.4133 162.763 50.08 165.27 49.36C167.963 49.36 170.71 49.6133 173.51 50.12L173.47 51C172.777 51 172.137 51.12 171.55 51.36C170.883 52.9333 170.443 54.8133 170.23 57H169.23C168.99 55.7467 168.87 54.5467 168.87 53.4C167.457 52.6267 165.897 52.24 164.19 52.24C162.51 52.24 161.123 52.7467 160.03 53.76C158.67 56.5067 157.99 60.04 157.99 64.36C157.99 69.1867 158.617 72.6 159.87 74.6ZM183.192 76.48C180.552 76.48 178.419 75.6533 176.792 74C175.165 72.32 174.352 70.08 174.352 67.28C174.352 64.48 175.205 61.8533 176.912 59.4C178.619 56.9467 180.845 55.3733 183.592 54.68C186.339 54.68 188.432 55.4667 189.872 57.04C191.312 58.5867 192.032 60.8 192.032 63.68C192.032 66.56 191.245 69.16 189.672 71.48C188.125 73.8 185.965 75.4667 183.192 76.48ZM182.512 57.12C181.312 57.12 180.272 57.4533 179.392 58.12C178.299 59.9867 177.752 62.3333 177.752 65.16C177.752 68.4133 178.659 70.9067 180.472 72.64C181.432 73.5733 182.565 74.04 183.872 74.04C185.179 74.04 186.232 73.6933 187.032 73C188.099 71.1333 188.632 68.8533 188.632 66.16C188.632 63.4667 188.152 61.2933 187.192 59.64C186.232 57.96 184.672 57.12 182.512 57.12ZM201.727 56.48C201.513 57.92 201.407 60.8667 201.407 65.32C201.407 69.7733 201.527 72.8933 201.767 74.68C202.967 74.8133 204.073 75.0133 205.087 75.28L204.967 76.28C203.58 76.0933 202.02 76 200.287 76C198.58 76 197.047 76.1067 195.687 76.32L195.527 75.28C196.273 75.04 197.113 74.84 198.047 74.68C198.287 72.76 198.407 70.04 198.407 66.52V64.64C198.407 61.12 198.273 58.4 198.007 56.48C197.073 56.32 196.233 56.12 195.487 55.88L195.647 54.84C197.007 55.0533 198.54 55.16 200.247 55.16C201.98 55.16 203.54 55.0667 204.927 54.88L205.047 55.88C204.033 56.1467 202.927 56.3467 201.727 56.48ZM217.43 76.28C216.044 76.0933 214.484 76 212.75 76C211.044 76 209.51 76.1067 208.15 76.32L207.99 75.28C208.844 75.0133 209.644 74.8133 210.39 74.68C210.63 72.6 210.75 69.88 210.75 66.52V64.64C210.75 61.0667 210.617 58.32 210.35 56.4C209.63 56.32 208.764 56.1067 207.75 55.76L207.87 54.72C209.39 55.0133 210.977 55.16 212.63 55.16C214.31 55.16 215.51 55.0667 216.23 54.88L216.31 55.56C215.59 55.7467 215.23 56.0533 215.23 56.48C215.23 56.8 215.537 57.48 216.15 58.52C216.79 59.5333 217.404 60.52 217.99 61.48C219.75 64.28 221.83 67.72 224.23 71.8L224.35 71.72V66.84C224.35 63.2667 224.164 60.5867 223.79 58.8C223.417 56.9867 222.777 55.9333 221.87 55.64L221.95 54.96C222.644 55.0933 223.684 55.16 225.07 55.16C226.457 55.16 227.884 55.0133 229.35 54.72L229.47 55.76C228.377 56.1067 227.457 56.32 226.71 56.4C226.444 58.5333 226.31 61.28 226.31 64.64V66.52C226.31 70.5733 226.444 73.32 226.71 74.76C227.83 74.9467 228.724 75.16 229.39 75.4L229.27 76.44C227.937 76.1467 226.684 76 225.51 76C224.337 76 223.43 76.0533 222.79 76.16C222.79 75.5733 222.377 74.5867 221.55 73.2C220.75 71.8133 220.017 70.5867 219.35 69.52C217.19 66.0267 215.07 62.48 212.99 58.88L212.83 58.96V64.32C212.83 69.6267 213.23 73.08 214.03 74.68C215.23 74.8133 216.404 75.0133 217.55 75.28L217.43 76.28Z" fill="#FAF9F6"/>
<path d="M40.3495 379.36V377.2H52.3735V379.36H40.3495ZM45.0775 383.992V372.4H47.5975V383.992H45.0775ZM55.6812 385L54.8892 383.032L60.0252 377.248C60.2972 376.96 60.5772 376.632 60.8652 376.264C61.1692 375.88 61.4572 375.488 61.7292 375.088C62.0012 374.688 62.2172 374.296 62.3772 373.912C62.5532 373.512 62.6412 373.136 62.6412 372.784C62.6412 372.272 62.5372 371.84 62.3292 371.488C62.1372 371.12 61.8492 370.84 61.4652 370.648C61.0972 370.456 60.6492 370.36 60.1212 370.36C59.6572 370.36 59.2012 370.496 58.7532 370.768C58.3052 371.04 57.8972 371.424 57.5292 371.92C57.1612 372.416 56.8732 372.992 56.6652 373.648L54.6732 372.4C54.9452 371.472 55.3532 370.68 55.8972 370.024C56.4572 369.352 57.1212 368.84 57.8892 368.488C58.6732 368.136 59.5212 367.96 60.4332 367.96C61.3772 367.96 62.2172 368.16 62.9532 368.56C63.6892 368.944 64.2652 369.488 64.6812 370.192C65.0972 370.88 65.3052 371.68 65.3052 372.592C65.3052 372.96 65.2652 373.336 65.1852 373.72C65.1052 374.104 64.9772 374.504 64.8012 374.92C64.6252 375.32 64.4012 375.744 64.1292 376.192C63.8572 376.624 63.5292 377.08 63.1452 377.56C62.7772 378.04 62.3532 378.544 61.8732 379.072L58.0572 383.224L57.5772 382.504H65.8332V385H55.6812ZM75.0042 385V372.4H77.5002V375.088L77.0442 375.376C77.1722 374.96 77.3722 374.56 77.6442 374.176C77.9322 373.792 78.2762 373.456 78.6762 373.168C79.0922 372.864 79.5322 372.624 79.9962 372.448C80.4762 372.272 80.9642 372.184 81.4602 372.184C82.1802 372.184 82.8122 372.304 83.3562 372.544C83.9002 372.784 84.3482 373.144 84.7002 373.624C85.0522 374.104 85.3082 374.704 85.4682 375.424L85.0842 375.328L85.2522 374.92C85.4282 374.552 85.6682 374.208 85.9722 373.888C86.2922 373.552 86.6522 373.256 87.0522 373C87.4522 372.744 87.8762 372.544 88.3242 372.4C88.7722 372.256 89.2122 372.184 89.6442 372.184C90.5882 372.184 91.3642 372.376 91.9722 372.76C92.5962 373.144 93.0602 373.728 93.3642 374.512C93.6842 375.296 93.8442 376.272 93.8442 377.44V385H91.3482V377.584C91.3482 376.864 91.2522 376.28 91.0602 375.832C90.8842 375.368 90.6122 375.024 90.2442 374.8C89.8762 374.576 89.4042 374.464 88.8282 374.464C88.3802 374.464 87.9562 374.544 87.5562 374.704C87.1722 374.848 86.8362 375.056 86.5482 375.328C86.2602 375.6 86.0362 375.92 85.8762 376.288C85.7162 376.64 85.6362 377.032 85.6362 377.464V385H83.1402V377.536C83.1402 376.88 83.0442 376.328 82.8522 375.88C82.6602 375.416 82.3802 375.064 82.0122 374.824C81.6442 374.584 81.1962 374.464 80.6682 374.464C80.2202 374.464 79.8042 374.544 79.4202 374.704C79.0362 374.848 78.7002 375.056 78.4122 375.328C78.1242 375.584 77.9002 375.896 77.7402 376.264C77.5802 376.616 77.5002 377 77.5002 377.416V385H75.0042ZM102.002 385.24C100.962 385.24 100.01 384.952 99.1458 384.376C98.2978 383.8 97.6178 383.016 97.1058 382.024C96.5938 381.032 96.3378 379.912 96.3378 378.664C96.3378 377.4 96.5938 376.28 97.1058 375.304C97.6338 374.312 98.3378 373.536 99.2178 372.976C100.114 372.416 101.114 372.136 102.218 372.136C102.874 372.136 103.474 372.232 104.018 372.424C104.562 372.616 105.034 372.888 105.434 373.24C105.85 373.576 106.186 373.968 106.442 374.416C106.714 374.864 106.882 375.344 106.946 375.856L106.394 375.664V372.4H108.89V385H106.394V382L106.97 381.832C106.874 382.264 106.674 382.688 106.37 383.104C106.082 383.504 105.706 383.864 105.242 384.184C104.794 384.504 104.29 384.76 103.73 384.952C103.186 385.144 102.61 385.24 102.002 385.24ZM102.65 382.96C103.402 382.96 104.066 382.776 104.642 382.408C105.218 382.04 105.666 381.536 105.986 380.896C106.322 380.24 106.49 379.496 106.49 378.664C106.49 377.848 106.322 377.12 105.986 376.48C105.666 375.84 105.218 375.336 104.642 374.968C104.066 374.6 103.402 374.416 102.65 374.416C101.914 374.416 101.258 374.6 100.682 374.968C100.122 375.336 99.6738 375.84 99.3378 376.48C99.0178 377.12 98.8578 377.848 98.8578 378.664C98.8578 379.496 99.0178 380.24 99.3378 380.896C99.6738 381.536 100.122 382.04 100.682 382.408C101.258 382.776 101.914 382.96 102.65 382.96ZM117.981 390.52C117.085 390.52 116.189 390.376 115.293 390.088C114.413 389.816 113.701 389.456 113.157 389.008L114.069 387.088C114.389 387.328 114.765 387.536 115.197 387.712C115.629 387.904 116.085 388.048 116.565 388.144C117.045 388.256 117.517 388.312 117.981 388.312C118.861 388.312 119.597 388.168 120.189 387.88C120.781 387.592 121.229 387.168 121.533 386.608C121.837 386.048 121.989 385.352 121.989 384.52V382.096L122.253 382.264C122.173 382.76 121.909 383.24 121.461 383.704C121.029 384.152 120.485 384.52 119.829 384.808C119.173 385.096 118.501 385.24 117.813 385.24C116.613 385.24 115.541 384.96 114.597 384.4C113.669 383.824 112.933 383.048 112.389 382.072C111.845 381.08 111.573 379.952 111.573 378.688C111.573 377.424 111.837 376.304 112.365 375.328C112.909 374.336 113.645 373.56 114.573 373C115.517 372.424 116.573 372.136 117.741 372.136C118.221 372.136 118.685 372.2 119.133 372.328C119.581 372.44 119.997 372.608 120.381 372.832C120.765 373.04 121.109 373.272 121.413 373.528C121.717 373.784 121.965 374.056 122.157 374.344C122.349 374.632 122.469 374.904 122.517 375.16L121.989 375.352V372.4H124.461V384.232C124.461 385.24 124.309 386.128 124.005 386.896C123.717 387.68 123.293 388.336 122.733 388.864C122.173 389.408 121.493 389.816 120.693 390.088C119.893 390.376 118.989 390.52 117.981 390.52ZM118.077 382.96C118.861 382.96 119.557 382.776 120.165 382.408C120.773 382.04 121.245 381.536 121.581 380.896C121.917 380.256 122.085 379.52 122.085 378.688C122.085 377.856 121.909 377.12 121.557 376.48C121.221 375.824 120.749 375.312 120.141 374.944C119.549 374.576 118.861 374.392 118.077 374.392C117.309 374.392 116.621 374.584 116.013 374.968C115.421 375.336 114.949 375.848 114.597 376.504C114.261 377.144 114.093 377.872 114.093 378.688C114.093 379.504 114.261 380.24 114.597 380.896C114.949 381.536 115.421 382.04 116.013 382.408C116.621 382.776 117.309 382.96 118.077 382.96ZM128.335 385V372.4H130.807V385H128.335ZM129.535 369.616C129.007 369.616 128.599 369.48 128.311 369.208C128.023 368.936 127.879 368.552 127.879 368.056C127.879 367.592 128.023 367.216 128.311 366.928C128.615 366.64 129.023 366.496 129.535 366.496C130.063 366.496 130.471 366.632 130.759 366.904C131.047 367.176 131.191 367.56 131.191 368.056C131.191 368.52 131.039 368.896 130.735 369.184C130.447 369.472 130.047 369.616 129.535 369.616ZM139.959 385.24C138.791 385.24 137.743 384.952 136.815 384.376C135.903 383.8 135.175 383.016 134.631 382.024C134.103 381.032 133.839 379.92 133.839 378.688C133.839 377.456 134.103 376.344 134.631 375.352C135.175 374.36 135.903 373.576 136.815 373C137.743 372.424 138.791 372.136 139.959 372.136C141.079 372.136 142.095 372.368 143.007 372.832C143.935 373.28 144.639 373.896 145.119 374.68L143.751 376.36C143.495 375.992 143.167 375.656 142.767 375.352C142.367 375.048 141.943 374.808 141.495 374.632C141.047 374.456 140.615 374.368 140.199 374.368C139.431 374.368 138.743 374.56 138.135 374.944C137.543 375.312 137.071 375.824 136.719 376.48C136.367 377.136 136.191 377.872 136.191 378.688C136.191 379.504 136.375 380.24 136.743 380.896C137.111 381.536 137.599 382.048 138.207 382.432C138.815 382.816 139.487 383.008 140.223 383.008C140.655 383.008 141.071 382.936 141.471 382.792C141.887 382.648 142.287 382.432 142.671 382.144C143.055 381.856 143.415 381.504 143.751 381.088L145.119 382.768C144.607 383.488 143.871 384.08 142.911 384.544C141.967 385.008 140.983 385.24 139.959 385.24ZM159.817 390.52C158.921 390.52 158.025 390.376 157.129 390.088C156.249 389.816 155.537 389.456 154.993 389.008L155.905 387.088C156.225 387.328 156.601 387.536 157.033 387.712C157.465 387.904 157.921 388.048 158.401 388.144C158.881 388.256 159.353 388.312 159.817 388.312C160.697 388.312 161.433 388.168 162.025 387.88C162.617 387.592 163.065 387.168 163.369 386.608C163.673 386.048 163.825 385.352 163.825 384.52V382.096L164.089 382.264C164.009 382.76 163.745 383.24 163.297 383.704C162.865 384.152 162.321 384.52 161.665 384.808C161.009 385.096 160.337 385.24 159.649 385.24C158.449 385.24 157.377 384.96 156.433 384.4C155.505 383.824 154.769 383.048 154.225 382.072C153.681 381.08 153.409 379.952 153.409 378.688C153.409 377.424 153.673 376.304 154.201 375.328C154.745 374.336 155.481 373.56 156.409 373C157.353 372.424 158.409 372.136 159.577 372.136C160.057 372.136 160.521 372.2 160.969 372.328C161.417 372.44 161.833 372.608 162.217 372.832C162.601 373.04 162.945 373.272 163.249 373.528C163.553 373.784 163.801 374.056 163.993 374.344C164.185 374.632 164.305 374.904 164.353 375.16L163.825 375.352V372.4H166.297V384.232C166.297 385.24 166.145 386.128 165.841 386.896C165.553 387.68 165.129 388.336 164.569 388.864C164.009 389.408 163.329 389.816 162.529 390.088C161.729 390.376 160.825 390.52 159.817 390.52ZM159.913 382.96C160.697 382.96 161.393 382.776 162.001 382.408C162.609 382.04 163.081 381.536 163.417 380.896C163.753 380.256 163.921 379.52 163.921 378.688C163.921 377.856 163.745 377.12 163.393 376.48C163.057 375.824 162.585 375.312 161.977 374.944C161.385 374.576 160.697 374.392 159.913 374.392C159.145 374.392 158.457 374.584 157.849 374.968C157.257 375.336 156.785 375.848 156.433 376.504C156.097 377.144 155.929 377.872 155.929 378.688C155.929 379.504 156.097 380.24 156.433 380.896C156.785 381.536 157.257 382.04 157.849 382.408C158.457 382.776 159.145 382.96 159.913 382.96ZM175.643 385.24C174.347 385.24 173.195 384.968 172.187 384.424C171.195 383.864 170.411 383.104 169.835 382.144C169.275 381.184 168.995 380.08 168.995 378.832C168.995 377.84 169.155 376.936 169.475 376.12C169.795 375.304 170.235 374.6 170.795 374.008C171.371 373.4 172.051 372.936 172.835 372.616C173.635 372.28 174.499 372.112 175.427 372.112C176.243 372.112 177.003 372.272 177.707 372.592C178.411 372.896 179.019 373.32 179.531 373.864C180.059 374.408 180.459 375.056 180.731 375.808C181.019 376.544 181.155 377.352 181.139 378.232L181.115 379.288H170.819L170.267 377.32H178.979L178.619 377.728V377.152C178.571 376.624 178.395 376.152 178.091 375.736C177.787 375.32 177.403 374.992 176.939 374.752C176.475 374.512 175.971 374.392 175.427 374.392C174.563 374.392 173.835 374.56 173.243 374.896C172.651 375.216 172.203 375.696 171.899 376.336C171.595 376.96 171.443 377.736 171.443 378.664C171.443 379.544 171.627 380.312 171.995 380.968C172.363 381.608 172.883 382.104 173.555 382.456C174.227 382.808 175.003 382.984 175.883 382.984C176.507 382.984 177.083 382.88 177.611 382.672C178.155 382.464 178.739 382.088 179.363 381.544L180.611 383.296C180.227 383.68 179.755 384.016 179.195 384.304C178.651 384.592 178.067 384.824 177.443 385C176.835 385.16 176.235 385.24 175.643 385.24ZM183.778 385V372.4H186.274V375.088L185.818 375.376C185.946 374.96 186.146 374.56 186.418 374.176C186.706 373.792 187.05 373.456 187.45 373.168C187.866 372.864 188.306 372.624 188.77 372.448C189.25 372.272 189.738 372.184 190.234 372.184C190.954 372.184 191.586 372.304 192.13 372.544C192.674 372.784 193.122 373.144 193.474 373.624C193.826 374.104 194.082 374.704 194.242 375.424L193.858 375.328L194.026 374.92C194.202 374.552 194.442 374.208 194.746 373.888C195.066 373.552 195.426 373.256 195.826 373C196.226 372.744 196.65 372.544 197.098 372.4C197.546 372.256 197.986 372.184 198.418 372.184C199.362 372.184 200.138 372.376 200.746 372.76C201.37 373.144 201.834 373.728 202.138 374.512C202.458 375.296 202.618 376.272 202.618 377.44V385H200.122V377.584C200.122 376.864 200.026 376.28 199.834 375.832C199.658 375.368 199.386 375.024 199.018 374.8C198.65 374.576 198.178 374.464 197.602 374.464C197.154 374.464 196.73 374.544 196.33 374.704C195.946 374.848 195.61 375.056 195.322 375.328C195.034 375.6 194.81 375.92 194.65 376.288C194.49 376.64 194.41 377.032 194.41 377.464V385H191.914V377.536C191.914 376.88 191.818 376.328 191.626 375.88C191.434 375.416 191.154 375.064 190.786 374.824C190.418 374.584 189.97 374.464 189.442 374.464C188.994 374.464 188.578 374.544 188.194 374.704C187.81 374.848 187.474 375.056 187.186 375.328C186.898 375.584 186.674 375.896 186.514 376.264C186.354 376.616 186.274 377 186.274 377.416V385H183.778ZM210.127 385.24C209.071 385.24 208.119 385.056 207.271 384.688C206.423 384.32 205.719 383.776 205.159 383.056L206.839 381.616C207.319 382.176 207.839 382.584 208.399 382.84C208.975 383.08 209.623 383.2 210.343 383.2C210.631 383.2 210.895 383.168 211.135 383.104C211.391 383.024 211.607 382.912 211.783 382.768C211.975 382.624 212.119 382.456 212.215 382.264C212.311 382.056 212.359 381.832 212.359 381.592C212.359 381.176 212.207 380.84 211.903 380.584C211.743 380.472 211.487 380.352 211.135 380.224C210.799 380.08 210.359 379.936 209.815 379.792C208.887 379.552 208.127 379.28 207.535 378.976C206.943 378.672 206.487 378.328 206.167 377.944C205.927 377.64 205.751 377.312 205.639 376.96C205.527 376.592 205.471 376.192 205.471 375.76C205.471 375.232 205.583 374.752 205.807 374.32C206.047 373.872 206.367 373.488 206.767 373.168C207.183 372.832 207.663 372.576 208.207 372.4C208.767 372.224 209.359 372.136 209.983 372.136C210.575 372.136 211.159 372.216 211.735 372.376C212.327 372.536 212.871 372.768 213.367 373.072C213.863 373.376 214.279 373.736 214.615 374.152L213.199 375.712C212.895 375.408 212.559 375.144 212.191 374.92C211.839 374.68 211.479 374.496 211.111 374.368C210.743 374.24 210.407 374.176 210.103 374.176C209.767 374.176 209.463 374.208 209.191 374.272C208.919 374.336 208.687 374.432 208.495 374.56C208.319 374.688 208.183 374.848 208.087 375.04C207.991 375.232 207.943 375.448 207.943 375.688C207.959 375.896 208.007 376.096 208.087 376.288C208.183 376.464 208.311 376.616 208.471 376.744C208.647 376.872 208.911 377.008 209.263 377.152C209.615 377.296 210.063 377.432 210.607 377.56C211.407 377.768 212.063 378 212.575 378.256C213.103 378.496 213.519 378.776 213.823 379.096C214.143 379.4 214.367 379.752 214.495 380.152C214.623 380.552 214.687 381 214.687 381.496C214.687 382.216 214.479 382.864 214.063 383.44C213.663 384 213.119 384.44 212.431 384.76C211.743 385.08 210.975 385.24 210.127 385.24Z" fill="#FAF9F6"/>
<path d="M261.214 293.807C192.535 349.579 138.052 312.796 119.395 287.433L190.902 295.4L243.885 275.681L261.214 293.807Z" fill="#727778"/>
<path d="M279.938 162.743C323.281 224.092 285.515 275.681 261.215 293.807L241.894 273.888L273.962 230.665L279.938 162.743Z" fill="#717372"/>
<path d="M292.685 253.372L274.758 235.645L242.889 274.884L261.214 293.807C278.901 280.581 289.564 261.34 292.685 253.372Z" fill="#A6AAAB"/>
<path d="M230.74 123.902C290.018 142.068 290.761 192.554 283.724 215.527L97.4854 206.165C100.274 184.056 156.643 101.195 230.74 123.902Z" fill="#D3D6D5"/>
<path d="M145.687 299.782C92.6245 286.875 91.4426 231.993 97.4846 206.165L283.723 215.527C262.808 272.295 212.016 315.916 145.687 299.782Z" fill="#CACCCE"/>
<path d="M178.951 285.64C226.915 283.887 257.098 237.636 266.194 214.73L113.021 206.962C103.858 248.392 118.996 287.831 178.951 285.64Z" fill="#ABB1B3"/>
<path d="M230.739 141.032C274.082 155.852 272.435 196.339 266.194 214.731L113.22 207.162C115.411 179.674 176.561 122.508 230.739 141.032Z" fill="#DEDEDE"/>
<path d="M151.463 258.352C147.957 259.627 146.417 257.555 146.085 256.36L176.162 242.417L184.528 244.807C174.967 248.791 154.969 257.077 151.463 258.352Z" fill="#727778"/>
<path d="M211.22 254.568C210.264 264.288 203.916 261.141 200.862 258.352L205.842 231.263C215.336 219.909 235.64 197.84 240.899 200.389C246.157 202.939 244.683 205.701 243.289 206.763C236.649 211.676 222.454 222.14 218.789 224.69C215.124 227.239 214.075 229.603 214.009 230.466C213.477 234.45 212.176 244.847 211.22 254.568Z" fill="#727778"/>
<path d="M154.45 226.283C155.725 223.734 156.176 221.104 156.243 220.108H157.836L158.832 231.86C154.317 239.562 144.969 254.687 143.694 253.572C142.419 252.456 142.765 250.584 143.097 249.787C146.35 243.015 153.175 228.833 154.45 226.283Z" fill="#FAFAFA"/>
<path d="M156.443 221.104L148.277 208.755L228.15 212.739C224.83 215.195 217.553 220.586 215.004 222.499C212.454 224.411 211.418 227.146 211.219 228.275C210.489 233.852 208.869 246.72 208.231 253.572C207.594 260.424 202.787 259.481 200.463 258.153C194.288 253.97 181.62 245.365 180.346 244.409C179.071 243.453 177.159 243.878 176.362 244.21C168.594 247.463 151.822 254.408 146.882 256.161C141.943 257.914 142.7 253.704 143.695 251.381C147.679 243.015 155.806 225.925 156.443 224.491C157.081 223.056 156.709 221.636 156.443 221.104Z" fill="#CACCCE"/>
<path d="M209.027 170.511C208.389 165.731 206.105 164.934 205.043 165.133L207.632 191.027L213.01 192.621C211.948 187.243 209.664 175.292 209.027 170.511Z" fill="#727778"/>
<path d="M238.905 197.003L209.426 191.027L209.227 193.218C218.522 195.94 237.63 201.026 239.702 199.592C241.773 198.158 240.034 197.268 238.905 197.003Z" fill="#FAFAFA"/>
<path d="M145.689 192.82C139.474 193.776 141.108 198.663 142.701 200.987L169.193 197.003C181.144 190.496 204.847 175.451 204.05 167.324C203.253 159.198 198.938 161.946 196.879 164.337C192.763 169.316 183.693 180.391 180.347 184.853C177.001 189.315 173.774 190.563 172.579 190.629C166.205 190.961 151.903 191.864 145.689 192.82Z" fill="#FAFAFA"/>
<path d="M142.9 201.385L148.278 208.755L227.952 212.738C229.678 211.61 234.366 208.396 239.305 204.572C244.245 200.747 240.567 198.463 238.11 197.799C232.533 196.604 220.263 194.055 215.801 193.417C211.34 192.78 209.826 190.363 209.627 189.235C208.896 185.118 207.077 174.933 205.643 167.125C204.209 159.317 199.734 162.278 197.676 164.735C194.09 169.183 185.964 179.395 182.139 184.653C178.315 189.912 174.836 191.492 173.574 191.625C170.188 191.89 160.866 192.541 150.668 193.019C140.47 193.497 141.24 198.795 142.9 201.385Z" fill="#D3D6D5"/>
<path d="M162.618 148.8C215.681 122.03 249.662 146.41 260.019 161.946C221.178 124.5 181.939 143.821 162.618 153.381C143.297 162.942 124.972 183.658 116.009 207.161C108.838 225.965 113.95 249.123 117.403 258.352C105.93 243.373 109.369 217.851 112.622 206.962C121.073 178.678 148.476 156.236 162.618 148.8Z" fill="#5B5F60"/>
</svg>
