<svg width="395" height="491" viewBox="0 0 395 491" fill="none" xmlns="http://www.w3.org/2000/svg">
<rect width="394.099" height="490.871" rx="20" fill="#202020" fill-opacity="0.5"/>
<path d="M39.44 75.52C39.44 73.1733 39.9467 71.1467 40.96 69.44C42 67.7333 43.08 66.88 44.2 66.88C44.4933 66.88 44.7867 66.9733 45.08 67.16L45.2 67.44C44.8533 68.1067 44.64 68.9467 44.56 69.96L44.32 70.12C44.2133 70.0667 44.0133 70.04 43.72 70.04C43.4267 70.04 42.9867 70.2 42.4 70.52C41.84 70.84 41.4 71.16 41.08 71.48C40.8933 71.8533 40.8 72.28 40.8 72.76C40.8 74.0133 41.64 75.0933 43.32 76C45.0267 76.88 46.6667 77.32 48.24 77.32C51.52 77.32 53.16 75.4533 53.16 71.72C53.16 70.3067 51.8133 68.5333 49.12 66.4C48 65.4933 46.88 64.5867 45.76 63.68C43.0667 61.5467 41.72 59.6933 41.72 58.12C41.72 56.2533 42.56 54.52 44.24 52.92C45.92 51.2933 47.8267 50.1067 49.96 49.36C52.2533 49.36 54.4267 49.5867 56.48 50.04V50.84C55.0933 52.12 54.32 54.0933 54.16 56.76H53.16C53.16 55.3467 53.0933 54.1067 52.96 53.04C51.8133 52.5067 50.56 52.24 49.2 52.24C47.8667 52.24 46.7333 52.5333 45.8 53.12C44.8667 53.68 44.4 54.4 44.4 55.28C44.4 56.16 44.7867 57.0533 45.56 57.96C46.36 58.84 47.32 59.7067 48.44 60.56C49.56 61.3867 50.6667 62.24 51.76 63.12C52.88 63.9733 53.8267 64.9067 54.6 65.92C55.4 66.9067 55.8 67.8667 55.8 68.8C55.8 71.4667 55.0667 73.84 53.6 75.92C52.1333 78 50.1333 79.56 47.6 80.6C44.2667 80.2533 41.6 79.32 39.6 77.8C39.4933 77.0533 39.44 76.2933 39.44 75.52ZM65.5938 56.48C65.3804 57.92 65.2738 60.8667 65.2738 65.32C65.2738 69.7733 65.3938 72.8933 65.6338 74.68C66.8338 74.8133 67.9404 75.0133 68.9538 75.28L68.8338 76.28C67.4471 76.0933 65.8871 76 64.1538 76C62.4471 76 60.9138 76.1067 59.5538 76.32L59.3938 75.28C60.1404 75.04 60.9804 74.84 61.9138 74.68C62.1538 72.76 62.2738 70.04 62.2738 66.52V64.64C62.2738 61.12 62.1404 58.4 61.8738 56.48C60.9404 56.32 60.1004 56.12 59.3538 55.88L59.5138 54.84C60.8738 55.0533 62.4071 55.16 64.1138 55.16C65.8471 55.16 67.4071 55.0667 68.7938 54.88L68.9138 55.88C67.9004 56.1467 66.7938 56.3467 65.5938 56.48ZM81.2975 76.28C79.9108 76.0933 78.3508 76 76.6175 76C74.9108 76 73.3775 76.1067 72.0175 76.32L71.8575 75.28C72.7108 75.0133 73.5108 74.8133 74.2575 74.68C74.4975 72.6 74.6175 69.88 74.6175 66.52V64.64C74.6175 61.0667 74.4842 58.32 74.2175 56.4C73.4975 56.32 72.6308 56.1067 71.6175 55.76L71.7375 54.72C73.2575 55.0133 74.8442 55.16 76.4975 55.16C78.1775 55.16 79.3775 55.0667 80.0975 54.88L80.1775 55.56C79.4575 55.7467 79.0975 56.0533 79.0975 56.48C79.0975 56.8 79.4042 57.48 80.0175 58.52C80.6575 59.5333 81.2708 60.52 81.8575 61.48C83.6175 64.28 85.6975 67.72 88.0975 71.8L88.2175 71.72V66.84C88.2175 63.2667 88.0308 60.5867 87.6575 58.8C87.2842 56.9867 86.6442 55.9333 85.7375 55.64L85.8175 54.96C86.5108 55.0933 87.5508 55.16 88.9375 55.16C90.3242 55.16 91.7508 55.0133 93.2175 54.72L93.3375 55.76C92.2442 56.1067 91.3242 56.32 90.5775 56.4C90.3108 58.5333 90.1775 61.28 90.1775 64.64V66.52C90.1775 70.5733 90.3108 73.32 90.5775 74.76C91.6975 74.9467 92.5908 75.16 93.2575 75.4L93.1375 76.44C91.8042 76.1467 90.5508 76 89.3775 76C88.2042 76 87.2975 76.0533 86.6575 76.16C86.6575 75.5733 86.2442 74.5867 85.4175 73.2C84.6175 71.8133 83.8842 70.5867 83.2175 69.52C81.0575 66.0267 78.9375 62.48 76.8575 58.88L76.6975 58.96V64.32C76.6975 69.6267 77.0975 73.08 77.8975 74.68C79.0975 74.8133 80.2708 75.0133 81.4175 75.28L81.2975 76.28ZM112.567 76.48C109.927 76.48 107.794 75.6533 106.167 74C104.54 72.32 103.727 70.08 103.727 67.28C103.727 64.48 104.58 61.8533 106.287 59.4C107.994 56.9467 110.22 55.3733 112.967 54.68C115.714 54.68 117.807 55.4667 119.247 57.04C120.687 58.5867 121.407 60.8 121.407 63.68C121.407 66.56 120.62 69.16 119.047 71.48C117.5 73.8 115.34 75.4667 112.567 76.48ZM111.887 57.12C110.687 57.12 109.647 57.4533 108.767 58.12C107.674 59.9867 107.127 62.3333 107.127 65.16C107.127 68.4133 108.034 70.9067 109.847 72.64C110.807 73.5733 111.94 74.04 113.247 74.04C114.554 74.04 115.607 73.6933 116.407 73C117.474 71.1333 118.007 68.8533 118.007 66.16C118.007 63.4667 117.527 61.2933 116.567 59.64C115.607 57.96 114.047 57.12 111.887 57.12ZM137.142 57.32C136.208 56.8667 135.128 56.64 133.902 56.64C132.675 56.64 131.742 56.6933 131.102 56.8C130.888 58.24 130.782 60.7067 130.782 64.2C131.715 64.3867 132.608 64.48 133.462 64.48C135.035 64.48 136.048 64.0133 136.502 63.08L137.342 63.2C137.102 64 136.982 64.7867 136.982 65.56C136.982 66.3333 137.075 67.28 137.262 68.4L136.302 68.56C136.008 67.76 135.795 66.9333 135.662 66.08C134.595 65.9733 133.795 65.92 133.262 65.92C132.728 65.92 131.902 65.9867 130.782 66.12C130.782 69.7467 130.902 72.6 131.142 74.68C132.315 74.8133 133.502 75.0267 134.702 75.32L134.582 76.32C133.275 76.1067 131.702 76 129.862 76C128.022 76 126.422 76.1067 125.062 76.32L124.902 75.28C125.702 75.0133 126.542 74.8133 127.422 74.68C127.662 72.76 127.782 70.04 127.782 66.52V64.64C127.782 62.1867 127.648 59.4667 127.382 56.48C126.422 56.2933 125.568 56.0533 124.822 55.76L124.942 54.76C126.942 55.0267 129.515 55.16 132.662 55.16C135.835 55.16 138.288 55.0133 140.022 54.72L140.222 55.52C139.155 56.64 138.555 58.3067 138.422 60.52H137.422C137.235 59.64 137.142 58.5733 137.142 57.32ZM160.106 73.36C161.36 73.36 162.666 72.9867 164.026 72.24V68.96C164.026 68.3467 163.973 67.4533 163.866 66.28C162.933 66.0133 161.72 65.7467 160.226 65.48L160.346 64.64C160.96 64.72 161.546 64.76 162.106 64.76C164.453 64.76 166.6 64.1067 168.546 62.8L168.906 63.52C168.293 64 167.813 64.48 167.466 64.96C166.96 69.6 166.693 73.9333 166.666 77.96C165.893 79.3733 164.613 80.7333 162.826 82.04C161.066 83.3467 159.453 84 157.986 84C157.586 84 157.253 83.8933 156.986 83.68C156.72 83.4667 156.586 83.1733 156.586 82.8C157.36 82.2133 158.013 81.5333 158.546 80.76L158.826 80.72C159.413 81.1733 160.093 81.4 160.866 81.4C161.64 81.4 162.173 81.32 162.466 81.16C163.56 79.6933 164.106 77.2933 164.106 73.96C162.64 75.1067 161.013 75.9867 159.226 76.6C156.026 76.6 153.613 75.6 151.986 73.6C150.386 71.5733 149.586 68.7867 149.586 65.24C149.586 61.6667 150.56 58.36 152.506 55.32C154.48 52.2533 157.12 50.2667 160.426 49.36C163.2 49.36 165.986 49.6133 168.786 50.12L168.746 51C168.08 51 167.44 51.12 166.826 51.36C166.106 53.04 165.666 54.92 165.506 57H164.506C164.266 55.9067 164.146 54.6667 164.146 53.28C162.893 52.5867 161.36 52.24 159.546 52.24C157.733 52.24 156.28 52.6933 155.186 53.6C153.826 55.92 153.146 58.8667 153.146 62.44C153.146 69.72 155.466 73.36 160.106 73.36ZM171.892 55.24L181.092 54.96C183.492 54.96 185.292 55.32 186.492 56.04C187.692 56.7333 188.292 58.0133 188.292 59.88C188.292 61.16 187.892 62.2933 187.092 63.28C186.319 64.2667 185.292 65 184.012 65.48L188.492 74.64C189.399 74.8 190.252 74.9867 191.052 75.2L190.892 76.28C189.772 76.0933 188.505 76 187.092 76C185.705 76 184.612 76.0667 183.812 76.2L183.652 75.56C183.999 75.2133 184.172 74.64 184.172 73.84C184.172 72.2133 183.239 69.6 181.372 66C180.812 65.8933 180.159 65.84 179.412 65.84L179.492 64.68H179.892C183.039 64.68 184.612 63.24 184.612 60.36C184.612 57.6933 183.265 56.36 180.572 56.36C179.665 56.36 178.852 56.5067 178.132 56.8C177.945 58.56 177.852 61.5733 177.852 65.84C177.852 70.1067 177.972 73.0533 178.212 74.68C179.385 74.8133 180.479 75.0133 181.492 75.28L181.372 76.28C179.985 76.0933 178.425 76 176.692 76C174.985 76 173.452 76.1067 172.092 76.32L171.932 75.28C172.679 75.04 173.519 74.84 174.452 74.68C174.719 72.68 174.852 69.5733 174.852 65.36C174.852 61.12 174.732 58.1867 174.492 56.56C173.452 56.2133 172.585 56.04 171.892 56.04V55.24ZM196.467 66.12C196.547 68.4933 196.987 70.3467 197.787 71.68C198.587 73.0133 199.947 73.68 201.867 73.68C203.787 73.68 205.56 72.8667 207.187 71.24L207.747 71.8C205.96 74.0667 203.813 75.6267 201.307 76.48C198.72 76.48 196.693 75.6667 195.227 74.04C193.76 72.3867 193.027 70.1733 193.027 67.4C193.027 64.6 193.893 61.9733 195.627 59.52C197.36 57.0667 199.573 55.4533 202.267 54.68C204.213 54.68 206.413 54.88 208.867 55.28L208.827 56.16C208.32 56.16 207.84 56.2533 207.387 56.44C206.88 57.64 206.547 59.0667 206.387 60.72H205.387C205.173 59.8133 205.067 58.88 205.067 57.92C204.053 57.4133 202.853 57.16 201.467 57.16C200.08 57.16 198.933 57.5333 198.027 58.28C197.12 59.9333 196.6 61.9067 196.467 64.2C197.587 64.3867 198.787 64.48 200.067 64.48C202.28 64.48 203.613 64.0133 204.067 63.08L204.907 63.2C204.667 64 204.547 64.7867 204.547 65.56C204.547 66.3333 204.64 67.28 204.827 68.4L203.867 68.56C203.573 67.76 203.36 66.9333 203.227 66.08C202.16 65.9733 201.093 65.92 200.027 65.92C198.987 65.92 197.8 65.9867 196.467 66.12ZM214.396 66.12C214.476 68.4933 214.916 70.3467 215.716 71.68C216.516 73.0133 217.876 73.68 219.796 73.68C221.716 73.68 223.49 72.8667 225.116 71.24L225.676 71.8C223.89 74.0667 221.743 75.6267 219.236 76.48C216.65 76.48 214.623 75.6667 213.156 74.04C211.69 72.3867 210.956 70.1733 210.956 67.4C210.956 64.6 211.823 61.9733 213.556 59.52C215.29 57.0667 217.503 55.4533 220.196 54.68C222.143 54.68 224.343 54.88 226.796 55.28L226.756 56.16C226.25 56.16 225.77 56.2533 225.316 56.44C224.81 57.64 224.476 59.0667 224.316 60.72H223.316C223.103 59.8133 222.996 58.88 222.996 57.92C221.983 57.4133 220.783 57.16 219.396 57.16C218.01 57.16 216.863 57.5333 215.956 58.28C215.05 59.9333 214.53 61.9067 214.396 64.2C215.516 64.3867 216.716 64.48 217.996 64.48C220.21 64.48 221.543 64.0133 221.996 63.08L222.836 63.2C222.596 64 222.476 64.7867 222.476 65.56C222.476 66.3333 222.57 67.28 222.756 68.4L221.796 68.56C221.503 67.76 221.29 66.9333 221.156 66.08C220.09 65.9733 219.023 65.92 217.956 65.92C216.916 65.92 215.73 65.9867 214.396 66.12ZM228.526 55.24L237.726 54.96C240.766 54.96 243.099 55.68 244.726 57.12C246.379 58.56 247.206 60.72 247.206 63.6C247.206 66.4533 246.299 69.12 244.486 71.6C242.699 74.08 240.473 75.7067 237.806 76.48C237.113 76.48 236.206 76.3467 235.086 76.08C233.993 75.84 233.086 75.5733 232.366 75.28C232.073 75.6267 231.806 76.12 231.566 76.76L230.726 76.56C231.233 74.1867 231.486 70.84 231.486 66.52C231.486 62.1733 231.366 58.92 231.126 56.76C230.219 56.4133 229.353 56.24 228.526 56.24V55.24ZM242.286 59.24C241.806 58.3333 241.126 57.6267 240.246 57.12C239.393 56.6133 238.446 56.36 237.406 56.36C236.393 56.36 235.513 56.5067 234.766 56.8C234.579 58.5333 234.486 61.3067 234.486 65.12C234.486 68.9067 234.539 71.5333 234.646 73C235.979 73.6133 237.339 73.92 238.726 73.92C240.139 73.92 241.259 73.56 242.086 72.84C243.099 70.92 243.606 68.56 243.606 65.76C243.606 63.1467 243.166 60.9733 242.286 59.24Z" fill="#FAF9F6"/>
<path d="M41.6215 385V368.2H48.1975C49.3975 368.2 50.4775 368.4 51.4375 368.8C52.4135 369.2 53.2455 369.776 53.9335 370.528C54.6215 371.28 55.1495 372.168 55.5175 373.192C55.8855 374.216 56.0695 375.352 56.0695 376.6C56.0695 377.848 55.8855 378.992 55.5175 380.032C55.1495 381.056 54.6215 381.944 53.9335 382.696C53.2615 383.432 52.4375 384 51.4615 384.4C50.4855 384.8 49.3975 385 48.1975 385H41.6215ZM44.2135 382.768L44.1415 382.504H48.0775C48.9255 382.504 49.6775 382.368 50.3335 382.096C51.0055 381.824 51.5655 381.44 52.0135 380.944C52.4775 380.432 52.8295 379.808 53.0695 379.072C53.3095 378.336 53.4295 377.512 53.4295 376.6C53.4295 375.688 53.3095 374.872 53.0695 374.152C52.8295 373.416 52.4775 372.792 52.0135 372.28C51.5495 371.768 50.9895 371.376 50.3335 371.104C49.6775 370.832 48.9255 370.696 48.0775 370.696H44.0695L44.2135 370.48V382.768ZM64.6147 385.24C63.3827 385.24 62.2787 384.96 61.3027 384.4C60.3427 383.824 59.5827 383.048 59.0227 382.072C58.4627 381.08 58.1827 379.952 58.1827 378.688C58.1827 377.424 58.4627 376.304 59.0227 375.328C59.5827 374.336 60.3427 373.56 61.3027 373C62.2787 372.424 63.3827 372.136 64.6147 372.136C65.8307 372.136 66.9187 372.424 67.8787 373C68.8547 373.56 69.6227 374.336 70.1827 375.328C70.7427 376.304 71.0227 377.424 71.0227 378.688C71.0227 379.952 70.7427 381.08 70.1827 382.072C69.6227 383.048 68.8547 383.824 67.8787 384.4C66.9187 384.96 65.8307 385.24 64.6147 385.24ZM64.6147 382.984C65.3667 382.984 66.0387 382.8 66.6307 382.432C67.2227 382.048 67.6867 381.536 68.0227 380.896C68.3587 380.24 68.5187 379.504 68.5027 378.688C68.5187 377.856 68.3587 377.12 68.0227 376.48C67.6867 375.824 67.2227 375.312 66.6307 374.944C66.0387 374.576 65.3667 374.392 64.6147 374.392C63.8627 374.392 63.1827 374.584 62.5747 374.968C61.9827 375.336 61.5187 375.848 61.1827 376.504C60.8467 377.144 60.6867 377.872 60.7027 378.688C60.6867 379.504 60.8467 380.24 61.1827 380.896C61.5187 381.536 61.9827 382.048 62.5747 382.432C63.1827 382.8 63.8627 382.984 64.6147 382.984ZM78.1323 385.24C77.2363 385.24 76.4523 385.032 75.7803 384.616C75.1243 384.2 74.6123 383.616 74.2443 382.864C73.8923 382.112 73.7163 381.216 73.7163 380.176V372.4H76.1883V379.504C76.1883 380.24 76.3003 380.88 76.5243 381.424C76.7643 381.952 77.1003 382.36 77.5323 382.648C77.9803 382.936 78.5163 383.08 79.1403 383.08C79.6043 383.08 80.0283 383.008 80.4123 382.864C80.7963 382.704 81.1243 382.488 81.3963 382.216C81.6843 381.944 81.9083 381.616 82.0683 381.232C82.2283 380.848 82.3083 380.432 82.3083 379.984V372.4H84.7803V385H82.3083V382.36L82.7403 382.072C82.5483 382.664 82.2203 383.2 81.7563 383.68C81.3083 384.16 80.7723 384.544 80.1483 384.832C79.5243 385.104 78.8523 385.24 78.1323 385.24ZM94.8715 385.24C94.3275 385.24 93.7835 385.152 93.2395 384.976C92.7115 384.8 92.2235 384.568 91.7755 384.28C91.3435 383.976 90.9755 383.648 90.6715 383.296C90.3835 382.928 90.1915 382.56 90.0955 382.192L90.7195 381.856V384.928H88.2475V367.24H90.7195V375.28L90.3355 375.064C90.4155 374.696 90.5915 374.344 90.8635 374.008C91.1355 373.656 91.4795 373.344 91.8955 373.072C92.3275 372.784 92.7915 372.56 93.2875 372.4C93.7835 372.224 94.2875 372.136 94.7995 372.136C95.9355 372.136 96.9435 372.416 97.8235 372.976C98.7035 373.536 99.3995 374.312 99.9115 375.304C100.424 376.28 100.68 377.4 100.68 378.664C100.68 379.928 100.424 381.056 99.9115 382.048C99.4155 383.04 98.7275 383.824 97.8475 384.4C96.9675 384.96 95.9755 385.24 94.8715 385.24ZM94.4635 382.984C95.1995 382.984 95.8555 382.8 96.4315 382.432C97.0075 382.048 97.4635 381.536 97.7995 380.896C98.1355 380.24 98.3035 379.496 98.3035 378.664C98.3035 377.848 98.1355 377.12 97.7995 376.48C97.4795 375.824 97.0315 375.312 96.4555 374.944C95.8795 374.576 95.2155 374.392 94.4635 374.392C93.7115 374.392 93.0475 374.576 92.4715 374.944C91.8955 375.312 91.4395 375.824 91.1035 376.48C90.7675 377.12 90.5995 377.848 90.5995 378.664C90.5995 379.496 90.7675 380.24 91.1035 380.896C91.4395 381.536 91.8955 382.048 92.4715 382.432C93.0475 382.8 93.7115 382.984 94.4635 382.984ZM103.413 385V367.24H105.885V385H103.413ZM115.034 385.24C113.738 385.24 112.586 384.968 111.578 384.424C110.586 383.864 109.802 383.104 109.226 382.144C108.666 381.184 108.386 380.08 108.386 378.832C108.386 377.84 108.546 376.936 108.866 376.12C109.186 375.304 109.626 374.6 110.186 374.008C110.762 373.4 111.442 372.936 112.226 372.616C113.026 372.28 113.89 372.112 114.818 372.112C115.634 372.112 116.394 372.272 117.098 372.592C117.802 372.896 118.41 373.32 118.922 373.864C119.45 374.408 119.85 375.056 120.122 375.808C120.41 376.544 120.546 377.352 120.53 378.232L120.506 379.288H110.21L109.658 377.32H118.37L118.01 377.728V377.152C117.962 376.624 117.786 376.152 117.482 375.736C117.178 375.32 116.794 374.992 116.33 374.752C115.866 374.512 115.362 374.392 114.818 374.392C113.954 374.392 113.226 374.56 112.634 374.896C112.042 375.216 111.594 375.696 111.29 376.336C110.986 376.96 110.834 377.736 110.834 378.664C110.834 379.544 111.018 380.312 111.386 380.968C111.754 381.608 112.274 382.104 112.946 382.456C113.618 382.808 114.394 382.984 115.274 382.984C115.898 382.984 116.474 382.88 117.002 382.672C117.546 382.464 118.13 382.088 118.754 381.544L120.002 383.296C119.618 383.68 119.146 384.016 118.586 384.304C118.042 384.592 117.458 384.824 116.834 385C116.226 385.16 115.626 385.24 115.034 385.24ZM132.055 390.52L134.599 384.64L134.623 386.608L128.335 372.4H131.215L135.151 381.664C135.231 381.824 135.327 382.072 135.439 382.408C135.551 382.728 135.647 383.048 135.727 383.368L135.103 383.512C135.231 383.176 135.351 382.84 135.463 382.504C135.591 382.168 135.711 381.832 135.823 381.496L139.111 372.4H142.039L136.855 385L134.719 390.52H132.055ZM149.318 385.24C148.086 385.24 146.982 384.96 146.006 384.4C145.046 383.824 144.286 383.048 143.726 382.072C143.166 381.08 142.886 379.952 142.886 378.688C142.886 377.424 143.166 376.304 143.726 375.328C144.286 374.336 145.046 373.56 146.006 373C146.982 372.424 148.086 372.136 149.318 372.136C150.534 372.136 151.622 372.424 152.582 373C153.558 373.56 154.326 374.336 154.886 375.328C155.446 376.304 155.726 377.424 155.726 378.688C155.726 379.952 155.446 381.08 154.886 382.072C154.326 383.048 153.558 383.824 152.582 384.4C151.622 384.96 150.534 385.24 149.318 385.24ZM149.318 382.984C150.07 382.984 150.742 382.8 151.334 382.432C151.926 382.048 152.39 381.536 152.726 380.896C153.062 380.24 153.222 379.504 153.206 378.688C153.222 377.856 153.062 377.12 152.726 376.48C152.39 375.824 151.926 375.312 151.334 374.944C150.742 374.576 150.07 374.392 149.318 374.392C148.566 374.392 147.886 374.584 147.278 374.968C146.686 375.336 146.222 375.848 145.886 376.504C145.55 377.144 145.39 377.872 145.406 378.688C145.39 379.504 145.55 380.24 145.886 380.896C146.222 381.536 146.686 382.048 147.278 382.432C147.886 382.8 148.566 382.984 149.318 382.984ZM162.835 385.24C161.939 385.24 161.155 385.032 160.483 384.616C159.827 384.2 159.315 383.616 158.947 382.864C158.595 382.112 158.419 381.216 158.419 380.176V372.4H160.891V379.504C160.891 380.24 161.003 380.88 161.227 381.424C161.467 381.952 161.803 382.36 162.235 382.648C162.683 382.936 163.219 383.08 163.843 383.08C164.307 383.08 164.731 383.008 165.115 382.864C165.499 382.704 165.827 382.488 166.099 382.216C166.387 381.944 166.611 381.616 166.771 381.232C166.931 380.848 167.011 380.432 167.011 379.984V372.4H169.483V385H167.011V382.36L167.443 382.072C167.251 382.664 166.923 383.2 166.459 383.68C166.011 384.16 165.475 384.544 164.851 384.832C164.227 385.104 163.555 385.24 162.835 385.24ZM172.951 385V372.4H175.447V376.36L175.207 375.4C175.383 374.792 175.679 374.24 176.095 373.744C176.527 373.248 177.015 372.856 177.559 372.568C178.119 372.28 178.695 372.136 179.287 372.136C179.559 372.136 179.815 372.16 180.055 372.208C180.311 372.256 180.511 372.312 180.655 372.376L180.007 375.064C179.815 374.984 179.599 374.92 179.359 374.872C179.135 374.808 178.911 374.776 178.687 374.776C178.255 374.776 177.839 374.864 177.439 375.04C177.055 375.2 176.711 375.432 176.407 375.736C176.119 376.024 175.887 376.368 175.711 376.768C175.535 377.152 175.447 377.576 175.447 378.04V385H172.951ZM190.917 385V369.184H193.389V385H190.917ZM188.301 374.8V372.4H196.317V374.8H188.301ZM204.115 385.24C202.883 385.24 201.779 384.96 200.803 384.4C199.843 383.824 199.083 383.048 198.523 382.072C197.963 381.08 197.683 379.952 197.683 378.688C197.683 377.424 197.963 376.304 198.523 375.328C199.083 374.336 199.843 373.56 200.803 373C201.779 372.424 202.883 372.136 204.115 372.136C205.331 372.136 206.419 372.424 207.379 373C208.355 373.56 209.123 374.336 209.683 375.328C210.243 376.304 210.523 377.424 210.523 378.688C210.523 379.952 210.243 381.08 209.683 382.072C209.123 383.048 208.355 383.824 207.379 384.4C206.419 384.96 205.331 385.24 204.115 385.24ZM204.115 382.984C204.867 382.984 205.539 382.8 206.131 382.432C206.723 382.048 207.187 381.536 207.523 380.896C207.859 380.24 208.019 379.504 208.003 378.688C208.019 377.856 207.859 377.12 207.523 376.48C207.187 375.824 206.723 375.312 206.131 374.944C205.539 374.576 204.867 374.392 204.115 374.392C203.363 374.392 202.683 374.584 202.075 374.968C201.483 375.336 201.019 375.848 200.683 376.504C200.347 377.144 200.187 377.872 200.203 378.688C200.187 379.504 200.347 380.24 200.683 380.896C201.019 381.536 201.483 382.048 202.075 382.432C202.683 382.8 203.363 382.984 204.115 382.984ZM214.776 385V369.184H217.248V385H214.776ZM212.16 374.8V372.4H220.176V374.8H212.16ZM227.158 385.24C226.118 385.24 225.166 384.952 224.302 384.376C223.454 383.8 222.774 383.016 222.262 382.024C221.75 381.032 221.494 379.912 221.494 378.664C221.494 377.4 221.75 376.28 222.262 375.304C222.79 374.312 223.494 373.536 224.374 372.976C225.27 372.416 226.27 372.136 227.374 372.136C228.03 372.136 228.63 372.232 229.174 372.424C229.718 372.616 230.19 372.888 230.59 373.24C231.006 373.576 231.342 373.968 231.598 374.416C231.87 374.864 232.038 375.344 232.102 375.856L231.55 375.664V372.4H234.046V385H231.55V382L232.126 381.832C232.03 382.264 231.83 382.688 231.526 383.104C231.238 383.504 230.862 383.864 230.398 384.184C229.95 384.504 229.446 384.76 228.886 384.952C228.342 385.144 227.766 385.24 227.158 385.24ZM227.806 382.96C228.558 382.96 229.222 382.776 229.798 382.408C230.374 382.04 230.822 381.536 231.142 380.896C231.478 380.24 231.646 379.496 231.646 378.664C231.646 377.848 231.478 377.12 231.142 376.48C230.822 375.84 230.374 375.336 229.798 374.968C229.222 374.6 228.558 374.416 227.806 374.416C227.07 374.416 226.414 374.6 225.838 374.968C225.278 375.336 224.83 375.84 224.494 376.48C224.174 377.12 224.014 377.848 224.014 378.664C224.014 379.496 224.174 380.24 224.494 380.896C224.83 381.536 225.278 382.04 225.838 382.408C226.414 382.776 227.07 382.96 227.806 382.96ZM237.546 385V367.24H240.018V385H237.546ZM255.888 390.52C254.992 390.52 254.096 390.376 253.2 390.088C252.32 389.816 251.608 389.456 251.064 389.008L251.976 387.088C252.296 387.328 252.672 387.536 253.104 387.712C253.536 387.904 253.992 388.048 254.472 388.144C254.952 388.256 255.424 388.312 255.888 388.312C256.768 388.312 257.504 388.168 258.096 387.88C258.688 387.592 259.136 387.168 259.44 386.608C259.744 386.048 259.896 385.352 259.896 384.52V382.096L260.16 382.264C260.08 382.76 259.816 383.24 259.368 383.704C258.936 384.152 258.392 384.52 257.736 384.808C257.08 385.096 256.408 385.24 255.72 385.24C254.52 385.24 253.448 384.96 252.504 384.4C251.576 383.824 250.84 383.048 250.296 382.072C249.752 381.08 249.48 379.952 249.48 378.688C249.48 377.424 249.744 376.304 250.272 375.328C250.816 374.336 251.552 373.56 252.48 373C253.424 372.424 254.48 372.136 255.648 372.136C256.128 372.136 256.592 372.2 257.04 372.328C257.488 372.44 257.904 372.608 258.288 372.832C258.672 373.04 259.016 373.272 259.32 373.528C259.624 373.784 259.872 374.056 260.064 374.344C260.256 374.632 260.376 374.904 260.424 375.16L259.896 375.352V372.4H262.368V384.232C262.368 385.24 262.216 386.128 261.912 386.896C261.624 387.68 261.2 388.336 260.64 388.864C260.08 389.408 259.4 389.816 258.6 390.088C257.8 390.376 256.896 390.52 255.888 390.52ZM255.984 382.96C256.768 382.96 257.464 382.776 258.072 382.408C258.68 382.04 259.152 381.536 259.488 380.896C259.824 380.256 259.992 379.52 259.992 378.688C259.992 377.856 259.816 377.12 259.464 376.48C259.128 375.824 258.656 375.312 258.048 374.944C257.456 374.576 256.768 374.392 255.984 374.392C255.216 374.392 254.528 374.584 253.92 374.968C253.328 375.336 252.856 375.848 252.504 376.504C252.168 377.144 252 377.872 252 378.688C252 379.504 252.168 380.24 252.504 380.896C252.856 381.536 253.328 382.04 253.92 382.408C254.528 382.776 255.216 382.96 255.984 382.96ZM271.713 385.24C270.417 385.24 269.265 384.968 268.257 384.424C267.265 383.864 266.481 383.104 265.905 382.144C265.345 381.184 265.065 380.08 265.065 378.832C265.065 377.84 265.225 376.936 265.545 376.12C265.865 375.304 266.305 374.6 266.865 374.008C267.441 373.4 268.121 372.936 268.905 372.616C269.705 372.28 270.569 372.112 271.497 372.112C272.313 372.112 273.073 372.272 273.777 372.592C274.481 372.896 275.089 373.32 275.601 373.864C276.129 374.408 276.529 375.056 276.801 375.808C277.089 376.544 277.225 377.352 277.209 378.232L277.185 379.288H266.889L266.337 377.32H275.049L274.689 377.728V377.152C274.641 376.624 274.465 376.152 274.161 375.736C273.857 375.32 273.473 374.992 273.009 374.752C272.545 374.512 272.041 374.392 271.497 374.392C270.633 374.392 269.905 374.56 269.313 374.896C268.721 375.216 268.273 375.696 267.969 376.336C267.665 376.96 267.513 377.736 267.513 378.664C267.513 379.544 267.697 380.312 268.065 380.968C268.433 381.608 268.953 382.104 269.625 382.456C270.297 382.808 271.073 382.984 271.953 382.984C272.577 382.984 273.153 382.88 273.681 382.672C274.225 382.464 274.809 382.088 275.433 381.544L276.681 383.296C276.297 383.68 275.825 384.016 275.265 384.304C274.721 384.592 274.137 384.824 273.513 385C272.905 385.16 272.305 385.24 271.713 385.24ZM279.848 385V372.4H282.344V375.088L281.888 375.376C282.016 374.96 282.216 374.56 282.488 374.176C282.776 373.792 283.12 373.456 283.52 373.168C283.936 372.864 284.376 372.624 284.84 372.448C285.32 372.272 285.808 372.184 286.304 372.184C287.024 372.184 287.656 372.304 288.2 372.544C288.744 372.784 289.192 373.144 289.544 373.624C289.896 374.104 290.152 374.704 290.312 375.424L289.928 375.328L290.096 374.92C290.272 374.552 290.512 374.208 290.816 373.888C291.136 373.552 291.496 373.256 291.896 373C292.296 372.744 292.72 372.544 293.168 372.4C293.616 372.256 294.056 372.184 294.488 372.184C295.432 372.184 296.208 372.376 296.816 372.76C297.44 373.144 297.904 373.728 298.208 374.512C298.528 375.296 298.688 376.272 298.688 377.44V385H296.192V377.584C296.192 376.864 296.096 376.28 295.904 375.832C295.728 375.368 295.456 375.024 295.088 374.8C294.72 374.576 294.248 374.464 293.672 374.464C293.224 374.464 292.8 374.544 292.4 374.704C292.016 374.848 291.68 375.056 291.392 375.328C291.104 375.6 290.88 375.92 290.72 376.288C290.56 376.64 290.48 377.032 290.48 377.464V385H287.984V377.536C287.984 376.88 287.888 376.328 287.696 375.88C287.504 375.416 287.224 375.064 286.856 374.824C286.488 374.584 286.04 374.464 285.512 374.464C285.064 374.464 284.648 374.544 284.264 374.704C283.88 374.848 283.544 375.056 283.256 375.328C282.968 375.584 282.744 375.896 282.584 376.264C282.424 376.616 282.344 377 282.344 377.416V385H279.848ZM306.198 385.24C305.142 385.24 304.19 385.056 303.342 384.688C302.494 384.32 301.79 383.776 301.23 383.056L302.91 381.616C303.39 382.176 303.91 382.584 304.47 382.84C305.046 383.08 305.694 383.2 306.414 383.2C306.702 383.2 306.966 383.168 307.206 383.104C307.462 383.024 307.678 382.912 307.854 382.768C308.046 382.624 308.19 382.456 308.286 382.264C308.382 382.056 308.43 381.832 308.43 381.592C308.43 381.176 308.278 380.84 307.974 380.584C307.814 380.472 307.558 380.352 307.206 380.224C306.87 380.08 306.43 379.936 305.886 379.792C304.958 379.552 304.198 379.28 303.606 378.976C303.014 378.672 302.558 378.328 302.238 377.944C301.998 377.64 301.822 377.312 301.71 376.96C301.598 376.592 301.542 376.192 301.542 375.76C301.542 375.232 301.654 374.752 301.878 374.32C302.118 373.872 302.438 373.488 302.838 373.168C303.254 372.832 303.734 372.576 304.278 372.4C304.838 372.224 305.43 372.136 306.054 372.136C306.646 372.136 307.23 372.216 307.806 372.376C308.398 372.536 308.942 372.768 309.438 373.072C309.934 373.376 310.35 373.736 310.686 374.152L309.27 375.712C308.966 375.408 308.63 375.144 308.262 374.92C307.91 374.68 307.55 374.496 307.182 374.368C306.814 374.24 306.478 374.176 306.174 374.176C305.838 374.176 305.534 374.208 305.262 374.272C304.99 374.336 304.758 374.432 304.566 374.56C304.39 374.688 304.254 374.848 304.158 375.04C304.062 375.232 304.014 375.448 304.014 375.688C304.03 375.896 304.078 376.096 304.158 376.288C304.254 376.464 304.382 376.616 304.542 376.744C304.718 376.872 304.982 377.008 305.334 377.152C305.686 377.296 306.134 377.432 306.678 377.56C307.478 377.768 308.134 378 308.646 378.256C309.174 378.496 309.59 378.776 309.894 379.096C310.214 379.4 310.438 379.752 310.566 380.152C310.694 380.552 310.758 381 310.758 381.496C310.758 382.216 310.55 382.864 310.134 383.44C309.734 384 309.19 384.44 308.502 384.76C307.814 385.08 307.046 385.24 306.198 385.24ZM313.866 389.296L312.954 388.192C313.514 387.872 313.97 387.504 314.322 387.088C314.674 386.672 314.85 386.312 314.85 386.008C314.85 385.848 314.81 385.688 314.73 385.528C314.65 385.384 314.482 385.176 314.226 384.904C313.906 384.6 313.698 384.344 313.602 384.136C313.506 383.928 313.458 383.704 313.458 383.464C313.458 383.08 313.594 382.776 313.866 382.552C314.138 382.312 314.49 382.192 314.922 382.192C315.322 382.192 315.682 382.312 316.002 382.552C316.338 382.776 316.594 383.096 316.77 383.512C316.962 383.912 317.058 384.376 317.058 384.904C317.058 385.384 316.978 385.848 316.818 386.296C316.658 386.744 316.434 387.16 316.146 387.544C315.858 387.928 315.522 388.272 315.138 388.576C314.754 388.88 314.33 389.12 313.866 389.296ZM42.5575 420V404.184H45.0295V420H42.5575ZM39.9415 409.8V407.4H47.9575V409.8H39.9415ZM50.2085 420V402.24H52.6805V409.992L52.2485 410.28C52.4085 409.72 52.7205 409.208 53.1845 408.744C53.6485 408.264 54.2005 407.88 54.8405 407.592C55.4805 407.288 56.1365 407.136 56.8085 407.136C57.7685 407.136 58.5685 407.328 59.2085 407.712C59.8485 408.08 60.3285 408.648 60.6485 409.416C60.9685 410.184 61.1285 411.152 61.1285 412.32V420H58.6565V412.488C58.6565 411.768 58.5605 411.176 58.3685 410.712C58.1765 410.232 57.8805 409.888 57.4805 409.68C57.0805 409.456 56.5845 409.36 55.9925 409.392C55.5125 409.392 55.0725 409.472 54.6725 409.632C54.2725 409.776 53.9205 409.984 53.6165 410.256C53.3285 410.528 53.0965 410.848 52.9205 411.216C52.7605 411.568 52.6805 411.952 52.6805 412.368V420H51.4565C51.2485 420 51.0405 420 50.8325 420C50.6245 420 50.4165 420 50.2085 420ZM70.3619 420.24C69.0659 420.24 67.9139 419.968 66.9059 419.424C65.9139 418.864 65.1299 418.104 64.5539 417.144C63.9939 416.184 63.7139 415.08 63.7139 413.832C63.7139 412.84 63.8739 411.936 64.1939 411.12C64.5139 410.304 64.9539 409.6 65.5139 409.008C66.0899 408.4 66.7699 407.936 67.5539 407.616C68.3539 407.28 69.2179 407.112 70.1459 407.112C70.9619 407.112 71.7219 407.272 72.4259 407.592C73.1299 407.896 73.7379 408.32 74.2499 408.864C74.7779 409.408 75.1779 410.056 75.4499 410.808C75.7379 411.544 75.8739 412.352 75.8579 413.232L75.8339 414.288H65.5379L64.9859 412.32H73.6979L73.3379 412.728V412.152C73.2899 411.624 73.1139 411.152 72.8099 410.736C72.5059 410.32 72.1219 409.992 71.6579 409.752C71.1939 409.512 70.6899 409.392 70.1459 409.392C69.2819 409.392 68.5539 409.56 67.9619 409.896C67.3699 410.216 66.9219 410.696 66.6179 411.336C66.3139 411.96 66.1619 412.736 66.1619 413.664C66.1619 414.544 66.3459 415.312 66.7139 415.968C67.0819 416.608 67.6019 417.104 68.2739 417.456C68.9459 417.808 69.7219 417.984 70.6019 417.984C71.2259 417.984 71.8019 417.88 72.3299 417.672C72.8739 417.464 73.4579 417.088 74.0819 416.544L75.3299 418.296C74.9459 418.68 74.4739 419.016 73.9139 419.304C73.3699 419.592 72.7859 419.824 72.1619 420C71.5539 420.16 70.9539 420.24 70.3619 420.24ZM78.5444 420V407.4H81.0164V409.992L80.5844 410.28C80.7444 409.72 81.0564 409.208 81.5204 408.744C81.9844 408.264 82.5364 407.88 83.1764 407.592C83.8164 407.288 84.4724 407.136 85.1444 407.136C86.1044 407.136 86.9044 407.328 87.5444 407.712C88.1844 408.08 88.6644 408.648 88.9844 409.416C89.3044 410.184 89.4644 411.152 89.4644 412.32V420H86.9924V412.488C86.9924 411.768 86.8964 411.176 86.7044 410.712C86.5124 410.232 86.2164 409.888 85.8164 409.68C85.4164 409.456 84.9204 409.36 84.3284 409.392C83.8484 409.392 83.4084 409.472 83.0084 409.632C82.6084 409.776 82.2564 409.984 81.9524 410.256C81.6644 410.528 81.4324 410.848 81.2564 411.216C81.0964 411.568 81.0164 411.952 81.0164 412.368V420H79.7924C79.5844 420 79.3764 420 79.1684 420C78.9604 420 78.7524 420 78.5444 420ZM105.424 420.24C104.128 420.24 102.976 419.968 101.968 419.424C100.976 418.864 100.192 418.104 99.6164 417.144C99.0564 416.184 98.7764 415.08 98.7764 413.832C98.7764 412.84 98.9364 411.936 99.2564 411.12C99.5764 410.304 100.016 409.6 100.576 409.008C101.152 408.4 101.832 407.936 102.616 407.616C103.416 407.28 104.28 407.112 105.208 407.112C106.024 407.112 106.784 407.272 107.488 407.592C108.192 407.896 108.8 408.32 109.312 408.864C109.84 409.408 110.24 410.056 110.512 410.808C110.8 411.544 110.936 412.352 110.92 413.232L110.896 414.288H100.6L100.048 412.32H108.76L108.4 412.728V412.152C108.352 411.624 108.176 411.152 107.872 410.736C107.568 410.32 107.184 409.992 106.72 409.752C106.256 409.512 105.752 409.392 105.208 409.392C104.344 409.392 103.616 409.56 103.024 409.896C102.432 410.216 101.984 410.696 101.68 411.336C101.376 411.96 101.224 412.736 101.224 413.664C101.224 414.544 101.408 415.312 101.776 415.968C102.144 416.608 102.664 417.104 103.336 417.456C104.008 417.808 104.784 417.984 105.664 417.984C106.288 417.984 106.864 417.88 107.392 417.672C107.936 417.464 108.52 417.088 109.144 416.544L110.392 418.296C110.008 418.68 109.536 419.016 108.976 419.304C108.432 419.592 107.848 419.824 107.224 420C106.616 420.16 106.016 420.24 105.424 420.24ZM113.607 420V407.4H116.079V409.992L115.647 410.28C115.807 409.72 116.119 409.208 116.583 408.744C117.047 408.264 117.599 407.88 118.239 407.592C118.879 407.288 119.535 407.136 120.207 407.136C121.167 407.136 121.967 407.328 122.607 407.712C123.247 408.08 123.727 408.648 124.047 409.416C124.367 410.184 124.527 411.152 124.527 412.32V420H122.055V412.488C122.055 411.768 121.959 411.176 121.767 410.712C121.575 410.232 121.279 409.888 120.879 409.68C120.479 409.456 119.983 409.36 119.391 409.392C118.911 409.392 118.471 409.472 118.071 409.632C117.671 409.776 117.319 409.984 117.015 410.256C116.727 410.528 116.495 410.848 116.319 411.216C116.159 411.568 116.079 411.952 116.079 412.368V420H114.855C114.647 420 114.439 420 114.231 420C114.023 420 113.815 420 113.607 420ZM133.136 420.24C131.984 420.24 130.952 419.96 130.04 419.4C129.144 418.824 128.432 418.048 127.904 417.072C127.376 416.08 127.112 414.952 127.112 413.688C127.112 412.424 127.368 411.304 127.88 410.328C128.408 409.336 129.12 408.56 130.016 408C130.912 407.424 131.928 407.136 133.064 407.136C133.688 407.136 134.288 407.24 134.864 407.448C135.456 407.64 135.984 407.912 136.448 408.264C136.912 408.6 137.272 408.976 137.528 409.392C137.8 409.792 137.936 410.2 137.936 410.616L137.216 410.664V402.24H139.688V420H137.216V417H137.696C137.696 417.384 137.568 417.768 137.312 418.152C137.056 418.52 136.712 418.864 136.28 419.184C135.864 419.504 135.376 419.76 134.816 419.952C134.272 420.144 133.712 420.24 133.136 420.24ZM133.472 418.104C134.224 418.104 134.888 417.912 135.464 417.528C136.04 417.144 136.488 416.624 136.808 415.968C137.144 415.296 137.312 414.536 137.312 413.688C137.312 412.84 137.144 412.088 136.808 411.432C136.488 410.76 136.04 410.232 135.464 409.848C134.888 409.464 134.224 409.272 133.472 409.272C132.72 409.272 132.056 409.464 131.48 409.848C130.904 410.232 130.448 410.76 130.112 411.432C129.792 412.088 129.632 412.84 129.632 413.688C129.632 414.536 129.792 415.296 130.112 415.968C130.448 416.624 130.904 417.144 131.48 417.528C132.056 417.912 132.72 418.104 133.472 418.104ZM151.378 420V404.184H153.85V420H151.378ZM148.762 409.8V407.4H156.778V409.8H148.762ZM159.029 420V402.24H161.501V409.992L161.069 410.28C161.229 409.72 161.541 409.208 162.005 408.744C162.469 408.264 163.021 407.88 163.661 407.592C164.301 407.288 164.957 407.136 165.629 407.136C166.589 407.136 167.389 407.328 168.029 407.712C168.669 408.08 169.149 408.648 169.469 409.416C169.789 410.184 169.949 411.152 169.949 412.32V420H167.477V412.488C167.477 411.768 167.381 411.176 167.189 410.712C166.997 410.232 166.701 409.888 166.301 409.68C165.901 409.456 165.405 409.36 164.813 409.392C164.333 409.392 163.893 409.472 163.493 409.632C163.093 409.776 162.741 409.984 162.437 410.256C162.149 410.528 161.917 410.848 161.741 411.216C161.581 411.568 161.501 411.952 161.501 412.368V420H160.277C160.069 420 159.861 420 159.653 420C159.445 420 159.237 420 159.029 420ZM179.182 420.24C177.886 420.24 176.734 419.968 175.726 419.424C174.734 418.864 173.95 418.104 173.374 417.144C172.814 416.184 172.534 415.08 172.534 413.832C172.534 412.84 172.694 411.936 173.014 411.12C173.334 410.304 173.774 409.6 174.334 409.008C174.91 408.4 175.59 407.936 176.374 407.616C177.174 407.28 178.038 407.112 178.966 407.112C179.782 407.112 180.542 407.272 181.246 407.592C181.95 407.896 182.558 408.32 183.07 408.864C183.598 409.408 183.998 410.056 184.27 410.808C184.558 411.544 184.694 412.352 184.678 413.232L184.654 414.288H174.358L173.806 412.32H182.518L182.158 412.728V412.152C182.11 411.624 181.934 411.152 181.63 410.736C181.326 410.32 180.942 409.992 180.478 409.752C180.014 409.512 179.51 409.392 178.966 409.392C178.102 409.392 177.374 409.56 176.782 409.896C176.19 410.216 175.742 410.696 175.438 411.336C175.134 411.96 174.982 412.736 174.982 413.664C174.982 414.544 175.166 415.312 175.534 415.968C175.902 416.608 176.422 417.104 177.094 417.456C177.766 417.808 178.542 417.984 179.422 417.984C180.046 417.984 180.622 417.88 181.15 417.672C181.694 417.464 182.278 417.088 182.902 416.544L184.15 418.296C183.766 418.68 183.294 419.016 182.734 419.304C182.19 419.592 181.606 419.824 180.982 420C180.374 420.16 179.774 420.24 179.182 420.24ZM199.731 425.52C198.835 425.52 197.939 425.376 197.043 425.088C196.163 424.816 195.451 424.456 194.907 424.008L195.819 422.088C196.139 422.328 196.515 422.536 196.947 422.712C197.379 422.904 197.835 423.048 198.315 423.144C198.795 423.256 199.267 423.312 199.731 423.312C200.611 423.312 201.347 423.168 201.939 422.88C202.531 422.592 202.979 422.168 203.283 421.608C203.587 421.048 203.739 420.352 203.739 419.52V417.096L204.003 417.264C203.923 417.76 203.659 418.24 203.211 418.704C202.779 419.152 202.235 419.52 201.579 419.808C200.923 420.096 200.251 420.24 199.563 420.24C198.363 420.24 197.291 419.96 196.347 419.4C195.419 418.824 194.683 418.048 194.139 417.072C193.595 416.08 193.323 414.952 193.323 413.688C193.323 412.424 193.587 411.304 194.115 410.328C194.659 409.336 195.395 408.56 196.323 408C197.267 407.424 198.323 407.136 199.491 407.136C199.971 407.136 200.435 407.2 200.883 407.328C201.331 407.44 201.747 407.608 202.131 407.832C202.515 408.04 202.859 408.272 203.163 408.528C203.467 408.784 203.715 409.056 203.907 409.344C204.099 409.632 204.219 409.904 204.267 410.16L203.739 410.352V407.4H206.211V419.232C206.211 420.24 206.059 421.128 205.755 421.896C205.467 422.68 205.043 423.336 204.483 423.864C203.923 424.408 203.243 424.816 202.443 425.088C201.643 425.376 200.739 425.52 199.731 425.52ZM199.827 417.96C200.611 417.96 201.307 417.776 201.915 417.408C202.523 417.04 202.995 416.536 203.331 415.896C203.667 415.256 203.835 414.52 203.835 413.688C203.835 412.856 203.659 412.12 203.307 411.48C202.971 410.824 202.499 410.312 201.891 409.944C201.299 409.576 200.611 409.392 199.827 409.392C199.059 409.392 198.371 409.584 197.763 409.968C197.171 410.336 196.699 410.848 196.347 411.504C196.011 412.144 195.843 412.872 195.843 413.688C195.843 414.504 196.011 415.24 196.347 415.896C196.699 416.536 197.171 417.04 197.763 417.408C198.371 417.776 199.059 417.96 199.827 417.96ZM214.525 420.24C213.485 420.24 212.533 419.952 211.669 419.376C210.821 418.8 210.141 418.016 209.629 417.024C209.117 416.032 208.861 414.912 208.861 413.664C208.861 412.4 209.117 411.28 209.629 410.304C210.157 409.312 210.861 408.536 211.741 407.976C212.637 407.416 213.637 407.136 214.741 407.136C215.397 407.136 215.997 407.232 216.541 407.424C217.085 407.616 217.557 407.888 217.957 408.24C218.373 408.576 218.709 408.968 218.965 409.416C219.237 409.864 219.405 410.344 219.469 410.856L218.917 410.664V407.4H221.413V420H218.917V417L219.493 416.832C219.397 417.264 219.197 417.688 218.893 418.104C218.605 418.504 218.229 418.864 217.765 419.184C217.317 419.504 216.813 419.76 216.253 419.952C215.709 420.144 215.133 420.24 214.525 420.24ZM215.173 417.96C215.925 417.96 216.589 417.776 217.165 417.408C217.741 417.04 218.189 416.536 218.509 415.896C218.845 415.24 219.013 414.496 219.013 413.664C219.013 412.848 218.845 412.12 218.509 411.48C218.189 410.84 217.741 410.336 217.165 409.968C216.589 409.6 215.925 409.416 215.173 409.416C214.437 409.416 213.781 409.6 213.205 409.968C212.645 410.336 212.197 410.84 211.861 411.48C211.541 412.12 211.381 412.848 211.381 413.664C211.381 414.496 211.541 415.24 211.861 415.896C212.197 416.536 212.645 417.04 213.205 417.408C213.781 417.776 214.437 417.96 215.173 417.96ZM224.817 420V407.4H227.313V410.088L226.857 410.376C226.985 409.96 227.185 409.56 227.457 409.176C227.745 408.792 228.089 408.456 228.489 408.168C228.905 407.864 229.345 407.624 229.809 407.448C230.289 407.272 230.777 407.184 231.273 407.184C231.993 407.184 232.625 407.304 233.169 407.544C233.713 407.784 234.161 408.144 234.513 408.624C234.865 409.104 235.121 409.704 235.281 410.424L234.897 410.328L235.065 409.92C235.241 409.552 235.481 409.208 235.785 408.888C236.105 408.552 236.465 408.256 236.865 408C237.265 407.744 237.689 407.544 238.137 407.4C238.585 407.256 239.025 407.184 239.457 407.184C240.401 407.184 241.177 407.376 241.785 407.76C242.409 408.144 242.873 408.728 243.177 409.512C243.497 410.296 243.657 411.272 243.657 412.44V420H241.161V412.584C241.161 411.864 241.065 411.28 240.873 410.832C240.697 410.368 240.425 410.024 240.057 409.8C239.689 409.576 239.217 409.464 238.641 409.464C238.193 409.464 237.769 409.544 237.369 409.704C236.985 409.848 236.649 410.056 236.361 410.328C236.073 410.6 235.849 410.92 235.689 411.288C235.529 411.64 235.449 412.032 235.449 412.464V420H232.953V412.536C232.953 411.88 232.857 411.328 232.665 410.88C232.473 410.416 232.193 410.064 231.825 409.824C231.457 409.584 231.009 409.464 230.481 409.464C230.033 409.464 229.617 409.544 229.233 409.704C228.849 409.848 228.513 410.056 228.225 410.328C227.937 410.584 227.713 410.896 227.553 411.264C227.393 411.616 227.313 412 227.313 412.416V420H224.817ZM252.846 420.24C251.55 420.24 250.398 419.968 249.39 419.424C248.398 418.864 247.614 418.104 247.038 417.144C246.478 416.184 246.198 415.08 246.198 413.832C246.198 412.84 246.358 411.936 246.678 411.12C246.998 410.304 247.438 409.6 247.998 409.008C248.574 408.4 249.254 407.936 250.038 407.616C250.838 407.28 251.702 407.112 252.63 407.112C253.446 407.112 254.206 407.272 254.91 407.592C255.614 407.896 256.222 408.32 256.734 408.864C257.262 409.408 257.662 410.056 257.934 410.808C258.222 411.544 258.358 412.352 258.342 413.232L258.318 414.288H248.022L247.47 412.32H256.182L255.822 412.728V412.152C255.774 411.624 255.598 411.152 255.294 410.736C254.99 410.32 254.606 409.992 254.142 409.752C253.678 409.512 253.174 409.392 252.63 409.392C251.766 409.392 251.038 409.56 250.446 409.896C249.854 410.216 249.406 410.696 249.102 411.336C248.798 411.96 248.646 412.736 248.646 413.664C248.646 414.544 248.83 415.312 249.198 415.968C249.566 416.608 250.086 417.104 250.758 417.456C251.43 417.808 252.206 417.984 253.086 417.984C253.71 417.984 254.286 417.88 254.814 417.672C255.358 417.464 255.942 417.088 256.566 416.544L257.814 418.296C257.43 418.68 256.958 419.016 256.398 419.304C255.854 419.592 255.27 419.824 254.646 420C254.038 420.16 253.438 420.24 252.846 420.24Z" fill="#FAF9F6"/>
<path d="M134.125 188.942C134.719 154.786 164.569 144.514 179.42 143.647V149.959L134.125 188.942Z" fill="#E59C0B"/>
<path d="M139.523 289.881C132.988 287.801 133.582 281.094 134.696 278C155.982 285.549 194.693 300.202 179.248 298.42C159.942 296.192 147.69 292.479 139.523 289.881Z" fill="#E59C0B"/>
<path d="M189.072 121C183.132 121 181.399 125.703 181.276 128.054L189.072 161.468L162.341 187.457L222.115 222.356V257.627C209.121 275.695 183.132 312.649 183.132 315.916C183.132 319.183 187.092 320 189.072 320H203.923C209.863 320 211.101 315.297 210.977 312.946V300.694C210.977 296.833 215.185 294.877 217.289 294.382C219.64 293.887 228.754 292.359 242.164 283.244C256.5 273.5 260.232 259.978 260.356 253.172C260.727 245.994 259.316 229.188 250.703 219.386C239.936 207.134 219.516 201.194 209.121 199.338C198.725 197.481 187.958 191.541 183.503 187.457C179.939 184.19 183.751 179.165 186.102 177.062L187.216 170.007C199.963 173.101 227.239 179.66 234.367 181.146C241.495 182.631 244.515 178.547 245.134 176.319L249.96 157.013C250.703 154.043 252.559 151.444 245.876 147.36C239.193 143.276 220.63 141.791 215.804 141.42C211.942 141.123 210.977 139.068 210.977 138.078V128.425C210.977 122.485 206.769 121 204.665 121H189.072Z" fill="#E59C0B"/>
<path d="M204.294 129.91V141.048C204.294 144.019 208.007 144.761 209.864 144.761C218.774 145.132 232.511 148.845 237.337 151.073C241.199 152.855 241.421 155.775 241.05 157.013C239.689 162.706 236.669 175.205 235.481 179.66C234.293 184.116 229.046 183.497 226.571 182.631C225.333 182.135 220.185 180.403 209.492 177.433C198.8 174.463 190.186 175.7 187.216 176.69C184.246 177.68 178.231 180.7 177.934 184.858C177.563 190.056 193.899 198.966 204.295 201.565C214.69 204.164 222.858 208.248 233.625 213.817C244.392 219.386 248.847 231.638 249.589 242.776C250.332 253.914 246.99 265.795 241.421 274.334C235.852 282.873 222.858 290.67 213.576 292.155C206.151 293.343 204.295 296.857 204.295 298.466V311.461C204.295 315.916 201.077 317.03 199.468 317.03H185.731C179.494 317.03 177.687 313.812 177.563 312.203V300.323C177.563 296.758 175.583 295.867 174.593 295.867C163.826 295.496 149.718 291.041 141.179 288.442C134.347 286.363 133.629 282.131 134.125 280.274C135.238 275.448 137.837 264.31 139.322 258.369C140.807 252.429 147.119 253.419 150.089 254.657C163.083 259.112 170.138 260.968 186.102 262.453C198.874 263.641 204.294 258.741 205.408 256.142C207.388 251.686 206.151 241.662 185.36 237.207C159.371 231.638 148.233 221.614 144.149 217.159C140.065 212.703 128.927 198.224 136.724 175.576C144.52 152.929 170.138 147.36 173.85 146.989C176.821 146.692 177.563 143.4 177.563 141.791V132.509C177.563 127.163 181.276 125.834 183.132 125.838H197.24C202.884 125.838 204.294 128.553 204.294 129.91Z" fill="#FFBB00"/>
<path d="M187.959 138.078V131.767C187.959 130.777 187.365 128.797 184.989 128.797C182.613 128.797 182.019 130.777 182.019 131.767V138.078C182.019 138.821 182.613 140.306 184.989 140.306C187.365 140.306 187.959 138.821 187.959 138.078Z" fill="#F9EBBA"/>
<path d="M143.035 186.715C145.411 162.656 166.301 154.909 176.449 154.043C177.687 153.919 180.162 154.117 180.162 155.899C180.162 157.681 178.182 158.374 177.192 158.498C156.104 161.171 149.099 179.165 148.233 187.828C148.109 188.818 147.342 190.798 145.262 190.798C143.183 190.798 142.911 188.076 143.035 186.715Z" fill="#F9EBBA"/>
<path d="M145.753 279.024L148.785 265.348C149.26 263.203 150.832 259.112 147.312 258.27C144.323 257.555 143.461 261.917 142.985 264.062L139.953 277.738C139.597 279.347 138.533 282.282 141.783 283.208C144.52 283.987 145.396 280.633 145.753 279.024Z" fill="#F9EBBA"/>
</svg>
