<svg width="395" height="491" viewBox="0 0 395 491" fill="none" xmlns="http://www.w3.org/2000/svg">
<rect width="394.099" height="490.871" rx="20" fill="#202020" fill-opacity="0.5"/>
<path d="M46.12 74.6C46.6 75.4 47.2667 76.0533 48.12 76.56C49 77.0933 50.0133 77.36 51.16 77.36C52.3333 77.36 53.5067 77.0133 54.68 76.32C55.88 75.6533 56.88 74.8133 57.68 73.8L58.24 74.36C56.2933 77.4 53.6533 79.48 50.32 80.6C48.0267 80.6 46.1467 80.0133 44.68 78.84C43.2133 77.6667 42.1733 76.16 41.56 74.32C40.9733 72.48 40.68 70.2133 40.68 67.52C40.68 64.8267 41.0133 62.28 41.68 59.88C42.3733 57.4533 43.56 55.28 45.24 53.36C46.92 51.4133 49.0133 50.08 51.52 49.36C54.2133 49.36 56.96 49.6133 59.76 50.12L59.72 51C59.0267 51 58.3867 51.12 57.8 51.36C57.1333 52.9333 56.6933 54.8133 56.48 57H55.48C55.24 55.7467 55.12 54.5467 55.12 53.4C53.7067 52.6267 52.1467 52.24 50.44 52.24C48.76 52.24 47.3733 52.7467 46.28 53.76C44.92 56.5067 44.24 60.04 44.24 64.36C44.24 69.1867 44.8667 72.6 46.12 74.6ZM60.6419 55.24L69.8419 54.96C72.2419 54.96 74.0419 55.32 75.2419 56.04C76.4419 56.7333 77.0419 58.0133 77.0419 59.88C77.0419 61.16 76.6419 62.2933 75.8419 63.28C75.0685 64.2667 74.0419 65 72.7619 65.48L77.2419 74.64C78.1485 74.8 79.0019 74.9867 79.8019 75.2L79.6419 76.28C78.5219 76.0933 77.2552 76 75.8419 76C74.4552 76 73.3619 76.0667 72.5619 76.2L72.4019 75.56C72.7485 75.2133 72.9219 74.64 72.9219 73.84C72.9219 72.2133 71.9885 69.6 70.1219 66C69.5619 65.8933 68.9085 65.84 68.1619 65.84L68.2419 64.68H68.6419C71.7885 64.68 73.3619 63.24 73.3619 60.36C73.3619 57.6933 72.0152 56.36 69.3219 56.36C68.4152 56.36 67.6019 56.5067 66.8819 56.8C66.6952 58.56 66.6019 61.5733 66.6019 65.84C66.6019 70.1067 66.7219 73.0533 66.9619 74.68C68.1352 74.8133 69.2285 75.0133 70.2419 75.28L70.1219 76.28C68.7352 76.0933 67.1752 76 65.4419 76C63.7352 76 62.2019 76.1067 60.8419 76.32L60.6819 75.28C61.4285 75.04 62.2685 74.84 63.2019 74.68C63.4685 72.68 63.6019 69.5733 63.6019 65.36C63.6019 61.12 63.4819 58.1867 63.2419 56.56C62.2019 56.2133 61.3352 56.04 60.6419 56.04V55.24ZM84.2966 54.72C86.8032 55.0133 89.3366 55.16 91.8966 55.16C94.4566 55.16 96.9766 55.0133 99.4566 54.72L99.6166 55.76C98.8166 56.08 97.9899 56.32 97.1366 56.48C96.8432 58.6667 96.6966 61.7067 96.6966 65.6C96.6966 69.4933 96.8432 72.5333 97.1366 74.72C97.6699 74.8 98.6566 75 100.097 75.32L99.9366 76.32C98.6566 76.1067 97.0166 76 95.0166 76C93.0166 76 91.4832 76.1067 90.4166 76.32L90.2566 75.28C91.1632 74.9867 92.1899 74.7733 93.3366 74.64C93.4966 73.0933 93.6166 70.9467 93.6966 68.2C92.4432 68.0667 91.1899 68 89.9366 68C88.6832 68 87.5899 68.0667 86.6566 68.2C86.1232 70.3867 85.8566 71.9067 85.8566 72.76C85.8566 74.0667 86.3232 74.9867 87.2566 75.52L87.0966 76.2C86.4832 76.0667 85.3232 76 83.6166 76C81.9099 76 80.5632 76.1067 79.5766 76.32L79.4166 75.28C80.0566 75.04 80.9366 74.8267 82.0566 74.64L87.2566 56.4C86.0832 56.2133 85.0566 56 84.1766 55.76L84.2966 54.72ZM86.9766 66.32C88.0166 66.48 89.1632 66.56 90.4166 66.56C91.6966 66.56 92.7899 66.48 93.6966 66.32C93.6966 61.3867 93.5899 58.2 93.3766 56.76C92.4699 56.7067 91.7899 56.68 91.3366 56.68C90.9099 56.68 90.2432 56.7067 89.3366 56.76L86.9766 66.32ZM112.143 73.68C113.983 73.68 115.716 72.8667 117.343 71.24L117.903 71.8C116.116 74.0667 113.969 75.6267 111.463 76.48C108.876 76.48 106.849 75.6667 105.383 74.04C103.916 72.3867 103.183 70.1733 103.183 67.4C103.183 64.6 104.049 61.9733 105.783 59.52C107.516 57.0667 109.729 55.4533 112.423 54.68C114.369 54.68 116.569 54.88 119.023 55.28L118.983 56.16C118.476 56.16 117.996 56.2533 117.543 56.44C117.036 57.64 116.703 59.0667 116.543 60.72H115.543C115.329 59.8133 115.223 58.88 115.223 57.92C114.209 57.4133 113.009 57.16 111.623 57.16C110.236 57.16 109.089 57.5333 108.183 58.28C107.143 60.1733 106.623 62.4667 106.623 65.16C106.623 69.3467 107.516 71.9733 109.303 73.04C110.076 73.4667 111.023 73.68 112.143 73.68ZM126.407 64.68V66.32C129.127 63.44 130.887 61.3733 131.687 60.12C132.513 58.84 132.927 57.8533 132.927 57.16C132.927 56.44 132.727 55.9333 132.327 55.64L132.527 54.96C133.113 55.0933 133.953 55.16 135.047 55.16C136.167 55.16 137.527 55.0533 139.127 54.84L139.287 55.88C138.673 56.0933 137.78 56.3067 136.607 56.52C136.367 58.3333 134.82 60.5867 131.967 63.28L137.247 74.64C138.367 74.8267 139.247 75.04 139.887 75.28L139.727 76.32C138.74 76.1067 137.447 76 135.847 76C134.273 76 133.167 76.0667 132.527 76.2L132.327 75.52C132.7 75.1467 132.887 74.5867 132.887 73.84C132.887 72.0533 131.833 69.1467 129.727 65.12C129.193 65.5733 128.087 66.4933 126.407 67.88C126.487 71.1333 126.607 73.4 126.767 74.68C127.967 74.8133 129.073 75.0133 130.087 75.28L129.967 76.28C128.58 76.0933 127.02 76 125.287 76C123.58 76 122.047 76.1067 120.687 76.32L120.527 75.28C121.273 75.04 122.113 74.84 123.047 74.68C123.287 72.76 123.407 70.04 123.407 66.52V64.64C123.407 61.12 123.273 58.4 123.007 56.48C122.073 56.32 121.233 56.12 120.487 55.88L120.647 54.84C122.007 55.0533 123.54 55.16 125.247 55.16C126.98 55.16 128.54 55.0667 129.927 54.88L130.047 55.88C129.033 56.1467 127.927 56.3467 126.727 56.48C126.513 57.92 126.407 60.6533 126.407 64.68ZM144.982 66.12C145.062 68.4933 145.502 70.3467 146.302 71.68C147.102 73.0133 148.462 73.68 150.382 73.68C152.302 73.68 154.076 72.8667 155.702 71.24L156.262 71.8C154.476 74.0667 152.329 75.6267 149.822 76.48C147.236 76.48 145.209 75.6667 143.742 74.04C142.276 72.3867 141.542 70.1733 141.542 67.4C141.542 64.6 142.409 61.9733 144.142 59.52C145.876 57.0667 148.089 55.4533 150.782 54.68C152.729 54.68 154.929 54.88 157.382 55.28L157.342 56.16C156.836 56.16 156.356 56.2533 155.902 56.44C155.396 57.64 155.062 59.0667 154.902 60.72H153.902C153.689 59.8133 153.582 58.88 153.582 57.92C152.569 57.4133 151.369 57.16 149.982 57.16C148.596 57.16 147.449 57.5333 146.542 58.28C145.636 59.9333 145.116 61.9067 144.982 64.2C146.102 64.3867 147.302 64.48 148.582 64.48C150.796 64.48 152.129 64.0133 152.582 63.08L153.422 63.2C153.182 64 153.062 64.7867 153.062 65.56C153.062 66.3333 153.156 67.28 153.342 68.4L152.382 68.56C152.089 67.76 151.876 66.9333 151.742 66.08C150.676 65.9733 149.609 65.92 148.542 65.92C147.502 65.92 146.316 65.9867 144.982 66.12ZM159.112 55.24L168.312 54.96C171.352 54.96 173.685 55.68 175.312 57.12C176.965 58.56 177.792 60.72 177.792 63.6C177.792 66.4533 176.885 69.12 175.072 71.6C173.285 74.08 171.059 75.7067 168.392 76.48C167.699 76.48 166.792 76.3467 165.672 76.08C164.579 75.84 163.672 75.5733 162.952 75.28C162.659 75.6267 162.392 76.12 162.152 76.76L161.312 76.56C161.819 74.1867 162.072 70.84 162.072 66.52C162.072 62.1733 161.952 58.92 161.712 56.76C160.805 56.4133 159.939 56.24 159.112 56.24V55.24ZM172.872 59.24C172.392 58.3333 171.712 57.6267 170.832 57.12C169.979 56.6133 169.032 56.36 167.992 56.36C166.979 56.36 166.099 56.5067 165.352 56.8C165.165 58.5333 165.072 61.3067 165.072 65.12C165.072 68.9067 165.125 71.5333 165.232 73C166.565 73.6133 167.925 73.92 169.312 73.92C170.725 73.92 171.845 73.56 172.672 72.84C173.685 70.92 174.192 68.56 174.192 65.76C174.192 63.1467 173.752 60.9733 172.872 59.24ZM186.862 75.52C186.862 73.1733 187.369 71.1467 188.382 69.44C189.422 67.7333 190.502 66.88 191.622 66.88C191.915 66.88 192.209 66.9733 192.502 67.16L192.622 67.44C192.275 68.1067 192.062 68.9467 191.982 69.96L191.742 70.12C191.635 70.0667 191.435 70.04 191.142 70.04C190.849 70.04 190.409 70.2 189.822 70.52C189.262 70.84 188.822 71.16 188.502 71.48C188.315 71.8533 188.222 72.28 188.222 72.76C188.222 74.0133 189.062 75.0933 190.742 76C192.449 76.88 194.089 77.32 195.662 77.32C198.942 77.32 200.582 75.4533 200.582 71.72C200.582 70.3067 199.235 68.5333 196.542 66.4C195.422 65.4933 194.302 64.5867 193.182 63.68C190.489 61.5467 189.142 59.6933 189.142 58.12C189.142 56.2533 189.982 54.52 191.662 52.92C193.342 51.2933 195.249 50.1067 197.382 49.36C199.675 49.36 201.849 49.5867 203.902 50.04V50.84C202.515 52.12 201.742 54.0933 201.582 56.76H200.582C200.582 55.3467 200.515 54.1067 200.382 53.04C199.235 52.5067 197.982 52.24 196.622 52.24C195.289 52.24 194.155 52.5333 193.222 53.12C192.289 53.68 191.822 54.4 191.822 55.28C191.822 56.16 192.209 57.0533 192.982 57.96C193.782 58.84 194.742 59.7067 195.862 60.56C196.982 61.3867 198.089 62.24 199.182 63.12C200.302 63.9733 201.249 64.9067 202.022 65.92C202.822 66.9067 203.222 67.8667 203.222 68.8C203.222 71.4667 202.489 73.84 201.022 75.92C199.555 78 197.555 79.56 195.022 80.6C191.689 80.2533 189.022 79.32 187.022 77.8C186.915 77.0533 186.862 76.2933 186.862 75.52ZM212.696 64.68V66.32C215.416 63.44 217.176 61.3733 217.976 60.12C218.802 58.84 219.216 57.8533 219.216 57.16C219.216 56.44 219.016 55.9333 218.616 55.64L218.816 54.96C219.402 55.0933 220.242 55.16 221.336 55.16C222.456 55.16 223.816 55.0533 225.416 54.84L225.576 55.88C224.962 56.0933 224.069 56.3067 222.896 56.52C222.656 58.3333 221.109 60.5867 218.256 63.28L223.536 74.64C224.656 74.8267 225.536 75.04 226.176 75.28L226.016 76.32C225.029 76.1067 223.736 76 222.136 76C220.562 76 219.456 76.0667 218.816 76.2L218.616 75.52C218.989 75.1467 219.176 74.5867 219.176 73.84C219.176 72.0533 218.122 69.1467 216.016 65.12C215.482 65.5733 214.376 66.4933 212.696 67.88C212.776 71.1333 212.896 73.4 213.056 74.68C214.256 74.8133 215.362 75.0133 216.376 75.28L216.256 76.28C214.869 76.0933 213.309 76 211.576 76C209.869 76 208.336 76.1067 206.976 76.32L206.816 75.28C207.562 75.04 208.402 74.84 209.336 74.68C209.576 72.76 209.696 70.04 209.696 66.52V64.64C209.696 61.12 209.562 58.4 209.296 56.48C208.362 56.32 207.522 56.12 206.776 55.88L206.936 54.84C208.296 55.0533 209.829 55.16 211.536 55.16C213.269 55.16 214.829 55.0667 216.216 54.88L216.336 55.88C215.322 56.1467 214.216 56.3467 213.016 56.48C212.802 57.92 212.696 60.6533 212.696 64.68ZM244.471 64.64V66.52C244.471 70.1733 244.605 72.9067 244.871 74.72C246.098 74.88 247.111 75.0667 247.911 75.28L247.791 76.28C246.485 76.0933 245.138 76 243.751 76C242.391 76 241.458 76.04 240.951 76.12L240.791 75.6C241.031 75.3333 241.191 74.5733 241.271 73.32C239.885 74.76 238.285 75.8133 236.471 76.48C231.885 76.48 229.591 73.7467 229.591 68.28C229.591 67.08 229.685 65.16 229.871 62.52C230.058 59.88 230.151 58.3333 230.151 57.88C230.151 57.4267 230.071 56.9867 229.911 56.56V56.52C228.791 56.3333 227.898 56.1333 227.231 55.92L227.391 54.84C228.938 55.0533 230.338 55.16 231.591 55.16C232.845 55.16 233.871 55.0933 234.671 54.96L234.831 55.64C233.871 56.1467 233.311 57.0667 233.151 58.4C232.831 60.96 232.671 63.5867 232.671 66.28C232.671 68.9733 232.978 70.8933 233.591 72.04C234.231 73.16 235.405 73.72 237.111 73.72C238.845 73.72 240.245 73.2267 241.311 72.24C241.418 70.1067 241.471 67.5867 241.471 64.68C241.471 61.7733 241.365 59.04 241.151 56.48C239.951 56.3467 238.845 56.1467 237.831 55.88L237.951 54.88C239.338 55.0667 240.885 55.16 242.591 55.16C244.325 55.16 245.871 55.0533 247.231 54.84L247.391 55.88C246.645 56.12 245.805 56.32 244.871 56.48C244.605 58.2667 244.471 60.9867 244.471 64.64ZM265.516 76.44C263.783 76.1467 261.423 76 258.436 76C255.476 76 252.996 76.1333 250.996 76.4L250.876 75.4C251.623 75.1067 252.476 74.8667 253.436 74.68C253.703 73.08 253.836 70.36 253.836 66.52V64.64C253.836 61.3333 253.703 58.6133 253.436 56.48C252.556 56.3467 251.716 56.1467 250.916 55.88L251.076 54.84C252.436 55.0533 254.036 55.16 255.876 55.16C257.716 55.16 259.29 55.0533 260.596 54.84L260.716 55.84C259.516 56.1333 258.33 56.3467 257.156 56.48C256.943 57.92 256.836 60.8933 256.836 65.4C256.836 69.88 256.943 72.8667 257.156 74.36C257.796 74.4667 258.703 74.52 259.876 74.52C261.05 74.52 262.103 74.2933 263.036 73.84C263.41 72.9333 263.596 71.8667 263.596 70.64H264.596C264.703 72.6933 265.076 74.36 265.716 75.64L265.516 76.44ZM281.805 76.44C280.072 76.1467 277.712 76 274.725 76C271.765 76 269.285 76.1333 267.285 76.4L267.165 75.4C267.912 75.1067 268.765 74.8667 269.725 74.68C269.992 73.08 270.125 70.36 270.125 66.52V64.64C270.125 61.3333 269.992 58.6133 269.725 56.48C268.845 56.3467 268.005 56.1467 267.205 55.88L267.365 54.84C268.725 55.0533 270.325 55.16 272.165 55.16C274.005 55.16 275.579 55.0533 276.885 54.84L277.005 55.84C275.805 56.1333 274.619 56.3467 273.445 56.48C273.232 57.92 273.125 60.8933 273.125 65.4C273.125 69.88 273.232 72.8667 273.445 74.36C274.085 74.4667 274.992 74.52 276.165 74.52C277.339 74.52 278.392 74.2933 279.325 73.84C279.699 72.9333 279.885 71.8667 279.885 70.64H280.885C280.992 72.6933 281.365 74.36 282.005 75.64L281.805 76.44Z" fill="#FAF9F6"/>
<path d="M40.5415 379.36V376.912H47.4535V379.36H40.5415ZM53.9228 383.824V370.192L54.8108 370.864L51.4988 372.616L50.8028 370.36L55.2908 367.96H56.5388V383.824H53.9228ZM51.2588 385V382.504H59.2748V385H51.2588ZM69.1214 385V372.4H71.6174V375.088L71.1614 375.376C71.2894 374.96 71.4894 374.56 71.7614 374.176C72.0494 373.792 72.3934 373.456 72.7934 373.168C73.2094 372.864 73.6494 372.624 74.1134 372.448C74.5934 372.272 75.0814 372.184 75.5774 372.184C76.2974 372.184 76.9294 372.304 77.4734 372.544C78.0174 372.784 78.4654 373.144 78.8174 373.624C79.1694 374.104 79.4254 374.704 79.5854 375.424L79.2014 375.328L79.3694 374.92C79.5454 374.552 79.7854 374.208 80.0894 373.888C80.4094 373.552 80.7694 373.256 81.1694 373C81.5694 372.744 81.9934 372.544 82.4414 372.4C82.8894 372.256 83.3294 372.184 83.7614 372.184C84.7054 372.184 85.4814 372.376 86.0894 372.76C86.7134 373.144 87.1774 373.728 87.4814 374.512C87.8014 375.296 87.9614 376.272 87.9614 377.44V385H85.4654V377.584C85.4654 376.864 85.3694 376.28 85.1774 375.832C85.0014 375.368 84.7294 375.024 84.3614 374.8C83.9934 374.576 83.5214 374.464 82.9454 374.464C82.4974 374.464 82.0734 374.544 81.6734 374.704C81.2894 374.848 80.9534 375.056 80.6654 375.328C80.3774 375.6 80.1534 375.92 79.9934 376.288C79.8334 376.64 79.7534 377.032 79.7534 377.464V385H77.2574V377.536C77.2574 376.88 77.1614 376.328 76.9694 375.88C76.7774 375.416 76.4974 375.064 76.1294 374.824C75.7614 374.584 75.3134 374.464 74.7854 374.464C74.3374 374.464 73.9214 374.544 73.5374 374.704C73.1534 374.848 72.8174 375.056 72.5294 375.328C72.2414 375.584 72.0174 375.896 71.8574 376.264C71.6974 376.616 71.6174 377 71.6174 377.416V385H69.1214ZM96.119 385.24C95.079 385.24 94.127 384.952 93.263 384.376C92.415 383.8 91.735 383.016 91.223 382.024C90.711 381.032 90.455 379.912 90.455 378.664C90.455 377.4 90.711 376.28 91.223 375.304C91.751 374.312 92.455 373.536 93.335 372.976C94.231 372.416 95.231 372.136 96.335 372.136C96.991 372.136 97.591 372.232 98.135 372.424C98.679 372.616 99.151 372.888 99.551 373.24C99.967 373.576 100.303 373.968 100.559 374.416C100.831 374.864 100.999 375.344 101.063 375.856L100.511 375.664V372.4H103.007V385H100.511V382L101.087 381.832C100.991 382.264 100.791 382.688 100.487 383.104C100.199 383.504 99.823 383.864 99.359 384.184C98.911 384.504 98.407 384.76 97.847 384.952C97.303 385.144 96.727 385.24 96.119 385.24ZM96.767 382.96C97.519 382.96 98.183 382.776 98.759 382.408C99.335 382.04 99.783 381.536 100.103 380.896C100.439 380.24 100.607 379.496 100.607 378.664C100.607 377.848 100.439 377.12 100.103 376.48C99.783 375.84 99.335 375.336 98.759 374.968C98.183 374.6 97.519 374.416 96.767 374.416C96.031 374.416 95.375 374.6 94.799 374.968C94.239 375.336 93.791 375.84 93.455 376.48C93.135 377.12 92.975 377.848 92.975 378.664C92.975 379.496 93.135 380.24 93.455 380.896C93.791 381.536 94.239 382.04 94.799 382.408C95.375 382.776 96.031 382.96 96.767 382.96ZM112.098 390.52C111.202 390.52 110.306 390.376 109.41 390.088C108.53 389.816 107.818 389.456 107.274 389.008L108.186 387.088C108.506 387.328 108.882 387.536 109.314 387.712C109.746 387.904 110.202 388.048 110.682 388.144C111.162 388.256 111.634 388.312 112.098 388.312C112.978 388.312 113.714 388.168 114.306 387.88C114.898 387.592 115.346 387.168 115.65 386.608C115.954 386.048 116.106 385.352 116.106 384.52V382.096L116.37 382.264C116.29 382.76 116.026 383.24 115.578 383.704C115.146 384.152 114.602 384.52 113.946 384.808C113.29 385.096 112.618 385.24 111.93 385.24C110.73 385.24 109.658 384.96 108.714 384.4C107.786 383.824 107.05 383.048 106.506 382.072C105.962 381.08 105.69 379.952 105.69 378.688C105.69 377.424 105.954 376.304 106.482 375.328C107.026 374.336 107.762 373.56 108.69 373C109.634 372.424 110.69 372.136 111.858 372.136C112.338 372.136 112.802 372.2 113.25 372.328C113.698 372.44 114.114 372.608 114.498 372.832C114.882 373.04 115.226 373.272 115.53 373.528C115.834 373.784 116.082 374.056 116.274 374.344C116.466 374.632 116.586 374.904 116.634 375.16L116.106 375.352V372.4H118.578V384.232C118.578 385.24 118.426 386.128 118.122 386.896C117.834 387.68 117.41 388.336 116.85 388.864C116.29 389.408 115.61 389.816 114.81 390.088C114.01 390.376 113.106 390.52 112.098 390.52ZM112.194 382.96C112.978 382.96 113.674 382.776 114.282 382.408C114.89 382.04 115.362 381.536 115.698 380.896C116.034 380.256 116.202 379.52 116.202 378.688C116.202 377.856 116.026 377.12 115.674 376.48C115.338 375.824 114.866 375.312 114.258 374.944C113.666 374.576 112.978 374.392 112.194 374.392C111.426 374.392 110.738 374.584 110.13 374.968C109.538 375.336 109.066 375.848 108.714 376.504C108.378 377.144 108.21 377.872 108.21 378.688C108.21 379.504 108.378 380.24 108.714 380.896C109.066 381.536 109.538 382.04 110.13 382.408C110.738 382.776 111.426 382.96 112.194 382.96ZM122.452 385V372.4H124.924V385H122.452ZM123.652 369.616C123.124 369.616 122.716 369.48 122.428 369.208C122.14 368.936 121.996 368.552 121.996 368.056C121.996 367.592 122.14 367.216 122.428 366.928C122.732 366.64 123.14 366.496 123.652 366.496C124.18 366.496 124.588 366.632 124.876 366.904C125.164 367.176 125.308 367.56 125.308 368.056C125.308 368.52 125.156 368.896 124.852 369.184C124.564 369.472 124.164 369.616 123.652 369.616ZM134.076 385.24C132.908 385.24 131.86 384.952 130.932 384.376C130.02 383.8 129.292 383.016 128.748 382.024C128.22 381.032 127.956 379.92 127.956 378.688C127.956 377.456 128.22 376.344 128.748 375.352C129.292 374.36 130.02 373.576 130.932 373C131.86 372.424 132.908 372.136 134.076 372.136C135.196 372.136 136.212 372.368 137.124 372.832C138.052 373.28 138.756 373.896 139.236 374.68L137.868 376.36C137.612 375.992 137.284 375.656 136.884 375.352C136.484 375.048 136.06 374.808 135.612 374.632C135.164 374.456 134.732 374.368 134.316 374.368C133.548 374.368 132.86 374.56 132.252 374.944C131.66 375.312 131.188 375.824 130.836 376.48C130.484 377.136 130.308 377.872 130.308 378.688C130.308 379.504 130.492 380.24 130.86 380.896C131.228 381.536 131.716 382.048 132.324 382.432C132.932 382.816 133.604 383.008 134.34 383.008C134.772 383.008 135.188 382.936 135.588 382.792C136.004 382.648 136.404 382.432 136.788 382.144C137.172 381.856 137.532 381.504 137.868 381.088L139.236 382.768C138.724 383.488 137.988 384.08 137.028 384.544C136.084 385.008 135.1 385.24 134.076 385.24ZM153.934 390.52C153.038 390.52 152.142 390.376 151.246 390.088C150.366 389.816 149.654 389.456 149.11 389.008L150.022 387.088C150.342 387.328 150.718 387.536 151.15 387.712C151.582 387.904 152.038 388.048 152.518 388.144C152.998 388.256 153.47 388.312 153.934 388.312C154.814 388.312 155.55 388.168 156.142 387.88C156.734 387.592 157.182 387.168 157.486 386.608C157.79 386.048 157.942 385.352 157.942 384.52V382.096L158.206 382.264C158.126 382.76 157.862 383.24 157.414 383.704C156.982 384.152 156.438 384.52 155.782 384.808C155.126 385.096 154.454 385.24 153.766 385.24C152.566 385.24 151.494 384.96 150.55 384.4C149.622 383.824 148.886 383.048 148.342 382.072C147.798 381.08 147.526 379.952 147.526 378.688C147.526 377.424 147.79 376.304 148.318 375.328C148.862 374.336 149.598 373.56 150.526 373C151.47 372.424 152.526 372.136 153.694 372.136C154.174 372.136 154.638 372.2 155.086 372.328C155.534 372.44 155.95 372.608 156.334 372.832C156.718 373.04 157.062 373.272 157.366 373.528C157.67 373.784 157.918 374.056 158.11 374.344C158.302 374.632 158.422 374.904 158.47 375.16L157.942 375.352V372.4H160.414V384.232C160.414 385.24 160.262 386.128 159.958 386.896C159.67 387.68 159.246 388.336 158.686 388.864C158.126 389.408 157.446 389.816 156.646 390.088C155.846 390.376 154.942 390.52 153.934 390.52ZM154.03 382.96C154.814 382.96 155.51 382.776 156.118 382.408C156.726 382.04 157.198 381.536 157.534 380.896C157.87 380.256 158.038 379.52 158.038 378.688C158.038 377.856 157.862 377.12 157.51 376.48C157.174 375.824 156.702 375.312 156.094 374.944C155.502 374.576 154.814 374.392 154.03 374.392C153.262 374.392 152.574 374.584 151.966 374.968C151.374 375.336 150.902 375.848 150.55 376.504C150.214 377.144 150.046 377.872 150.046 378.688C150.046 379.504 150.214 380.24 150.55 380.896C150.902 381.536 151.374 382.04 151.966 382.408C152.574 382.776 153.262 382.96 154.03 382.96ZM169.76 385.24C168.464 385.24 167.312 384.968 166.304 384.424C165.312 383.864 164.528 383.104 163.952 382.144C163.392 381.184 163.112 380.08 163.112 378.832C163.112 377.84 163.272 376.936 163.592 376.12C163.912 375.304 164.352 374.6 164.912 374.008C165.488 373.4 166.168 372.936 166.952 372.616C167.752 372.28 168.616 372.112 169.544 372.112C170.36 372.112 171.12 372.272 171.824 372.592C172.528 372.896 173.136 373.32 173.648 373.864C174.176 374.408 174.576 375.056 174.848 375.808C175.136 376.544 175.272 377.352 175.256 378.232L175.232 379.288H164.936L164.384 377.32H173.096L172.736 377.728V377.152C172.688 376.624 172.512 376.152 172.208 375.736C171.904 375.32 171.52 374.992 171.056 374.752C170.592 374.512 170.088 374.392 169.544 374.392C168.68 374.392 167.952 374.56 167.36 374.896C166.768 375.216 166.32 375.696 166.016 376.336C165.712 376.96 165.56 377.736 165.56 378.664C165.56 379.544 165.744 380.312 166.112 380.968C166.48 381.608 167 382.104 167.672 382.456C168.344 382.808 169.12 382.984 170 382.984C170.624 382.984 171.2 382.88 171.728 382.672C172.272 382.464 172.856 382.088 173.48 381.544L174.728 383.296C174.344 383.68 173.872 384.016 173.312 384.304C172.768 384.592 172.184 384.824 171.56 385C170.952 385.16 170.352 385.24 169.76 385.24ZM177.895 385V372.4H180.391V375.088L179.935 375.376C180.063 374.96 180.263 374.56 180.535 374.176C180.823 373.792 181.167 373.456 181.567 373.168C181.983 372.864 182.423 372.624 182.887 372.448C183.367 372.272 183.855 372.184 184.351 372.184C185.071 372.184 185.703 372.304 186.247 372.544C186.791 372.784 187.239 373.144 187.591 373.624C187.943 374.104 188.199 374.704 188.359 375.424L187.975 375.328L188.143 374.92C188.319 374.552 188.559 374.208 188.863 373.888C189.183 373.552 189.543 373.256 189.943 373C190.343 372.744 190.767 372.544 191.215 372.4C191.663 372.256 192.103 372.184 192.535 372.184C193.479 372.184 194.255 372.376 194.863 372.76C195.487 373.144 195.951 373.728 196.255 374.512C196.575 375.296 196.735 376.272 196.735 377.44V385H194.239V377.584C194.239 376.864 194.143 376.28 193.951 375.832C193.775 375.368 193.503 375.024 193.135 374.8C192.767 374.576 192.295 374.464 191.719 374.464C191.271 374.464 190.847 374.544 190.447 374.704C190.063 374.848 189.727 375.056 189.439 375.328C189.151 375.6 188.927 375.92 188.767 376.288C188.607 376.64 188.527 377.032 188.527 377.464V385H186.031V377.536C186.031 376.88 185.935 376.328 185.743 375.88C185.551 375.416 185.271 375.064 184.903 374.824C184.535 374.584 184.087 374.464 183.559 374.464C183.111 374.464 182.695 374.544 182.311 374.704C181.927 374.848 181.591 375.056 181.303 375.328C181.015 375.584 180.791 375.896 180.631 376.264C180.471 376.616 180.391 377 180.391 377.416V385H177.895Z" fill="#FAF9F6"/>
<path d="M154.463 312.962C147.373 312.253 146.421 304.752 146.98 299.456C144.781 310.853 139.525 309.162 137.186 308.383C134.688 307.55 130.525 305.677 130.733 292.146C130.9 281.322 124.419 275.702 121.158 274.245C116.995 272.579 107.836 266.252 104.505 254.262C101.175 242.272 101.869 223.871 102.632 216.169C102.91 207.704 108.002 185.778 126.154 165.795C144.305 145.812 168.687 138.873 178.609 137.902C187.144 136.514 210.457 135.695 235.436 143.522C260.415 151.349 273.46 167.321 276.86 174.329C280.815 182.309 289.307 201.015 291.639 212.006C294.553 225.744 291.639 246.144 290.598 251.347C289.557 256.551 282.896 271.331 267.076 282.987C254.42 292.313 232.383 292.146 222.947 290.897C217.188 290.134 205.212 291.23 203.38 301.722C201.09 314.835 197.552 315.876 189.85 316.709C184.439 317.294 182.592 309.36 182.222 303.847C182.42 312.061 181.254 316.453 172.989 315.876C165.829 315.377 164.871 304.15 165.287 298.599C164.663 306.093 164.871 314.003 154.463 312.962Z" fill="#F9F6EE" stroke="#505055" stroke-width="3" stroke-linejoin="bevel"/>
<path d="M186.728 230.74C189.225 218.917 200.674 208.467 205.67 208.467C212.339 208.467 215.661 207.634 225.028 217.418C234.522 227.333 230.649 244.062 228.359 249.058C226.069 254.054 217.327 264.67 205.462 264.461C193.597 264.253 183.605 245.519 186.728 230.74Z" fill="#505055" stroke="#505055" stroke-width="3" stroke-linecap="round" stroke-linejoin="bevel"/>
<path d="M115.746 194.312C117.897 188.553 124.489 175.578 133.648 169.75" stroke="#505055" stroke-width="3" stroke-linecap="round" stroke-linejoin="bevel"/>
<path d="M189.226 166.627L171.65 166.169L191.516 152.056L230.649 154.971C238.49 160.036 255.17 170.707 255.836 171.207C256.502 171.706 257.501 173.08 257.918 173.705L258.631 172.542C259.463 172.875 260.901 173.913 261.248 174.121C263.746 175.786 268.117 181.198 269.158 183.696C270.199 186.194 270.407 185.362 273.321 185.986C276.236 186.611 278.317 189.525 279.358 191.606C280.399 193.688 280.191 195.561 278.942 195.145C277.942 194.812 276.999 192.786 276.652 191.814C276.305 191.121 274.778 189.691 271.448 189.525C267.285 189.317 266.66 187.443 266.036 186.194C265.411 184.945 263.33 182.239 259.375 179.741C256.211 177.743 252.228 177.66 250.632 177.868L234.188 181.407L217.951 170.582L167.994 191.398L189.226 166.627Z" fill="#505055"/>
<path d="M173.198 138.734L141.35 165.378M141.35 165.378L189.226 166.627L167.994 191.398L217.951 170.582L234.188 181.407L250.632 177.868C252.228 177.66 256.211 177.743 259.375 179.741C263.33 182.239 265.411 184.945 266.036 186.194C266.66 187.443 267.285 189.317 271.448 189.525C274.778 189.691 276.305 191.121 276.652 191.814C276.999 192.786 277.942 194.812 278.942 195.145C280.191 195.561 280.399 193.688 279.358 191.606C278.317 189.525 276.236 186.611 273.321 185.986C270.407 185.362 270.199 186.194 269.158 183.696C268.117 181.198 263.746 175.786 261.248 174.121C260.901 173.913 259.463 172.875 258.631 172.542L265.828 160.799L257.918 173.705C257.501 173.08 256.502 171.706 255.836 171.207C255.17 170.707 238.49 160.036 230.649 154.971M141.35 165.378L171.65 166.169L191.516 152.056M230.649 154.971L236.061 143.73M230.649 154.971L191.516 152.056M191.516 152.056L189.85 137.069" stroke="#505055" stroke-width="3" stroke-linecap="round" stroke-linejoin="bevel"/>
<path d="M145.721 171.207C150.092 171.346 159.792 171.873 163.622 172.872" stroke="#505055" stroke-width="3" stroke-linecap="round" stroke-linejoin="bevel"/>
<path d="M182.564 193.896C187.005 191.606 197.843 186.486 205.67 184.321" stroke="#505055" stroke-width="3" stroke-linecap="round" stroke-linejoin="bevel"/>
<path d="M215.661 175.786C218.437 178.354 224.945 184.071 228.775 186.402" stroke="#505055" stroke-width="3" stroke-linecap="round" stroke-linejoin="bevel"/>
<path d="M121.991 274.453C123.032 274.8 125.696 275.452 128.028 275.286C130.942 275.077 137.187 275.077 136.979 284.653" stroke="#505055" stroke-width="3" stroke-linecap="round" stroke-linejoin="bevel"/>
<path d="M223.363 290.897C220.241 289.857 213.163 287.151 209.833 284.653C205.67 281.53 201.298 282.571 197.968 288.191" stroke="#505055" stroke-width="3" stroke-linecap="round" stroke-linejoin="bevel"/>
<path d="M255.212 279.032C260.485 276.881 272.281 269.707 277.277 258.217" stroke="#505055" stroke-width="3" stroke-linecap="round" stroke-linejoin="bevel"/>
<path d="M153.006 277.783C155.004 279.782 159.945 276.118 162.165 274.037C162.789 276.604 164.996 281.614 168.826 281.114C172.656 280.614 172.781 271.608 172.364 267.167C171.948 262.519 169.95 253.179 165.287 253.013C160.624 252.846 155.851 261.964 154.047 266.543C152.867 269.457 151.008 275.785 153.006 277.783Z" fill="#505055" stroke="#505055" stroke-width="3" stroke-linecap="round" stroke-linejoin="bevel"/>
<path d="M120.95 233.238C121.783 219.083 131.566 205.553 136.77 204.928C144.264 204.262 150.023 211.728 151.966 215.545C154.741 220.957 158.918 234.82 153.423 246.976C146.554 262.172 138.644 259.882 136.978 259.882C134.272 259.882 119.91 250.931 120.95 233.238Z" fill="#505055" stroke="#505055" stroke-width="3" stroke-linecap="round" stroke-linejoin="bevel"/>
<path d="M136.354 204.928C131.288 204.79 120.367 208.384 117.203 223.871" stroke="#505055" stroke-width="3" stroke-linecap="round" stroke-linejoin="bevel"/>
<path d="M136.562 259.882C131.288 259.951 120.034 256.51 117.203 242.188" stroke="#505055" stroke-width="3" stroke-linecap="round" stroke-linejoin="bevel"/>
<path d="M124.28 235.319C125.182 241.564 129.234 254.262 138.227 255.094" stroke="#F9F6EE" stroke-width="3" stroke-linecap="round" stroke-linejoin="bevel"/>
<path d="M128 231C128.208 231.971 128.624 233.498 129.249 234.747" stroke="#F9F6EE" stroke-width="3" stroke-linecap="round" stroke-linejoin="bevel"/>
<path d="M130.317 239.691C132.052 243.438 136.937 250.848 142.599 250.515" stroke="#F9F6EE" stroke-width="3" stroke-linecap="round" stroke-linejoin="bevel"/>
<path d="M194 236C194.416 237.249 195.041 238.914 195.457 239.539" stroke="#F9F6EE" stroke-width="3" stroke-linecap="round" stroke-linejoin="bevel"/>
<path d="M197.552 244.27C199.286 247.947 204.671 255.261 212.331 255.094" stroke="#F9F6EE" stroke-width="3" stroke-linecap="round" stroke-linejoin="bevel"/>
<path d="M189.642 239.899C191.515 246.421 197.593 259.424 206.919 259.258" stroke="#F9F6EE" stroke-width="3" stroke-linecap="round" stroke-linejoin="bevel"/>
<path d="M204.421 208.467C198.593 208.675 185.646 212.797 180.483 227.618" stroke="#505055" stroke-width="3" stroke-linecap="round" stroke-linejoin="bevel"/>
<path d="M201.923 263.837C195.609 262.727 182.648 257.676 181.315 246.352" stroke="#505055" stroke-width="3" stroke-linecap="round" stroke-linejoin="bevel"/>
</svg>
