<svg width="395" height="491" viewBox="0 0 395 491" fill="none" xmlns="http://www.w3.org/2000/svg">
<rect width="394.099" height="490.871" rx="20" fill="#202020" fill-opacity="0.5"/>
<path d="M44.04 49.36C45.88 49.44 47.9867 49.6 50.36 49.84C52.76 50.08 54.4667 50.2 55.48 50.2C56.4933 50.2 57.2533 50.12 57.76 49.96C58.9867 48.7867 59.8533 47.8933 60.36 47.28L61 47.76C59.5867 49.6 58.7333 51.52 58.44 53.52C55.8 52.8 53.3867 52.36 51.2 52.2C51.0133 55.1067 50.92 58.9333 50.92 63.68C50.92 68.4 51.0933 72.04 51.44 74.6C52.7733 74.7333 54.24 74.9867 55.84 75.36L55.72 76.32C53.7467 76.1067 51.6 76 49.28 76C46.9867 76 45.1333 76.1067 43.72 76.32L43.56 75.32C44.76 74.9467 46.04 74.6667 47.4 74.48C47.6933 72.2933 47.84 68.8533 47.84 64.16V61.8C47.84 59.16 47.68 55.92 47.36 52.08H46.32C43.1733 52.08 41.16 52.5067 40.28 53.36C40.0933 53.7333 40 54.32 40 55.12C40 55.92 40.1333 56.4667 40.4 56.76L40.36 57.04C39.6933 57.44 39.0267 58 38.36 58.72C38.04 58.6933 37.7867 58.56 37.6 58.32C37.3867 58.08 37.28 57.8 37.28 57.48C37.28 56.1733 38.0667 54.6133 39.64 52.8C41.2133 50.9867 42.68 49.84 44.04 49.36ZM64.0622 54.72C66.5689 55.0133 69.1022 55.16 71.6622 55.16C74.2222 55.16 76.7422 55.0133 79.2222 54.72L79.3822 55.76C78.5822 56.08 77.7555 56.32 76.9022 56.48C76.6089 58.6667 76.4622 61.7067 76.4622 65.6C76.4622 69.4933 76.6089 72.5333 76.9022 74.72C77.4355 74.8 78.4222 75 79.8622 75.32L79.7022 76.32C78.4222 76.1067 76.7822 76 74.7822 76C72.7822 76 71.2489 76.1067 70.1822 76.32L70.0222 75.28C70.9289 74.9867 71.9555 74.7733 73.1022 74.64C73.2622 73.0933 73.3822 70.9467 73.4622 68.2C72.2089 68.0667 70.9555 68 69.7022 68C68.4489 68 67.3555 68.0667 66.4222 68.2C65.8889 70.3867 65.6222 71.9067 65.6222 72.76C65.6222 74.0667 66.0889 74.9867 67.0222 75.52L66.8622 76.2C66.2489 76.0667 65.0889 76 63.3822 76C61.6755 76 60.3289 76.1067 59.3422 76.32L59.1822 75.28C59.8222 75.04 60.7022 74.8267 61.8222 74.64L67.0222 56.4C65.8489 56.2133 64.8222 56 63.9422 55.76L64.0622 54.72ZM66.7422 66.32C67.7822 66.48 68.9289 66.56 70.1822 66.56C71.4622 66.56 72.5555 66.48 73.4622 66.32C73.4622 61.3867 73.3555 58.2 73.1422 56.76C72.2355 56.7067 71.5555 56.68 71.1022 56.68C70.6755 56.68 70.0089 56.7067 69.1022 56.76L66.7422 66.32ZM92.5084 76.28C91.1218 76.0933 89.5618 76 87.8284 76C86.1218 76 84.5884 76.1067 83.2284 76.32L83.0684 75.28C83.9218 75.0133 84.7218 74.8133 85.4684 74.68C85.7084 72.6 85.8284 69.88 85.8284 66.52V64.64C85.8284 61.0667 85.6951 58.32 85.4284 56.4C84.7084 56.32 83.8418 56.1067 82.8284 55.76L82.9484 54.72C84.4684 55.0133 86.0551 55.16 87.7084 55.16C89.3884 55.16 90.5884 55.0667 91.3084 54.88L91.3884 55.56C90.6684 55.7467 90.3084 56.0533 90.3084 56.48C90.3084 56.8 90.6151 57.48 91.2284 58.52C91.8684 59.5333 92.4818 60.52 93.0684 61.48C94.8284 64.28 96.9084 67.72 99.3084 71.8L99.4284 71.72V66.84C99.4284 63.2667 99.2418 60.5867 98.8684 58.8C98.4951 56.9867 97.8551 55.9333 96.9484 55.64L97.0284 54.96C97.7218 55.0933 98.7618 55.16 100.148 55.16C101.535 55.16 102.962 55.0133 104.428 54.72L104.548 55.76C103.455 56.1067 102.535 56.32 101.788 56.4C101.522 58.5333 101.388 61.28 101.388 64.64V66.52C101.388 70.5733 101.522 73.32 101.788 74.76C102.908 74.9467 103.802 75.16 104.468 75.4L104.348 76.44C103.015 76.1467 101.762 76 100.588 76C99.4151 76 98.5084 76.0533 97.8684 76.16C97.8684 75.5733 97.4551 74.5867 96.6284 73.2C95.8284 71.8133 95.0951 70.5867 94.4284 69.52C92.2684 66.0267 90.1484 62.48 88.0684 58.88L87.9084 58.96V64.32C87.9084 69.6267 88.3084 73.08 89.1084 74.68C90.3084 74.8133 91.4818 75.0133 92.6284 75.28L92.5084 76.28ZM116.83 73.68C117.977 73.68 119.11 73.3467 120.23 72.68L120.03 68.4C119.284 68.16 118.377 67.9467 117.31 67.76L117.43 66.92C118.07 66.9733 118.537 67 118.83 67C120.67 67 122.337 66.5067 123.83 65.52L124.23 66.24C123.91 66.5333 123.617 66.84 123.35 67.16C122.977 70.7867 122.737 73.7733 122.63 76.12H121.79C121.577 75.1333 121.257 74.32 120.83 73.68C119.284 75.04 117.724 75.9733 116.15 76.48C113.564 76.48 111.537 75.6667 110.07 74.04C108.604 72.3867 107.87 70.1733 107.87 67.4C107.87 64.6 108.737 61.9733 110.47 59.52C112.204 57.0667 114.417 55.4533 117.11 54.68C119.057 54.68 121.257 54.88 123.71 55.28L123.67 56.16C123.164 56.16 122.684 56.2533 122.23 56.44C121.724 57.64 121.39 59.0667 121.23 60.72H120.23C120.017 59.8133 119.91 58.88 119.91 57.92C118.897 57.4133 117.697 57.16 116.31 57.16C114.924 57.16 113.777 57.5333 112.87 58.28C111.804 60.2267 111.27 62.5333 111.27 65.2C111.27 67.84 111.657 69.92 112.43 71.44C113.23 72.9333 114.697 73.68 116.83 73.68ZM142.118 76.44C140.384 76.1467 138.024 76 135.038 76C132.078 76 129.598 76.1333 127.598 76.4L127.478 75.4C128.224 75.1067 129.078 74.8667 130.038 74.68C130.304 73.08 130.438 70.36 130.438 66.52V64.64C130.438 61.3333 130.304 58.6133 130.038 56.48C129.158 56.3467 128.318 56.1467 127.518 55.88L127.678 54.84C129.038 55.0533 130.638 55.16 132.478 55.16C134.318 55.16 135.891 55.0533 137.198 54.84L137.318 55.84C136.118 56.1333 134.931 56.3467 133.758 56.48C133.544 57.92 133.438 60.8933 133.438 65.4C133.438 69.88 133.544 72.8667 133.758 74.36C134.398 74.4667 135.304 74.52 136.478 74.52C137.651 74.52 138.704 74.2933 139.638 73.84C140.011 72.9333 140.198 71.8667 140.198 70.64H141.198C141.304 72.6933 141.678 74.36 142.318 75.64L142.118 76.44ZM147.287 66.12C147.367 68.4933 147.807 70.3467 148.607 71.68C149.407 73.0133 150.767 73.68 152.687 73.68C154.607 73.68 156.38 72.8667 158.007 71.24L158.567 71.8C156.78 74.0667 154.634 75.6267 152.127 76.48C149.54 76.48 147.514 75.6667 146.047 74.04C144.58 72.3867 143.847 70.1733 143.847 67.4C143.847 64.6 144.714 61.9733 146.447 59.52C148.18 57.0667 150.394 55.4533 153.087 54.68C155.034 54.68 157.234 54.88 159.687 55.28L159.647 56.16C159.14 56.16 158.66 56.2533 158.207 56.44C157.7 57.64 157.367 59.0667 157.207 60.72H156.207C155.994 59.8133 155.887 58.88 155.887 57.92C154.874 57.4133 153.674 57.16 152.287 57.16C150.9 57.16 149.754 57.5333 148.847 58.28C147.94 59.9333 147.42 61.9067 147.287 64.2C148.407 64.3867 149.607 64.48 150.887 64.48C153.1 64.48 154.434 64.0133 154.887 63.08L155.727 63.2C155.487 64 155.367 64.7867 155.367 65.56C155.367 66.3333 155.46 67.28 155.647 68.4L154.687 68.56C154.394 67.76 154.18 66.9333 154.047 66.08C152.98 65.9733 151.914 65.92 150.847 65.92C149.807 65.92 148.62 65.9867 147.287 66.12ZM161.417 55.24L170.617 54.96C173.657 54.96 175.99 55.68 177.617 57.12C179.27 58.56 180.097 60.72 180.097 63.6C180.097 66.4533 179.19 69.12 177.377 71.6C175.59 74.08 173.363 75.7067 170.697 76.48C170.003 76.48 169.097 76.3467 167.977 76.08C166.883 75.84 165.977 75.5733 165.257 75.28C164.963 75.6267 164.697 76.12 164.457 76.76L163.617 76.56C164.123 74.1867 164.377 70.84 164.377 66.52C164.377 62.1733 164.257 58.92 164.017 56.76C163.11 56.4133 162.243 56.24 161.417 56.24V55.24ZM175.177 59.24C174.697 58.3333 174.017 57.6267 173.137 57.12C172.283 56.6133 171.337 56.36 170.297 56.36C169.283 56.36 168.403 56.5067 167.657 56.8C167.47 58.5333 167.377 61.3067 167.377 65.12C167.377 68.9067 167.43 71.5333 167.537 73C168.87 73.6133 170.23 73.92 171.617 73.92C173.03 73.92 174.15 73.56 174.977 72.84C175.99 70.92 176.497 68.56 176.497 65.76C176.497 63.1467 176.057 60.9733 175.177 59.24ZM200.954 49.36C202.794 49.44 204.901 49.6 207.274 49.84C209.674 50.08 211.381 50.2 212.394 50.2C213.407 50.2 214.167 50.12 214.674 49.96C215.901 48.7867 216.767 47.8933 217.274 47.28L217.914 47.76C216.501 49.6 215.647 51.52 215.354 53.52C212.714 52.8 210.301 52.36 208.114 52.2C207.927 55.1067 207.834 58.9333 207.834 63.68C207.834 68.4 208.007 72.04 208.354 74.6C209.687 74.7333 211.154 74.9867 212.754 75.36L212.634 76.32C210.661 76.1067 208.514 76 206.194 76C203.901 76 202.047 76.1067 200.634 76.32L200.474 75.32C201.674 74.9467 202.954 74.6667 204.314 74.48C204.607 72.2933 204.754 68.8533 204.754 64.16V61.8C204.754 59.16 204.594 55.92 204.274 52.08H203.234C200.087 52.08 198.074 52.5067 197.194 53.36C197.007 53.7333 196.914 54.32 196.914 55.12C196.914 55.92 197.047 56.4667 197.314 56.76L197.274 57.04C196.607 57.44 195.941 58 195.274 58.72C194.954 58.6933 194.701 58.56 194.514 58.32C194.301 58.08 194.194 57.8 194.194 57.48C194.194 56.1733 194.981 54.6133 196.554 52.8C198.127 50.9867 199.594 49.84 200.954 49.36ZM224.656 56.48C224.443 57.92 224.336 60.8667 224.336 65.32C224.336 69.7733 224.456 72.8933 224.696 74.68C225.896 74.8133 227.003 75.0133 228.016 75.28L227.896 76.28C226.51 76.0933 224.95 76 223.216 76C221.51 76 219.976 76.1067 218.616 76.32L218.456 75.28C219.203 75.04 220.043 74.84 220.976 74.68C221.216 72.76 221.336 70.04 221.336 66.52V64.64C221.336 61.12 221.203 58.4 220.936 56.48C220.003 56.32 219.163 56.12 218.416 55.88L218.576 54.84C219.936 55.0533 221.47 55.16 223.176 55.16C224.91 55.16 226.47 55.0667 227.856 54.88L227.976 55.88C226.963 56.1467 225.856 56.3467 224.656 56.48ZM241.08 73.76C241.08 72.1067 240.667 69.64 239.84 66.36C239.013 63.0533 238.093 59.8533 237.08 56.76L236.92 56.8L235.92 64.24C235.493 67.3067 235.28 70.0667 235.28 72.52C235.28 74.0133 235.747 75.0133 236.68 75.52L236.52 76.2C235.72 76.0667 234.667 76 233.36 76C232.08 76 230.667 76.1067 229.12 76.32L228.96 75.28C229.867 74.9867 230.72 74.7733 231.52 74.64L235.24 56.4C233.853 56.16 232.827 55.9467 232.16 55.76L232.28 54.72C234.2 55.0133 235.973 55.16 237.6 55.16C239.253 55.16 240.533 55.0667 241.44 54.88L241.52 55.56C240.8 55.7467 240.44 56.0533 240.44 56.48C240.44 57.0667 241.267 60.4533 242.92 66.64L243.8 69.64L244.08 69.56C244.08 68.8667 245.293 64.52 247.72 56.52C247.72 56.0667 247.36 55.7467 246.64 55.56L246.72 54.88C247.627 55.0667 248.907 55.16 250.56 55.16C252.24 55.16 254.027 55.0133 255.92 54.72L256.04 55.76C255.32 55.9467 254.4 56.1467 253.28 56.36C253.2 57 253.16 57.9467 253.16 59.2C253.16 60.4267 253.333 62.96 253.68 66.8C254.027 70.64 254.347 73.28 254.64 74.72C255.627 74.8533 256.64 75.04 257.68 75.28L257.56 76.28C256.173 76.0933 254.627 76 252.92 76C251.24 76 249.72 76.1067 248.36 76.32L248.2 75.28C249.08 75.0133 250.027 74.8133 251.04 74.68C250.96 68.3867 250.533 62.4533 249.76 56.88H249.64C246.893 64.9867 245.427 70.24 245.24 72.64C244.68 72.8267 244.027 73.1733 243.28 73.68C242.533 74.16 241.96 74.64 241.56 75.12L241.08 74.8V73.76ZM263.185 66.12C263.265 68.4933 263.705 70.3467 264.505 71.68C265.305 73.0133 266.665 73.68 268.585 73.68C270.505 73.68 272.279 72.8667 273.905 71.24L274.465 71.8C272.679 74.0667 270.532 75.6267 268.025 76.48C265.439 76.48 263.412 75.6667 261.945 74.04C260.479 72.3867 259.745 70.1733 259.745 67.4C259.745 64.6 260.612 61.9733 262.345 59.52C264.079 57.0667 266.292 55.4533 268.985 54.68C270.932 54.68 273.132 54.88 275.585 55.28L275.545 56.16C275.039 56.16 274.559 56.2533 274.105 56.44C273.599 57.64 273.265 59.0667 273.105 60.72H272.105C271.892 59.8133 271.785 58.88 271.785 57.92C270.772 57.4133 269.572 57.16 268.185 57.16C266.799 57.16 265.652 57.5333 264.745 58.28C263.839 59.9333 263.319 61.9067 263.185 64.2C264.305 64.3867 265.505 64.48 266.785 64.48C268.999 64.48 270.332 64.0133 270.785 63.08L271.625 63.2C271.385 64 271.265 64.7867 271.265 65.56C271.265 66.3333 271.359 67.28 271.545 68.4L270.585 68.56C270.292 67.76 270.079 66.9333 269.945 66.08C268.879 65.9733 267.812 65.92 266.745 65.92C265.705 65.92 264.519 65.9867 263.185 66.12Z" fill="#FAF9F6"/>
<path d="M41.6215 385V368.2H48.7735C49.7335 368.2 50.6135 368.44 51.4135 368.92C52.2295 369.384 52.8775 370.024 53.3575 370.84C53.8375 371.64 54.0775 372.544 54.0775 373.552C54.0775 374.464 53.8375 375.312 53.3575 376.096C52.8775 376.88 52.2375 377.512 51.4375 377.992C50.6375 378.456 49.7495 378.688 48.7735 378.688H44.2135V385H41.6215ZM51.6055 385L47.3335 377.416L49.9975 376.816L54.7495 385.024L51.6055 385ZM44.2135 376.192H49.0135C49.4775 376.192 49.8935 376.08 50.2615 375.856C50.6295 375.616 50.9175 375.296 51.1255 374.896C51.3335 374.48 51.4375 374.024 51.4375 373.528C51.4375 372.968 51.3015 372.48 51.0295 372.064C50.7735 371.632 50.4055 371.296 49.9255 371.056C49.4615 370.816 48.9335 370.696 48.3415 370.696H44.2135V376.192ZM63.0963 385.24C61.8003 385.24 60.6483 384.968 59.6403 384.424C58.6483 383.864 57.8643 383.104 57.2883 382.144C56.7283 381.184 56.4483 380.08 56.4483 378.832C56.4483 377.84 56.6083 376.936 56.9283 376.12C57.2483 375.304 57.6883 374.6 58.2483 374.008C58.8243 373.4 59.5043 372.936 60.2883 372.616C61.0883 372.28 61.9523 372.112 62.8803 372.112C63.6963 372.112 64.4563 372.272 65.1603 372.592C65.8643 372.896 66.4723 373.32 66.9843 373.864C67.5123 374.408 67.9123 375.056 68.1843 375.808C68.4723 376.544 68.6083 377.352 68.5923 378.232L68.5683 379.288H58.2723L57.7203 377.32H66.4323L66.0723 377.728V377.152C66.0243 376.624 65.8483 376.152 65.5443 375.736C65.2403 375.32 64.8563 374.992 64.3923 374.752C63.9283 374.512 63.4243 374.392 62.8803 374.392C62.0163 374.392 61.2883 374.56 60.6963 374.896C60.1043 375.216 59.6563 375.696 59.3523 376.336C59.0483 376.96 58.8963 377.736 58.8963 378.664C58.8963 379.544 59.0803 380.312 59.4483 380.968C59.8163 381.608 60.3363 382.104 61.0083 382.456C61.6803 382.808 62.4563 382.984 63.3363 382.984C63.9603 382.984 64.5363 382.88 65.0643 382.672C65.6083 382.464 66.1923 382.088 66.8163 381.544L68.0643 383.296C67.6803 383.68 67.2083 384.016 66.6483 384.304C66.1043 384.592 65.5203 384.824 64.8963 385C64.2883 385.16 63.6883 385.24 63.0963 385.24ZM70.8228 379.36V376.912H77.7348V379.36H70.8228ZM80.7241 385V372.4H83.2201V376.36L82.9801 375.4C83.1561 374.792 83.4521 374.24 83.8681 373.744C84.3001 373.248 84.7881 372.856 85.3321 372.568C85.8921 372.28 86.4681 372.136 87.0601 372.136C87.3321 372.136 87.5881 372.16 87.8281 372.208C88.0841 372.256 88.2841 372.312 88.4281 372.376L87.7801 375.064C87.5881 374.984 87.3721 374.92 87.1321 374.872C86.9081 374.808 86.6841 374.776 86.4601 374.776C86.0281 374.776 85.6121 374.864 85.2121 375.04C84.8281 375.2 84.4841 375.432 84.1801 375.736C83.8921 376.024 83.6601 376.368 83.4841 376.768C83.3081 377.152 83.2201 377.576 83.2201 378.04V385H80.7241ZM95.5287 385.24C94.2967 385.24 93.1927 384.96 92.2167 384.4C91.2567 383.824 90.4967 383.048 89.9367 382.072C89.3767 381.08 89.0967 379.952 89.0967 378.688C89.0967 377.424 89.3767 376.304 89.9367 375.328C90.4967 374.336 91.2567 373.56 92.2167 373C93.1927 372.424 94.2967 372.136 95.5287 372.136C96.7447 372.136 97.8327 372.424 98.7927 373C99.7687 373.56 100.537 374.336 101.097 375.328C101.657 376.304 101.937 377.424 101.937 378.688C101.937 379.952 101.657 381.08 101.097 382.072C100.537 383.048 99.7687 383.824 98.7927 384.4C97.8327 384.96 96.7447 385.24 95.5287 385.24ZM95.5287 382.984C96.2807 382.984 96.9527 382.8 97.5447 382.432C98.1367 382.048 98.6007 381.536 98.9367 380.896C99.2727 380.24 99.4327 379.504 99.4167 378.688C99.4327 377.856 99.2727 377.12 98.9367 376.48C98.6007 375.824 98.1367 375.312 97.5447 374.944C96.9527 374.576 96.2807 374.392 95.5287 374.392C94.7767 374.392 94.0967 374.584 93.4887 374.968C92.8967 375.336 92.4327 375.848 92.0967 376.504C91.7607 377.144 91.6007 377.872 91.6167 378.688C91.6007 379.504 91.7607 380.24 92.0967 380.896C92.4327 381.536 92.8967 382.048 93.4887 382.432C94.0967 382.8 94.7767 382.984 95.5287 382.984ZM104.678 385V367.24H107.15V385H104.678ZM110.702 385V367.24H113.174V385H110.702ZM124.964 385V369.184H127.436V385H124.964ZM122.348 374.8V372.4H130.364V374.8H122.348ZM132.615 385V367.24H135.087V374.992L134.655 375.28C134.815 374.72 135.127 374.208 135.591 373.744C136.055 373.264 136.607 372.88 137.247 372.592C137.887 372.288 138.543 372.136 139.215 372.136C140.175 372.136 140.975 372.328 141.615 372.712C142.255 373.08 142.735 373.648 143.055 374.416C143.375 375.184 143.535 376.152 143.535 377.32V385H141.063V377.488C141.063 376.768 140.967 376.176 140.775 375.712C140.583 375.232 140.287 374.888 139.887 374.68C139.487 374.456 138.991 374.36 138.399 374.392C137.919 374.392 137.479 374.472 137.079 374.632C136.679 374.776 136.327 374.984 136.023 375.256C135.735 375.528 135.503 375.848 135.327 376.216C135.167 376.568 135.087 376.952 135.087 377.368V385H133.863C133.655 385 133.447 385 133.239 385C133.031 385 132.823 385 132.615 385ZM147.296 385V372.4H149.768V385H147.296ZM148.496 369.616C147.968 369.616 147.56 369.48 147.272 369.208C146.984 368.936 146.84 368.552 146.84 368.056C146.84 367.592 146.984 367.216 147.272 366.928C147.576 366.64 147.984 366.496 148.496 366.496C149.024 366.496 149.432 366.632 149.72 366.904C150.008 367.176 150.152 367.56 150.152 368.056C150.152 368.52 150 368.896 149.696 369.184C149.408 369.472 149.008 369.616 148.496 369.616ZM157.768 385.24C156.712 385.24 155.76 385.056 154.912 384.688C154.064 384.32 153.36 383.776 152.8 383.056L154.48 381.616C154.96 382.176 155.48 382.584 156.04 382.84C156.616 383.08 157.264 383.2 157.984 383.2C158.272 383.2 158.536 383.168 158.776 383.104C159.032 383.024 159.248 382.912 159.424 382.768C159.616 382.624 159.76 382.456 159.856 382.264C159.952 382.056 160 381.832 160 381.592C160 381.176 159.848 380.84 159.544 380.584C159.384 380.472 159.128 380.352 158.776 380.224C158.44 380.08 158 379.936 157.456 379.792C156.528 379.552 155.768 379.28 155.176 378.976C154.584 378.672 154.128 378.328 153.808 377.944C153.568 377.64 153.392 377.312 153.28 376.96C153.168 376.592 153.112 376.192 153.112 375.76C153.112 375.232 153.224 374.752 153.448 374.32C153.688 373.872 154.008 373.488 154.408 373.168C154.824 372.832 155.304 372.576 155.848 372.4C156.408 372.224 157 372.136 157.624 372.136C158.216 372.136 158.8 372.216 159.376 372.376C159.968 372.536 160.512 372.768 161.008 373.072C161.504 373.376 161.92 373.736 162.256 374.152L160.84 375.712C160.536 375.408 160.2 375.144 159.832 374.92C159.48 374.68 159.12 374.496 158.752 374.368C158.384 374.24 158.048 374.176 157.744 374.176C157.408 374.176 157.104 374.208 156.832 374.272C156.56 374.336 156.328 374.432 156.136 374.56C155.96 374.688 155.824 374.848 155.728 375.04C155.632 375.232 155.584 375.448 155.584 375.688C155.6 375.896 155.648 376.096 155.728 376.288C155.824 376.464 155.952 376.616 156.112 376.744C156.288 376.872 156.552 377.008 156.904 377.152C157.256 377.296 157.704 377.432 158.248 377.56C159.048 377.768 159.704 378 160.216 378.256C160.744 378.496 161.16 378.776 161.464 379.096C161.784 379.4 162.008 379.752 162.136 380.152C162.264 380.552 162.328 381 162.328 381.496C162.328 382.216 162.12 382.864 161.704 383.44C161.304 384 160.76 384.44 160.072 384.76C159.384 385.08 158.616 385.24 157.768 385.24ZM177.131 385.24C175.963 385.24 174.915 384.952 173.987 384.376C173.075 383.8 172.347 383.016 171.803 382.024C171.275 381.032 171.011 379.92 171.011 378.688C171.011 377.456 171.275 376.344 171.803 375.352C172.347 374.36 173.075 373.576 173.987 373C174.915 372.424 175.963 372.136 177.131 372.136C178.251 372.136 179.267 372.368 180.179 372.832C181.107 373.28 181.811 373.896 182.291 374.68L180.923 376.36C180.667 375.992 180.339 375.656 179.939 375.352C179.539 375.048 179.115 374.808 178.667 374.632C178.219 374.456 177.787 374.368 177.371 374.368C176.603 374.368 175.915 374.56 175.307 374.944C174.715 375.312 174.243 375.824 173.891 376.48C173.539 377.136 173.363 377.872 173.363 378.688C173.363 379.504 173.547 380.24 173.915 380.896C174.283 381.536 174.771 382.048 175.379 382.432C175.987 382.816 176.659 383.008 177.395 383.008C177.827 383.008 178.243 382.936 178.643 382.792C179.059 382.648 179.459 382.432 179.843 382.144C180.227 381.856 180.587 381.504 180.923 381.088L182.291 382.768C181.779 383.488 181.043 384.08 180.083 384.544C179.139 385.008 178.155 385.24 177.131 385.24ZM189.471 385.24C188.431 385.24 187.479 384.952 186.615 384.376C185.767 383.8 185.087 383.016 184.575 382.024C184.063 381.032 183.807 379.912 183.807 378.664C183.807 377.4 184.063 376.28 184.575 375.304C185.103 374.312 185.807 373.536 186.687 372.976C187.583 372.416 188.583 372.136 189.687 372.136C190.343 372.136 190.943 372.232 191.487 372.424C192.031 372.616 192.503 372.888 192.903 373.24C193.319 373.576 193.655 373.968 193.911 374.416C194.183 374.864 194.351 375.344 194.415 375.856L193.863 375.664V372.4H196.359V385H193.863V382L194.439 381.832C194.343 382.264 194.143 382.688 193.839 383.104C193.551 383.504 193.175 383.864 192.711 384.184C192.263 384.504 191.759 384.76 191.199 384.952C190.655 385.144 190.079 385.24 189.471 385.24ZM190.119 382.96C190.871 382.96 191.535 382.776 192.111 382.408C192.687 382.04 193.135 381.536 193.455 380.896C193.791 380.24 193.959 379.496 193.959 378.664C193.959 377.848 193.791 377.12 193.455 376.48C193.135 375.84 192.687 375.336 192.111 374.968C191.535 374.6 190.871 374.416 190.119 374.416C189.383 374.416 188.727 374.6 188.151 374.968C187.591 375.336 187.143 375.84 186.807 376.48C186.487 377.12 186.327 377.848 186.327 378.664C186.327 379.496 186.487 380.24 186.807 380.896C187.143 381.536 187.591 382.04 188.151 382.408C188.727 382.776 189.383 382.96 190.119 382.96ZM199.81 385V372.4H202.306V376.36L202.066 375.4C202.242 374.792 202.538 374.24 202.954 373.744C203.386 373.248 203.874 372.856 204.418 372.568C204.978 372.28 205.554 372.136 206.146 372.136C206.418 372.136 206.674 372.16 206.914 372.208C207.17 372.256 207.37 372.312 207.514 372.376L206.866 375.064C206.674 374.984 206.458 374.92 206.218 374.872C205.994 374.808 205.77 374.776 205.546 374.776C205.114 374.776 204.698 374.864 204.298 375.04C203.914 375.2 203.57 375.432 203.266 375.736C202.978 376.024 202.746 376.368 202.57 376.768C202.394 377.152 202.306 377.576 202.306 378.04V385H199.81ZM214.207 385.24C213.055 385.24 212.023 384.96 211.111 384.4C210.215 383.824 209.503 383.048 208.975 382.072C208.447 381.08 208.183 379.952 208.183 378.688C208.183 377.424 208.439 376.304 208.951 375.328C209.479 374.336 210.191 373.56 211.087 373C211.983 372.424 212.999 372.136 214.135 372.136C214.759 372.136 215.359 372.24 215.935 372.448C216.527 372.64 217.055 372.912 217.519 373.264C217.983 373.6 218.343 373.976 218.599 374.392C218.871 374.792 219.007 375.2 219.007 375.616L218.287 375.664V367.24H220.759V385H218.287V382H218.767C218.767 382.384 218.639 382.768 218.383 383.152C218.127 383.52 217.783 383.864 217.351 384.184C216.935 384.504 216.447 384.76 215.887 384.952C215.343 385.144 214.783 385.24 214.207 385.24ZM214.543 383.104C215.295 383.104 215.959 382.912 216.535 382.528C217.111 382.144 217.559 381.624 217.879 380.968C218.215 380.296 218.383 379.536 218.383 378.688C218.383 377.84 218.215 377.088 217.879 376.432C217.559 375.76 217.111 375.232 216.535 374.848C215.959 374.464 215.295 374.272 214.543 374.272C213.791 374.272 213.127 374.464 212.551 374.848C211.975 375.232 211.519 375.76 211.183 376.432C210.863 377.088 210.703 377.84 210.703 378.688C210.703 379.536 210.863 380.296 211.183 380.968C211.519 381.624 211.975 382.144 212.551 382.528C213.127 382.912 213.791 383.104 214.543 383.104ZM224.546 389.296L223.634 388.192C224.194 387.872 224.65 387.504 225.002 387.088C225.354 386.672 225.53 386.312 225.53 386.008C225.53 385.848 225.49 385.688 225.41 385.528C225.33 385.384 225.162 385.176 224.906 384.904C224.586 384.6 224.378 384.344 224.282 384.136C224.186 383.928 224.138 383.704 224.138 383.464C224.138 383.08 224.274 382.776 224.546 382.552C224.818 382.312 225.17 382.192 225.602 382.192C226.002 382.192 226.362 382.312 226.682 382.552C227.018 382.776 227.274 383.096 227.45 383.512C227.642 383.912 227.738 384.376 227.738 384.904C227.738 385.384 227.658 385.848 227.498 386.296C227.338 386.744 227.114 387.16 226.826 387.544C226.538 387.928 226.202 388.272 225.818 388.576C225.434 388.88 225.01 389.12 224.546 389.296ZM238.847 385V369.184H241.319V385H238.847ZM236.231 374.8V372.4H244.247V374.8H236.231ZM246.498 385V367.24H248.97V374.992L248.538 375.28C248.698 374.72 249.01 374.208 249.474 373.744C249.938 373.264 250.49 372.88 251.13 372.592C251.77 372.288 252.426 372.136 253.098 372.136C254.058 372.136 254.858 372.328 255.498 372.712C256.138 373.08 256.618 373.648 256.938 374.416C257.258 375.184 257.418 376.152 257.418 377.32V385H254.946V377.488C254.946 376.768 254.85 376.176 254.658 375.712C254.466 375.232 254.17 374.888 253.77 374.68C253.37 374.456 252.874 374.36 252.282 374.392C251.802 374.392 251.362 374.472 250.962 374.632C250.562 374.776 250.21 374.984 249.906 375.256C249.618 375.528 249.386 375.848 249.21 376.216C249.05 376.568 248.97 376.952 248.97 377.368V385H247.746C247.538 385 247.33 385 247.122 385C246.914 385 246.706 385 246.498 385ZM266.651 385.24C265.355 385.24 264.203 384.968 263.195 384.424C262.203 383.864 261.419 383.104 260.843 382.144C260.283 381.184 260.003 380.08 260.003 378.832C260.003 377.84 260.163 376.936 260.483 376.12C260.803 375.304 261.243 374.6 261.803 374.008C262.379 373.4 263.059 372.936 263.843 372.616C264.643 372.28 265.507 372.112 266.435 372.112C267.251 372.112 268.011 372.272 268.715 372.592C269.419 372.896 270.027 373.32 270.539 373.864C271.067 374.408 271.467 375.056 271.739 375.808C272.027 376.544 272.163 377.352 272.147 378.232L272.123 379.288H261.827L261.275 377.32H269.987L269.627 377.728V377.152C269.579 376.624 269.403 376.152 269.099 375.736C268.795 375.32 268.411 374.992 267.947 374.752C267.483 374.512 266.979 374.392 266.435 374.392C265.571 374.392 264.843 374.56 264.251 374.896C263.659 375.216 263.211 375.696 262.907 376.336C262.603 376.96 262.451 377.736 262.451 378.664C262.451 379.544 262.635 380.312 263.003 380.968C263.371 381.608 263.891 382.104 264.563 382.456C265.235 382.808 266.011 382.984 266.891 382.984C267.515 382.984 268.091 382.88 268.619 382.672C269.163 382.464 269.747 382.088 270.371 381.544L271.619 383.296C271.235 383.68 270.763 384.016 270.203 384.304C269.659 384.592 269.075 384.824 268.451 385C267.843 385.16 267.243 385.24 266.651 385.24ZM274.833 385V372.4H277.305V374.992L276.873 375.28C277.033 374.72 277.345 374.208 277.809 373.744C278.273 373.264 278.825 372.88 279.465 372.592C280.105 372.288 280.761 372.136 281.433 372.136C282.393 372.136 283.193 372.328 283.833 372.712C284.473 373.08 284.953 373.648 285.273 374.416C285.593 375.184 285.753 376.152 285.753 377.32V385H283.281V377.488C283.281 376.768 283.185 376.176 282.993 375.712C282.801 375.232 282.505 374.888 282.105 374.68C281.705 374.456 281.209 374.36 280.617 374.392C280.137 374.392 279.697 374.472 279.297 374.632C278.897 374.776 278.545 374.984 278.241 375.256C277.953 375.528 277.721 375.848 277.545 376.216C277.385 376.568 277.305 376.952 277.305 377.368V385H276.081C275.873 385 275.665 385 275.457 385C275.249 385 275.041 385 274.833 385ZM45.8455 420.24C44.8055 420.24 43.8535 419.952 42.9895 419.376C42.1415 418.8 41.4615 418.016 40.9495 417.024C40.4375 416.032 40.1815 414.912 40.1815 413.664C40.1815 412.4 40.4375 411.28 40.9495 410.304C41.4775 409.312 42.1815 408.536 43.0615 407.976C43.9575 407.416 44.9575 407.136 46.0615 407.136C46.7175 407.136 47.3175 407.232 47.8615 407.424C48.4055 407.616 48.8775 407.888 49.2775 408.24C49.6935 408.576 50.0295 408.968 50.2855 409.416C50.5575 409.864 50.7255 410.344 50.7895 410.856L50.2375 410.664V407.4H52.7335V420H50.2375V417L50.8135 416.832C50.7175 417.264 50.5175 417.688 50.2135 418.104C49.9255 418.504 49.5495 418.864 49.0855 419.184C48.6375 419.504 48.1335 419.76 47.5735 419.952C47.0295 420.144 46.4535 420.24 45.8455 420.24ZM46.4935 417.96C47.2455 417.96 47.9095 417.776 48.4855 417.408C49.0615 417.04 49.5095 416.536 49.8295 415.896C50.1655 415.24 50.3335 414.496 50.3335 413.664C50.3335 412.848 50.1655 412.12 49.8295 411.48C49.5095 410.84 49.0615 410.336 48.4855 409.968C47.9095 409.6 47.2455 409.416 46.4935 409.416C45.7575 409.416 45.1015 409.6 44.5255 409.968C43.9655 410.336 43.5175 410.84 43.1815 411.48C42.8615 412.12 42.7015 412.848 42.7015 413.664C42.7015 414.496 42.8615 415.24 43.1815 415.896C43.5175 416.536 43.9655 417.04 44.5255 417.408C45.1015 417.776 45.7575 417.96 46.4935 417.96ZM56.185 425.28V407.4H58.681V410.28L58.297 410.064C58.393 409.584 58.665 409.128 59.113 408.696C59.561 408.248 60.105 407.888 60.745 407.616C61.401 407.328 62.073 407.184 62.761 407.184C63.897 407.184 64.905 407.464 65.785 408.024C66.665 408.584 67.361 409.352 67.873 410.328C68.385 411.304 68.641 412.424 68.641 413.688C68.641 414.936 68.385 416.056 67.873 417.048C67.377 418.024 66.689 418.8 65.809 419.376C64.929 419.936 63.937 420.216 62.833 420.216C62.097 420.216 61.385 420.072 60.697 419.784C60.009 419.48 59.425 419.096 58.945 418.632C58.465 418.168 58.169 417.688 58.057 417.192L58.681 416.856V425.28H56.185ZM62.425 417.936C63.161 417.936 63.817 417.752 64.393 417.384C64.969 417.016 65.425 416.512 65.761 415.872C66.097 415.232 66.265 414.504 66.265 413.688C66.265 412.872 66.097 412.152 65.761 411.528C65.441 410.888 64.993 410.384 64.417 410.016C63.841 409.648 63.177 409.464 62.425 409.464C61.673 409.464 61.009 409.648 60.433 410.016C59.857 410.368 59.401 410.864 59.065 411.504C58.729 412.144 58.561 412.872 58.561 413.688C58.561 414.504 58.729 415.232 59.065 415.872C59.401 416.512 59.857 417.016 60.433 417.384C61.009 417.752 61.673 417.936 62.425 417.936ZM71.3257 425.28V407.4H73.8217V410.28L73.4377 410.064C73.5337 409.584 73.8057 409.128 74.2537 408.696C74.7017 408.248 75.2457 407.888 75.8857 407.616C76.5417 407.328 77.2137 407.184 77.9017 407.184C79.0377 407.184 80.0457 407.464 80.9257 408.024C81.8057 408.584 82.5017 409.352 83.0137 410.328C83.5257 411.304 83.7817 412.424 83.7817 413.688C83.7817 414.936 83.5257 416.056 83.0137 417.048C82.5177 418.024 81.8297 418.8 80.9497 419.376C80.0697 419.936 79.0777 420.216 77.9737 420.216C77.2377 420.216 76.5257 420.072 75.8377 419.784C75.1497 419.48 74.5657 419.096 74.0857 418.632C73.6057 418.168 73.3097 417.688 73.1977 417.192L73.8217 416.856V425.28H71.3257ZM77.5657 417.936C78.3017 417.936 78.9577 417.752 79.5337 417.384C80.1097 417.016 80.5657 416.512 80.9017 415.872C81.2377 415.232 81.4057 414.504 81.4057 413.688C81.4057 412.872 81.2377 412.152 80.9017 411.528C80.5817 410.888 80.1337 410.384 79.5577 410.016C78.9817 409.648 78.3177 409.464 77.5657 409.464C76.8137 409.464 76.1497 409.648 75.5737 410.016C74.9977 410.368 74.5417 410.864 74.2057 411.504C73.8697 412.144 73.7017 412.872 73.7017 413.688C73.7017 414.504 73.8697 415.232 74.2057 415.872C74.5417 416.512 74.9977 417.016 75.5737 417.384C76.1497 417.752 76.8137 417.936 77.5657 417.936ZM86.5143 420V402.24H88.9863V420H86.5143ZM94.2502 425.52L96.7942 419.64L96.8182 421.608L90.5302 407.4H93.4102L97.3462 416.664C97.4262 416.824 97.5222 417.072 97.6342 417.408C97.7462 417.728 97.8422 418.048 97.9222 418.368L97.2982 418.512C97.4262 418.176 97.5462 417.84 97.6582 417.504C97.7862 417.168 97.9062 416.832 98.0182 416.496L101.306 407.4H104.234L99.0502 420L96.9142 425.52H94.2502ZM113.218 420V407.4H115.69V420H113.218ZM114.418 404.616C113.89 404.616 113.482 404.48 113.194 404.208C112.906 403.936 112.762 403.552 112.762 403.056C112.762 402.592 112.906 402.216 113.194 401.928C113.498 401.64 113.906 401.496 114.418 401.496C114.946 401.496 115.354 401.632 115.642 401.904C115.93 402.176 116.074 402.56 116.074 403.056C116.074 403.52 115.922 403.896 115.618 404.184C115.33 404.472 114.93 404.616 114.418 404.616ZM121.05 420V404.184H123.522V420H121.05ZM118.434 409.8V407.4H126.45V409.8H118.434ZM133.369 420.24C132.313 420.24 131.361 420.056 130.513 419.688C129.665 419.32 128.961 418.776 128.401 418.056L130.081 416.616C130.561 417.176 131.081 417.584 131.641 417.84C132.217 418.08 132.865 418.2 133.585 418.2C133.873 418.2 134.137 418.168 134.377 418.104C134.633 418.024 134.849 417.912 135.025 417.768C135.217 417.624 135.361 417.456 135.457 417.264C135.553 417.056 135.601 416.832 135.601 416.592C135.601 416.176 135.449 415.84 135.145 415.584C134.985 415.472 134.729 415.352 134.377 415.224C134.041 415.08 133.601 414.936 133.057 414.792C132.129 414.552 131.369 414.28 130.777 413.976C130.185 413.672 129.729 413.328 129.409 412.944C129.169 412.64 128.993 412.312 128.881 411.96C128.769 411.592 128.713 411.192 128.713 410.76C128.713 410.232 128.825 409.752 129.049 409.32C129.289 408.872 129.609 408.488 130.009 408.168C130.425 407.832 130.905 407.576 131.449 407.4C132.009 407.224 132.601 407.136 133.225 407.136C133.817 407.136 134.401 407.216 134.977 407.376C135.569 407.536 136.113 407.768 136.609 408.072C137.105 408.376 137.521 408.736 137.857 409.152L136.441 410.712C136.137 410.408 135.801 410.144 135.433 409.92C135.081 409.68 134.721 409.496 134.353 409.368C133.985 409.24 133.649 409.176 133.345 409.176C133.009 409.176 132.705 409.208 132.433 409.272C132.161 409.336 131.929 409.432 131.737 409.56C131.561 409.688 131.425 409.848 131.329 410.04C131.233 410.232 131.185 410.448 131.185 410.688C131.201 410.896 131.249 411.096 131.329 411.288C131.425 411.464 131.553 411.616 131.713 411.744C131.889 411.872 132.153 412.008 132.505 412.152C132.857 412.296 133.305 412.432 133.849 412.56C134.649 412.768 135.305 413 135.817 413.256C136.345 413.496 136.761 413.776 137.065 414.096C137.385 414.4 137.609 414.752 137.737 415.152C137.865 415.552 137.929 416 137.929 416.496C137.929 417.216 137.721 417.864 137.305 418.44C136.905 419 136.361 419.44 135.673 419.76C134.985 420.08 134.217 420.24 133.369 420.24ZM153.26 420.24C151.964 420.24 150.812 419.968 149.804 419.424C148.812 418.864 148.028 418.104 147.452 417.144C146.892 416.184 146.612 415.08 146.612 413.832C146.612 412.84 146.772 411.936 147.092 411.12C147.412 410.304 147.852 409.6 148.412 409.008C148.988 408.4 149.668 407.936 150.452 407.616C151.252 407.28 152.116 407.112 153.044 407.112C153.86 407.112 154.62 407.272 155.324 407.592C156.028 407.896 156.636 408.32 157.148 408.864C157.676 409.408 158.076 410.056 158.348 410.808C158.636 411.544 158.772 412.352 158.756 413.232L158.732 414.288H148.436L147.884 412.32H156.596L156.236 412.728V412.152C156.188 411.624 156.012 411.152 155.708 410.736C155.404 410.32 155.02 409.992 154.556 409.752C154.092 409.512 153.588 409.392 153.044 409.392C152.18 409.392 151.452 409.56 150.86 409.896C150.268 410.216 149.82 410.696 149.516 411.336C149.212 411.96 149.06 412.736 149.06 413.664C149.06 414.544 149.244 415.312 149.612 415.968C149.98 416.608 150.5 417.104 151.172 417.456C151.844 417.808 152.62 417.984 153.5 417.984C154.124 417.984 154.7 417.88 155.228 417.672C155.772 417.464 156.356 417.088 156.98 416.544L158.228 418.296C157.844 418.68 157.372 419.016 156.812 419.304C156.268 419.592 155.684 419.824 155.06 420C154.452 420.16 153.852 420.24 153.26 420.24ZM162.811 420V405.984C162.811 405.264 162.971 404.624 163.291 404.064C163.611 403.504 164.051 403.064 164.611 402.744C165.171 402.424 165.819 402.264 166.555 402.264C167.067 402.264 167.547 402.36 167.995 402.552C168.443 402.744 168.803 403 169.075 403.32L168.235 405.216C168.027 405.024 167.795 404.872 167.539 404.76C167.299 404.632 167.067 404.568 166.843 404.568C166.507 404.568 166.219 404.624 165.979 404.736C165.755 404.832 165.587 404.992 165.475 405.216C165.363 405.424 165.307 405.68 165.307 405.984V420H164.059C163.851 420 163.643 420 163.435 420C163.227 420 163.019 420 162.811 420ZM160.795 409.896V407.616H168.283V409.896H160.795ZM172.243 420V405.984C172.243 405.264 172.403 404.624 172.723 404.064C173.043 403.504 173.483 403.064 174.043 402.744C174.603 402.424 175.251 402.264 175.987 402.264C176.499 402.264 176.979 402.36 177.427 402.552C177.875 402.744 178.235 403 178.507 403.32L177.667 405.216C177.459 405.024 177.227 404.872 176.971 404.76C176.731 404.632 176.499 404.568 176.275 404.568C175.939 404.568 175.651 404.624 175.411 404.736C175.187 404.832 175.019 404.992 174.907 405.216C174.795 405.424 174.739 405.68 174.739 405.984V420H173.491C173.283 420 173.075 420 172.867 420C172.659 420 172.451 420 172.243 420ZM170.227 409.896V407.616H177.715V409.896H170.227ZM185.721 420.24C184.425 420.24 183.273 419.968 182.265 419.424C181.273 418.864 180.489 418.104 179.913 417.144C179.353 416.184 179.073 415.08 179.073 413.832C179.073 412.84 179.233 411.936 179.553 411.12C179.873 410.304 180.313 409.6 180.873 409.008C181.449 408.4 182.129 407.936 182.913 407.616C183.713 407.28 184.577 407.112 185.505 407.112C186.321 407.112 187.081 407.272 187.785 407.592C188.489 407.896 189.097 408.32 189.609 408.864C190.137 409.408 190.537 410.056 190.809 410.808C191.097 411.544 191.233 412.352 191.217 413.232L191.193 414.288H180.897L180.345 412.32H189.057L188.697 412.728V412.152C188.649 411.624 188.473 411.152 188.169 410.736C187.865 410.32 187.481 409.992 187.017 409.752C186.553 409.512 186.049 409.392 185.505 409.392C184.641 409.392 183.913 409.56 183.321 409.896C182.729 410.216 182.281 410.696 181.977 411.336C181.673 411.96 181.521 412.736 181.521 413.664C181.521 414.544 181.705 415.312 182.073 415.968C182.441 416.608 182.961 417.104 183.633 417.456C184.305 417.808 185.081 417.984 185.961 417.984C186.585 417.984 187.161 417.88 187.689 417.672C188.233 417.464 188.817 417.088 189.441 416.544L190.689 418.296C190.305 418.68 189.833 419.016 189.273 419.304C188.729 419.592 188.145 419.824 187.521 420C186.913 420.16 186.313 420.24 185.721 420.24ZM199.256 420.24C198.088 420.24 197.04 419.952 196.112 419.376C195.2 418.8 194.472 418.016 193.928 417.024C193.4 416.032 193.136 414.92 193.136 413.688C193.136 412.456 193.4 411.344 193.928 410.352C194.472 409.36 195.2 408.576 196.112 408C197.04 407.424 198.088 407.136 199.256 407.136C200.376 407.136 201.392 407.368 202.304 407.832C203.232 408.28 203.936 408.896 204.416 409.68L203.048 411.36C202.792 410.992 202.464 410.656 202.064 410.352C201.664 410.048 201.24 409.808 200.792 409.632C200.344 409.456 199.912 409.368 199.496 409.368C198.728 409.368 198.04 409.56 197.432 409.944C196.84 410.312 196.368 410.824 196.016 411.48C195.664 412.136 195.488 412.872 195.488 413.688C195.488 414.504 195.672 415.24 196.04 415.896C196.408 416.536 196.896 417.048 197.504 417.432C198.112 417.816 198.784 418.008 199.52 418.008C199.952 418.008 200.368 417.936 200.768 417.792C201.184 417.648 201.584 417.432 201.968 417.144C202.352 416.856 202.712 416.504 203.048 416.088L204.416 417.768C203.904 418.488 203.168 419.08 202.208 419.544C201.264 420.008 200.28 420.24 199.256 420.24ZM208.308 420V404.184H210.78V420H208.308ZM205.692 409.8V407.4H213.708V409.8H205.692ZM220.627 420.24C219.571 420.24 218.619 420.056 217.771 419.688C216.923 419.32 216.219 418.776 215.659 418.056L217.339 416.616C217.819 417.176 218.339 417.584 218.899 417.84C219.475 418.08 220.123 418.2 220.843 418.2C221.131 418.2 221.395 418.168 221.635 418.104C221.891 418.024 222.107 417.912 222.283 417.768C222.475 417.624 222.619 417.456 222.715 417.264C222.811 417.056 222.859 416.832 222.859 416.592C222.859 416.176 222.707 415.84 222.403 415.584C222.243 415.472 221.987 415.352 221.635 415.224C221.299 415.08 220.859 414.936 220.315 414.792C219.387 414.552 218.627 414.28 218.035 413.976C217.443 413.672 216.987 413.328 216.667 412.944C216.427 412.64 216.251 412.312 216.139 411.96C216.027 411.592 215.971 411.192 215.971 410.76C215.971 410.232 216.083 409.752 216.307 409.32C216.547 408.872 216.867 408.488 217.267 408.168C217.683 407.832 218.163 407.576 218.707 407.4C219.267 407.224 219.859 407.136 220.483 407.136C221.075 407.136 221.659 407.216 222.235 407.376C222.827 407.536 223.371 407.768 223.867 408.072C224.363 408.376 224.779 408.736 225.115 409.152L223.699 410.712C223.395 410.408 223.059 410.144 222.691 409.92C222.339 409.68 221.979 409.496 221.611 409.368C221.243 409.24 220.907 409.176 220.603 409.176C220.267 409.176 219.963 409.208 219.691 409.272C219.419 409.336 219.187 409.432 218.995 409.56C218.819 409.688 218.683 409.848 218.587 410.04C218.491 410.232 218.443 410.448 218.443 410.688C218.459 410.896 218.507 411.096 218.587 411.288C218.683 411.464 218.811 411.616 218.971 411.744C219.147 411.872 219.411 412.008 219.763 412.152C220.115 412.296 220.563 412.432 221.107 412.56C221.907 412.768 222.563 413 223.075 413.256C223.603 413.496 224.019 413.776 224.323 414.096C224.643 414.4 224.867 414.752 224.995 415.152C225.123 415.552 225.187 416 225.187 416.496C225.187 417.216 224.979 417.864 224.563 418.44C224.163 419 223.619 419.44 222.931 419.76C222.243 420.08 221.475 420.24 220.627 420.24Z" fill="#FAF9F6"/>
<path d="M129.92 184.523C126.499 158.722 136.929 144.432 142.571 140.512C171.171 163.81 223.383 201.977 243.6 223.01C250.338 230.02 250.834 237.978 249.302 239.047C243.173 243.323 236.533 237.74 233.979 234.414C232.838 236.837 230.534 250.153 229.524 256.509L226.495 294.818C225.545 301.945 222.432 316.77 217.586 319.051C211.528 321.902 204.579 317.625 202.44 315.487C200.302 313.349 200.124 309.251 198.342 302.123C196.917 296.421 192.759 294.877 190.859 294.818C190.265 296.6 188.079 301.411 184.088 306.4C180.096 311.389 172.446 308.478 169.12 306.4C165.2 304.261 162.706 297.312 161.458 287.691C160.211 278.069 158.429 254.192 157.895 245.639C157.467 238.797 152.134 231.266 149.52 228.356C144.412 224.495 133.341 210.324 129.92 184.523Z" fill="#D37129"/>
<path d="M132.059 156.727C134.625 147.889 140.137 142.235 142.572 140.512C160.925 126.792 174.823 125.189 188.008 125.01C201.194 124.832 211.707 126.97 221.685 129.465C229.667 131.461 240.81 135.523 245.383 137.305C247.996 138.671 254.078 142.508 257.499 146.927C261.776 152.45 262.132 158.865 263.023 164.745C263.736 169.449 263.32 181.197 263.023 186.483C262.786 190.641 261.99 200.773 260.707 208.043C259.424 215.313 256.965 224.258 255.896 227.822C254.649 231.207 251.619 238.192 249.481 239.047C247.343 239.902 245.739 235.246 245.205 232.811C244.552 229.841 242.817 223.902 241.107 223.902C238.969 223.902 236.474 227.465 233.979 234.414C231.984 239.974 230.416 252.054 229.881 257.4C229.347 267.319 227.565 290.577 224.714 304.262C221.15 321.367 215.805 319.764 214.023 319.942C212.241 320.12 206.718 316.2 206.896 302.124C207.038 290.862 204.461 285.79 203.154 284.662C200.897 283.058 195.278 282.844 190.859 294.818C186.44 306.792 181.059 309.31 178.921 309.073C171.509 308.93 168.705 296.897 168.23 290.898C167.933 272.902 167.054 235.626 165.914 230.494C164.488 224.08 158.787 218.378 152.016 213.389C145.245 208.4 130.812 194.858 129.921 183.989C129.03 173.12 128.852 167.774 132.059 156.727Z" fill="#FBCC1C"/>
<path d="M138.652 169.913C137.226 157.226 144.472 148.115 148.274 145.145C161.459 135.345 169.834 131.96 178.208 131.425C186.583 130.891 201.372 132.138 204.757 132.494C208.143 132.851 217.408 134.989 223.288 136.236C229.168 137.483 235.405 139.622 239.325 140.869C242.461 141.867 246.69 144.492 248.412 145.68C250.313 147.58 254.577 152.344 256.43 156.193C258.747 161.003 258.568 169.734 258.747 173.476C258.889 176.47 257.737 188.978 257.143 194.858C256.727 199.134 255.682 208.721 254.827 212.855C253.758 218.022 251.798 222.476 250.194 225.149C248.607 227.793 247.37 225.729 246.826 224.822L246.808 224.793C246.274 223.902 245.918 219.982 245.383 218.2C244.848 216.418 243.779 214.636 241.998 213.567C240.572 212.712 238.434 213.805 237.543 214.458C236.711 215.112 234.55 217.06 232.554 219.625C230.558 222.191 227.921 233.999 226.852 239.582C225.545 246.293 222.932 260.607 222.932 264.171C222.932 268.626 221.863 273.793 221.15 280.92C220.437 288.047 219.19 294.64 218.477 296.957C217.765 299.273 216.517 301.946 214.379 301.589C212.241 301.233 211.172 297.313 210.459 294.64C209.747 291.967 209.212 288.76 208.677 284.306C208.25 280.742 206.599 278.307 205.827 277.535C204.936 276.703 202.192 275.29 198.343 276.287C193.532 277.535 190.146 285.197 188.365 288.76C186.583 292.324 184.088 294.818 180.525 293.215C177.674 291.932 176.961 285.315 176.961 282.167L175.357 227.465C174.585 223.902 171.616 215.812 165.914 211.964C158.786 207.153 151.659 199.669 149.165 196.818C146.67 193.967 140.434 185.771 138.652 169.913Z" fill="#E884B6"/>
<path d="M138.652 169.913C137.226 157.226 144.472 148.115 148.274 145.145C161.459 135.345 169.834 131.96 178.208 131.425C186.583 130.891 201.372 132.138 204.757 132.494C208.143 132.851 217.408 134.989 223.288 136.236C229.168 137.483 235.405 139.622 239.325 140.869C242.461 141.867 246.69 144.492 248.412 145.68L172.863 220.516C172.031 218.675 169.477 214.387 165.914 211.964C158.786 207.153 151.659 199.669 149.165 196.818C146.67 193.967 140.434 185.771 138.652 169.913Z" fill="#E34799"/>
<path d="M127.71 145.828C125.002 144.118 126.106 138.463 126.997 135.85C128.423 131.716 132.462 129.138 134.303 128.366C136.797 127.178 142.571 125.515 145.707 128.366C148.843 131.217 149.282 135.226 148.629 136.592C143.996 138.909 138.116 144.254 137.225 146.036C136.549 147.388 131.095 147.966 127.71 145.828Z" fill="#FBCC1C"/>
<path d="M127.71 145.828C125.002 144.118 126.106 138.463 126.997 135.85C127.437 134.791 128.601 132.458 129.742 131.603C129.801 134.81 132.236 141.367 140.789 141.938C139.898 142.829 138.027 144.789 137.404 146.036C136.728 147.388 131.095 147.966 127.71 145.828Z" fill="#D37129"/>
<path d="M147.739 173.832C153.868 172.692 186.167 174.664 201.55 175.792C202.69 172.941 205.351 172.585 206.539 172.763L218.299 153.163H217.052C216.161 153.163 214.201 152.451 216.161 151.916C218.121 151.381 222.397 147.461 223.644 146.392C224.892 145.323 227.03 144.967 225.961 146.571C224.892 148.174 223.823 155.658 223.823 156.549C223.823 157.44 222.932 157.44 222.753 156.727C222.611 156.157 221.863 155.064 221.506 154.589L210.459 174.367C211.884 176.077 211.884 178.643 211.706 179.712C216.695 182.029 218.477 185.771 219.012 189.334C219.439 192.185 218.002 234.474 217.23 255.262C217.657 255.262 218.121 255.143 218.299 255.083C219.13 254.727 220.437 254.478 219.012 256.331C217.23 258.647 216.695 266.131 216.339 267.556C216.054 268.697 215.507 268.269 215.27 267.913C214.617 266.903 213.931 264.071 213.488 260.964C212.922 256.993 211.543 255.613 211.172 254.905C210.873 254.336 210.993 253.836 211.706 254.371C212.276 254.798 213.726 255.024 214.379 255.083C214.735 235.424 215.377 195.036 215.092 190.76C214.807 186.483 211.29 183.276 209.568 182.207C202.868 185.058 201.193 179.95 201.193 177.04C198.485 176.897 168.23 175.911 153.441 175.436C148.986 175.377 141.609 174.973 147.739 173.832Z" fill="#505055" stroke="#505055"/>
<path d="M203.687 177.574C202.404 175.864 204.222 174.842 205.291 174.545C207.964 173.832 209.924 175.792 209.924 177.218C209.924 178.643 208.498 179.534 207.964 179.712C207.429 179.891 205.291 179.712 203.687 177.574Z" fill="#FBCA27"/>
<path d="M148.756 168.278C147.615 167.851 148.162 166.318 148.577 165.606C149.647 163.646 150.968 164.967 151.25 165.249L151.25 165.249C151.606 165.606 152.141 166.853 151.785 167.387C151.428 167.922 150.181 168.813 148.756 168.278Z" fill="#505055" stroke="#505055"/>
<path d="M158.251 193.076C157.681 192.078 158.608 191.353 159.142 191.116C160.568 190.581 161.815 190.581 162.172 191.65C162.528 192.719 161.637 193.61 160.924 193.967C160.211 194.323 158.964 194.323 158.251 193.076Z" fill="#505055" stroke="#505055"/>
<path d="M155.232 148.733C154.065 146.645 155.961 145.129 157.054 144.632C159.971 143.514 162.523 143.514 163.252 145.751C163.981 147.987 162.158 149.851 160.7 150.596C159.242 151.342 156.69 151.342 155.232 148.733Z" fill="#505055"/>
<path d="M183.731 244.214C183.019 242.931 184.028 241.898 184.622 241.541C185.157 241.304 186.368 241.114 186.939 242.254C187.509 243.394 186.701 244.273 186.226 244.57C185.691 244.986 184.444 245.497 183.731 244.214Z" fill="#505055" stroke="#505055"/>
<path d="M183.196 141.225C181.771 140.512 182.958 139.027 183.731 138.374C184.265 137.84 185.619 137.091 186.76 138.374C187.9 139.657 186.997 140.691 186.403 141.047C185.928 141.403 184.621 141.938 183.196 141.225Z" fill="#505055" stroke="#505055"/>
<path d="M212.775 143.719C211.92 143.006 212.775 141.64 213.309 141.046C213.725 140.69 214.771 140.227 215.626 141.225C216.481 142.222 215.864 143.066 215.448 143.363C214.913 143.779 213.63 144.432 212.775 143.719Z" fill="#505055" stroke="#505055"/>
<path d="M246.987 181.494C246.131 180.211 247.343 178.94 248.056 178.465C248.768 178.109 249.659 178.465 250.55 179.712C251.263 180.71 250.491 181.672 250.016 182.029C249.362 182.385 247.842 182.777 246.987 181.494Z" fill="#505055" stroke="#505055"/>
<path d="M211.727 285.521C210.11 283.147 212.401 280.794 213.748 279.915C215.096 279.255 216.78 279.915 218.465 282.223C219.812 284.07 218.352 285.851 217.454 286.511C216.219 287.17 213.344 287.896 211.727 285.521Z" fill="#505055"/>
<path d="M247.698 213.567C246.843 212.569 247.698 211.488 248.232 211.072C248.648 210.775 249.658 210.395 250.371 211.25C251.083 212.106 250.668 212.914 250.371 213.21C249.836 213.745 248.553 214.565 247.698 213.567Z" fill="#505055" stroke="#505055"/>
<path d="M243.741 159.006C241.995 156.896 243.741 154.611 244.832 153.732C245.681 153.104 247.742 152.3 249.197 154.109C250.652 155.917 249.803 157.625 249.197 158.253C248.105 159.383 245.486 161.116 243.741 159.006Z" fill="#505055"/>
<path d="M185.869 278.069C184.587 276.928 185.335 275.574 185.869 274.861C186.043 274.629 186.707 274.167 188.133 274.737C189.558 275.307 189.195 276.584 188.899 277.178C188.423 277.95 187.152 279.209 185.869 278.069Z" fill="#505055" stroke="#505055"/>
<path d="M182.511 223.59C179.775 221.189 181.371 218.338 182.511 216.837C182.882 216.349 184.298 215.375 187.339 216.576C190.379 217.776 189.605 220.464 188.972 221.714C187.959 223.34 185.248 225.991 182.511 223.59Z" fill="#505055"/>
</svg>
