<svg width="281" height="350" viewBox="0 0 281 350" fill="none" xmlns="http://www.w3.org/2000/svg">
<rect width="281" height="350" rx="20" fill="#202020" fill-opacity="0.5"/>
<path d="M32.032 28.688C33.504 28.752 35.1893 28.88 37.088 29.072C39.008 29.264 40.3733 29.36 41.184 29.36C41.9947 29.36 42.6027 29.296 43.008 29.168C43.9893 28.2293 44.6827 27.5147 45.088 27.024L45.6 27.408C44.4693 28.88 43.7867 30.416 43.552 32.016C41.44 31.44 39.5093 31.088 37.76 30.96C37.6107 33.2853 37.536 36.3467 37.536 40.144C37.536 43.92 37.6747 46.832 37.952 48.88C39.0187 48.9867 40.192 49.1893 41.472 49.488L41.376 50.256C39.7973 50.0853 38.08 50 36.224 50C34.3893 50 32.9067 50.0853 31.776 50.256L31.648 49.456C32.608 49.1573 33.632 48.9333 34.72 48.784C34.9547 47.0347 35.072 44.2827 35.072 40.528V38.64C35.072 36.528 34.944 33.936 34.688 30.864H33.856C31.3387 30.864 29.728 31.2053 29.024 31.888C28.8747 32.1867 28.8 32.656 28.8 33.296C28.8 33.936 28.9067 34.3733 29.12 34.608L29.088 34.832C28.5547 35.152 28.0213 35.6 27.488 36.176C27.232 36.1547 27.0293 36.048 26.88 35.856C26.7093 35.664 26.624 35.44 26.624 35.184C26.624 34.1387 27.2533 32.8907 28.512 31.44C29.7707 29.9893 30.944 29.072 32.032 28.688ZM45.9698 33.392L53.3298 33.168C55.2498 33.168 56.6898 33.456 57.6498 34.032C58.6098 34.5867 59.0898 35.6107 59.0898 37.104C59.0898 38.128 58.7698 39.0347 58.1298 39.824C57.5111 40.6133 56.6898 41.2 55.6658 41.584L59.2498 48.912C59.9751 49.04 60.6578 49.1893 61.2978 49.36L61.1698 50.224C60.2738 50.0747 59.2604 50 58.1298 50C57.0204 50 56.1458 50.0533 55.5058 50.16L55.3778 49.648C55.6551 49.3707 55.7938 48.912 55.7938 48.272C55.7938 46.9707 55.0471 44.88 53.5538 42C53.1058 41.9147 52.5831 41.872 51.9858 41.872L52.0498 40.944H52.3698C54.8871 40.944 56.1458 39.792 56.1458 37.488C56.1458 35.3547 55.0684 34.288 52.9138 34.288C52.1884 34.288 51.5378 34.4053 50.9618 34.64C50.8124 36.048 50.7378 38.4587 50.7378 41.872C50.7378 45.2853 50.8338 47.6427 51.0258 48.944C51.9644 49.0507 52.8391 49.2107 53.6498 49.424L53.5538 50.224C52.4444 50.0747 51.1964 50 49.8098 50C48.4444 50 47.2178 50.0853 46.1298 50.256L46.0018 49.424C46.5991 49.232 47.2711 49.072 48.0178 48.944C48.2311 47.344 48.3378 44.8587 48.3378 41.488C48.3378 38.096 48.2418 35.7493 48.0498 34.448C47.2178 34.1707 46.5244 34.032 45.9698 34.032V33.392ZM65.6295 42.096C65.6935 43.9947 66.0455 45.4773 66.6855 46.544C67.3255 47.6107 68.4135 48.144 69.9495 48.144C71.4855 48.144 72.9042 47.4933 74.2055 46.192L74.6535 46.64C73.2242 48.4533 71.5068 49.7013 69.5015 50.384C67.4322 50.384 65.8108 49.7333 64.6375 48.432C63.4642 47.1093 62.8775 45.3387 62.8775 43.12C62.8775 40.88 63.5708 38.7787 64.9575 36.816C66.3442 34.8533 68.1148 33.5627 70.2695 32.944C71.8268 32.944 73.5868 33.104 75.5495 33.424L75.5175 34.128C75.1122 34.128 74.7282 34.2027 74.3655 34.352C73.9602 35.312 73.6935 36.4533 73.5655 37.776H72.7655C72.5948 37.0507 72.5095 36.304 72.5095 35.536C71.6988 35.1307 70.7388 34.928 69.6295 34.928C68.5202 34.928 67.6028 35.2267 66.8775 35.824C66.1522 37.1467 65.7362 38.7253 65.6295 40.56C66.5255 40.7093 67.4855 40.784 68.5095 40.784C70.2802 40.784 71.3468 40.4107 71.7095 39.664L72.3815 39.76C72.1895 40.4 72.0935 41.0293 72.0935 41.648C72.0935 42.2667 72.1682 43.024 72.3175 43.92L71.5495 44.048C71.3148 43.408 71.1442 42.7467 71.0375 42.064C70.1842 41.9787 69.3308 41.936 68.4775 41.936C67.6455 41.936 66.6962 41.9893 65.6295 42.096ZM79.2373 32.976C81.2426 33.2107 83.2693 33.328 85.3173 33.328C87.3653 33.328 89.3813 33.2107 91.3653 32.976L91.4933 33.808C90.8533 34.064 90.1919 34.256 89.5093 34.384C89.2746 36.1333 89.1573 38.5653 89.1573 41.68C89.1573 44.7947 89.2746 47.2267 89.5093 48.976C89.9359 49.04 90.7253 49.2 91.8773 49.456L91.7493 50.256C90.7253 50.0853 89.4133 50 87.8133 50C86.2133 50 84.9866 50.0853 84.1333 50.256L84.0052 49.424C84.7306 49.1893 85.5519 49.0187 86.4693 48.912C86.5973 47.6747 86.6933 45.9573 86.7573 43.76C85.7546 43.6533 84.7519 43.6 83.7493 43.6C82.7466 43.6 81.8719 43.6533 81.1253 43.76C80.6986 45.5093 80.4852 46.7253 80.4852 47.408C80.4852 48.4533 80.8586 49.1893 81.6053 49.616L81.4773 50.16C80.9866 50.0533 80.0586 50 78.6933 50C77.3279 50 76.2506 50.0853 75.4612 50.256L75.3332 49.424C75.8453 49.232 76.5493 49.0613 77.4453 48.912L81.6053 34.32C80.6666 34.1707 79.8453 34 79.1413 33.808L79.2373 32.976ZM81.3813 42.256C82.2133 42.384 83.1306 42.448 84.1333 42.448C85.1573 42.448 86.0319 42.384 86.7573 42.256C86.7573 38.3093 86.6719 35.76 86.5013 34.608C85.7759 34.5653 85.2319 34.544 84.8693 34.544C84.5279 34.544 83.9946 34.5653 83.2693 34.608L81.3813 42.256ZM96.4583 47.568C97.4396 47.9733 98.4103 48.176 99.3703 48.176C100.33 48.176 101.098 47.952 101.674 47.504C102.25 47.056 102.538 46.416 102.538 45.584C102.538 44.7307 101.333 43.6747 98.9223 42.416C98.0049 41.9467 97.1623 41.3813 96.3943 40.72C95.6476 40.0373 95.2743 39.3653 95.2743 38.704C95.2743 37.5733 95.8716 36.432 97.0663 35.28C98.2609 34.128 99.4876 33.3493 100.746 32.944C102.325 32.944 103.754 33.104 105.034 33.424V34C104.138 34.896 103.637 36.1227 103.53 37.68H102.73C102.73 37.0827 102.677 36.336 102.57 35.44C101.824 35.0987 101.024 34.928 100.17 34.928C99.3169 34.928 98.6023 35.12 98.0263 35.504C97.4716 35.8667 97.1943 36.4 97.1943 37.104C97.1943 37.5947 97.5676 38.128 98.3143 38.704C99.0823 39.28 99.9143 39.792 100.81 40.24C101.706 40.688 102.528 41.2427 103.274 41.904C104.042 42.5653 104.426 43.2267 104.426 43.888C104.426 45.168 103.861 46.448 102.73 47.728C101.6 48.9867 100.352 49.872 98.9863 50.384C97.6423 50.384 96.3836 50.224 95.2103 49.904C94.8689 50.0533 94.5169 50.2987 94.1543 50.64L93.5783 50.224C94.7729 48.9227 95.4343 47.312 95.5623 45.392H96.3623C96.3623 46.1387 96.3943 46.864 96.4583 47.568ZM121.127 40.912V42.416C121.127 45.3387 121.234 47.5253 121.447 48.976C122.428 49.104 123.239 49.2533 123.879 49.424L123.783 50.224C122.738 50.0747 121.66 50 120.551 50C119.463 50 118.716 50.032 118.311 50.096L118.183 49.68C118.375 49.4667 118.503 48.8587 118.567 47.856C117.458 49.008 116.178 49.8507 114.727 50.384C111.058 50.384 109.223 48.1973 109.223 43.824C109.223 42.864 109.298 41.328 109.447 39.216C109.596 37.104 109.671 35.8667 109.671 35.504C109.671 35.1413 109.607 34.7893 109.479 34.448V34.416C108.583 34.2667 107.868 34.1067 107.335 33.936L107.463 33.072C108.7 33.2427 109.82 33.328 110.823 33.328C111.826 33.328 112.647 33.2747 113.287 33.168L113.415 33.712C112.647 34.1173 112.199 34.8533 112.071 35.92C111.815 37.968 111.687 40.0693 111.687 42.224C111.687 44.3787 111.932 45.9147 112.423 46.832C112.935 47.728 113.874 48.176 115.239 48.176C116.626 48.176 117.746 47.7813 118.599 46.992C118.684 45.2853 118.727 43.2693 118.727 40.944C118.727 38.6187 118.642 36.432 118.471 34.384C117.511 34.2773 116.626 34.1173 115.815 33.904L115.911 33.104C117.02 33.2533 118.258 33.328 119.623 33.328C121.01 33.328 122.247 33.2427 123.335 33.072L123.463 33.904C122.866 34.096 122.194 34.256 121.447 34.384C121.234 35.8133 121.127 37.9893 121.127 40.912ZM126.251 33.392L133.611 33.168C135.531 33.168 136.971 33.456 137.931 34.032C138.891 34.5867 139.371 35.6107 139.371 37.104C139.371 38.128 139.051 39.0347 138.411 39.824C137.792 40.6133 136.971 41.2 135.947 41.584L139.531 48.912C140.256 49.04 140.939 49.1893 141.579 49.36L141.451 50.224C140.555 50.0747 139.542 50 138.411 50C137.302 50 136.427 50.0533 135.787 50.16L135.659 49.648C135.936 49.3707 136.075 48.912 136.075 48.272C136.075 46.9707 135.328 44.88 133.835 42C133.387 41.9147 132.864 41.872 132.267 41.872L132.331 40.944H132.651C135.168 40.944 136.427 39.792 136.427 37.488C136.427 35.3547 135.35 34.288 133.195 34.288C132.47 34.288 131.819 34.4053 131.243 34.64C131.094 36.048 131.019 38.4587 131.019 41.872C131.019 45.2853 131.115 47.6427 131.307 48.944C132.246 49.0507 133.12 49.2107 133.931 49.424L133.835 50.224C132.726 50.0747 131.478 50 130.091 50C128.726 50 127.499 50.0853 126.411 50.256L126.283 49.424C126.88 49.232 127.552 49.072 128.299 48.944C128.512 47.344 128.619 44.8587 128.619 41.488C128.619 38.096 128.523 35.7493 128.331 34.448C127.499 34.1707 126.806 34.032 126.251 34.032V33.392ZM145.911 42.096C145.975 43.9947 146.327 45.4773 146.967 46.544C147.607 47.6107 148.695 48.144 150.231 48.144C151.767 48.144 153.185 47.4933 154.487 46.192L154.935 46.64C153.505 48.4533 151.788 49.7013 149.783 50.384C147.713 50.384 146.092 49.7333 144.919 48.432C143.745 47.1093 143.159 45.3387 143.159 43.12C143.159 40.88 143.852 38.7787 145.239 36.816C146.625 34.8533 148.396 33.5627 150.551 32.944C152.108 32.944 153.868 33.104 155.831 33.424L155.799 34.128C155.393 34.128 155.009 34.2027 154.647 34.352C154.241 35.312 153.975 36.4533 153.847 37.776H153.047C152.876 37.0507 152.791 36.304 152.791 35.536C151.98 35.1307 151.02 34.928 149.911 34.928C148.801 34.928 147.884 35.2267 147.159 35.824C146.433 37.1467 146.017 38.7253 145.911 40.56C146.807 40.7093 147.767 40.784 148.791 40.784C150.561 40.784 151.628 40.4107 151.991 39.664L152.663 39.76C152.471 40.4 152.375 41.0293 152.375 41.648C152.375 42.2667 152.449 43.024 152.599 43.92L151.831 44.048C151.596 43.408 151.425 42.7467 151.319 42.064C150.465 41.9787 149.612 41.936 148.759 41.936C147.927 41.936 146.977 41.9893 145.911 42.096ZM167.509 48.88C167.893 49.52 168.426 50.0427 169.109 50.448C169.813 50.8747 170.623 51.088 171.541 51.088C172.479 51.088 173.418 50.8107 174.357 50.256C175.317 49.7227 176.117 49.0507 176.757 48.24L177.205 48.688C175.647 51.12 173.535 52.784 170.869 53.68C169.034 53.68 167.53 53.2107 166.357 52.272C165.183 51.3333 164.351 50.128 163.861 48.656C163.391 47.184 163.157 45.3707 163.157 43.216C163.157 41.0613 163.423 39.024 163.957 37.104C164.511 35.1627 165.461 33.424 166.805 31.888C168.149 30.3307 169.823 29.264 171.829 28.688C173.983 28.688 176.181 28.8907 178.421 29.296L178.389 30C177.834 30 177.322 30.096 176.853 30.288C176.319 31.5467 175.967 33.0507 175.797 34.8H174.997C174.805 33.7973 174.709 32.8373 174.709 31.92C173.578 31.3013 172.33 30.992 170.965 30.992C169.621 30.992 168.511 31.3973 167.637 32.208C166.549 34.4053 166.005 37.232 166.005 40.688C166.005 44.5493 166.506 47.28 167.509 48.88ZM189.238 33.072C190.326 33.2427 191.553 33.328 192.918 33.328C194.305 33.328 195.553 33.2533 196.662 33.104L196.758 33.904C195.947 34.1173 195.062 34.2773 194.102 34.384C193.889 35.7067 193.782 37.8827 193.782 40.912V42.416C193.782 45.488 193.889 47.664 194.102 48.944C195.062 49.0507 195.947 49.2107 196.758 49.424L196.662 50.224C195.553 50.0747 194.305 50 192.918 50C191.553 50 190.326 50.0853 189.238 50.256L189.11 49.424C189.707 49.232 190.379 49.072 191.126 48.944C191.297 46.5333 191.393 44.1227 191.414 41.712C190.049 41.584 188.79 41.52 187.638 41.52C186.486 41.52 185.238 41.584 183.894 41.712C183.894 45.232 183.99 47.6427 184.182 48.944C185.142 49.0507 186.027 49.2107 186.838 49.424L186.742 50.224C185.633 50.0747 184.385 50 182.998 50C181.633 50 180.406 50.0853 179.318 50.256L179.19 49.424C179.787 49.232 180.459 49.072 181.206 48.944C181.398 47.408 181.494 45.232 181.494 42.416V40.912C181.494 38.096 181.387 35.92 181.174 34.384C180.427 34.256 179.755 34.096 179.158 33.904L179.286 33.072C180.374 33.2427 181.601 33.328 182.966 33.328C184.353 33.328 185.601 33.2533 186.71 33.104L186.806 33.904C185.995 34.1173 185.11 34.2773 184.15 34.384C183.979 35.6213 183.894 37.5307 183.894 40.112C185.089 40.2827 186.369 40.368 187.734 40.368C189.121 40.368 190.347 40.2933 191.414 40.144C191.393 38.3307 191.297 36.4107 191.126 34.384C190.379 34.256 189.707 34.096 189.11 33.904L189.238 33.072ZM201.723 42.096C201.787 43.9947 202.139 45.4773 202.779 46.544C203.419 47.6107 204.507 48.144 206.043 48.144C207.579 48.144 208.998 47.4933 210.299 46.192L210.747 46.64C209.318 48.4533 207.601 49.7013 205.595 50.384C203.526 50.384 201.905 49.7333 200.731 48.432C199.558 47.1093 198.971 45.3387 198.971 43.12C198.971 40.88 199.665 38.7787 201.051 36.816C202.438 34.8533 204.209 33.5627 206.363 32.944C207.921 32.944 209.681 33.104 211.643 33.424L211.611 34.128C211.206 34.128 210.822 34.2027 210.459 34.352C210.054 35.312 209.787 36.4533 209.659 37.776H208.859C208.689 37.0507 208.603 36.304 208.603 35.536C207.793 35.1307 206.833 34.928 205.723 34.928C204.614 34.928 203.697 35.2267 202.971 35.824C202.246 37.1467 201.83 38.7253 201.723 40.56C202.619 40.7093 203.579 40.784 204.603 40.784C206.374 40.784 207.441 40.4107 207.803 39.664L208.475 39.76C208.283 40.4 208.187 41.0293 208.187 41.648C208.187 42.2667 208.262 43.024 208.411 43.92L207.643 44.048C207.409 43.408 207.238 42.7467 207.131 42.064C206.278 41.9787 205.425 41.936 204.571 41.936C203.739 41.936 202.79 41.9893 201.723 42.096ZM215.427 47.568C216.408 47.9733 217.379 48.176 218.339 48.176C219.299 48.176 220.067 47.952 220.643 47.504C221.219 47.056 221.507 46.416 221.507 45.584C221.507 44.7307 220.302 43.6747 217.891 42.416C216.974 41.9467 216.131 41.3813 215.363 40.72C214.616 40.0373 214.243 39.3653 214.243 38.704C214.243 37.5733 214.84 36.432 216.035 35.28C217.23 34.128 218.456 33.3493 219.715 32.944C221.294 32.944 222.723 33.104 224.003 33.424V34C223.107 34.896 222.606 36.1227 222.499 37.68H221.699C221.699 37.0827 221.646 36.336 221.539 35.44C220.792 35.0987 219.992 34.928 219.139 34.928C218.286 34.928 217.571 35.12 216.995 35.504C216.44 35.8667 216.163 36.4 216.163 37.104C216.163 37.5947 216.536 38.128 217.283 38.704C218.051 39.28 218.883 39.792 219.779 40.24C220.675 40.688 221.496 41.2427 222.243 41.904C223.011 42.5653 223.395 43.2267 223.395 43.888C223.395 45.168 222.83 46.448 221.699 47.728C220.568 48.9867 219.32 49.872 217.955 50.384C216.611 50.384 215.352 50.224 214.179 49.904C213.838 50.0533 213.486 50.2987 213.123 50.64L212.547 50.224C213.742 48.9227 214.403 47.312 214.531 45.392H215.331C215.331 46.1387 215.363 46.864 215.427 47.568ZM237.184 35.056C236.437 34.6933 235.722 34.512 235.04 34.512C234.357 34.512 233.898 34.5547 233.664 34.64C233.493 35.792 233.408 38.0213 233.408 41.328C233.408 44.6347 233.525 47.1733 233.76 48.944C234.72 49.0507 235.605 49.2107 236.416 49.424L236.32 50.224C235.21 50.0747 233.93 50 232.48 50C231.05 50 229.792 50.0853 228.704 50.256L228.576 49.424C229.002 49.296 229.738 49.136 230.784 48.944C230.976 47.408 231.072 45.232 231.072 42.416V40.912C231.072 39.4187 230.954 37.328 230.72 34.64C230.485 34.5547 230.048 34.512 229.408 34.512C228.768 34.512 228.085 34.6613 227.36 34.96C227.146 35.6213 226.997 36.5067 226.912 37.616H226.08C226.08 35.8667 225.792 34.512 225.216 33.552L225.376 33.008C227.018 33.2213 229.322 33.328 232.288 33.328C235.253 33.328 237.642 33.2107 239.456 32.976L239.648 33.584C239.114 34.1813 238.752 34.768 238.56 35.344C238.368 35.8987 238.25 36.656 238.208 37.616H237.408C237.258 36.912 237.184 36.0587 237.184 35.056Z" fill="#FAF9F6"/>
<path d="M170.782 84.0155C144.88 82.7779 107.833 97.1285 92.5464 104.458L112.879 130.979L189.568 106.779L191.446 101.475L174.65 83.5735L170.782 84.0155Z" fill="#B37B62"/>
<path d="M181.833 104.79C178.12 91.6181 171.667 85.5257 168.904 84.126L173.103 83.7945L184.485 92.5242L188.684 104.569L181.833 104.79Z" fill="#934F59"/>
<path d="M162.606 132.637L170.009 156.395V158.384L117.079 174.738L77.0769 167.335L76.5244 160.483L108.018 136.725L164.042 114.735L165.368 117.719C160.595 121.609 161.538 129.285 162.606 132.637Z" fill="#633C59"/>
<path d="M197.745 118.934C199.779 116.99 203.786 114.625 205.481 113.741L194.43 107.774L130.007 127.001L106.47 140.703L106.028 146.892C145.279 121.432 183.527 117.645 197.745 118.934Z" fill="#95515E"/>
<path d="M162.385 132.416C167.6 133.3 189.09 140.851 199.514 144.35C192.773 147.776 169.567 156.174 169.678 155.732C169.766 155.378 164.853 140.04 162.385 132.416Z" fill="#FCBC53"/>
<path d="M159.842 133.41L76.7446 165.345L110.006 176.396L146.803 166.671L183.6 148.991L159.842 133.41Z" fill="#F89839"/>
<path d="M184.154 151.288L174.651 135.952L162.274 132.305L169.716 156.395L184.154 151.288Z" fill="#D17657"/>
<path d="M73.0982 110.315C69.3854 114.47 70.0042 125.601 70.7777 130.648L106.249 142.692C158.495 113.343 194.172 111.162 205.48 113.741C196.861 89.4303 176.639 78.4905 173.103 77.3855C169.567 76.2805 159.511 77.717 157.522 79.5956C155.931 81.0984 154.907 83.721 154.539 84.8997C157.705 84.3719 166.64 84.0557 170.829 83.9074L170.893 83.9051C180.087 88.5905 186.437 99.5597 188.463 104.459C164.418 104.017 129.307 120.334 114.758 128.548C101.321 107.774 90.5208 102.433 86.8006 102.359C83.7802 103.28 76.8111 106.16 73.0982 110.315Z" fill="#FDBC56"/>
<path d="M79.2867 110.426C96.7903 105.564 108.754 127.701 112.548 139.377L106.47 142.471L70.778 130.648C68.6785 120.481 71.2201 110.978 73.7616 109.652C73.7616 111.951 77.4082 111.089 79.2867 110.426Z" fill="#D47654"/>
<path d="M82.1598 111.199C64.3026 122.515 70.9622 148.77 76.5242 160.483C85.5412 150.847 100.245 144.681 106.47 142.803C101.431 120.26 88.1638 112.341 82.1598 111.199Z" fill="#7D415A"/>
<path d="M79.8395 157.389C70.1153 123.266 81.5339 114.22 88.4587 113.962C99.0669 119.354 105.108 135.289 106.581 142.692C93.3208 146.671 83.0809 154.222 79.8395 157.389Z" fill="#95515E"/>
<path d="M70.5572 133.41C70.6456 129.078 76.1928 123.133 78.9554 120.702C73.2092 131.576 77.2242 149.543 79.9499 157.168C79.4195 157.61 77.4452 159.562 76.5243 160.483C70.0047 144.35 70.4467 138.825 70.5572 133.41Z" fill="#976B60"/>
<path d="M81.8288 127.001C75.9943 132.394 78.1455 149.507 79.9504 157.279C88.7021 150.207 98.6989 145.492 102.603 144.129C99.8408 133.742 89.122 120.26 81.8288 127.001Z" fill="#BA8E66"/>
<path d="M117.079 168.44C111.333 170.208 105.182 170.06 102.824 169.766L112.438 174.407L193.768 150.207L200.177 144.571L196.088 143.134C163.269 156.395 124.262 166.23 117.079 168.44Z" fill="#95515E"/>
<path d="M122.494 170.208C118.515 171.534 116.121 171.57 115.421 171.423L113.985 179.048L117.963 194.739C118.773 199.085 120.505 208.375 120.947 210.762C121.389 213.149 124.961 218.239 126.693 220.486C153.434 210.909 207.293 191.645 208.796 191.203C210.299 190.761 209.717 189.766 209.238 189.324C207.801 188.035 204.663 185.236 203.602 184.352C202.542 183.468 201.834 181.773 201.613 181.037C200.656 172.16 198.983 154.317 199.956 153.964C200.928 153.61 200.582 147.665 200.177 144.571C172.109 157.168 127.466 168.55 122.494 170.208Z" fill="#FEBD57"/>
<path d="M77.1877 165.014C76.7457 163.688 76.7456 161.699 76.5246 160.483V162.03V164.019C75.8174 164.019 75.4196 164.609 75.3091 164.903C74.8671 167.887 75.9721 171.423 76.5246 171.644C76.9666 171.821 77.2245 172.602 77.2982 172.97L78.8452 194.96C77.9612 196.581 75.9058 200.021 74.7566 200.817C73.6074 201.612 74.2778 202.327 74.7566 202.585L119.4 221.039C122.67 207.071 119.805 189.582 117.963 182.584C114.648 179.49 114.648 177.169 115.311 175.07C115.841 173.39 115.532 171.939 115.311 171.423C104.791 170.627 85.5122 166.819 77.1877 165.014Z" fill="#D07755"/>
<path d="M126.693 220.486C123.333 222.166 120.32 221.518 119.289 221.039C119.819 219.978 120.505 213.414 120.836 210.541C121.278 212.309 124.998 218.129 126.693 220.486Z" fill="#FFF088"/>
<path d="M193.768 156.616C183.955 161.478 144.373 174.996 125.809 181.147L128.35 208.11C131.444 207.137 175.093 191.792 196.53 184.241C196.795 179.821 194.799 163.983 193.768 156.616Z" fill="#AF8668"/>
<path d="M111.664 117.387C100.525 105.365 94.5726 103.759 92.9888 104.459L114.868 128.548L125.587 122.802C123.377 121.918 122.051 122.029 118.183 121.366C115.089 120.835 112.548 118.492 111.664 117.387Z" fill="#9A595F"/>
<path d="M77.6294 172.749C78.3968 172.983 80.3551 173.576 82.0495 174.075" stroke="#A45534" stroke-linecap="round"/>
<path d="M79.1763 194.85C79.9436 195.084 81.902 195.676 83.5964 196.176" stroke="#A45534" stroke-linecap="round"/>
<path d="M112.106 182.89C114.602 183.47 120.794 183.978 125.587 181.368" stroke="#A45534" stroke-linecap="round"/>
<path d="M114.095 207.889L120.905 210.541L128.24 207.889" stroke="#A45534" stroke-linecap="round"/>
<path d="M111.885 182.694C105.608 181.899 89.5999 176.543 82.3804 173.965C82.1152 174.76 83.3749 189.324 84.0379 196.507L113.874 208.11C113.432 206.784 112.363 190.614 111.885 182.694Z" fill="#774355"/>
<path d="M196.751 183.799L201.613 182.031" stroke="#A45534" stroke-linecap="round"/>
<path d="M194.099 156.837C195.078 156.415 197.509 155.339 199.403 154.406" stroke="#A45534" stroke-linecap="round"/>
<path d="M105.918 147.002C98.3155 147.444 83.0809 156.321 76.5244 160.483C84.9226 151.312 101.424 143.871 108.239 141.587C106.824 142.295 106.102 145.492 105.918 147.002Z" fill="#7D415A"/>
<path d="M173.214 82.2475C166.141 79.7722 165.11 77.901 165.478 77.2748C163.379 77.5327 158.517 78.3799 157.191 79.9269C155.766 81.5887 154.76 83.7945 154.539 84.8995C156.749 84.4575 166.51 84.0155 171.003 84.0155C180.993 89.408 186.032 99.4858 188.463 104.458C190.761 104.37 191.557 104.237 191.557 103.132C190.894 98.1598 182.054 85.3415 173.214 82.2475Z" fill="#D47650"/>
<path d="M130.228 213.193C129.875 211.955 134.059 210.099 136.195 209.325C138.737 208.515 143.908 207.248 144.262 208.662C144.703 210.426 140.414 211.97 137.651 212.965L137.632 212.972C134.869 213.967 130.67 214.74 130.228 213.193Z" fill="#FEF189"/>
<path d="M147.577 207.778C147.223 206.894 148.166 206.158 148.682 205.9C149.271 205.716 150.561 205.568 151.003 206.452C151.445 207.336 150.303 208.073 149.677 208.331C149.124 208.515 147.931 208.662 147.577 207.778Z" fill="#FEF189"/>
<path d="M184.374 193.966C183.137 192.905 188.5 190.872 191.336 189.987C193.878 189.103 199.071 187.711 199.513 189.214C199.955 190.717 195.572 192.345 193.325 192.971C190.857 193.745 185.612 195.026 184.374 193.966Z" fill="#FEF189"/>
<path d="M124.703 175.401C124.084 174.252 125.477 173.449 126.25 173.191C127.024 172.933 128.681 172.793 129.123 174.296C129.565 175.799 127.981 176.469 127.134 176.617C126.582 176.69 125.322 176.55 124.703 175.401Z" fill="#FEF189"/>
<path d="M131.886 173.191C130.825 171.246 136.379 169.287 139.289 168.55C141.352 167.961 145.654 167.047 146.362 168.108C147.069 169.169 142.899 171.202 140.726 172.086C138.221 173.265 132.947 175.136 131.886 173.191Z" fill="#FEF189"/>
<path d="M85.0326 105.674C87.1543 104.525 91.4418 106.816 93.3203 108.105C99.0665 112.702 98.7349 114.588 97.8509 114.956C97.4826 115.067 96.4586 114.978 95.3093 113.741C93.8728 112.194 89.7842 109.542 86.5797 108.105C84.016 106.956 84.4801 106.006 85.0326 105.674Z" fill="#FEF189"/>
<path d="M103.155 121.476C101.741 121.034 100.429 119.524 99.9504 118.824C99.0664 117.498 100.282 116.614 101.387 117.166C102.271 117.608 103.155 118.898 103.487 119.487C103.965 120.334 104.569 121.918 103.155 121.476Z" fill="#FEF189"/>
<path d="M112.216 135.399C111.421 134.338 116.084 131.421 118.515 130.095C122.382 127.702 125.808 126.67 126.471 127.333C127.001 127.863 122.788 130.648 120.614 131.974C118.147 133.558 113.012 136.46 112.216 135.399Z" fill="#FEF189"/>
<path d="M166.583 113.409C166.937 112.879 169.014 111.936 170.009 111.531C171.556 110.841 173.324 112.415 171.667 113.188C170.341 113.807 168.094 114.035 167.136 114.072C166.804 114.072 166.23 113.94 166.583 113.409Z" fill="#FEF189"/>
<path d="M174.761 110.757C174.672 109.254 179.733 108.068 182.275 107.663C185.59 106.957 190.12 107 190.452 108.216C190.717 109.188 185.7 110.463 183.159 110.978C180.396 111.531 174.849 112.26 174.761 110.757Z" fill="#FEF189"/>
<path d="M185.59 92.4138C183.91 90.8226 184.006 90.0564 184.264 89.8723C186.584 87.5517 195.646 100.37 196.751 103.243C197.856 106.116 195.646 104.68 194.872 103.243C194.099 101.807 187.689 94.4029 185.59 92.4138Z" fill="#FEF189"/>
<path d="M138.295 132.305L132.881 136.394L135.864 138.051L140.837 137.348L144.152 136.175L138.295 132.305Z" fill="#C495C9"/>
<circle cx="179.954" cy="140.703" r="1.54703" fill="#E6EFE5"/>
<path d="M180.311 140.556C180.231 140.398 180.073 140.033 180.073 139.842C180.168 139.462 180.509 139.684 180.668 139.842C180.866 140.041 181.191 140.485 180.906 140.675C180.62 140.866 180.39 140.675 180.311 140.556Z" fill="#F3F5EC"/>
<circle cx="182.385" cy="138.935" r="1.54703" fill="#E6EFE5"/>
<path d="M182.742 138.789C182.663 138.63 182.504 138.265 182.504 138.075C182.599 137.694 182.94 137.916 183.099 138.075C183.297 138.273 183.623 138.717 183.337 138.908C183.051 139.098 182.821 138.908 182.742 138.789Z" fill="#F3F5EC"/>
<circle cx="185.037" cy="137.388" r="1.54703" fill="#E6EFE5"/>
<path d="M185.395 137.242C185.315 137.083 185.157 136.718 185.157 136.528C185.252 136.147 185.593 136.369 185.752 136.528C185.95 136.726 186.275 137.17 185.99 137.361C185.704 137.551 185.474 137.361 185.395 137.242Z" fill="#F3F5EC"/>
<circle cx="202.276" cy="156.837" r="1.54703" fill="#E6EFE5"/>
<path d="M202.634 156.69C202.554 156.531 202.396 156.166 202.396 155.976C202.491 155.595 202.832 155.817 202.991 155.976C203.189 156.174 203.514 156.619 203.229 156.809C202.943 156.999 202.713 156.809 202.634 156.69Z" fill="#F3F5EC"/>
<circle cx="202.939" cy="159.71" r="1.54703" fill="#E6EFE5"/>
<path d="M203.297 159.563C203.217 159.404 203.059 159.039 203.059 158.849C203.154 158.468 203.495 158.69 203.654 158.849C203.852 159.047 204.177 159.492 203.892 159.682C203.606 159.872 203.376 159.682 203.297 159.563Z" fill="#F3F5EC"/>
<circle cx="204.265" cy="162.362" r="1.54703" fill="#E6EFE5"/>
<path d="M204.622 162.215C204.542 162.056 204.384 161.691 204.384 161.501C204.479 161.12 204.82 161.342 204.979 161.501C205.177 161.699 205.502 162.144 205.217 162.334C204.931 162.524 204.701 162.334 204.622 162.215Z" fill="#F3F5EC"/>
<circle cx="206.033" cy="164.793" r="1.54703" fill="#E6EFE5"/>
<path d="M206.389 164.646C206.31 164.488 206.151 164.123 206.151 163.932C206.246 163.552 206.587 163.774 206.746 163.932C206.944 164.131 207.27 164.575 206.984 164.765C206.698 164.956 206.468 164.765 206.389 164.646Z" fill="#F3F5EC"/>
<circle cx="208.244" cy="166.782" r="1.54703" fill="#E6EFE5"/>
<path d="M208.6 166.635C208.521 166.477 208.362 166.112 208.362 165.921C208.458 165.54 208.799 165.763 208.957 165.921C209.156 166.12 209.481 166.564 209.195 166.754C208.91 166.945 208.68 166.754 208.6 166.635Z" fill="#F3F5EC"/>
<circle cx="210.896" cy="168.108" r="1.54703" fill="#E6EFE5"/>
<path d="M211.252 167.961C211.173 167.803 211.014 167.438 211.014 167.247C211.109 166.866 211.451 167.089 211.609 167.247C211.808 167.446 212.133 167.89 211.847 168.08C211.562 168.271 211.332 168.08 211.252 167.961Z" fill="#F3F5EC"/>
<circle cx="187.689" cy="135.841" r="1.54703" fill="#E6EFE5"/>
<path d="M188.047 135.694C187.968 135.536 187.809 135.171 187.809 134.98C187.904 134.6 188.245 134.822 188.404 134.98C188.602 135.179 188.928 135.623 188.642 135.813C188.356 136.004 188.126 135.813 188.047 135.694Z" fill="#F3F5EC"/>
<circle cx="190.563" cy="135.399" r="1.54703" fill="#E6EFE5"/>
<path d="M190.92 135.252C190.84 135.094 190.682 134.729 190.682 134.538C190.777 134.158 191.118 134.38 191.277 134.538C191.475 134.737 191.8 135.181 191.515 135.371C191.229 135.562 190.999 135.371 190.92 135.252Z" fill="#F3F5EC"/>
<path d="M140.946 137.388L140.173 142.029C138.67 142.206 137.336 142.766 136.858 143.024L135.974 138.051L140.946 137.388Z" fill="#A77EB6"/>
<path d="M169.498 143.795C167.013 143.878 166.009 141.835 165.817 140.804L179.737 136.987C180.473 138.473 180.12 139.532 179.852 139.875C179.622 140.15 178.908 140.886 177.896 141.629C176.631 142.557 172.604 143.692 169.498 143.795Z" fill="#DD852B"/>
<path d="M165.817 140.598C165.633 138.7 169.575 136.85 171.569 136.162C173.601 135.543 178.011 134.718 179.391 136.369C181.117 138.431 176.515 140.494 174.56 141.32C172.604 142.145 166.047 142.97 165.817 140.598Z" fill="#FBBB51"/>
<path d="M166.513 140.343C166.349 138.779 169.857 137.254 171.632 136.688C173.441 136.178 177.365 135.498 178.594 136.858C180.129 138.558 176.034 140.258 174.294 140.938C172.553 141.618 166.718 142.298 166.513 140.343Z" stroke="#EDB057"/>
<path d="M170.418 137.09C172.949 136.231 178.195 135.11 178.931 137.503C178.701 136.987 176.677 136.183 170.418 137.09Z" fill="#EFEDBD"/>
<path d="M95.5303 155.842L89.7842 156.726L94.2043 158.494L96.3038 161.588C96.569 160.97 97.2247 160.446 97.5194 160.262L95.5303 155.842Z" fill="#F1FFFF"/>
<path d="M88.4585 162.362L89.5635 156.837L94.2046 158.494L96.3042 161.588C96.039 162.296 96.12 162.767 96.1937 162.914C94.956 163.268 93.5416 164.535 92.9891 165.124L88.4585 162.362Z" fill="#E3F7F8"/>
<path d="M88.4585 162.362L91.2211 161.699L89.674 156.837L94.2046 158.494L95.5307 155.842" stroke="#C8CDD1" stroke-width="0.5"/>
<path d="M94.2052 164.13L91.2217 161.699L94.2052 158.494L96.3048 161.588" stroke="#C8CDD1" stroke-width="0.5"/>
<path d="M108.634 163.064C109.272 164.688 107.15 166.126 106.009 166.643L98.5883 158.81C100.13 157.761 101.422 157.597 101.875 157.646C102.24 157.696 103.24 157.893 104.313 158.288C105.654 158.781 107.836 161.035 108.634 163.064Z" fill="#DD852B"/>
<path d="M105.774 166.72C103.638 167.558 100.655 165.629 99.43 164.56C98.2758 163.44 96.365 160.814 97.9553 159.273C99.9432 157.347 103.315 159.634 104.689 160.626C106.063 161.617 108.444 165.673 105.774 166.72Z" fill="#FBBB51"/>
<path d="M105.329 166.353C103.572 167.051 101.056 165.289 100.018 164.32C99.0378 163.308 97.3996 160.951 98.6903 159.62C100.304 157.957 103.149 160.044 104.31 160.947C105.47 161.85 107.526 165.48 105.329 166.353Z" stroke="#EDB057"/>
<path d="M104.367 161.086C102.766 159.749 99.3089 157.764 98.2877 160.516C98.5581 159.932 100.152 159.228 104.367 161.086Z" fill="#EFEDBD"/>
<path d="M169.223 141.292C169.095 143.278 166.212 143.735 164.786 143.715L160.927 132.034C163.025 131.697 164.435 132.153 164.878 132.424C165.231 132.652 166.166 133.34 167.081 134.267C168.225 135.426 169.383 138.81 169.223 141.292Z" fill="#DD852B"/>
<path d="M164.505 143.681C161.898 143.511 159.756 140.075 159.01 138.378C158.363 136.662 157.664 133.026 160.049 132.205C163.031 131.179 165.4 135.174 166.336 136.863C167.273 138.553 167.764 143.893 164.505 143.681Z" fill="#FBBB51"/>
<path d="M164.224 143.086C162.074 142.956 160.334 139.918 159.733 138.416C159.212 136.896 158.664 133.668 160.639 132.92C163.107 131.984 165.03 135.517 165.789 137.011C166.549 138.506 166.911 143.249 164.224 143.086Z" stroke="#EDB057"/>
<path d="M165.781 137.182C164.777 135.026 162.175 131.302 159.79 133.65C160.351 133.177 162.336 133.222 165.781 137.182Z" fill="#EFEDBD"/>
<path d="M154.203 140.553C154.803 142.19 153.059 143.475 152.113 143.912L145.542 135.747C146.809 134.809 147.896 134.727 148.282 134.803C148.593 134.875 149.447 135.131 150.369 135.586C151.523 136.154 153.453 138.506 154.203 140.553Z" fill="#DD852B"/>
<path d="M151.915 143.974C150.137 144.666 147.541 142.585 146.465 141.457C145.447 140.283 143.733 137.581 145.022 136.163C146.634 134.39 149.573 136.849 150.772 137.91C151.972 138.97 154.136 143.109 151.915 143.974Z" fill="#FBBB51"/>
<path d="M151.525 143.585C150.063 144.164 147.869 142.275 146.955 141.258C146.088 140.201 144.614 137.78 145.658 136.55C146.963 135.013 149.448 137.242 150.463 138.203C151.479 139.163 153.353 142.862 151.525 143.585Z" stroke="#EDB057"/>
<path d="M150.516 138.342C149.112 136.928 146.113 134.762 145.35 137.407C145.557 136.849 146.881 136.254 150.516 138.342Z" fill="#EFEDBD"/>
<path d="M171.004 139.93L172.109 144.24C173.258 143.798 175.461 143.54 176.419 143.466L177.855 139.93L174.208 137.499L171.004 139.93Z" fill="#EF3356"/>
<path d="M172.109 144.24L171.004 139.93L174.208 137.499L177.855 139.93L176.419 143.466" stroke="#AD2062" stroke-width="0.5"/>
<path d="M171.115 139.93L172.662 140.924L174.209 137.609L175.977 140.593L177.745 140.04" stroke="#AD2062" stroke-width="0.5"/>
<path d="M173.103 143.908L172.661 140.924L175.976 140.593L175.313 143.577" stroke="#AD2062" stroke-width="0.5"/>
<circle cx="158.737" cy="156.837" r="1.54703" fill="#E6EFE5"/>
<path d="M159.094 156.69C159.015 156.531 158.856 156.166 158.856 155.976C158.952 155.595 159.293 155.817 159.451 155.976C159.65 156.174 159.975 156.619 159.689 156.809C159.404 156.999 159.174 156.809 159.094 156.69Z" fill="#F3F5EC"/>
<path d="M129.889 149.796C127.867 150.912 126.086 149.456 125.448 148.588L135.219 139.253C136.519 140.31 136.718 141.431 136.655 141.859C136.592 142.208 136.342 143.183 135.847 144.289C135.229 145.672 132.417 148.401 129.889 149.796Z" fill="#DD852B"/>
<path d="M125.353 148.399C124.32 146.731 126.73 143.381 128.064 141.914C129.462 140.494 132.736 137.89 134.646 138.828C137.034 140.002 134.176 143.825 132.938 145.402C131.699 146.979 126.645 150.483 125.353 148.399Z" fill="#FBBB51"/>
<path d="M125.812 147.873C124.95 146.504 127.152 143.634 128.36 142.371C129.623 141.145 132.562 138.876 134.212 139.612C136.274 140.532 133.667 143.809 132.54 145.163C131.412 146.516 126.889 149.585 125.812 147.873Z" stroke="#EDB057"/>
<path d="M127.541 143.249C129.241 141.399 133.07 138.173 134.791 140.064C134.361 139.686 132.309 139.794 127.541 143.249Z" fill="#EFEDBD"/>
<path d="M147.958 158.985C146.221 158.061 146.621 155.818 147.038 154.812L158.551 156.967C158.264 158.6 157.461 159.412 157.096 159.614C156.793 159.77 155.916 160.146 154.832 160.408C153.477 160.736 150.13 160.14 147.958 158.985Z" fill="#DD852B"/>
<path d="M147.148 154.626C148.03 152.842 151.699 152.76 153.423 152.942C155.137 153.201 158.58 154.229 158.645 156.271C158.725 158.822 154.494 158.831 152.723 158.789C150.952 158.746 146.045 156.855 147.148 154.626Z" fill="#FBBB51"/>
<path d="M147.756 154.676C148.475 153.201 151.676 153.238 153.186 153.44C154.69 153.708 157.725 154.672 157.841 156.391C157.985 158.539 154.291 158.425 152.744 158.338C151.196 158.251 146.858 156.519 147.756 154.676Z" stroke="#EDB057"/>
<path d="M152.145 153.316C154.327 153.558 158.497 154.656 157.728 157.108C157.845 156.551 156.893 155.013 152.145 153.316Z" fill="#EFEDBD"/>
<path d="M169.719 152.856C167.234 152.949 166.229 150.638 166.038 149.471L179.957 145.152C180.694 146.833 180.341 148.031 180.072 148.421C179.842 148.732 179.129 149.564 178.117 150.405C176.851 151.455 172.825 152.739 169.719 152.856Z" fill="#DD852B"/>
<path d="M166.037 149.238C165.853 147.09 169.795 144.997 171.789 144.219C173.822 143.518 178.232 142.585 179.612 144.452C181.338 146.787 176.736 149.121 174.78 150.055C172.825 150.988 166.268 151.922 166.037 149.238Z" fill="#FBBB51"/>
<path d="M166.734 148.95C166.57 147.18 170.078 145.455 171.853 144.813C173.662 144.236 177.586 143.467 178.815 145.006C180.35 146.93 176.255 148.853 174.515 149.623C172.774 150.392 166.939 151.162 166.734 148.95Z" stroke="#EDB057"/>
<path d="M170.64 145.269C173.171 144.296 178.416 143.028 179.153 145.736C178.923 145.152 176.898 144.242 170.64 145.269Z" fill="#EFEDBD"/>
<path d="M182.797 145.121C180.732 145.191 179.898 143.471 179.738 142.602L191.302 139.389C191.914 140.639 191.621 141.531 191.398 141.821C191.207 142.052 190.614 142.672 189.773 143.297C188.722 144.079 185.377 145.035 182.797 145.121Z" fill="#DD852B"/>
<path d="M179.738 142.429C179.585 140.83 182.86 139.273 184.517 138.694C186.205 138.173 189.869 137.478 191.015 138.867C192.449 140.605 188.626 142.342 187.001 143.037C185.377 143.732 179.929 144.427 179.738 142.429Z" fill="#FBBB51"/>
<path d="M180.317 142.214C180.181 140.897 183.095 139.614 184.569 139.136C186.072 138.707 189.332 138.134 190.353 139.279C191.629 140.711 188.227 142.143 186.781 142.716C185.335 143.288 180.487 143.861 180.317 142.214Z" stroke="#EDB057"/>
<path d="M183.561 139.476C185.663 138.752 190.021 137.808 190.633 139.823C190.442 139.389 188.76 138.711 183.561 139.476Z" fill="#EFEDBD"/>
<circle cx="117.189" cy="169.434" r="1.54703" fill="#E6EFE5"/>
<path d="M117.545 169.287C117.466 169.129 117.307 168.764 117.307 168.573C117.402 168.192 117.743 168.415 117.902 168.573C118.1 168.772 118.426 169.216 118.14 169.406C117.855 169.597 117.624 169.406 117.545 169.287Z" fill="#F3F5EC"/>
<path d="M135.974 138.051L132.991 136.394L135.311 144.24C135.842 143.532 136.564 143.135 136.858 143.024L135.974 138.051Z" fill="#9F66AB"/>
<path d="M144.262 136.283L140.947 137.388L140.173 142.03C140.792 141.941 141.757 141.993 142.162 142.03L144.262 136.283Z" fill="#9F66AB"/>
<path d="M132.991 136.394L135.974 138.051L138.295 132.526L140.947 137.388L144.151 136.283" stroke="#904F9F" stroke-width="0.5"/>
<path d="M136.858 143.024C136.769 142.847 136.231 139.635 135.974 138.051L140.946 137.388L140.173 142.029" stroke="#904F9F" stroke-width="0.5"/>
<path d="M135.311 144.239L132.991 136.394L138.295 132.416L144.262 136.283L142.162 142.029" stroke="#904F9F" stroke-width="0.5"/>
<path d="M136.577 157.461C134.209 157.77 133.045 155.681 132.759 154.598L145.694 149.288C146.545 150.806 146.313 151.967 146.09 152.358C145.898 152.672 145.289 153.52 144.394 154.403C143.276 155.506 139.538 157.075 136.577 157.461Z" fill="#DD852B"/>
<path d="M132.74 154.378C132.375 152.37 135.962 150.046 137.8 149.135C139.683 148.294 143.818 147.021 145.303 148.658C147.158 150.705 142.962 153.315 141.173 154.37C139.385 155.424 133.195 156.888 132.74 154.378Z" fill="#FBBB51"/>
<path d="M133.379 154.045C133.067 152.391 136.271 150.452 137.912 149.69C139.591 148.985 143.277 147.91 144.587 149.251C146.225 150.928 142.477 153.106 140.88 153.987C139.283 154.867 133.769 156.112 133.379 154.045Z" stroke="#EDB057"/>
<path d="M136.792 150.227C139.128 149.085 144.034 147.422 144.975 149.909C144.704 149.38 142.688 148.702 136.792 150.227Z" fill="#EFEDBD"/>
<path d="M112.399 154.2C110.401 153.885 109.927 152.036 109.939 151.152L121.669 150.14C122.019 151.485 121.567 152.308 121.298 152.551C121.07 152.744 120.382 153.244 119.454 153.703C118.295 154.277 114.897 154.595 112.399 154.2Z" fill="#DD852B"/>
<path d="M109.971 150.98C110.129 149.379 113.574 148.455 115.277 148.193C117 147.994 120.654 147.992 121.492 149.573C122.539 151.55 118.533 152.549 116.838 152.93C115.144 153.312 109.774 152.983 109.971 150.98Z" fill="#FBBB51"/>
<path d="M110.57 150.877C110.69 149.555 113.736 148.834 115.245 148.638C116.771 148.495 120.015 148.538 120.778 149.856C121.731 151.502 118.188 152.279 116.689 152.573C115.189 152.868 110.419 152.53 110.57 150.877Z" stroke="#EDB057"/>
<path d="M114.21 148.785C116.369 148.464 120.739 148.345 120.943 150.443C120.842 149.98 119.354 149 114.21 148.785Z" fill="#EFEDBD"/>
<path d="M135.259 151.765C133.011 152.295 131.684 150.386 131.301 149.365L143.218 142.962C144.189 144.349 144.08 145.496 143.905 145.896C143.751 146.219 143.249 147.1 142.476 148.041C141.51 149.218 138.069 151.102 135.259 151.765Z" fill="#DD852B"/>
<path d="M131.261 149.154C130.71 147.246 133.93 144.645 135.609 143.584C137.337 142.586 141.189 140.95 142.78 142.391C144.768 144.192 140.99 147.128 139.374 148.323C137.758 149.519 131.948 151.54 131.261 149.154Z" fill="#FBBB51"/>
<path d="M131.842 148.769C131.378 147.198 134.268 145.009 135.771 144.11C137.317 143.264 140.756 141.864 142.15 143.035C143.892 144.498 140.503 146.973 139.053 147.981C137.604 148.989 132.423 150.732 131.842 148.769Z" stroke="#EDB057"/>
<path d="M134.748 144.74C136.881 143.406 141.436 141.318 142.589 143.634C142.275 143.148 140.268 142.688 134.748 144.74Z" fill="#EFEDBD"/>
<path d="M124.036 153.426C121.728 153.335 120.931 151.416 120.82 150.468L133.966 147.934C134.551 149.33 134.155 150.267 133.884 150.561C133.653 150.795 132.944 151.415 131.958 152.021C130.725 152.778 126.92 153.539 124.036 153.426Z" fill="#DD852B"/>
<path d="M120.834 150.28C120.787 148.547 124.56 147.132 126.452 146.641C128.375 146.215 132.515 145.761 133.686 147.349C135.15 149.335 130.753 150.9 128.887 151.518C127.021 152.136 120.892 152.447 120.834 150.28Z" fill="#FBBB51"/>
<path d="M121.495 150.096C121.445 148.666 124.795 147.518 126.476 147.122C128.185 146.78 131.866 146.424 132.915 147.74C134.227 149.384 130.322 150.653 128.665 151.154C127.008 151.655 121.557 151.883 121.495 150.096Z" stroke="#EDB057"/>
<path d="M125.326 147.406C127.727 146.795 132.66 146.128 133.186 148.348C133.007 147.865 131.183 147 125.326 147.406Z" fill="#EFEDBD"/>
<path d="M150.667 145.07C148.266 144.978 147.44 142.931 147.327 141.919L161.01 139.189C161.616 140.678 161.203 141.679 160.92 141.993C160.679 142.243 159.94 142.906 158.913 143.555C157.628 144.366 153.668 145.185 150.667 145.07Z" fill="#DD852B"/>
<path d="M147.341 141.719C147.296 139.869 151.225 138.352 153.195 137.824C155.197 137.366 159.505 136.873 160.721 138.566C162.241 140.683 157.661 142.361 155.719 143.024C153.776 143.688 147.398 144.032 147.341 141.719Z" fill="#FBBB51"/>
<path d="M148.03 141.521C147.981 139.996 151.469 138.763 153.219 138.337C154.998 137.969 158.828 137.583 159.918 138.985C161.28 140.737 157.214 142.099 155.489 142.637C153.764 143.174 148.092 143.428 148.03 141.521Z" stroke="#EDB057"/>
<path d="M152.021 138.643C154.52 137.986 159.655 137.265 160.198 139.633C160.012 139.117 158.116 138.198 152.021 138.643Z" fill="#EFEDBD"/>
<path d="M156.66 147.945C154.317 147.41 153.894 145.21 153.976 144.176L167.946 143.964C168.259 145.566 167.661 146.491 167.324 146.753C167.039 146.96 166.187 147.487 165.053 147.947C163.637 148.522 159.588 148.613 156.66 147.945Z" fill="#DD852B"/>
<path d="M154.027 143.979C154.335 142.119 158.486 141.323 160.522 141.158C162.578 141.068 166.907 141.368 167.779 143.287C168.871 145.685 164.05 146.522 162.014 146.828C159.978 147.134 153.643 146.304 154.027 143.979Z" fill="#FBBB51"/>
<path d="M154.742 143.907C154.984 142.371 158.647 141.78 160.448 141.676C162.267 141.635 166.106 141.953 166.91 143.557C167.915 145.562 163.659 146.177 161.861 146.397C160.063 146.618 154.439 145.827 154.742 143.907Z" stroke="#EDB057"/>
<path d="M159.212 141.762C161.794 141.565 166.979 141.788 167.062 144.258C166.977 143.708 165.289 142.439 159.212 141.762Z" fill="#EFEDBD"/>
<path d="M149.706 152.769C147.601 152.846 146.753 150.841 146.593 149.829L158.39 146.105C159.011 147.564 158.71 148.602 158.482 148.939C158.287 149.209 157.682 149.93 156.823 150.657C155.749 151.566 152.337 152.673 149.706 152.769Z" fill="#DD852B"/>
<path d="M146.594 149.626C146.441 147.764 149.783 145.955 151.474 145.284C153.196 144.679 156.933 143.877 158.099 145.498C159.557 147.525 155.656 149.542 153.998 150.348C152.34 151.155 146.784 151.954 146.594 149.626Z" fill="#FBBB51"/>
<path d="M147.183 149.378C147.047 147.843 150.021 146.353 151.525 145.799C153.058 145.302 156.383 144.64 157.422 145.977C158.719 147.647 155.248 149.309 153.772 149.973C152.297 150.638 147.353 151.296 147.183 149.378Z" stroke="#EDB057"/>
<path d="M150.498 146.192C152.643 145.353 157.088 144.261 157.708 146.61C157.514 146.104 155.8 145.311 150.498 146.192Z" fill="#EFEDBD"/>
<path d="M106.701 159.763C104.679 159.69 103.985 157.913 103.891 157.033L115.413 154.613C115.922 155.906 115.573 156.778 115.335 157.052C115.132 157.271 114.51 157.85 113.644 158.417C112.562 159.127 109.228 159.853 106.701 159.763Z" fill="#DD852B"/>
<path d="M103.903 156.859C103.866 155.25 107.174 153.917 108.833 153.452C110.519 153.047 114.147 152.603 115.169 154.072C116.447 155.908 112.591 157.383 110.955 157.967C109.319 158.55 103.949 158.871 103.903 156.859Z" fill="#FBBB51"/>
<path d="M104.483 156.685C104.443 155.358 107.38 154.274 108.854 153.898C110.352 153.572 113.577 153.223 114.493 154.439C115.639 155.958 112.215 157.157 110.762 157.63C109.309 158.103 104.534 158.343 104.483 156.685Z" stroke="#EDB057"/>
<path d="M107.844 154.168C109.949 153.589 114.273 152.944 114.728 155.002C114.572 154.554 112.977 153.761 107.844 154.168Z" fill="#EFEDBD"/>
<path d="M89.5635 156.726L88.4585 162.362L92.9891 165.124" stroke="#C8CDD1" stroke-width="0.5"/>
<path d="M89.563 156.726L95.5301 155.842L97.7402 160.041" stroke="#C7CAD3" stroke-width="0.5"/>
<path d="M139.165 147.56C137.287 146.899 137.197 144.931 137.386 144.029L148.991 144.984C149.06 146.417 148.456 147.182 148.145 147.385C147.885 147.543 147.116 147.936 146.122 148.248C144.879 148.638 141.513 148.387 139.165 147.56Z" fill="#DD852B"/>
<path d="M137.453 143.86C137.928 142.251 141.462 141.891 143.17 141.912C144.884 142.001 148.436 142.619 148.933 144.376C149.553 146.573 145.459 146.913 143.735 147.016C142.012 147.119 136.859 145.872 137.453 143.86Z" fill="#FBBB51"/>
<path d="M138.054 143.856C138.436 142.526 141.542 142.305 143.047 142.361C144.56 142.474 147.704 143.068 148.181 144.543C148.777 146.386 145.177 146.578 143.66 146.625C142.144 146.672 137.576 145.518 138.054 143.856Z" stroke="#EDB057"/>
<path d="M142.013 142.336C144.177 142.374 148.448 142.994 148.224 145.171C148.219 144.681 146.97 143.427 142.013 142.336Z" fill="#EFEDBD"/>
<path d="M118.625 154.295L115.973 155.511L116.526 150.207L121.719 148.549L120.835 151.312L118.625 154.295Z" fill="#C495C9"/>
<path d="M121.719 148.549L120.835 151.312L122.935 153.632C123.377 153.19 123.709 152.969 124.151 152.859L121.719 148.549Z" fill="#9F66AB"/>
<path d="M118.736 154.295L116.084 155.511L120.394 157.279C120.504 156.616 120.504 156.505 120.836 155.953L118.736 154.295Z" fill="#9F66AB"/>
<path d="M120.393 157.279L115.973 155.511L116.526 150.096L121.719 148.438L124.15 152.859" stroke="#904F9F" stroke-width="0.5"/>
<path d="M120.836 155.953L118.625 154.295L120.836 151.312L122.935 153.632C122.316 154.163 121.278 155.4 120.836 155.953Z" fill="#A77EB6"/>
<path d="M115.973 155.511L118.625 154.295L116.636 150.207L120.835 151.312L121.719 148.549" stroke="#904F9F" stroke-width="0.5"/>
<path d="M120.836 155.953L118.625 154.295L120.836 151.312L122.935 153.632" stroke="#904F9F" stroke-width="0.5"/>
<path d="M163.047 150.206L162.605 153.853C161.103 154.03 160.138 154.295 159.843 154.406L157.964 150.096L161.058 147.112L163.047 150.206Z" fill="#E3F7F8"/>
<path d="M163.711 153.853H162.606L163.048 150.206L161.059 147.112L165.037 149.433L163.711 153.853Z" fill="#F1FFFF"/>
<path d="M157.964 150.096L160.064 150.759L161.058 147.223L163.047 150.317L165.037 149.433" stroke="#C8CDD1" stroke-width="0.5"/>
<path d="M160.947 154.074L160.063 150.759L163.047 150.317L162.605 153.853" stroke="#C8CDD1" stroke-width="0.5"/>
<path d="M159.843 154.406L157.964 150.096L161.058 147.112L165.037 149.433L163.71 153.853" stroke="#C8CDD1" stroke-width="0.5"/>
<circle cx="136.748" cy="179.932" r="1.43653" fill="#E6EFE5"/>
<path d="M137.08 179.795C137.006 179.648 136.859 179.309 136.859 179.132C136.947 178.779 137.264 178.985 137.411 179.132C137.596 179.317 137.898 179.729 137.632 179.906C137.367 180.083 137.154 179.906 137.08 179.795Z" fill="#F3F5EC"/>
<circle cx="134.98" cy="177.722" r="1.43653" fill="#E6EFE5"/>
<path d="M135.311 177.586C135.238 177.438 135.09 177.099 135.09 176.923C135.179 176.569 135.496 176.775 135.643 176.923C135.827 177.107 136.129 177.519 135.864 177.696C135.599 177.873 135.385 177.696 135.311 177.586Z" fill="#F3F5EC"/>
<circle cx="151.113" cy="188.993" r="1.43653" fill="#E6EFE5"/>
<path d="M151.446 188.857C151.372 188.709 151.225 188.371 151.225 188.194C151.313 187.84 151.63 188.046 151.777 188.194C151.961 188.378 152.263 188.79 151.998 188.967C151.733 189.144 151.519 188.967 151.446 188.857Z" fill="#F3F5EC"/>
<circle cx="153.765" cy="188.33" r="1.43653" fill="#E6EFE5"/>
<path d="M154.097 188.194C154.024 188.046 153.876 187.707 153.876 187.531C153.965 187.177 154.282 187.383 154.429 187.531C154.613 187.715 154.915 188.127 154.65 188.304C154.385 188.481 154.171 188.304 154.097 188.194Z" fill="#F3F5EC"/>
<circle cx="133.322" cy="175.18" r="1.54703" fill="#E6EFE5"/>
<path d="M133.679 175.033C133.6 174.875 133.441 174.51 133.441 174.319C133.536 173.938 133.877 174.161 134.036 174.319C134.234 174.518 134.56 174.962 134.274 175.152C133.988 175.343 133.758 175.152 133.679 175.033Z" fill="#F3F5EC"/>
<circle cx="131.112" cy="172.97" r="1.54703" fill="#E6EFE5"/>
<path d="M131.469 172.823C131.39 172.665 131.231 172.3 131.231 172.109C131.327 171.728 131.668 171.951 131.826 172.109C132.025 172.308 132.35 172.752 132.064 172.942C131.779 173.133 131.549 172.942 131.469 172.823Z" fill="#F3F5EC"/>
<circle cx="128.903" cy="170.981" r="1.54703" fill="#E6EFE5"/>
<path d="M129.259 170.834C129.18 170.676 129.021 170.311 129.021 170.12C129.116 169.739 129.457 169.962 129.616 170.12C129.814 170.319 130.14 170.763 129.854 170.953C129.568 171.144 129.338 170.953 129.259 170.834Z" fill="#F3F5EC"/>
<circle cx="126.251" cy="169.655" r="1.54703" fill="#E6EFE5"/>
<path d="M126.607 169.508C126.527 169.35 126.369 168.985 126.369 168.794C126.464 168.413 126.805 168.636 126.964 168.794C127.162 168.993 127.487 169.437 127.202 169.627C126.916 169.818 126.686 169.627 126.607 169.508Z" fill="#F3F5EC"/>
<circle cx="156.307" cy="187.114" r="1.54703" fill="#E6EFE5"/>
<path d="M156.664 186.968C156.584 186.809 156.426 186.444 156.426 186.254C156.521 185.873 156.862 186.095 157.021 186.254C157.219 186.452 157.544 186.896 157.259 187.087C156.973 187.277 156.743 187.087 156.664 186.968Z" fill="#F3F5EC"/>
<circle cx="158.959" cy="185.568" r="1.54703" fill="#E6EFE5"/>
<path d="M159.316 185.421C159.236 185.262 159.078 184.897 159.078 184.707C159.173 184.326 159.514 184.548 159.673 184.707C159.871 184.905 160.196 185.349 159.911 185.54C159.625 185.73 159.395 185.54 159.316 185.421Z" fill="#F3F5EC"/>
<circle cx="161.169" cy="183.578" r="1.54703" fill="#E6EFE5"/>
<path d="M161.526 183.432C161.446 183.273 161.288 182.908 161.288 182.717C161.383 182.337 161.724 182.559 161.883 182.717C162.081 182.916 162.406 183.36 162.121 183.551C161.835 183.741 161.605 183.551 161.526 183.432Z" fill="#F3F5EC"/>
<circle cx="163.379" cy="181.589" r="1.54703" fill="#E6EFE5"/>
<path d="M163.736 181.443C163.657 181.284 163.498 180.919 163.498 180.729C163.593 180.348 163.934 180.57 164.093 180.729C164.291 180.927 164.617 181.371 164.331 181.562C164.045 181.752 163.815 181.562 163.736 181.443Z" fill="#F3F5EC"/>
<circle cx="164.705" cy="178.937" r="1.54703" fill="#E6EFE5"/>
<path d="M165.062 178.79C164.982 178.632 164.824 178.267 164.824 178.076C164.919 177.696 165.26 177.918 165.419 178.076C165.617 178.275 165.942 178.719 165.657 178.909C165.371 179.1 165.141 178.909 165.062 178.79Z" fill="#F3F5EC"/>
<circle cx="165.146" cy="176.064" r="1.54703" fill="#E6EFE5"/>
<path d="M165.503 175.917C165.424 175.759 165.265 175.394 165.265 175.203C165.36 174.822 165.701 175.045 165.86 175.203C166.058 175.402 166.384 175.846 166.098 176.036C165.813 176.227 165.582 176.036 165.503 175.917Z" fill="#F3F5EC"/>
<circle cx="165.589" cy="173.191" r="1.54703" fill="#E6EFE5"/>
<path d="M165.946 173.044C165.866 172.886 165.708 172.521 165.708 172.33C165.803 171.95 166.144 172.172 166.303 172.33C166.501 172.529 166.826 172.973 166.541 173.163C166.255 173.354 166.025 173.163 165.946 173.044Z" fill="#F3F5EC"/>
<circle cx="165.146" cy="170.097" r="1.54703" fill="#E6EFE5"/>
<path d="M165.503 169.95C165.424 169.792 165.265 169.427 165.265 169.236C165.36 168.856 165.701 169.078 165.86 169.236C166.058 169.435 166.384 169.879 166.098 170.069C165.813 170.26 165.582 170.069 165.503 169.95Z" fill="#F3F5EC"/>
<circle cx="164.263" cy="167.224" r="1.54703" fill="#E6EFE5"/>
<path d="M164.62 167.077C164.541 166.918 164.382 166.553 164.382 166.363C164.477 165.982 164.818 166.204 164.977 166.363C165.175 166.561 165.5 167.006 165.215 167.196C164.929 167.386 164.699 167.196 164.62 167.077Z" fill="#F3F5EC"/>
<circle cx="163.6" cy="164.351" r="1.54703" fill="#E6EFE5"/>
<path d="M163.957 164.204C163.877 164.046 163.719 163.681 163.719 163.49C163.814 163.109 164.155 163.332 164.314 163.49C164.512 163.689 164.837 164.133 164.552 164.323C164.266 164.514 164.036 164.323 163.957 164.204Z" fill="#F3F5EC"/>
<circle cx="162.274" cy="161.699" r="1.54703" fill="#E6EFE5"/>
<path d="M162.631 161.552C162.551 161.394 162.393 161.029 162.393 160.838C162.488 160.457 162.829 160.68 162.988 160.838C163.186 161.037 163.511 161.481 163.226 161.671C162.94 161.862 162.71 161.671 162.631 161.552Z" fill="#F3F5EC"/>
<circle cx="160.728" cy="159.047" r="1.54703" fill="#E6EFE5"/>
<path d="M161.084 158.9C161.005 158.741 160.846 158.376 160.846 158.186C160.941 157.805 161.283 158.027 161.441 158.186C161.64 158.384 161.965 158.829 161.679 159.019C161.394 159.209 161.164 159.019 161.084 158.9Z" fill="#F3F5EC"/>
<circle cx="138.847" cy="182.031" r="1.54703" fill="#E6EFE5"/>
<path d="M139.204 181.885C139.125 181.726 138.966 181.361 138.966 181.17C139.062 180.79 139.403 181.012 139.561 181.17C139.76 181.369 140.085 181.813 139.799 182.004C139.514 182.194 139.284 182.004 139.204 181.885Z" fill="#F3F5EC"/>
<circle cx="140.837" cy="184.241" r="1.54703" fill="#E6EFE5"/>
<path d="M141.193 184.094C141.114 183.936 140.955 183.571 140.955 183.38C141.05 183 141.391 183.222 141.55 183.38C141.748 183.579 142.074 184.023 141.788 184.213C141.502 184.404 141.272 184.213 141.193 184.094Z" fill="#F3F5EC"/>
<circle cx="142.826" cy="186.23" r="1.54703" fill="#E6EFE5"/>
<path d="M143.181 186.084C143.102 185.925 142.943 185.56 142.943 185.37C143.039 184.989 143.38 185.211 143.538 185.37C143.737 185.568 144.062 186.012 143.776 186.203C143.491 186.393 143.261 186.203 143.181 186.084Z" fill="#F3F5EC"/>
<circle cx="145.257" cy="187.777" r="1.54703" fill="#E6EFE5"/>
<path d="M145.613 187.631C145.534 187.472 145.375 187.107 145.375 186.917C145.471 186.536 145.812 186.758 145.971 186.917C146.169 187.115 146.494 187.559 146.209 187.75C145.923 187.94 145.693 187.75 145.613 187.631Z" fill="#F3F5EC"/>
<circle cx="148.13" cy="188.882" r="1.54703" fill="#E6EFE5"/>
<path d="M148.487 188.736C148.407 188.577 148.249 188.212 148.249 188.022C148.344 187.641 148.685 187.863 148.844 188.022C149.042 188.22 149.367 188.664 149.082 188.855C148.796 189.045 148.566 188.855 148.487 188.736Z" fill="#F3F5EC"/>
<circle cx="123.377" cy="168.992" r="1.54703" fill="#E6EFE5"/>
<path d="M123.734 168.845C123.655 168.687 123.496 168.322 123.496 168.131C123.591 167.75 123.932 167.973 124.091 168.131C124.289 168.33 124.615 168.774 124.329 168.964C124.044 169.155 123.813 168.964 123.734 168.845Z" fill="#F3F5EC"/>
<circle cx="120.283" cy="168.992" r="1.54703" fill="#E6EFE5"/>
<path d="M120.64 168.845C120.561 168.687 120.402 168.322 120.402 168.131C120.498 167.75 120.839 167.973 120.997 168.131C121.196 168.33 121.521 168.774 121.235 168.964C120.95 169.155 120.72 168.964 120.64 168.845Z" fill="#F3F5EC"/>
<path d="M125.971 152.166C121.072 153.129 119.847 156.871 119.847 158.622C119.624 161.795 126.861 160.81 129.979 160.044C132.473 159.432 132.948 156.871 132.874 155.668C132.614 154.099 130.87 151.204 125.971 152.166Z" fill="#FAA53B"/>
<path d="M122.102 154.887C124.024 153.446 128.181 151.145 129.44 153.469C129.108 152.984 127.176 152.588 122.102 154.887Z" fill="#EFEDBD"/>
<path d="M135.473 156.808C130.574 157.77 129.349 161.512 129.349 163.263C129.127 166.436 136.364 165.451 139.481 164.685C141.976 164.073 142.451 161.512 142.376 160.309C142.117 158.741 140.372 155.845 135.473 156.808Z" fill="#FAA53B"/>
<path d="M131.606 159.528C133.527 158.087 137.684 155.786 138.944 158.11C138.612 157.625 136.679 157.229 131.606 159.528Z" fill="#EFEDBD"/>
<path d="M121.482 165.232C119.321 165.028 118.776 162.578 118.774 161.378L131.407 158.691C131.809 160.474 131.336 161.64 131.05 162C130.807 162.287 130.075 163.041 129.082 163.767C127.842 164.674 124.183 165.487 121.482 165.232Z" fill="#DD852B"/>
<path d="M118.806 161.143C118.947 158.955 122.646 157.317 124.478 156.771C126.333 156.308 130.274 155.895 131.206 157.944C132.371 160.504 128.068 162.307 126.247 163.014C124.427 163.721 118.629 163.877 118.806 161.143Z" fill="#FBBB51"/>
<path d="M119.447 160.935C119.553 159.131 122.826 157.812 124.449 157.378C126.093 157.013 129.592 156.707 130.438 158.406C131.497 160.53 127.689 161.979 126.077 162.547C124.465 163.114 119.314 163.191 119.447 160.935Z" stroke="#EDB057"/>
<path d="M123.338 157.692C125.661 157.015 130.372 156.364 130.63 159.183C130.513 158.567 128.89 157.407 123.338 157.692Z" fill="#EFEDBD"/>
<path d="M109.133 165.401C106.795 164.912 106.438 162.373 106.552 161.165L120.602 160.124C120.866 161.971 120.237 163.083 119.889 163.408C119.597 163.664 118.724 164.327 117.57 164.927C116.128 165.677 112.055 166.013 109.133 165.401Z" fill="#DD852B"/>
<path d="M106.611 160.932C106.978 158.749 111.175 157.587 113.228 157.279C115.297 157.057 119.639 157.16 120.456 159.345C121.478 162.076 116.607 163.324 114.551 163.796C112.495 164.268 106.152 163.662 106.611 160.932Z" fill="#FBBB51"/>
<path d="M107.331 160.808C107.622 159.006 111.323 158.109 113.137 157.886C114.966 157.735 118.815 157.888 119.573 159.71C120.522 161.987 116.224 162.944 114.41 163.303C112.596 163.662 106.967 163.061 107.331 160.808Z" stroke="#EDB057"/>
<path d="M111.893 158.056C114.495 157.68 119.699 157.645 119.706 160.517C119.638 159.881 117.98 158.499 111.893 158.056Z" fill="#EFEDBD"/>
<path d="M120.985 169.221C118.578 168.706 118.148 166.342 118.233 165.224L132.592 164.621C132.91 166.342 132.295 167.357 131.947 167.649C131.655 167.879 130.778 168.472 129.612 168.999C128.155 169.657 123.993 169.864 120.985 169.221Z" fill="#DD852B"/>
<path d="M118.287 165.009C118.606 162.993 122.874 162.023 124.967 161.791C127.08 161.638 131.528 161.846 132.422 163.894C133.539 166.454 128.583 167.486 126.49 167.871C124.397 168.256 117.887 167.53 118.287 165.009Z" fill="#FBBB51"/>
<path d="M119.022 164.913C119.273 163.249 123.039 162.512 124.891 162.352C126.76 162.259 130.705 162.5 131.529 164.21C132.558 166.347 128.183 167.124 126.335 167.411C124.486 167.697 118.707 166.994 119.022 164.913Z" stroke="#EDB057"/>
<path d="M123.622 162.477C126.276 162.196 131.604 162.298 131.685 164.962C131.599 164.371 129.866 163.046 123.622 162.477Z" fill="#EFEDBD"/>
<path d="M108.459 166.008L104.812 161.146L108.238 156.616L113.542 158.273L112.879 164.572C111.288 164.572 109.269 165.53 108.459 166.008Z" fill="#EF3356"/>
<path d="M108.459 166.008L104.812 161.146L108.238 156.616L113.542 158.273L112.879 164.572" stroke="#AD2062" stroke-width="0.5"/>
<path d="M104.812 161.146L107.796 161.257L108.238 156.726L111.443 160.041L113.432 158.384" stroke="#AD2062" stroke-width="0.5"/>
<path d="M109.675 165.345L107.796 161.257L111.443 160.041L111.885 164.682" stroke="#AD2062" stroke-width="0.5"/>
<path d="M110.941 164.101C106.042 165.064 104.818 168.806 104.818 170.556C104.595 173.729 111.832 172.745 114.95 171.979C117.444 171.366 117.919 168.806 117.845 167.602C117.585 166.034 115.84 163.138 110.941 164.101Z" fill="#FAA53B"/>
<path d="M107.074 166.821C108.995 165.38 113.153 163.079 114.412 165.403C114.08 164.918 112.147 164.522 107.074 166.821Z" fill="#EFEDBD"/>
<path d="M107.02 175.34C104.633 175.261 103.824 173.01 103.718 171.895L117.342 168.755C117.936 170.392 117.518 171.499 117.235 171.849C116.994 172.127 116.256 172.865 115.23 173.591C113.947 174.498 110.004 175.439 107.02 175.34Z" fill="#DD852B"/>
<path d="M103.733 171.675C103.699 169.634 107.615 167.923 109.578 167.322C111.572 166.798 115.859 166.213 117.058 168.07C118.556 170.391 113.992 172.285 112.056 173.035C110.12 173.785 103.775 174.225 103.733 171.675Z" fill="#FBBB51"/>
<path d="M104.419 171.45C104.379 169.767 107.855 168.374 109.598 167.888C111.37 167.465 115.181 167.003 116.256 168.539C117.6 170.459 113.548 172 111.829 172.61C110.111 173.219 104.468 173.553 104.419 171.45Z" stroke="#EDB057"/>
<path d="M108.407 168.237C110.896 167.489 116.007 166.644 116.533 169.251C116.351 168.685 114.471 167.689 108.407 168.237Z" fill="#EFEDBD"/>
<path d="M99.3687 171.252C97.3731 171.178 96.6826 169.493 96.5868 168.66L107.954 166.402C108.461 167.627 108.119 168.452 107.884 168.711C107.684 168.917 107.072 169.463 106.219 169.999C105.153 170.667 101.863 171.345 99.3687 171.252Z" fill="#DD852B"/>
<path d="M96.5993 168.495C96.5582 166.972 99.8204 165.719 101.457 165.283C103.12 164.905 106.699 164.495 107.713 165.889C108.98 167.631 105.177 169.016 103.564 169.564C101.951 170.111 96.6506 170.4 96.5993 168.495Z" fill="#FBBB51"/>
<path d="M97.17 168.332C97.1265 167.076 100.023 166.058 101.476 165.706C102.954 165.401 106.137 165.08 107.045 166.234C108.18 167.676 104.804 168.801 103.371 169.245C101.938 169.689 97.2244 169.902 97.17 168.332Z" stroke="#EDB057"/>
<path d="M100.483 165.959C102.559 165.416 106.825 164.818 107.281 166.768C107.126 166.343 105.549 165.588 100.483 165.959Z" fill="#EFEDBD"/>
<path d="M94.5783 168.894C92.8355 168.926 92.1668 167.222 92.0502 166.367L101.871 163.415C102.361 164.654 102.096 165.525 101.902 165.805C101.736 166.029 101.223 166.627 100.501 167.226C99.5981 167.975 96.7568 168.854 94.5783 168.894Z" fill="#DD852B"/>
<path d="M92.0542 166.196C91.958 164.624 94.7525 163.153 96.1618 162.613C97.5967 162.132 100.701 161.514 101.64 162.899C102.814 164.63 99.5535 166.268 98.1687 166.921C96.7839 167.575 92.1744 168.161 92.0542 166.196Z" fill="#FBBB51"/>
<path d="M92.546 165.996C92.4583 164.7 94.9431 163.491 96.1966 163.049C97.4729 162.654 100.235 162.149 101.072 163.291C102.119 164.72 99.2199 166.065 97.9885 166.602C96.757 167.139 92.6557 167.615 92.546 165.996Z" stroke="#EDB057"/>
<path d="M95.3397 163.364C97.1281 162.69 100.824 161.841 101.298 163.83C101.146 163.4 99.741 162.705 95.3397 163.364Z" fill="#EFEDBD"/>
<path d="M139.29 166.671C136.903 166.76 135.938 164.572 135.754 163.467L149.125 159.378C149.832 160.969 149.493 162.104 149.235 162.472C149.014 162.767 148.329 163.555 147.357 164.351C146.141 165.345 142.274 166.561 139.29 166.671Z" fill="#DD852B"/>
<path d="M135.754 163.246C135.577 161.213 139.363 159.231 141.279 158.494C143.231 157.831 147.467 156.947 148.793 158.715C150.45 160.925 146.03 163.135 144.152 164.019C142.273 164.903 135.975 165.787 135.754 163.246Z" fill="#FBBB51"/>
<path d="M136.421 162.973C136.264 161.298 139.634 159.664 141.338 159.057C143.076 158.511 146.845 157.782 148.026 159.239C149.501 161.061 145.567 162.882 143.895 163.611C142.223 164.339 136.618 165.068 136.421 162.973Z" stroke="#EDB057"/>
<path d="M140.173 159.489C142.604 158.568 147.643 157.367 148.351 159.931C148.13 159.378 146.185 158.516 140.173 159.489Z" fill="#EFEDBD"/>
<circle cx="192.883" cy="137.057" r="1.43653" fill="#E6EFE5"/>
<path d="M193.215 136.921C193.141 136.773 192.994 136.434 192.994 136.258C193.082 135.904 193.399 136.11 193.546 136.258C193.73 136.442 194.032 136.854 193.767 137.031C193.502 137.208 193.288 137.031 193.215 136.921Z" fill="#F3F5EC"/>
<circle cx="194.651" cy="139.267" r="1.43653" fill="#E6EFE5"/>
<path d="M194.983 138.689C194.91 138.541 194.762 138.202 194.762 138.026C194.851 137.672 195.167 137.878 195.315 138.026C195.499 138.21 195.801 138.622 195.536 138.799C195.271 138.976 195.057 138.799 194.983 138.689Z" fill="#F3F5EC"/>
<circle cx="195.977" cy="141.698" r="1.43653" fill="#E6EFE5"/>
<path d="M196.308 141.562C196.235 141.414 196.087 141.075 196.087 140.899C196.176 140.545 196.493 140.751 196.64 140.899C196.824 141.083 197.126 141.495 196.861 141.672C196.596 141.849 196.382 141.672 196.308 141.562Z" fill="#F3F5EC"/>
<circle cx="201.06" cy="154.295" r="1.43653" fill="#E6EFE5"/>
<path d="M201.392 154.159C201.319 154.012 201.171 153.673 201.171 153.496C201.26 153.142 201.577 153.349 201.724 153.496C201.908 153.68 202.21 154.093 201.945 154.27C201.68 154.446 201.466 154.27 201.392 154.159Z" fill="#F3F5EC"/>
<path d="M28.72 258.24V256.8H36.736V258.24H28.72ZM31.872 261.328V253.6H33.552V261.328H31.872ZM41.9811 262C41.4265 262 40.9091 261.904 40.4291 261.712C39.9598 261.509 39.5491 261.232 39.1971 260.88C38.8558 260.528 38.5838 260.112 38.3811 259.632C38.1891 259.152 38.0931 258.624 38.0931 258.048C38.0931 257.76 38.1305 257.44 38.2051 257.088C38.2905 256.725 38.4131 256.331 38.5731 255.904C38.7438 255.477 38.9465 255.029 39.1811 254.56C39.4158 254.08 39.6878 253.584 39.9971 253.072L41.4531 250.608H43.1331L43.1971 250.768L41.4371 253.728C41.1171 254.272 40.8291 254.789 40.5731 255.28C40.3278 255.771 40.1198 256.235 39.9491 256.672C39.7785 257.099 39.6505 257.488 39.5651 257.84L39.1811 256.192C39.3838 255.861 39.6025 255.573 39.8371 255.328C40.0718 255.072 40.3225 254.859 40.5891 254.688C40.8665 254.517 41.1545 254.389 41.4531 254.304C41.7518 254.219 42.0611 254.176 42.3811 254.176C42.9998 254.176 43.5651 254.347 44.0771 254.688C44.5998 255.019 45.0158 255.461 45.3251 256.016C45.6451 256.571 45.8051 257.179 45.8051 257.84C45.8051 258.64 45.6398 259.355 45.3091 259.984C44.9891 260.603 44.5411 261.093 43.9651 261.456C43.3891 261.819 42.7278 262 41.9811 262ZM41.9811 260.4C42.3971 260.4 42.7651 260.304 43.0851 260.112C43.4158 259.909 43.6718 259.632 43.8531 259.28C44.0451 258.917 44.1411 258.507 44.1411 258.048C44.1411 257.653 44.0451 257.285 43.8531 256.944C43.6611 256.592 43.4051 256.309 43.0851 256.096C42.7651 255.883 42.4078 255.776 42.0131 255.776C41.5758 255.776 41.1865 255.877 40.8451 256.08C40.5038 256.283 40.2371 256.555 40.0451 256.896C39.8531 257.237 39.7571 257.616 39.7571 258.032C39.7571 258.48 39.8531 258.885 40.0451 259.248C40.2371 259.6 40.4985 259.883 40.8291 260.096C41.1598 260.299 41.5438 260.4 41.9811 260.4ZM51.9638 262V253.6H53.6278V255.392L53.3238 255.584C53.4091 255.307 53.5424 255.04 53.7238 254.784C53.9158 254.528 54.1451 254.304 54.4118 254.112C54.6891 253.909 54.9824 253.749 55.2918 253.632C55.6118 253.515 55.9371 253.456 56.2678 253.456C56.7478 253.456 57.1691 253.536 57.5318 253.696C57.8944 253.856 58.1931 254.096 58.4278 254.416C58.6624 254.736 58.8331 255.136 58.9398 255.616L58.6838 255.552L58.7958 255.28C58.9131 255.035 59.0731 254.805 59.2758 254.592C59.4891 254.368 59.7291 254.171 59.9958 254C60.2624 253.829 60.5451 253.696 60.8438 253.6C61.1424 253.504 61.4358 253.456 61.7238 253.456C62.3531 253.456 62.8704 253.584 63.2758 253.84C63.6918 254.096 64.0011 254.485 64.2038 255.008C64.4171 255.531 64.5238 256.181 64.5238 256.96V262H62.8598V257.056C62.8598 256.576 62.7958 256.187 62.6678 255.888C62.5504 255.579 62.3691 255.349 62.1238 255.2C61.8784 255.051 61.5638 254.976 61.1798 254.976C60.8811 254.976 60.5984 255.029 60.3318 255.136C60.0758 255.232 59.8518 255.371 59.6597 255.552C59.4678 255.733 59.3184 255.947 59.2118 256.192C59.1051 256.427 59.0518 256.688 59.0518 256.976V262H57.3878V257.024C57.3878 256.587 57.3238 256.219 57.1958 255.92C57.0678 255.611 56.8811 255.376 56.6358 255.216C56.3904 255.056 56.0918 254.976 55.7398 254.976C55.4411 254.976 55.1638 255.029 54.9078 255.136C54.6518 255.232 54.4278 255.371 54.2358 255.552C54.0438 255.723 53.8944 255.931 53.7878 256.176C53.6811 256.411 53.6278 256.667 53.6278 256.944V262H51.9638ZM69.9621 262.16C69.2688 262.16 68.6341 261.968 68.0581 261.584C67.4928 261.2 67.0395 260.677 66.6981 260.016C66.3568 259.355 66.1861 258.608 66.1861 257.776C66.1861 256.933 66.3568 256.187 66.6981 255.536C67.0501 254.875 67.5195 254.357 68.1061 253.984C68.7035 253.611 69.3701 253.424 70.1061 253.424C70.5435 253.424 70.9435 253.488 71.3061 253.616C71.6688 253.744 71.9835 253.925 72.2501 254.16C72.5275 254.384 72.7515 254.645 72.9221 254.944C73.1035 255.243 73.2155 255.563 73.2581 255.904L72.8901 255.776V253.6H74.5541V262H72.8901V260L73.2741 259.888C73.2101 260.176 73.0768 260.459 72.8741 260.736C72.6821 261.003 72.4315 261.243 72.1221 261.456C71.8235 261.669 71.4875 261.84 71.1141 261.968C70.7515 262.096 70.3675 262.16 69.9621 262.16ZM70.3941 260.64C70.8955 260.64 71.3381 260.517 71.7221 260.272C72.1061 260.027 72.4048 259.691 72.6181 259.264C72.8421 258.827 72.9541 258.331 72.9541 257.776C72.9541 257.232 72.8421 256.747 72.6181 256.32C72.4048 255.893 72.1061 255.557 71.7221 255.312C71.3381 255.067 70.8955 254.944 70.3941 254.944C69.9035 254.944 69.4661 255.067 69.0821 255.312C68.7088 255.557 68.4101 255.893 68.1861 256.32C67.9728 256.747 67.8661 257.232 67.8661 257.776C67.8661 258.331 67.9728 258.827 68.1861 259.264C68.4101 259.691 68.7088 260.027 69.0821 260.272C69.4661 260.517 69.9035 260.64 70.3941 260.64ZM80.6151 265.68C80.0178 265.68 79.4205 265.584 78.8231 265.392C78.2365 265.211 77.7618 264.971 77.3991 264.672L78.0071 263.392C78.2205 263.552 78.4711 263.691 78.7591 263.808C79.0471 263.936 79.3511 264.032 79.6711 264.096C79.9911 264.171 80.3058 264.208 80.6151 264.208C81.2018 264.208 81.6925 264.112 82.0871 263.92C82.4818 263.728 82.7805 263.445 82.9831 263.072C83.1858 262.699 83.2871 262.235 83.2871 261.68V260.064L83.4631 260.176C83.4098 260.507 83.2338 260.827 82.9351 261.136C82.6471 261.435 82.2845 261.68 81.8471 261.872C81.4098 262.064 80.9618 262.16 80.5031 262.16C79.7031 262.16 78.9885 261.973 78.3591 261.6C77.7405 261.216 77.2498 260.699 76.8871 260.048C76.5245 259.387 76.3431 258.635 76.3431 257.792C76.3431 256.949 76.5191 256.203 76.8711 255.552C77.2338 254.891 77.7245 254.373 78.3431 254C78.9725 253.616 79.6765 253.424 80.4551 253.424C80.7751 253.424 81.0845 253.467 81.3831 253.552C81.6818 253.627 81.9591 253.739 82.2151 253.888C82.4711 254.027 82.7005 254.181 82.9031 254.352C83.1058 254.523 83.2711 254.704 83.3991 254.896C83.5271 255.088 83.6071 255.269 83.6391 255.44L83.2871 255.568V253.6H84.9351V261.488C84.9351 262.16 84.8338 262.752 84.6311 263.264C84.4391 263.787 84.1565 264.224 83.7831 264.576C83.4098 264.939 82.9565 265.211 82.4231 265.392C81.8898 265.584 81.2871 265.68 80.6151 265.68ZM80.6791 260.64C81.2018 260.64 81.6658 260.517 82.0711 260.272C82.4765 260.027 82.7911 259.691 83.0151 259.264C83.2391 258.837 83.3511 258.347 83.3511 257.792C83.3511 257.237 83.2338 256.747 82.9991 256.32C82.7751 255.883 82.4605 255.541 82.0551 255.296C81.6605 255.051 81.2018 254.928 80.6791 254.928C80.1671 254.928 79.7085 255.056 79.3031 255.312C78.9085 255.557 78.5938 255.899 78.3591 256.336C78.1351 256.763 78.0231 257.248 78.0231 257.792C78.0231 258.336 78.1351 258.827 78.3591 259.264C78.5938 259.691 78.9085 260.027 79.3031 260.272C79.7085 260.517 80.1671 260.64 80.6791 260.64ZM87.5178 262V253.6H89.1658V262H87.5178ZM88.3178 251.744C87.9658 251.744 87.6938 251.653 87.5018 251.472C87.3098 251.291 87.2138 251.035 87.2138 250.704C87.2138 250.395 87.3098 250.144 87.5018 249.952C87.7044 249.76 87.9764 249.664 88.3178 249.664C88.6698 249.664 88.9418 249.755 89.1338 249.936C89.3258 250.117 89.4218 250.373 89.4218 250.704C89.4218 251.013 89.3204 251.264 89.1178 251.456C88.9258 251.648 88.6591 251.744 88.3178 251.744ZM95.2669 262.16C94.4882 262.16 93.7895 261.968 93.1709 261.584C92.5629 261.2 92.0775 260.677 91.7149 260.016C91.3629 259.355 91.1869 258.613 91.1869 257.792C91.1869 256.971 91.3629 256.229 91.7149 255.568C92.0775 254.907 92.5629 254.384 93.1709 254C93.7895 253.616 94.4882 253.424 95.2669 253.424C96.0135 253.424 96.6909 253.579 97.2989 253.888C97.9175 254.187 98.3869 254.597 98.7069 255.12L97.7949 256.24C97.6242 255.995 97.4055 255.771 97.1389 255.568C96.8722 255.365 96.5895 255.205 96.2909 255.088C95.9922 254.971 95.7042 254.912 95.4269 254.912C94.9149 254.912 94.4562 255.04 94.0509 255.296C93.6562 255.541 93.3415 255.883 93.1069 256.32C92.8722 256.757 92.7549 257.248 92.7549 257.792C92.7549 258.336 92.8775 258.827 93.1229 259.264C93.3682 259.691 93.6935 260.032 94.0989 260.288C94.5042 260.544 94.9522 260.672 95.4429 260.672C95.7309 260.672 96.0082 260.624 96.2749 260.528C96.5522 260.432 96.8189 260.288 97.0749 260.096C97.3309 259.904 97.5709 259.669 97.7949 259.392L98.7069 260.512C98.3655 260.992 97.8749 261.387 97.2349 261.696C96.6055 262.005 95.9495 262.16 95.2669 262.16ZM108.506 265.68C107.908 265.68 107.311 265.584 106.714 265.392C106.127 265.211 105.652 264.971 105.29 264.672L105.898 263.392C106.111 263.552 106.362 263.691 106.65 263.808C106.938 263.936 107.242 264.032 107.562 264.096C107.882 264.171 108.196 264.208 108.506 264.208C109.092 264.208 109.583 264.112 109.978 263.92C110.372 263.728 110.671 263.445 110.874 263.072C111.076 262.699 111.178 262.235 111.178 261.68V260.064L111.354 260.176C111.3 260.507 111.124 260.827 110.826 261.136C110.538 261.435 110.175 261.68 109.738 261.872C109.3 262.064 108.852 262.16 108.394 262.16C107.594 262.16 106.879 261.973 106.25 261.6C105.631 261.216 105.14 260.699 104.778 260.048C104.415 259.387 104.234 258.635 104.234 257.792C104.234 256.949 104.41 256.203 104.762 255.552C105.124 254.891 105.615 254.373 106.234 254C106.863 253.616 107.567 253.424 108.346 253.424C108.666 253.424 108.975 253.467 109.274 253.552C109.572 253.627 109.85 253.739 110.106 253.888C110.362 254.027 110.591 254.181 110.794 254.352C110.996 254.523 111.162 254.704 111.29 254.896C111.418 255.088 111.498 255.269 111.53 255.44L111.178 255.568V253.6H112.826V261.488C112.826 262.16 112.724 262.752 112.522 263.264C112.33 263.787 112.047 264.224 111.674 264.576C111.3 264.939 110.847 265.211 110.314 265.392C109.78 265.584 109.178 265.68 108.506 265.68ZM108.57 260.64C109.092 260.64 109.556 260.517 109.962 260.272C110.367 260.027 110.682 259.691 110.906 259.264C111.13 258.837 111.242 258.347 111.242 257.792C111.242 257.237 111.124 256.747 110.89 256.32C110.666 255.883 110.351 255.541 109.946 255.296C109.551 255.051 109.092 254.928 108.57 254.928C108.058 254.928 107.599 255.056 107.194 255.312C106.799 255.557 106.484 255.899 106.25 256.336C106.026 256.763 105.914 257.248 105.914 257.792C105.914 258.336 106.026 258.827 106.25 259.264C106.484 259.691 106.799 260.027 107.194 260.272C107.599 260.517 108.058 260.64 108.57 260.64ZM119.056 262.16C118.192 262.16 117.424 261.979 116.752 261.616C116.091 261.243 115.568 260.736 115.184 260.096C114.811 259.456 114.624 258.72 114.624 257.888C114.624 257.227 114.731 256.624 114.944 256.08C115.158 255.536 115.451 255.067 115.824 254.672C116.208 254.267 116.662 253.957 117.184 253.744C117.718 253.52 118.294 253.408 118.912 253.408C119.456 253.408 119.963 253.515 120.432 253.728C120.902 253.931 121.307 254.213 121.648 254.576C122 254.939 122.267 255.371 122.448 255.872C122.64 256.363 122.731 256.901 122.72 257.488L122.704 258.192H115.84L115.472 256.88H121.28L121.04 257.152V256.768C121.008 256.416 120.891 256.101 120.688 255.824C120.486 255.547 120.23 255.328 119.92 255.168C119.611 255.008 119.275 254.928 118.912 254.928C118.336 254.928 117.851 255.04 117.456 255.264C117.062 255.477 116.763 255.797 116.56 256.224C116.358 256.64 116.256 257.157 116.256 257.776C116.256 258.363 116.379 258.875 116.624 259.312C116.87 259.739 117.216 260.069 117.664 260.304C118.112 260.539 118.63 260.656 119.216 260.656C119.632 260.656 120.016 260.587 120.368 260.448C120.731 260.309 121.12 260.059 121.536 259.696L122.368 260.864C122.112 261.12 121.798 261.344 121.424 261.536C121.062 261.728 120.672 261.883 120.256 262C119.851 262.107 119.451 262.16 119.056 262.16ZM124.479 262V253.6H126.143V255.392L125.839 255.584C125.925 255.307 126.058 255.04 126.239 254.784C126.431 254.528 126.661 254.304 126.927 254.112C127.205 253.909 127.498 253.749 127.807 253.632C128.127 253.515 128.453 253.456 128.783 253.456C129.263 253.456 129.685 253.536 130.047 253.696C130.41 253.856 130.709 254.096 130.943 254.416C131.178 254.736 131.349 255.136 131.455 255.616L131.199 255.552L131.311 255.28C131.429 255.035 131.589 254.805 131.791 254.592C132.005 254.368 132.245 254.171 132.511 254C132.778 253.829 133.061 253.696 133.359 253.6C133.658 253.504 133.951 253.456 134.239 253.456C134.869 253.456 135.386 253.584 135.791 253.84C136.207 254.096 136.517 254.485 136.719 255.008C136.933 255.531 137.039 256.181 137.039 256.96V262H135.375V257.056C135.375 256.576 135.311 256.187 135.183 255.888C135.066 255.579 134.885 255.349 134.639 255.2C134.394 255.051 134.079 254.976 133.695 254.976C133.397 254.976 133.114 255.029 132.847 255.136C132.591 255.232 132.367 255.371 132.175 255.552C131.983 255.733 131.834 255.947 131.727 256.192C131.621 256.427 131.567 256.688 131.567 256.976V262H129.903V257.024C129.903 256.587 129.839 256.219 129.711 255.92C129.583 255.611 129.397 255.376 129.151 255.216C128.906 255.056 128.607 254.976 128.255 254.976C127.957 254.976 127.679 255.029 127.423 255.136C127.167 255.232 126.943 255.371 126.751 255.552C126.559 255.723 126.41 255.931 126.303 256.176C126.197 256.411 126.143 256.667 126.143 256.944V262H124.479ZM142.046 262.16C141.342 262.16 140.707 262.037 140.142 261.792C139.576 261.547 139.107 261.184 138.734 260.704L139.854 259.744C140.174 260.117 140.52 260.389 140.894 260.56C141.278 260.72 141.71 260.8 142.19 260.8C142.382 260.8 142.558 260.779 142.718 260.736C142.888 260.683 143.032 260.608 143.15 260.512C143.278 260.416 143.374 260.304 143.438 260.176C143.502 260.037 143.534 259.888 143.534 259.728C143.534 259.451 143.432 259.227 143.23 259.056C143.123 258.981 142.952 258.901 142.718 258.816C142.494 258.72 142.2 258.624 141.838 258.528C141.219 258.368 140.712 258.187 140.318 257.984C139.923 257.781 139.619 257.552 139.406 257.296C139.246 257.093 139.128 256.875 139.054 256.64C138.979 256.395 138.942 256.128 138.942 255.84C138.942 255.488 139.016 255.168 139.166 254.88C139.326 254.581 139.539 254.325 139.806 254.112C140.083 253.888 140.403 253.717 140.766 253.6C141.139 253.483 141.534 253.424 141.95 253.424C142.344 253.424 142.734 253.477 143.118 253.584C143.512 253.691 143.875 253.845 144.206 254.048C144.536 254.251 144.814 254.491 145.038 254.768L144.094 255.808C143.891 255.605 143.667 255.429 143.422 255.28C143.187 255.12 142.947 254.997 142.702 254.912C142.456 254.827 142.232 254.784 142.03 254.784C141.806 254.784 141.603 254.805 141.422 254.848C141.24 254.891 141.086 254.955 140.958 255.04C140.84 255.125 140.75 255.232 140.686 255.36C140.622 255.488 140.59 255.632 140.59 255.792C140.6 255.931 140.632 256.064 140.686 256.192C140.75 256.309 140.835 256.411 140.942 256.496C141.059 256.581 141.235 256.672 141.47 256.768C141.704 256.864 142.003 256.955 142.366 257.04C142.899 257.179 143.336 257.333 143.678 257.504C144.03 257.664 144.307 257.851 144.51 258.064C144.723 258.267 144.872 258.501 144.958 258.768C145.043 259.035 145.086 259.333 145.086 259.664C145.086 260.144 144.947 260.576 144.67 260.96C144.403 261.333 144.04 261.627 143.582 261.84C143.123 262.053 142.611 262.16 142.046 262.16Z" fill="#FAF9F6"/>
</svg>
