<svg width="395" height="491" viewBox="0 0 395 491" fill="none" xmlns="http://www.w3.org/2000/svg">
<rect width="394.099" height="490.871" rx="20" fill="#202020" fill-opacity="0.5"/>
<path d="M44.04 49.36C45.88 49.44 47.9867 49.6 50.36 49.84C52.76 50.08 54.4667 50.2 55.48 50.2C56.4933 50.2 57.2533 50.12 57.76 49.96C58.9867 48.7867 59.8533 47.8933 60.36 47.28L61 47.76C59.5867 49.6 58.7333 51.52 58.44 53.52C55.8 52.8 53.3867 52.36 51.2 52.2C51.0133 55.1067 50.92 58.9333 50.92 63.68C50.92 68.4 51.0933 72.04 51.44 74.6C52.7733 74.7333 54.24 74.9867 55.84 75.36L55.72 76.32C53.7467 76.1067 51.6 76 49.28 76C46.9867 76 45.1333 76.1067 43.72 76.32L43.56 75.32C44.76 74.9467 46.04 74.6667 47.4 74.48C47.6933 72.2933 47.84 68.8533 47.84 64.16V61.8C47.84 59.16 47.68 55.92 47.36 52.08H46.32C43.1733 52.08 41.16 52.5067 40.28 53.36C40.0933 53.7333 40 54.32 40 55.12C40 55.92 40.1333 56.4667 40.4 56.76L40.36 57.04C39.6933 57.44 39.0267 58 38.36 58.72C38.04 58.6933 37.7867 58.56 37.6 58.32C37.3867 58.08 37.28 57.8 37.28 57.48C37.28 56.1733 38.0667 54.6133 39.64 52.8C41.2133 50.9867 42.68 49.84 44.04 49.36ZM61.4622 55.24L70.6622 54.96C73.0622 54.96 74.8622 55.32 76.0622 56.04C77.2622 56.7333 77.8622 58.0133 77.8622 59.88C77.8622 61.16 77.4622 62.2933 76.6622 63.28C75.8889 64.2667 74.8622 65 73.5822 65.48L78.0622 74.64C78.9689 74.8 79.8222 74.9867 80.6222 75.2L80.4622 76.28C79.3422 76.0933 78.0755 76 76.6622 76C75.2755 76 74.1822 76.0667 73.3822 76.2L73.2222 75.56C73.5689 75.2133 73.7422 74.64 73.7422 73.84C73.7422 72.2133 72.8089 69.6 70.9422 66C70.3822 65.8933 69.7289 65.84 68.9822 65.84L69.0622 64.68H69.4622C72.6089 64.68 74.1822 63.24 74.1822 60.36C74.1822 57.6933 72.8355 56.36 70.1422 56.36C69.2355 56.36 68.4222 56.5067 67.7022 56.8C67.5155 58.56 67.4222 61.5733 67.4222 65.84C67.4222 70.1067 67.5422 73.0533 67.7822 74.68C68.9555 74.8133 70.0489 75.0133 71.0622 75.28L70.9422 76.28C69.5555 76.0933 67.9955 76 66.2622 76C64.5555 76 63.0222 76.1067 61.6622 76.32L61.5022 75.28C62.2489 75.04 63.0889 74.84 64.0222 74.68C64.2889 72.68 64.4222 69.5733 64.4222 65.36C64.4222 61.12 64.3022 58.1867 64.0622 56.56C63.0222 56.2133 62.1555 56.04 61.4622 56.04V55.24ZM86.0369 66.12C86.1169 68.4933 86.5569 70.3467 87.3569 71.68C88.1569 73.0133 89.5169 73.68 91.4369 73.68C93.3569 73.68 95.1302 72.8667 96.7569 71.24L97.3169 71.8C95.5302 74.0667 93.3835 75.6267 90.8769 76.48C88.2902 76.48 86.2635 75.6667 84.7969 74.04C83.3302 72.3867 82.5969 70.1733 82.5969 67.4C82.5969 64.6 83.4635 61.9733 85.1969 59.52C86.9302 57.0667 89.1435 55.4533 91.8369 54.68C93.7835 54.68 95.9835 54.88 98.4369 55.28L98.3969 56.16C97.8902 56.16 97.4102 56.2533 96.9569 56.44C96.4502 57.64 96.1169 59.0667 95.9569 60.72H94.9569C94.7435 59.8133 94.6369 58.88 94.6369 57.92C93.6235 57.4133 92.4235 57.16 91.0369 57.16C89.6502 57.16 88.5035 57.5333 87.5969 58.28C86.6902 59.9333 86.1702 61.9067 86.0369 64.2C87.1569 64.3867 88.3569 64.48 89.6369 64.48C91.8502 64.48 93.1835 64.0133 93.6369 63.08L94.4769 63.2C94.2369 64 94.1169 64.7867 94.1169 65.56C94.1169 66.3333 94.2102 67.28 94.3969 68.4L93.4369 68.56C93.1435 67.76 92.9302 66.9333 92.7969 66.08C91.7302 65.9733 90.6635 65.92 89.5969 65.92C88.5569 65.92 87.3702 65.9867 86.0369 66.12ZM103.047 54.72C105.553 55.0133 108.087 55.16 110.647 55.16C113.207 55.16 115.727 55.0133 118.207 54.72L118.367 55.76C117.567 56.08 116.74 56.32 115.887 56.48C115.593 58.6667 115.447 61.7067 115.447 65.6C115.447 69.4933 115.593 72.5333 115.887 74.72C116.42 74.8 117.407 75 118.847 75.32L118.687 76.32C117.407 76.1067 115.767 76 113.767 76C111.767 76 110.233 76.1067 109.167 76.32L109.007 75.28C109.913 74.9867 110.94 74.7733 112.087 74.64C112.247 73.0933 112.367 70.9467 112.447 68.2C111.193 68.0667 109.94 68 108.687 68C107.433 68 106.34 68.0667 105.407 68.2C104.873 70.3867 104.607 71.9067 104.607 72.76C104.607 74.0667 105.073 74.9867 106.007 75.52L105.847 76.2C105.233 76.0667 104.073 76 102.367 76C100.66 76 99.3132 76.1067 98.3266 76.32L98.1666 75.28C98.8066 75.04 99.6866 74.8267 100.807 74.64L106.007 56.4C104.833 56.2133 103.807 56 102.927 55.76L103.047 54.72ZM105.727 66.32C106.767 66.48 107.913 66.56 109.167 66.56C110.447 66.56 111.54 66.48 112.447 66.32C112.447 61.3867 112.34 58.2 112.127 56.76C111.22 56.7067 110.54 56.68 110.087 56.68C109.66 56.68 108.993 56.7067 108.087 56.76L105.727 66.32ZM124.573 72.96C125.799 73.4667 127.013 73.72 128.213 73.72C129.413 73.72 130.373 73.44 131.093 72.88C131.813 72.32 132.173 71.52 132.173 70.48C132.173 69.4133 130.666 68.0933 127.653 66.52C126.506 65.9333 125.453 65.2267 124.493 64.4C123.559 63.5467 123.093 62.7067 123.093 61.88C123.093 60.4667 123.839 59.04 125.333 57.6C126.826 56.16 128.359 55.1867 129.933 54.68C131.906 54.68 133.693 54.88 135.293 55.28V56C134.173 57.12 133.546 58.6533 133.413 60.6H132.413C132.413 59.8533 132.346 58.92 132.213 57.8C131.279 57.3733 130.279 57.16 129.213 57.16C128.146 57.16 127.253 57.4 126.533 57.88C125.839 58.3333 125.493 59 125.493 59.88C125.493 60.4933 125.959 61.16 126.893 61.88C127.853 62.6 128.893 63.24 130.013 63.8C131.133 64.36 132.159 65.0533 133.093 65.88C134.053 66.7067 134.533 67.5333 134.533 68.36C134.533 69.96 133.826 71.56 132.413 73.16C130.999 74.7333 129.439 75.84 127.733 76.48C126.053 76.48 124.479 76.28 123.013 75.88C122.586 76.0667 122.146 76.3733 121.693 76.8L120.973 76.28C122.466 74.6533 123.293 72.64 123.453 70.24H124.453C124.453 71.1733 124.493 72.08 124.573 72.96ZM155.409 64.64V66.52C155.409 70.1733 155.542 72.9067 155.809 74.72C157.035 74.88 158.049 75.0667 158.849 75.28L158.729 76.28C157.422 76.0933 156.075 76 154.689 76C153.329 76 152.395 76.04 151.889 76.12L151.729 75.6C151.969 75.3333 152.129 74.5733 152.209 73.32C150.822 74.76 149.222 75.8133 147.409 76.48C142.822 76.48 140.529 73.7467 140.529 68.28C140.529 67.08 140.622 65.16 140.809 62.52C140.995 59.88 141.089 58.3333 141.089 57.88C141.089 57.4267 141.009 56.9867 140.849 56.56V56.52C139.729 56.3333 138.835 56.1333 138.169 55.92L138.329 54.84C139.875 55.0533 141.275 55.16 142.529 55.16C143.782 55.16 144.809 55.0933 145.609 54.96L145.769 55.64C144.809 56.1467 144.249 57.0667 144.089 58.4C143.769 60.96 143.609 63.5867 143.609 66.28C143.609 68.9733 143.915 70.8933 144.529 72.04C145.169 73.16 146.342 73.72 148.049 73.72C149.782 73.72 151.182 73.2267 152.249 72.24C152.355 70.1067 152.409 67.5867 152.409 64.68C152.409 61.7733 152.302 59.04 152.089 56.48C150.889 56.3467 149.782 56.1467 148.769 55.88L148.889 54.88C150.275 55.0667 151.822 55.16 153.529 55.16C155.262 55.16 156.809 55.0533 158.169 54.84L158.329 55.88C157.582 56.12 156.742 56.32 155.809 56.48C155.542 58.2667 155.409 60.9867 155.409 64.64ZM161.814 55.24L171.014 54.96C173.414 54.96 175.214 55.32 176.414 56.04C177.614 56.7333 178.214 58.0133 178.214 59.88C178.214 61.16 177.814 62.2933 177.014 63.28C176.24 64.2667 175.214 65 173.934 65.48L178.414 74.64C179.32 74.8 180.174 74.9867 180.974 75.2L180.814 76.28C179.694 76.0933 178.427 76 177.014 76C175.627 76 174.534 76.0667 173.734 76.2L173.574 75.56C173.92 75.2133 174.094 74.64 174.094 73.84C174.094 72.2133 173.16 69.6 171.294 66C170.734 65.8933 170.08 65.84 169.334 65.84L169.414 64.68H169.814C172.96 64.68 174.534 63.24 174.534 60.36C174.534 57.6933 173.187 56.36 170.494 56.36C169.587 56.36 168.774 56.5067 168.054 56.8C167.867 58.56 167.774 61.5733 167.774 65.84C167.774 70.1067 167.894 73.0533 168.134 74.68C169.307 74.8133 170.4 75.0133 171.414 75.28L171.294 76.28C169.907 76.0933 168.347 76 166.614 76C164.907 76 163.374 76.1067 162.014 76.32L161.854 75.28C162.6 75.04 163.44 74.84 164.374 74.68C164.64 72.68 164.774 69.5733 164.774 65.36C164.774 61.12 164.654 58.1867 164.414 56.56C163.374 56.2133 162.507 56.04 161.814 56.04V55.24ZM186.388 66.12C186.468 68.4933 186.908 70.3467 187.708 71.68C188.508 73.0133 189.868 73.68 191.788 73.68C193.708 73.68 195.482 72.8667 197.108 71.24L197.668 71.8C195.882 74.0667 193.735 75.6267 191.228 76.48C188.642 76.48 186.615 75.6667 185.148 74.04C183.682 72.3867 182.948 70.1733 182.948 67.4C182.948 64.6 183.815 61.9733 185.548 59.52C187.282 57.0667 189.495 55.4533 192.188 54.68C194.135 54.68 196.335 54.88 198.788 55.28L198.748 56.16C198.242 56.16 197.762 56.2533 197.308 56.44C196.802 57.64 196.468 59.0667 196.308 60.72H195.308C195.095 59.8133 194.988 58.88 194.988 57.92C193.975 57.4133 192.775 57.16 191.388 57.16C190.002 57.16 188.855 57.5333 187.948 58.28C187.042 59.9333 186.522 61.9067 186.388 64.2C187.508 64.3867 188.708 64.48 189.988 64.48C192.202 64.48 193.535 64.0133 193.988 63.08L194.828 63.2C194.588 64 194.468 64.7867 194.468 65.56C194.468 66.3333 194.562 67.28 194.748 68.4L193.788 68.56C193.495 67.76 193.282 66.9333 193.148 66.08C192.082 65.9733 191.015 65.92 189.948 65.92C188.908 65.92 187.722 65.9867 186.388 66.12ZM213.386 74.6C213.866 75.4 214.532 76.0533 215.386 76.56C216.266 77.0933 217.279 77.36 218.426 77.36C219.599 77.36 220.772 77.0133 221.946 76.32C223.146 75.6533 224.146 74.8133 224.946 73.8L225.506 74.36C223.559 77.4 220.919 79.48 217.586 80.6C215.292 80.6 213.412 80.0133 211.946 78.84C210.479 77.6667 209.439 76.16 208.826 74.32C208.239 72.48 207.946 70.2133 207.946 67.52C207.946 64.8267 208.279 62.28 208.946 59.88C209.639 57.4533 210.826 55.28 212.506 53.36C214.186 51.4133 216.279 50.08 218.786 49.36C221.479 49.36 224.226 49.6133 227.026 50.12L226.986 51C226.292 51 225.652 51.12 225.066 51.36C224.399 52.9333 223.959 54.8133 223.746 57H222.746C222.506 55.7467 222.386 54.5467 222.386 53.4C220.972 52.6267 219.412 52.24 217.706 52.24C216.026 52.24 214.639 52.7467 213.546 53.76C212.186 56.5067 211.506 60.04 211.506 64.36C211.506 69.1867 212.132 72.6 213.386 74.6ZM240.548 54.84C241.908 55.0533 243.441 55.16 245.148 55.16C246.881 55.16 248.441 55.0667 249.828 54.88L249.948 55.88C248.934 56.1467 247.828 56.3467 246.628 56.48C246.361 58.1333 246.228 60.8533 246.228 64.64V66.52C246.228 70.36 246.361 73.08 246.628 74.68C247.828 74.8133 248.934 75.0133 249.948 75.28L249.828 76.28C248.441 76.0933 246.881 76 245.148 76C243.441 76 241.908 76.1067 240.548 76.32L240.388 75.28C241.134 75.04 241.974 74.84 242.908 74.68C243.121 71.6667 243.241 68.6533 243.268 65.64C241.561 65.48 239.988 65.4 238.548 65.4C237.108 65.4 235.548 65.48 233.868 65.64C233.868 70.04 233.988 73.0533 234.228 74.68C235.428 74.8133 236.534 75.0133 237.548 75.28L237.428 76.28C236.041 76.0933 234.481 76 232.748 76C231.041 76 229.508 76.1067 228.148 76.32L227.988 75.28C228.734 75.04 229.574 74.84 230.508 74.68C230.748 72.76 230.868 70.04 230.868 66.52V64.64C230.868 61.12 230.734 58.4 230.468 56.48C229.534 56.32 228.694 56.12 227.948 55.88L228.108 54.84C229.468 55.0533 231.001 55.16 232.708 55.16C234.441 55.16 236.001 55.0667 237.388 54.88L237.508 55.88C236.494 56.1467 235.388 56.3467 234.188 56.48C233.974 58.0267 233.868 60.4133 233.868 63.64C235.361 63.8533 236.961 63.96 238.668 63.96C240.401 63.96 241.934 63.8667 243.268 63.68C243.241 61.4133 243.121 59.0133 242.908 56.48C241.974 56.32 241.134 56.12 240.388 55.88L240.548 54.84ZM256.154 66.12C256.234 68.4933 256.674 70.3467 257.474 71.68C258.274 73.0133 259.634 73.68 261.554 73.68C263.474 73.68 265.247 72.8667 266.874 71.24L267.434 71.8C265.647 74.0667 263.501 75.6267 260.994 76.48C258.407 76.48 256.381 75.6667 254.914 74.04C253.447 72.3867 252.714 70.1733 252.714 67.4C252.714 64.6 253.581 61.9733 255.314 59.52C257.047 57.0667 259.261 55.4533 261.954 54.68C263.901 54.68 266.101 54.88 268.554 55.28L268.514 56.16C268.007 56.16 267.527 56.2533 267.074 56.44C266.567 57.64 266.234 59.0667 266.074 60.72H265.074C264.861 59.8133 264.754 58.88 264.754 57.92C263.741 57.4133 262.541 57.16 261.154 57.16C259.767 57.16 258.621 57.5333 257.714 58.28C256.807 59.9333 256.287 61.9067 256.154 64.2C257.274 64.3867 258.474 64.48 259.754 64.48C261.967 64.48 263.301 64.0133 263.754 63.08L264.594 63.2C264.354 64 264.234 64.7867 264.234 65.56C264.234 66.3333 264.327 67.28 264.514 68.4L263.554 68.56C263.261 67.76 263.047 66.9333 262.914 66.08C261.847 65.9733 260.781 65.92 259.714 65.92C258.674 65.92 257.487 65.9867 256.154 66.12ZM273.284 72.96C274.51 73.4667 275.724 73.72 276.924 73.72C278.124 73.72 279.084 73.44 279.804 72.88C280.524 72.32 280.884 71.52 280.884 70.48C280.884 69.4133 279.377 68.0933 276.364 66.52C275.217 65.9333 274.164 65.2267 273.204 64.4C272.27 63.5467 271.804 62.7067 271.804 61.88C271.804 60.4667 272.55 59.04 274.044 57.6C275.537 56.16 277.07 55.1867 278.644 54.68C280.617 54.68 282.404 54.88 284.004 55.28V56C282.884 57.12 282.257 58.6533 282.124 60.6H281.124C281.124 59.8533 281.057 58.92 280.924 57.8C279.99 57.3733 278.99 57.16 277.924 57.16C276.857 57.16 275.964 57.4 275.244 57.88C274.55 58.3333 274.204 59 274.204 59.88C274.204 60.4933 274.67 61.16 275.604 61.88C276.564 62.6 277.604 63.24 278.724 63.8C279.844 64.36 280.87 65.0533 281.804 65.88C282.764 66.7067 283.244 67.5333 283.244 68.36C283.244 69.96 282.537 71.56 281.124 73.16C279.71 74.7333 278.15 75.84 276.444 76.48C274.764 76.48 273.19 76.28 271.724 75.88C271.297 76.0667 270.857 76.3733 270.404 76.8L269.684 76.28C271.177 74.6533 272.004 72.64 272.164 70.24H273.164C273.164 71.1733 273.204 72.08 273.284 72.96ZM300.48 57.32C299.546 56.8667 298.653 56.64 297.8 56.64C296.946 56.64 296.373 56.6933 296.08 56.8C295.866 58.24 295.76 61.0267 295.76 65.16C295.76 69.2933 295.906 72.4667 296.2 74.68C297.4 74.8133 298.506 75.0133 299.52 75.28L299.4 76.28C298.013 76.0933 296.413 76 294.6 76C292.813 76 291.24 76.1067 289.88 76.32L289.72 75.28C290.253 75.12 291.173 74.92 292.48 74.68C292.72 72.76 292.84 70.04 292.84 66.52V64.64C292.84 62.7733 292.693 60.16 292.4 56.8C292.106 56.6933 291.56 56.64 290.76 56.64C289.96 56.64 289.106 56.8267 288.2 57.2C287.933 58.0267 287.746 59.1333 287.64 60.52H286.6C286.6 58.3333 286.24 56.64 285.52 55.44L285.72 54.76C287.773 55.0267 290.653 55.16 294.36 55.16C298.066 55.16 301.053 55.0133 303.32 54.72L303.56 55.48C302.893 56.2267 302.44 56.96 302.2 57.68C301.96 58.3733 301.813 59.32 301.76 60.52H300.76C300.573 59.64 300.48 58.5733 300.48 57.32Z" fill="#FAF9F6"/>
<path d="M40.3495 379.36V377.2H52.3735V379.36H40.3495ZM45.0775 383.992V372.4H47.5975V383.992H45.0775ZM60.2412 385C59.4092 385 58.6332 384.856 57.9132 384.568C57.2092 384.264 56.5932 383.848 56.0652 383.32C55.5532 382.792 55.1452 382.168 54.8412 381.448C54.5532 380.728 54.4092 379.936 54.4092 379.072C54.4092 378.64 54.4652 378.16 54.5772 377.632C54.7052 377.088 54.8892 376.496 55.1292 375.856C55.3852 375.216 55.6892 374.544 56.0412 373.84C56.3932 373.12 56.8012 372.376 57.2652 371.608L59.4492 367.912H61.9692L62.0652 368.152L59.4252 372.592C58.9452 373.408 58.5132 374.184 58.1292 374.92C57.7612 375.656 57.4492 376.352 57.1932 377.008C56.9372 377.648 56.7452 378.232 56.6172 378.76L56.0412 376.288C56.3452 375.792 56.6732 375.36 57.0252 374.992C57.3772 374.608 57.7532 374.288 58.1532 374.032C58.5692 373.776 59.0012 373.584 59.4492 373.456C59.8972 373.328 60.3612 373.264 60.8412 373.264C61.7692 373.264 62.6172 373.52 63.3852 374.032C64.1692 374.528 64.7932 375.192 65.2572 376.024C65.7372 376.856 65.9772 377.768 65.9772 378.76C65.9772 379.96 65.7292 381.032 65.2332 381.976C64.7532 382.904 64.0812 383.64 63.2172 384.184C62.3532 384.728 61.3612 385 60.2412 385ZM60.2412 382.6C60.8652 382.6 61.4172 382.456 61.8972 382.168C62.3932 381.864 62.7772 381.448 63.0492 380.92C63.3372 380.376 63.4812 379.76 63.4812 379.072C63.4812 378.48 63.3372 377.928 63.0492 377.416C62.7612 376.888 62.3772 376.464 61.8972 376.144C61.4172 375.824 60.8812 375.664 60.2892 375.664C59.6332 375.664 59.0492 375.816 58.5372 376.12C58.0252 376.424 57.6252 376.832 57.3372 377.344C57.0492 377.856 56.9052 378.424 56.9052 379.048C56.9052 379.72 57.0492 380.328 57.3372 380.872C57.6252 381.4 58.0172 381.824 58.5132 382.144C59.0092 382.448 59.5852 382.6 60.2412 382.6ZM75.2152 385V372.4H77.7112V375.088L77.2552 375.376C77.3832 374.96 77.5832 374.56 77.8552 374.176C78.1432 373.792 78.4872 373.456 78.8872 373.168C79.3032 372.864 79.7432 372.624 80.2072 372.448C80.6872 372.272 81.1752 372.184 81.6712 372.184C82.3912 372.184 83.0232 372.304 83.5672 372.544C84.1112 372.784 84.5592 373.144 84.9112 373.624C85.2632 374.104 85.5192 374.704 85.6792 375.424L85.2952 375.328L85.4632 374.92C85.6392 374.552 85.8792 374.208 86.1832 373.888C86.5032 373.552 86.8632 373.256 87.2632 373C87.6632 372.744 88.0872 372.544 88.5352 372.4C88.9832 372.256 89.4232 372.184 89.8552 372.184C90.7992 372.184 91.5752 372.376 92.1832 372.76C92.8072 373.144 93.2712 373.728 93.5752 374.512C93.8952 375.296 94.0552 376.272 94.0552 377.44V385H91.5592V377.584C91.5592 376.864 91.4632 376.28 91.2712 375.832C91.0952 375.368 90.8232 375.024 90.4552 374.8C90.0872 374.576 89.6152 374.464 89.0392 374.464C88.5912 374.464 88.1672 374.544 87.7672 374.704C87.3832 374.848 87.0472 375.056 86.7592 375.328C86.4712 375.6 86.2472 375.92 86.0872 376.288C85.9272 376.64 85.8472 377.032 85.8472 377.464V385H83.3512V377.536C83.3512 376.88 83.2552 376.328 83.0632 375.88C82.8712 375.416 82.5912 375.064 82.2232 374.824C81.8552 374.584 81.4072 374.464 80.8792 374.464C80.4312 374.464 80.0152 374.544 79.6312 374.704C79.2472 374.848 78.9112 375.056 78.6232 375.328C78.3352 375.584 78.1112 375.896 77.9512 376.264C77.7912 376.616 77.7112 377 77.7112 377.416V385H75.2152ZM102.213 385.24C101.173 385.24 100.221 384.952 99.3567 384.376C98.5087 383.8 97.8287 383.016 97.3167 382.024C96.8047 381.032 96.5487 379.912 96.5487 378.664C96.5487 377.4 96.8047 376.28 97.3167 375.304C97.8447 374.312 98.5487 373.536 99.4287 372.976C100.325 372.416 101.325 372.136 102.429 372.136C103.085 372.136 103.685 372.232 104.229 372.424C104.773 372.616 105.245 372.888 105.645 373.24C106.061 373.576 106.397 373.968 106.653 374.416C106.925 374.864 107.093 375.344 107.157 375.856L106.605 375.664V372.4H109.101V385H106.605V382L107.181 381.832C107.085 382.264 106.885 382.688 106.581 383.104C106.293 383.504 105.917 383.864 105.453 384.184C105.005 384.504 104.501 384.76 103.941 384.952C103.397 385.144 102.821 385.24 102.213 385.24ZM102.861 382.96C103.613 382.96 104.277 382.776 104.853 382.408C105.429 382.04 105.877 381.536 106.197 380.896C106.533 380.24 106.701 379.496 106.701 378.664C106.701 377.848 106.533 377.12 106.197 376.48C105.877 375.84 105.429 375.336 104.853 374.968C104.277 374.6 103.613 374.416 102.861 374.416C102.125 374.416 101.469 374.6 100.893 374.968C100.333 375.336 99.8847 375.84 99.5487 376.48C99.2287 377.12 99.0687 377.848 99.0687 378.664C99.0687 379.496 99.2287 380.24 99.5487 380.896C99.8847 381.536 100.333 382.04 100.893 382.408C101.469 382.776 102.125 382.96 102.861 382.96ZM118.192 390.52C117.296 390.52 116.4 390.376 115.504 390.088C114.624 389.816 113.912 389.456 113.368 389.008L114.28 387.088C114.6 387.328 114.976 387.536 115.408 387.712C115.84 387.904 116.296 388.048 116.776 388.144C117.256 388.256 117.728 388.312 118.192 388.312C119.072 388.312 119.808 388.168 120.4 387.88C120.992 387.592 121.44 387.168 121.744 386.608C122.048 386.048 122.2 385.352 122.2 384.52V382.096L122.464 382.264C122.384 382.76 122.12 383.24 121.672 383.704C121.24 384.152 120.696 384.52 120.04 384.808C119.384 385.096 118.712 385.24 118.024 385.24C116.824 385.24 115.752 384.96 114.808 384.4C113.88 383.824 113.144 383.048 112.6 382.072C112.056 381.08 111.784 379.952 111.784 378.688C111.784 377.424 112.048 376.304 112.576 375.328C113.12 374.336 113.856 373.56 114.784 373C115.728 372.424 116.784 372.136 117.952 372.136C118.432 372.136 118.896 372.2 119.344 372.328C119.792 372.44 120.208 372.608 120.592 372.832C120.976 373.04 121.32 373.272 121.624 373.528C121.928 373.784 122.176 374.056 122.368 374.344C122.56 374.632 122.68 374.904 122.728 375.16L122.2 375.352V372.4H124.672V384.232C124.672 385.24 124.52 386.128 124.216 386.896C123.928 387.68 123.504 388.336 122.944 388.864C122.384 389.408 121.704 389.816 120.904 390.088C120.104 390.376 119.2 390.52 118.192 390.52ZM118.288 382.96C119.072 382.96 119.768 382.776 120.376 382.408C120.984 382.04 121.456 381.536 121.792 380.896C122.128 380.256 122.296 379.52 122.296 378.688C122.296 377.856 122.12 377.12 121.768 376.48C121.432 375.824 120.96 375.312 120.352 374.944C119.76 374.576 119.072 374.392 118.288 374.392C117.52 374.392 116.832 374.584 116.224 374.968C115.632 375.336 115.16 375.848 114.808 376.504C114.472 377.144 114.304 377.872 114.304 378.688C114.304 379.504 114.472 380.24 114.808 380.896C115.16 381.536 115.632 382.04 116.224 382.408C116.832 382.776 117.52 382.96 118.288 382.96ZM128.546 385V372.4H131.018V385H128.546ZM129.746 369.616C129.218 369.616 128.81 369.48 128.522 369.208C128.234 368.936 128.09 368.552 128.09 368.056C128.09 367.592 128.234 367.216 128.522 366.928C128.826 366.64 129.234 366.496 129.746 366.496C130.274 366.496 130.682 366.632 130.97 366.904C131.258 367.176 131.402 367.56 131.402 368.056C131.402 368.52 131.25 368.896 130.946 369.184C130.658 369.472 130.258 369.616 129.746 369.616ZM140.17 385.24C139.002 385.24 137.954 384.952 137.026 384.376C136.114 383.8 135.386 383.016 134.842 382.024C134.314 381.032 134.05 379.92 134.05 378.688C134.05 377.456 134.314 376.344 134.842 375.352C135.386 374.36 136.114 373.576 137.026 373C137.954 372.424 139.002 372.136 140.17 372.136C141.29 372.136 142.306 372.368 143.218 372.832C144.146 373.28 144.85 373.896 145.33 374.68L143.962 376.36C143.706 375.992 143.378 375.656 142.978 375.352C142.578 375.048 142.154 374.808 141.706 374.632C141.258 374.456 140.826 374.368 140.41 374.368C139.642 374.368 138.954 374.56 138.346 374.944C137.754 375.312 137.282 375.824 136.93 376.48C136.578 377.136 136.402 377.872 136.402 378.688C136.402 379.504 136.586 380.24 136.954 380.896C137.322 381.536 137.81 382.048 138.418 382.432C139.026 382.816 139.698 383.008 140.434 383.008C140.866 383.008 141.282 382.936 141.682 382.792C142.098 382.648 142.498 382.432 142.882 382.144C143.266 381.856 143.626 381.504 143.962 381.088L145.33 382.768C144.818 383.488 144.082 384.08 143.122 384.544C142.178 385.008 141.194 385.24 140.17 385.24ZM160.028 390.52C159.132 390.52 158.236 390.376 157.34 390.088C156.46 389.816 155.748 389.456 155.204 389.008L156.116 387.088C156.436 387.328 156.812 387.536 157.244 387.712C157.676 387.904 158.132 388.048 158.612 388.144C159.092 388.256 159.564 388.312 160.028 388.312C160.908 388.312 161.644 388.168 162.236 387.88C162.828 387.592 163.276 387.168 163.58 386.608C163.884 386.048 164.036 385.352 164.036 384.52V382.096L164.3 382.264C164.22 382.76 163.956 383.24 163.508 383.704C163.076 384.152 162.532 384.52 161.876 384.808C161.22 385.096 160.548 385.24 159.86 385.24C158.66 385.24 157.588 384.96 156.644 384.4C155.716 383.824 154.98 383.048 154.436 382.072C153.892 381.08 153.62 379.952 153.62 378.688C153.62 377.424 153.884 376.304 154.412 375.328C154.956 374.336 155.692 373.56 156.62 373C157.564 372.424 158.62 372.136 159.788 372.136C160.268 372.136 160.732 372.2 161.18 372.328C161.628 372.44 162.044 372.608 162.428 372.832C162.812 373.04 163.156 373.272 163.46 373.528C163.764 373.784 164.012 374.056 164.204 374.344C164.396 374.632 164.516 374.904 164.564 375.16L164.036 375.352V372.4H166.508V384.232C166.508 385.24 166.356 386.128 166.052 386.896C165.764 387.68 165.34 388.336 164.78 388.864C164.22 389.408 163.54 389.816 162.74 390.088C161.94 390.376 161.036 390.52 160.028 390.52ZM160.124 382.96C160.908 382.96 161.604 382.776 162.212 382.408C162.82 382.04 163.292 381.536 163.628 380.896C163.964 380.256 164.132 379.52 164.132 378.688C164.132 377.856 163.956 377.12 163.604 376.48C163.268 375.824 162.796 375.312 162.188 374.944C161.596 374.576 160.908 374.392 160.124 374.392C159.356 374.392 158.668 374.584 158.06 374.968C157.468 375.336 156.996 375.848 156.644 376.504C156.308 377.144 156.14 377.872 156.14 378.688C156.14 379.504 156.308 380.24 156.644 380.896C156.996 381.536 157.468 382.04 158.06 382.408C158.668 382.776 159.356 382.96 160.124 382.96ZM175.854 385.24C174.558 385.24 173.406 384.968 172.398 384.424C171.406 383.864 170.622 383.104 170.046 382.144C169.486 381.184 169.206 380.08 169.206 378.832C169.206 377.84 169.366 376.936 169.686 376.12C170.006 375.304 170.446 374.6 171.006 374.008C171.582 373.4 172.262 372.936 173.046 372.616C173.846 372.28 174.71 372.112 175.638 372.112C176.454 372.112 177.214 372.272 177.918 372.592C178.622 372.896 179.23 373.32 179.742 373.864C180.27 374.408 180.67 375.056 180.942 375.808C181.23 376.544 181.366 377.352 181.35 378.232L181.326 379.288H171.03L170.478 377.32H179.19L178.83 377.728V377.152C178.782 376.624 178.606 376.152 178.302 375.736C177.998 375.32 177.614 374.992 177.15 374.752C176.686 374.512 176.182 374.392 175.638 374.392C174.774 374.392 174.046 374.56 173.454 374.896C172.862 375.216 172.414 375.696 172.11 376.336C171.806 376.96 171.654 377.736 171.654 378.664C171.654 379.544 171.838 380.312 172.206 380.968C172.574 381.608 173.094 382.104 173.766 382.456C174.438 382.808 175.214 382.984 176.094 382.984C176.718 382.984 177.294 382.88 177.822 382.672C178.366 382.464 178.95 382.088 179.574 381.544L180.822 383.296C180.438 383.68 179.966 384.016 179.406 384.304C178.862 384.592 178.278 384.824 177.654 385C177.046 385.16 176.446 385.24 175.854 385.24ZM183.989 385V372.4H186.485V375.088L186.029 375.376C186.157 374.96 186.357 374.56 186.629 374.176C186.917 373.792 187.261 373.456 187.661 373.168C188.077 372.864 188.517 372.624 188.981 372.448C189.461 372.272 189.949 372.184 190.445 372.184C191.165 372.184 191.797 372.304 192.341 372.544C192.885 372.784 193.333 373.144 193.685 373.624C194.037 374.104 194.293 374.704 194.453 375.424L194.069 375.328L194.237 374.92C194.413 374.552 194.653 374.208 194.957 373.888C195.277 373.552 195.637 373.256 196.037 373C196.437 372.744 196.861 372.544 197.309 372.4C197.757 372.256 198.197 372.184 198.629 372.184C199.573 372.184 200.349 372.376 200.957 372.76C201.581 373.144 202.045 373.728 202.349 374.512C202.669 375.296 202.829 376.272 202.829 377.44V385H200.333V377.584C200.333 376.864 200.237 376.28 200.045 375.832C199.869 375.368 199.597 375.024 199.229 374.8C198.861 374.576 198.389 374.464 197.813 374.464C197.365 374.464 196.941 374.544 196.541 374.704C196.157 374.848 195.821 375.056 195.533 375.328C195.245 375.6 195.021 375.92 194.861 376.288C194.701 376.64 194.621 377.032 194.621 377.464V385H192.125V377.536C192.125 376.88 192.029 376.328 191.837 375.88C191.645 375.416 191.365 375.064 190.997 374.824C190.629 374.584 190.181 374.464 189.653 374.464C189.205 374.464 188.789 374.544 188.405 374.704C188.021 374.848 187.685 375.056 187.397 375.328C187.109 375.584 186.885 375.896 186.725 376.264C186.565 376.616 186.485 377 186.485 377.416V385H183.989ZM210.338 385.24C209.282 385.24 208.33 385.056 207.482 384.688C206.634 384.32 205.93 383.776 205.37 383.056L207.05 381.616C207.53 382.176 208.05 382.584 208.61 382.84C209.186 383.08 209.834 383.2 210.554 383.2C210.842 383.2 211.106 383.168 211.346 383.104C211.602 383.024 211.818 382.912 211.994 382.768C212.186 382.624 212.33 382.456 212.426 382.264C212.522 382.056 212.57 381.832 212.57 381.592C212.57 381.176 212.418 380.84 212.114 380.584C211.954 380.472 211.698 380.352 211.346 380.224C211.01 380.08 210.57 379.936 210.026 379.792C209.098 379.552 208.338 379.28 207.746 378.976C207.154 378.672 206.698 378.328 206.378 377.944C206.138 377.64 205.962 377.312 205.85 376.96C205.738 376.592 205.682 376.192 205.682 375.76C205.682 375.232 205.794 374.752 206.018 374.32C206.258 373.872 206.578 373.488 206.978 373.168C207.394 372.832 207.874 372.576 208.418 372.4C208.978 372.224 209.57 372.136 210.194 372.136C210.786 372.136 211.37 372.216 211.946 372.376C212.538 372.536 213.082 372.768 213.578 373.072C214.074 373.376 214.49 373.736 214.826 374.152L213.41 375.712C213.106 375.408 212.77 375.144 212.402 374.92C212.05 374.68 211.69 374.496 211.322 374.368C210.954 374.24 210.618 374.176 210.314 374.176C209.978 374.176 209.674 374.208 209.402 374.272C209.13 374.336 208.898 374.432 208.706 374.56C208.53 374.688 208.394 374.848 208.298 375.04C208.202 375.232 208.154 375.448 208.154 375.688C208.17 375.896 208.218 376.096 208.298 376.288C208.394 376.464 208.522 376.616 208.682 376.744C208.858 376.872 209.122 377.008 209.474 377.152C209.826 377.296 210.274 377.432 210.818 377.56C211.618 377.768 212.274 378 212.786 378.256C213.314 378.496 213.73 378.776 214.034 379.096C214.354 379.4 214.578 379.752 214.706 380.152C214.834 380.552 214.898 381 214.898 381.496C214.898 382.216 214.69 382.864 214.274 383.44C213.874 384 213.33 384.44 212.642 384.76C211.954 385.08 211.186 385.24 210.338 385.24Z" fill="#FAF9F6"/>
<path d="M238.996 131.441C200.446 129.599 145.307 150.958 122.556 161.867L152.817 201.338L266.955 165.321L269.75 157.426L244.752 130.783L238.996 131.441Z" fill="#B37B62"/>
<path d="M255.443 162.36C249.917 142.756 240.313 133.689 236.201 131.606L242.451 131.112L259.39 144.105L265.64 162.031L255.443 162.36Z" fill="#934F59"/>
<path d="M226.827 203.805L237.846 239.165V242.125L159.068 266.466L99.5328 255.447L98.7104 245.25L145.582 209.89L228.965 177.162L230.939 181.603C223.834 187.392 225.237 198.817 226.827 203.805Z" fill="#633C59"/>
<path d="M279.126 183.412C282.152 180.517 288.116 176.998 290.638 175.682L274.192 166.801L178.31 195.418L143.279 215.811L142.622 225.021C201.039 187.129 257.965 181.493 279.126 183.412Z" fill="#95515E"/>
<path d="M226.498 203.476C234.261 204.792 266.243 216.03 281.758 221.238C271.725 226.337 237.188 238.836 237.353 238.178C237.484 237.652 230.171 214.824 226.498 203.476Z" fill="#FCBC53"/>
<path d="M222.714 204.956L99.0381 252.486L148.541 268.932L203.308 254.46L258.074 228.146L222.714 204.956Z" fill="#F89839"/>
<path d="M258.898 231.565L244.754 208.739L226.334 203.312L237.409 239.165L258.898 231.565Z" fill="#D17657"/>
<path d="M93.6112 170.584C88.0853 176.767 89.0063 193.334 90.1575 200.845L142.95 218.771C220.708 175.09 273.808 171.845 290.638 175.682C277.81 139.5 247.713 123.218 242.45 121.574C237.187 119.929 222.221 122.067 219.261 124.863C216.893 127.1 215.369 131.003 214.82 132.757C219.533 131.972 232.83 131.501 239.066 131.28L239.161 131.277C252.844 138.25 262.295 154.576 265.311 161.867C229.523 161.209 177.268 185.495 155.614 197.72C135.615 166.801 119.542 158.852 114.005 158.742C109.509 160.113 99.1372 164.4 93.6112 170.584Z" fill="#FDBC56"/>
<path d="M102.822 170.748C128.872 163.512 146.678 196.459 152.325 213.837L143.279 218.442L90.1579 200.845C87.0331 185.714 90.8158 171.57 94.5985 169.597C94.5985 173.018 100.026 171.735 102.822 170.748Z" fill="#D47654"/>
<path d="M107.098 171.899C80.5206 188.74 90.4323 227.817 98.7102 245.25C112.13 230.909 134.015 221.732 143.28 218.936C135.78 185.385 116.034 173.599 107.098 171.899Z" fill="#7D415A"/>
<path d="M103.644 240.645C89.1716 189.859 106.166 176.395 116.472 176.011C132.261 184.037 141.251 207.753 143.444 218.772C123.709 224.692 108.469 235.931 103.644 240.645Z" fill="#95515E"/>
<path d="M89.8294 204.956C89.9609 198.509 98.217 189.661 102.329 186.043C93.7764 202.226 99.752 228.968 103.809 240.316C103.019 240.974 100.081 243.879 98.7104 245.25C89.0071 221.238 89.6649 213.015 89.8294 204.956Z" fill="#976B60"/>
<path d="M106.605 195.418C97.9217 203.443 101.123 228.913 103.81 240.48C116.835 229.955 131.713 222.938 137.524 220.909C133.413 205.45 117.46 185.385 106.605 195.418Z" fill="#BA8E66"/>
<path d="M159.069 257.091C150.517 259.723 141.362 259.503 137.853 259.065L152.161 265.972L273.206 229.955L282.745 221.567L276.66 219.429C227.814 239.165 169.759 253.802 159.069 257.091Z" fill="#95515E"/>
<path d="M167.127 259.723C161.206 261.696 157.643 261.751 156.601 261.532L154.463 272.88L160.384 296.234C161.59 302.702 164.167 316.528 164.825 320.081C165.482 323.633 170.8 331.209 173.377 334.553C213.177 320.3 293.336 291.629 295.573 290.971C297.809 290.313 296.943 288.833 296.23 288.175C294.092 286.256 289.422 282.09 287.843 280.774C286.264 279.458 285.211 276.937 284.882 275.84C283.457 262.628 280.968 236.073 282.415 235.547C283.863 235.02 283.347 226.172 282.744 221.567C240.971 240.316 174.528 257.256 167.127 259.723Z" fill="#FEBD57"/>
<path d="M99.6973 251.993C99.0395 250.019 99.0395 247.059 98.7105 245.25V247.552V250.513C97.658 250.513 97.0659 251.39 96.9015 251.829C96.2436 256.269 97.8882 261.532 98.7105 261.861C99.3684 262.124 99.7521 263.286 99.8618 263.834L102.164 296.562C100.849 298.975 97.7896 304.095 96.0792 305.279C94.3688 306.463 95.3665 307.527 96.0792 307.91L162.522 335.376C167.39 314.588 163.125 288.559 160.384 278.143C155.45 273.538 155.45 270.084 156.437 266.959C157.226 264.459 156.766 262.299 156.437 261.532C140.78 260.348 112.087 254.679 99.6973 251.993Z" fill="#D07755"/>
<path d="M173.377 334.553C168.377 337.053 163.893 336.088 162.358 335.376C163.147 333.797 164.167 324.028 164.66 319.752C165.318 322.383 170.855 331.045 173.377 334.553Z" fill="#FFF088"/>
<path d="M273.206 239.494C258.601 246.73 199.691 266.849 172.061 276.004L175.844 316.133C180.449 314.686 245.411 291.848 277.317 280.609C277.712 274.031 274.741 250.458 273.206 239.494Z" fill="#AF8668"/>
<path d="M151.009 181.109C134.431 163.216 125.572 160.826 123.215 161.867L155.778 197.72L171.731 189.168C168.442 187.852 166.469 188.017 160.712 187.03C156.107 186.241 152.325 182.754 151.009 181.109Z" fill="#9A595F"/>
<path d="M100.355 263.505C101.497 263.853 104.412 264.736 106.933 265.479" stroke="#A45534" stroke-linecap="round"/>
<path d="M102.657 296.398C103.799 296.746 106.714 297.629 109.236 298.372" stroke="#A45534" stroke-linecap="round"/>
<path d="M151.667 278.599C155.383 279.462 164.597 280.217 171.731 276.333" stroke="#A45534" stroke-linecap="round"/>
<path d="M154.628 315.804L164.764 319.752L175.679 315.804" stroke="#A45534" stroke-linecap="round"/>
<path d="M151.337 278.307C141.996 277.123 118.171 269.152 107.426 265.314C107.031 266.498 108.906 288.175 109.893 298.865L154.298 316.133C153.64 314.16 152.05 290.093 151.337 278.307Z" fill="#774355"/>
<path d="M277.646 279.951L284.882 277.32" stroke="#A45534" stroke-linecap="round"/>
<path d="M273.699 239.823C275.156 239.196 278.774 237.594 281.593 236.205" stroke="#A45534" stroke-linecap="round"/>
<path d="M142.458 225.185C131.143 225.843 108.469 239.055 98.7104 245.25C111.21 231.599 135.769 220.526 145.911 217.127C143.806 218.179 142.732 222.938 142.458 225.185Z" fill="#7D415A"/>
<path d="M242.615 128.81C232.089 125.126 230.554 122.341 231.102 121.409C227.977 121.793 220.741 123.054 218.767 125.356C216.647 127.83 215.149 131.112 214.82 132.757C218.11 132.099 232.637 131.441 239.325 131.441C254.193 139.467 261.692 154.466 265.31 161.867C268.731 161.735 269.915 161.538 269.915 159.893C268.929 152.493 255.772 133.415 242.615 128.81Z" fill="#D47650"/>
<path d="M178.639 323.699C178.112 321.857 184.34 319.094 187.52 317.942C191.302 316.736 198.999 314.851 199.525 316.956C200.182 319.581 193.798 321.879 189.686 323.36L189.658 323.37C185.546 324.85 179.296 326.001 178.639 323.699Z" fill="#FEF189"/>
<path d="M204.459 315.64C203.933 314.324 205.336 313.228 206.104 312.844C206.981 312.57 208.9 312.351 209.558 313.666C210.215 314.982 208.516 316.079 207.584 316.462C206.762 316.736 204.986 316.956 204.459 315.64Z" fill="#FEF189"/>
<path d="M259.225 295.082C257.383 293.503 265.365 290.477 269.587 289.161C273.369 287.846 281.099 285.774 281.757 288.01C282.415 290.247 275.891 292.67 272.547 293.602C268.874 294.753 261.067 296.661 259.225 295.082Z" fill="#FEF189"/>
<path d="M170.415 267.452C169.494 265.742 171.567 264.547 172.718 264.163C173.869 263.779 176.336 263.571 176.994 265.808C177.652 268.044 175.294 269.042 174.034 269.261C173.211 269.371 171.336 269.163 170.415 267.452Z" fill="#FEF189"/>
<path d="M181.106 264.163C179.527 261.269 187.794 258.352 192.125 257.256C195.195 256.379 201.598 255.019 202.65 256.598C203.703 258.177 197.497 261.203 194.263 262.519C190.535 264.273 182.684 267.058 181.106 264.163Z" fill="#FEF189"/>
<path d="M111.373 163.676C114.531 161.966 120.912 165.376 123.708 167.295C132.26 174.136 131.767 176.943 130.451 177.491C129.903 177.656 128.379 177.524 126.668 175.682C124.53 173.38 118.445 169.433 113.676 167.295C109.86 165.584 110.551 164.17 111.373 163.676Z" fill="#FEF189"/>
<path d="M138.345 187.195C136.24 186.537 134.288 184.289 133.576 183.247C132.26 181.274 134.069 179.958 135.714 180.78C137.029 181.438 138.345 183.357 138.839 184.234C139.551 185.495 140.45 187.852 138.345 187.195Z" fill="#FEF189"/>
<path d="M151.831 207.917C150.647 206.338 157.587 201.996 161.205 200.023C166.962 196.461 172.06 194.924 173.047 195.911C173.836 196.7 167.565 200.845 164.33 202.818C160.657 205.176 153.015 209.496 151.831 207.917Z" fill="#FEF189"/>
<path d="M232.747 175.189C233.273 174.399 236.365 172.996 237.845 172.393C240.148 171.366 242.779 173.709 240.312 174.86C238.339 175.781 234.994 176.121 233.569 176.175C233.076 176.175 232.221 175.978 232.747 175.189Z" fill="#FEF189"/>
<path d="M244.917 171.242C244.786 169.005 252.318 167.24 256.101 166.637C261.034 165.586 267.777 165.65 268.271 167.459C268.666 168.906 261.199 170.803 257.416 171.571C253.305 172.393 245.049 173.478 244.917 171.242Z" fill="#FEF189"/>
<path d="M261.034 143.941C258.535 141.573 258.677 140.432 259.061 140.158C262.515 136.704 276.001 155.782 277.645 160.058C279.29 164.334 276.001 162.196 274.849 160.058C273.698 157.92 264.159 146.901 261.034 143.941Z" fill="#FEF189"/>
<path d="M190.646 203.312L182.587 209.397L187.027 211.864L194.428 210.816L199.362 209.071L190.646 203.312Z" fill="#C495C9"/>
<circle cx="252.647" cy="215.811" r="2.30248" fill="#E6EFE5"/>
<path d="M253.177 215.592C253.059 215.356 252.823 214.813 252.823 214.529C252.965 213.963 253.473 214.293 253.709 214.529C254.004 214.825 254.488 215.486 254.063 215.769C253.638 216.053 253.296 215.769 253.177 215.592Z" fill="#F3F5EC"/>
<circle cx="256.264" cy="213.179" r="2.30248" fill="#E6EFE5"/>
<path d="M256.796 212.961C256.678 212.725 256.442 212.182 256.442 211.898C256.584 211.332 257.091 211.662 257.327 211.898C257.623 212.194 258.107 212.855 257.682 213.138C257.257 213.422 256.914 213.138 256.796 212.961Z" fill="#F3F5EC"/>
<circle cx="260.212" cy="210.877" r="2.30248" fill="#E6EFE5"/>
<path d="M260.744 210.659C260.626 210.423 260.39 209.88 260.39 209.596C260.532 209.029 261.04 209.36 261.276 209.596C261.571 209.891 262.055 210.553 261.63 210.836C261.205 211.119 260.862 210.836 260.744 210.659Z" fill="#F3F5EC"/>
<circle cx="285.869" cy="239.823" r="2.30248" fill="#E6EFE5"/>
<path d="M286.401 239.604C286.283 239.368 286.047 238.825 286.047 238.541C286.189 237.975 286.696 238.305 286.932 238.541C287.228 238.837 287.712 239.498 287.287 239.781C286.862 240.065 286.519 239.781 286.401 239.604Z" fill="#F3F5EC"/>
<circle cx="286.856" cy="244.098" r="2.30248" fill="#E6EFE5"/>
<path d="M287.388 243.88C287.27 243.644 287.034 243.101 287.034 242.817C287.175 242.251 287.683 242.581 287.919 242.817C288.214 243.113 288.699 243.774 288.273 244.057C287.848 244.341 287.506 244.057 287.388 243.88Z" fill="#F3F5EC"/>
<circle cx="288.829" cy="248.046" r="2.30248" fill="#E6EFE5"/>
<path d="M289.36 247.827C289.242 247.591 289.006 247.048 289.006 246.764C289.148 246.198 289.655 246.528 289.891 246.764C290.187 247.06 290.671 247.721 290.246 248.004C289.821 248.288 289.478 248.004 289.36 247.827Z" fill="#F3F5EC"/>
<circle cx="291.46" cy="251.664" r="2.30248" fill="#E6EFE5"/>
<path d="M291.99 251.446C291.872 251.21 291.636 250.667 291.636 250.383C291.777 249.816 292.285 250.147 292.521 250.383C292.817 250.678 293.301 251.34 292.876 251.623C292.45 251.906 292.108 251.623 291.99 251.446Z" fill="#F3F5EC"/>
<circle cx="294.751" cy="254.624" r="2.30248" fill="#E6EFE5"/>
<path d="M295.281 254.406C295.163 254.17 294.927 253.627 294.927 253.343C295.069 252.777 295.577 253.107 295.813 253.343C296.108 253.639 296.592 254.3 296.167 254.583C295.742 254.867 295.4 254.583 295.281 254.406Z" fill="#F3F5EC"/>
<circle cx="298.698" cy="256.598" r="2.30248" fill="#E6EFE5"/>
<path d="M299.228 256.379C299.11 256.143 298.874 255.6 298.874 255.317C299.016 254.75 299.523 255.08 299.76 255.317C300.055 255.612 300.539 256.273 300.114 256.556C299.689 256.84 299.346 256.556 299.228 256.379Z" fill="#F3F5EC"/>
<circle cx="264.159" cy="208.575" r="2.30248" fill="#E6EFE5"/>
<path d="M264.692 208.356C264.574 208.12 264.337 207.577 264.337 207.293C264.479 206.727 264.987 207.057 265.223 207.293C265.518 207.589 266.002 208.25 265.577 208.533C265.152 208.817 264.81 208.533 264.692 208.356Z" fill="#F3F5EC"/>
<circle cx="268.436" cy="207.916" r="2.30248" fill="#E6EFE5"/>
<path d="M268.967 207.698C268.849 207.462 268.613 206.919 268.613 206.635C268.754 206.069 269.262 206.399 269.498 206.635C269.794 206.931 270.278 207.592 269.853 207.875C269.428 208.159 269.085 207.875 268.967 207.698Z" fill="#F3F5EC"/>
<path d="M194.591 210.877L193.44 217.784C191.203 218.048 189.218 218.881 188.506 219.265L187.19 211.864L194.591 210.877Z" fill="#A77EB6"/>
<path d="M237.085 220.412C233.387 220.535 231.891 217.495 231.606 215.96L252.323 210.28C253.419 212.491 252.894 214.067 252.494 214.578C252.152 214.988 251.09 216.083 249.584 217.188C247.7 218.57 241.708 220.259 237.085 220.412Z" fill="#DD852B"/>
<path d="M231.606 215.653C231.332 212.829 237.199 210.076 240.167 209.052C243.192 208.131 249.755 206.903 251.809 209.359C254.378 212.43 247.529 215.5 244.618 216.728C241.708 217.956 231.948 219.184 231.606 215.653Z" fill="#FBBB51"/>
<path d="M232.642 215.274C232.398 212.946 237.62 210.678 240.261 209.834C242.953 209.075 248.794 208.063 250.622 210.087C252.908 212.618 246.813 215.148 244.222 216.16C241.632 217.172 232.947 218.184 232.642 215.274Z" stroke="#EDB057"/>
<path d="M238.455 210.434C242.221 209.154 250.029 207.486 251.125 211.048C250.782 210.28 247.769 209.083 238.455 210.434Z" fill="#EFEDBD"/>
<path d="M126.997 238.343L118.445 239.658L125.024 242.29L128.149 246.895C128.543 245.974 129.519 245.195 129.958 244.921L126.997 238.343Z" fill="#F1FFFF"/>
<path d="M116.472 248.046L118.117 239.823L125.024 242.289L128.149 246.894C127.754 247.947 127.875 248.649 127.985 248.868C126.143 249.394 124.037 251.28 123.215 252.157L116.472 248.046Z" fill="#E3F7F8"/>
<path d="M116.472 248.046L120.584 247.059L118.281 239.823L125.024 242.29L126.998 238.343" stroke="#C8CDD1" stroke-width="0.5"/>
<path d="M125.025 250.677L120.584 247.059L125.025 242.289L128.15 246.894" stroke="#C8CDD1" stroke-width="0.5"/>
<path d="M146.5 249.091C147.449 251.508 144.291 253.648 142.593 254.416L131.549 242.76C133.844 241.197 135.766 240.953 136.44 241.027C136.984 241.1 138.472 241.395 140.069 241.982C142.065 242.716 145.312 246.07 146.5 249.091Z" fill="#DD852B"/>
<path d="M142.243 254.532C139.064 255.779 134.624 252.908 132.801 251.318C131.083 249.65 128.239 245.742 130.606 243.449C133.565 240.582 138.584 243.986 140.629 245.462C142.673 246.938 146.217 252.974 142.243 254.532Z" fill="#FBBB51"/>
<path d="M141.581 253.985C138.966 255.024 135.222 252.402 133.677 250.961C132.218 249.454 129.779 245.945 131.7 243.965C134.102 241.49 138.336 244.596 140.064 245.94C141.791 247.284 144.851 252.686 141.581 253.985Z" stroke="#EDB057"/>
<path d="M140.148 246.146C137.766 244.157 132.621 241.202 131.101 245.299C131.503 244.429 133.876 243.381 140.148 246.146Z" fill="#EFEDBD"/>
<path d="M236.676 216.687C236.485 219.642 232.194 220.323 230.072 220.293L224.328 202.908C227.45 202.407 229.55 203.086 230.209 203.488C230.735 203.828 232.126 204.852 233.488 206.232C235.191 207.957 236.914 212.993 236.676 216.687Z" fill="#DD852B"/>
<path d="M229.653 220.242C225.773 219.989 222.585 214.875 221.476 212.35C220.512 209.796 219.472 204.384 223.022 203.162C227.46 201.636 230.985 207.581 232.379 210.095C233.773 212.61 234.504 220.558 229.653 220.242Z" fill="#FBBB51"/>
<path d="M229.236 219.357C226.036 219.163 223.446 214.642 222.551 212.406C221.776 210.144 220.961 205.34 223.9 204.226C227.573 202.834 230.435 208.091 231.565 210.315C232.695 212.539 233.235 219.6 229.236 219.357Z" stroke="#EDB057"/>
<path d="M231.552 210.569C230.059 207.361 226.185 201.819 222.636 205.312C223.472 204.609 226.425 204.676 231.552 210.569Z" fill="#EFEDBD"/>
<path d="M214.321 215.587C215.213 218.024 212.619 219.936 211.21 220.587L201.431 208.434C203.317 207.038 204.935 206.916 205.508 207.03C205.972 207.136 207.242 207.518 208.615 208.194C210.332 209.039 213.204 212.541 214.321 215.587Z" fill="#DD852B"/>
<path d="M210.915 220.679C208.27 221.709 204.406 218.611 202.804 216.933C201.289 215.186 198.737 211.165 200.657 209.054C203.056 206.415 207.43 210.075 209.215 211.653C211 213.232 214.222 219.391 210.915 220.679Z" fill="#FBBB51"/>
<path d="M210.336 220.1C208.16 220.961 204.894 218.15 203.533 216.636C202.243 215.063 200.05 211.46 201.603 209.63C203.545 207.342 207.244 210.66 208.755 212.089C210.267 213.518 213.056 219.024 210.336 220.1Z" stroke="#EDB057"/>
<path d="M208.834 212.297C206.744 210.193 202.28 206.968 201.144 210.905C201.453 210.074 203.423 209.189 208.834 212.297Z" fill="#EFEDBD"/>
<path d="M239.326 214.66L240.971 221.074C242.681 220.416 245.96 220.032 247.385 219.922L249.523 214.66L244.096 211.042L239.326 214.66Z" fill="#EF3356"/>
<path d="M240.971 221.074L239.326 214.66L244.096 211.042L249.523 214.66L247.385 219.922" stroke="#AD2062" stroke-width="0.5"/>
<path d="M239.491 214.66L241.794 216.14L244.096 211.206L246.728 215.646L249.359 214.824" stroke="#AD2062" stroke-width="0.5"/>
<path d="M242.45 220.581L241.792 216.14L246.726 215.647L245.74 220.087" stroke="#AD2062" stroke-width="0.5"/>
<circle cx="221.07" cy="239.823" r="2.30248" fill="#E6EFE5"/>
<path d="M221.601 239.604C221.483 239.368 221.247 238.825 221.247 238.541C221.388 237.975 221.896 238.305 222.132 238.541C222.427 238.837 222.911 239.498 222.486 239.781C222.061 240.065 221.719 239.781 221.601 239.604Z" fill="#F3F5EC"/>
<path d="M178.134 229.344C175.124 231.005 172.474 228.838 171.525 227.546L186.067 213.652C188.001 215.225 188.297 216.893 188.203 217.531C188.109 218.05 187.737 219.501 187.001 221.148C186.081 223.206 181.896 227.267 178.134 229.344Z" fill="#DD852B"/>
<path d="M171.383 227.264C169.845 224.783 173.432 219.796 175.418 217.613C177.499 215.5 182.371 211.623 185.214 213.02C188.769 214.767 184.515 220.456 182.671 222.804C180.828 225.151 173.306 230.366 171.383 227.264Z" fill="#FBBB51"/>
<path d="M172.066 226.482C170.783 224.445 174.06 220.173 175.858 218.292C177.738 216.468 182.111 213.092 184.567 214.187C187.636 215.555 183.757 220.433 182.079 222.448C180.401 224.462 173.669 229.029 172.066 226.482Z" stroke="#EDB057"/>
<path d="M174.64 219.599C177.169 216.846 182.869 212.044 185.43 214.859C184.79 214.297 181.736 214.458 174.64 219.599Z" fill="#EFEDBD"/>
<path d="M205.027 243.02C202.441 241.644 203.036 238.306 203.656 236.808L220.792 240.016C220.365 242.447 219.17 243.656 218.626 243.956C218.176 244.187 216.871 244.747 215.257 245.138C213.24 245.625 208.259 244.739 205.027 243.02Z" fill="#DD852B"/>
<path d="M203.82 236.532C205.133 233.878 210.593 233.755 213.159 234.026C215.71 234.411 220.835 235.942 220.931 238.98C221.052 242.777 214.754 242.791 212.118 242.728C209.482 242.665 202.178 239.85 203.82 236.532Z" fill="#FBBB51"/>
<path d="M204.727 236.607C205.797 234.412 210.56 234.466 212.808 234.768C215.045 235.165 219.564 236.601 219.735 239.158C219.949 242.356 214.452 242.186 212.149 242.057C209.846 241.928 203.389 239.35 204.727 236.607Z" stroke="#EDB057"/>
<path d="M211.258 234.582C214.505 234.943 220.712 236.578 219.568 240.226C219.742 239.397 218.324 237.108 211.258 234.582Z" fill="#EFEDBD"/>
<path d="M237.413 233.898C233.715 234.037 232.22 230.597 231.935 228.86L252.652 222.433C253.747 224.934 253.222 226.718 252.823 227.297C252.48 227.76 251.419 228.999 249.912 230.25C248.029 231.813 242.036 233.724 237.413 233.898Z" fill="#DD852B"/>
<path d="M231.935 228.513C231.661 225.316 237.528 222.201 240.495 221.043C243.52 220.001 250.083 218.611 252.138 221.391C254.706 224.865 247.858 228.339 244.947 229.729C242.036 231.119 232.277 232.508 231.935 228.513Z" fill="#FBBB51"/>
<path d="M232.971 228.084C232.727 225.45 237.949 222.882 240.59 221.928C243.282 221.069 249.123 219.924 250.951 222.214C253.237 225.078 247.142 227.941 244.551 229.086C241.961 230.231 233.276 231.377 232.971 228.084Z" stroke="#EDB057"/>
<path d="M238.784 222.607C242.55 221.159 250.358 219.271 251.454 223.301C251.111 222.433 248.098 221.078 238.784 222.607Z" fill="#EFEDBD"/>
<path d="M256.877 222.386C253.805 222.49 252.563 219.93 252.326 218.637L269.537 213.854C270.447 215.716 270.011 217.043 269.679 217.474C269.395 217.819 268.513 218.741 267.261 219.672C265.696 220.835 260.718 222.257 256.877 222.386Z" fill="#DD852B"/>
<path d="M252.325 218.379C252.097 216 256.972 213.682 259.437 212.82C261.95 212.044 267.403 211.01 269.109 213.078C271.243 215.664 265.553 218.25 263.135 219.284C260.717 220.318 252.61 221.352 252.325 218.379Z" fill="#FBBB51"/>
<path d="M253.187 218.06C252.984 216.1 257.322 214.189 259.516 213.479C261.752 212.84 266.605 211.987 268.124 213.692C270.023 215.823 264.959 217.954 262.807 218.806C260.655 219.658 253.44 220.511 253.187 218.06Z" stroke="#EDB057"/>
<path d="M258.014 213.983C261.143 212.906 267.63 211.501 268.54 214.5C268.256 213.854 265.752 212.846 258.014 213.983Z" fill="#EFEDBD"/>
<circle cx="159.233" cy="258.571" r="2.30248" fill="#E6EFE5"/>
<path d="M159.762 258.353C159.644 258.117 159.408 257.573 159.408 257.29C159.55 256.723 160.058 257.054 160.294 257.29C160.589 257.585 161.073 258.246 160.648 258.53C160.223 258.813 159.881 258.53 159.762 258.353Z" fill="#F3F5EC"/>
<path d="M187.191 211.864L182.75 209.397L186.204 221.074C186.994 220.021 188.068 219.429 188.507 219.265L187.191 211.864Z" fill="#9F66AB"/>
<path d="M199.526 209.233L194.592 210.877L193.44 217.785C194.361 217.653 195.798 217.73 196.401 217.785L199.526 209.233Z" fill="#9F66AB"/>
<path d="M182.75 209.397L187.191 211.864L190.645 203.641L194.592 210.877L199.361 209.232" stroke="#904F9F" stroke-width="0.5"/>
<path d="M188.506 219.265C188.374 219.001 187.574 214.221 187.19 211.864L194.591 210.877L193.44 217.784" stroke="#904F9F" stroke-width="0.5"/>
<path d="M186.204 221.074L182.75 209.397L190.645 203.476L199.526 209.233L196.401 217.785" stroke="#904F9F" stroke-width="0.5"/>
<path d="M188.088 240.752C184.563 241.212 182.831 238.103 182.406 236.491L201.656 228.587C202.924 230.847 202.578 232.575 202.247 233.157C201.96 233.624 201.053 234.887 199.722 236.2C198.058 237.841 192.494 240.176 188.088 240.752Z" fill="#DD852B"/>
<path d="M182.376 236.163C181.834 233.175 187.172 229.716 189.908 228.36C192.71 227.108 198.865 225.213 201.074 227.65C203.835 230.697 197.59 234.582 194.928 236.151C192.267 237.72 183.055 239.899 182.376 236.163Z" fill="#FBBB51"/>
<path d="M183.328 235.667C182.864 233.205 187.632 230.32 190.074 229.185C192.574 228.136 198.06 226.536 200.009 228.533C202.447 231.028 196.869 234.27 194.492 235.58C192.115 236.891 183.909 238.744 183.328 235.667Z" stroke="#EDB057"/>
<path d="M188.409 229.985C191.884 228.285 199.186 225.811 200.588 229.512C200.184 228.724 197.183 227.715 188.409 229.985Z" fill="#EFEDBD"/>
<path d="M152.104 235.899C149.13 235.429 148.423 232.678 148.442 231.361L165.9 229.855C166.42 231.857 165.748 233.082 165.347 233.445C165.008 233.731 163.984 234.475 162.603 235.158C160.878 236.012 155.82 236.486 152.104 235.899Z" fill="#DD852B"/>
<path d="M148.49 231.107C148.724 228.723 153.852 227.347 156.386 226.958C158.95 226.662 164.389 226.658 165.636 229.012C167.195 231.954 161.232 233.441 158.71 234.009C156.189 234.577 148.197 234.086 148.49 231.107Z" fill="#FBBB51"/>
<path d="M149.381 230.953C149.559 228.985 154.094 227.912 156.338 227.621C158.61 227.408 163.438 227.472 164.573 229.432C165.993 231.883 160.719 233.038 158.488 233.477C156.256 233.916 149.157 233.412 149.381 230.953Z" stroke="#EDB057"/>
<path d="M154.799 227.839C158.012 227.36 164.516 227.184 164.82 230.306C164.669 229.617 162.455 228.158 154.799 227.839Z" fill="#EFEDBD"/>
<path d="M186.126 232.273C182.781 233.063 180.805 230.222 180.236 228.702L197.972 219.172C199.416 221.237 199.255 222.944 198.994 223.539C198.765 224.019 198.018 225.33 196.868 226.732C195.43 228.483 190.308 231.287 186.126 232.273Z" fill="#DD852B"/>
<path d="M180.175 228.388C179.356 225.547 184.149 221.678 186.647 220.098C189.218 218.613 194.952 216.178 197.32 218.322C200.279 221.002 194.656 225.373 192.251 227.152C189.846 228.931 181.199 231.939 180.175 228.388Z" fill="#FBBB51"/>
<path d="M181.041 227.814C180.35 225.477 184.651 222.218 186.888 220.881C189.189 219.621 194.308 217.537 196.382 219.28C198.975 221.459 193.93 225.141 191.774 226.642C189.617 228.142 181.905 230.737 181.041 227.814Z" stroke="#EDB057"/>
<path d="M185.365 221.819C188.54 219.834 195.319 216.726 197.035 220.173C196.569 219.449 193.581 218.765 185.365 221.819Z" fill="#EFEDBD"/>
<path d="M169.423 234.746C165.988 234.611 164.801 231.755 164.637 230.343L184.201 226.572C185.072 228.65 184.483 230.045 184.08 230.482C183.736 230.831 182.681 231.753 181.213 232.655C179.378 233.783 173.716 234.915 169.423 234.746Z" fill="#DD852B"/>
<path d="M164.657 230.065C164.587 227.485 170.202 225.379 173.019 224.648C175.881 224.014 182.042 223.338 183.785 225.702C185.965 228.658 179.419 230.986 176.642 231.906C173.866 232.826 164.744 233.29 164.657 230.065Z" fill="#FBBB51"/>
<path d="M165.642 229.79C165.568 227.663 170.553 225.953 173.055 225.364C175.598 224.855 181.076 224.326 182.638 226.284C184.59 228.731 178.779 230.62 176.313 231.365C173.847 232.11 165.734 232.449 165.642 229.79Z" stroke="#EDB057"/>
<path d="M171.343 225.787C174.916 224.878 182.258 223.885 183.041 227.188C182.774 226.469 180.06 225.182 171.343 225.787Z" fill="#EFEDBD"/>
<path d="M209.058 222.31C205.484 222.172 204.255 219.126 204.086 217.62L224.452 213.558C225.354 215.774 224.738 217.263 224.318 217.731C223.959 218.103 222.86 219.09 221.33 220.055C219.419 221.262 213.525 222.482 209.058 222.31Z" fill="#DD852B"/>
<path d="M204.108 217.323C204.041 214.57 209.888 212.311 212.82 211.526C215.8 210.844 222.212 210.11 224.021 212.63C226.283 215.781 219.468 218.278 216.577 219.266C213.685 220.253 204.193 220.765 204.108 217.323Z" fill="#FBBB51"/>
<path d="M205.134 217.028C205.061 214.758 210.252 212.923 212.856 212.29C215.504 211.742 221.205 211.167 222.826 213.253C224.853 215.861 218.802 217.888 216.235 218.689C213.667 219.489 205.225 219.867 205.134 217.028Z" stroke="#EDB057"/>
<path d="M211.073 212.745C214.793 211.767 222.435 210.694 223.243 214.217C222.967 213.451 220.145 212.082 211.073 212.745Z" fill="#EFEDBD"/>
<path d="M217.977 226.589C214.49 225.793 213.861 222.518 213.982 220.979L234.775 220.663C235.24 223.047 234.351 224.425 233.849 224.815C233.425 225.122 232.157 225.907 230.47 226.592C228.361 227.448 222.335 227.583 217.977 226.589Z" fill="#DD852B"/>
<path d="M214.06 220.686C214.518 217.918 220.695 216.734 223.726 216.488C226.785 216.354 233.228 216.8 234.527 219.656C236.151 223.226 228.976 224.471 225.947 224.926C222.917 225.382 213.488 224.147 214.06 220.686Z" fill="#FBBB51"/>
<path d="M215.122 220.579C215.483 218.293 220.935 217.413 223.615 217.258C226.322 217.197 232.036 217.671 233.233 220.058C234.729 223.042 228.395 223.957 225.719 224.285C223.043 224.613 214.672 223.437 215.122 220.579Z" stroke="#EDB057"/>
<path d="M221.776 217.386C225.619 217.093 233.335 217.425 233.459 221.101C233.333 220.283 230.82 218.394 221.776 217.386Z" fill="#EFEDBD"/>
<path d="M207.628 233.769C204.495 233.884 203.234 230.899 202.995 229.392L220.553 223.851C221.477 226.022 221.03 227.567 220.69 228.069C220.4 228.47 219.498 229.543 218.22 230.625C216.623 231.978 211.544 233.625 207.628 233.769Z" fill="#DD852B"/>
<path d="M202.996 229.092C202.769 226.32 207.743 223.627 210.259 222.628C212.823 221.729 218.384 220.534 220.12 222.947C222.29 225.963 216.484 228.965 214.016 230.166C211.548 231.366 203.28 232.556 202.996 229.092Z" fill="#FBBB51"/>
<path d="M203.872 228.721C203.67 226.437 208.096 224.219 210.335 223.395C212.617 222.654 217.566 221.67 219.111 223.659C221.042 226.145 215.875 228.619 213.679 229.608C211.484 230.597 204.125 231.577 203.872 228.721Z" stroke="#EDB057"/>
<path d="M208.806 223.98C211.999 222.731 218.615 221.106 219.537 224.602C219.248 223.849 216.698 222.669 208.806 223.98Z" fill="#EFEDBD"/>
<path d="M143.622 244.177C140.614 244.069 139.581 241.424 139.44 240.115L156.589 236.513C157.347 238.437 156.827 239.735 156.473 240.143C156.171 240.468 155.244 241.33 153.956 242.175C152.346 243.231 147.383 244.312 143.622 244.177Z" fill="#DD852B"/>
<path d="M139.458 239.857C139.403 237.462 144.327 235.478 146.796 234.785C149.305 234.182 154.704 233.522 156.226 235.708C158.128 238.441 152.389 240.636 149.954 241.504C147.519 242.373 139.527 242.85 139.458 239.857Z" fill="#FBBB51"/>
<path d="M140.322 239.596C140.262 237.622 144.634 236.009 146.827 235.449C149.056 234.963 153.856 234.444 155.22 236.253C156.925 238.515 151.829 240.298 149.667 241.003C147.505 241.708 140.397 242.064 140.322 239.596Z" stroke="#EDB057"/>
<path d="M145.324 235.851C148.457 234.989 154.892 234.029 155.57 237.091C155.338 236.425 152.963 235.245 145.324 235.851Z" fill="#EFEDBD"/>
<path d="M118.117 239.658L116.472 248.046L123.215 252.157" stroke="#C8CDD1" stroke-width="0.5"/>
<path d="M118.116 239.658L126.997 238.343L130.286 244.592" stroke="#C7CAD3" stroke-width="0.5"/>
<path d="M191.939 226.016C189.144 225.032 189.01 222.102 189.292 220.76L206.563 222.182C206.667 224.315 205.767 225.453 205.304 225.755C204.917 225.99 203.773 226.576 202.293 227.04C200.444 227.62 195.434 227.246 191.939 226.016Z" fill="#DD852B"/>
<path d="M189.391 220.509C190.098 218.114 195.358 217.579 197.9 217.611C200.451 217.743 205.738 218.661 206.477 221.277C207.401 224.546 201.307 225.054 198.742 225.206C196.176 225.359 188.507 223.503 189.391 220.509Z" fill="#FBBB51"/>
<path d="M190.285 220.502C190.854 218.523 195.477 218.195 197.717 218.279C199.968 218.446 204.648 219.33 205.357 221.525C206.245 224.269 200.886 224.555 198.63 224.624C196.373 224.694 189.574 222.976 190.285 220.502Z" stroke="#EDB057"/>
<path d="M196.179 218.241C199.398 218.297 205.755 219.22 205.423 222.46C205.415 221.73 203.556 219.865 196.179 218.241Z" fill="#EFEDBD"/>
<path d="M161.37 236.04L157.423 237.849L158.245 229.955L165.975 227.488L164.659 231.6L161.37 236.04Z" fill="#C495C9"/>
<path d="M165.975 227.488L164.659 231.6L167.784 235.053C168.442 234.395 168.935 234.067 169.593 233.902L165.975 227.488Z" fill="#9F66AB"/>
<path d="M161.535 236.04L157.588 237.849L164.002 240.481C164.166 239.494 164.166 239.329 164.66 238.507L161.535 236.04Z" fill="#9F66AB"/>
<path d="M164.001 240.48L157.423 237.849L158.245 229.79L165.975 227.323L169.593 233.902" stroke="#904F9F" stroke-width="0.5"/>
<path d="M164.659 238.507L161.37 236.04L164.659 231.599L167.784 235.053C166.863 235.843 165.317 237.684 164.659 238.507Z" fill="#A77EB6"/>
<path d="M157.423 237.849L161.37 236.04L158.41 229.955L164.659 231.6L165.975 227.488" stroke="#904F9F" stroke-width="0.5"/>
<path d="M164.659 238.507L161.37 236.04L164.659 231.599L167.784 235.053" stroke="#904F9F" stroke-width="0.5"/>
<path d="M227.484 229.955L226.826 235.382C224.59 235.645 223.153 236.04 222.715 236.204L219.919 229.79L224.524 225.35L227.484 229.955Z" fill="#E3F7F8"/>
<path d="M228.472 235.382H226.827L227.485 229.955L224.524 225.35L230.445 228.803L228.472 235.382Z" fill="#F1FFFF"/>
<path d="M219.919 229.79L223.044 230.777L224.524 225.514L227.484 230.119L230.445 228.803" stroke="#C8CDD1" stroke-width="0.5"/>
<path d="M224.359 235.711L223.043 230.777L227.483 230.119L226.826 235.382" stroke="#C8CDD1" stroke-width="0.5"/>
<path d="M222.715 236.204L219.919 229.79L224.524 225.35L230.445 228.803L228.471 235.382" stroke="#C8CDD1" stroke-width="0.5"/>
<circle cx="188.342" cy="274.195" r="2.13802" fill="#E6EFE5"/>
<path d="M188.836 273.992C188.727 273.773 188.507 273.269 188.507 273.005C188.639 272.479 189.11 272.786 189.33 273.005C189.604 273.28 190.053 273.894 189.659 274.157C189.264 274.42 188.946 274.157 188.836 273.992Z" fill="#F3F5EC"/>
<circle cx="185.711" cy="270.906" r="2.13802" fill="#E6EFE5"/>
<path d="M186.204 270.703C186.094 270.484 185.875 269.98 185.875 269.716C186.007 269.19 186.478 269.497 186.697 269.716C186.971 269.99 187.421 270.604 187.026 270.868C186.632 271.131 186.314 270.868 186.204 270.703Z" fill="#F3F5EC"/>
<circle cx="209.722" cy="287.681" r="2.13802" fill="#E6EFE5"/>
<path d="M210.217 287.479C210.107 287.259 209.888 286.755 209.888 286.492C210.02 285.965 210.491 286.272 210.71 286.492C210.985 286.766 211.434 287.38 211.039 287.643C210.645 287.906 210.327 287.643 210.217 287.479Z" fill="#F3F5EC"/>
<circle cx="213.669" cy="286.694" r="2.13802" fill="#E6EFE5"/>
<path d="M214.164 286.491C214.054 286.272 213.835 285.768 213.835 285.505C213.967 284.978 214.438 285.285 214.657 285.505C214.931 285.779 215.381 286.393 214.986 286.656C214.591 286.919 214.274 286.656 214.164 286.491Z" fill="#F3F5EC"/>
<circle cx="183.243" cy="267.123" r="2.30248" fill="#E6EFE5"/>
<path d="M183.775 266.905C183.657 266.669 183.42 266.126 183.42 265.842C183.562 265.275 184.07 265.606 184.306 265.842C184.601 266.137 185.085 266.799 184.66 267.082C184.235 267.365 183.893 267.082 183.775 266.905Z" fill="#F3F5EC"/>
<circle cx="179.954" cy="263.834" r="2.30248" fill="#E6EFE5"/>
<path d="M180.486 263.616C180.368 263.379 180.132 262.836 180.132 262.553C180.274 261.986 180.781 262.317 181.017 262.553C181.313 262.848 181.797 263.509 181.372 263.793C180.947 264.076 180.604 263.793 180.486 263.616Z" fill="#F3F5EC"/>
<circle cx="176.667" cy="260.874" r="2.30248" fill="#E6EFE5"/>
<path d="M177.197 260.655C177.078 260.419 176.842 259.876 176.842 259.592C176.984 259.026 177.492 259.356 177.728 259.592C178.023 259.888 178.507 260.549 178.082 260.832C177.657 261.116 177.315 260.832 177.197 260.655Z" fill="#F3F5EC"/>
<circle cx="172.719" cy="258.9" r="2.30248" fill="#E6EFE5"/>
<path d="M173.249 258.682C173.131 258.446 172.895 257.902 172.895 257.619C173.036 257.052 173.544 257.383 173.78 257.619C174.075 257.914 174.559 258.576 174.134 258.859C173.709 259.142 173.367 258.859 173.249 258.682Z" fill="#F3F5EC"/>
<circle cx="217.452" cy="284.885" r="2.30248" fill="#E6EFE5"/>
<path d="M217.983 284.667C217.865 284.431 217.629 283.888 217.629 283.604C217.771 283.038 218.278 283.368 218.514 283.604C218.81 283.9 219.294 284.561 218.869 284.844C218.444 285.128 218.101 284.844 217.983 284.667Z" fill="#F3F5EC"/>
<circle cx="221.4" cy="282.583" r="2.30248" fill="#E6EFE5"/>
<path d="M221.93 282.364C221.812 282.128 221.576 281.585 221.576 281.302C221.717 280.735 222.225 281.066 222.461 281.302C222.756 281.597 223.241 282.258 222.815 282.542C222.39 282.825 222.048 282.542 221.93 282.364Z" fill="#F3F5EC"/>
<circle cx="224.688" cy="279.623" r="2.30248" fill="#E6EFE5"/>
<path d="M225.219 279.404C225.101 279.168 224.865 278.625 224.865 278.342C225.007 277.775 225.515 278.105 225.751 278.342C226.046 278.637 226.53 279.298 226.105 279.581C225.68 279.865 225.338 279.581 225.219 279.404Z" fill="#F3F5EC"/>
<circle cx="227.978" cy="276.662" r="2.30248" fill="#E6EFE5"/>
<path d="M228.509 276.444C228.391 276.208 228.155 275.665 228.155 275.381C228.296 274.815 228.804 275.145 229.04 275.381C229.336 275.676 229.82 276.338 229.395 276.621C228.97 276.904 228.627 276.621 228.509 276.444Z" fill="#F3F5EC"/>
<circle cx="229.951" cy="272.715" r="2.30248" fill="#E6EFE5"/>
<path d="M230.482 272.496C230.364 272.26 230.128 271.717 230.128 271.434C230.27 270.867 230.777 271.198 231.013 271.434C231.309 271.729 231.793 272.39 231.368 272.674C230.943 272.957 230.6 272.674 230.482 272.496Z" fill="#F3F5EC"/>
<circle cx="230.608" cy="268.439" r="2.30248" fill="#E6EFE5"/>
<path d="M231.139 268.221C231.021 267.984 230.785 267.441 230.785 267.158C230.926 266.591 231.434 266.922 231.67 267.158C231.965 267.453 232.45 268.114 232.024 268.398C231.599 268.681 231.257 268.398 231.139 268.221Z" fill="#F3F5EC"/>
<circle cx="231.267" cy="264.163" r="2.30248" fill="#E6EFE5"/>
<path d="M231.798 263.945C231.68 263.709 231.443 263.165 231.443 262.882C231.585 262.315 232.093 262.646 232.329 262.882C232.624 263.177 233.108 263.838 232.683 264.122C232.258 264.405 231.916 264.122 231.798 263.945Z" fill="#F3F5EC"/>
<circle cx="230.608" cy="259.558" r="2.30248" fill="#E6EFE5"/>
<path d="M231.139 259.339C231.021 259.103 230.785 258.56 230.785 258.277C230.926 257.71 231.434 258.041 231.67 258.277C231.965 258.572 232.45 259.233 232.024 259.517C231.599 259.8 231.257 259.517 231.139 259.339Z" fill="#F3F5EC"/>
<circle cx="229.293" cy="255.282" r="2.30248" fill="#E6EFE5"/>
<path d="M229.824 255.063C229.706 254.827 229.47 254.284 229.47 254.001C229.612 253.434 230.12 253.765 230.356 254.001C230.651 254.296 231.135 254.957 230.71 255.24C230.285 255.524 229.943 255.24 229.824 255.063Z" fill="#F3F5EC"/>
<circle cx="228.307" cy="251.006" r="2.30248" fill="#E6EFE5"/>
<path d="M228.838 250.787C228.72 250.551 228.483 250.008 228.483 249.725C228.625 249.158 229.133 249.489 229.369 249.725C229.664 250.02 230.148 250.681 229.723 250.965C229.298 251.248 228.956 250.965 228.838 250.787Z" fill="#F3F5EC"/>
<circle cx="226.333" cy="247.059" r="2.30248" fill="#E6EFE5"/>
<path d="M226.864 246.841C226.746 246.605 226.51 246.061 226.51 245.778C226.651 245.211 227.159 245.542 227.395 245.778C227.691 246.073 228.175 246.734 227.75 247.018C227.324 247.301 226.982 247.018 226.864 246.841Z" fill="#F3F5EC"/>
<circle cx="224.032" cy="243.112" r="2.30248" fill="#E6EFE5"/>
<path d="M224.562 242.893C224.444 242.657 224.208 242.114 224.208 241.831C224.35 241.264 224.857 241.594 225.094 241.831C225.389 242.126 225.873 242.787 225.448 243.07C225.023 243.354 224.68 243.07 224.562 242.893Z" fill="#F3F5EC"/>
<circle cx="191.467" cy="277.32" r="2.30248" fill="#E6EFE5"/>
<path d="M191.998 277.102C191.88 276.866 191.644 276.323 191.644 276.039C191.786 275.472 192.293 275.803 192.53 276.039C192.825 276.334 193.309 276.996 192.884 277.279C192.459 277.562 192.116 277.279 191.998 277.102Z" fill="#F3F5EC"/>
<circle cx="194.428" cy="280.609" r="2.30248" fill="#E6EFE5"/>
<path d="M194.958 280.391C194.84 280.155 194.604 279.611 194.604 279.328C194.746 278.761 195.253 279.092 195.49 279.328C195.785 279.623 196.269 280.284 195.844 280.568C195.419 280.851 195.076 280.568 194.958 280.391Z" fill="#F3F5EC"/>
<circle cx="197.388" cy="283.57" r="2.30248" fill="#E6EFE5"/>
<path d="M197.917 283.352C197.799 283.116 197.563 282.572 197.563 282.289C197.705 281.722 198.212 282.053 198.449 282.289C198.744 282.584 199.228 283.245 198.803 283.529C198.378 283.812 198.035 283.529 197.917 283.352Z" fill="#F3F5EC"/>
<circle cx="201.007" cy="285.872" r="2.30248" fill="#E6EFE5"/>
<path d="M201.537 285.653C201.419 285.417 201.183 284.874 201.183 284.591C201.324 284.024 201.832 284.355 202.068 284.591C202.363 284.886 202.847 285.547 202.422 285.831C201.997 286.114 201.655 285.831 201.537 285.653Z" fill="#F3F5EC"/>
<circle cx="205.282" cy="287.517" r="2.30248" fill="#E6EFE5"/>
<path d="M205.813 287.298C205.695 287.062 205.459 286.519 205.459 286.236C205.601 285.669 206.108 285.999 206.345 286.236C206.64 286.531 207.124 287.192 206.699 287.475C206.274 287.759 205.931 287.475 205.813 287.298Z" fill="#F3F5EC"/>
<circle cx="168.442" cy="257.913" r="2.30248" fill="#E6EFE5"/>
<path d="M168.973 257.695C168.855 257.459 168.619 256.916 168.619 256.632C168.761 256.066 169.269 256.396 169.505 256.632C169.8 256.927 170.284 257.589 169.859 257.872C169.434 258.155 169.091 257.872 168.973 257.695Z" fill="#F3F5EC"/>
<circle cx="163.838" cy="257.913" r="2.30248" fill="#E6EFE5"/>
<path d="M164.369 257.695C164.251 257.459 164.015 256.916 164.015 256.632C164.156 256.066 164.664 256.396 164.9 256.632C165.195 256.927 165.68 257.589 165.254 257.872C164.829 258.155 164.487 257.872 164.369 257.695Z" fill="#F3F5EC"/>
<path d="M172.302 232.872C165.011 234.305 163.188 239.874 163.188 242.479C162.857 247.202 173.628 245.736 178.268 244.596C181.98 243.684 182.687 239.874 182.577 238.083C182.19 235.749 179.594 231.439 172.302 232.872Z" fill="#FAA53B"/>
<path d="M166.545 236.921C169.404 234.776 175.592 231.351 177.466 234.811C176.972 234.088 174.096 233.499 166.545 236.921Z" fill="#EFEDBD"/>
<path d="M186.445 239.779C179.154 241.212 177.331 246.781 177.331 249.387C176.999 254.109 187.771 252.644 192.411 251.504C196.123 250.592 196.83 246.781 196.719 244.99C196.333 242.656 193.736 238.346 186.445 239.779Z" fill="#FAA53B"/>
<path d="M180.689 243.828C183.548 241.683 189.736 238.259 191.61 241.718C191.116 240.995 188.24 240.406 180.689 243.828Z" fill="#EFEDBD"/>
<path d="M165.622 252.317C162.406 252.014 161.595 248.367 161.591 246.581L180.393 242.583C180.991 245.236 180.288 246.972 179.861 247.508C179.501 247.934 178.41 249.056 176.933 250.136C175.087 251.487 169.641 252.696 165.622 252.317Z" fill="#DD852B"/>
<path d="M161.638 246.231C161.848 242.975 167.354 240.537 170.081 239.725C172.841 239.036 178.707 238.421 180.094 241.47C181.828 245.281 175.423 247.964 172.714 249.016C170.004 250.069 161.376 250.301 161.638 246.231Z" fill="#FBBB51"/>
<path d="M162.592 245.923C162.75 243.237 167.621 241.274 170.037 240.628C172.484 240.085 177.691 239.63 178.951 242.159C180.526 245.319 174.859 247.476 172.46 248.321C170.061 249.165 162.395 249.279 162.592 245.923Z" stroke="#EDB057"/>
<path d="M168.384 241.096C171.842 240.088 178.853 239.12 179.237 243.315C179.062 242.398 176.647 240.671 168.384 241.096Z" fill="#EFEDBD"/>
<path d="M147.242 252.569C143.762 251.841 143.232 248.062 143.401 246.264L164.312 244.715C164.705 247.464 163.769 249.119 163.251 249.602C162.816 249.984 161.517 250.97 159.799 251.863C157.653 252.98 151.592 253.48 147.242 252.569Z" fill="#DD852B"/>
<path d="M143.489 245.918C144.035 242.668 150.282 240.939 153.337 240.48C156.416 240.151 162.878 240.304 164.095 243.556C165.616 247.62 158.365 249.477 155.305 250.18C152.246 250.883 142.806 249.98 143.489 245.918Z" fill="#FBBB51"/>
<path d="M144.56 245.734C144.994 243.051 150.501 241.717 153.201 241.384C155.924 241.159 161.652 241.387 162.781 244.098C164.192 247.488 157.796 248.913 155.096 249.447C152.396 249.981 144.018 249.087 144.56 245.734Z" stroke="#EDB057"/>
<path d="M151.35 241.637C155.222 241.077 162.968 241.026 162.978 245.299C162.877 244.353 160.41 242.297 151.35 241.637Z" fill="#EFEDBD"/>
<path d="M164.882 258.254C161.3 257.488 160.659 253.969 160.787 252.305L182.157 251.408C182.631 253.969 181.715 255.48 181.198 255.915C180.762 256.257 179.457 257.139 177.722 257.923C175.553 258.904 169.359 259.211 164.882 258.254Z" fill="#DD852B"/>
<path d="M160.866 251.986C161.341 248.985 167.692 247.542 170.809 247.195C173.953 246.969 180.574 247.278 181.904 250.326C183.566 254.136 176.19 255.672 173.075 256.245C169.96 256.818 160.271 255.737 160.866 251.986Z" fill="#FBBB51"/>
<path d="M161.96 251.843C162.334 249.365 167.939 248.269 170.695 248.031C173.477 247.892 179.348 248.251 180.574 250.796C182.106 253.977 175.595 255.134 172.844 255.56C170.093 255.986 161.492 254.939 161.96 251.843Z" stroke="#EDB057"/>
<path d="M168.806 248.217C172.756 247.798 180.686 247.951 180.807 251.915C180.679 251.035 178.099 249.063 168.806 248.217Z" fill="#EFEDBD"/>
<path d="M146.239 253.473L140.812 246.237L145.91 239.494L153.805 241.961L152.818 251.335C150.45 251.335 147.445 252.76 146.239 253.473Z" fill="#EF3356"/>
<path d="M146.239 253.473L140.812 246.237L145.91 239.494L153.805 241.961L152.818 251.335" stroke="#AD2062" stroke-width="0.5"/>
<path d="M140.812 246.236L145.253 246.401L145.91 239.658L150.68 244.592L153.64 242.125" stroke="#AD2062" stroke-width="0.5"/>
<path d="M148.049 252.486L145.253 246.401L150.68 244.592L151.338 251.499" stroke="#AD2062" stroke-width="0.5"/>
<path d="M149.934 250.634C142.642 252.067 140.819 257.636 140.819 260.242C140.488 264.964 151.259 263.499 155.899 262.359C159.611 261.447 160.319 257.636 160.208 255.845C159.821 253.511 157.225 249.201 149.934 250.634Z" fill="#FAA53B"/>
<path d="M144.178 254.683C147.038 252.538 153.225 249.113 155.099 252.573C154.605 251.85 151.729 251.261 144.178 254.683Z" fill="#EFEDBD"/>
<path d="M144.098 267.361C140.545 267.243 139.341 263.894 139.182 262.234L159.46 257.56C160.344 259.996 159.723 261.645 159.301 262.165C158.942 262.579 157.843 263.678 156.316 264.758C154.408 266.107 148.539 267.508 144.098 267.361Z" fill="#DD852B"/>
<path d="M139.205 261.906C139.155 258.869 144.984 256.322 147.904 255.428C150.872 254.648 157.253 253.778 159.037 256.541C161.267 259.995 154.474 262.815 151.593 263.931C148.712 265.048 139.268 265.702 139.205 261.906Z" fill="#FBBB51"/>
<path d="M140.226 261.571C140.167 259.067 145.341 256.994 147.935 256.271C150.571 255.641 156.244 254.953 157.844 257.239C159.844 260.097 153.814 262.391 151.256 263.298C148.697 264.205 140.299 264.701 140.226 261.571Z" stroke="#EDB057"/>
<path d="M146.161 256.789C149.867 255.676 157.473 254.42 158.256 258.3C157.985 257.456 155.188 255.973 146.161 256.789Z" fill="#EFEDBD"/>
<path d="M132.71 261.277C129.74 261.167 128.712 258.659 128.57 257.419L145.488 254.058C146.242 255.882 145.733 257.109 145.384 257.495C145.086 257.802 144.175 258.615 142.905 259.411C141.319 260.407 136.423 261.415 132.71 261.277Z" fill="#DD852B"/>
<path d="M128.588 257.174C128.527 254.907 133.382 253.043 135.818 252.394C138.293 251.83 143.621 251.221 145.129 253.295C147.015 255.887 141.355 257.949 138.954 258.764C136.553 259.58 128.665 260.009 128.588 257.174Z" fill="#FBBB51"/>
<path d="M129.438 256.931C129.373 255.061 133.684 253.547 135.847 253.023C138.047 252.569 142.783 252.092 144.135 253.809C145.824 255.955 140.799 257.629 138.667 258.29C136.534 258.95 129.519 259.268 129.438 256.931Z" stroke="#EDB057"/>
<path d="M134.369 253.399C137.459 252.592 143.808 251.702 144.486 254.603C144.255 253.972 141.908 252.847 134.369 253.399Z" fill="#EFEDBD"/>
<path d="M125.58 257.767C122.987 257.814 121.991 255.279 121.818 254.006L136.434 249.613C137.164 251.457 136.769 252.752 136.48 253.17C136.233 253.503 135.47 254.393 134.395 255.285C133.051 256.399 128.823 257.708 125.58 257.767Z" fill="#DD852B"/>
<path d="M121.823 253.752C121.68 251.413 125.839 249.223 127.937 248.42C130.073 247.703 134.693 246.784 136.091 248.844C137.837 251.421 132.985 253.859 130.924 254.831C128.863 255.804 122.002 256.676 121.823 253.752Z" fill="#FBBB51"/>
<path d="M122.556 253.454C122.425 251.526 126.123 249.727 127.989 249.068C129.888 248.48 133.999 247.729 135.246 249.429C136.804 251.554 132.489 253.557 130.656 254.356C128.823 255.155 122.719 255.864 122.556 253.454Z" stroke="#EDB057"/>
<path d="M126.713 249.537C129.375 248.535 134.875 247.27 135.582 250.231C135.355 249.591 133.264 248.557 126.713 249.537Z" fill="#EFEDBD"/>
<path d="M192.126 254.46C188.573 254.591 187.137 251.335 186.863 249.69L206.763 243.605C207.815 245.973 207.311 247.662 206.927 248.21C206.598 248.649 205.579 249.822 204.131 251.006C202.322 252.486 196.566 254.295 192.126 254.46Z" fill="#DD852B"/>
<path d="M186.862 249.362C186.599 246.335 192.235 243.386 195.086 242.29C197.991 241.303 204.295 239.987 206.269 242.619C208.736 245.908 202.157 249.197 199.362 250.513C196.566 251.828 187.191 253.144 186.862 249.362Z" fill="#FBBB51"/>
<path d="M187.856 248.955C187.622 246.461 192.637 244.031 195.174 243.127C197.76 242.314 203.371 241.23 205.127 243.398C207.322 246.109 201.468 248.82 198.98 249.904C196.491 250.988 188.149 252.073 187.856 248.955Z" stroke="#EDB057"/>
<path d="M193.44 243.77C197.059 242.399 204.558 240.612 205.611 244.427C205.282 243.605 202.387 242.322 193.44 243.77Z" fill="#EFEDBD"/>
<circle cx="271.889" cy="210.384" r="2.13802" fill="#E6EFE5"/>
<path d="M272.383 210.181C272.273 209.962 272.054 209.458 272.054 209.194C272.185 208.668 272.657 208.975 272.876 209.194C273.15 209.469 273.6 210.082 273.205 210.346C272.81 210.609 272.492 210.346 272.383 210.181Z" fill="#F3F5EC"/>
<circle cx="274.52" cy="213.673" r="2.13802" fill="#E6EFE5"/>
<path d="M275.015 212.812C274.905 212.593 274.686 212.089 274.686 211.825C274.818 211.299 275.289 211.606 275.508 211.825C275.782 212.1 276.232 212.714 275.837 212.977C275.443 213.24 275.125 212.977 275.015 212.812Z" fill="#F3F5EC"/>
<circle cx="276.494" cy="217.291" r="2.13802" fill="#E6EFE5"/>
<path d="M276.987 217.088C276.877 216.869 276.658 216.365 276.658 216.101C276.79 215.575 277.261 215.882 277.481 216.101C277.755 216.375 278.204 216.989 277.809 217.253C277.415 217.516 277.097 217.253 276.987 217.088Z" fill="#F3F5EC"/>
<circle cx="284.059" cy="236.04" r="2.13802" fill="#E6EFE5"/>
<path d="M284.554 235.837C284.444 235.618 284.225 235.113 284.225 234.85C284.356 234.324 284.828 234.631 285.047 234.85C285.321 235.124 285.771 235.738 285.376 236.001C284.981 236.265 284.663 236.001 284.554 235.837Z" fill="#F3F5EC"/>
</svg>
