<svg width="395" height="491" viewBox="0 0 395 491" fill="none" xmlns="http://www.w3.org/2000/svg">
<rect width="394.099" height="490.871" rx="20" fill="#202020" fill-opacity="0.5"/>
<path d="M44.04 49.36C45.88 49.44 47.9867 49.6 50.36 49.84C52.76 50.08 54.4667 50.2 55.48 50.2C56.4933 50.2 57.2533 50.12 57.76 49.96C58.9867 48.7867 59.8533 47.8933 60.36 47.28L61 47.76C59.5867 49.6 58.7333 51.52 58.44 53.52C55.8 52.8 53.3867 52.36 51.2 52.2C51.0133 55.1067 50.92 58.9333 50.92 63.68C50.92 68.4 51.0933 72.04 51.44 74.6C52.7733 74.7333 54.24 74.9867 55.84 75.36L55.72 76.32C53.7467 76.1067 51.6 76 49.28 76C46.9867 76 45.1333 76.1067 43.72 76.32L43.56 75.32C44.76 74.9467 46.04 74.6667 47.4 74.48C47.6933 72.2933 47.84 68.8533 47.84 64.16V61.8C47.84 59.16 47.68 55.92 47.36 52.08H46.32C43.1733 52.08 41.16 52.5067 40.28 53.36C40.0933 53.7333 40 54.32 40 55.12C40 55.92 40.1333 56.4667 40.4 56.76L40.36 57.04C39.6933 57.44 39.0267 58 38.36 58.72C38.04 58.6933 37.7867 58.56 37.6 58.32C37.3867 58.08 37.28 57.8 37.28 57.48C37.28 56.1733 38.0667 54.6133 39.64 52.8C41.2133 50.9867 42.68 49.84 44.04 49.36ZM61.4622 55.24L70.6622 54.96C73.0622 54.96 74.8622 55.32 76.0622 56.04C77.2622 56.7333 77.8622 58.0133 77.8622 59.88C77.8622 61.16 77.4622 62.2933 76.6622 63.28C75.8889 64.2667 74.8622 65 73.5822 65.48L78.0622 74.64C78.9689 74.8 79.8222 74.9867 80.6222 75.2L80.4622 76.28C79.3422 76.0933 78.0755 76 76.6622 76C75.2755 76 74.1822 76.0667 73.3822 76.2L73.2222 75.56C73.5689 75.2133 73.7422 74.64 73.7422 73.84C73.7422 72.2133 72.8089 69.6 70.9422 66C70.3822 65.8933 69.7289 65.84 68.9822 65.84L69.0622 64.68H69.4622C72.6089 64.68 74.1822 63.24 74.1822 60.36C74.1822 57.6933 72.8355 56.36 70.1422 56.36C69.2355 56.36 68.4222 56.5067 67.7022 56.8C67.5155 58.56 67.4222 61.5733 67.4222 65.84C67.4222 70.1067 67.5422 73.0533 67.7822 74.68C68.9555 74.8133 70.0489 75.0133 71.0622 75.28L70.9422 76.28C69.5555 76.0933 67.9955 76 66.2622 76C64.5555 76 63.0222 76.1067 61.6622 76.32L61.5022 75.28C62.2489 75.04 63.0889 74.84 64.0222 74.68C64.2889 72.68 64.4222 69.5733 64.4222 65.36C64.4222 61.12 64.3022 58.1867 64.0622 56.56C63.0222 56.2133 62.1555 56.04 61.4622 56.04V55.24ZM86.0369 66.12C86.1169 68.4933 86.5569 70.3467 87.3569 71.68C88.1569 73.0133 89.5169 73.68 91.4369 73.68C93.3569 73.68 95.1302 72.8667 96.7569 71.24L97.3169 71.8C95.5302 74.0667 93.3835 75.6267 90.8769 76.48C88.2902 76.48 86.2635 75.6667 84.7969 74.04C83.3302 72.3867 82.5969 70.1733 82.5969 67.4C82.5969 64.6 83.4635 61.9733 85.1969 59.52C86.9302 57.0667 89.1435 55.4533 91.8369 54.68C93.7835 54.68 95.9835 54.88 98.4369 55.28L98.3969 56.16C97.8902 56.16 97.4102 56.2533 96.9569 56.44C96.4502 57.64 96.1169 59.0667 95.9569 60.72H94.9569C94.7435 59.8133 94.6369 58.88 94.6369 57.92C93.6235 57.4133 92.4235 57.16 91.0369 57.16C89.6502 57.16 88.5035 57.5333 87.5969 58.28C86.6902 59.9333 86.1702 61.9067 86.0369 64.2C87.1569 64.3867 88.3569 64.48 89.6369 64.48C91.8502 64.48 93.1835 64.0133 93.6369 63.08L94.4769 63.2C94.2369 64 94.1169 64.7867 94.1169 65.56C94.1169 66.3333 94.2102 67.28 94.3969 68.4L93.4369 68.56C93.1435 67.76 92.9302 66.9333 92.7969 66.08C91.7302 65.9733 90.6635 65.92 89.5969 65.92C88.5569 65.92 87.3702 65.9867 86.0369 66.12ZM103.047 54.72C105.553 55.0133 108.087 55.16 110.647 55.16C113.207 55.16 115.727 55.0133 118.207 54.72L118.367 55.76C117.567 56.08 116.74 56.32 115.887 56.48C115.593 58.6667 115.447 61.7067 115.447 65.6C115.447 69.4933 115.593 72.5333 115.887 74.72C116.42 74.8 117.407 75 118.847 75.32L118.687 76.32C117.407 76.1067 115.767 76 113.767 76C111.767 76 110.233 76.1067 109.167 76.32L109.007 75.28C109.913 74.9867 110.94 74.7733 112.087 74.64C112.247 73.0933 112.367 70.9467 112.447 68.2C111.193 68.0667 109.94 68 108.687 68C107.433 68 106.34 68.0667 105.407 68.2C104.873 70.3867 104.607 71.9067 104.607 72.76C104.607 74.0667 105.073 74.9867 106.007 75.52L105.847 76.2C105.233 76.0667 104.073 76 102.367 76C100.66 76 99.3132 76.1067 98.3266 76.32L98.1666 75.28C98.8066 75.04 99.6866 74.8267 100.807 74.64L106.007 56.4C104.833 56.2133 103.807 56 102.927 55.76L103.047 54.72ZM105.727 66.32C106.767 66.48 107.913 66.56 109.167 66.56C110.447 66.56 111.54 66.48 112.447 66.32C112.447 61.3867 112.34 58.2 112.127 56.76C111.22 56.7067 110.54 56.68 110.087 56.68C109.66 56.68 108.993 56.7067 108.087 56.76L105.727 66.32ZM124.573 72.96C125.799 73.4667 127.013 73.72 128.213 73.72C129.413 73.72 130.373 73.44 131.093 72.88C131.813 72.32 132.173 71.52 132.173 70.48C132.173 69.4133 130.666 68.0933 127.653 66.52C126.506 65.9333 125.453 65.2267 124.493 64.4C123.559 63.5467 123.093 62.7067 123.093 61.88C123.093 60.4667 123.839 59.04 125.333 57.6C126.826 56.16 128.359 55.1867 129.933 54.68C131.906 54.68 133.693 54.88 135.293 55.28V56C134.173 57.12 133.546 58.6533 133.413 60.6H132.413C132.413 59.8533 132.346 58.92 132.213 57.8C131.279 57.3733 130.279 57.16 129.213 57.16C128.146 57.16 127.253 57.4 126.533 57.88C125.839 58.3333 125.493 59 125.493 59.88C125.493 60.4933 125.959 61.16 126.893 61.88C127.853 62.6 128.893 63.24 130.013 63.8C131.133 64.36 132.159 65.0533 133.093 65.88C134.053 66.7067 134.533 67.5333 134.533 68.36C134.533 69.96 133.826 71.56 132.413 73.16C130.999 74.7333 129.439 75.84 127.733 76.48C126.053 76.48 124.479 76.28 123.013 75.88C122.586 76.0667 122.146 76.3733 121.693 76.8L120.973 76.28C122.466 74.6533 123.293 72.64 123.453 70.24H124.453C124.453 71.1733 124.493 72.08 124.573 72.96ZM155.409 64.64V66.52C155.409 70.1733 155.542 72.9067 155.809 74.72C157.035 74.88 158.049 75.0667 158.849 75.28L158.729 76.28C157.422 76.0933 156.075 76 154.689 76C153.329 76 152.395 76.04 151.889 76.12L151.729 75.6C151.969 75.3333 152.129 74.5733 152.209 73.32C150.822 74.76 149.222 75.8133 147.409 76.48C142.822 76.48 140.529 73.7467 140.529 68.28C140.529 67.08 140.622 65.16 140.809 62.52C140.995 59.88 141.089 58.3333 141.089 57.88C141.089 57.4267 141.009 56.9867 140.849 56.56V56.52C139.729 56.3333 138.835 56.1333 138.169 55.92L138.329 54.84C139.875 55.0533 141.275 55.16 142.529 55.16C143.782 55.16 144.809 55.0933 145.609 54.96L145.769 55.64C144.809 56.1467 144.249 57.0667 144.089 58.4C143.769 60.96 143.609 63.5867 143.609 66.28C143.609 68.9733 143.915 70.8933 144.529 72.04C145.169 73.16 146.342 73.72 148.049 73.72C149.782 73.72 151.182 73.2267 152.249 72.24C152.355 70.1067 152.409 67.5867 152.409 64.68C152.409 61.7733 152.302 59.04 152.089 56.48C150.889 56.3467 149.782 56.1467 148.769 55.88L148.889 54.88C150.275 55.0667 151.822 55.16 153.529 55.16C155.262 55.16 156.809 55.0533 158.169 54.84L158.329 55.88C157.582 56.12 156.742 56.32 155.809 56.48C155.542 58.2667 155.409 60.9867 155.409 64.64ZM161.814 55.24L171.014 54.96C173.414 54.96 175.214 55.32 176.414 56.04C177.614 56.7333 178.214 58.0133 178.214 59.88C178.214 61.16 177.814 62.2933 177.014 63.28C176.24 64.2667 175.214 65 173.934 65.48L178.414 74.64C179.32 74.8 180.174 74.9867 180.974 75.2L180.814 76.28C179.694 76.0933 178.427 76 177.014 76C175.627 76 174.534 76.0667 173.734 76.2L173.574 75.56C173.92 75.2133 174.094 74.64 174.094 73.84C174.094 72.2133 173.16 69.6 171.294 66C170.734 65.8933 170.08 65.84 169.334 65.84L169.414 64.68H169.814C172.96 64.68 174.534 63.24 174.534 60.36C174.534 57.6933 173.187 56.36 170.494 56.36C169.587 56.36 168.774 56.5067 168.054 56.8C167.867 58.56 167.774 61.5733 167.774 65.84C167.774 70.1067 167.894 73.0533 168.134 74.68C169.307 74.8133 170.4 75.0133 171.414 75.28L171.294 76.28C169.907 76.0933 168.347 76 166.614 76C164.907 76 163.374 76.1067 162.014 76.32L161.854 75.28C162.6 75.04 163.44 74.84 164.374 74.68C164.64 72.68 164.774 69.5733 164.774 65.36C164.774 61.12 164.654 58.1867 164.414 56.56C163.374 56.2133 162.507 56.04 161.814 56.04V55.24ZM186.388 66.12C186.468 68.4933 186.908 70.3467 187.708 71.68C188.508 73.0133 189.868 73.68 191.788 73.68C193.708 73.68 195.482 72.8667 197.108 71.24L197.668 71.8C195.882 74.0667 193.735 75.6267 191.228 76.48C188.642 76.48 186.615 75.6667 185.148 74.04C183.682 72.3867 182.948 70.1733 182.948 67.4C182.948 64.6 183.815 61.9733 185.548 59.52C187.282 57.0667 189.495 55.4533 192.188 54.68C194.135 54.68 196.335 54.88 198.788 55.28L198.748 56.16C198.242 56.16 197.762 56.2533 197.308 56.44C196.802 57.64 196.468 59.0667 196.308 60.72H195.308C195.095 59.8133 194.988 58.88 194.988 57.92C193.975 57.4133 192.775 57.16 191.388 57.16C190.002 57.16 188.855 57.5333 187.948 58.28C187.042 59.9333 186.522 61.9067 186.388 64.2C187.508 64.3867 188.708 64.48 189.988 64.48C192.202 64.48 193.535 64.0133 193.988 63.08L194.828 63.2C194.588 64 194.468 64.7867 194.468 65.56C194.468 66.3333 194.562 67.28 194.748 68.4L193.788 68.56C193.495 67.76 193.282 66.9333 193.148 66.08C192.082 65.9733 191.015 65.92 189.948 65.92C188.908 65.92 187.722 65.9867 186.388 66.12ZM213.386 74.6C213.866 75.4 214.532 76.0533 215.386 76.56C216.266 77.0933 217.279 77.36 218.426 77.36C219.599 77.36 220.772 77.0133 221.946 76.32C223.146 75.6533 224.146 74.8133 224.946 73.8L225.506 74.36C223.559 77.4 220.919 79.48 217.586 80.6C215.292 80.6 213.412 80.0133 211.946 78.84C210.479 77.6667 209.439 76.16 208.826 74.32C208.239 72.48 207.946 70.2133 207.946 67.52C207.946 64.8267 208.279 62.28 208.946 59.88C209.639 57.4533 210.826 55.28 212.506 53.36C214.186 51.4133 216.279 50.08 218.786 49.36C221.479 49.36 224.226 49.6133 227.026 50.12L226.986 51C226.292 51 225.652 51.12 225.066 51.36C224.399 52.9333 223.959 54.8133 223.746 57H222.746C222.506 55.7467 222.386 54.5467 222.386 53.4C220.972 52.6267 219.412 52.24 217.706 52.24C216.026 52.24 214.639 52.7467 213.546 53.76C212.186 56.5067 211.506 60.04 211.506 64.36C211.506 69.1867 212.132 72.6 213.386 74.6ZM240.548 54.84C241.908 55.0533 243.441 55.16 245.148 55.16C246.881 55.16 248.441 55.0667 249.828 54.88L249.948 55.88C248.934 56.1467 247.828 56.3467 246.628 56.48C246.361 58.1333 246.228 60.8533 246.228 64.64V66.52C246.228 70.36 246.361 73.08 246.628 74.68C247.828 74.8133 248.934 75.0133 249.948 75.28L249.828 76.28C248.441 76.0933 246.881 76 245.148 76C243.441 76 241.908 76.1067 240.548 76.32L240.388 75.28C241.134 75.04 241.974 74.84 242.908 74.68C243.121 71.6667 243.241 68.6533 243.268 65.64C241.561 65.48 239.988 65.4 238.548 65.4C237.108 65.4 235.548 65.48 233.868 65.64C233.868 70.04 233.988 73.0533 234.228 74.68C235.428 74.8133 236.534 75.0133 237.548 75.28L237.428 76.28C236.041 76.0933 234.481 76 232.748 76C231.041 76 229.508 76.1067 228.148 76.32L227.988 75.28C228.734 75.04 229.574 74.84 230.508 74.68C230.748 72.76 230.868 70.04 230.868 66.52V64.64C230.868 61.12 230.734 58.4 230.468 56.48C229.534 56.32 228.694 56.12 227.948 55.88L228.108 54.84C229.468 55.0533 231.001 55.16 232.708 55.16C234.441 55.16 236.001 55.0667 237.388 54.88L237.508 55.88C236.494 56.1467 235.388 56.3467 234.188 56.48C233.974 58.0267 233.868 60.4133 233.868 63.64C235.361 63.8533 236.961 63.96 238.668 63.96C240.401 63.96 241.934 63.8667 243.268 63.68C243.241 61.4133 243.121 59.0133 242.908 56.48C241.974 56.32 241.134 56.12 240.388 55.88L240.548 54.84ZM256.154 66.12C256.234 68.4933 256.674 70.3467 257.474 71.68C258.274 73.0133 259.634 73.68 261.554 73.68C263.474 73.68 265.247 72.8667 266.874 71.24L267.434 71.8C265.647 74.0667 263.501 75.6267 260.994 76.48C258.407 76.48 256.381 75.6667 254.914 74.04C253.447 72.3867 252.714 70.1733 252.714 67.4C252.714 64.6 253.581 61.9733 255.314 59.52C257.047 57.0667 259.261 55.4533 261.954 54.68C263.901 54.68 266.101 54.88 268.554 55.28L268.514 56.16C268.007 56.16 267.527 56.2533 267.074 56.44C266.567 57.64 266.234 59.0667 266.074 60.72H265.074C264.861 59.8133 264.754 58.88 264.754 57.92C263.741 57.4133 262.541 57.16 261.154 57.16C259.767 57.16 258.621 57.5333 257.714 58.28C256.807 59.9333 256.287 61.9067 256.154 64.2C257.274 64.3867 258.474 64.48 259.754 64.48C261.967 64.48 263.301 64.0133 263.754 63.08L264.594 63.2C264.354 64 264.234 64.7867 264.234 65.56C264.234 66.3333 264.327 67.28 264.514 68.4L263.554 68.56C263.261 67.76 263.047 66.9333 262.914 66.08C261.847 65.9733 260.781 65.92 259.714 65.92C258.674 65.92 257.487 65.9867 256.154 66.12ZM273.284 72.96C274.51 73.4667 275.724 73.72 276.924 73.72C278.124 73.72 279.084 73.44 279.804 72.88C280.524 72.32 280.884 71.52 280.884 70.48C280.884 69.4133 279.377 68.0933 276.364 66.52C275.217 65.9333 274.164 65.2267 273.204 64.4C272.27 63.5467 271.804 62.7067 271.804 61.88C271.804 60.4667 272.55 59.04 274.044 57.6C275.537 56.16 277.07 55.1867 278.644 54.68C280.617 54.68 282.404 54.88 284.004 55.28V56C282.884 57.12 282.257 58.6533 282.124 60.6H281.124C281.124 59.8533 281.057 58.92 280.924 57.8C279.99 57.3733 278.99 57.16 277.924 57.16C276.857 57.16 275.964 57.4 275.244 57.88C274.55 58.3333 274.204 59 274.204 59.88C274.204 60.4933 274.67 61.16 275.604 61.88C276.564 62.6 277.604 63.24 278.724 63.8C279.844 64.36 280.87 65.0533 281.804 65.88C282.764 66.7067 283.244 67.5333 283.244 68.36C283.244 69.96 282.537 71.56 281.124 73.16C279.71 74.7333 278.15 75.84 276.444 76.48C274.764 76.48 273.19 76.28 271.724 75.88C271.297 76.0667 270.857 76.3733 270.404 76.8L269.684 76.28C271.177 74.6533 272.004 72.64 272.164 70.24H273.164C273.164 71.1733 273.204 72.08 273.284 72.96ZM300.48 57.32C299.546 56.8667 298.653 56.64 297.8 56.64C296.946 56.64 296.373 56.6933 296.08 56.8C295.866 58.24 295.76 61.0267 295.76 65.16C295.76 69.2933 295.906 72.4667 296.2 74.68C297.4 74.8133 298.506 75.0133 299.52 75.28L299.4 76.28C298.013 76.0933 296.413 76 294.6 76C292.813 76 291.24 76.1067 289.88 76.32L289.72 75.28C290.253 75.12 291.173 74.92 292.48 74.68C292.72 72.76 292.84 70.04 292.84 66.52V64.64C292.84 62.7733 292.693 60.16 292.4 56.8C292.106 56.6933 291.56 56.64 290.76 56.64C289.96 56.64 289.106 56.8267 288.2 57.2C287.933 58.0267 287.746 59.1333 287.64 60.52H286.6C286.6 58.3333 286.24 56.64 285.52 55.44L285.72 54.76C287.773 55.0267 290.653 55.16 294.36 55.16C298.066 55.16 301.053 55.0133 303.32 54.72L303.56 55.48C302.893 56.2267 302.44 56.96 302.2 57.68C301.96 58.3733 301.813 59.32 301.76 60.52H300.76C300.573 59.64 300.48 58.5733 300.48 57.32Z" fill="#FAF9F6"/>
<path d="M40.3495 374.36V372.2H52.3735V374.36H40.3495ZM45.0775 378.992V367.4H47.5975V378.992H45.0775ZM60.2412 380C59.4092 380 58.6332 379.856 57.9132 379.568C57.2092 379.264 56.5932 378.848 56.0652 378.32C55.5532 377.792 55.1452 377.168 54.8412 376.448C54.5532 375.728 54.4092 374.936 54.4092 374.072C54.4092 373.64 54.4652 373.16 54.5772 372.632C54.7052 372.088 54.8892 371.496 55.1292 370.856C55.3852 370.216 55.6892 369.544 56.0412 368.84C56.3932 368.12 56.8012 367.376 57.2652 366.608L59.4492 362.912H61.9692L62.0652 363.152L59.4252 367.592C58.9452 368.408 58.5132 369.184 58.1292 369.92C57.7612 370.656 57.4492 371.352 57.1932 372.008C56.9372 372.648 56.7452 373.232 56.6172 373.76L56.0412 371.288C56.3452 370.792 56.6732 370.36 57.0252 369.992C57.3772 369.608 57.7532 369.288 58.1532 369.032C58.5692 368.776 59.0012 368.584 59.4492 368.456C59.8972 368.328 60.3612 368.264 60.8412 368.264C61.7692 368.264 62.6172 368.52 63.3852 369.032C64.1692 369.528 64.7932 370.192 65.2572 371.024C65.7372 371.856 65.9772 372.768 65.9772 373.76C65.9772 374.96 65.7292 376.032 65.2332 376.976C64.7532 377.904 64.0812 378.64 63.2172 379.184C62.3532 379.728 61.3612 380 60.2412 380ZM60.2412 377.6C60.8652 377.6 61.4172 377.456 61.8972 377.168C62.3932 376.864 62.7772 376.448 63.0492 375.92C63.3372 375.376 63.4812 374.76 63.4812 374.072C63.4812 373.48 63.3372 372.928 63.0492 372.416C62.7612 371.888 62.3772 371.464 61.8972 371.144C61.4172 370.824 60.8812 370.664 60.2892 370.664C59.6332 370.664 59.0492 370.816 58.5372 371.12C58.0252 371.424 57.6252 371.832 57.3372 372.344C57.0492 372.856 56.9052 373.424 56.9052 374.048C56.9052 374.72 57.0492 375.328 57.3372 375.872C57.6252 376.4 58.0172 376.824 58.5132 377.144C59.0092 377.448 59.5852 377.6 60.2412 377.6ZM75.2152 380V367.4H77.7112V370.088L77.2552 370.376C77.3832 369.96 77.5832 369.56 77.8552 369.176C78.1432 368.792 78.4872 368.456 78.8872 368.168C79.3032 367.864 79.7432 367.624 80.2072 367.448C80.6872 367.272 81.1752 367.184 81.6712 367.184C82.3912 367.184 83.0232 367.304 83.5672 367.544C84.1112 367.784 84.5592 368.144 84.9112 368.624C85.2632 369.104 85.5192 369.704 85.6792 370.424L85.2952 370.328L85.4632 369.92C85.6392 369.552 85.8792 369.208 86.1832 368.888C86.5032 368.552 86.8632 368.256 87.2632 368C87.6632 367.744 88.0872 367.544 88.5352 367.4C88.9832 367.256 89.4232 367.184 89.8552 367.184C90.7992 367.184 91.5752 367.376 92.1832 367.76C92.8072 368.144 93.2712 368.728 93.5752 369.512C93.8952 370.296 94.0552 371.272 94.0552 372.44V380H91.5592V372.584C91.5592 371.864 91.4632 371.28 91.2712 370.832C91.0952 370.368 90.8232 370.024 90.4552 369.8C90.0872 369.576 89.6152 369.464 89.0392 369.464C88.5912 369.464 88.1672 369.544 87.7672 369.704C87.3832 369.848 87.0472 370.056 86.7592 370.328C86.4712 370.6 86.2472 370.92 86.0872 371.288C85.9272 371.64 85.8472 372.032 85.8472 372.464V380H83.3512V372.536C83.3512 371.88 83.2552 371.328 83.0632 370.88C82.8712 370.416 82.5912 370.064 82.2232 369.824C81.8552 369.584 81.4072 369.464 80.8792 369.464C80.4312 369.464 80.0152 369.544 79.6312 369.704C79.2472 369.848 78.9112 370.056 78.6232 370.328C78.3352 370.584 78.1112 370.896 77.9512 371.264C77.7912 371.616 77.7112 372 77.7112 372.416V380H75.2152ZM102.213 380.24C101.173 380.24 100.221 379.952 99.3567 379.376C98.5087 378.8 97.8287 378.016 97.3167 377.024C96.8047 376.032 96.5487 374.912 96.5487 373.664C96.5487 372.4 96.8047 371.28 97.3167 370.304C97.8447 369.312 98.5487 368.536 99.4287 367.976C100.325 367.416 101.325 367.136 102.429 367.136C103.085 367.136 103.685 367.232 104.229 367.424C104.773 367.616 105.245 367.888 105.645 368.24C106.061 368.576 106.397 368.968 106.653 369.416C106.925 369.864 107.093 370.344 107.157 370.856L106.605 370.664V367.4H109.101V380H106.605V377L107.181 376.832C107.085 377.264 106.885 377.688 106.581 378.104C106.293 378.504 105.917 378.864 105.453 379.184C105.005 379.504 104.501 379.76 103.941 379.952C103.397 380.144 102.821 380.24 102.213 380.24ZM102.861 377.96C103.613 377.96 104.277 377.776 104.853 377.408C105.429 377.04 105.877 376.536 106.197 375.896C106.533 375.24 106.701 374.496 106.701 373.664C106.701 372.848 106.533 372.12 106.197 371.48C105.877 370.84 105.429 370.336 104.853 369.968C104.277 369.6 103.613 369.416 102.861 369.416C102.125 369.416 101.469 369.6 100.893 369.968C100.333 370.336 99.8847 370.84 99.5487 371.48C99.2287 372.12 99.0687 372.848 99.0687 373.664C99.0687 374.496 99.2287 375.24 99.5487 375.896C99.8847 376.536 100.333 377.04 100.893 377.408C101.469 377.776 102.125 377.96 102.861 377.96ZM118.192 385.52C117.296 385.52 116.4 385.376 115.504 385.088C114.624 384.816 113.912 384.456 113.368 384.008L114.28 382.088C114.6 382.328 114.976 382.536 115.408 382.712C115.84 382.904 116.296 383.048 116.776 383.144C117.256 383.256 117.728 383.312 118.192 383.312C119.072 383.312 119.808 383.168 120.4 382.88C120.992 382.592 121.44 382.168 121.744 381.608C122.048 381.048 122.2 380.352 122.2 379.52V377.096L122.464 377.264C122.384 377.76 122.12 378.24 121.672 378.704C121.24 379.152 120.696 379.52 120.04 379.808C119.384 380.096 118.712 380.24 118.024 380.24C116.824 380.24 115.752 379.96 114.808 379.4C113.88 378.824 113.144 378.048 112.6 377.072C112.056 376.08 111.784 374.952 111.784 373.688C111.784 372.424 112.048 371.304 112.576 370.328C113.12 369.336 113.856 368.56 114.784 368C115.728 367.424 116.784 367.136 117.952 367.136C118.432 367.136 118.896 367.2 119.344 367.328C119.792 367.44 120.208 367.608 120.592 367.832C120.976 368.04 121.32 368.272 121.624 368.528C121.928 368.784 122.176 369.056 122.368 369.344C122.56 369.632 122.68 369.904 122.728 370.16L122.2 370.352V367.4H124.672V379.232C124.672 380.24 124.52 381.128 124.216 381.896C123.928 382.68 123.504 383.336 122.944 383.864C122.384 384.408 121.704 384.816 120.904 385.088C120.104 385.376 119.2 385.52 118.192 385.52ZM118.288 377.96C119.072 377.96 119.768 377.776 120.376 377.408C120.984 377.04 121.456 376.536 121.792 375.896C122.128 375.256 122.296 374.52 122.296 373.688C122.296 372.856 122.12 372.12 121.768 371.48C121.432 370.824 120.96 370.312 120.352 369.944C119.76 369.576 119.072 369.392 118.288 369.392C117.52 369.392 116.832 369.584 116.224 369.968C115.632 370.336 115.16 370.848 114.808 371.504C114.472 372.144 114.304 372.872 114.304 373.688C114.304 374.504 114.472 375.24 114.808 375.896C115.16 376.536 115.632 377.04 116.224 377.408C116.832 377.776 117.52 377.96 118.288 377.96ZM128.546 380V367.4H131.018V380H128.546ZM129.746 364.616C129.218 364.616 128.81 364.48 128.522 364.208C128.234 363.936 128.09 363.552 128.09 363.056C128.09 362.592 128.234 362.216 128.522 361.928C128.826 361.64 129.234 361.496 129.746 361.496C130.274 361.496 130.682 361.632 130.97 361.904C131.258 362.176 131.402 362.56 131.402 363.056C131.402 363.52 131.25 363.896 130.946 364.184C130.658 364.472 130.258 364.616 129.746 364.616ZM140.17 380.24C139.002 380.24 137.954 379.952 137.026 379.376C136.114 378.8 135.386 378.016 134.842 377.024C134.314 376.032 134.05 374.92 134.05 373.688C134.05 372.456 134.314 371.344 134.842 370.352C135.386 369.36 136.114 368.576 137.026 368C137.954 367.424 139.002 367.136 140.17 367.136C141.29 367.136 142.306 367.368 143.218 367.832C144.146 368.28 144.85 368.896 145.33 369.68L143.962 371.36C143.706 370.992 143.378 370.656 142.978 370.352C142.578 370.048 142.154 369.808 141.706 369.632C141.258 369.456 140.826 369.368 140.41 369.368C139.642 369.368 138.954 369.56 138.346 369.944C137.754 370.312 137.282 370.824 136.93 371.48C136.578 372.136 136.402 372.872 136.402 373.688C136.402 374.504 136.586 375.24 136.954 375.896C137.322 376.536 137.81 377.048 138.418 377.432C139.026 377.816 139.698 378.008 140.434 378.008C140.866 378.008 141.282 377.936 141.682 377.792C142.098 377.648 142.498 377.432 142.882 377.144C143.266 376.856 143.626 376.504 143.962 376.088L145.33 377.768C144.818 378.488 144.082 379.08 143.122 379.544C142.178 380.008 141.194 380.24 140.17 380.24ZM160.028 385.52C159.132 385.52 158.236 385.376 157.34 385.088C156.46 384.816 155.748 384.456 155.204 384.008L156.116 382.088C156.436 382.328 156.812 382.536 157.244 382.712C157.676 382.904 158.132 383.048 158.612 383.144C159.092 383.256 159.564 383.312 160.028 383.312C160.908 383.312 161.644 383.168 162.236 382.88C162.828 382.592 163.276 382.168 163.58 381.608C163.884 381.048 164.036 380.352 164.036 379.52V377.096L164.3 377.264C164.22 377.76 163.956 378.24 163.508 378.704C163.076 379.152 162.532 379.52 161.876 379.808C161.22 380.096 160.548 380.24 159.86 380.24C158.66 380.24 157.588 379.96 156.644 379.4C155.716 378.824 154.98 378.048 154.436 377.072C153.892 376.08 153.62 374.952 153.62 373.688C153.62 372.424 153.884 371.304 154.412 370.328C154.956 369.336 155.692 368.56 156.62 368C157.564 367.424 158.62 367.136 159.788 367.136C160.268 367.136 160.732 367.2 161.18 367.328C161.628 367.44 162.044 367.608 162.428 367.832C162.812 368.04 163.156 368.272 163.46 368.528C163.764 368.784 164.012 369.056 164.204 369.344C164.396 369.632 164.516 369.904 164.564 370.16L164.036 370.352V367.4H166.508V379.232C166.508 380.24 166.356 381.128 166.052 381.896C165.764 382.68 165.34 383.336 164.78 383.864C164.22 384.408 163.54 384.816 162.74 385.088C161.94 385.376 161.036 385.52 160.028 385.52ZM160.124 377.96C160.908 377.96 161.604 377.776 162.212 377.408C162.82 377.04 163.292 376.536 163.628 375.896C163.964 375.256 164.132 374.52 164.132 373.688C164.132 372.856 163.956 372.12 163.604 371.48C163.268 370.824 162.796 370.312 162.188 369.944C161.596 369.576 160.908 369.392 160.124 369.392C159.356 369.392 158.668 369.584 158.06 369.968C157.468 370.336 156.996 370.848 156.644 371.504C156.308 372.144 156.14 372.872 156.14 373.688C156.14 374.504 156.308 375.24 156.644 375.896C156.996 376.536 157.468 377.04 158.06 377.408C158.668 377.776 159.356 377.96 160.124 377.96ZM175.854 380.24C174.558 380.24 173.406 379.968 172.398 379.424C171.406 378.864 170.622 378.104 170.046 377.144C169.486 376.184 169.206 375.08 169.206 373.832C169.206 372.84 169.366 371.936 169.686 371.12C170.006 370.304 170.446 369.6 171.006 369.008C171.582 368.4 172.262 367.936 173.046 367.616C173.846 367.28 174.71 367.112 175.638 367.112C176.454 367.112 177.214 367.272 177.918 367.592C178.622 367.896 179.23 368.32 179.742 368.864C180.27 369.408 180.67 370.056 180.942 370.808C181.23 371.544 181.366 372.352 181.35 373.232L181.326 374.288H171.03L170.478 372.32H179.19L178.83 372.728V372.152C178.782 371.624 178.606 371.152 178.302 370.736C177.998 370.32 177.614 369.992 177.15 369.752C176.686 369.512 176.182 369.392 175.638 369.392C174.774 369.392 174.046 369.56 173.454 369.896C172.862 370.216 172.414 370.696 172.11 371.336C171.806 371.96 171.654 372.736 171.654 373.664C171.654 374.544 171.838 375.312 172.206 375.968C172.574 376.608 173.094 377.104 173.766 377.456C174.438 377.808 175.214 377.984 176.094 377.984C176.718 377.984 177.294 377.88 177.822 377.672C178.366 377.464 178.95 377.088 179.574 376.544L180.822 378.296C180.438 378.68 179.966 379.016 179.406 379.304C178.862 379.592 178.278 379.824 177.654 380C177.046 380.16 176.446 380.24 175.854 380.24ZM183.989 380V367.4H186.485V370.088L186.029 370.376C186.157 369.96 186.357 369.56 186.629 369.176C186.917 368.792 187.261 368.456 187.661 368.168C188.077 367.864 188.517 367.624 188.981 367.448C189.461 367.272 189.949 367.184 190.445 367.184C191.165 367.184 191.797 367.304 192.341 367.544C192.885 367.784 193.333 368.144 193.685 368.624C194.037 369.104 194.293 369.704 194.453 370.424L194.069 370.328L194.237 369.92C194.413 369.552 194.653 369.208 194.957 368.888C195.277 368.552 195.637 368.256 196.037 368C196.437 367.744 196.861 367.544 197.309 367.4C197.757 367.256 198.197 367.184 198.629 367.184C199.573 367.184 200.349 367.376 200.957 367.76C201.581 368.144 202.045 368.728 202.349 369.512C202.669 370.296 202.829 371.272 202.829 372.44V380H200.333V372.584C200.333 371.864 200.237 371.28 200.045 370.832C199.869 370.368 199.597 370.024 199.229 369.8C198.861 369.576 198.389 369.464 197.813 369.464C197.365 369.464 196.941 369.544 196.541 369.704C196.157 369.848 195.821 370.056 195.533 370.328C195.245 370.6 195.021 370.92 194.861 371.288C194.701 371.64 194.621 372.032 194.621 372.464V380H192.125V372.536C192.125 371.88 192.029 371.328 191.837 370.88C191.645 370.416 191.365 370.064 190.997 369.824C190.629 369.584 190.181 369.464 189.653 369.464C189.205 369.464 188.789 369.544 188.405 369.704C188.021 369.848 187.685 370.056 187.397 370.328C187.109 370.584 186.885 370.896 186.725 371.264C186.565 371.616 186.485 372 186.485 372.416V380H183.989ZM210.338 380.24C209.282 380.24 208.33 380.056 207.482 379.688C206.634 379.32 205.93 378.776 205.37 378.056L207.05 376.616C207.53 377.176 208.05 377.584 208.61 377.84C209.186 378.08 209.834 378.2 210.554 378.2C210.842 378.2 211.106 378.168 211.346 378.104C211.602 378.024 211.818 377.912 211.994 377.768C212.186 377.624 212.33 377.456 212.426 377.264C212.522 377.056 212.57 376.832 212.57 376.592C212.57 376.176 212.418 375.84 212.114 375.584C211.954 375.472 211.698 375.352 211.346 375.224C211.01 375.08 210.57 374.936 210.026 374.792C209.098 374.552 208.338 374.28 207.746 373.976C207.154 373.672 206.698 373.328 206.378 372.944C206.138 372.64 205.962 372.312 205.85 371.96C205.738 371.592 205.682 371.192 205.682 370.76C205.682 370.232 205.794 369.752 206.018 369.32C206.258 368.872 206.578 368.488 206.978 368.168C207.394 367.832 207.874 367.576 208.418 367.4C208.978 367.224 209.57 367.136 210.194 367.136C210.786 367.136 211.37 367.216 211.946 367.376C212.538 367.536 213.082 367.768 213.578 368.072C214.074 368.376 214.49 368.736 214.826 369.152L213.41 370.712C213.106 370.408 212.77 370.144 212.402 369.92C212.05 369.68 211.69 369.496 211.322 369.368C210.954 369.24 210.618 369.176 210.314 369.176C209.978 369.176 209.674 369.208 209.402 369.272C209.13 369.336 208.898 369.432 208.706 369.56C208.53 369.688 208.394 369.848 208.298 370.04C208.202 370.232 208.154 370.448 208.154 370.688C208.17 370.896 208.218 371.096 208.298 371.288C208.394 371.464 208.522 371.616 208.682 371.744C208.858 371.872 209.122 372.008 209.474 372.152C209.826 372.296 210.274 372.432 210.818 372.56C211.618 372.768 212.274 373 212.786 373.256C213.314 373.496 213.73 373.776 214.034 374.096C214.354 374.4 214.578 374.752 214.706 375.152C214.834 375.552 214.898 376 214.898 376.496C214.898 377.216 214.69 377.864 214.274 378.44C213.874 379 213.33 379.44 212.642 379.76C211.954 380.08 211.186 380.24 210.338 380.24Z" fill="#FAF9F6"/>
<path d="M238.996 119.441C200.446 117.599 145.307 138.958 122.556 149.867L152.817 189.338L266.955 153.321L269.75 145.426L244.752 118.783L238.996 119.441Z" fill="#B37B62"/>
<path d="M255.443 150.36C249.917 130.756 240.313 121.689 236.201 119.606L242.451 119.112L259.39 132.105L265.64 150.031L255.443 150.36Z" fill="#934F59"/>
<path d="M226.827 191.805L237.846 227.165V230.125L159.068 254.466L99.5328 243.447L98.7104 233.25L145.582 197.89L228.965 165.162L230.939 169.603C223.834 175.392 225.237 186.817 226.827 191.805Z" fill="#633C59"/>
<path d="M279.126 171.412C282.152 168.517 288.116 164.998 290.638 163.682L274.192 154.801L178.31 183.418L143.279 203.811L142.622 213.021C201.039 175.129 257.965 169.493 279.126 171.412Z" fill="#95515E"/>
<path d="M226.498 191.476C234.261 192.792 266.243 204.03 281.758 209.238C271.725 214.337 237.188 226.836 237.353 226.178C237.484 225.652 230.171 202.824 226.498 191.476Z" fill="#FCBC53"/>
<path d="M222.714 192.956L99.0381 240.486L148.541 256.932L203.308 242.46L258.074 216.146L222.714 192.956Z" fill="#F89839"/>
<path d="M258.898 219.565L244.754 196.739L226.334 191.312L237.409 227.165L258.898 219.565Z" fill="#D17657"/>
<path d="M93.6112 158.584C88.0853 164.767 89.0063 181.334 90.1575 188.845L142.95 206.771C220.708 163.09 273.808 159.845 290.638 163.682C277.81 127.5 247.713 111.218 242.45 109.574C237.187 107.929 222.221 110.067 219.261 112.863C216.893 115.1 215.369 119.003 214.82 120.757C219.533 119.972 232.83 119.501 239.066 119.28L239.161 119.277C252.844 126.25 262.295 142.576 265.311 149.867C229.523 149.209 177.268 173.495 155.614 185.72C135.615 154.801 119.542 146.852 114.005 146.742C109.509 148.113 99.1372 152.4 93.6112 158.584Z" fill="#FDBC56"/>
<path d="M102.822 158.748C128.872 151.512 146.678 184.459 152.325 201.837L143.279 206.442L90.1579 188.845C87.0331 173.714 90.8158 159.57 94.5985 157.597C94.5985 161.018 100.026 159.735 102.822 158.748Z" fill="#D47654"/>
<path d="M107.098 159.899C80.5206 176.74 90.4323 215.817 98.7102 233.25C112.13 218.909 134.015 209.732 143.28 206.936C135.78 173.385 116.034 161.599 107.098 159.899Z" fill="#7D415A"/>
<path d="M103.644 228.645C89.1716 177.859 106.166 164.395 116.472 164.011C132.261 172.037 141.251 195.753 143.444 206.772C123.709 212.692 108.469 223.931 103.644 228.645Z" fill="#95515E"/>
<path d="M89.8294 192.956C89.9609 186.509 98.217 177.661 102.329 174.043C93.7764 190.226 99.752 216.968 103.809 228.316C103.019 228.974 100.081 231.879 98.7104 233.25C89.0071 209.238 89.6649 201.015 89.8294 192.956Z" fill="#976B60"/>
<path d="M106.605 183.418C97.9217 191.443 101.123 216.913 103.81 228.48C116.835 217.955 131.713 210.938 137.524 208.909C133.413 193.45 117.46 173.385 106.605 183.418Z" fill="#BA8E66"/>
<path d="M159.069 245.091C150.517 247.723 141.362 247.503 137.853 247.065L152.161 253.972L273.206 217.955L282.745 209.567L276.66 207.429C227.814 227.165 169.759 241.802 159.069 245.091Z" fill="#95515E"/>
<path d="M167.127 247.723C161.206 249.696 157.643 249.751 156.601 249.532L154.463 260.88L160.384 284.234C161.59 290.702 164.167 304.528 164.825 308.081C165.482 311.633 170.8 319.209 173.377 322.553C213.177 308.3 293.336 279.629 295.573 278.971C297.809 278.313 296.943 276.833 296.23 276.175C294.092 274.256 289.422 270.09 287.843 268.774C286.264 267.458 285.211 264.937 284.882 263.84C283.457 250.628 280.968 224.073 282.415 223.547C283.863 223.02 283.347 214.172 282.744 209.567C240.971 228.316 174.528 245.256 167.127 247.723Z" fill="#FEBD57"/>
<path d="M99.6973 239.993C99.0395 238.019 99.0395 235.059 98.7105 233.25V235.552V238.513C97.658 238.513 97.0659 239.39 96.9015 239.829C96.2436 244.269 97.8882 249.532 98.7105 249.861C99.3684 250.124 99.7521 251.286 99.8618 251.834L102.164 284.562C100.849 286.975 97.7896 292.095 96.0792 293.279C94.3688 294.463 95.3665 295.527 96.0792 295.91L162.522 323.376C167.39 302.588 163.125 276.559 160.384 266.143C155.45 261.538 155.45 258.084 156.437 254.959C157.226 252.459 156.766 250.299 156.437 249.532C140.78 248.348 112.087 242.679 99.6973 239.993Z" fill="#D07755"/>
<path d="M173.377 322.553C168.377 325.053 163.893 324.088 162.358 323.376C163.147 321.797 164.167 312.028 164.66 307.752C165.318 310.383 170.855 319.045 173.377 322.553Z" fill="#FFF088"/>
<path d="M273.206 227.494C258.601 234.73 199.691 254.849 172.061 264.004L175.844 304.133C180.449 302.686 245.411 279.848 277.317 268.609C277.712 262.031 274.741 238.458 273.206 227.494Z" fill="#AF8668"/>
<path d="M151.009 169.109C134.431 151.216 125.572 148.826 123.215 149.867L155.778 185.72L171.731 177.168C168.442 175.852 166.469 176.017 160.712 175.03C156.107 174.241 152.325 170.754 151.009 169.109Z" fill="#9A595F"/>
<path d="M100.355 251.505C101.497 251.853 104.412 252.736 106.933 253.479" stroke="#A45534" stroke-linecap="round"/>
<path d="M102.657 284.398C103.799 284.746 106.714 285.629 109.236 286.372" stroke="#A45534" stroke-linecap="round"/>
<path d="M151.667 266.599C155.383 267.462 164.597 268.217 171.731 264.333" stroke="#A45534" stroke-linecap="round"/>
<path d="M154.628 303.804L164.764 307.752L175.679 303.804" stroke="#A45534" stroke-linecap="round"/>
<path d="M151.337 266.307C141.996 265.123 118.171 257.152 107.426 253.314C107.031 254.498 108.906 276.175 109.893 286.865L154.298 304.133C153.64 302.16 152.05 278.093 151.337 266.307Z" fill="#774355"/>
<path d="M277.646 267.951L284.882 265.32" stroke="#A45534" stroke-linecap="round"/>
<path d="M273.699 227.823C275.156 227.196 278.774 225.594 281.593 224.205" stroke="#A45534" stroke-linecap="round"/>
<path d="M142.458 213.185C131.143 213.843 108.469 227.055 98.7104 233.25C111.21 219.599 135.769 208.526 145.911 205.127C143.806 206.179 142.732 210.938 142.458 213.185Z" fill="#7D415A"/>
<path d="M242.615 116.81C232.089 113.126 230.554 110.341 231.102 109.409C227.977 109.793 220.741 111.054 218.767 113.356C216.647 115.83 215.149 119.112 214.82 120.757C218.11 120.099 232.637 119.441 239.325 119.441C254.193 127.467 261.692 142.466 265.31 149.867C268.731 149.735 269.915 149.538 269.915 147.893C268.929 140.493 255.772 121.415 242.615 116.81Z" fill="#D47650"/>
<path d="M178.639 311.699C178.112 309.857 184.34 307.094 187.52 305.942C191.302 304.736 198.999 302.851 199.525 304.956C200.182 307.581 193.798 309.879 189.686 311.36L189.658 311.37C185.546 312.85 179.296 314.001 178.639 311.699Z" fill="#FEF189"/>
<path d="M204.459 303.64C203.933 302.324 205.336 301.228 206.104 300.844C206.981 300.57 208.9 300.351 209.558 301.666C210.215 302.982 208.516 304.079 207.584 304.462C206.762 304.736 204.986 304.956 204.459 303.64Z" fill="#FEF189"/>
<path d="M259.225 283.082C257.383 281.503 265.365 278.477 269.587 277.161C273.369 275.846 281.099 273.774 281.757 276.01C282.415 278.247 275.891 280.67 272.547 281.602C268.874 282.753 261.067 284.661 259.225 283.082Z" fill="#FEF189"/>
<path d="M170.415 255.452C169.494 253.742 171.567 252.547 172.718 252.163C173.869 251.779 176.336 251.571 176.994 253.808C177.652 256.044 175.294 257.042 174.034 257.261C173.211 257.371 171.336 257.163 170.415 255.452Z" fill="#FEF189"/>
<path d="M181.106 252.163C179.527 249.269 187.794 246.352 192.125 245.256C195.195 244.379 201.598 243.019 202.65 244.598C203.703 246.177 197.497 249.203 194.263 250.519C190.535 252.273 182.684 255.058 181.106 252.163Z" fill="#FEF189"/>
<path d="M111.373 151.676C114.531 149.966 120.912 153.376 123.708 155.295C132.26 162.136 131.767 164.943 130.451 165.491C129.903 165.656 128.379 165.524 126.668 163.682C124.53 161.38 118.445 157.433 113.676 155.295C109.86 153.584 110.551 152.17 111.373 151.676Z" fill="#FEF189"/>
<path d="M138.345 175.195C136.24 174.537 134.288 172.289 133.576 171.247C132.26 169.274 134.069 167.958 135.714 168.78C137.029 169.438 138.345 171.357 138.839 172.234C139.551 173.495 140.45 175.852 138.345 175.195Z" fill="#FEF189"/>
<path d="M151.831 195.917C150.647 194.338 157.587 189.996 161.205 188.023C166.962 184.461 172.06 182.924 173.047 183.911C173.836 184.7 167.565 188.845 164.33 190.818C160.657 193.176 153.015 197.496 151.831 195.917Z" fill="#FEF189"/>
<path d="M232.747 163.189C233.273 162.399 236.365 160.996 237.845 160.393C240.148 159.366 242.779 161.709 240.312 162.86C238.339 163.781 234.994 164.121 233.569 164.175C233.076 164.175 232.221 163.978 232.747 163.189Z" fill="#FEF189"/>
<path d="M244.917 159.242C244.786 157.005 252.318 155.24 256.101 154.637C261.034 153.586 267.777 153.65 268.271 155.459C268.666 156.906 261.199 158.803 257.416 159.571C253.305 160.393 245.049 161.478 244.917 159.242Z" fill="#FEF189"/>
<path d="M261.034 131.941C258.535 129.573 258.677 128.432 259.061 128.158C262.515 124.704 276.001 143.782 277.645 148.058C279.29 152.334 276.001 150.196 274.849 148.058C273.698 145.92 264.159 134.901 261.034 131.941Z" fill="#FEF189"/>
<path d="M190.646 191.312L182.587 197.397L187.027 199.864L194.428 198.816L199.362 197.071L190.646 191.312Z" fill="#C495C9"/>
<circle cx="252.647" cy="203.811" r="2.30248" fill="#E6EFE5"/>
<path d="M253.177 203.592C253.059 203.356 252.823 202.813 252.823 202.529C252.965 201.963 253.473 202.293 253.709 202.529C254.004 202.825 254.488 203.486 254.063 203.769C253.638 204.053 253.296 203.769 253.177 203.592Z" fill="#F3F5EC"/>
<circle cx="256.264" cy="201.179" r="2.30248" fill="#E6EFE5"/>
<path d="M256.796 200.961C256.678 200.725 256.442 200.182 256.442 199.898C256.584 199.332 257.091 199.662 257.327 199.898C257.623 200.194 258.107 200.855 257.682 201.138C257.257 201.422 256.914 201.138 256.796 200.961Z" fill="#F3F5EC"/>
<circle cx="260.212" cy="198.877" r="2.30248" fill="#E6EFE5"/>
<path d="M260.744 198.659C260.626 198.423 260.39 197.88 260.39 197.596C260.532 197.029 261.04 197.36 261.276 197.596C261.571 197.891 262.055 198.553 261.63 198.836C261.205 199.119 260.862 198.836 260.744 198.659Z" fill="#F3F5EC"/>
<circle cx="285.869" cy="227.823" r="2.30248" fill="#E6EFE5"/>
<path d="M286.401 227.604C286.283 227.368 286.047 226.825 286.047 226.541C286.189 225.975 286.696 226.305 286.932 226.541C287.228 226.837 287.712 227.498 287.287 227.781C286.862 228.065 286.519 227.781 286.401 227.604Z" fill="#F3F5EC"/>
<circle cx="286.856" cy="232.098" r="2.30248" fill="#E6EFE5"/>
<path d="M287.388 231.88C287.27 231.644 287.034 231.101 287.034 230.817C287.175 230.251 287.683 230.581 287.919 230.817C288.214 231.113 288.699 231.774 288.273 232.057C287.848 232.341 287.506 232.057 287.388 231.88Z" fill="#F3F5EC"/>
<circle cx="288.829" cy="236.046" r="2.30248" fill="#E6EFE5"/>
<path d="M289.36 235.827C289.242 235.591 289.006 235.048 289.006 234.764C289.148 234.198 289.655 234.528 289.891 234.764C290.187 235.06 290.671 235.721 290.246 236.004C289.821 236.288 289.478 236.004 289.36 235.827Z" fill="#F3F5EC"/>
<circle cx="291.46" cy="239.664" r="2.30248" fill="#E6EFE5"/>
<path d="M291.99 239.446C291.872 239.21 291.636 238.667 291.636 238.383C291.777 237.816 292.285 238.147 292.521 238.383C292.817 238.678 293.301 239.34 292.876 239.623C292.45 239.906 292.108 239.623 291.99 239.446Z" fill="#F3F5EC"/>
<circle cx="294.751" cy="242.624" r="2.30248" fill="#E6EFE5"/>
<path d="M295.281 242.406C295.163 242.17 294.927 241.627 294.927 241.343C295.069 240.777 295.577 241.107 295.813 241.343C296.108 241.639 296.592 242.3 296.167 242.583C295.742 242.867 295.4 242.583 295.281 242.406Z" fill="#F3F5EC"/>
<circle cx="298.698" cy="244.598" r="2.30248" fill="#E6EFE5"/>
<path d="M299.228 244.379C299.11 244.143 298.874 243.6 298.874 243.317C299.016 242.75 299.523 243.08 299.76 243.317C300.055 243.612 300.539 244.273 300.114 244.556C299.689 244.84 299.346 244.556 299.228 244.379Z" fill="#F3F5EC"/>
<circle cx="264.159" cy="196.575" r="2.30248" fill="#E6EFE5"/>
<path d="M264.692 196.356C264.574 196.12 264.337 195.577 264.337 195.293C264.479 194.727 264.987 195.057 265.223 195.293C265.518 195.589 266.002 196.25 265.577 196.533C265.152 196.817 264.81 196.533 264.692 196.356Z" fill="#F3F5EC"/>
<circle cx="268.436" cy="195.916" r="2.30248" fill="#E6EFE5"/>
<path d="M268.967 195.698C268.849 195.462 268.613 194.919 268.613 194.635C268.754 194.069 269.262 194.399 269.498 194.635C269.794 194.931 270.278 195.592 269.853 195.875C269.428 196.159 269.085 195.875 268.967 195.698Z" fill="#F3F5EC"/>
<path d="M194.591 198.877L193.44 205.784C191.203 206.048 189.218 206.881 188.506 207.265L187.19 199.864L194.591 198.877Z" fill="#A77EB6"/>
<path d="M237.085 208.412C233.387 208.535 231.891 205.495 231.606 203.96L252.323 198.28C253.419 200.491 252.894 202.067 252.494 202.578C252.152 202.988 251.09 204.083 249.584 205.188C247.7 206.57 241.708 208.259 237.085 208.412Z" fill="#DD852B"/>
<path d="M231.606 203.653C231.332 200.829 237.199 198.076 240.167 197.052C243.192 196.131 249.755 194.903 251.809 197.359C254.378 200.43 247.529 203.5 244.618 204.728C241.708 205.956 231.948 207.184 231.606 203.653Z" fill="#FBBB51"/>
<path d="M232.642 203.274C232.398 200.946 237.62 198.678 240.261 197.834C242.953 197.075 248.794 196.063 250.622 198.087C252.908 200.618 246.813 203.148 244.222 204.16C241.632 205.172 232.947 206.184 232.642 203.274Z" stroke="#EDB057"/>
<path d="M238.455 198.434C242.221 197.154 250.029 195.486 251.125 199.048C250.782 198.28 247.769 197.083 238.455 198.434Z" fill="#EFEDBD"/>
<path d="M126.997 226.343L118.445 227.658L125.024 230.29L128.149 234.895C128.543 233.974 129.519 233.195 129.958 232.921L126.997 226.343Z" fill="#F1FFFF"/>
<path d="M116.472 236.046L118.117 227.823L125.024 230.289L128.149 234.894C127.754 235.947 127.875 236.649 127.985 236.868C126.143 237.394 124.037 239.28 123.215 240.157L116.472 236.046Z" fill="#E3F7F8"/>
<path d="M116.472 236.046L120.584 235.059L118.281 227.823L125.024 230.29L126.998 226.343" stroke="#C8CDD1" stroke-width="0.5"/>
<path d="M125.025 238.677L120.584 235.059L125.025 230.289L128.15 234.894" stroke="#C8CDD1" stroke-width="0.5"/>
<path d="M146.5 237.091C147.449 239.508 144.291 241.648 142.593 242.416L131.549 230.76C133.844 229.197 135.766 228.953 136.44 229.027C136.984 229.1 138.472 229.395 140.069 229.982C142.065 230.716 145.312 234.07 146.5 237.091Z" fill="#DD852B"/>
<path d="M142.243 242.532C139.064 243.779 134.624 240.908 132.801 239.318C131.083 237.65 128.239 233.742 130.606 231.449C133.565 228.582 138.584 231.986 140.629 233.462C142.673 234.938 146.217 240.974 142.243 242.532Z" fill="#FBBB51"/>
<path d="M141.581 241.985C138.966 243.024 135.222 240.402 133.677 238.961C132.218 237.454 129.779 233.945 131.7 231.965C134.102 229.49 138.336 232.596 140.064 233.94C141.791 235.284 144.851 240.686 141.581 241.985Z" stroke="#EDB057"/>
<path d="M140.148 234.146C137.766 232.157 132.621 229.202 131.101 233.299C131.503 232.429 133.876 231.381 140.148 234.146Z" fill="#EFEDBD"/>
<path d="M236.676 204.687C236.485 207.642 232.194 208.323 230.072 208.293L224.328 190.908C227.45 190.407 229.55 191.086 230.209 191.488C230.735 191.828 232.126 192.852 233.488 194.232C235.191 195.957 236.914 200.993 236.676 204.687Z" fill="#DD852B"/>
<path d="M229.653 208.242C225.773 207.989 222.585 202.875 221.476 200.35C220.512 197.796 219.472 192.384 223.022 191.162C227.46 189.636 230.985 195.581 232.379 198.095C233.773 200.61 234.504 208.558 229.653 208.242Z" fill="#FBBB51"/>
<path d="M229.236 207.357C226.036 207.163 223.446 202.642 222.551 200.406C221.776 198.144 220.961 193.34 223.9 192.226C227.573 190.834 230.435 196.091 231.565 198.315C232.695 200.539 233.235 207.6 229.236 207.357Z" stroke="#EDB057"/>
<path d="M231.552 198.569C230.059 195.361 226.185 189.819 222.636 193.312C223.472 192.609 226.425 192.676 231.552 198.569Z" fill="#EFEDBD"/>
<path d="M214.321 203.587C215.213 206.024 212.619 207.936 211.21 208.587L201.431 196.434C203.317 195.038 204.935 194.916 205.508 195.03C205.972 195.136 207.242 195.518 208.615 196.194C210.332 197.039 213.204 200.541 214.321 203.587Z" fill="#DD852B"/>
<path d="M210.915 208.679C208.27 209.709 204.406 206.611 202.804 204.933C201.289 203.186 198.737 199.165 200.657 197.054C203.056 194.415 207.43 198.075 209.215 199.653C211 201.232 214.222 207.391 210.915 208.679Z" fill="#FBBB51"/>
<path d="M210.336 208.1C208.16 208.961 204.894 206.15 203.533 204.636C202.243 203.063 200.05 199.46 201.603 197.63C203.545 195.342 207.244 198.66 208.755 200.089C210.267 201.518 213.056 207.024 210.336 208.1Z" stroke="#EDB057"/>
<path d="M208.834 200.297C206.744 198.193 202.28 194.968 201.144 198.905C201.453 198.074 203.423 197.189 208.834 200.297Z" fill="#EFEDBD"/>
<path d="M239.326 202.66L240.971 209.074C242.681 208.416 245.96 208.032 247.385 207.922L249.523 202.66L244.096 199.042L239.326 202.66Z" fill="#EF3356"/>
<path d="M240.971 209.074L239.326 202.66L244.096 199.042L249.523 202.66L247.385 207.922" stroke="#AD2062" stroke-width="0.5"/>
<path d="M239.491 202.66L241.794 204.14L244.096 199.206L246.728 203.646L249.359 202.824" stroke="#AD2062" stroke-width="0.5"/>
<path d="M242.45 208.581L241.792 204.14L246.726 203.647L245.74 208.087" stroke="#AD2062" stroke-width="0.5"/>
<circle cx="221.07" cy="227.823" r="2.30248" fill="#E6EFE5"/>
<path d="M221.601 227.604C221.483 227.368 221.247 226.825 221.247 226.541C221.388 225.975 221.896 226.305 222.132 226.541C222.427 226.837 222.911 227.498 222.486 227.781C222.061 228.065 221.719 227.781 221.601 227.604Z" fill="#F3F5EC"/>
<path d="M178.134 217.344C175.124 219.005 172.474 216.838 171.525 215.546L186.067 201.652C188.001 203.225 188.297 204.893 188.203 205.531C188.109 206.05 187.737 207.501 187.001 209.148C186.081 211.206 181.896 215.267 178.134 217.344Z" fill="#DD852B"/>
<path d="M171.383 215.264C169.845 212.783 173.432 207.796 175.418 205.613C177.499 203.5 182.371 199.623 185.214 201.02C188.769 202.767 184.515 208.456 182.671 210.804C180.828 213.151 173.306 218.366 171.383 215.264Z" fill="#FBBB51"/>
<path d="M172.066 214.482C170.783 212.445 174.06 208.173 175.858 206.292C177.738 204.468 182.111 201.092 184.567 202.187C187.636 203.555 183.757 208.433 182.079 210.448C180.401 212.462 173.669 217.029 172.066 214.482Z" stroke="#EDB057"/>
<path d="M174.64 207.599C177.169 204.846 182.869 200.044 185.43 202.859C184.79 202.297 181.736 202.458 174.64 207.599Z" fill="#EFEDBD"/>
<path d="M205.027 231.02C202.441 229.644 203.036 226.306 203.656 224.808L220.792 228.016C220.365 230.447 219.17 231.656 218.626 231.956C218.176 232.187 216.871 232.747 215.257 233.138C213.24 233.625 208.259 232.739 205.027 231.02Z" fill="#DD852B"/>
<path d="M203.82 224.532C205.133 221.878 210.593 221.755 213.159 222.026C215.71 222.411 220.835 223.942 220.931 226.98C221.052 230.777 214.754 230.791 212.118 230.728C209.482 230.665 202.178 227.85 203.82 224.532Z" fill="#FBBB51"/>
<path d="M204.727 224.607C205.797 222.412 210.56 222.466 212.808 222.768C215.045 223.165 219.564 224.601 219.735 227.158C219.949 230.356 214.452 230.186 212.149 230.057C209.846 229.928 203.389 227.35 204.727 224.607Z" stroke="#EDB057"/>
<path d="M211.258 222.582C214.505 222.943 220.712 224.578 219.568 228.226C219.742 227.397 218.324 225.108 211.258 222.582Z" fill="#EFEDBD"/>
<path d="M237.413 221.898C233.715 222.037 232.22 218.597 231.935 216.86L252.652 210.433C253.747 212.934 253.222 214.718 252.823 215.297C252.48 215.76 251.419 216.999 249.912 218.25C248.029 219.813 242.036 221.724 237.413 221.898Z" fill="#DD852B"/>
<path d="M231.935 216.513C231.661 213.316 237.528 210.201 240.495 209.043C243.52 208.001 250.083 206.611 252.138 209.391C254.706 212.865 247.858 216.339 244.947 217.729C242.036 219.119 232.277 220.508 231.935 216.513Z" fill="#FBBB51"/>
<path d="M232.971 216.084C232.727 213.45 237.949 210.882 240.59 209.928C243.282 209.069 249.123 207.924 250.951 210.214C253.237 213.078 247.142 215.941 244.551 217.086C241.961 218.231 233.276 219.377 232.971 216.084Z" stroke="#EDB057"/>
<path d="M238.784 210.607C242.55 209.159 250.358 207.271 251.454 211.301C251.111 210.433 248.098 209.078 238.784 210.607Z" fill="#EFEDBD"/>
<path d="M256.877 210.386C253.805 210.49 252.563 207.93 252.326 206.637L269.537 201.854C270.447 203.716 270.011 205.043 269.679 205.474C269.395 205.819 268.513 206.741 267.261 207.672C265.696 208.835 260.718 210.257 256.877 210.386Z" fill="#DD852B"/>
<path d="M252.325 206.379C252.097 204 256.972 201.682 259.437 200.82C261.95 200.044 267.403 199.01 269.109 201.078C271.243 203.664 265.553 206.25 263.135 207.284C260.717 208.318 252.61 209.352 252.325 206.379Z" fill="#FBBB51"/>
<path d="M253.187 206.06C252.984 204.1 257.322 202.189 259.516 201.479C261.752 200.84 266.605 199.987 268.124 201.692C270.023 203.823 264.959 205.954 262.807 206.806C260.655 207.658 253.44 208.511 253.187 206.06Z" stroke="#EDB057"/>
<path d="M258.014 201.983C261.143 200.906 267.63 199.501 268.54 202.5C268.256 201.854 265.752 200.846 258.014 201.983Z" fill="#EFEDBD"/>
<circle cx="159.233" cy="246.571" r="2.30248" fill="#E6EFE5"/>
<path d="M159.762 246.353C159.644 246.117 159.408 245.573 159.408 245.29C159.55 244.723 160.058 245.054 160.294 245.29C160.589 245.585 161.073 246.246 160.648 246.53C160.223 246.813 159.881 246.53 159.762 246.353Z" fill="#F3F5EC"/>
<path d="M187.191 199.864L182.75 197.397L186.204 209.074C186.994 208.021 188.068 207.429 188.507 207.265L187.191 199.864Z" fill="#9F66AB"/>
<path d="M199.526 197.233L194.592 198.877L193.44 205.785C194.361 205.653 195.798 205.73 196.401 205.785L199.526 197.233Z" fill="#9F66AB"/>
<path d="M182.75 197.397L187.191 199.864L190.645 191.641L194.592 198.877L199.361 197.232" stroke="#904F9F" stroke-width="0.5"/>
<path d="M188.506 207.265C188.374 207.001 187.574 202.221 187.19 199.864L194.591 198.877L193.44 205.784" stroke="#904F9F" stroke-width="0.5"/>
<path d="M186.204 209.074L182.75 197.397L190.645 191.476L199.526 197.233L196.401 205.785" stroke="#904F9F" stroke-width="0.5"/>
<path d="M188.088 228.752C184.563 229.212 182.831 226.103 182.406 224.491L201.656 216.587C202.924 218.847 202.578 220.575 202.247 221.157C201.96 221.624 201.053 222.887 199.722 224.2C198.058 225.841 192.494 228.176 188.088 228.752Z" fill="#DD852B"/>
<path d="M182.376 224.163C181.834 221.175 187.172 217.716 189.908 216.36C192.71 215.108 198.865 213.213 201.074 215.65C203.835 218.697 197.59 222.582 194.928 224.151C192.267 225.72 183.055 227.899 182.376 224.163Z" fill="#FBBB51"/>
<path d="M183.328 223.667C182.864 221.205 187.632 218.32 190.074 217.185C192.574 216.136 198.06 214.536 200.009 216.533C202.447 219.028 196.869 222.27 194.492 223.58C192.115 224.891 183.909 226.744 183.328 223.667Z" stroke="#EDB057"/>
<path d="M188.409 217.985C191.884 216.285 199.186 213.811 200.588 217.512C200.184 216.724 197.183 215.715 188.409 217.985Z" fill="#EFEDBD"/>
<path d="M152.104 223.899C149.13 223.429 148.423 220.678 148.442 219.361L165.9 217.855C166.42 219.857 165.748 221.082 165.347 221.445C165.008 221.731 163.984 222.475 162.603 223.158C160.878 224.012 155.82 224.486 152.104 223.899Z" fill="#DD852B"/>
<path d="M148.49 219.107C148.724 216.723 153.852 215.347 156.386 214.958C158.95 214.662 164.389 214.658 165.636 217.012C167.195 219.954 161.232 221.441 158.71 222.009C156.189 222.577 148.197 222.086 148.49 219.107Z" fill="#FBBB51"/>
<path d="M149.381 218.953C149.559 216.985 154.094 215.912 156.338 215.621C158.61 215.408 163.438 215.472 164.573 217.432C165.993 219.883 160.719 221.038 158.488 221.477C156.256 221.916 149.157 221.412 149.381 218.953Z" stroke="#EDB057"/>
<path d="M154.799 215.839C158.012 215.36 164.516 215.184 164.82 218.306C164.669 217.617 162.455 216.158 154.799 215.839Z" fill="#EFEDBD"/>
<path d="M186.126 220.273C182.781 221.063 180.805 218.222 180.236 216.702L197.972 207.172C199.416 209.237 199.255 210.944 198.994 211.539C198.765 212.019 198.018 213.33 196.868 214.732C195.43 216.483 190.308 219.287 186.126 220.273Z" fill="#DD852B"/>
<path d="M180.175 216.388C179.356 213.547 184.149 209.678 186.647 208.098C189.218 206.613 194.952 204.178 197.32 206.322C200.279 209.002 194.656 213.373 192.251 215.152C189.846 216.931 181.199 219.939 180.175 216.388Z" fill="#FBBB51"/>
<path d="M181.041 215.814C180.35 213.477 184.651 210.218 186.888 208.881C189.189 207.621 194.308 205.537 196.382 207.28C198.975 209.459 193.93 213.141 191.774 214.642C189.617 216.142 181.905 218.737 181.041 215.814Z" stroke="#EDB057"/>
<path d="M185.365 209.819C188.54 207.834 195.319 204.726 197.035 208.173C196.569 207.449 193.581 206.765 185.365 209.819Z" fill="#EFEDBD"/>
<path d="M169.423 222.746C165.988 222.611 164.801 219.755 164.637 218.343L184.201 214.572C185.072 216.65 184.483 218.045 184.08 218.482C183.736 218.831 182.681 219.753 181.213 220.655C179.378 221.783 173.716 222.915 169.423 222.746Z" fill="#DD852B"/>
<path d="M164.657 218.065C164.587 215.485 170.202 213.379 173.019 212.648C175.881 212.014 182.042 211.338 183.785 213.702C185.965 216.658 179.419 218.986 176.642 219.906C173.866 220.826 164.744 221.29 164.657 218.065Z" fill="#FBBB51"/>
<path d="M165.642 217.79C165.568 215.663 170.553 213.953 173.055 213.364C175.598 212.855 181.076 212.326 182.638 214.284C184.59 216.731 178.779 218.62 176.313 219.365C173.847 220.11 165.734 220.449 165.642 217.79Z" stroke="#EDB057"/>
<path d="M171.343 213.787C174.916 212.878 182.258 211.885 183.041 215.188C182.774 214.469 180.06 213.182 171.343 213.787Z" fill="#EFEDBD"/>
<path d="M209.058 210.31C205.484 210.172 204.255 207.126 204.086 205.62L224.452 201.558C225.354 203.774 224.738 205.263 224.318 205.731C223.959 206.103 222.86 207.09 221.33 208.055C219.419 209.262 213.525 210.482 209.058 210.31Z" fill="#DD852B"/>
<path d="M204.108 205.323C204.041 202.57 209.888 200.311 212.82 199.526C215.8 198.844 222.212 198.11 224.021 200.63C226.283 203.781 219.468 206.278 216.577 207.266C213.685 208.253 204.193 208.765 204.108 205.323Z" fill="#FBBB51"/>
<path d="M205.134 205.028C205.061 202.758 210.252 200.923 212.856 200.29C215.504 199.742 221.205 199.167 222.826 201.253C224.853 203.861 218.802 205.888 216.235 206.689C213.667 207.489 205.225 207.867 205.134 205.028Z" stroke="#EDB057"/>
<path d="M211.073 200.745C214.793 199.767 222.435 198.694 223.243 202.217C222.967 201.451 220.145 200.082 211.073 200.745Z" fill="#EFEDBD"/>
<path d="M217.977 214.589C214.49 213.793 213.861 210.518 213.982 208.979L234.775 208.663C235.24 211.047 234.351 212.425 233.849 212.815C233.425 213.122 232.157 213.907 230.47 214.592C228.361 215.448 222.335 215.583 217.977 214.589Z" fill="#DD852B"/>
<path d="M214.06 208.686C214.518 205.918 220.695 204.734 223.726 204.488C226.785 204.354 233.228 204.8 234.527 207.656C236.151 211.226 228.976 212.471 225.947 212.926C222.917 213.382 213.488 212.147 214.06 208.686Z" fill="#FBBB51"/>
<path d="M215.122 208.579C215.483 206.293 220.935 205.413 223.615 205.258C226.322 205.197 232.036 205.671 233.233 208.058C234.729 211.042 228.395 211.957 225.719 212.285C223.043 212.613 214.672 211.437 215.122 208.579Z" stroke="#EDB057"/>
<path d="M221.776 205.386C225.619 205.093 233.335 205.425 233.459 209.101C233.333 208.283 230.82 206.394 221.776 205.386Z" fill="#EFEDBD"/>
<path d="M207.628 221.769C204.495 221.884 203.234 218.899 202.995 217.392L220.553 211.851C221.477 214.022 221.03 215.567 220.69 216.069C220.4 216.47 219.498 217.543 218.22 218.625C216.623 219.978 211.544 221.625 207.628 221.769Z" fill="#DD852B"/>
<path d="M202.996 217.092C202.769 214.32 207.743 211.627 210.259 210.628C212.823 209.729 218.384 208.534 220.12 210.947C222.29 213.963 216.484 216.965 214.016 218.166C211.548 219.366 203.28 220.556 202.996 217.092Z" fill="#FBBB51"/>
<path d="M203.872 216.721C203.67 214.437 208.096 212.219 210.335 211.395C212.617 210.654 217.566 209.67 219.111 211.659C221.042 214.145 215.875 216.619 213.679 217.608C211.484 218.597 204.125 219.577 203.872 216.721Z" stroke="#EDB057"/>
<path d="M208.806 211.98C211.999 210.731 218.615 209.106 219.537 212.602C219.248 211.849 216.698 210.669 208.806 211.98Z" fill="#EFEDBD"/>
<path d="M143.622 232.177C140.614 232.069 139.581 229.424 139.44 228.115L156.589 224.513C157.347 226.437 156.827 227.735 156.473 228.143C156.171 228.468 155.244 229.33 153.956 230.175C152.346 231.231 147.383 232.312 143.622 232.177Z" fill="#DD852B"/>
<path d="M139.458 227.857C139.403 225.462 144.327 223.478 146.796 222.785C149.305 222.182 154.704 221.522 156.226 223.708C158.128 226.441 152.389 228.636 149.954 229.504C147.519 230.373 139.527 230.85 139.458 227.857Z" fill="#FBBB51"/>
<path d="M140.322 227.596C140.262 225.622 144.634 224.009 146.827 223.449C149.056 222.963 153.856 222.444 155.22 224.253C156.925 226.515 151.829 228.298 149.667 229.003C147.505 229.708 140.397 230.064 140.322 227.596Z" stroke="#EDB057"/>
<path d="M145.324 223.851C148.457 222.989 154.892 222.029 155.57 225.091C155.338 224.425 152.963 223.245 145.324 223.851Z" fill="#EFEDBD"/>
<path d="M118.117 227.658L116.472 236.046L123.215 240.157" stroke="#C8CDD1" stroke-width="0.5"/>
<path d="M118.116 227.658L126.997 226.343L130.286 232.592" stroke="#C7CAD3" stroke-width="0.5"/>
<path d="M191.939 214.016C189.144 213.032 189.01 210.102 189.292 208.76L206.563 210.182C206.667 212.315 205.767 213.453 205.304 213.755C204.917 213.99 203.773 214.576 202.293 215.04C200.444 215.62 195.434 215.246 191.939 214.016Z" fill="#DD852B"/>
<path d="M189.391 208.509C190.098 206.114 195.358 205.579 197.9 205.611C200.451 205.743 205.738 206.661 206.477 209.277C207.401 212.546 201.307 213.054 198.742 213.206C196.176 213.359 188.507 211.503 189.391 208.509Z" fill="#FBBB51"/>
<path d="M190.285 208.502C190.854 206.523 195.477 206.195 197.717 206.279C199.968 206.446 204.648 207.33 205.357 209.525C206.245 212.269 200.886 212.555 198.63 212.624C196.373 212.694 189.574 210.976 190.285 208.502Z" stroke="#EDB057"/>
<path d="M196.179 206.241C199.398 206.297 205.755 207.22 205.423 210.46C205.415 209.73 203.556 207.865 196.179 206.241Z" fill="#EFEDBD"/>
<path d="M161.37 224.04L157.423 225.849L158.245 217.955L165.975 215.488L164.659 219.6L161.37 224.04Z" fill="#C495C9"/>
<path d="M165.975 215.488L164.659 219.6L167.784 223.053C168.442 222.395 168.935 222.067 169.593 221.902L165.975 215.488Z" fill="#9F66AB"/>
<path d="M161.535 224.04L157.588 225.849L164.002 228.481C164.166 227.494 164.166 227.329 164.66 226.507L161.535 224.04Z" fill="#9F66AB"/>
<path d="M164.001 228.48L157.423 225.849L158.245 217.79L165.975 215.323L169.593 221.902" stroke="#904F9F" stroke-width="0.5"/>
<path d="M164.659 226.507L161.37 224.04L164.659 219.599L167.784 223.053C166.863 223.843 165.317 225.684 164.659 226.507Z" fill="#A77EB6"/>
<path d="M157.423 225.849L161.37 224.04L158.41 217.955L164.659 219.6L165.975 215.488" stroke="#904F9F" stroke-width="0.5"/>
<path d="M164.659 226.507L161.37 224.04L164.659 219.599L167.784 223.053" stroke="#904F9F" stroke-width="0.5"/>
<path d="M227.484 217.955L226.826 223.382C224.59 223.645 223.153 224.04 222.715 224.204L219.919 217.79L224.524 213.35L227.484 217.955Z" fill="#E3F7F8"/>
<path d="M228.472 223.382H226.827L227.485 217.955L224.524 213.35L230.445 216.803L228.472 223.382Z" fill="#F1FFFF"/>
<path d="M219.919 217.79L223.044 218.777L224.524 213.514L227.484 218.119L230.445 216.803" stroke="#C8CDD1" stroke-width="0.5"/>
<path d="M224.359 223.711L223.043 218.777L227.483 218.119L226.826 223.382" stroke="#C8CDD1" stroke-width="0.5"/>
<path d="M222.715 224.204L219.919 217.79L224.524 213.35L230.445 216.803L228.471 223.382" stroke="#C8CDD1" stroke-width="0.5"/>
<circle cx="188.342" cy="262.195" r="2.13802" fill="#E6EFE5"/>
<path d="M188.836 261.992C188.727 261.773 188.507 261.269 188.507 261.005C188.639 260.479 189.11 260.786 189.33 261.005C189.604 261.28 190.053 261.894 189.659 262.157C189.264 262.42 188.946 262.157 188.836 261.992Z" fill="#F3F5EC"/>
<circle cx="185.711" cy="258.906" r="2.13802" fill="#E6EFE5"/>
<path d="M186.204 258.703C186.094 258.484 185.875 257.98 185.875 257.716C186.007 257.19 186.478 257.497 186.697 257.716C186.971 257.99 187.421 258.604 187.026 258.868C186.632 259.131 186.314 258.868 186.204 258.703Z" fill="#F3F5EC"/>
<circle cx="209.722" cy="275.681" r="2.13802" fill="#E6EFE5"/>
<path d="M210.217 275.479C210.107 275.259 209.888 274.755 209.888 274.492C210.02 273.965 210.491 274.272 210.71 274.492C210.985 274.766 211.434 275.38 211.039 275.643C210.645 275.906 210.327 275.643 210.217 275.479Z" fill="#F3F5EC"/>
<circle cx="213.669" cy="274.694" r="2.13802" fill="#E6EFE5"/>
<path d="M214.164 274.491C214.054 274.272 213.835 273.768 213.835 273.505C213.967 272.978 214.438 273.285 214.657 273.505C214.931 273.779 215.381 274.393 214.986 274.656C214.591 274.919 214.274 274.656 214.164 274.491Z" fill="#F3F5EC"/>
<circle cx="183.243" cy="255.123" r="2.30248" fill="#E6EFE5"/>
<path d="M183.775 254.905C183.657 254.669 183.42 254.126 183.42 253.842C183.562 253.275 184.07 253.606 184.306 253.842C184.601 254.137 185.085 254.799 184.66 255.082C184.235 255.365 183.893 255.082 183.775 254.905Z" fill="#F3F5EC"/>
<circle cx="179.954" cy="251.834" r="2.30248" fill="#E6EFE5"/>
<path d="M180.486 251.616C180.368 251.379 180.132 250.836 180.132 250.553C180.274 249.986 180.781 250.317 181.017 250.553C181.313 250.848 181.797 251.509 181.372 251.793C180.947 252.076 180.604 251.793 180.486 251.616Z" fill="#F3F5EC"/>
<circle cx="176.667" cy="248.874" r="2.30248" fill="#E6EFE5"/>
<path d="M177.197 248.655C177.078 248.419 176.842 247.876 176.842 247.592C176.984 247.026 177.492 247.356 177.728 247.592C178.023 247.888 178.507 248.549 178.082 248.832C177.657 249.116 177.315 248.832 177.197 248.655Z" fill="#F3F5EC"/>
<circle cx="172.719" cy="246.9" r="2.30248" fill="#E6EFE5"/>
<path d="M173.249 246.682C173.131 246.446 172.895 245.902 172.895 245.619C173.036 245.052 173.544 245.383 173.78 245.619C174.075 245.914 174.559 246.576 174.134 246.859C173.709 247.142 173.367 246.859 173.249 246.682Z" fill="#F3F5EC"/>
<circle cx="217.452" cy="272.885" r="2.30248" fill="#E6EFE5"/>
<path d="M217.983 272.667C217.865 272.431 217.629 271.888 217.629 271.604C217.771 271.038 218.278 271.368 218.514 271.604C218.81 271.9 219.294 272.561 218.869 272.844C218.444 273.128 218.101 272.844 217.983 272.667Z" fill="#F3F5EC"/>
<circle cx="221.4" cy="270.583" r="2.30248" fill="#E6EFE5"/>
<path d="M221.93 270.364C221.812 270.128 221.576 269.585 221.576 269.302C221.717 268.735 222.225 269.066 222.461 269.302C222.756 269.597 223.241 270.258 222.815 270.542C222.39 270.825 222.048 270.542 221.93 270.364Z" fill="#F3F5EC"/>
<circle cx="224.688" cy="267.623" r="2.30248" fill="#E6EFE5"/>
<path d="M225.219 267.404C225.101 267.168 224.865 266.625 224.865 266.342C225.007 265.775 225.515 266.105 225.751 266.342C226.046 266.637 226.53 267.298 226.105 267.581C225.68 267.865 225.338 267.581 225.219 267.404Z" fill="#F3F5EC"/>
<circle cx="227.978" cy="264.662" r="2.30248" fill="#E6EFE5"/>
<path d="M228.509 264.444C228.391 264.208 228.155 263.665 228.155 263.381C228.296 262.815 228.804 263.145 229.04 263.381C229.336 263.676 229.82 264.338 229.395 264.621C228.97 264.904 228.627 264.621 228.509 264.444Z" fill="#F3F5EC"/>
<circle cx="229.951" cy="260.715" r="2.30248" fill="#E6EFE5"/>
<path d="M230.482 260.496C230.364 260.26 230.128 259.717 230.128 259.434C230.27 258.867 230.777 259.198 231.013 259.434C231.309 259.729 231.793 260.39 231.368 260.674C230.943 260.957 230.6 260.674 230.482 260.496Z" fill="#F3F5EC"/>
<circle cx="230.608" cy="256.439" r="2.30248" fill="#E6EFE5"/>
<path d="M231.139 256.221C231.021 255.984 230.785 255.441 230.785 255.158C230.926 254.591 231.434 254.922 231.67 255.158C231.965 255.453 232.45 256.114 232.024 256.398C231.599 256.681 231.257 256.398 231.139 256.221Z" fill="#F3F5EC"/>
<circle cx="231.267" cy="252.163" r="2.30248" fill="#E6EFE5"/>
<path d="M231.798 251.945C231.68 251.709 231.443 251.165 231.443 250.882C231.585 250.315 232.093 250.646 232.329 250.882C232.624 251.177 233.108 251.838 232.683 252.122C232.258 252.405 231.916 252.122 231.798 251.945Z" fill="#F3F5EC"/>
<circle cx="230.608" cy="247.558" r="2.30248" fill="#E6EFE5"/>
<path d="M231.139 247.339C231.021 247.103 230.785 246.56 230.785 246.277C230.926 245.71 231.434 246.041 231.67 246.277C231.965 246.572 232.45 247.233 232.024 247.517C231.599 247.8 231.257 247.517 231.139 247.339Z" fill="#F3F5EC"/>
<circle cx="229.293" cy="243.282" r="2.30248" fill="#E6EFE5"/>
<path d="M229.824 243.063C229.706 242.827 229.47 242.284 229.47 242.001C229.612 241.434 230.12 241.765 230.356 242.001C230.651 242.296 231.135 242.957 230.71 243.24C230.285 243.524 229.943 243.24 229.824 243.063Z" fill="#F3F5EC"/>
<circle cx="228.307" cy="239.006" r="2.30248" fill="#E6EFE5"/>
<path d="M228.838 238.787C228.72 238.551 228.483 238.008 228.483 237.725C228.625 237.158 229.133 237.489 229.369 237.725C229.664 238.02 230.148 238.681 229.723 238.965C229.298 239.248 228.956 238.965 228.838 238.787Z" fill="#F3F5EC"/>
<circle cx="226.333" cy="235.059" r="2.30248" fill="#E6EFE5"/>
<path d="M226.864 234.841C226.746 234.605 226.51 234.061 226.51 233.778C226.651 233.211 227.159 233.542 227.395 233.778C227.691 234.073 228.175 234.734 227.75 235.018C227.324 235.301 226.982 235.018 226.864 234.841Z" fill="#F3F5EC"/>
<circle cx="224.032" cy="231.112" r="2.30248" fill="#E6EFE5"/>
<path d="M224.562 230.893C224.444 230.657 224.208 230.114 224.208 229.831C224.35 229.264 224.857 229.594 225.094 229.831C225.389 230.126 225.873 230.787 225.448 231.07C225.023 231.354 224.68 231.07 224.562 230.893Z" fill="#F3F5EC"/>
<circle cx="191.467" cy="265.32" r="2.30248" fill="#E6EFE5"/>
<path d="M191.998 265.102C191.88 264.866 191.644 264.323 191.644 264.039C191.786 263.472 192.293 263.803 192.53 264.039C192.825 264.334 193.309 264.996 192.884 265.279C192.459 265.562 192.116 265.279 191.998 265.102Z" fill="#F3F5EC"/>
<circle cx="194.428" cy="268.609" r="2.30248" fill="#E6EFE5"/>
<path d="M194.958 268.391C194.84 268.155 194.604 267.611 194.604 267.328C194.746 266.761 195.253 267.092 195.49 267.328C195.785 267.623 196.269 268.284 195.844 268.568C195.419 268.851 195.076 268.568 194.958 268.391Z" fill="#F3F5EC"/>
<circle cx="197.388" cy="271.57" r="2.30248" fill="#E6EFE5"/>
<path d="M197.917 271.352C197.799 271.116 197.563 270.572 197.563 270.289C197.705 269.722 198.212 270.053 198.449 270.289C198.744 270.584 199.228 271.245 198.803 271.529C198.378 271.812 198.035 271.529 197.917 271.352Z" fill="#F3F5EC"/>
<circle cx="201.007" cy="273.872" r="2.30248" fill="#E6EFE5"/>
<path d="M201.537 273.653C201.419 273.417 201.183 272.874 201.183 272.591C201.324 272.024 201.832 272.355 202.068 272.591C202.363 272.886 202.847 273.547 202.422 273.831C201.997 274.114 201.655 273.831 201.537 273.653Z" fill="#F3F5EC"/>
<circle cx="205.282" cy="275.517" r="2.30248" fill="#E6EFE5"/>
<path d="M205.813 275.298C205.695 275.062 205.459 274.519 205.459 274.236C205.601 273.669 206.108 273.999 206.345 274.236C206.64 274.531 207.124 275.192 206.699 275.475C206.274 275.759 205.931 275.475 205.813 275.298Z" fill="#F3F5EC"/>
<circle cx="168.442" cy="245.913" r="2.30248" fill="#E6EFE5"/>
<path d="M168.973 245.695C168.855 245.459 168.619 244.916 168.619 244.632C168.761 244.066 169.269 244.396 169.505 244.632C169.8 244.927 170.284 245.589 169.859 245.872C169.434 246.155 169.091 245.872 168.973 245.695Z" fill="#F3F5EC"/>
<circle cx="163.838" cy="245.913" r="2.30248" fill="#E6EFE5"/>
<path d="M164.369 245.695C164.251 245.459 164.015 244.916 164.015 244.632C164.156 244.066 164.664 244.396 164.9 244.632C165.195 244.927 165.68 245.589 165.254 245.872C164.829 246.155 164.487 245.872 164.369 245.695Z" fill="#F3F5EC"/>
<path d="M172.302 220.872C165.011 222.305 163.188 227.874 163.188 230.479C162.857 235.202 173.628 233.736 178.268 232.596C181.98 231.684 182.687 227.874 182.577 226.083C182.19 223.749 179.594 219.439 172.302 220.872Z" fill="#FAA53B"/>
<path d="M166.545 224.921C169.404 222.776 175.592 219.351 177.466 222.811C176.972 222.088 174.096 221.499 166.545 224.921Z" fill="#EFEDBD"/>
<path d="M186.445 227.779C179.154 229.212 177.331 234.781 177.331 237.387C176.999 242.109 187.771 240.644 192.411 239.504C196.123 238.592 196.83 234.781 196.719 232.99C196.333 230.656 193.736 226.346 186.445 227.779Z" fill="#FAA53B"/>
<path d="M180.689 231.828C183.548 229.683 189.736 226.259 191.61 229.718C191.116 228.995 188.24 228.406 180.689 231.828Z" fill="#EFEDBD"/>
<path d="M165.622 240.317C162.406 240.014 161.595 236.367 161.591 234.581L180.393 230.583C180.991 233.236 180.288 234.972 179.861 235.508C179.501 235.934 178.41 237.056 176.933 238.136C175.087 239.487 169.641 240.696 165.622 240.317Z" fill="#DD852B"/>
<path d="M161.638 234.231C161.848 230.975 167.354 228.537 170.081 227.725C172.841 227.036 178.707 226.421 180.094 229.47C181.828 233.281 175.423 235.964 172.714 237.016C170.004 238.069 161.376 238.301 161.638 234.231Z" fill="#FBBB51"/>
<path d="M162.592 233.923C162.75 231.237 167.621 229.274 170.037 228.628C172.484 228.085 177.691 227.63 178.951 230.159C180.526 233.319 174.859 235.476 172.46 236.321C170.061 237.165 162.395 237.279 162.592 233.923Z" stroke="#EDB057"/>
<path d="M168.384 229.096C171.842 228.088 178.853 227.12 179.237 231.315C179.062 230.398 176.647 228.671 168.384 229.096Z" fill="#EFEDBD"/>
<path d="M147.242 240.569C143.762 239.841 143.232 236.062 143.401 234.264L164.312 232.715C164.705 235.464 163.769 237.119 163.251 237.602C162.816 237.984 161.517 238.97 159.799 239.863C157.653 240.98 151.592 241.48 147.242 240.569Z" fill="#DD852B"/>
<path d="M143.489 233.918C144.035 230.668 150.282 228.939 153.337 228.48C156.416 228.151 162.878 228.304 164.095 231.556C165.616 235.62 158.365 237.477 155.305 238.18C152.246 238.883 142.806 237.98 143.489 233.918Z" fill="#FBBB51"/>
<path d="M144.56 233.734C144.994 231.051 150.501 229.717 153.201 229.384C155.924 229.159 161.652 229.387 162.781 232.098C164.192 235.488 157.796 236.913 155.096 237.447C152.396 237.981 144.018 237.087 144.56 233.734Z" stroke="#EDB057"/>
<path d="M151.35 229.637C155.222 229.077 162.968 229.026 162.978 233.299C162.877 232.353 160.41 230.297 151.35 229.637Z" fill="#EFEDBD"/>
<path d="M164.882 246.254C161.3 245.488 160.659 241.969 160.787 240.305L182.157 239.408C182.631 241.969 181.715 243.48 181.198 243.915C180.762 244.257 179.457 245.139 177.722 245.923C175.553 246.904 169.359 247.211 164.882 246.254Z" fill="#DD852B"/>
<path d="M160.866 239.986C161.341 236.985 167.692 235.542 170.809 235.195C173.953 234.969 180.574 235.278 181.904 238.326C183.566 242.136 176.19 243.672 173.075 244.245C169.96 244.818 160.271 243.737 160.866 239.986Z" fill="#FBBB51"/>
<path d="M161.96 239.843C162.334 237.365 167.939 236.269 170.695 236.031C173.477 235.892 179.348 236.251 180.574 238.796C182.106 241.977 175.595 243.134 172.844 243.56C170.093 243.986 161.492 242.939 161.96 239.843Z" stroke="#EDB057"/>
<path d="M168.806 236.217C172.756 235.798 180.686 235.951 180.807 239.915C180.679 239.035 178.099 237.063 168.806 236.217Z" fill="#EFEDBD"/>
<path d="M146.239 241.473L140.812 234.237L145.91 227.494L153.805 229.961L152.818 239.335C150.45 239.335 147.445 240.76 146.239 241.473Z" fill="#EF3356"/>
<path d="M146.239 241.473L140.812 234.237L145.91 227.494L153.805 229.961L152.818 239.335" stroke="#AD2062" stroke-width="0.5"/>
<path d="M140.812 234.236L145.253 234.401L145.91 227.658L150.68 232.592L153.64 230.125" stroke="#AD2062" stroke-width="0.5"/>
<path d="M148.049 240.486L145.253 234.401L150.68 232.592L151.338 239.499" stroke="#AD2062" stroke-width="0.5"/>
<path d="M149.934 238.634C142.642 240.067 140.819 245.636 140.819 248.242C140.488 252.964 151.259 251.499 155.899 250.359C159.611 249.447 160.319 245.636 160.208 243.845C159.821 241.511 157.225 237.201 149.934 238.634Z" fill="#FAA53B"/>
<path d="M144.178 242.683C147.038 240.538 153.225 237.113 155.099 240.573C154.605 239.85 151.729 239.261 144.178 242.683Z" fill="#EFEDBD"/>
<path d="M144.098 255.361C140.545 255.243 139.341 251.894 139.182 250.234L159.46 245.56C160.344 247.996 159.723 249.645 159.301 250.165C158.942 250.579 157.843 251.678 156.316 252.758C154.408 254.107 148.539 255.508 144.098 255.361Z" fill="#DD852B"/>
<path d="M139.205 249.906C139.155 246.869 144.984 244.322 147.904 243.428C150.872 242.648 157.253 241.778 159.037 244.541C161.267 247.995 154.474 250.815 151.593 251.931C148.712 253.048 139.268 253.702 139.205 249.906Z" fill="#FBBB51"/>
<path d="M140.226 249.571C140.167 247.067 145.341 244.994 147.935 244.271C150.571 243.641 156.244 242.953 157.844 245.239C159.844 248.097 153.814 250.391 151.256 251.298C148.697 252.205 140.299 252.701 140.226 249.571Z" stroke="#EDB057"/>
<path d="M146.161 244.789C149.867 243.676 157.473 242.42 158.256 246.3C157.985 245.456 155.188 243.973 146.161 244.789Z" fill="#EFEDBD"/>
<path d="M132.71 249.277C129.74 249.167 128.712 246.659 128.57 245.419L145.488 242.058C146.242 243.882 145.733 245.109 145.384 245.495C145.086 245.802 144.175 246.615 142.905 247.411C141.319 248.407 136.423 249.415 132.71 249.277Z" fill="#DD852B"/>
<path d="M128.588 245.174C128.527 242.907 133.382 241.043 135.818 240.394C138.293 239.83 143.621 239.221 145.129 241.295C147.015 243.887 141.355 245.949 138.954 246.764C136.553 247.58 128.665 248.009 128.588 245.174Z" fill="#FBBB51"/>
<path d="M129.438 244.931C129.373 243.061 133.684 241.547 135.847 241.023C138.047 240.569 142.783 240.092 144.135 241.809C145.824 243.955 140.799 245.629 138.667 246.29C136.534 246.95 129.519 247.268 129.438 244.931Z" stroke="#EDB057"/>
<path d="M134.369 241.399C137.459 240.592 143.808 239.702 144.486 242.603C144.255 241.972 141.908 240.847 134.369 241.399Z" fill="#EFEDBD"/>
<path d="M125.58 245.767C122.987 245.814 121.991 243.279 121.818 242.006L136.434 237.613C137.164 239.457 136.769 240.752 136.48 241.17C136.233 241.503 135.47 242.393 134.395 243.285C133.051 244.399 128.823 245.708 125.58 245.767Z" fill="#DD852B"/>
<path d="M121.823 241.752C121.68 239.413 125.839 237.223 127.937 236.42C130.073 235.703 134.693 234.784 136.091 236.844C137.837 239.421 132.985 241.859 130.924 242.831C128.863 243.804 122.002 244.676 121.823 241.752Z" fill="#FBBB51"/>
<path d="M122.556 241.454C122.425 239.526 126.123 237.727 127.989 237.068C129.888 236.48 133.999 235.729 135.246 237.429C136.804 239.554 132.489 241.557 130.656 242.356C128.823 243.155 122.719 243.864 122.556 241.454Z" stroke="#EDB057"/>
<path d="M126.713 237.537C129.375 236.535 134.875 235.27 135.582 238.231C135.355 237.591 133.264 236.557 126.713 237.537Z" fill="#EFEDBD"/>
<path d="M192.126 242.46C188.573 242.591 187.137 239.335 186.863 237.69L206.763 231.605C207.815 233.973 207.311 235.662 206.927 236.21C206.598 236.649 205.579 237.822 204.131 239.006C202.322 240.486 196.566 242.295 192.126 242.46Z" fill="#DD852B"/>
<path d="M186.862 237.362C186.599 234.335 192.235 231.386 195.086 230.29C197.991 229.303 204.295 227.987 206.269 230.619C208.736 233.908 202.157 237.197 199.362 238.513C196.566 239.828 187.191 241.144 186.862 237.362Z" fill="#FBBB51"/>
<path d="M187.856 236.955C187.622 234.461 192.637 232.031 195.174 231.127C197.76 230.314 203.371 229.23 205.127 231.398C207.322 234.109 201.468 236.82 198.98 237.904C196.491 238.988 188.149 240.073 187.856 236.955Z" stroke="#EDB057"/>
<path d="M193.44 231.77C197.059 230.399 204.558 228.612 205.611 232.427C205.282 231.605 202.387 230.322 193.44 231.77Z" fill="#EFEDBD"/>
<circle cx="271.889" cy="198.384" r="2.13802" fill="#E6EFE5"/>
<path d="M272.383 198.181C272.273 197.962 272.054 197.458 272.054 197.194C272.185 196.668 272.657 196.975 272.876 197.194C273.15 197.469 273.6 198.082 273.205 198.346C272.81 198.609 272.492 198.346 272.383 198.181Z" fill="#F3F5EC"/>
<circle cx="274.52" cy="201.673" r="2.13802" fill="#E6EFE5"/>
<path d="M275.015 200.812C274.905 200.593 274.686 200.089 274.686 199.825C274.818 199.299 275.289 199.606 275.508 199.825C275.782 200.1 276.232 200.714 275.837 200.977C275.443 201.24 275.125 200.977 275.015 200.812Z" fill="#F3F5EC"/>
<circle cx="276.494" cy="205.291" r="2.13802" fill="#E6EFE5"/>
<path d="M276.987 205.088C276.877 204.869 276.658 204.365 276.658 204.101C276.79 203.575 277.261 203.882 277.481 204.101C277.755 204.375 278.204 204.989 277.809 205.253C277.415 205.516 277.097 205.253 276.987 205.088Z" fill="#F3F5EC"/>
<circle cx="284.059" cy="224.04" r="2.13802" fill="#E6EFE5"/>
<path d="M284.554 223.837C284.444 223.618 284.225 223.113 284.225 222.85C284.356 222.324 284.828 222.631 285.047 222.85C285.321 223.124 285.771 223.738 285.376 224.001C284.981 224.265 284.663 224.001 284.554 223.837Z" fill="#F3F5EC"/>
</svg>
