<svg width="395" height="491" viewBox="0 0 395 491" fill="none" xmlns="http://www.w3.org/2000/svg">
<rect width="394.099" height="490.871" rx="20" fill="#202020" fill-opacity="0.5"/>
<path d="M55.92 76.32C54.3467 76.1067 52.5867 76 50.64 76C48.72 76 47.3467 76.0533 46.52 76.16L46.36 75.6C46.68 75.4933 46.9867 75.3333 47.28 75.12C47.5733 74.88 47.72 74.6267 47.72 74.36C47.72 72.4133 45.9467 65.9067 42.4 54.84C42.08 53.8267 41.76 52.9333 41.44 52.16C38.32 52.16 36.32 52.5867 35.44 53.44C35.2533 53.8133 35.16 54.4 35.16 55.2C35.16 56 35.2933 56.5467 35.56 56.84L35.52 57.12C34.8533 57.52 34.1867 58.08 33.52 58.8C33.2 58.7733 32.9467 58.64 32.76 58.4C32.5467 58.16 32.44 57.88 32.44 57.56C32.44 56.2533 33.2267 54.6933 34.8 52.88C36.3733 51.0667 37.84 49.92 39.2 49.44C39.4133 49.44 40.3733 49.5333 42.08 49.72C43.7867 49.88 45.12 49.96 46.08 49.96C47.0667 49.96 47.9733 49.88 48.8 49.72L48.96 50.72C48.1067 51.04 46.9733 51.3867 45.56 51.76C45.8267 54.0267 46.52 57.28 47.64 61.52C48.7867 65.7333 50 69.64 51.28 73.24C53.52 68.28 55.0133 64.52 55.76 61.96C56.5333 59.3733 56.92 57.1467 56.92 55.28C56.92 52.7733 56.2533 51.1333 54.92 50.36L55.08 49.8C55.9067 49.9067 57.2267 49.96 59.04 49.96C60.88 49.96 62.5867 49.8533 64.16 49.64L64.32 50.64C63.12 51.0133 61.84 51.2933 60.48 51.48C60.6133 52.4133 60.68 53.1867 60.68 53.8C60.68 56.1467 60.0933 58.6667 58.92 61.36C57.7733 64.0533 55.5467 68.4667 52.24 74.6C53.6 74.7867 54.88 75.0667 56.08 75.44L55.92 76.32ZM73.4653 76.48C70.8253 76.48 68.692 75.6533 67.0653 74C65.4386 72.32 64.6253 70.08 64.6253 67.28C64.6253 64.48 65.4786 61.8533 67.1853 59.4C68.892 56.9467 71.1186 55.3733 73.8653 54.68C76.612 54.68 78.7053 55.4667 80.1453 57.04C81.5853 58.5867 82.3053 60.8 82.3053 63.68C82.3053 66.56 81.5186 69.16 79.9453 71.48C78.3986 73.8 76.2386 75.4667 73.4653 76.48ZM72.7853 57.12C71.5853 57.12 70.5453 57.4533 69.6653 58.12C68.572 59.9867 68.0253 62.3333 68.0253 65.16C68.0253 68.4133 68.932 70.9067 70.7453 72.64C71.7053 73.5733 72.8386 74.04 74.1453 74.04C75.452 74.04 76.5053 73.6933 77.3053 73C78.372 71.1333 78.9053 68.8533 78.9053 66.16C78.9053 63.4667 78.4253 61.2933 77.4653 59.64C76.5053 57.96 74.9453 57.12 72.7853 57.12ZM94.52 76.48C91.88 76.48 89.7467 75.6533 88.12 74C86.4933 72.32 85.68 70.08 85.68 67.28C85.68 64.48 86.5333 61.8533 88.24 59.4C89.9467 56.9467 92.1733 55.3733 94.92 54.68C97.6667 54.68 99.76 55.4667 101.2 57.04C102.64 58.5867 103.36 60.8 103.36 63.68C103.36 66.56 102.573 69.16 101 71.48C99.4533 73.8 97.2933 75.4667 94.52 76.48ZM93.84 57.12C92.64 57.12 91.6 57.4533 90.72 58.12C89.6267 59.9867 89.08 62.3333 89.08 65.16C89.08 68.4133 89.9867 70.9067 91.8 72.64C92.76 73.5733 93.8933 74.04 95.2 74.04C96.5067 74.04 97.56 73.6933 98.36 73C99.4267 71.1333 99.96 68.8533 99.96 66.16C99.96 63.4667 99.48 61.2933 98.52 59.64C97.56 57.96 96 57.12 93.84 57.12ZM106.495 55.24L115.695 54.96C118.735 54.96 121.068 55.68 122.695 57.12C124.348 58.56 125.175 60.72 125.175 63.6C125.175 66.4533 124.268 69.12 122.455 71.6C120.668 74.08 118.441 75.7067 115.775 76.48C115.081 76.48 114.175 76.3467 113.055 76.08C111.961 75.84 111.055 75.5733 110.335 75.28C110.041 75.6267 109.775 76.12 109.535 76.76L108.695 76.56C109.201 74.1867 109.455 70.84 109.455 66.52C109.455 62.1733 109.335 58.92 109.095 56.76C108.188 56.4133 107.321 56.24 106.495 56.24V55.24ZM120.255 59.24C119.775 58.3333 119.095 57.6267 118.215 57.12C117.361 56.6133 116.415 56.36 115.375 56.36C114.361 56.36 113.481 56.5067 112.735 56.8C112.548 58.5333 112.455 61.3067 112.455 65.12C112.455 68.9067 112.508 71.5333 112.615 73C113.948 73.6133 115.308 73.92 116.695 73.92C118.108 73.92 119.228 73.56 120.055 72.84C121.068 70.92 121.575 68.56 121.575 65.76C121.575 63.1467 121.135 60.9733 120.255 59.24ZM137.137 76.48C134.497 76.48 132.364 75.6533 130.737 74C129.111 72.32 128.297 70.08 128.297 67.28C128.297 64.48 129.151 61.8533 130.857 59.4C132.564 56.9467 134.791 55.3733 137.537 54.68C140.284 54.68 142.377 55.4667 143.817 57.04C145.257 58.5867 145.977 60.8 145.977 63.68C145.977 66.56 145.191 69.16 143.617 71.48C142.071 73.8 139.911 75.4667 137.137 76.48ZM136.457 57.12C135.257 57.12 134.217 57.4533 133.337 58.12C132.244 59.9867 131.697 62.3333 131.697 65.16C131.697 68.4133 132.604 70.9067 134.417 72.64C135.377 73.5733 136.511 74.04 137.817 74.04C139.124 74.04 140.177 73.6933 140.977 73C142.044 71.1333 142.577 68.8533 142.577 66.16C142.577 63.4667 142.097 61.2933 141.137 59.64C140.177 57.96 138.617 57.12 136.457 57.12ZM158.192 76.48C155.552 76.48 153.419 75.6533 151.792 74C150.165 72.32 149.352 70.08 149.352 67.28C149.352 64.48 150.205 61.8533 151.912 59.4C153.619 56.9467 155.845 55.3733 158.592 54.68C161.339 54.68 163.432 55.4667 164.872 57.04C166.312 58.5867 167.032 60.8 167.032 63.68C167.032 66.56 166.245 69.16 164.672 71.48C163.125 73.8 160.965 75.4667 158.192 76.48ZM157.512 57.12C156.312 57.12 155.272 57.4533 154.392 58.12C153.299 59.9867 152.752 62.3333 152.752 65.16C152.752 68.4133 153.659 70.9067 155.472 72.64C156.432 73.5733 157.565 74.04 158.872 74.04C160.179 74.04 161.232 73.6933 162.032 73C163.099 71.1333 163.632 68.8533 163.632 66.16C163.632 63.4667 163.152 61.2933 162.192 59.64C161.232 57.96 159.672 57.12 157.512 57.12ZM187.182 76.68C187.822 73.7733 188.142 69.6 188.142 64.16C188.142 58.6933 188.022 54.6667 187.782 52.08C184.822 52.1333 182.928 52.56 182.102 53.36C181.915 53.7333 181.822 54.32 181.822 55.12C181.822 55.92 181.955 56.4667 182.222 56.76L182.182 57.04C181.515 57.44 180.848 58 180.182 58.72C179.862 58.6933 179.608 58.56 179.422 58.32C179.208 58.08 179.102 57.8 179.102 57.48C179.102 56.2533 179.808 54.8 181.222 53.12C182.608 51.44 183.942 50.28 185.222 49.64C187.488 49.8533 190.848 49.96 195.302 49.96C202.582 49.96 206.222 53.4933 206.222 60.56C206.222 64.2667 205.248 67.6267 203.302 70.64C201.355 73.6533 198.715 75.64 195.382 76.6C193.462 76.6 191.315 76.0933 188.942 75.08C188.488 75.7733 188.182 76.3733 188.022 76.88L187.182 76.68ZM194.662 51.84C193.435 51.84 192.408 51.9067 191.582 52.04C191.342 54.5467 191.222 58.0133 191.222 62.44C191.222 66.8667 191.288 70.2533 191.422 72.6C192.862 73.3467 194.502 73.72 196.342 73.72C198.182 73.72 199.608 73.2667 200.622 72.36C201.982 69.88 202.662 66.8133 202.662 63.16C202.662 59.5067 202.088 56.7067 200.942 54.76C199.822 52.8133 197.728 51.84 194.662 51.84ZM218.426 76.48C215.786 76.48 213.653 75.6533 212.026 74C210.4 72.32 209.586 70.08 209.586 67.28C209.586 64.48 210.44 61.8533 212.146 59.4C213.853 56.9467 216.08 55.3733 218.826 54.68C221.573 54.68 223.666 55.4667 225.106 57.04C226.546 58.5867 227.266 60.8 227.266 63.68C227.266 66.56 226.48 69.16 224.906 71.48C223.36 73.8 221.2 75.4667 218.426 76.48ZM217.746 57.12C216.546 57.12 215.506 57.4533 214.626 58.12C213.533 59.9867 212.986 62.3333 212.986 65.16C212.986 68.4133 213.893 70.9067 215.706 72.64C216.666 73.5733 217.8 74.04 219.106 74.04C220.413 74.04 221.466 73.6933 222.266 73C223.333 71.1333 223.866 68.8533 223.866 66.16C223.866 63.4667 223.386 61.2933 222.426 59.64C221.466 57.96 219.906 57.12 217.746 57.12ZM245.321 76.44C243.588 76.1467 241.228 76 238.241 76C235.281 76 232.801 76.1333 230.801 76.4L230.681 75.4C231.428 75.1067 232.281 74.8667 233.241 74.68C233.508 73.08 233.641 70.36 233.641 66.52V64.64C233.641 61.3333 233.508 58.6133 233.241 56.48C232.361 56.3467 231.521 56.1467 230.721 55.88L230.881 54.84C232.241 55.0533 233.841 55.16 235.681 55.16C237.521 55.16 239.094 55.0533 240.401 54.84L240.521 55.84C239.321 56.1333 238.134 56.3467 236.961 56.48C236.748 57.92 236.641 60.8933 236.641 65.4C236.641 69.88 236.748 72.8667 236.961 74.36C237.601 74.4667 238.508 74.52 239.681 74.52C240.854 74.52 241.908 74.2933 242.841 73.84C243.214 72.9333 243.401 71.8667 243.401 70.64H244.401C244.508 72.6933 244.881 74.36 245.521 75.64L245.321 76.44ZM261.61 76.44C259.877 76.1467 257.517 76 254.53 76C251.57 76 249.09 76.1333 247.09 76.4L246.97 75.4C247.717 75.1067 248.57 74.8667 249.53 74.68C249.797 73.08 249.93 70.36 249.93 66.52V64.64C249.93 61.3333 249.797 58.6133 249.53 56.48C248.65 56.3467 247.81 56.1467 247.01 55.88L247.17 54.84C248.53 55.0533 250.13 55.16 251.97 55.16C253.81 55.16 255.383 55.0533 256.69 54.84L256.81 55.84C255.61 56.1333 254.423 56.3467 253.25 56.48C253.037 57.92 252.93 60.8933 252.93 65.4C252.93 69.88 253.037 72.8667 253.25 74.36C253.89 74.4667 254.797 74.52 255.97 74.52C257.143 74.52 258.197 74.2933 259.13 73.84C259.503 72.9333 259.69 71.8667 259.69 70.64H260.69C260.797 72.6933 261.17 74.36 261.81 75.64L261.61 76.44Z" fill="#FAF9F6"/>
<path d="M40.5415 379.36V376.912H47.4535V379.36H40.5415ZM54.7388 385.24C53.5548 385.24 52.5228 384.968 51.6428 384.424C50.7788 383.88 49.9628 382.968 49.1948 381.688L51.2108 380.416C51.6108 381.008 52.0028 381.496 52.3868 381.88C52.7868 382.248 53.1948 382.52 53.6108 382.696C54.0268 382.872 54.4668 382.96 54.9308 382.96C55.4908 382.96 56.0108 382.824 56.4908 382.552C56.9708 382.264 57.3548 381.872 57.6428 381.376C57.9308 380.88 58.0748 380.32 58.0748 379.696C58.0748 379.072 57.9628 378.544 57.7388 378.112C57.5148 377.664 57.1868 377.328 56.7548 377.104C56.3228 376.864 55.8108 376.744 55.2188 376.744C54.9468 376.744 54.6588 376.776 54.3548 376.84C54.0668 376.888 53.7548 376.968 53.4188 377.08C53.0828 377.176 52.7148 377.304 52.3148 377.464L51.5948 375.568L56.7788 369.856L57.2828 370.6H50.1308V368.2H59.7548L60.2348 369.16L54.7388 375.256L54.1388 374.632C54.2668 374.568 54.4748 374.512 54.7628 374.464C55.0668 374.4 55.3148 374.368 55.5068 374.368C56.2108 374.368 56.8668 374.504 57.4748 374.776C58.0988 375.032 58.6348 375.4 59.0828 375.88C59.5468 376.344 59.9068 376.896 60.1628 377.536C60.4348 378.16 60.5708 378.832 60.5708 379.552C60.5708 380.64 60.3068 381.616 59.7788 382.48C59.2668 383.328 58.5708 384 57.6908 384.496C56.8108 384.992 55.8268 385.24 54.7388 385.24ZM69.8245 385V372.4H72.3205V375.088L71.8645 375.376C71.9925 374.96 72.1925 374.56 72.4645 374.176C72.7525 373.792 73.0965 373.456 73.4965 373.168C73.9125 372.864 74.3525 372.624 74.8165 372.448C75.2965 372.272 75.7845 372.184 76.2805 372.184C77.0005 372.184 77.6325 372.304 78.1765 372.544C78.7205 372.784 79.1685 373.144 79.5205 373.624C79.8725 374.104 80.1285 374.704 80.2885 375.424L79.9045 375.328L80.0725 374.92C80.2485 374.552 80.4885 374.208 80.7925 373.888C81.1125 373.552 81.4725 373.256 81.8725 373C82.2725 372.744 82.6965 372.544 83.1445 372.4C83.5925 372.256 84.0325 372.184 84.4645 372.184C85.4085 372.184 86.1845 372.376 86.7925 372.76C87.4165 373.144 87.8805 373.728 88.1845 374.512C88.5045 375.296 88.6645 376.272 88.6645 377.44V385H86.1685V377.584C86.1685 376.864 86.0725 376.28 85.8805 375.832C85.7045 375.368 85.4325 375.024 85.0645 374.8C84.6965 374.576 84.2245 374.464 83.6485 374.464C83.2005 374.464 82.7765 374.544 82.3765 374.704C81.9925 374.848 81.6565 375.056 81.3685 375.328C81.0805 375.6 80.8565 375.92 80.6965 376.288C80.5365 376.64 80.4565 377.032 80.4565 377.464V385H77.9605V377.536C77.9605 376.88 77.8645 376.328 77.6725 375.88C77.4805 375.416 77.2005 375.064 76.8325 374.824C76.4645 374.584 76.0165 374.464 75.4885 374.464C75.0405 374.464 74.6245 374.544 74.2405 374.704C73.8565 374.848 73.5205 375.056 73.2325 375.328C72.9445 375.584 72.7205 375.896 72.5605 376.264C72.4005 376.616 72.3205 377 72.3205 377.416V385H69.8245ZM96.8221 385.24C95.7821 385.24 94.8301 384.952 93.9661 384.376C93.1181 383.8 92.4381 383.016 91.9261 382.024C91.4141 381.032 91.1581 379.912 91.1581 378.664C91.1581 377.4 91.4141 376.28 91.9261 375.304C92.4541 374.312 93.1581 373.536 94.0381 372.976C94.9341 372.416 95.9341 372.136 97.0381 372.136C97.6941 372.136 98.2941 372.232 98.8381 372.424C99.3821 372.616 99.8541 372.888 100.254 373.24C100.67 373.576 101.006 373.968 101.262 374.416C101.534 374.864 101.702 375.344 101.766 375.856L101.214 375.664V372.4H103.71V385H101.214V382L101.79 381.832C101.694 382.264 101.494 382.688 101.19 383.104C100.902 383.504 100.526 383.864 100.062 384.184C99.6141 384.504 99.1101 384.76 98.5501 384.952C98.0061 385.144 97.4301 385.24 96.8221 385.24ZM97.4701 382.96C98.2221 382.96 98.8861 382.776 99.4621 382.408C100.038 382.04 100.486 381.536 100.806 380.896C101.142 380.24 101.31 379.496 101.31 378.664C101.31 377.848 101.142 377.12 100.806 376.48C100.486 375.84 100.038 375.336 99.4621 374.968C98.8861 374.6 98.2221 374.416 97.4701 374.416C96.7341 374.416 96.0781 374.6 95.5021 374.968C94.9421 375.336 94.4941 375.84 94.1581 376.48C93.8381 377.12 93.6781 377.848 93.6781 378.664C93.6781 379.496 93.8381 380.24 94.1581 380.896C94.4941 381.536 94.9421 382.04 95.5021 382.408C96.0781 382.776 96.7341 382.96 97.4701 382.96ZM112.802 390.52C111.906 390.52 111.01 390.376 110.114 390.088C109.234 389.816 108.522 389.456 107.978 389.008L108.89 387.088C109.21 387.328 109.586 387.536 110.018 387.712C110.45 387.904 110.906 388.048 111.386 388.144C111.866 388.256 112.338 388.312 112.802 388.312C113.682 388.312 114.418 388.168 115.01 387.88C115.602 387.592 116.05 387.168 116.354 386.608C116.658 386.048 116.81 385.352 116.81 384.52V382.096L117.074 382.264C116.994 382.76 116.73 383.24 116.282 383.704C115.85 384.152 115.306 384.52 114.65 384.808C113.994 385.096 113.322 385.24 112.634 385.24C111.434 385.24 110.362 384.96 109.418 384.4C108.49 383.824 107.754 383.048 107.21 382.072C106.666 381.08 106.394 379.952 106.394 378.688C106.394 377.424 106.658 376.304 107.186 375.328C107.73 374.336 108.466 373.56 109.394 373C110.338 372.424 111.394 372.136 112.562 372.136C113.042 372.136 113.506 372.2 113.954 372.328C114.402 372.44 114.818 372.608 115.202 372.832C115.586 373.04 115.93 373.272 116.234 373.528C116.538 373.784 116.786 374.056 116.978 374.344C117.17 374.632 117.29 374.904 117.338 375.16L116.81 375.352V372.4H119.282V384.232C119.282 385.24 119.13 386.128 118.826 386.896C118.538 387.68 118.114 388.336 117.554 388.864C116.994 389.408 116.314 389.816 115.514 390.088C114.714 390.376 113.81 390.52 112.802 390.52ZM112.898 382.96C113.682 382.96 114.378 382.776 114.986 382.408C115.594 382.04 116.066 381.536 116.402 380.896C116.738 380.256 116.906 379.52 116.906 378.688C116.906 377.856 116.73 377.12 116.378 376.48C116.042 375.824 115.57 375.312 114.962 374.944C114.37 374.576 113.682 374.392 112.898 374.392C112.13 374.392 111.442 374.584 110.834 374.968C110.242 375.336 109.77 375.848 109.418 376.504C109.082 377.144 108.914 377.872 108.914 378.688C108.914 379.504 109.082 380.24 109.418 380.896C109.77 381.536 110.242 382.04 110.834 382.408C111.442 382.776 112.13 382.96 112.898 382.96ZM123.156 385V372.4H125.628V385H123.156ZM124.356 369.616C123.828 369.616 123.42 369.48 123.132 369.208C122.844 368.936 122.7 368.552 122.7 368.056C122.7 367.592 122.844 367.216 123.132 366.928C123.436 366.64 123.844 366.496 124.356 366.496C124.884 366.496 125.292 366.632 125.58 366.904C125.868 367.176 126.012 367.56 126.012 368.056C126.012 368.52 125.86 368.896 125.556 369.184C125.268 369.472 124.868 369.616 124.356 369.616ZM134.779 385.24C133.611 385.24 132.563 384.952 131.635 384.376C130.723 383.8 129.995 383.016 129.451 382.024C128.923 381.032 128.659 379.92 128.659 378.688C128.659 377.456 128.923 376.344 129.451 375.352C129.995 374.36 130.723 373.576 131.635 373C132.563 372.424 133.611 372.136 134.779 372.136C135.899 372.136 136.915 372.368 137.827 372.832C138.755 373.28 139.459 373.896 139.939 374.68L138.571 376.36C138.315 375.992 137.987 375.656 137.587 375.352C137.187 375.048 136.763 374.808 136.315 374.632C135.867 374.456 135.435 374.368 135.019 374.368C134.251 374.368 133.563 374.56 132.955 374.944C132.363 375.312 131.891 375.824 131.539 376.48C131.187 377.136 131.011 377.872 131.011 378.688C131.011 379.504 131.195 380.24 131.563 380.896C131.931 381.536 132.419 382.048 133.027 382.432C133.635 382.816 134.307 383.008 135.043 383.008C135.475 383.008 135.891 382.936 136.291 382.792C136.707 382.648 137.107 382.432 137.491 382.144C137.875 381.856 138.235 381.504 138.571 381.088L139.939 382.768C139.427 383.488 138.691 384.08 137.731 384.544C136.787 385.008 135.803 385.24 134.779 385.24ZM154.638 390.52C153.742 390.52 152.846 390.376 151.95 390.088C151.07 389.816 150.358 389.456 149.814 389.008L150.726 387.088C151.046 387.328 151.422 387.536 151.854 387.712C152.286 387.904 152.742 388.048 153.222 388.144C153.702 388.256 154.174 388.312 154.638 388.312C155.518 388.312 156.254 388.168 156.846 387.88C157.438 387.592 157.886 387.168 158.19 386.608C158.494 386.048 158.646 385.352 158.646 384.52V382.096L158.91 382.264C158.83 382.76 158.566 383.24 158.118 383.704C157.686 384.152 157.142 384.52 156.486 384.808C155.83 385.096 155.158 385.24 154.47 385.24C153.27 385.24 152.198 384.96 151.254 384.4C150.326 383.824 149.59 383.048 149.046 382.072C148.502 381.08 148.23 379.952 148.23 378.688C148.23 377.424 148.494 376.304 149.022 375.328C149.566 374.336 150.302 373.56 151.23 373C152.174 372.424 153.23 372.136 154.398 372.136C154.878 372.136 155.342 372.2 155.79 372.328C156.238 372.44 156.654 372.608 157.038 372.832C157.422 373.04 157.766 373.272 158.07 373.528C158.374 373.784 158.622 374.056 158.814 374.344C159.006 374.632 159.126 374.904 159.174 375.16L158.646 375.352V372.4H161.118V384.232C161.118 385.24 160.966 386.128 160.662 386.896C160.374 387.68 159.95 388.336 159.39 388.864C158.83 389.408 158.15 389.816 157.35 390.088C156.55 390.376 155.646 390.52 154.638 390.52ZM154.734 382.96C155.518 382.96 156.214 382.776 156.822 382.408C157.43 382.04 157.902 381.536 158.238 380.896C158.574 380.256 158.742 379.52 158.742 378.688C158.742 377.856 158.566 377.12 158.214 376.48C157.878 375.824 157.406 375.312 156.798 374.944C156.206 374.576 155.518 374.392 154.734 374.392C153.966 374.392 153.278 374.584 152.67 374.968C152.078 375.336 151.606 375.848 151.254 376.504C150.918 377.144 150.75 377.872 150.75 378.688C150.75 379.504 150.918 380.24 151.254 380.896C151.606 381.536 152.078 382.04 152.67 382.408C153.278 382.776 153.966 382.96 154.734 382.96ZM170.463 385.24C169.167 385.24 168.015 384.968 167.007 384.424C166.015 383.864 165.231 383.104 164.655 382.144C164.095 381.184 163.815 380.08 163.815 378.832C163.815 377.84 163.975 376.936 164.295 376.12C164.615 375.304 165.055 374.6 165.615 374.008C166.191 373.4 166.871 372.936 167.655 372.616C168.455 372.28 169.319 372.112 170.247 372.112C171.063 372.112 171.823 372.272 172.527 372.592C173.231 372.896 173.839 373.32 174.351 373.864C174.879 374.408 175.279 375.056 175.551 375.808C175.839 376.544 175.975 377.352 175.959 378.232L175.935 379.288H165.639L165.087 377.32H173.799L173.439 377.728V377.152C173.391 376.624 173.215 376.152 172.911 375.736C172.607 375.32 172.223 374.992 171.759 374.752C171.295 374.512 170.791 374.392 170.247 374.392C169.383 374.392 168.655 374.56 168.063 374.896C167.471 375.216 167.023 375.696 166.719 376.336C166.415 376.96 166.263 377.736 166.263 378.664C166.263 379.544 166.447 380.312 166.815 380.968C167.183 381.608 167.703 382.104 168.375 382.456C169.047 382.808 169.823 382.984 170.703 382.984C171.327 382.984 171.903 382.88 172.431 382.672C172.975 382.464 173.559 382.088 174.183 381.544L175.431 383.296C175.047 383.68 174.575 384.016 174.015 384.304C173.471 384.592 172.887 384.824 172.263 385C171.655 385.16 171.055 385.24 170.463 385.24ZM178.598 385V372.4H181.094V375.088L180.638 375.376C180.766 374.96 180.966 374.56 181.238 374.176C181.526 373.792 181.87 373.456 182.27 373.168C182.686 372.864 183.126 372.624 183.59 372.448C184.07 372.272 184.558 372.184 185.054 372.184C185.774 372.184 186.406 372.304 186.95 372.544C187.494 372.784 187.942 373.144 188.294 373.624C188.646 374.104 188.902 374.704 189.062 375.424L188.678 375.328L188.846 374.92C189.022 374.552 189.262 374.208 189.566 373.888C189.886 373.552 190.246 373.256 190.646 373C191.046 372.744 191.47 372.544 191.918 372.4C192.366 372.256 192.806 372.184 193.238 372.184C194.182 372.184 194.958 372.376 195.566 372.76C196.19 373.144 196.654 373.728 196.958 374.512C197.278 375.296 197.438 376.272 197.438 377.44V385H194.942V377.584C194.942 376.864 194.846 376.28 194.654 375.832C194.478 375.368 194.206 375.024 193.838 374.8C193.47 374.576 192.998 374.464 192.422 374.464C191.974 374.464 191.55 374.544 191.15 374.704C190.766 374.848 190.43 375.056 190.142 375.328C189.854 375.6 189.63 375.92 189.47 376.288C189.31 376.64 189.23 377.032 189.23 377.464V385H186.734V377.536C186.734 376.88 186.638 376.328 186.446 375.88C186.254 375.416 185.974 375.064 185.606 374.824C185.238 374.584 184.79 374.464 184.262 374.464C183.814 374.464 183.398 374.544 183.014 374.704C182.63 374.848 182.294 375.056 182.006 375.328C181.718 375.584 181.494 375.896 181.334 376.264C181.174 376.616 181.094 377 181.094 377.416V385H178.598ZM204.948 385.24C203.892 385.24 202.94 385.056 202.092 384.688C201.244 384.32 200.54 383.776 199.98 383.056L201.66 381.616C202.14 382.176 202.66 382.584 203.22 382.84C203.796 383.08 204.444 383.2 205.164 383.2C205.452 383.2 205.716 383.168 205.956 383.104C206.212 383.024 206.428 382.912 206.604 382.768C206.796 382.624 206.94 382.456 207.036 382.264C207.132 382.056 207.18 381.832 207.18 381.592C207.18 381.176 207.028 380.84 206.724 380.584C206.564 380.472 206.308 380.352 205.956 380.224C205.62 380.08 205.18 379.936 204.636 379.792C203.708 379.552 202.948 379.28 202.356 378.976C201.764 378.672 201.308 378.328 200.988 377.944C200.748 377.64 200.572 377.312 200.46 376.96C200.348 376.592 200.292 376.192 200.292 375.76C200.292 375.232 200.404 374.752 200.628 374.32C200.868 373.872 201.188 373.488 201.588 373.168C202.004 372.832 202.484 372.576 203.028 372.4C203.588 372.224 204.18 372.136 204.804 372.136C205.396 372.136 205.98 372.216 206.556 372.376C207.148 372.536 207.692 372.768 208.188 373.072C208.684 373.376 209.1 373.736 209.436 374.152L208.02 375.712C207.716 375.408 207.38 375.144 207.012 374.92C206.66 374.68 206.3 374.496 205.932 374.368C205.564 374.24 205.228 374.176 204.924 374.176C204.588 374.176 204.284 374.208 204.012 374.272C203.74 374.336 203.508 374.432 203.316 374.56C203.14 374.688 203.004 374.848 202.908 375.04C202.812 375.232 202.764 375.448 202.764 375.688C202.78 375.896 202.828 376.096 202.908 376.288C203.004 376.464 203.132 376.616 203.292 376.744C203.468 376.872 203.732 377.008 204.084 377.152C204.436 377.296 204.884 377.432 205.428 377.56C206.228 377.768 206.884 378 207.396 378.256C207.924 378.496 208.34 378.776 208.644 379.096C208.964 379.4 209.188 379.752 209.316 380.152C209.444 380.552 209.508 381 209.508 381.496C209.508 382.216 209.3 382.864 208.884 383.44C208.484 384 207.94 384.44 207.252 384.76C206.564 385.08 205.796 385.24 204.948 385.24Z" fill="#FAF9F6"/>
<ellipse cx="190.638" cy="150.292" rx="43.3333" ry="36.1761" transform="rotate(-4.25534 190.638 150.292)" fill="#F5C2AB"/>
<circle cx="173.076" cy="145.324" r="11.6868" fill="#4390BE"/>
<circle cx="205.881" cy="140.403" r="11.6868" fill="#4390BE"/>
<circle cx="173.077" cy="145.324" r="8.63646" stroke="#24688F" stroke-width="2"/>
<circle cx="205.882" cy="140.403" r="8.63646" stroke="#24688F" stroke-width="2"/>
<path d="M167.745 141.428L178.407 149.425" stroke="#24688F" stroke-width="5" stroke-linecap="round" stroke-linejoin="bevel"/>
<path d="M200.551 136.508L211.212 144.504" stroke="#24688F" stroke-width="5" stroke-linecap="round" stroke-linejoin="bevel"/>
<path d="M176.972 139.788L168.976 151.065" stroke="#24688F" stroke-width="5" stroke-linecap="round" stroke-linejoin="bevel"/>
<path d="M209.777 134.867L201.781 146.144" stroke="#24688F" stroke-width="5" stroke-linecap="round" stroke-linejoin="bevel"/>
<path d="M172.461 167.058L212.237 170.953" stroke="#C06E58" stroke-width="3" stroke-linecap="round" stroke-linejoin="bevel"/>
<path d="M177.178 163.982C177.861 166.032 179.433 170.461 180.253 171.773" stroke="#C06E58" stroke-width="3" stroke-linecap="round" stroke-linejoin="bevel"/>
<path d="M188.044 164.187C187.839 166.032 187.429 170.133 187.429 171.773" stroke="#C06E58" stroke-width="3" stroke-linecap="round" stroke-linejoin="bevel"/>
<path d="M195.425 165.007C196.313 166.306 198.213 169.682 198.705 172.798" stroke="#C06E58" stroke-width="3" stroke-linecap="round" stroke-linejoin="bevel"/>
<path d="M207.112 166.032C206.839 167.877 206.415 172.142 206.907 174.438" stroke="#C06E58" stroke-width="3" stroke-linecap="round" stroke-linejoin="bevel"/>
<path d="M167.746 231.847C165.614 206.423 176.289 190.363 181.893 185.51L211.418 181.205C230.117 194.983 236.978 213.599 238.072 221.186C239.165 227.678 240.696 242.304 238.072 248.865C234.791 257.066 230.281 260.757 218.389 266.908C208.875 271.828 195.425 270.188 189.89 268.753C183.397 267.044 169.879 257.271 167.746 231.847Z" fill="#F5C2AB"/>
<path d="M136.786 230.002C142.199 218.028 168.839 195.488 181.483 185.715L168.566 228.362C167.131 232.804 162.497 243.165 155.444 249.07C148.391 254.975 140.682 252.749 137.606 250.505C135.077 248.66 131.373 241.976 136.786 230.002Z" fill="#F5C2AB"/>
<path d="M211.458 181.47C211.385 181.43 211.37 181.41 211.418 181.41L211.458 181.47C213.262 182.448 250.712 195.256 264.111 208.064C275.265 218.725 273.953 226.585 271.902 229.182C269.442 232.667 261.323 237.916 253.45 233.488C245.576 229.059 239.781 223.441 237.867 221.186L211.458 181.47Z" fill="#F5C2AB"/>
<path d="M173.487 294.177C177.424 285.155 181.278 270.735 182.714 264.652L199.526 269.778C199.458 271.965 199.239 278.061 198.911 284.95C198.583 291.839 199.868 297.252 200.551 299.097C201.918 302.651 203.586 311.932 199.321 320.626C195.057 329.319 186.473 329.852 182.714 329.032C179.912 328.417 173.733 325.833 171.437 320.421C168.567 313.655 168.567 305.453 173.487 294.177Z" fill="#F5C2AB"/>
<path d="M248.528 278.389C243.443 273.796 236.158 261.987 233.151 256.656L218.389 266.292C220.781 271.828 225.893 285.278 227.205 294.792C228.517 304.305 230.896 309.827 231.921 311.399C235.065 315.91 243.813 323.455 253.654 317.55C263.495 311.645 261.992 301.147 260.01 296.637C258.301 292.468 253.613 282.982 248.528 278.389Z" fill="#F5C2AB"/>
<path d="M142.741 240C141.237 241.23 138.148 244.265 137 247.381" stroke="#C06E58" stroke-width="3" stroke-linecap="round" stroke-linejoin="bevel"/>
<path d="M148.716 243C147.486 244.504 144.82 248.413 144 251.201" stroke="#C06E58" stroke-width="3" stroke-linecap="round" stroke-linejoin="bevel"/>
<path d="M203.012 192.481C203.012 206.915 202.738 241.005 202.602 256.246" stroke="#C06E58" stroke-width="3" stroke-linecap="round" stroke-linejoin="bevel"/>
<path d="M193.169 195.557L211.417 206.423" stroke="#C06E58" stroke-width="3" stroke-linecap="round" stroke-linejoin="bevel"/>
<path d="M193.58 210.729L211.828 221.801" stroke="#C06E58" stroke-width="3" stroke-linecap="round" stroke-linejoin="bevel"/>
<path d="M192.965 226.106L211.213 236.973" stroke="#C06E58" stroke-width="3" stroke-linecap="round" stroke-linejoin="bevel"/>
<path d="M192.555 241.484C196.86 244.013 206.579 249.767 211.007 252.556" stroke="#C06E58" stroke-width="3" stroke-linecap="round" stroke-linejoin="bevel"/>
<path d="M263 220C265.05 221.23 269.684 224.429 271.816 226.561" stroke="#C06E58" stroke-width="3" stroke-linecap="round" stroke-linejoin="bevel"/>
<path d="M261 225C262.093 226.23 264.404 229.798 264.896 232.586" stroke="#C06E58" stroke-width="3" stroke-linecap="round" stroke-linejoin="bevel"/>
<path d="M182.28 315C181.255 317.324 179.164 322.996 179 326.277" stroke="#C06E58" stroke-width="3" stroke-linecap="round" stroke-linejoin="bevel"/>
<path d="M189.309 315C189.036 317.46 188.694 323.488 189.514 327.097" stroke="#C06E58" stroke-width="3" stroke-linecap="round" stroke-linejoin="bevel"/>
<path d="M244 308C244.41 310.392 245.476 315.791 246.46 318.252" stroke="#C06E58" stroke-width="3" stroke-linecap="round" stroke-linejoin="bevel"/>
<path d="M250 305C251.23 306.367 254.388 310.208 256.356 313.816" stroke="#C06E58" stroke-width="3" stroke-linecap="round" stroke-linejoin="bevel"/>
<path d="M164.67 292.741L182.303 303.403" stroke="#C06E58" stroke-width="2" stroke-linecap="round" stroke-linejoin="bevel"/>
<circle cx="160.979" cy="290.281" r="4.51068" fill="#AC4884"/>
<path d="M245.863 207.244L256.115 184.28" stroke="#C06E58" stroke-width="2" stroke-linecap="round" stroke-linejoin="bevel"/>
<path d="M252.219 208.064L266.776 195.147" stroke="#C06E58" stroke-width="2" stroke-linecap="round" stroke-linejoin="bevel"/>
<circle cx="269.236" cy="192.686" r="4.10062" fill="#296995"/>
<circle cx="257.344" cy="180.795" r="4.51068" fill="#AC4884"/>
<path d="M182.918 265.267C184.763 267.112 189.438 270.393 199.115 270.393" stroke="#C06E58" stroke-linecap="round" stroke-linejoin="bevel"/>
<path d="M219.004 266.907C222.353 265.404 229.543 261.536 233.151 257.271" stroke="#C06E58" stroke-linecap="round" stroke-linejoin="bevel"/>
<path d="M213.877 182.845C220.985 188.244 234.298 202.651 238.071 221.186" stroke="#C06E58" stroke-linecap="round" stroke-linejoin="bevel"/>
<path d="M179.432 187.766C173.828 193.575 165.08 208.761 167.541 230.412" stroke="#C06E58" stroke-linecap="round" stroke-linejoin="bevel"/>
<path d="M181.688 185.715C179.022 185.305 196.86 188.381 211.212 181.41" stroke="#C06E58" stroke-linecap="round" stroke-linejoin="bevel"/>
</svg>
