<svg width="1200" height="750" viewBox="0 0 1200 750" fill="none" xmlns="http://www.w3.org/2000/svg">
<path d="M0 750.5L0.5 0H1200.5L1201 750.5H0Z" fill="url(#paint0_linear_400_138)"/>
<path d="M584 283.5C359.2 197.1 99.6667 148.5 -2 135L-0.5 749.5H1199.5V420.5C1088 410.833 808.8 369.9 584 283.5Z" fill="#AED9D0"/>
<path d="M1199.5 487C850.3 429.8 253.667 462.167 -1 485.5L-0.5 749.5H1199.5V487Z" fill="#A1C764"/>
<path d="M-0.5 550.5V664C51.5 672 48.5 673 159.5 684.5C270.5 696 486.5 687.5 705.5 688C880.7 688.4 1036.17 664.833 1092 653C1155.5 639.333 1251.9 598.6 1129.5 545C1007.1 491.4 780.5 487.333 682.5 492C600.667 496.667 410.4 510.2 304 527C197.6 543.8 56.6667 549.667 -0.5 550.5Z" fill="#ADD167"/>
<path d="M1071.51 17.4848C1105.6 16.3156 1116.71 4.98083 1118 -0.540389H905.881C885.665 -3.02241 848.259 3.34354 860.357 48.6635C874.248 76.3597 906.688 65.3895 919.441 57.4325C941.137 94.0674 978.201 68.1501 994.022 50.6121C1038.96 85.6881 1064.41 43.1422 1071.51 17.4848Z" fill="#E4F5FD"/>
<ellipse cx="642.31" cy="576.526" rx="96.4297" ry="13.0752" fill="#9CBE5B"/>
<path d="M849.879 479.688C841.707 476.746 805.477 469.472 797.578 468.247L783.685 466.612L743.234 490.72L732.61 510.332C735.607 516.053 741.109 530.354 739.148 541.795C736.696 556.096 713.406 572.031 710.954 573.666C708.993 574.973 706.324 574.483 705.234 574.074C698.288 570.805 674.998 568.354 653.342 572.44C636.017 575.709 628.417 576.253 626.783 576.117C624.74 575.981 619.918 575.954 616.976 576.934C613.299 578.16 593.686 580.612 589.191 580.612C584.697 580.612 583.062 579.386 577.342 574.891C572.766 571.296 568.898 564.132 567.536 560.999L651.707 538.117L668.869 515.644L660.288 501.343C662.195 495.078 666.58 481.24 668.869 476.01C671.157 470.78 673.636 467.566 674.589 466.612C677.994 463.752 685.376 457.541 687.664 455.58C690.524 453.128 691.75 453.537 696.653 452.311C700.576 451.331 703.736 449.179 704.825 448.225C715.177 439.372 744.787 412.387 775.105 408.182C831.083 400.419 850.696 472.333 852.33 476.827C853.638 480.423 851.241 480.232 849.879 479.688Z" fill="#F9F6EE" stroke="#505055"/>
<path d="M711.363 458.44L718.309 460.892C831.943 392.906 866.329 434.252 869.491 464.161C869.522 464.45 869.491 465.386 868.674 464.978C853.147 457.214 825.771 461.164 813.921 463.752C803.979 465.931 779.844 472.578 762.846 481.73C745.849 490.883 738.875 504.34 737.513 509.924C747.973 521.365 750.588 529.4 750.588 531.988C750.588 533.35 750.752 536.973 751.406 540.569C752.059 544.165 749.226 544.519 747.728 544.246C713.406 535.666 699.922 535.666 694.61 535.257C689.298 534.848 689.298 536.891 686.029 539.752C682.761 542.612 679.492 541.386 674.18 540.978C669.931 540.651 666.961 541.931 666.008 542.612C655.793 551.193 651.298 552.827 643.126 555.687C636.589 557.975 630.051 556.913 627.6 556.096C625.693 555.551 620.326 554.952 614.116 556.913C606.352 559.365 598.998 564.268 596.137 565.494C593.849 566.474 591.37 565.902 590.417 565.494L576.116 560.182C571.213 563.777 569.442 571.759 569.17 575.3C560.671 571.704 555.277 562.906 553.643 558.956C552.281 554.734 551.028 543.756 556.912 533.623C562.796 523.489 573.528 524.225 578.159 525.859C588.783 524.633 613.053 521.12 625.148 516.87C637.243 512.621 659.607 498.755 669.277 492.354C669.549 491.128 670.748 487.614 673.363 483.365C676.632 478.053 691.75 465.795 698.287 460.892C703.518 456.969 709.183 457.623 711.363 458.44Z" fill="#F9F6EE" stroke="#505055"/>
<path d="M700.933 475.546C709.39 470.153 716.986 477.001 719.727 481.099C722.859 485.223 722.598 489.163 722.076 490.617C720.249 495.244 716.438 504.815 715.811 506.084C715.028 507.67 715.028 509.256 709.547 511.239C704.065 513.222 693.885 514.809 688.795 515.205C683.705 515.602 683.313 512.033 683.705 508.86C684.096 505.687 683.313 502.514 682.53 497.359C681.747 492.203 683.705 490.22 685.271 487.841C686.837 485.461 690.361 482.288 700.933 475.546Z" stroke="#505055"/>
<path d="M703.6 473.558C708.83 470.617 715.585 475.057 718.309 477.644C724.193 482.875 723.757 488.813 722.804 491.128C721.578 494.261 718.154 501.366 717.5 503C716.683 505.043 703.599 508.698 697.47 509.924C692.567 510.905 690.524 508.698 690.116 507.472C689.435 505.157 687.828 498.728 686.847 491.537C685.621 482.548 697.062 477.236 703.6 473.558Z" fill="#505055"/>
<path d="M661.513 517.687C661.186 522.917 656.474 525.859 654.159 526.676C651.979 527.494 647.049 529.128 644.761 529.128C642.473 529.128 639.449 530.218 638.223 530.762C637.27 531.171 634.627 532.233 631.686 533.214C628.008 534.44 627.191 531.58 627.6 529.128C628.008 526.676 632.094 525.042 634.546 524.633C636.507 524.307 638.904 523.408 639.858 522.999C641.901 522.182 646.477 520.139 648.438 518.504C650.399 516.87 654.159 514.555 655.793 513.601C657.836 512.784 661.84 512.457 661.513 517.687Z" fill="#505055"/>
<path d="M661.922 510.332C664.537 523.735 653.205 528.175 647.212 528.719C644.352 528.719 640.675 529.537 639.858 529.945C639.041 530.354 632.911 532.806 630.051 533.623C627.191 534.44 623.105 530.354 625.148 526.677C627.191 522.999 635.772 521.365 637.406 520.956C639.04 520.547 652.116 511.967 656.61 509.107C660.206 506.818 661.65 508.97 661.922 510.332Z" stroke="#505055"/>
<path d="M577.342 532.397C574.073 529.782 570.532 535.393 569.17 538.526C568.171 540.513 569.578 540.16 571.213 538.526C572.52 537.218 575.571 536.891 576.933 536.891C578.431 536.483 580.611 535.012 577.342 532.397Z" fill="#505055"/>
<path d="M686.03 554.461C680.146 550.866 689.026 540.16 694.202 535.257C699.432 535.257 710.546 536.891 715.449 537.709C712.18 544.246 693.385 558.956 686.03 554.461Z" fill="#505055"/>
<path d="M685.621 554.053L685.875 553.622L685.621 554.053ZM714.279 550.561C714.381 550.305 714.257 550.014 714 549.911C713.744 549.809 713.453 549.933 713.35 550.19L713.815 550.375L714.279 550.561ZM694.202 535.257L693.858 534.894C691.254 537.361 687.683 541.279 685.457 545.012C684.348 546.872 683.542 548.737 683.392 550.381C683.316 551.21 683.406 552.003 683.727 552.713C684.049 553.429 684.592 554.027 685.368 554.484L685.621 554.053L685.875 553.622C685.261 553.261 684.868 552.812 684.638 552.302C684.405 551.786 684.324 551.175 684.388 550.472C684.517 549.051 685.233 547.341 686.316 545.524C688.476 541.902 691.974 538.056 694.546 535.62L694.202 535.257ZM685.621 554.053L685.368 554.484C688.89 556.555 691.81 557.499 694.281 557.867C696.751 558.235 698.747 558.023 700.393 557.818L700.331 557.322L700.269 556.825C698.645 557.028 696.76 557.225 694.429 556.878C692.099 556.531 689.299 555.636 685.875 553.622L685.621 554.053ZM700.331 557.322L700.393 557.818C701.271 557.708 702.517 557.332 703.878 556.819C705.249 556.301 706.772 555.63 708.216 554.909C709.658 554.187 711.033 553.41 712.105 552.678C712.64 552.312 713.109 551.952 713.476 551.609C713.832 551.276 714.135 550.921 714.279 550.561L713.815 550.375L713.35 550.19C713.29 550.34 713.12 550.573 712.793 550.878C712.477 551.174 712.052 551.503 711.541 551.852C710.519 552.55 709.186 553.305 707.768 554.014C706.352 554.722 704.861 555.379 703.525 555.883C702.179 556.391 701.025 556.731 700.269 556.825L700.331 557.322Z" fill="#505055"/>
<path d="M661.922 560.999C666.417 561.135 676.795 562.388 682.352 566.311C687.909 570.233 691.478 571.214 692.567 571.214" stroke="#505055" stroke-linecap="round"/>
<path d="M727.298 552.827C729.614 550.648 734.245 545.717 734.245 543.429C734.245 541.141 731.521 540.296 730.159 540.16" stroke="#505055" stroke-linecap="round"/>
<path d="M735.816 489.494C737.777 481.649 733.364 473.967 730.912 471.107C734.835 477.971 734.454 484.046 733.773 486.225C732.819 488.404 730.422 493.58 728.461 496.849C726.5 500.117 733.364 506.927 737.041 509.924L739.084 505.021C736.224 506.655 734.181 503.795 732.955 501.752C731.73 499.709 733.364 499.3 735.816 489.494Z" fill="#505055"/>
<path d="M580.611 561.816C579.657 563.723 577.832 568.19 578.159 570.805C578.486 573.42 576.933 572.712 576.116 572.031C575.163 571.078 572.847 568.681 571.213 566.719" stroke="#505055"/>
<path d="M583.879 563.042C584.016 564.404 584.533 567.455 585.514 568.762C586.74 570.397 587.148 569.988 587.557 568.762C587.965 567.536 588.783 565.085 589.191 565.085" stroke="#505055"/>
<path d="M596.138 565.494C596.546 566.447 597.527 568.517 598.181 569.171C598.998 569.988 599.815 570.805 600.224 568.354C600.632 565.902 601.858 562.633 602.267 562.225" stroke="#505055"/>
<path d="M607.17 559.773C608.26 561.952 610.766 566.556 612.073 567.536C613.381 568.517 613.435 566.583 613.299 565.493C613.027 563.45 612.972 558.792 614.933 556.504" stroke="#505055"/>
<path d="M620.245 555.687C620.518 556.641 621.226 558.711 621.88 559.365C622.697 560.182 623.105 560.182 623.514 558.956C623.841 557.975 624.74 556.368 625.148 555.687" stroke="#505055"/>
<path d="M628.008 556.096C629.098 558.139 631.522 562.47 632.503 563.451C633.729 564.676 634.546 564.268 634.546 562.633C634.546 560.999 634.955 557.73 636.18 556.913" stroke="#505055"/>
<path d="M640.267 556.504C641.22 557.458 643.372 559.528 644.353 560.182C645.578 560.999 646.396 560.59 646.804 559.365C647.213 558.139 646.804 554.87 647.621 554.053" stroke="#505055"/>
<path d="M650.073 553.235C650.618 554.597 651.952 557.648 652.933 558.956C653.914 560.263 654.431 558.956 654.567 558.139C654.567 555.959 654.731 551.356 655.385 550.375" stroke="#505055"/>
<path d="M658.245 548.332C658.381 549.15 658.98 551.111 660.288 552.418C661.922 554.053 663.556 552.418 663.556 550.784C663.556 549.15 663.556 545.881 663.965 544.246" stroke="#505055"/>
<path d="M668.868 541.386C669.141 542.748 670.257 545.881 672.546 547.515C675.406 549.558 676.223 547.107 676.223 546.698C676.223 546.289 677.04 541.795 677.857 541.386" stroke="#505055"/>
<path d="M572.847 554.053C571.758 555.279 569.579 558.629 569.579 562.225" stroke="#505055" stroke-linecap="round"/>
<path d="M589.6 549.15C588.51 549.694 586.249 551.683 585.922 555.279" stroke="#505055" stroke-linecap="round"/>
<path d="M592.46 552.827C592.188 554.325 591.725 557.73 592.051 559.365" stroke="#505055" stroke-linecap="round"/>
<path d="M606.352 550.375C606.08 551.192 605.535 553.072 605.535 554.053" stroke="#505055" stroke-linecap="round"/>
<path d="M619.837 543.838C619.428 544.791 618.693 547.27 619.019 549.558" stroke="#505055" stroke-linecap="round"/>
<path d="M636.589 539.752C635.363 542.203 633.974 547.924 638.224 551.193" stroke="#505055" stroke-linecap="round"/>
<path d="M664.374 530.354C664.51 531.716 665.11 534.767 666.417 536.074" stroke="#505055" stroke-linecap="round"/>
<path d="M672.546 528.311C672.546 530.763 673.363 535.502 676.632 534.849" stroke="#505055" stroke-linecap="round"/>
<path d="M706.051 564.676C706.732 565.766 708.585 567.863 710.546 567.536" stroke="#505055" stroke-linecap="round"/>
<path d="M711.363 564.676C711.635 564.949 712.262 565.493 712.589 565.493" stroke="#505055" stroke-linecap="round"/>
<path d="M668.46 496.849C669.005 495.895 669.686 493.58 669.686 491.537" stroke="#505055" stroke-linecap="round"/>
<path d="M716.675 460.483C718.854 461.164 723.294 462.608 723.621 462.935" stroke="#505055" stroke-linecap="round"/>
<path d="M679.083 520.547C679.083 522.999 678.266 521.773 678.675 525.042C679.002 527.657 682.625 531.035 684.395 532.397C685.848 533.623 683.578 533.623 680.718 531.58C677.858 529.537 677.041 526.268 677.041 525.859V522.182C676.904 521.365 676.305 519.73 674.998 519.73C673.363 519.73 673.772 518.913 674.18 518.504C674.507 518.178 676.223 518.096 677.041 518.096C677.722 518.096 679.083 518.586 679.083 520.547Z" fill="#505055"/>
<path d="M716.675 448.634C718.99 450.268 723.784 454.272 724.438 457.214" stroke="#505055" stroke-linecap="round"/>
<path d="M730.159 442.096C732.338 443.322 736.451 446.836 735.47 451.085" stroke="#505055" stroke-linecap="round"/>
<path d="M752.223 430.247C754.13 432.154 757.535 436.948 755.901 440.87" stroke="#505055" stroke-linecap="round"/>
<path d="M773.47 422.892C774.696 424.526 776.902 428.694 775.922 432.29" stroke="#505055" stroke-linecap="round"/>
<path d="M791.857 417.989C792.947 419.487 794.309 424.118 792.674 427.387" stroke="#505055" stroke-linecap="round"/>
<path d="M802.072 418.397C802.617 419.351 803.543 422.402 802.889 425.344" stroke="#505055" stroke-linecap="round"/>
<path d="M743.234 469.472C744.732 476.827 747.156 492.191 744.868 496.44" stroke="#505055" stroke-linecap="round"/>
<path d="M752.223 457.623C755.764 463.071 761.212 476.582 754.675 487.042" stroke="#505055" stroke-linecap="round"/>
<path d="M767.341 451.903C769.656 457.623 772.653 471.27 766.115 480.096" stroke="#505055" stroke-linecap="round"/>
<path d="M786.137 450.268C787.771 455.035 789.896 466.04 785.319 471.924" stroke="#505055" stroke-linecap="round"/>
<path d="M806.567 441.279C806.839 448.77 806.076 464.406 800.846 467.021" stroke="#505055" stroke-linecap="round"/>
<path d="M831.083 439.236C830.402 446.046 827.896 460.156 823.319 462.118" stroke="#505055" stroke-linecap="round"/>
<path d="M846.61 446.182C846.474 450.268 844.975 458.849 840.072 460.483" stroke="#505055" stroke-linecap="round"/>
<ellipse cx="450.267" cy="575.708" rx="71.9137" ry="9.80641" fill="#9CBE5B"/>
<path d="M413.084 505.429L418.805 520.956L432.289 522.182V511.15C436.865 513.111 441.278 513.056 442.912 512.784L454.353 530.354L463.342 526.268L462.525 519.322L454.762 503.795L417.579 497.257L413.084 505.429Z" fill="#42424E" stroke="#505055" stroke-linecap="round"/>
<path d="M494.805 564.268C496.984 562.361 502.323 559.528 506.246 563.45C510.168 567.373 512.238 573.257 512.783 575.708C512.968 576.436 511.771 576.829 511.149 576.934C502.977 578.16 476.826 574.074 472.74 573.257C468.654 572.44 472.332 566.311 473.558 565.085C474.538 564.104 473.966 562.769 473.558 562.225L451.084 533.214C454.68 521.446 466.203 523.952 471.514 526.676C474.13 555.442 480.231 566.174 482.955 567.945C485.271 569.307 490.065 571.541 490.719 569.579C491.372 567.618 493.715 565.221 494.805 564.268Z" fill="#CEECEE" stroke="#505055" stroke-linecap="round"/>
<path d="M411.859 527.494C420.357 515.399 431.199 518.913 435.557 522.182C434.195 532.261 432.043 554.461 434.332 562.633C436.62 570.805 434.195 572.848 432.697 572.848H389.794C389.249 572.848 388.405 572.358 389.386 570.397C390.611 567.945 397.149 561.407 400.826 558.956C404.504 556.504 406.138 557.321 408.181 558.956C409.816 560.263 411.586 563.587 412.267 565.085C415.264 564.404 421.992 562.715 424.934 561.407C427.876 560.1 427.522 553.235 426.977 549.967C425.016 538.853 416.081 530.354 411.859 527.494Z" fill="#CEECEE" stroke="#505055" stroke-linecap="round"/>
<path d="M490.31 303.581L522.59 358.742L503.794 371.408L475.601 312.57V295L490.31 303.581Z" fill="#CFEBEE"/>
<path d="M494.396 420.849L484.998 433.107L459.665 458.849L460.891 477.236H471.514C499.953 461.219 509.242 439.236 510.332 430.247L494.396 420.849Z" fill="#42424C" stroke="#505055" stroke-linecap="round"/>
<path d="M391.837 506.655L401.235 497.666L417.171 495.623L418.396 501.343C410.551 523.571 397.422 514.146 391.837 506.655Z" fill="#A8C6C6" stroke="#505055" stroke-linecap="round"/>
<path d="M480.912 509.107C477.97 507.145 475.055 503.931 473.966 502.569C465.794 501.616 449.531 500.689 449.858 504.612C450.267 509.515 452.31 513.601 454.353 516.461C455.987 518.75 459.12 519.594 460.482 519.73C470.942 520.057 478.46 512.784 480.912 509.107Z" fill="#CCEEEE" stroke="#505055" stroke-linecap="round"/>
<path d="M397.558 497.257C404.749 491.373 410.088 483.91 411.859 480.913L467.428 483.365C467.101 492.517 473.557 498.347 476.826 500.117C466.039 516.135 454.353 509.788 449.858 504.612C427.304 507.554 416.489 501.207 413.902 497.666C409.325 504.857 401.099 500.39 397.558 497.257Z" fill="#CEECEE" stroke="#505055" stroke-linecap="round"/>
<path d="M412.267 488.677C403.769 473.313 413.902 455.035 420.031 447.817C432.834 446.999 458.439 446.182 458.439 449.451C458.439 453.537 460.891 457.623 463.343 458.032C465.304 458.359 464.977 459.257 464.568 459.666C461.3 462.935 461.844 467.021 462.525 468.655C463.479 471.243 466.366 476.255 470.289 475.601C474.211 474.948 473.83 477.236 473.149 478.462C461.708 498.892 445.773 500.526 432.289 499.3C421.502 498.32 414.447 491.809 412.267 488.677Z" fill="#CEECEE" stroke="#505055" stroke-linecap="round"/>
<path d="M339.573 451.146C357.404 416.561 386.133 437.541 392.654 451.085C403.278 473.15 399.192 502.569 378.39 516.931C357.95 531.043 317.064 494.806 339.573 451.146Z" fill="#42424C" stroke="#020204" stroke-linecap="round"/>
<path d="M420.848 461.3C419.214 477.318 427.113 485.953 431.063 488.268C441.196 480.75 443.593 469.881 443.729 465.386C440.461 462.118 435.285 459.394 433.106 458.44C430.818 458.44 423.98 460.347 420.848 461.3Z" fill="#DC3B4F" stroke="#77100A" stroke-linecap="round"/>
<path d="M384.482 460.892L397.149 453.537L415.536 451.903L413.902 468.247L391.429 475.193L384.482 460.892Z" fill="#43424A" stroke="#505055" stroke-linecap="round"/>
<path d="M490.31 303.581L522.59 358.742L512.783 365.279L475.601 295L490.31 303.581Z" fill="#A8C7CA"/>
<path d="M389.794 450.268C404.504 450.268 409.271 447.544 409.816 446.182L421.665 449.042L413.493 459.666C404.014 463.589 393.744 455.035 389.794 450.268Z" fill="#CEEFEE" stroke="#505055" stroke-linecap="round"/>
<path d="M391.837 483.365C386.934 495.459 375.493 494.942 369.773 493.171C366.504 494.806 361.601 496.32 358.332 496.031C353.701 495.623 344.521 491.7 344.848 479.279C345.175 466.857 355.608 464.024 359.966 464.161C366.504 449.86 380.533 454.49 385.708 458.44C389.794 461.709 396.741 471.27 391.837 483.365Z" fill="#CFEDED" stroke="#505055" stroke-linecap="round"/>
<path d="M357.106 495.623C361.328 495.214 369.691 491.7 369.364 479.279C368.956 463.752 363.644 466.204 356.289 467.838" stroke="#505055" stroke-linecap="round"/>
<path d="M353.837 476.01C356.289 474.648 362.745 472.578 368.956 475.193" stroke="#505055" stroke-linecap="round"/>
<path d="M432.697 499.3C427.14 475.765 433.378 454.627 437.192 446.999L420.031 447.817C416.217 451.903 408.672 463.67 408.999 478.053C409.325 492.436 424.934 498.211 432.697 499.3Z" fill="#A7C6C9"/>
<path d="M490.31 303.581L522.59 358.742L503.794 371.408L475.601 312.57V295L490.31 303.581Z" stroke="#505055" stroke-linecap="round"/>
<path d="M359.149 467.021C360.239 463.616 364.134 457.214 370.999 458.849C377.863 460.483 376.719 463.893 376.719 465.795C376.719 467.021 376.311 469.064 377.536 471.515C379.221 474.885 377.536 478.462 375.902 479.279C374.595 479.933 370.999 479.824 369.364 479.687" stroke="#505055" stroke-linecap="round"/>
<path d="M377.536 477.644C378.081 481.594 377.291 490.229 369.773 493.171" stroke="#505055" stroke-linecap="round"/>
<path d="M412.267 488.677C403.769 473.313 413.902 455.035 420.031 447.817C432.834 446.999 458.439 446.182 458.439 449.451C458.439 453.537 460.891 457.623 463.343 458.032C465.304 458.359 464.977 459.257 464.568 459.666C461.3 462.935 461.844 467.021 462.525 468.655C463.479 471.243 466.366 476.255 470.289 475.601C474.211 474.948 473.83 477.236 473.149 478.462C461.708 498.892 445.773 500.526 432.289 499.3C421.502 498.32 414.447 491.809 412.267 488.677Z" stroke="#505055" stroke-linecap="round"/>
<path d="M433.106 458.44C430.818 458.44 423.981 460.347 420.848 461.3C419.214 477.317 426.705 485.953 430.655 488.268C430.001 471.924 432.017 461.573 433.106 458.44Z" fill="#B12139" stroke="#77100A" stroke-linecap="round"/>
<path d="M353.02 485.408C353.429 485.408 360.375 477.644 368.547 484.999" stroke="#505055" stroke-linecap="round"/>
<path d="M454.762 341.58C455.089 348.772 448.905 354.928 445.772 357.107L435.558 355.881C426.732 347.383 425.615 358.333 426.16 364.871L400.009 399.193C369.936 401.808 364.325 382.577 365.278 372.634C370.508 380.152 377.264 380.942 379.988 380.397C370.835 375.821 370.999 365.688 372.224 361.193C387.751 380.397 394.697 379.172 400.009 368.957C405.321 358.742 406.955 342.398 407.773 338.312C408.59 334.226 412.267 328.505 419.622 328.097C425.506 327.77 432.697 332.455 435.966 334.634C444.138 328.505 454.353 332.591 454.762 341.58Z" fill="#DE3C4D" stroke="#77100A" stroke-linecap="round"/>
<path d="M435.966 334.634C438.009 335.996 441.033 338.475 440.052 344.032" stroke="#77100A" stroke-linecap="round"/>
<path d="M448.633 338.312C452.882 345.83 448.497 353.975 445.773 357.107L435.558 355.881C426.732 347.383 425.615 358.333 426.16 364.871L400.009 399.193C372.551 401.481 365.415 385.437 365.278 377.129C373.45 390.531 387.207 394.426 393.063 394.699C398.62 371.817 415.536 360.376 423.3 357.516C421.665 356.862 415.809 356.971 413.085 357.107C415.046 352.858 424.798 348.799 429.429 347.301C429.429 346.32 426.16 344.713 424.525 344.032C426.841 343.487 432.452 342.725 436.375 344.032C440.297 345.34 441.55 350.842 441.687 353.43C444.302 351.142 447.407 342.398 448.633 338.312Z" fill="#B12139"/>
<path d="M458.439 451.494C471.187 447.898 481.457 436.376 484.998 431.064C488.594 444.793 482.683 452.584 479.278 454.763C464.895 463.262 459.392 456.125 458.439 451.494Z" fill="#CEECEE" stroke="#505055" stroke-linecap="round"/>
<path d="M445.364 355.882C443.88 352.542 438.826 352.204 436.375 355.064C434.413 357.352 433.106 362.964 432.697 364.871C438.145 365.552 448.878 366.832 448.224 364.871C447.407 362.419 446.998 359.559 445.364 355.882Z" fill="#CDEEEA" stroke="#505055" stroke-linecap="round"/>
<path d="M527.901 408.182L524.224 400.01L511.966 373.043L497.256 382.032C496.03 388.161 490.718 387.344 488.675 385.709C486.632 384.075 486.632 381.623 488.267 378.763C489.574 376.475 492.898 376.993 494.396 377.537L531.987 352.613C532.804 346.075 536.073 346.484 538.525 346.892C540.976 347.301 542.611 349.752 541.794 353.839C541.14 357.107 537.163 357.107 535.256 356.699L522.181 366.097C528.446 378.491 541.14 403.851 541.794 406.139C542.611 409 538.933 412.677 534.847 413.086C531.579 413.412 528.855 409.953 527.901 408.182Z" fill="#42404B" stroke="#020204" stroke-linecap="round"/>
<ellipse cx="454.353" cy="466.612" rx="3.2688" ry="8.58061" fill="#FFFDFF"/>
<path d="M518.095 432.29C495.54 437.193 488.539 421.53 487.858 413.086C491.808 409.817 500.934 403.279 504.202 401.236C508.389 398.619 507.471 396.742 507.063 393.473C506.654 390.204 503.794 379.58 502.977 376.312C502.159 373.043 502.977 370.183 505.837 368.957C508.125 367.976 510.604 369.093 511.557 369.774C518.095 364.544 523.27 365.688 525.041 366.914C529.29 369.529 534.166 377.537 536.073 381.215C536.618 382.304 537.708 384.892 537.708 386.527C537.708 388.161 537.163 393.2 536.89 395.516C536.754 395.243 536.073 394.127 534.439 391.838C532.804 389.55 531.034 388.706 530.353 388.57C526.757 388.243 524.769 388.706 524.224 388.978C520.628 390.939 521.319 393.774 522 395L524.224 400.01L518.095 432.29Z" fill="#CEECEE" stroke="#505055" stroke-linecap="round"/>
<path d="M511.558 369.774C508.834 371.408 504.775 376.312 510.332 382.849" stroke="#505055" stroke-linecap="round"/>
<path d="M524.224 374.677C522.181 374.269 517.278 374.187 514.009 377.129C509.923 380.806 509.514 386.118 513.6 390.204" stroke="#505055" stroke-linecap="round"/>
<path d="M527.901 382.032C525.313 381.623 519.402 381.705 516.46 385.301C512.783 389.795 511.149 393.473 523.815 401.645" stroke="#505055" stroke-linecap="round"/>
<path d="M480.095 437.193C446.426 467.593 411.859 450.813 398.783 438.419L408.181 431.473C397.721 420.359 397.558 404.233 398.783 397.559C405.321 361.602 438.843 363.646 443.73 364.054C448.633 364.462 464.977 365.279 477.235 386.935C487.323 404.757 476.145 424.39 470.289 431.473L480.095 437.193Z" fill="#CEECEE"/>
<path d="M412.676 392.655C415.291 379.907 427.386 368.548 433.106 364.462C422.891 366.914 409.816 367.322 400.827 390.204C393.636 408.509 402.734 425.344 408.182 431.473L398.784 438.419C402.707 442.668 409.408 446.455 412.268 447.817L415.128 434.333H435.966C427.113 425.752 410.061 405.404 412.676 392.655Z" fill="#A6C8C9"/>
<path d="M480.095 437.193C449.45 467.429 411.859 450.813 398.783 438.419L408.181 431.473C397.721 420.359 397.558 404.233 398.783 397.559C405.321 361.602 438.843 363.646 443.73 364.054C448.633 364.462 464.977 365.279 477.235 386.935C487.323 404.757 476.145 424.39 470.289 431.473L480.095 437.193Z" stroke="#505055" stroke-linecap="round"/>
<path d="M393.88 412.268V400.01L440.052 381.623L485.815 400.419L485.407 412.677L440.052 436.376L393.88 412.268Z" fill="#CFEBEE" stroke="#505055" stroke-linecap="round"/>
<path d="M393.88 412.268V400.01L440.052 381.623V436.376L393.88 412.268Z" fill="#A7C6C8"/>
<path d="M440.052 387.752V381.623L485.816 400.419L485.407 412.677L481.321 414.72V404.914L440.052 387.752Z" fill="#FCFFFF"/>
<path d="M393.88 412.268V400.01L440.052 381.623L485.815 400.419L485.407 412.677L440.052 436.376L393.88 412.268Z" stroke="#505055" stroke-linecap="round"/>
<ellipse cx="427.386" cy="401.236" rx="2.4516" ry="4.49461" fill="#6B6A6C"/>
<ellipse cx="418.396" cy="410.225" rx="2.4516" ry="4.49461" fill="#6B6A6C"/>
<ellipse cx="431.472" cy="418.397" rx="2.4516" ry="4.49461" fill="#6B6A6C"/>
<ellipse cx="2.4516" cy="4.49461" rx="2.4516" ry="4.49461" transform="matrix(-1 0 0 1 454.353 396.741)" fill="#6B6A6C"/>
<ellipse cx="2.4516" cy="4.49461" rx="2.4516" ry="4.49461" transform="matrix(-1 0 0 1 463.342 405.731)" fill="#6B6A6C"/>
<ellipse cx="2.4516" cy="4.49461" rx="2.4516" ry="4.49461" transform="matrix(-1 0 0 1 450.267 413.903)" fill="#6B6A6C"/>
<path d="M473.558 500.935C469.962 499.627 467.701 495.759 467.02 493.988C466.039 495.95 467.701 498.619 468.654 499.709C470.616 501.997 472.741 501.479 473.558 500.935Z" fill="#FFFDFF"/>
<path d="M447.407 367.322C454.081 372.77 468.899 385.791 474.783 394.29C473.012 387.071 465.058 371.572 447.407 367.322Z" fill="#FFFDFF"/>
<defs>
<linearGradient id="paint0_linear_400_138" x1="600.5" y1="0" x2="600.5" y2="750.5" gradientUnits="userSpaceOnUse">
<stop stop-color="#78CFF3"/>
<stop offset="0.596154" stop-color="#F5F5F5"/>
</linearGradient>
</defs>
</svg>
