<svg width="395" height="491" viewBox="0 0 395 491" fill="none" xmlns="http://www.w3.org/2000/svg">
<rect width="394.099" height="490.871" rx="20" fill="#202020" fill-opacity="0.5"/>
<path d="M53.92 76.16C52.64 76.0533 51.2933 76 49.88 76C48.4667 76 47.3467 76.0533 46.52 76.16L46.36 75.6C46.68 75.4933 46.9867 75.3333 47.28 75.12C47.5733 74.88 47.72 74.6267 47.72 74.36C47.72 72.4133 45.9467 65.9067 42.4 54.84C42.08 53.8267 41.76 52.9333 41.44 52.16C38.32 52.16 36.32 52.5867 35.44 53.44C35.2533 53.8133 35.16 54.4 35.16 55.2C35.16 56 35.2933 56.5467 35.56 56.84L35.52 57.12C34.8533 57.52 34.1867 58.08 33.52 58.8C33.2 58.7733 32.9467 58.64 32.76 58.4C32.5467 58.16 32.44 57.88 32.44 57.56C32.44 56.2533 33.2267 54.6933 34.8 52.88C36.3733 51.0667 37.84 49.92 39.2 49.44C39.4133 49.44 40.3733 49.5333 42.08 49.72C43.7867 49.88 45.1467 49.96 46.16 49.96H50.84C56.6 49.96 60.7733 49.8267 63.36 49.56L63.52 50.56C62.3467 50.9333 61.0667 51.24 59.68 51.48C59.8133 52.4133 59.88 53.2667 59.88 54.04C59.88 54.7867 59.7733 55.7333 59.56 56.88C60.5733 61.4133 62.1733 66.8667 64.36 73.24C66.3333 68.2533 67.6267 64.48 68.24 61.92C68.88 59.3333 69.2 57.12 69.2 55.28C69.2 52.7733 68.5333 51.1333 67.2 50.36L67.36 49.8C68.1867 49.9067 69.5067 49.96 71.32 49.96C73.16 49.96 74.8667 49.8533 76.44 49.64L76.6 50.64C75.4 51.0133 74.12 51.2933 72.76 51.48C72.8933 52.4133 72.96 53.1867 72.96 53.8C72.96 56.04 72.4 58.6133 71.28 61.52C70.1867 64.4267 68.1867 68.8 65.28 74.64C65.7333 74.88 66.3467 75.1067 67.12 75.32L67 76.16C65.72 76.0533 64.3733 76 62.96 76C61.5467 76 60.4267 76.0533 59.6 76.16L59.44 75.6C59.76 75.4933 60.0667 75.3333 60.36 75.12C60.6533 74.88 60.8 74.6267 60.8 74.36C60.8 72.7867 59.8533 68.8 57.96 62.4H57.8C56.5467 65.6267 54.68 69.7067 52.2 74.64C52.6533 74.88 53.2667 75.1067 54.04 75.32L53.92 76.16ZM51.28 73.24C53.2533 68.2533 54.5467 64.48 55.16 61.92C55.8 59.3333 56.12 57.1333 56.12 55.32C56.12 53.48 55.7867 52.2933 55.12 51.76C54.4533 51.2 53.08 50.92 51 50.92C48.9467 50.92 47.1333 51.16 45.56 51.64C45.8 53.8267 46.48 57.0667 47.6 61.36C48.7467 65.6533 49.9733 69.6133 51.28 73.24ZM83.25 56.48C83.0367 57.92 82.93 60.8667 82.93 65.32C82.93 69.7733 83.05 72.8933 83.29 74.68C84.49 74.8133 85.5967 75.0133 86.61 75.28L86.49 76.28C85.1033 76.0933 83.5433 76 81.81 76C80.1033 76 78.57 76.1067 77.21 76.32L77.05 75.28C77.7967 75.04 78.6367 74.84 79.57 74.68C79.81 72.76 79.93 70.04 79.93 66.52V64.64C79.93 61.12 79.7967 58.4 79.53 56.48C78.5967 56.32 77.7567 56.12 77.01 55.88L77.17 54.84C78.53 55.0533 80.0633 55.16 81.77 55.16C83.5033 55.16 85.0633 55.0667 86.45 54.88L86.57 55.88C85.5567 56.1467 84.45 56.3467 83.25 56.48ZM92.0338 72.96C93.2604 73.4667 94.4738 73.72 95.6738 73.72C96.8738 73.72 97.8338 73.44 98.5538 72.88C99.2738 72.32 99.6338 71.52 99.6338 70.48C99.6338 69.4133 98.1271 68.0933 95.1138 66.52C93.9671 65.9333 92.9138 65.2267 91.9538 64.4C91.0204 63.5467 90.5538 62.7067 90.5538 61.88C90.5538 60.4667 91.3004 59.04 92.7938 57.6C94.2871 56.16 95.8204 55.1867 97.3938 54.68C99.3671 54.68 101.154 54.88 102.754 55.28V56C101.634 57.12 101.007 58.6533 100.874 60.6H99.8738C99.8738 59.8533 99.8071 58.92 99.6738 57.8C98.7404 57.3733 97.7404 57.16 96.6738 57.16C95.6071 57.16 94.7138 57.4 93.9938 57.88C93.3004 58.3333 92.9538 59 92.9538 59.88C92.9538 60.4933 93.4204 61.16 94.3538 61.88C95.3138 62.6 96.3538 63.24 97.4738 63.8C98.5938 64.36 99.6204 65.0533 100.554 65.88C101.514 66.7067 101.994 67.5333 101.994 68.36C101.994 69.96 101.287 71.56 99.8738 73.16C98.4604 74.7333 96.9004 75.84 95.1938 76.48C93.5138 76.48 91.9404 76.28 90.4738 75.88C90.0471 76.0667 89.6071 76.3733 89.1538 76.8L88.4338 76.28C89.9271 74.6533 90.7538 72.64 90.9138 70.24H91.9138C91.9138 71.1733 91.9538 72.08 92.0338 72.96ZM118.79 54.84C120.15 55.0533 121.683 55.16 123.39 55.16C125.123 55.16 126.683 55.0667 128.07 54.88L128.19 55.88C127.176 56.1467 126.07 56.3467 124.87 56.48C124.603 58.1333 124.47 60.8533 124.47 64.64V66.52C124.47 70.36 124.603 73.08 124.87 74.68C126.07 74.8133 127.176 75.0133 128.19 75.28L128.07 76.28C126.683 76.0933 125.123 76 123.39 76C121.683 76 120.15 76.1067 118.79 76.32L118.63 75.28C119.376 75.04 120.216 74.84 121.15 74.68C121.363 71.6667 121.483 68.6533 121.51 65.64C119.803 65.48 118.23 65.4 116.79 65.4C115.35 65.4 113.79 65.48 112.11 65.64C112.11 70.04 112.23 73.0533 112.47 74.68C113.67 74.8133 114.776 75.0133 115.79 75.28L115.67 76.28C114.283 76.0933 112.723 76 110.99 76C109.283 76 107.75 76.1067 106.39 76.32L106.23 75.28C106.976 75.04 107.816 74.84 108.75 74.68C108.99 72.76 109.11 70.04 109.11 66.52V64.64C109.11 61.12 108.976 58.4 108.71 56.48C107.776 56.32 106.936 56.12 106.19 55.88L106.35 54.84C107.71 55.0533 109.243 55.16 110.95 55.16C112.683 55.16 114.243 55.0667 115.63 54.88L115.75 55.88C114.736 56.1467 113.63 56.3467 112.43 56.48C112.216 58.0267 112.11 60.4133 112.11 63.64C113.603 63.8533 115.203 63.96 116.91 63.96C118.643 63.96 120.176 63.8667 121.51 63.68C121.483 61.4133 121.363 59.0133 121.15 56.48C120.216 56.32 119.376 56.12 118.63 55.88L118.79 54.84ZM137.156 56.48C136.943 57.92 136.836 60.8667 136.836 65.32C136.836 69.7733 136.956 72.8933 137.196 74.68C138.396 74.8133 139.503 75.0133 140.516 75.28L140.396 76.28C139.01 76.0933 137.45 76 135.716 76C134.01 76 132.476 76.1067 131.116 76.32L130.956 75.28C131.703 75.04 132.543 74.84 133.476 74.68C133.716 72.76 133.836 70.04 133.836 66.52V64.64C133.836 61.12 133.703 58.4 133.436 56.48C132.503 56.32 131.663 56.12 130.916 55.88L131.076 54.84C132.436 55.0533 133.97 55.16 135.676 55.16C137.41 55.16 138.97 55.0667 140.356 54.88L140.476 55.88C139.463 56.1467 138.356 56.3467 137.156 56.48ZM152.86 76.28C151.473 76.0933 149.913 76 148.18 76C146.473 76 144.94 76.1067 143.58 76.32L143.42 75.28C144.273 75.0133 145.073 74.8133 145.82 74.68C146.06 72.6 146.18 69.88 146.18 66.52V64.64C146.18 61.0667 146.047 58.32 145.78 56.4C145.06 56.32 144.193 56.1067 143.18 55.76L143.3 54.72C144.82 55.0133 146.407 55.16 148.06 55.16C149.74 55.16 150.94 55.0667 151.66 54.88L151.74 55.56C151.02 55.7467 150.66 56.0533 150.66 56.48C150.66 56.8 150.967 57.48 151.58 58.52C152.22 59.5333 152.833 60.52 153.42 61.48C155.18 64.28 157.26 67.72 159.66 71.8L159.78 71.72V66.84C159.78 63.2667 159.593 60.5867 159.22 58.8C158.847 56.9867 158.207 55.9333 157.3 55.64L157.38 54.96C158.073 55.0933 159.113 55.16 160.5 55.16C161.887 55.16 163.313 55.0133 164.78 54.72L164.9 55.76C163.807 56.1067 162.887 56.32 162.14 56.4C161.873 58.5333 161.74 61.28 161.74 64.64V66.52C161.74 70.5733 161.873 73.32 162.14 74.76C163.26 74.9467 164.153 75.16 164.82 75.4L164.7 76.44C163.367 76.1467 162.113 76 160.94 76C159.767 76 158.86 76.0533 158.22 76.16C158.22 75.5733 157.807 74.5867 156.98 73.2C156.18 71.8133 155.447 70.5867 154.78 69.52C152.62 66.0267 150.5 62.48 148.42 58.88L148.26 58.96V64.32C148.26 69.6267 148.66 73.08 149.46 74.68C150.66 74.8133 151.833 75.0133 152.98 75.28L152.86 76.28ZM177.182 73.68C178.329 73.68 179.462 73.3467 180.582 72.68L180.382 68.4C179.635 68.16 178.729 67.9467 177.662 67.76L177.782 66.92C178.422 66.9733 178.889 67 179.182 67C181.022 67 182.689 66.5067 184.182 65.52L184.582 66.24C184.262 66.5333 183.969 66.84 183.702 67.16C183.329 70.7867 183.089 73.7733 182.982 76.12H182.142C181.929 75.1333 181.609 74.32 181.182 73.68C179.635 75.04 178.075 75.9733 176.502 76.48C173.915 76.48 171.889 75.6667 170.422 74.04C168.955 72.3867 168.222 70.1733 168.222 67.4C168.222 64.6 169.089 61.9733 170.822 59.52C172.555 57.0667 174.769 55.4533 177.462 54.68C179.409 54.68 181.609 54.88 184.062 55.28L184.022 56.16C183.515 56.16 183.035 56.2533 182.582 56.44C182.075 57.64 181.742 59.0667 181.582 60.72H180.582C180.369 59.8133 180.262 58.88 180.262 57.92C179.249 57.4133 178.049 57.16 176.662 57.16C175.275 57.16 174.129 57.5333 173.222 58.28C172.155 60.2267 171.622 62.5333 171.622 65.2C171.622 67.84 172.009 69.92 172.782 71.44C173.582 72.9333 175.049 73.68 177.182 73.68ZM215.404 76.16C214.124 76.0533 212.778 76 211.364 76C209.951 76 208.831 76.0533 208.004 76.16L207.844 75.6C208.164 75.4933 208.471 75.3333 208.764 75.12C209.058 74.88 209.204 74.6267 209.204 74.36C209.204 72.4133 207.431 65.9067 203.884 54.84C203.564 53.8267 203.244 52.9333 202.924 52.16C199.804 52.16 197.804 52.5867 196.924 53.44C196.738 53.8133 196.644 54.4 196.644 55.2C196.644 56 196.778 56.5467 197.044 56.84L197.004 57.12C196.338 57.52 195.671 58.08 195.004 58.8C194.684 58.7733 194.431 58.64 194.244 58.4C194.031 58.16 193.924 57.88 193.924 57.56C193.924 56.2533 194.711 54.6933 196.284 52.88C197.858 51.0667 199.324 49.92 200.684 49.44C200.898 49.44 201.858 49.5333 203.564 49.72C205.271 49.88 206.631 49.96 207.644 49.96H212.324C218.084 49.96 222.258 49.8267 224.844 49.56L225.004 50.56C223.831 50.9333 222.551 51.24 221.164 51.48C221.298 52.4133 221.364 53.2667 221.364 54.04C221.364 54.7867 221.258 55.7333 221.044 56.88C222.058 61.4133 223.658 66.8667 225.844 73.24C227.818 68.2533 229.111 64.48 229.724 61.92C230.364 59.3333 230.684 57.12 230.684 55.28C230.684 52.7733 230.018 51.1333 228.684 50.36L228.844 49.8C229.671 49.9067 230.991 49.96 232.804 49.96C234.644 49.96 236.351 49.8533 237.924 49.64L238.084 50.64C236.884 51.0133 235.604 51.2933 234.244 51.48C234.378 52.4133 234.444 53.1867 234.444 53.8C234.444 56.04 233.884 58.6133 232.764 61.52C231.671 64.4267 229.671 68.8 226.764 74.64C227.218 74.88 227.831 75.1067 228.604 75.32L228.484 76.16C227.204 76.0533 225.858 76 224.444 76C223.031 76 221.911 76.0533 221.084 76.16L220.924 75.6C221.244 75.4933 221.551 75.3333 221.844 75.12C222.138 74.88 222.284 74.6267 222.284 74.36C222.284 72.7867 221.338 68.8 219.444 62.4H219.284C218.031 65.6267 216.164 69.7067 213.684 74.64C214.138 74.88 214.751 75.1067 215.524 75.32L215.404 76.16ZM212.764 73.24C214.738 68.2533 216.031 64.48 216.644 61.92C217.284 59.3333 217.604 57.1333 217.604 55.32C217.604 53.48 217.271 52.2933 216.604 51.76C215.938 51.2 214.564 50.92 212.484 50.92C210.431 50.92 208.618 51.16 207.044 51.64C207.284 53.8267 207.964 57.0667 209.084 61.36C210.231 65.6533 211.458 69.6133 212.764 73.24ZM241.974 66.12C242.054 68.4933 242.494 70.3467 243.294 71.68C244.094 73.0133 245.454 73.68 247.374 73.68C249.294 73.68 251.068 72.8667 252.694 71.24L253.254 71.8C251.468 74.0667 249.321 75.6267 246.814 76.48C244.228 76.48 242.201 75.6667 240.734 74.04C239.268 72.3867 238.534 70.1733 238.534 67.4C238.534 64.6 239.401 61.9733 241.134 59.52C242.868 57.0667 245.081 55.4533 247.774 54.68C249.721 54.68 251.921 54.88 254.374 55.28L254.334 56.16C253.828 56.16 253.348 56.2533 252.894 56.44C252.388 57.64 252.054 59.0667 251.894 60.72H250.894C250.681 59.8133 250.574 58.88 250.574 57.92C249.561 57.4133 248.361 57.16 246.974 57.16C245.588 57.16 244.441 57.5333 243.534 58.28C242.628 59.9333 242.108 61.9067 241.974 64.2C243.094 64.3867 244.294 64.48 245.574 64.48C247.788 64.48 249.121 64.0133 249.574 63.08L250.414 63.2C250.174 64 250.054 64.7867 250.054 65.56C250.054 66.3333 250.148 67.28 250.334 68.4L249.374 68.56C249.081 67.76 248.868 66.9333 248.734 66.08C247.668 65.9733 246.601 65.92 245.534 65.92C244.494 65.92 243.308 65.9867 241.974 66.12ZM271.024 76.44C269.291 76.1467 266.931 76 263.944 76C260.984 76 258.504 76.1333 256.504 76.4L256.384 75.4C257.131 75.1067 257.984 74.8667 258.944 74.68C259.211 73.08 259.344 70.36 259.344 66.52V64.64C259.344 61.3333 259.211 58.6133 258.944 56.48C258.064 56.3467 257.224 56.1467 256.424 55.88L256.584 54.84C257.944 55.0533 259.544 55.16 261.384 55.16C263.224 55.16 264.797 55.0533 266.104 54.84L266.224 55.84C265.024 56.1333 263.837 56.3467 262.664 56.48C262.451 57.92 262.344 60.8933 262.344 65.4C262.344 69.88 262.451 72.8667 262.664 74.36C263.304 74.4667 264.211 74.52 265.384 74.52C266.557 74.52 267.611 74.2933 268.544 73.84C268.917 72.9333 269.104 71.8667 269.104 70.64H270.104C270.211 72.6933 270.584 74.36 271.224 75.64L271.024 76.44ZM287.313 76.44C285.58 76.1467 283.22 76 280.233 76C277.273 76 274.793 76.1333 272.793 76.4L272.673 75.4C273.42 75.1067 274.273 74.8667 275.233 74.68C275.5 73.08 275.633 70.36 275.633 66.52V64.64C275.633 61.3333 275.5 58.6133 275.233 56.48C274.353 56.3467 273.513 56.1467 272.713 55.88L272.873 54.84C274.233 55.0533 275.833 55.16 277.673 55.16C279.513 55.16 281.086 55.0533 282.393 54.84L282.513 55.84C281.313 56.1333 280.126 56.3467 278.953 56.48C278.74 57.92 278.633 60.8933 278.633 65.4C278.633 69.88 278.74 72.8667 278.953 74.36C279.593 74.4667 280.5 74.52 281.673 74.52C282.846 74.52 283.9 74.2933 284.833 73.84C285.206 72.9333 285.393 71.8667 285.393 70.64H286.393C286.5 72.6933 286.873 74.36 287.513 75.64L287.313 76.44Z" fill="#FAF9F6"/>
<path d="M40.5415 379.36V376.912H47.4535V379.36H40.5415ZM50.9468 385L50.1548 383.032L55.2908 377.248C55.5628 376.96 55.8428 376.632 56.1308 376.264C56.4348 375.88 56.7228 375.488 56.9948 375.088C57.2668 374.688 57.4828 374.296 57.6428 373.912C57.8188 373.512 57.9068 373.136 57.9068 372.784C57.9068 372.272 57.8028 371.84 57.5948 371.488C57.4028 371.12 57.1148 370.84 56.7308 370.648C56.3628 370.456 55.9148 370.36 55.3868 370.36C54.9228 370.36 54.4668 370.496 54.0188 370.768C53.5708 371.04 53.1628 371.424 52.7948 371.92C52.4268 372.416 52.1388 372.992 51.9308 373.648L49.9388 372.4C50.2108 371.472 50.6188 370.68 51.1628 370.024C51.7228 369.352 52.3868 368.84 53.1548 368.488C53.9388 368.136 54.7868 367.96 55.6988 367.96C56.6428 367.96 57.4828 368.16 58.2188 368.56C58.9548 368.944 59.5308 369.488 59.9468 370.192C60.3628 370.88 60.5708 371.68 60.5708 372.592C60.5708 372.96 60.5308 373.336 60.4508 373.72C60.3708 374.104 60.2428 374.504 60.0668 374.92C59.8908 375.32 59.6668 375.744 59.3948 376.192C59.1228 376.624 58.7948 377.08 58.4108 377.56C58.0428 378.04 57.6188 378.544 57.1388 379.072L53.3228 383.224L52.8428 382.504H61.0988V385H50.9468ZM75.9578 390.52C75.0618 390.52 74.1658 390.376 73.2698 390.088C72.3898 389.816 71.6778 389.456 71.1338 389.008L72.0458 387.088C72.3658 387.328 72.7418 387.536 73.1738 387.712C73.6058 387.904 74.0618 388.048 74.5418 388.144C75.0218 388.256 75.4938 388.312 75.9578 388.312C76.8378 388.312 77.5738 388.168 78.1658 387.88C78.7578 387.592 79.2058 387.168 79.5098 386.608C79.8138 386.048 79.9658 385.352 79.9658 384.52V382.096L80.2298 382.264C80.1498 382.76 79.8858 383.24 79.4378 383.704C79.0058 384.152 78.4618 384.52 77.8058 384.808C77.1498 385.096 76.4778 385.24 75.7898 385.24C74.5898 385.24 73.5178 384.96 72.5738 384.4C71.6458 383.824 70.9098 383.048 70.3658 382.072C69.8218 381.08 69.5498 379.952 69.5498 378.688C69.5498 377.424 69.8138 376.304 70.3418 375.328C70.8858 374.336 71.6218 373.56 72.5498 373C73.4938 372.424 74.5498 372.136 75.7178 372.136C76.1978 372.136 76.6618 372.2 77.1098 372.328C77.5578 372.44 77.9738 372.608 78.3578 372.832C78.7418 373.04 79.0858 373.272 79.3898 373.528C79.6938 373.784 79.9418 374.056 80.1338 374.344C80.3258 374.632 80.4458 374.904 80.4938 375.16L79.9658 375.352V372.4H82.4378V384.232C82.4378 385.24 82.2858 386.128 81.9818 386.896C81.6938 387.68 81.2698 388.336 80.7098 388.864C80.1498 389.408 79.4698 389.816 78.6698 390.088C77.8698 390.376 76.9658 390.52 75.9578 390.52ZM76.0538 382.96C76.8378 382.96 77.5338 382.776 78.1418 382.408C78.7498 382.04 79.2218 381.536 79.5578 380.896C79.8938 380.256 80.0618 379.52 80.0618 378.688C80.0618 377.856 79.8858 377.12 79.5338 376.48C79.1978 375.824 78.7258 375.312 78.1178 374.944C77.5258 374.576 76.8378 374.392 76.0538 374.392C75.2858 374.392 74.5978 374.584 73.9898 374.968C73.3978 375.336 72.9258 375.848 72.5738 376.504C72.2378 377.144 72.0698 377.872 72.0698 378.688C72.0698 379.504 72.2378 380.24 72.5738 380.896C72.9258 381.536 73.3978 382.04 73.9898 382.408C74.5978 382.776 75.2858 382.96 76.0538 382.96ZM91.7838 385.24C90.4878 385.24 89.3358 384.968 88.3278 384.424C87.3358 383.864 86.5518 383.104 85.9758 382.144C85.4158 381.184 85.1358 380.08 85.1358 378.832C85.1358 377.84 85.2958 376.936 85.6158 376.12C85.9358 375.304 86.3758 374.6 86.9358 374.008C87.5118 373.4 88.1918 372.936 88.9758 372.616C89.7758 372.28 90.6398 372.112 91.5678 372.112C92.3838 372.112 93.1438 372.272 93.8478 372.592C94.5518 372.896 95.1598 373.32 95.6718 373.864C96.1998 374.408 96.5998 375.056 96.8718 375.808C97.1598 376.544 97.2958 377.352 97.2798 378.232L97.2558 379.288H86.9598L86.4078 377.32H95.1198L94.7598 377.728V377.152C94.7118 376.624 94.5358 376.152 94.2318 375.736C93.9278 375.32 93.5438 374.992 93.0798 374.752C92.6158 374.512 92.1118 374.392 91.5678 374.392C90.7038 374.392 89.9758 374.56 89.3838 374.896C88.7918 375.216 88.3438 375.696 88.0398 376.336C87.7358 376.96 87.5838 377.736 87.5838 378.664C87.5838 379.544 87.7678 380.312 88.1358 380.968C88.5038 381.608 89.0238 382.104 89.6958 382.456C90.3678 382.808 91.1438 382.984 92.0238 382.984C92.6478 382.984 93.2238 382.88 93.7518 382.672C94.2958 382.464 94.8798 382.088 95.5038 381.544L96.7518 383.296C96.3678 383.68 95.8958 384.016 95.3358 384.304C94.7918 384.592 94.2078 384.824 93.5838 385C92.9758 385.16 92.3758 385.24 91.7838 385.24ZM99.9183 385V372.4H102.414V375.088L101.958 375.376C102.086 374.96 102.286 374.56 102.558 374.176C102.846 373.792 103.19 373.456 103.59 373.168C104.006 372.864 104.446 372.624 104.91 372.448C105.39 372.272 105.878 372.184 106.374 372.184C107.094 372.184 107.726 372.304 108.27 372.544C108.814 372.784 109.262 373.144 109.614 373.624C109.966 374.104 110.222 374.704 110.382 375.424L109.998 375.328L110.166 374.92C110.342 374.552 110.582 374.208 110.886 373.888C111.206 373.552 111.566 373.256 111.966 373C112.366 372.744 112.79 372.544 113.238 372.4C113.686 372.256 114.126 372.184 114.558 372.184C115.502 372.184 116.278 372.376 116.886 372.76C117.51 373.144 117.974 373.728 118.278 374.512C118.598 375.296 118.758 376.272 118.758 377.44V385H116.262V377.584C116.262 376.864 116.166 376.28 115.974 375.832C115.798 375.368 115.526 375.024 115.158 374.8C114.79 374.576 114.318 374.464 113.742 374.464C113.294 374.464 112.87 374.544 112.47 374.704C112.086 374.848 111.75 375.056 111.462 375.328C111.174 375.6 110.95 375.92 110.79 376.288C110.63 376.64 110.55 377.032 110.55 377.464V385H108.054V377.536C108.054 376.88 107.958 376.328 107.766 375.88C107.574 375.416 107.294 375.064 106.926 374.824C106.558 374.584 106.11 374.464 105.582 374.464C105.134 374.464 104.718 374.544 104.334 374.704C103.95 374.848 103.614 375.056 103.326 375.328C103.038 375.584 102.814 375.896 102.654 376.264C102.494 376.616 102.414 377 102.414 377.416V385H99.9183ZM126.268 385.24C125.212 385.24 124.26 385.056 123.412 384.688C122.564 384.32 121.86 383.776 121.3 383.056L122.98 381.616C123.46 382.176 123.98 382.584 124.54 382.84C125.116 383.08 125.764 383.2 126.484 383.2C126.772 383.2 127.036 383.168 127.276 383.104C127.532 383.024 127.748 382.912 127.924 382.768C128.116 382.624 128.26 382.456 128.356 382.264C128.452 382.056 128.5 381.832 128.5 381.592C128.5 381.176 128.348 380.84 128.044 380.584C127.884 380.472 127.628 380.352 127.276 380.224C126.94 380.08 126.5 379.936 125.956 379.792C125.028 379.552 124.268 379.28 123.676 378.976C123.084 378.672 122.628 378.328 122.308 377.944C122.068 377.64 121.892 377.312 121.78 376.96C121.668 376.592 121.612 376.192 121.612 375.76C121.612 375.232 121.724 374.752 121.948 374.32C122.188 373.872 122.508 373.488 122.908 373.168C123.324 372.832 123.804 372.576 124.348 372.4C124.908 372.224 125.5 372.136 126.124 372.136C126.716 372.136 127.3 372.216 127.876 372.376C128.468 372.536 129.012 372.768 129.508 373.072C130.004 373.376 130.42 373.736 130.756 374.152L129.34 375.712C129.036 375.408 128.7 375.144 128.332 374.92C127.98 374.68 127.62 374.496 127.252 374.368C126.884 374.24 126.548 374.176 126.244 374.176C125.908 374.176 125.604 374.208 125.332 374.272C125.06 374.336 124.828 374.432 124.636 374.56C124.46 374.688 124.324 374.848 124.228 375.04C124.132 375.232 124.084 375.448 124.084 375.688C124.1 375.896 124.148 376.096 124.228 376.288C124.324 376.464 124.452 376.616 124.612 376.744C124.788 376.872 125.052 377.008 125.404 377.152C125.756 377.296 126.204 377.432 126.748 377.56C127.548 377.768 128.204 378 128.716 378.256C129.244 378.496 129.66 378.776 129.964 379.096C130.284 379.4 130.508 379.752 130.636 380.152C130.764 380.552 130.828 381 130.828 381.496C130.828 382.216 130.62 382.864 130.204 383.44C129.804 384 129.26 384.44 128.572 384.76C127.884 385.08 127.116 385.24 126.268 385.24ZM133.936 389.296L133.024 388.192C133.584 387.872 134.04 387.504 134.392 387.088C134.744 386.672 134.92 386.312 134.92 386.008C134.92 385.848 134.88 385.688 134.8 385.528C134.72 385.384 134.552 385.176 134.296 384.904C133.976 384.6 133.768 384.344 133.672 384.136C133.576 383.928 133.528 383.704 133.528 383.464C133.528 383.08 133.664 382.776 133.936 382.552C134.208 382.312 134.56 382.192 134.992 382.192C135.392 382.192 135.752 382.312 136.072 382.552C136.408 382.776 136.664 383.096 136.84 383.512C137.032 383.912 137.128 384.376 137.128 384.904C137.128 385.384 137.048 385.848 136.888 386.296C136.728 386.744 136.504 387.16 136.216 387.544C135.928 387.928 135.592 388.272 135.208 388.576C134.824 388.88 134.4 389.12 133.936 389.296ZM153.301 385.24C152.757 385.24 152.213 385.152 151.669 384.976C151.141 384.8 150.653 384.568 150.205 384.28C149.773 383.976 149.405 383.648 149.101 383.296C148.813 382.928 148.621 382.56 148.525 382.192L149.149 381.856V384.928H146.677V367.24H149.149V375.28L148.765 375.064C148.845 374.696 149.021 374.344 149.293 374.008C149.565 373.656 149.909 373.344 150.325 373.072C150.757 372.784 151.221 372.56 151.717 372.4C152.213 372.224 152.717 372.136 153.229 372.136C154.365 372.136 155.373 372.416 156.253 372.976C157.133 373.536 157.829 374.312 158.341 375.304C158.853 376.28 159.109 377.4 159.109 378.664C159.109 379.928 158.853 381.056 158.341 382.048C157.845 383.04 157.157 383.824 156.277 384.4C155.397 384.96 154.405 385.24 153.301 385.24ZM152.893 382.984C153.629 382.984 154.285 382.8 154.861 382.432C155.437 382.048 155.893 381.536 156.229 380.896C156.565 380.24 156.733 379.496 156.733 378.664C156.733 377.848 156.565 377.12 156.229 376.48C155.909 375.824 155.461 375.312 154.885 374.944C154.309 374.576 153.645 374.392 152.893 374.392C152.141 374.392 151.477 374.576 150.901 374.944C150.325 375.312 149.869 375.824 149.533 376.48C149.197 377.12 149.029 377.848 149.029 378.664C149.029 379.496 149.197 380.24 149.533 380.896C149.869 381.536 150.325 382.048 150.901 382.432C151.477 382.8 152.141 382.984 152.893 382.984ZM166.21 385.24C165.314 385.24 164.53 385.032 163.858 384.616C163.202 384.2 162.69 383.616 162.322 382.864C161.97 382.112 161.794 381.216 161.794 380.176V372.4H164.266V379.504C164.266 380.24 164.378 380.88 164.602 381.424C164.842 381.952 165.178 382.36 165.61 382.648C166.058 382.936 166.594 383.08 167.218 383.08C167.682 383.08 168.106 383.008 168.49 382.864C168.874 382.704 169.202 382.488 169.474 382.216C169.762 381.944 169.986 381.616 170.146 381.232C170.306 380.848 170.386 380.432 170.386 379.984V372.4H172.858V385H170.386V382.36L170.818 382.072C170.626 382.664 170.298 383.2 169.834 383.68C169.386 384.16 168.85 384.544 168.226 384.832C167.602 385.104 166.93 385.24 166.21 385.24ZM177.886 385V369.184H180.358V385H177.886ZM175.27 374.8V372.4H183.286V374.8H175.27ZM197.903 390.52C197.007 390.52 196.111 390.376 195.215 390.088C194.335 389.816 193.623 389.456 193.079 389.008L193.991 387.088C194.311 387.328 194.687 387.536 195.119 387.712C195.551 387.904 196.007 388.048 196.487 388.144C196.967 388.256 197.439 388.312 197.903 388.312C198.783 388.312 199.519 388.168 200.111 387.88C200.703 387.592 201.151 387.168 201.455 386.608C201.759 386.048 201.911 385.352 201.911 384.52V382.096L202.175 382.264C202.095 382.76 201.831 383.24 201.383 383.704C200.951 384.152 200.407 384.52 199.751 384.808C199.095 385.096 198.423 385.24 197.735 385.24C196.535 385.24 195.463 384.96 194.519 384.4C193.591 383.824 192.855 383.048 192.311 382.072C191.767 381.08 191.495 379.952 191.495 378.688C191.495 377.424 191.759 376.304 192.287 375.328C192.831 374.336 193.567 373.56 194.495 373C195.439 372.424 196.495 372.136 197.663 372.136C198.143 372.136 198.607 372.2 199.055 372.328C199.503 372.44 199.919 372.608 200.303 372.832C200.687 373.04 201.031 373.272 201.335 373.528C201.639 373.784 201.887 374.056 202.079 374.344C202.271 374.632 202.391 374.904 202.439 375.16L201.911 375.352V372.4H204.383V384.232C204.383 385.24 204.231 386.128 203.927 386.896C203.639 387.68 203.215 388.336 202.655 388.864C202.095 389.408 201.415 389.816 200.615 390.088C199.815 390.376 198.911 390.52 197.903 390.52ZM197.999 382.96C198.783 382.96 199.479 382.776 200.087 382.408C200.695 382.04 201.167 381.536 201.503 380.896C201.839 380.256 202.007 379.52 202.007 378.688C202.007 377.856 201.831 377.12 201.479 376.48C201.143 375.824 200.671 375.312 200.063 374.944C199.471 374.576 198.783 374.392 197.999 374.392C197.231 374.392 196.543 374.584 195.935 374.968C195.343 375.336 194.871 375.848 194.519 376.504C194.183 377.144 194.015 377.872 194.015 378.688C194.015 379.504 194.183 380.24 194.519 380.896C194.871 381.536 195.343 382.04 195.935 382.408C196.543 382.776 197.231 382.96 197.999 382.96ZM212.078 385.24C211.182 385.24 210.398 385.032 209.726 384.616C209.07 384.2 208.558 383.616 208.19 382.864C207.838 382.112 207.662 381.216 207.662 380.176V372.4H210.134V379.504C210.134 380.24 210.246 380.88 210.47 381.424C210.71 381.952 211.046 382.36 211.478 382.648C211.926 382.936 212.462 383.08 213.086 383.08C213.55 383.08 213.974 383.008 214.358 382.864C214.742 382.704 215.07 382.488 215.342 382.216C215.63 381.944 215.854 381.616 216.014 381.232C216.174 380.848 216.254 380.432 216.254 379.984V372.4H218.726V385H216.254V382.36L216.686 382.072C216.494 382.664 216.166 383.2 215.702 383.68C215.254 384.16 214.718 384.544 214.094 384.832C213.47 385.104 212.798 385.24 212.078 385.24ZM227.041 385.24C226.001 385.24 225.049 384.952 224.185 384.376C223.337 383.8 222.657 383.016 222.145 382.024C221.633 381.032 221.377 379.912 221.377 378.664C221.377 377.4 221.633 376.28 222.145 375.304C222.673 374.312 223.377 373.536 224.257 372.976C225.153 372.416 226.153 372.136 227.257 372.136C227.913 372.136 228.513 372.232 229.057 372.424C229.601 372.616 230.073 372.888 230.473 373.24C230.889 373.576 231.225 373.968 231.481 374.416C231.753 374.864 231.921 375.344 231.985 375.856L231.433 375.664V372.4H233.929V385H231.433V382L232.009 381.832C231.913 382.264 231.713 382.688 231.409 383.104C231.121 383.504 230.745 383.864 230.281 384.184C229.833 384.504 229.329 384.76 228.769 384.952C228.225 385.144 227.649 385.24 227.041 385.24ZM227.689 382.96C228.441 382.96 229.105 382.776 229.681 382.408C230.257 382.04 230.705 381.536 231.025 380.896C231.361 380.24 231.529 379.496 231.529 378.664C231.529 377.848 231.361 377.12 231.025 376.48C230.705 375.84 230.257 375.336 229.681 374.968C229.105 374.6 228.441 374.416 227.689 374.416C226.953 374.416 226.297 374.6 225.721 374.968C225.161 375.336 224.713 375.84 224.377 376.48C224.057 377.12 223.897 377.848 223.897 378.664C223.897 379.496 224.057 380.24 224.377 380.896C224.713 381.536 225.161 382.04 225.721 382.408C226.297 382.776 226.953 382.96 227.689 382.96ZM237.38 385V372.4H239.876V376.36L239.636 375.4C239.812 374.792 240.108 374.24 240.524 373.744C240.956 373.248 241.444 372.856 241.988 372.568C242.548 372.28 243.124 372.136 243.716 372.136C243.988 372.136 244.244 372.16 244.484 372.208C244.74 372.256 244.94 372.312 245.084 372.376L244.436 375.064C244.244 374.984 244.028 374.92 243.788 374.872C243.564 374.808 243.34 374.776 243.116 374.776C242.684 374.776 242.268 374.864 241.868 375.04C241.484 375.2 241.14 375.432 240.836 375.736C240.548 376.024 240.316 376.368 240.14 376.768C239.964 377.152 239.876 377.576 239.876 378.04V385H237.38ZM251.369 385.24C250.329 385.24 249.377 384.952 248.513 384.376C247.665 383.8 246.985 383.016 246.473 382.024C245.961 381.032 245.705 379.912 245.705 378.664C245.705 377.4 245.961 376.28 246.473 375.304C247.001 374.312 247.705 373.536 248.585 372.976C249.481 372.416 250.481 372.136 251.585 372.136C252.241 372.136 252.841 372.232 253.385 372.424C253.929 372.616 254.401 372.888 254.801 373.24C255.217 373.576 255.553 373.968 255.809 374.416C256.081 374.864 256.249 375.344 256.313 375.856L255.761 375.664V372.4H258.257V385H255.761V382L256.337 381.832C256.241 382.264 256.041 382.688 255.737 383.104C255.449 383.504 255.073 383.864 254.609 384.184C254.161 384.504 253.657 384.76 253.097 384.952C252.553 385.144 251.977 385.24 251.369 385.24ZM252.017 382.96C252.769 382.96 253.433 382.776 254.009 382.408C254.585 382.04 255.033 381.536 255.353 380.896C255.689 380.24 255.857 379.496 255.857 378.664C255.857 377.848 255.689 377.12 255.353 376.48C255.033 375.84 254.585 375.336 254.009 374.968C253.433 374.6 252.769 374.416 252.017 374.416C251.281 374.416 250.625 374.6 250.049 374.968C249.489 375.336 249.041 375.84 248.705 376.48C248.385 377.12 248.225 377.848 248.225 378.664C248.225 379.496 248.385 380.24 248.705 380.896C249.041 381.536 249.489 382.04 250.049 382.408C250.625 382.776 251.281 382.96 252.017 382.96ZM261.708 385V372.4H264.18V374.992L263.748 375.28C263.908 374.72 264.22 374.208 264.684 373.744C265.148 373.264 265.7 372.88 266.34 372.592C266.98 372.288 267.636 372.136 268.308 372.136C269.268 372.136 270.068 372.328 270.708 372.712C271.348 373.08 271.828 373.648 272.148 374.416C272.468 375.184 272.628 376.152 272.628 377.32V385H270.156V377.488C270.156 376.768 270.06 376.176 269.868 375.712C269.676 375.232 269.38 374.888 268.98 374.68C268.58 374.456 268.084 374.36 267.492 374.392C267.012 374.392 266.572 374.472 266.172 374.632C265.772 374.776 265.42 374.984 265.116 375.256C264.828 375.528 264.596 375.848 264.42 376.216C264.26 376.568 264.18 376.952 264.18 377.368V385H262.956C262.748 385 262.54 385 262.332 385C262.124 385 261.916 385 261.708 385ZM277.542 385V369.184H280.014V385H277.542ZM274.926 374.8V372.4H282.942V374.8H274.926ZM290.956 385.24C289.66 385.24 288.508 384.968 287.5 384.424C286.508 383.864 285.724 383.104 285.148 382.144C284.588 381.184 284.308 380.08 284.308 378.832C284.308 377.84 284.468 376.936 284.788 376.12C285.108 375.304 285.548 374.6 286.108 374.008C286.684 373.4 287.364 372.936 288.148 372.616C288.948 372.28 289.812 372.112 290.74 372.112C291.556 372.112 292.316 372.272 293.02 372.592C293.724 372.896 294.332 373.32 294.844 373.864C295.372 374.408 295.772 375.056 296.044 375.808C296.332 376.544 296.468 377.352 296.452 378.232L296.428 379.288H286.132L285.58 377.32H294.292L293.932 377.728V377.152C293.884 376.624 293.708 376.152 293.404 375.736C293.1 375.32 292.716 374.992 292.252 374.752C291.788 374.512 291.284 374.392 290.74 374.392C289.876 374.392 289.148 374.56 288.556 374.896C287.964 375.216 287.516 375.696 287.212 376.336C286.908 376.96 286.756 377.736 286.756 378.664C286.756 379.544 286.94 380.312 287.308 380.968C287.676 381.608 288.196 382.104 288.868 382.456C289.54 382.808 290.316 382.984 291.196 382.984C291.82 382.984 292.396 382.88 292.924 382.672C293.468 382.464 294.052 382.088 294.676 381.544L295.924 383.296C295.54 383.68 295.068 384.016 294.508 384.304C293.964 384.592 293.38 384.824 292.756 385C292.148 385.16 291.548 385.24 290.956 385.24ZM305.018 385.24C303.722 385.24 302.57 384.968 301.562 384.424C300.57 383.864 299.786 383.104 299.21 382.144C298.65 381.184 298.37 380.08 298.37 378.832C298.37 377.84 298.53 376.936 298.85 376.12C299.17 375.304 299.61 374.6 300.17 374.008C300.746 373.4 301.426 372.936 302.21 372.616C303.01 372.28 303.874 372.112 304.802 372.112C305.618 372.112 306.378 372.272 307.082 372.592C307.786 372.896 308.394 373.32 308.906 373.864C309.434 374.408 309.834 375.056 310.106 375.808C310.394 376.544 310.53 377.352 310.514 378.232L310.49 379.288H300.194L299.642 377.32H308.354L307.994 377.728V377.152C307.946 376.624 307.77 376.152 307.466 375.736C307.162 375.32 306.778 374.992 306.314 374.752C305.85 374.512 305.346 374.392 304.802 374.392C303.938 374.392 303.21 374.56 302.618 374.896C302.026 375.216 301.578 375.696 301.274 376.336C300.97 376.96 300.818 377.736 300.818 378.664C300.818 379.544 301.002 380.312 301.37 380.968C301.738 381.608 302.258 382.104 302.93 382.456C303.602 382.808 304.378 382.984 305.258 382.984C305.882 382.984 306.458 382.88 306.986 382.672C307.53 382.464 308.114 382.088 308.738 381.544L309.986 383.296C309.602 383.68 309.13 384.016 308.57 384.304C308.026 384.592 307.442 384.824 306.818 385C306.21 385.16 305.61 385.24 305.018 385.24ZM318.457 385.24C317.305 385.24 316.273 384.96 315.361 384.4C314.465 383.824 313.753 383.048 313.225 382.072C312.697 381.08 312.433 379.952 312.433 378.688C312.433 377.424 312.689 376.304 313.201 375.328C313.729 374.336 314.441 373.56 315.337 373C316.233 372.424 317.249 372.136 318.385 372.136C319.009 372.136 319.609 372.24 320.185 372.448C320.777 372.64 321.305 372.912 321.769 373.264C322.233 373.6 322.593 373.976 322.849 374.392C323.121 374.792 323.257 375.2 323.257 375.616L322.537 375.664V367.24H325.009V385H322.537V382H323.017C323.017 382.384 322.889 382.768 322.633 383.152C322.377 383.52 322.033 383.864 321.601 384.184C321.185 384.504 320.697 384.76 320.137 384.952C319.593 385.144 319.033 385.24 318.457 385.24ZM318.793 383.104C319.545 383.104 320.209 382.912 320.785 382.528C321.361 382.144 321.809 381.624 322.129 380.968C322.465 380.296 322.633 379.536 322.633 378.688C322.633 377.84 322.465 377.088 322.129 376.432C321.809 375.76 321.361 375.232 320.785 374.848C320.209 374.464 319.545 374.272 318.793 374.272C318.041 374.272 317.377 374.464 316.801 374.848C316.225 375.232 315.769 375.76 315.433 376.432C315.113 377.088 314.953 377.84 314.953 378.688C314.953 379.536 315.113 380.296 315.433 380.968C315.769 381.624 316.225 382.144 316.801 382.528C317.377 382.912 318.041 383.104 318.793 383.104ZM40.9975 425.28V407.4H43.4935V410.28L43.1095 410.064C43.2055 409.584 43.4775 409.128 43.9255 408.696C44.3735 408.248 44.9175 407.888 45.5575 407.616C46.2135 407.328 46.8855 407.184 47.5735 407.184C48.7095 407.184 49.7175 407.464 50.5975 408.024C51.4775 408.584 52.1735 409.352 52.6855 410.328C53.1975 411.304 53.4535 412.424 53.4535 413.688C53.4535 414.936 53.1975 416.056 52.6855 417.048C52.1895 418.024 51.5015 418.8 50.6215 419.376C49.7415 419.936 48.7495 420.216 47.6455 420.216C46.9095 420.216 46.1975 420.072 45.5095 419.784C44.8215 419.48 44.2375 419.096 43.7575 418.632C43.2775 418.168 42.9815 417.688 42.8695 417.192L43.4935 416.856V425.28H40.9975ZM47.2375 417.936C47.9735 417.936 48.6295 417.752 49.2055 417.384C49.7815 417.016 50.2375 416.512 50.5735 415.872C50.9095 415.232 51.0775 414.504 51.0775 413.688C51.0775 412.872 50.9095 412.152 50.5735 411.528C50.2535 410.888 49.8055 410.384 49.2295 410.016C48.6535 409.648 47.9895 409.464 47.2375 409.464C46.4855 409.464 45.8215 409.648 45.2455 410.016C44.6695 410.368 44.2135 410.864 43.8775 411.504C43.5415 412.144 43.3735 412.872 43.3735 413.688C43.3735 414.504 43.5415 415.232 43.8775 415.872C44.2135 416.512 44.6695 417.016 45.2455 417.384C45.8215 417.752 46.4855 417.936 47.2375 417.936ZM61.8022 420.24C60.5702 420.24 59.4662 419.96 58.4902 419.4C57.5302 418.824 56.7702 418.048 56.2102 417.072C55.6502 416.08 55.3702 414.952 55.3702 413.688C55.3702 412.424 55.6502 411.304 56.2102 410.328C56.7702 409.336 57.5302 408.56 58.4902 408C59.4662 407.424 60.5702 407.136 61.8022 407.136C63.0182 407.136 64.1062 407.424 65.0662 408C66.0422 408.56 66.8102 409.336 67.3702 410.328C67.9302 411.304 68.2102 412.424 68.2102 413.688C68.2102 414.952 67.9302 416.08 67.3702 417.072C66.8102 418.048 66.0422 418.824 65.0662 419.4C64.1062 419.96 63.0182 420.24 61.8022 420.24ZM61.8022 417.984C62.5542 417.984 63.2262 417.8 63.8182 417.432C64.4102 417.048 64.8742 416.536 65.2102 415.896C65.5462 415.24 65.7062 414.504 65.6902 413.688C65.7062 412.856 65.5462 412.12 65.2102 411.48C64.8742 410.824 64.4102 410.312 63.8182 409.944C63.2262 409.576 62.5542 409.392 61.8022 409.392C61.0502 409.392 60.3702 409.584 59.7622 409.968C59.1702 410.336 58.7062 410.848 58.3702 411.504C58.0342 412.144 57.8742 412.872 57.8902 413.688C57.8742 414.504 58.0342 415.24 58.3702 415.896C58.7062 416.536 59.1702 417.048 59.7622 417.432C60.3702 417.8 61.0502 417.984 61.8022 417.984ZM75.1038 420.24C74.0478 420.24 73.0958 420.056 72.2478 419.688C71.3998 419.32 70.6958 418.776 70.1358 418.056L71.8158 416.616C72.2958 417.176 72.8158 417.584 73.3758 417.84C73.9518 418.08 74.5998 418.2 75.3198 418.2C75.6078 418.2 75.8718 418.168 76.1118 418.104C76.3678 418.024 76.5838 417.912 76.7598 417.768C76.9518 417.624 77.0958 417.456 77.1918 417.264C77.2878 417.056 77.3358 416.832 77.3358 416.592C77.3358 416.176 77.1838 415.84 76.8798 415.584C76.7198 415.472 76.4638 415.352 76.1118 415.224C75.7758 415.08 75.3358 414.936 74.7918 414.792C73.8638 414.552 73.1038 414.28 72.5118 413.976C71.9198 413.672 71.4638 413.328 71.1438 412.944C70.9038 412.64 70.7278 412.312 70.6158 411.96C70.5038 411.592 70.4478 411.192 70.4478 410.76C70.4478 410.232 70.5598 409.752 70.7838 409.32C71.0238 408.872 71.3438 408.488 71.7438 408.168C72.1598 407.832 72.6398 407.576 73.1838 407.4C73.7438 407.224 74.3358 407.136 74.9598 407.136C75.5518 407.136 76.1358 407.216 76.7118 407.376C77.3038 407.536 77.8478 407.768 78.3438 408.072C78.8398 408.376 79.2558 408.736 79.5918 409.152L78.1758 410.712C77.8718 410.408 77.5358 410.144 77.1678 409.92C76.8158 409.68 76.4558 409.496 76.0878 409.368C75.7198 409.24 75.3838 409.176 75.0798 409.176C74.7438 409.176 74.4398 409.208 74.1678 409.272C73.8958 409.336 73.6638 409.432 73.4718 409.56C73.2958 409.688 73.1598 409.848 73.0638 410.04C72.9678 410.232 72.9198 410.448 72.9198 410.688C72.9358 410.896 72.9838 411.096 73.0638 411.288C73.1598 411.464 73.2878 411.616 73.4478 411.744C73.6238 411.872 73.8878 412.008 74.2398 412.152C74.5918 412.296 75.0398 412.432 75.5838 412.56C76.3838 412.768 77.0398 413 77.5518 413.256C78.0798 413.496 78.4958 413.776 78.7998 414.096C79.1198 414.4 79.3438 414.752 79.4718 415.152C79.5998 415.552 79.6638 416 79.6638 416.496C79.6638 417.216 79.4558 417.864 79.0398 418.44C78.6398 419 78.0958 419.44 77.4078 419.76C76.7198 420.08 75.9518 420.24 75.1038 420.24ZM82.7962 420V407.4H85.2682V420H82.7962ZM83.9962 404.616C83.4682 404.616 83.0602 404.48 82.7722 404.208C82.4842 403.936 82.3402 403.552 82.3402 403.056C82.3402 402.592 82.4842 402.216 82.7722 401.928C83.0762 401.64 83.4842 401.496 83.9962 401.496C84.5242 401.496 84.9322 401.632 85.2202 401.904C85.5082 402.176 85.6522 402.56 85.6522 403.056C85.6522 403.52 85.5002 403.896 85.1962 404.184C84.9082 404.472 84.5082 404.616 83.9962 404.616ZM90.6278 420V404.184H93.0998V420H90.6278ZM88.0118 409.8V407.4H96.0278V409.8H88.0118ZM98.6868 420V407.4H101.159V420H98.6868ZM99.8868 404.616C99.3588 404.616 98.9508 404.48 98.6628 404.208C98.3748 403.936 98.2308 403.552 98.2308 403.056C98.2308 402.592 98.3748 402.216 98.6628 401.928C98.9668 401.64 99.3748 401.496 99.8868 401.496C100.415 401.496 100.823 401.632 101.111 401.904C101.399 402.176 101.543 402.56 101.543 403.056C101.543 403.52 101.391 403.896 101.087 404.184C100.799 404.472 100.399 404.616 99.8868 404.616ZM109.086 420L103.758 407.4H106.422L110.262 416.832L109.806 417.048L113.91 407.4H116.454L110.862 420H109.086ZM124.245 420.24C122.949 420.24 121.797 419.968 120.789 419.424C119.797 418.864 119.013 418.104 118.437 417.144C117.877 416.184 117.597 415.08 117.597 413.832C117.597 412.84 117.757 411.936 118.077 411.12C118.397 410.304 118.837 409.6 119.397 409.008C119.973 408.4 120.653 407.936 121.437 407.616C122.237 407.28 123.101 407.112 124.029 407.112C124.845 407.112 125.605 407.272 126.309 407.592C127.013 407.896 127.621 408.32 128.133 408.864C128.661 409.408 129.061 410.056 129.333 410.808C129.621 411.544 129.757 412.352 129.741 413.232L129.717 414.288H119.421L118.869 412.32H127.581L127.221 412.728V412.152C127.173 411.624 126.997 411.152 126.693 410.736C126.389 410.32 126.005 409.992 125.541 409.752C125.077 409.512 124.573 409.392 124.029 409.392C123.165 409.392 122.437 409.56 121.845 409.896C121.253 410.216 120.805 410.696 120.501 411.336C120.197 411.96 120.045 412.736 120.045 413.664C120.045 414.544 120.229 415.312 120.597 415.968C120.965 416.608 121.485 417.104 122.157 417.456C122.829 417.808 123.605 417.984 124.485 417.984C125.109 417.984 125.685 417.88 126.213 417.672C126.757 417.464 127.341 417.088 127.965 416.544L129.213 418.296C128.829 418.68 128.357 419.016 127.797 419.304C127.253 419.592 126.669 419.824 126.045 420C125.437 420.16 124.837 420.24 124.245 420.24ZM144.794 425.52C143.898 425.52 143.002 425.376 142.106 425.088C141.226 424.816 140.514 424.456 139.97 424.008L140.882 422.088C141.202 422.328 141.578 422.536 142.01 422.712C142.442 422.904 142.898 423.048 143.378 423.144C143.858 423.256 144.33 423.312 144.794 423.312C145.674 423.312 146.41 423.168 147.002 422.88C147.594 422.592 148.042 422.168 148.346 421.608C148.65 421.048 148.802 420.352 148.802 419.52V417.096L149.066 417.264C148.986 417.76 148.722 418.24 148.274 418.704C147.842 419.152 147.298 419.52 146.642 419.808C145.986 420.096 145.314 420.24 144.626 420.24C143.426 420.24 142.354 419.96 141.41 419.4C140.482 418.824 139.746 418.048 139.202 417.072C138.658 416.08 138.386 414.952 138.386 413.688C138.386 412.424 138.65 411.304 139.178 410.328C139.722 409.336 140.458 408.56 141.386 408C142.33 407.424 143.386 407.136 144.554 407.136C145.034 407.136 145.498 407.2 145.946 407.328C146.394 407.44 146.81 407.608 147.194 407.832C147.578 408.04 147.922 408.272 148.226 408.528C148.53 408.784 148.778 409.056 148.97 409.344C149.162 409.632 149.282 409.904 149.33 410.16L148.802 410.352V407.4H151.274V419.232C151.274 420.24 151.122 421.128 150.818 421.896C150.53 422.68 150.106 423.336 149.546 423.864C148.986 424.408 148.306 424.816 147.506 425.088C146.706 425.376 145.802 425.52 144.794 425.52ZM144.89 417.96C145.674 417.96 146.37 417.776 146.978 417.408C147.586 417.04 148.058 416.536 148.394 415.896C148.73 415.256 148.898 414.52 148.898 413.688C148.898 412.856 148.722 412.12 148.37 411.48C148.034 410.824 147.562 410.312 146.954 409.944C146.362 409.576 145.674 409.392 144.89 409.392C144.122 409.392 143.434 409.584 142.826 409.968C142.234 410.336 141.762 410.848 141.41 411.504C141.074 412.144 140.906 412.872 140.906 413.688C140.906 414.504 141.074 415.24 141.41 415.896C141.762 416.536 142.234 417.04 142.826 417.408C143.434 417.776 144.122 417.96 144.89 417.96ZM160.62 420.24C159.324 420.24 158.172 419.968 157.164 419.424C156.172 418.864 155.388 418.104 154.812 417.144C154.252 416.184 153.972 415.08 153.972 413.832C153.972 412.84 154.132 411.936 154.452 411.12C154.772 410.304 155.212 409.6 155.772 409.008C156.348 408.4 157.028 407.936 157.812 407.616C158.612 407.28 159.476 407.112 160.404 407.112C161.22 407.112 161.98 407.272 162.684 407.592C163.388 407.896 163.996 408.32 164.508 408.864C165.036 409.408 165.436 410.056 165.708 410.808C165.996 411.544 166.132 412.352 166.116 413.232L166.092 414.288H155.796L155.244 412.32H163.956L163.596 412.728V412.152C163.548 411.624 163.372 411.152 163.068 410.736C162.764 410.32 162.38 409.992 161.916 409.752C161.452 409.512 160.948 409.392 160.404 409.392C159.54 409.392 158.812 409.56 158.22 409.896C157.628 410.216 157.18 410.696 156.876 411.336C156.572 411.96 156.42 412.736 156.42 413.664C156.42 414.544 156.604 415.312 156.972 415.968C157.34 416.608 157.86 417.104 158.532 417.456C159.204 417.808 159.98 417.984 160.86 417.984C161.484 417.984 162.06 417.88 162.588 417.672C163.132 417.464 163.716 417.088 164.34 416.544L165.588 418.296C165.204 418.68 164.732 419.016 164.172 419.304C163.628 419.592 163.044 419.824 162.42 420C161.812 420.16 161.212 420.24 160.62 420.24ZM168.754 420V407.4H171.25V410.088L170.794 410.376C170.922 409.96 171.122 409.56 171.394 409.176C171.682 408.792 172.026 408.456 172.426 408.168C172.842 407.864 173.282 407.624 173.746 407.448C174.226 407.272 174.714 407.184 175.21 407.184C175.93 407.184 176.562 407.304 177.106 407.544C177.65 407.784 178.098 408.144 178.45 408.624C178.802 409.104 179.058 409.704 179.218 410.424L178.834 410.328L179.002 409.92C179.178 409.552 179.418 409.208 179.722 408.888C180.042 408.552 180.402 408.256 180.802 408C181.202 407.744 181.626 407.544 182.074 407.4C182.522 407.256 182.962 407.184 183.394 407.184C184.338 407.184 185.114 407.376 185.722 407.76C186.346 408.144 186.81 408.728 187.114 409.512C187.434 410.296 187.594 411.272 187.594 412.44V420H185.098V412.584C185.098 411.864 185.002 411.28 184.81 410.832C184.634 410.368 184.362 410.024 183.994 409.8C183.626 409.576 183.154 409.464 182.578 409.464C182.13 409.464 181.706 409.544 181.306 409.704C180.922 409.848 180.586 410.056 180.298 410.328C180.01 410.6 179.786 410.92 179.626 411.288C179.466 411.64 179.386 412.032 179.386 412.464V420H176.89V412.536C176.89 411.88 176.794 411.328 176.602 410.88C176.41 410.416 176.13 410.064 175.762 409.824C175.394 409.584 174.946 409.464 174.418 409.464C173.97 409.464 173.554 409.544 173.17 409.704C172.786 409.848 172.45 410.056 172.162 410.328C171.874 410.584 171.65 410.896 171.49 411.264C171.33 411.616 171.25 412 171.25 412.416V420H168.754ZM195.104 420.24C194.048 420.24 193.096 420.056 192.248 419.688C191.4 419.32 190.696 418.776 190.136 418.056L191.816 416.616C192.296 417.176 192.816 417.584 193.376 417.84C193.952 418.08 194.6 418.2 195.32 418.2C195.608 418.2 195.872 418.168 196.112 418.104C196.368 418.024 196.584 417.912 196.76 417.768C196.952 417.624 197.096 417.456 197.192 417.264C197.288 417.056 197.336 416.832 197.336 416.592C197.336 416.176 197.184 415.84 196.88 415.584C196.72 415.472 196.464 415.352 196.112 415.224C195.776 415.08 195.336 414.936 194.792 414.792C193.864 414.552 193.104 414.28 192.512 413.976C191.92 413.672 191.464 413.328 191.144 412.944C190.904 412.64 190.728 412.312 190.616 411.96C190.504 411.592 190.448 411.192 190.448 410.76C190.448 410.232 190.56 409.752 190.784 409.32C191.024 408.872 191.344 408.488 191.744 408.168C192.16 407.832 192.64 407.576 193.184 407.4C193.744 407.224 194.336 407.136 194.96 407.136C195.552 407.136 196.136 407.216 196.712 407.376C197.304 407.536 197.848 407.768 198.344 408.072C198.84 408.376 199.256 408.736 199.592 409.152L198.176 410.712C197.872 410.408 197.536 410.144 197.168 409.92C196.816 409.68 196.456 409.496 196.088 409.368C195.72 409.24 195.384 409.176 195.08 409.176C194.744 409.176 194.44 409.208 194.168 409.272C193.896 409.336 193.664 409.432 193.472 409.56C193.296 409.688 193.16 409.848 193.064 410.04C192.968 410.232 192.92 410.448 192.92 410.688C192.936 410.896 192.984 411.096 193.064 411.288C193.16 411.464 193.288 411.616 193.448 411.744C193.624 411.872 193.888 412.008 194.24 412.152C194.592 412.296 195.04 412.432 195.584 412.56C196.384 412.768 197.04 413 197.552 413.256C198.08 413.496 198.496 413.776 198.8 414.096C199.12 414.4 199.344 414.752 199.472 415.152C199.6 415.552 199.664 416 199.664 416.496C199.664 417.216 199.456 417.864 199.04 418.44C198.64 419 198.096 419.44 197.408 419.76C196.72 420.08 195.952 420.24 195.104 420.24ZM209.115 420V407.4H211.587V409.992L211.155 410.28C211.315 409.72 211.627 409.208 212.091 408.744C212.555 408.264 213.107 407.88 213.747 407.592C214.387 407.288 215.043 407.136 215.715 407.136C216.675 407.136 217.475 407.328 218.115 407.712C218.755 408.08 219.235 408.648 219.555 409.416C219.875 410.184 220.035 411.152 220.035 412.32V420H217.563V412.488C217.563 411.768 217.467 411.176 217.275 410.712C217.083 410.232 216.787 409.888 216.387 409.68C215.987 409.456 215.491 409.36 214.899 409.392C214.419 409.392 213.979 409.472 213.579 409.632C213.179 409.776 212.827 409.984 212.523 410.256C212.235 410.528 212.003 410.848 211.827 411.216C211.667 411.568 211.587 411.952 211.587 412.368V420H210.363C210.155 420 209.947 420 209.739 420C209.531 420 209.323 420 209.115 420ZM229.268 420.24C227.972 420.24 226.82 419.968 225.812 419.424C224.82 418.864 224.036 418.104 223.46 417.144C222.9 416.184 222.62 415.08 222.62 413.832C222.62 412.84 222.78 411.936 223.1 411.12C223.42 410.304 223.86 409.6 224.42 409.008C224.996 408.4 225.676 407.936 226.46 407.616C227.26 407.28 228.124 407.112 229.052 407.112C229.868 407.112 230.628 407.272 231.332 407.592C232.036 407.896 232.644 408.32 233.156 408.864C233.684 409.408 234.084 410.056 234.356 410.808C234.644 411.544 234.78 412.352 234.764 413.232L234.74 414.288H224.444L223.892 412.32H232.604L232.244 412.728V412.152C232.196 411.624 232.02 411.152 231.716 410.736C231.412 410.32 231.028 409.992 230.564 409.752C230.1 409.512 229.596 409.392 229.052 409.392C228.188 409.392 227.46 409.56 226.868 409.896C226.276 410.216 225.828 410.696 225.524 411.336C225.22 411.96 225.068 412.736 225.068 413.664C225.068 414.544 225.252 415.312 225.62 415.968C225.988 416.608 226.508 417.104 227.18 417.456C227.852 417.808 228.628 417.984 229.508 417.984C230.132 417.984 230.708 417.88 231.236 417.672C231.78 417.464 232.364 417.088 232.988 416.544L234.236 418.296C233.852 418.68 233.38 419.016 232.82 419.304C232.276 419.592 231.692 419.824 231.068 420C230.46 420.16 229.86 420.24 229.268 420.24ZM245.756 420L241.676 414.696L241.316 414.24L236.012 407.4H239.132L243.14 412.632L243.548 413.16L248.78 420H245.756ZM236.036 420L241.004 413.52L242.468 415.272L238.964 420H236.036ZM243.692 413.904L242.324 412.176L245.42 407.4H248.348L243.692 413.904ZM252.417 420V404.184H254.889V420H252.417ZM249.801 409.8V407.4H257.817V409.8H249.801ZM268.354 420V404.184H270.826V420H268.354ZM265.738 409.8V407.4H273.754V409.8H265.738ZM280.421 420.24C279.525 420.24 278.741 420.032 278.069 419.616C277.413 419.2 276.901 418.616 276.533 417.864C276.181 417.112 276.005 416.216 276.005 415.176V407.4H278.477V414.504C278.477 415.24 278.589 415.88 278.813 416.424C279.053 416.952 279.389 417.36 279.821 417.648C280.269 417.936 280.805 418.08 281.429 418.08C281.893 418.08 282.317 418.008 282.701 417.864C283.085 417.704 283.413 417.488 283.685 417.216C283.973 416.944 284.197 416.616 284.357 416.232C284.517 415.848 284.597 415.432 284.597 414.984V407.4H287.069V420H284.597V417.36L285.029 417.072C284.837 417.664 284.509 418.2 284.045 418.68C283.597 419.16 283.061 419.544 282.437 419.832C281.813 420.104 281.141 420.24 280.421 420.24ZM290.537 420V407.4H293.033V411.36L292.793 410.4C292.969 409.792 293.265 409.24 293.681 408.744C294.113 408.248 294.601 407.856 295.145 407.568C295.705 407.28 296.281 407.136 296.873 407.136C297.145 407.136 297.401 407.16 297.641 407.208C297.897 407.256 298.097 407.312 298.241 407.376L297.593 410.064C297.401 409.984 297.185 409.92 296.945 409.872C296.721 409.808 296.497 409.776 296.273 409.776C295.841 409.776 295.425 409.864 295.025 410.04C294.641 410.2 294.297 410.432 293.993 410.736C293.705 411.024 293.473 411.368 293.297 411.768C293.121 412.152 293.033 412.576 293.033 413.04V420H290.537ZM300.216 420V407.4H302.688V409.992L302.256 410.28C302.416 409.72 302.728 409.208 303.192 408.744C303.656 408.264 304.208 407.88 304.848 407.592C305.488 407.288 306.144 407.136 306.816 407.136C307.776 407.136 308.576 407.328 309.216 407.712C309.856 408.08 310.336 408.648 310.656 409.416C310.976 410.184 311.136 411.152 311.136 412.32V420H308.664V412.488C308.664 411.768 308.568 411.176 308.376 410.712C308.184 410.232 307.888 409.888 307.488 409.68C307.088 409.456 306.592 409.36 306 409.392C305.52 409.392 305.08 409.472 304.68 409.632C304.28 409.776 303.928 409.984 303.624 410.256C303.336 410.528 303.104 410.848 302.928 411.216C302.768 411.568 302.688 411.952 302.688 412.368V420H301.464C301.256 420 301.048 420 300.84 420C300.632 420 300.424 420 300.216 420Z" fill="#FAF9F6"/>
<path d="M72.7066 224.952C71.9342 228.969 77.6629 234.35 80.6239 236.539C157.929 236.86 313.544 237.157 317.561 235.766C322.581 234.028 330.885 221.09 327.795 218.58C325.323 216.572 321.101 218.644 319.299 219.932C322.581 214.911 322.968 207.766 320.071 205.835C317.754 204.29 313.441 209.054 311.575 211.628C313.634 202.359 315.128 182.972 304.623 179.573C294.118 176.175 288.016 188.714 286.278 195.408C286.214 193.799 285.313 190.696 282.223 191.16C279.133 191.623 279.133 197.789 279.52 200.815C279.133 199.463 277.395 196.914 273.533 197.532C269.671 198.15 268.448 207.444 268.32 212.015C267.084 204.445 264.071 206.028 262.72 207.766C262.526 199.077 259.244 190.001 253.644 190.001C249.164 190.001 244.579 199.187 244 203.5C239.366 198.866 238.067 200.107 236.844 201.587C212.32 202.874 162.538 205.488 159.603 205.642C156.668 205.797 154.904 209.955 154.389 212.015C154.389 209.697 151.686 205.063 149.175 205.835C147.167 206.453 146.407 209.44 146.279 210.856C144.348 205.835 141.837 204.097 139.713 205.449C138.014 206.53 137.074 211.435 136.817 213.753C135.916 211.371 133.766 206.183 132.375 204.484C130.637 202.359 126.389 199.077 121.755 201.008C118.047 202.553 119.18 211.564 120.21 215.877C115.575 210.47 113.001 213.366 112.293 215.49C111.778 213.431 110.284 208.616 108.431 205.835C106.113 202.359 101.479 199.077 95.6859 199.463C91.0514 199.772 91.1801 207.702 91.8238 211.628C90.279 209.697 85.6445 205.256 82.1687 208.925C79.388 211.86 81.0101 219.159 82.1687 222.442C80.0445 221.284 73.6722 219.932 72.7066 224.952Z" fill="#46335E"/>
<path d="M44.7076 242.911C75.913 233.951 135.466 224.631 161.342 221.09L241.672 219.353C311.962 229.973 339.768 241.559 343.051 242.718C345.677 243.645 345.819 245.035 345.561 245.614C339.537 255.81 305.847 257.844 289.755 257.587C288.66 257.651 286.897 258.321 288.596 260.483C290.295 262.646 287.244 263.573 285.506 263.766C138.555 280.373 51.08 250.249 45.6731 247.159C41.3476 244.688 43.2271 243.297 44.7076 242.911Z" fill="#8F7CAD" stroke="#433459" stroke-linecap="round"/>
<path d="M157.287 251.214V210.084C157.287 203.132 168.358 199.334 173.894 198.304C180.073 197.017 197.993 194.751 220.239 195.987C242.484 197.223 249.333 205.642 249.976 209.697V251.214C210.892 270.216 171.899 259.132 157.287 251.214Z" fill="#473262"/>
<path d="M119.051 263.766C121.626 263.83 126.775 263.727 126.775 262.8C126.775 261.642 121.175 258.745 114.61 257.2C109.357 255.965 112.292 255.269 114.417 255.076C115.189 255.012 116.077 254.652 113.451 253.725C110.825 252.798 98.0671 250.635 92.0166 249.669C89.8281 249.219 86.5711 247.777 91.0511 245.614C96.651 242.911 117.892 238.47 146.665 238.276C148.982 238.276 153.076 237.813 150.913 235.959C148.75 234.105 150.784 233.642 152.072 233.642C155.032 233.578 161.727 233.488 164.816 233.642C167.906 233.796 222.232 227.656 249.009 224.566C254.609 225.081 266.62 226.768 269.864 229.394C273.108 232.02 269.542 233.706 267.354 234.221C263.878 235.187 258.741 237.659 266.002 239.821C273.263 241.984 280.485 242.396 283.188 242.332C284.411 242.396 287.128 242.872 288.209 244.263C289.561 246.001 288.402 247.738 287.05 248.318C285.699 248.897 277.395 251.021 275.464 251.407C273.533 251.794 267.161 253.918 272.568 256.428C276.893 258.436 285.312 260.483 288.981 261.256" stroke="#433459" stroke-linecap="round"/>
<path d="M121.756 239.628C116.284 240.336 104.956 242.216 103.411 244.07C101.866 245.924 105.471 246.644 107.466 246.773C113.838 246.902 128.051 247.623 133.921 249.477C135.273 249.927 137.59 251.021 136.045 251.794C134.114 252.759 135.466 253.918 136.624 254.304C137.783 254.69 154.004 257.587 160.955 258.746C167.907 259.904 183.934 262.028 186.252 268.594" stroke="#433459" stroke-linecap="round"/>
<path d="M301.727 245.035C303.337 244.005 305.512 241.366 301.341 239.049C297.17 236.732 290.463 235.895 287.631 235.766C285.442 235.766 281.065 235.303 281.065 233.449C281.065 231.595 283.64 230.359 284.927 229.973C286.086 229.651 287.129 228.39 283.576 226.69" stroke="#433459" stroke-linecap="round"/>
<path d="M137.011 229.008C137.204 230.874 138.247 234.878 140.873 235.959C141.259 234.093 141.027 230.089 137.011 229.008Z" fill="#463264"/>
<path d="M145.315 226.69C144.349 227.205 142.727 229.239 143.963 233.256C145.121 232.419 147.014 229.935 145.315 226.69Z" fill="#463264"/>
<path d="M314.086 241.946C314.15 243.233 314.781 246.155 316.789 247.546C316.982 245.872 316.712 242.409 314.086 241.946Z" fill="#463264"/>
<path d="M318.527 241.173C318.27 242.589 318.141 245.731 319.686 246.966C320.265 245.55 320.845 242.409 318.527 241.173Z" fill="#463264"/>
<path d="M324.513 241.753C323.548 242.332 321.81 244.263 322.582 247.353C323.676 246.902 325.595 245.151 324.513 241.753Z" fill="#463264"/>
<path d="M167.714 208.153H159.797C160.106 212.787 167.392 215.619 170.997 216.456C172.233 216.302 175.76 214.976 177.369 214.332C171.344 213.714 168.422 209.955 167.714 208.153Z" fill="#F5F5F5"/>
<path d="M239.161 210.663H247.271C246.963 215.297 238.131 216.971 234.527 217.808C233.291 217.653 229.764 216.327 228.154 215.684C234.179 215.066 238.453 212.465 239.161 210.663Z" fill="#F5F5F5"/>
<path d="M195.906 216.842C190.191 216.842 182.325 215.555 179.107 214.911C177.407 215.838 174.536 216.842 173.313 217.228C176.558 218.773 188.182 220.189 193.589 220.704C194.053 220.086 195.327 217.872 195.906 216.842Z" fill="#F5F5F5"/>
<path d="M195.521 220.704L197.452 216.842C207.029 217.614 219.851 216.52 225.065 215.876L231.631 218.966C227.614 220.665 205.884 220.833 195.521 220.704Z" fill="#F5F5F5"/>
<path d="M239.548 209.698H247.658C248.276 207.689 247.079 206.286 246.306 205.835H239.548C240.475 207.226 239.934 208.989 239.548 209.698Z" fill="#F5F5F5"/>
<path d="M168.485 206.994H160.375C161.611 203.132 172.09 200.493 177.175 199.656L181.23 201.394C174.433 201.857 169.901 205.32 168.485 206.994Z" fill="#F5F5F5"/>
<path d="M183.741 201.008C183.278 200.544 181.102 199.656 180.072 199.27C182.698 198.189 190.564 197.789 194.169 197.725C195.405 198.343 196.486 199.27 196.872 199.656C192.083 199.656 186.123 200.557 183.741 201.008Z" fill="#F5F5F5"/>
<path d="M199.382 199.463C199.073 198.845 197.451 197.918 196.679 197.532C201.622 196.914 209.681 197.403 213.092 197.725C212.32 197.88 211.355 199.077 210.968 199.656C209.732 199.193 202.729 199.334 199.382 199.463Z" fill="#F5F5F5"/>
<path d="M213.286 199.849C213.441 199.231 214.767 198.304 215.41 197.918C221.899 197.918 226.868 198.819 228.541 199.463C226.996 200.081 226.353 201.265 226.224 201.587C223.714 200.621 216.698 199.913 213.286 199.849Z" fill="#F5F5F5"/>
<path d="M238.969 204.677H244.955C241.402 201.587 233.783 199.757 230.5 199.5C229.11 199.963 228.284 201.523 227.962 201.973C236.458 202.9 238.5 204.5 238.969 204.677Z" fill="#F5F5F5"/>
<path d="M182.583 209.118V202.939C177.369 203.325 170.996 206.028 170.031 207.959C169.258 209.504 172.412 210.792 174.086 211.242C175.013 209.852 180.137 209.247 182.583 209.118Z" fill="#8E7AAC"/>
<path d="M184.127 208.925L183.934 202.746C186.714 201.664 194.361 201.33 197.837 201.201V207.573C194.593 207.573 187.345 208.474 184.127 208.925Z" fill="#8E7AAC"/>
<path d="M199.383 207.573V201.201C202.627 200.892 208.33 201.201 210.776 201.394V207.573C207.995 207.264 202.022 207.445 199.383 207.573Z" fill="#8E7AAC"/>
<path d="M225.066 203.518C221.358 201.973 215.025 201.458 212.321 201.394V207.573C215.411 207.728 221.976 208.796 224.873 209.311L225.066 203.518Z" fill="#8E7AAC"/>
<path d="M226.417 209.361V203.711C231.343 204.088 237.284 205.687 238.196 207.573C238.926 209.082 235.529 210.995 233.948 211.435C232.21 210.47 228.728 209.486 226.417 209.361Z" fill="#8E7AAC"/>
<path d="M176.79 212.015C185.673 209.697 209.038 206.453 231.438 212.015C223.006 214.782 200.271 218.657 176.79 212.015Z" fill="#9BD5EB"/>
<path d="M196 213.5C194.841 213.5 187.817 214.537 185.5 215" stroke="#433459" stroke-linecap="round"/>
<path d="M159.797 221.67V214.525C159.797 213.443 160.441 213.559 160.762 213.752C162.629 214.847 166.633 217.19 167.714 217.807C168.795 218.425 169.066 219.867 169.066 220.511C169.066 221.541 169.027 224.103 168.873 226.111C168.718 228.119 167.006 227.72 166.169 227.27C164.56 226.368 161.187 224.45 160.569 223.987C159.951 223.523 159.797 222.249 159.797 221.67Z" fill="#B59CB5"/>
<path d="M170.416 226.69C170.262 225.918 170.481 221.605 170.61 219.546C170.609 218.619 171.382 218.773 171.768 218.966C175.976 220.879 189.845 222.034 192.361 222.243L192.43 222.249C194.284 222.404 194.747 223.858 194.747 224.566V229.201C194.747 231.363 193.074 232.162 192.237 232.29C185.092 233.063 173.506 229.394 172.541 229.008C171.575 228.621 170.61 227.656 170.416 226.69Z" fill="#B59CB5"/>
<path d="M196.293 230.166V224.953C196.293 222.867 198.095 222.41 198.996 222.442H206.334C209.115 222.442 209.81 224.116 209.81 224.953V229.973C209.81 231.827 208.008 232.548 207.107 232.677C205.691 232.741 202.202 232.831 199.576 232.677C196.95 232.522 196.293 230.939 196.293 230.166Z" fill="#B59CB5"/>
<path d="M211.548 229.973C211.085 228.274 211.484 225.532 211.741 224.373C212.05 222.983 213.801 222.506 214.638 222.442C220.753 221.927 233.235 220.455 234.72 220.125C236.458 219.739 236.458 220.64 236.458 221.283V227.076C236.458 228.93 235.557 229.78 235.107 229.973C230.318 231.209 219.723 231.775 215.024 231.904C214.058 231.968 212.012 231.672 211.548 229.973Z" fill="#B59CB5"/>
<path d="M248.044 222.442V214.332C248.044 213.25 247.658 213.624 247.465 213.946C246.499 215.684 239.934 219.159 238.968 219.353C238.196 219.507 238.003 220.576 238.003 221.09V227.27C238.003 229.124 238.775 229.33 239.162 229.201C240.706 228.815 245.727 226.111 246.886 225.339C247.813 224.721 248.044 223.15 248.044 222.442Z" fill="#B59CB5"/>
<path d="M159.797 235.573V227.077C159.797 226.562 160.106 225.725 161.342 226.497C162.887 227.463 172.542 231.132 174.473 231.518C176.017 231.827 176.404 233.192 176.404 233.835V240.98C176.404 242.988 174.215 243.233 173.121 243.104C168.68 242.525 162.887 238.856 161.342 237.89C160.106 237.118 159.797 236.024 159.797 235.573Z" fill="#B59CB5"/>
<path d="M178.141 242.525C177.832 241.443 177.884 236.667 177.948 234.414C177.986 232.097 180.796 232.29 182.196 232.676C195.134 235.38 213.093 233.642 215.796 233.449C217.959 233.294 218.5 234.672 218.5 235.38C218.435 237.375 218.345 241.868 218.5 243.876C218.654 245.885 216.504 246.773 215.41 246.966C205.369 248.318 187.989 246.387 183.548 245.614C179.107 244.842 178.528 243.876 178.141 242.525Z" fill="#B59CB5"/>
<path d="M224.486 232.483C237.617 232.174 245.019 228.621 247.079 226.883C247.851 226.265 248.044 226.497 248.044 226.69C248.108 229.072 248.237 234.105 248.237 235.187C248.237 236.268 247.722 236.925 247.465 237.118C238.775 244.456 226.03 245.614 223.134 246C220.817 246.309 220.109 244.713 220.044 243.876C219.98 242.331 219.89 238.585 220.044 235.959C220.199 233.333 223.07 232.548 224.486 232.483Z" fill="#B59CB5"/>
<path d="M159.604 249.669V240.207C159.604 239.126 160.247 239.371 160.569 239.628C162.114 240.722 165.358 242.988 165.976 243.297C166.594 243.606 166.748 244.584 166.748 245.035V250.828C166.748 252.991 165.203 252.759 164.431 252.373C163.594 251.987 161.689 251.137 160.762 250.828C159.835 250.519 159.604 249.927 159.604 249.669Z" fill="#B59CB5"/>
<path d="M168.486 252.566C168.023 251.33 168.293 247.803 168.486 246.194C168.665 244.031 170.749 244.134 171.769 244.456C174.472 245.164 180.304 246.696 182.003 247.159C183.703 247.622 184.256 249.154 184.321 249.862V255.462C184.321 256.235 184.321 257.587 181.038 257.393C178.412 257.239 173.893 256.042 171.962 255.269C170.997 254.883 168.95 253.802 168.486 252.566Z" fill="#B59CB5"/>
<path d="M185.865 256.814V250.442C185.865 248.434 187.796 248.06 188.762 248.125C193.718 248.382 204.403 248.859 207.493 248.704C210.582 248.55 211.097 250.313 210.969 251.214C210.904 252.116 210.814 254.42 210.969 256.428C211.123 258.437 209.617 259.325 208.844 259.518C206.334 260.29 193.01 259.132 189.534 258.939C186.754 258.784 185.93 257.458 185.865 256.814Z" fill="#B59CB5"/>
<path d="M215.989 258.939C213.518 259.248 212.642 258.166 212.513 257.587C211.741 254.961 212.192 251.729 212.513 250.442C212.977 248.743 214.638 248.189 215.41 248.125C219.079 247.932 234.334 245.615 236.265 244.456C237.81 243.529 238.067 244.456 238.003 245.035V252.566C238.003 253.802 236.844 254.626 236.265 254.884C234.141 255.849 219.079 258.552 215.989 258.939Z" fill="#B59CB5"/>
<path d="M241.093 243.104C242.947 242.177 245.856 240.272 247.079 239.435C247.852 238.917 248.045 239.219 248.045 239.435V249.284C247.981 249.605 247.736 250.365 247.272 250.828C246.693 251.408 243.604 252.759 241.866 253.725C240.475 254.497 240.128 253.918 240.128 253.532C240.063 250.893 239.935 245.421 239.935 244.649C239.935 243.877 240.707 243.297 241.093 243.104Z" fill="#B59CB5"/>
<path d="M185.093 212.401C192.109 210.985 213.206 209.675 228.5 214" stroke="#433459" stroke-linecap="round"/>
<path d="M199 213.5C202 213 214.585 213.146 222 215" stroke="#433459" stroke-linecap="round"/>
<path d="M221.976 254.269C223.134 255.428 226.307 259.807 226.5 260C232.357 262.446 243.217 263.77 245.534 255.428C245.663 254.205 245.689 251.836 244.762 252.145C243.603 252.532 240.707 254.656 239.741 255.621C238.969 256.394 238.776 255.943 238.776 255.621C238.711 254.334 238.582 251.257 238.582 249.249C238.582 247.241 237.939 247.511 237.617 247.897C235.686 250.021 234.141 255.621 234.141 256.587C234.141 257.552 233.369 257.938 232.983 257.166C232.596 256.394 230.086 253.111 229.314 252.145C228.696 251.373 228.412 251.695 228.348 251.952C228.284 253.111 228.194 255.66 228.348 256.587C228.503 257.514 228.155 257.359 227.962 257.166C227.254 256.458 225.567 254.887 224.486 254.269C223.134 253.497 220.817 253.111 221.976 254.269Z" fill="#8F7CAD"/>
<path d="M226.5 260.5C226.307 260.307 223.134 255.428 221.976 254.269C220.817 253.111 223.134 253.497 224.486 254.269C225.567 254.887 227.254 256.458 227.962 257.166C228.155 257.359 228.503 257.514 228.348 256.587C228.194 255.66 228.284 253.111 228.348 251.952C228.412 251.695 228.696 251.373 229.314 252.145C230.086 253.111 232.596 256.394 232.983 257.166C233.369 257.938 234.141 257.552 234.141 256.587C234.141 255.621 235.686 250.021 237.617 247.897C237.939 247.511 238.582 247.241 238.582 249.249C238.582 251.257 238.711 254.334 238.776 255.621C238.776 255.943 238.969 256.394 239.741 255.621C240.707 254.656 243.603 252.532 244.762 252.145C245.689 251.836 245.663 254.205 245.534 255.428" stroke="#47335E" stroke-linecap="round"/>
<path d="M254.804 245.773C254.186 247.163 253.774 250.987 253.646 252.725L245 257C245.386 255.262 245.149 250.214 244.184 248.477C243.411 247.086 244.119 246.996 244.57 247.125C247.659 248.67 248.947 250.729 249.204 251.566C249.462 252.467 249.977 253.729 249.977 251.566C249.977 248.863 251.908 246.739 252.487 245.966C253.066 245.194 255.577 244.035 254.804 245.773Z" fill="#8F7CAD"/>
<path d="M253.646 252.725C253.774 250.987 254.186 247.163 254.804 245.773C255.577 244.035 253.066 245.194 252.487 245.966C251.908 246.739 249.977 248.863 249.977 251.566C249.977 253.729 249.462 252.467 249.204 251.566C248.947 250.729 247.659 248.67 244.57 247.125C244.119 246.996 243.411 247.086 244.184 248.477C245.149 250.214 245.386 253.762 245 255.5" stroke="#47335E" stroke-linecap="round"/>
<path d="M152.072 252.18C152.536 252.489 154.454 254.24 155.355 255.077L161.92 255.077L162.886 250.828C163.079 250.12 163.388 248.627 163.079 248.318C162.77 248.009 162.178 248.318 161.92 248.511C161.47 248.962 160.453 250.017 159.989 250.635C159.526 251.253 159.153 250.893 159.024 250.635C158.251 249.283 156.282 246.426 154.583 245.808C152.458 245.035 153.038 246.966 153.231 247.352L154.969 250.828C155.162 251.214 155.355 251.91 154.583 251.601C153.617 251.214 152.651 251.021 152.072 251.021C151.493 251.021 151.493 251.794 152.072 252.18Z" fill="#8F7CAD"/>
<path d="M155.355 255.077C154.454 254.24 152.536 252.489 152.072 252.18C151.493 251.794 151.493 251.021 152.072 251.021C152.651 251.021 153.617 251.214 154.583 251.601C155.355 251.91 155.162 251.214 154.969 250.828C154.454 249.798 153.385 247.661 153.231 247.352C153.038 246.966 152.458 245.035 154.583 245.808C156.282 246.426 158.251 249.283 159.024 250.635C159.153 250.893 159.526 251.253 159.989 250.635C160.453 250.017 161.47 248.962 161.92 248.511C162.178 248.318 162.77 248.009 163.079 248.318C163.388 248.627 163.079 250.12 162.886 250.828L161.92 255.077" stroke="#433459" stroke-linecap="round"/>
<path d="M67.2999 245.035C68.3941 245.357 70.7371 247.005 71.355 251.021C69.7458 250.506 66.6819 248.588 67.2999 245.035Z" fill="#463264"/>
<path d="M71.9353 240.208C71.6135 241.624 71.4332 245.035 73.287 247.352C73.7376 245.486 74.0981 241.443 71.9353 240.208Z" fill="#463264"/>
<path d="M76.955 243.49C76.1183 244.327 74.7923 246.812 76.1826 250.056C77.1481 249.026 78.6543 246.271 76.955 243.49Z" fill="#463264"/>
</svg>
