<svg width="545" height="328" viewBox="0 0 545 328" fill="none" xmlns="http://www.w3.org/2000/svg">
<path d="M249.5 111C67.1 45.4 7.16667 228.667 0 328.5H209.5C196.7 219.7 287.833 220.167 335 234C395 255.333 519.3 272 536.5 168C553.7 64 498.667 12.6667 469 0C471.833 64.3333 431.9 176.6 249.5 111Z" fill="#899137"/>
<ellipse cx="55" cy="231" rx="13" ry="12" fill="#993A80"/>
<ellipse cx="333" cy="157" rx="13" ry="12" fill="#993A80"/>
<ellipse cx="35.5" cy="265.5" rx="10.5" ry="8.5" fill="#993A80"/>
<ellipse cx="361.5" cy="172.5" rx="10.5" ry="8.5" fill="#993A80"/>
<ellipse cx="46" cy="301" rx="20" ry="13" fill="#993A80"/>
<ellipse cx="237" cy="154" rx="20" ry="13" fill="#993A80"/>
<ellipse cx="80.5" cy="194" rx="12.5" ry="18" fill="#993A80"/>
<ellipse cx="297.5" cy="167" rx="12.5" ry="18" fill="#993A80"/>
<ellipse cx="429.5" cy="145" rx="12.5" ry="18" fill="#993A80"/>
<ellipse cx="111" cy="169" rx="13" ry="12" fill="#993A80"/>
<ellipse cx="120.5" cy="141" rx="9.5" ry="8" fill="#993A80"/>
<ellipse cx="276.5" cy="145" rx="9.5" ry="8" fill="#993A80"/>
<ellipse cx="469.5" cy="98" rx="9.5" ry="8" fill="#993A80"/>
<ellipse cx="170.5" cy="145" rx="13.5" ry="12" fill="#993A80"/>
<ellipse cx="465.5" cy="127" rx="13.5" ry="12" fill="#993A80"/>
<ellipse cx="202.5" cy="130.5" rx="8.5" ry="10.5" fill="#993A80"/>
<ellipse cx="380.5" cy="155.5" rx="8.5" ry="10.5" fill="#993A80"/>
<path d="M212.472 328H142C149.33 303.575 171.788 249.541 202.976 228.804C241.96 202.884 261.452 203.881 274.447 202.385C284.843 201.189 324.427 209.198 342.92 213.352C356.748 216.675 391.701 222.424 420.889 218.835C450.077 215.246 481.365 188.096 493.36 174.969C523.348 137.883 492.86 44.2039 473.868 2C549.838 40.6813 550.171 130.439 540.841 170.483C531.012 210.361 479.366 279.947 351.417 239.272C223.468 198.597 205.475 281.476 212.472 328Z" fill="#747B30"/>
</svg>
